G04*
G04 #@! TF.GenerationSoftware,Altium Limited,Altium Designer,22.2.1 (43)*
G04*
G04 Layer_Color=65535*
%FSLAX44Y44*%
%MOMM*%
G71*
G04*
G04 #@! TF.SameCoordinates,B871D9CF-1150-4038-8CC5-882BAF5B3A6C*
G04*
G04*
G04 #@! TF.FilePolarity,Positive*
G04*
G01*
G75*
%ADD10C,0.2500*%
%ADD11C,0.2000*%
%ADD12C,0.6000*%
%ADD13C,0.2540*%
%ADD14C,0.1500*%
%ADD15C,0.3000*%
%ADD16C,0.4000*%
%ADD17R,18.0000X5.0000*%
G36*
X-19073Y337814D02*
X-64963Y291924D01*
X-72612Y299572D01*
X-26722Y345463D01*
X-19073Y337814D01*
D02*
G37*
G36*
X101126Y232607D02*
X93478Y224958D01*
X75607Y242829D01*
X83256Y250478D01*
X101126Y232607D01*
D02*
G37*
G36*
X157698Y-68802D02*
X144750Y-81750D01*
X84250Y-21250D01*
X97198Y-8302D01*
X157698Y-68802D01*
D02*
G37*
G36*
X60962Y338186D02*
X47888Y325112D01*
X21000Y352000D01*
X34074Y365074D01*
X60962Y338186D01*
D02*
G37*
G36*
X-28851Y256519D02*
X-36337Y249033D01*
X-48811Y261507D01*
X-41325Y268993D01*
X-28851Y256519D01*
D02*
G37*
G36*
X100845Y217316D02*
X55245Y171716D01*
X47609Y179351D01*
X40654Y172396D01*
X26227Y186824D01*
X33712Y194309D01*
X48127Y179895D01*
X93196Y224965D01*
X100845Y217316D01*
D02*
G37*
G36*
X31326Y196695D02*
X23677Y189046D01*
X6108Y206616D01*
X13756Y214265D01*
X31326Y196695D01*
D02*
G37*
G36*
X4454Y-29383D02*
X-10581Y-44419D01*
X-24250Y-30750D01*
X-9215Y-15715D01*
X4454Y-29383D01*
D02*
G37*
G36*
X177204Y-339383D02*
X162169Y-354419D01*
X148500Y-340750D01*
X163535Y-325715D01*
X177204Y-339383D01*
D02*
G37*
G36*
X3772Y230259D02*
X-3876Y222610D01*
X-21140Y239874D01*
X-13491Y247523D01*
X3772Y230259D01*
D02*
G37*
G36*
X-4931Y217750D02*
X-12580Y210101D01*
X-33649Y231170D01*
X-26000Y238818D01*
X-4931Y217750D01*
D02*
G37*
G36*
X-155203Y-253792D02*
X-168277Y-266866D01*
X-204638Y-230504D01*
X-191564Y-217430D01*
X-155203Y-253792D01*
D02*
G37*
G36*
X75813Y257567D02*
X68165Y249918D01*
X50009Y268074D01*
X57657Y275723D01*
X75813Y257567D01*
D02*
G37*
G36*
X244844Y-183156D02*
X173156Y-254844D01*
X126109Y-207797D01*
X197797Y-136109D01*
X244844Y-183156D01*
D02*
G37*
G36*
X-47067Y274734D02*
X-54552Y267249D01*
X-67011Y279708D01*
X-59525Y287193D01*
X-47067Y274734D01*
D02*
G37*
G36*
X5926Y327100D02*
X-1641Y319533D01*
X-13666Y331558D01*
X-6099Y339125D01*
X5926Y327100D01*
D02*
G37*
G36*
X53804Y279576D02*
X46155Y271927D01*
X28177Y289905D01*
X35826Y297554D01*
X53804Y279576D01*
D02*
G37*
G36*
X30758Y302622D02*
X23109Y294973D01*
X7029Y311054D01*
X14678Y318702D01*
X30758Y302622D01*
D02*
G37*
G36*
X375688Y-142751D02*
X375806D01*
X375933Y-142759D01*
X376077Y-142768D01*
X376373Y-142793D01*
X376686Y-142827D01*
X376982Y-142869D01*
X377117Y-142903D01*
X377244Y-142937D01*
X377253D01*
X377286Y-142945D01*
X377329Y-142962D01*
X377388Y-142988D01*
X377464Y-143013D01*
X377548Y-143047D01*
X377642Y-143089D01*
X377752Y-143140D01*
X377980Y-143267D01*
X378098Y-143334D01*
X378225Y-143419D01*
X378344Y-143512D01*
X378470Y-143605D01*
X378589Y-143715D01*
X378707Y-143833D01*
X378716Y-143842D01*
X378733Y-143859D01*
X378767Y-143901D01*
X378809Y-143952D01*
X378860Y-144011D01*
X378919Y-144087D01*
X378986Y-144172D01*
X379054Y-144273D01*
X379130Y-144383D01*
X379206Y-144502D01*
X379282Y-144628D01*
X379367Y-144772D01*
X379443Y-144916D01*
X379511Y-145077D01*
X379646Y-145415D01*
Y-145424D01*
X379663Y-145457D01*
X379680Y-145508D01*
X379697Y-145584D01*
X379722Y-145669D01*
X379748Y-145779D01*
X379773Y-145906D01*
X379807Y-146049D01*
X379841Y-146210D01*
X379866Y-146388D01*
X379892Y-146574D01*
X379917Y-146777D01*
X379942Y-146997D01*
X379951Y-147225D01*
X379968Y-147462D01*
Y-147716D01*
Y-147733D01*
Y-147767D01*
Y-147834D01*
X379959Y-147919D01*
Y-148020D01*
X379951Y-148139D01*
X379942Y-148274D01*
X379934Y-148426D01*
X379917Y-148587D01*
X379892Y-148748D01*
X379841Y-149094D01*
X379765Y-149450D01*
X379663Y-149788D01*
Y-149796D01*
X379646Y-149839D01*
X379629Y-149889D01*
X379595Y-149966D01*
X379562Y-150059D01*
X379511Y-150160D01*
X379460Y-150279D01*
X379401Y-150405D01*
X379249Y-150676D01*
X379071Y-150964D01*
X378860Y-151251D01*
X378750Y-151387D01*
X378623Y-151514D01*
X378614Y-151522D01*
X378597Y-151539D01*
X378572Y-151564D01*
X378530Y-151598D01*
X378479Y-151640D01*
X378411Y-151683D01*
X378344Y-151742D01*
X378259Y-151801D01*
X378166Y-151860D01*
X378056Y-151919D01*
X377946Y-151987D01*
X377819Y-152055D01*
X377684Y-152114D01*
X377548Y-152182D01*
X377396Y-152232D01*
X377236Y-152292D01*
X377227D01*
X377202Y-152300D01*
X377168Y-152309D01*
X377117Y-152325D01*
X377049Y-152342D01*
X376973Y-152359D01*
X376880Y-152376D01*
X376770Y-152393D01*
X376652Y-152410D01*
X376525Y-152427D01*
X376381Y-152444D01*
X376229Y-152461D01*
X376060Y-152478D01*
X375882Y-152486D01*
X375696Y-152495D01*
X371788D01*
Y-142742D01*
X375586D01*
X375688Y-142751D01*
D02*
G37*
G36*
X369945Y-144392D02*
X364684D01*
Y-146549D01*
X369581D01*
Y-148198D01*
X364684D01*
Y-150845D01*
X370131D01*
Y-152495D01*
X362713D01*
Y-142742D01*
X369945D01*
Y-144392D01*
D02*
G37*
G36*
X356412Y-150845D02*
X361300D01*
Y-152495D01*
X354441D01*
Y-142818D01*
X356412D01*
Y-150845D01*
D02*
G37*
G36*
X349332Y-144392D02*
X346448D01*
Y-152495D01*
X344477D01*
Y-144392D01*
X341584D01*
Y-142742D01*
X349332D01*
Y-144392D01*
D02*
G37*
G36*
X315533Y-142751D02*
X315787D01*
X316066Y-142768D01*
X316353Y-142785D01*
X316489Y-142793D01*
X316624Y-142810D01*
X316751Y-142827D01*
X316861Y-142844D01*
X316869D01*
X316886Y-142852D01*
X316920D01*
X316954Y-142861D01*
X317005Y-142878D01*
X317064Y-142886D01*
X317208Y-142928D01*
X317360Y-142988D01*
X317538Y-143055D01*
X317715Y-143140D01*
X317884Y-143250D01*
X317893D01*
X317901Y-143267D01*
X317927Y-143284D01*
X317960Y-143309D01*
X318045Y-143377D01*
X318147Y-143461D01*
X318265Y-143580D01*
X318392Y-143723D01*
X318510Y-143884D01*
X318629Y-144062D01*
Y-144070D01*
X318646Y-144087D01*
X318654Y-144113D01*
X318680Y-144146D01*
X318696Y-144197D01*
X318722Y-144256D01*
X318756Y-144324D01*
X318781Y-144392D01*
X318840Y-144561D01*
X318883Y-144755D01*
X318916Y-144967D01*
X318933Y-145195D01*
Y-145204D01*
Y-145229D01*
Y-145263D01*
X318925Y-145314D01*
Y-145373D01*
X318916Y-145441D01*
X318899Y-145525D01*
X318891Y-145610D01*
X318840Y-145804D01*
X318773Y-146016D01*
X318688Y-146236D01*
X318629Y-146346D01*
X318561Y-146455D01*
Y-146464D01*
X318544Y-146481D01*
X318527Y-146506D01*
X318493Y-146549D01*
X318409Y-146650D01*
X318299Y-146777D01*
X318155Y-146921D01*
X317986Y-147056D01*
X317791Y-147191D01*
X317563Y-147310D01*
X317572D01*
X317605Y-147318D01*
X317648Y-147335D01*
X317707Y-147360D01*
X317783Y-147386D01*
X317876Y-147428D01*
X317969Y-147470D01*
X318071Y-147521D01*
X318290Y-147640D01*
X318519Y-147792D01*
X318739Y-147978D01*
X318840Y-148088D01*
X318933Y-148198D01*
X318942Y-148206D01*
X318950Y-148223D01*
X318976Y-148257D01*
X319009Y-148308D01*
X319043Y-148367D01*
X319086Y-148443D01*
X319128Y-148519D01*
X319179Y-148612D01*
X319221Y-148722D01*
X319263Y-148832D01*
X319305Y-148951D01*
X319339Y-149086D01*
X319373Y-149221D01*
X319398Y-149365D01*
X319407Y-149517D01*
X319415Y-149670D01*
Y-149678D01*
Y-149703D01*
Y-149737D01*
X319407Y-149780D01*
Y-149847D01*
X319398Y-149915D01*
X319390Y-149991D01*
X319373Y-150084D01*
X319339Y-150279D01*
X319280Y-150499D01*
X319204Y-150727D01*
X319102Y-150964D01*
Y-150972D01*
X319086Y-150989D01*
X319069Y-151023D01*
X319043Y-151065D01*
X319018Y-151124D01*
X318976Y-151184D01*
X318883Y-151327D01*
X318756Y-151488D01*
X318612Y-151649D01*
X318443Y-151818D01*
X318257Y-151970D01*
X318248D01*
X318231Y-151987D01*
X318206Y-152004D01*
X318164Y-152029D01*
X318113Y-152063D01*
X318045Y-152089D01*
X317977Y-152131D01*
X317893Y-152165D01*
X317800Y-152207D01*
X317698Y-152249D01*
X317478Y-152325D01*
X317216Y-152385D01*
X316937Y-152435D01*
X316912D01*
X316878Y-152444D01*
X316768D01*
X316683Y-152452D01*
X316582D01*
X316455Y-152461D01*
X316311Y-152469D01*
X316142D01*
X315947Y-152478D01*
X315728D01*
X315482Y-152486D01*
X315203D01*
X314899Y-152495D01*
X311245D01*
Y-142742D01*
X315423D01*
X315533Y-142751D01*
D02*
G37*
G36*
X336129Y-142582D02*
X336196D01*
X336264Y-142590D01*
X336340D01*
X336526Y-142615D01*
X336738Y-142641D01*
X336975Y-142683D01*
X337228Y-142742D01*
X337499Y-142810D01*
X337778Y-142903D01*
X338066Y-143013D01*
X338353Y-143140D01*
X338641Y-143292D01*
X338920Y-143470D01*
X339182Y-143681D01*
X339436Y-143918D01*
X339453Y-143935D01*
X339495Y-143977D01*
X339554Y-144053D01*
X339639Y-144163D01*
X339740Y-144299D01*
X339842Y-144468D01*
X339960Y-144662D01*
X340087Y-144882D01*
X340206Y-145136D01*
X340324Y-145415D01*
X340434Y-145720D01*
X340527Y-146049D01*
X340612Y-146413D01*
X340671Y-146794D01*
X340713Y-147208D01*
X340730Y-147640D01*
Y-147648D01*
Y-147665D01*
Y-147699D01*
Y-147741D01*
X340722Y-147800D01*
Y-147868D01*
X340713Y-147944D01*
Y-148029D01*
X340705Y-148122D01*
X340688Y-148223D01*
X340662Y-148460D01*
X340620Y-148714D01*
X340569Y-148984D01*
X340502Y-149281D01*
X340417Y-149577D01*
X340316Y-149889D01*
X340189Y-150194D01*
X340045Y-150499D01*
X339867Y-150794D01*
X339673Y-151074D01*
X339444Y-151336D01*
X339427Y-151353D01*
X339385Y-151395D01*
X339309Y-151454D01*
X339207Y-151539D01*
X339081Y-151640D01*
X338928Y-151759D01*
X338742Y-151877D01*
X338531Y-151996D01*
X338302Y-152122D01*
X338040Y-152241D01*
X337761Y-152359D01*
X337457Y-152452D01*
X337127Y-152537D01*
X336772Y-152605D01*
X336399Y-152647D01*
X336010Y-152664D01*
X335917D01*
X335867Y-152655D01*
X335799D01*
X335731Y-152647D01*
X335655D01*
X335469Y-152621D01*
X335257Y-152596D01*
X335021Y-152554D01*
X334767Y-152495D01*
X334496Y-152427D01*
X334209Y-152342D01*
X333921Y-152232D01*
X333634Y-152106D01*
X333346Y-151953D01*
X333067Y-151776D01*
X332805Y-151573D01*
X332551Y-151344D01*
X332534Y-151327D01*
X332500Y-151285D01*
X332433Y-151209D01*
X332348Y-151099D01*
X332255Y-150964D01*
X332145Y-150803D01*
X332035Y-150608D01*
X331917Y-150388D01*
X331790Y-150143D01*
X331680Y-149864D01*
X331570Y-149568D01*
X331477Y-149238D01*
X331392Y-148883D01*
X331333Y-148511D01*
X331291Y-148105D01*
X331274Y-147682D01*
Y-147673D01*
Y-147665D01*
Y-147614D01*
Y-147538D01*
X331282Y-147437D01*
X331291Y-147301D01*
X331299Y-147157D01*
X331308Y-146988D01*
X331333Y-146811D01*
X331350Y-146616D01*
X331384Y-146413D01*
X331460Y-145999D01*
X331511Y-145787D01*
X331570Y-145576D01*
X331637Y-145373D01*
X331714Y-145178D01*
Y-145170D01*
X331730Y-145144D01*
X331747Y-145102D01*
X331773Y-145051D01*
X331807Y-144984D01*
X331849Y-144908D01*
X331900Y-144823D01*
X331950Y-144730D01*
X332077Y-144527D01*
X332238Y-144299D01*
X332416Y-144070D01*
X332619Y-143842D01*
X332627Y-143833D01*
X332644Y-143816D01*
X332678Y-143783D01*
X332720Y-143740D01*
X332771Y-143698D01*
X332839Y-143639D01*
X332915Y-143580D01*
X332999Y-143512D01*
X333185Y-143368D01*
X333397Y-143224D01*
X333634Y-143081D01*
X333879Y-142962D01*
X333887Y-142954D01*
X333921Y-142945D01*
X333972Y-142928D01*
X334040Y-142903D01*
X334124Y-142869D01*
X334234Y-142835D01*
X334352Y-142802D01*
X334488Y-142768D01*
X334632Y-142734D01*
X334792Y-142700D01*
X334970Y-142666D01*
X335156Y-142632D01*
X335351Y-142607D01*
X335554Y-142590D01*
X335765Y-142573D01*
X336078D01*
X336129Y-142582D01*
D02*
G37*
G36*
X325531D02*
X325598D01*
X325666Y-142590D01*
X325742D01*
X325928Y-142615D01*
X326140Y-142641D01*
X326376Y-142683D01*
X326630Y-142742D01*
X326901Y-142810D01*
X327180Y-142903D01*
X327467Y-143013D01*
X327755Y-143140D01*
X328043Y-143292D01*
X328322Y-143470D01*
X328584Y-143681D01*
X328838Y-143918D01*
X328855Y-143935D01*
X328897Y-143977D01*
X328956Y-144053D01*
X329041Y-144163D01*
X329142Y-144299D01*
X329244Y-144468D01*
X329362Y-144662D01*
X329489Y-144882D01*
X329608Y-145136D01*
X329726Y-145415D01*
X329836Y-145720D01*
X329929Y-146049D01*
X330014Y-146413D01*
X330073Y-146794D01*
X330115Y-147208D01*
X330132Y-147640D01*
Y-147648D01*
Y-147665D01*
Y-147699D01*
Y-147741D01*
X330123Y-147800D01*
Y-147868D01*
X330115Y-147944D01*
Y-148029D01*
X330107Y-148122D01*
X330090Y-148223D01*
X330064Y-148460D01*
X330022Y-148714D01*
X329971Y-148984D01*
X329903Y-149281D01*
X329819Y-149577D01*
X329717Y-149889D01*
X329591Y-150194D01*
X329447Y-150499D01*
X329269Y-150794D01*
X329075Y-151074D01*
X328846Y-151336D01*
X328829Y-151353D01*
X328787Y-151395D01*
X328711Y-151454D01*
X328609Y-151539D01*
X328483Y-151640D01*
X328330Y-151759D01*
X328144Y-151877D01*
X327933Y-151996D01*
X327704Y-152122D01*
X327442Y-152241D01*
X327163Y-152359D01*
X326859Y-152452D01*
X326529Y-152537D01*
X326173Y-152605D01*
X325801Y-152647D01*
X325412Y-152664D01*
X325319D01*
X325268Y-152655D01*
X325201D01*
X325133Y-152647D01*
X325057D01*
X324871Y-152621D01*
X324659Y-152596D01*
X324423Y-152554D01*
X324169Y-152495D01*
X323898Y-152427D01*
X323611Y-152342D01*
X323323Y-152232D01*
X323035Y-152106D01*
X322748Y-151953D01*
X322469Y-151776D01*
X322206Y-151573D01*
X321953Y-151344D01*
X321936Y-151327D01*
X321902Y-151285D01*
X321834Y-151209D01*
X321750Y-151099D01*
X321657Y-150964D01*
X321547Y-150803D01*
X321437Y-150608D01*
X321318Y-150388D01*
X321192Y-150143D01*
X321082Y-149864D01*
X320972Y-149568D01*
X320879Y-149238D01*
X320794Y-148883D01*
X320735Y-148511D01*
X320692Y-148105D01*
X320676Y-147682D01*
Y-147673D01*
Y-147665D01*
Y-147614D01*
Y-147538D01*
X320684Y-147437D01*
X320692Y-147301D01*
X320701Y-147157D01*
X320709Y-146988D01*
X320735Y-146811D01*
X320752Y-146616D01*
X320786Y-146413D01*
X320862Y-145999D01*
X320912Y-145787D01*
X320972Y-145576D01*
X321039Y-145373D01*
X321115Y-145178D01*
Y-145170D01*
X321132Y-145144D01*
X321149Y-145102D01*
X321175Y-145051D01*
X321208Y-144984D01*
X321251Y-144908D01*
X321301Y-144823D01*
X321352Y-144730D01*
X321479Y-144527D01*
X321640Y-144299D01*
X321818Y-144070D01*
X322020Y-143842D01*
X322029Y-143833D01*
X322046Y-143816D01*
X322080Y-143783D01*
X322122Y-143740D01*
X322173Y-143698D01*
X322240Y-143639D01*
X322317Y-143580D01*
X322401Y-143512D01*
X322587Y-143368D01*
X322799Y-143224D01*
X323035Y-143081D01*
X323281Y-142962D01*
X323289Y-142954D01*
X323323Y-142945D01*
X323374Y-142928D01*
X323441Y-142903D01*
X323526Y-142869D01*
X323636Y-142835D01*
X323754Y-142802D01*
X323890Y-142768D01*
X324034Y-142734D01*
X324194Y-142700D01*
X324372Y-142666D01*
X324558Y-142632D01*
X324753Y-142607D01*
X324955Y-142590D01*
X325167Y-142573D01*
X325480D01*
X325531Y-142582D01*
D02*
G37*
%LPC*%
G36*
X-28597Y339627D02*
X-28729Y339617D01*
X-28852Y339606D01*
X-28964Y339596D01*
X-29066Y339576D01*
X-29163Y339561D01*
X-29239Y339545D01*
X-29306Y339530D01*
X-29357Y339510D01*
X-29398Y339499D01*
X-29418Y339489D01*
X-29428D01*
X-29561Y339438D01*
X-29694Y339367D01*
X-29954Y339219D01*
X-30198Y339045D01*
X-30316Y338959D01*
X-30428Y338877D01*
X-30520Y338795D01*
X-30617Y338719D01*
X-30698Y338647D01*
X-30759Y338586D01*
X-30821Y338535D01*
X-31004Y338352D01*
X-31106Y338229D01*
X-31203Y338122D01*
X-31285Y338010D01*
X-31367Y337908D01*
X-31433Y337811D01*
X-31494Y337719D01*
X-31545Y337627D01*
X-31596Y337546D01*
X-31637Y337474D01*
X-31667Y337413D01*
X-31693Y337357D01*
X-31713Y337316D01*
X-31724Y337285D01*
X-31734Y337265D01*
X-31739Y337260D01*
X-31810Y337036D01*
X-31861Y336821D01*
X-31887Y336612D01*
X-31897Y336429D01*
Y336347D01*
X-31902Y336270D01*
X-31897Y336204D01*
X-31892Y336148D01*
X-31897Y336102D01*
X-31892Y336067D01*
X-31887Y336051D01*
Y336041D01*
X-31841Y335801D01*
X-31775Y335572D01*
X-31698Y335352D01*
X-31616Y335159D01*
X-31570Y335072D01*
X-31535Y334995D01*
X-31499Y334919D01*
X-31463Y334863D01*
X-31438Y334817D01*
X-31423Y334781D01*
X-31407Y334756D01*
X-31402Y334751D01*
X-29760Y335628D01*
X-29877Y335827D01*
X-29918Y335919D01*
X-29959Y336010D01*
X-29994Y336097D01*
X-30025Y336179D01*
X-30050Y336255D01*
X-30071Y336327D01*
X-30086Y336383D01*
X-30096Y336444D01*
X-30107Y336495D01*
X-30117Y336536D01*
Y336566D01*
X-30122Y336592D01*
Y336602D01*
Y336612D01*
Y336694D01*
X-30112Y336776D01*
X-30071Y336928D01*
X-30005Y337076D01*
X-29933Y337199D01*
X-29862Y337311D01*
X-29826Y337357D01*
X-29790Y337393D01*
X-29770Y337423D01*
X-29729Y337464D01*
X-29648Y337536D01*
X-29566Y337607D01*
X-29398Y337704D01*
X-29239Y337770D01*
X-29097Y337811D01*
X-29030Y337826D01*
X-28969Y337836D01*
X-28913Y337841D01*
X-28872D01*
X-28831D01*
X-28801D01*
X-28791D01*
X-28780D01*
X-28678Y337821D01*
X-28576Y337790D01*
X-28469Y337745D01*
X-28357Y337694D01*
X-28143Y337561D01*
X-27939Y337408D01*
X-27842Y337332D01*
X-27755Y337265D01*
X-27679Y337199D01*
X-27617Y337138D01*
X-27556Y337087D01*
X-27520Y337051D01*
X-27495Y337025D01*
X-27485Y337015D01*
X-27373Y336903D01*
X-27276Y336786D01*
X-27189Y336679D01*
X-27107Y336576D01*
X-27041Y336480D01*
X-26980Y336388D01*
X-26929Y336306D01*
X-26888Y336225D01*
X-26852Y336148D01*
X-26822Y336087D01*
X-26801Y336036D01*
X-26786Y335990D01*
X-26776Y335949D01*
X-26766Y335929D01*
Y335908D01*
X-26760Y335903D01*
X-26740Y335781D01*
X-26735Y335663D01*
X-26745Y335551D01*
X-26760Y335444D01*
X-26781Y335342D01*
X-26811Y335250D01*
X-26847Y335164D01*
X-26888Y335082D01*
X-26929Y335011D01*
X-26965Y334944D01*
X-27000Y334888D01*
X-27036Y334842D01*
X-27067Y334801D01*
X-27113Y334756D01*
X-27199Y334679D01*
X-27281Y334618D01*
X-27362Y334567D01*
X-27439Y334521D01*
X-27500Y334490D01*
X-27551Y334470D01*
X-27582Y334460D01*
X-27597Y334455D01*
X-27694Y334429D01*
X-27791Y334414D01*
X-27888Y334409D01*
X-27975Y334404D01*
X-28046D01*
X-28102Y334409D01*
X-28138Y334414D01*
X-28148D01*
X-28214Y334429D01*
X-28291Y334455D01*
X-28439Y334511D01*
X-28505Y334536D01*
X-28556Y334557D01*
X-28587Y334577D01*
X-28602Y334582D01*
X-29592Y333032D01*
X-29408Y332950D01*
X-29229Y332873D01*
X-29056Y332812D01*
X-28888Y332766D01*
X-28729Y332731D01*
X-28571Y332705D01*
X-28428Y332685D01*
X-28301Y332669D01*
X-28179D01*
X-28071Y332664D01*
X-27975Y332669D01*
X-27893D01*
X-27827Y332674D01*
X-27781Y332679D01*
X-27755Y332685D01*
X-27745D01*
X-27587Y332720D01*
X-27424Y332771D01*
X-27266Y332838D01*
X-27107Y332904D01*
X-26960Y332991D01*
X-26811Y333077D01*
X-26674Y333164D01*
X-26551Y333256D01*
X-26434Y333343D01*
X-26327Y333429D01*
X-26230Y333506D01*
X-26154Y333572D01*
X-26087Y333628D01*
X-26000Y333715D01*
X-25802Y333924D01*
X-25628Y334138D01*
X-25480Y334347D01*
X-25353Y334557D01*
X-25240Y334761D01*
X-25154Y334960D01*
X-25082Y335143D01*
X-25021Y335317D01*
X-24975Y335475D01*
X-24939Y335623D01*
X-24919Y335755D01*
X-24899Y335868D01*
X-24894Y335954D01*
X-24889Y336021D01*
X-24883Y336067D01*
Y336077D01*
X-24899Y336306D01*
X-24934Y336536D01*
X-24991Y336755D01*
X-25072Y336969D01*
X-25159Y337178D01*
X-25256Y337377D01*
X-25363Y337566D01*
X-25470Y337734D01*
X-25577Y337892D01*
X-25684Y338041D01*
X-25786Y338163D01*
X-25873Y338270D01*
X-25944Y338352D01*
X-25975Y338392D01*
X-26051Y338469D01*
X-26215Y338622D01*
X-26378Y338765D01*
X-26536Y338892D01*
X-26694Y338999D01*
X-26847Y339101D01*
X-26995Y339188D01*
X-27133Y339265D01*
X-27260Y339331D01*
X-27378Y339387D01*
X-27495Y339433D01*
X-27582Y339469D01*
X-27663Y339499D01*
X-27735Y339520D01*
X-27781Y339535D01*
X-27811Y339545D01*
X-27822D01*
X-27990Y339581D01*
X-28153Y339601D01*
X-28306Y339612D01*
X-28459Y339622D01*
X-28597Y339627D01*
D02*
G37*
G36*
X-33606Y335587D02*
X-34784Y334409D01*
D01*
D01*
D01*
X-31234Y330858D01*
X-35687Y333506D01*
X-36753Y332440D01*
X-34116Y327977D01*
X-37666Y331527D01*
X-38844Y330349D01*
X-34187Y325691D01*
X-32295Y327584D01*
X-34407Y331144D01*
X-30841Y329038D01*
X-28949Y330930D01*
X-33606Y335587D01*
D02*
G37*
G36*
X-39660Y328788D02*
X-39834Y328777D01*
X-40012Y328731D01*
X-40191Y328675D01*
X-40369Y328599D01*
X-40553Y328507D01*
X-40726Y328405D01*
X-40895Y328298D01*
X-41053Y328191D01*
X-41206Y328079D01*
X-41339Y327966D01*
X-41456Y327869D01*
X-41563Y327783D01*
X-41645Y327701D01*
X-41680Y327676D01*
X-41884Y327472D01*
X-41992Y327344D01*
X-42094Y327222D01*
X-42190Y327104D01*
X-42272Y326992D01*
X-42348Y326885D01*
X-42420Y326783D01*
X-42476Y326686D01*
X-42527Y326594D01*
X-42573Y326518D01*
X-42609Y326451D01*
X-42634Y326395D01*
X-42655Y326344D01*
X-42675Y326314D01*
X-42680Y326288D01*
X-42685Y326283D01*
X-42762Y326043D01*
X-42808Y325814D01*
X-42828Y325702D01*
X-42838Y325600D01*
X-42843Y325503D01*
Y325411D01*
X-42838Y325324D01*
X-42833Y325248D01*
X-42828Y325181D01*
X-42823Y325125D01*
X-42818Y325079D01*
X-42813Y325044D01*
X-42808Y325028D01*
Y325018D01*
X-42782Y324901D01*
X-42741Y324789D01*
X-42706Y324682D01*
X-42660Y324585D01*
X-42568Y324401D01*
X-42471Y324243D01*
X-42425Y324176D01*
X-42374Y324115D01*
X-42338Y324059D01*
X-42303Y324024D01*
X-42272Y323983D01*
X-42231Y323942D01*
X-42083Y323814D01*
X-41930Y323702D01*
X-41782Y323615D01*
X-41650Y323544D01*
X-41589Y323524D01*
X-41532Y323498D01*
X-41481Y323478D01*
X-41441Y323467D01*
X-41400Y323457D01*
X-41379Y323447D01*
X-41359D01*
X-41354Y323442D01*
X-41262Y323422D01*
X-41165Y323406D01*
X-40971Y323396D01*
X-40788Y323406D01*
X-40614Y323427D01*
X-40461Y323457D01*
X-40400Y323467D01*
X-40344Y323483D01*
X-40303Y323493D01*
X-40272Y323503D01*
X-40247Y323508D01*
X-40242Y323513D01*
X-40120Y323554D01*
X-39992Y323610D01*
X-39849Y323671D01*
X-39706Y323743D01*
X-39411Y323896D01*
X-39130Y324054D01*
X-38997Y324136D01*
X-38875Y324207D01*
X-38758Y324273D01*
X-38666Y324335D01*
X-38589Y324381D01*
X-38528Y324421D01*
X-38487Y324442D01*
X-38477Y324452D01*
X-38395Y324503D01*
X-38319Y324549D01*
X-38247Y324590D01*
X-38181Y324625D01*
X-38125Y324661D01*
X-38074Y324682D01*
X-37982Y324722D01*
X-37911Y324743D01*
X-37865Y324758D01*
X-37839Y324763D01*
X-37829D01*
X-37758D01*
X-37697Y324753D01*
X-37646Y324733D01*
X-37605Y324712D01*
X-37569Y324697D01*
X-37544Y324682D01*
X-37528Y324666D01*
X-37523Y324661D01*
X-37472Y324600D01*
X-37436Y324534D01*
X-37416Y324472D01*
X-37396Y324411D01*
X-37385Y324360D01*
Y324319D01*
Y324289D01*
Y324278D01*
X-37401Y324192D01*
X-37436Y324105D01*
X-37477Y324024D01*
X-37528Y323952D01*
X-37574Y323886D01*
X-37615Y323835D01*
X-37656Y323794D01*
X-37768Y323692D01*
X-37875Y323615D01*
X-37982Y323559D01*
X-38079Y323513D01*
X-38161Y323493D01*
X-38222Y323473D01*
X-38263D01*
X-38278Y323467D01*
X-38400D01*
X-38518Y323493D01*
X-38630Y323524D01*
X-38737Y323569D01*
X-38829Y323610D01*
X-38900Y323651D01*
X-38926Y323666D01*
X-38941Y323682D01*
X-38956Y323687D01*
X-38962Y323692D01*
X-40242Y322259D01*
X-40089Y322146D01*
X-39936Y322055D01*
X-39788Y321978D01*
X-39645Y321917D01*
X-39507Y321861D01*
X-39370Y321825D01*
X-39247Y321795D01*
X-39125Y321774D01*
X-39018Y321759D01*
X-38921Y321754D01*
X-38834Y321749D01*
X-38763D01*
X-38707Y321754D01*
X-38661Y321759D01*
X-38635Y321764D01*
X-38625D01*
X-38472Y321795D01*
X-38319Y321846D01*
X-38171Y321902D01*
X-38023Y321978D01*
X-37875Y322055D01*
X-37737Y322141D01*
X-37605Y322233D01*
X-37477Y322320D01*
X-37360Y322407D01*
X-37253Y322493D01*
X-37161Y322575D01*
X-37085Y322641D01*
X-37018Y322697D01*
X-36799Y322917D01*
X-36687Y323049D01*
X-36574Y323172D01*
X-36477Y323299D01*
X-36386Y323411D01*
X-36309Y323518D01*
X-36243Y323626D01*
X-36182Y323717D01*
X-36126Y323804D01*
X-36085Y323886D01*
X-36049Y323952D01*
X-36018Y324003D01*
X-36003Y324049D01*
X-35983Y324080D01*
X-35978Y324105D01*
X-35972Y324110D01*
X-35901Y324335D01*
X-35855Y324544D01*
X-35830Y324733D01*
X-35825Y324901D01*
Y325044D01*
X-35840Y325151D01*
Y325192D01*
X-35845Y325217D01*
X-35850Y325232D01*
Y325243D01*
X-35906Y325431D01*
X-35972Y325600D01*
X-36054Y325753D01*
X-36131Y325880D01*
X-36202Y325982D01*
X-36238Y326028D01*
X-36268Y326059D01*
X-36289Y326089D01*
X-36309Y326110D01*
X-36319Y326120D01*
X-36325Y326125D01*
X-36432Y326222D01*
X-36534Y326304D01*
X-36646Y326375D01*
X-36758Y326436D01*
X-36865Y326482D01*
X-36977Y326523D01*
X-37079Y326553D01*
X-37187Y326579D01*
X-37278Y326599D01*
X-37360Y326610D01*
X-37436Y326615D01*
X-37503Y326620D01*
X-37559Y326625D01*
X-37600D01*
X-37620D01*
X-37630D01*
X-37778Y326610D01*
X-37931Y326579D01*
X-38089Y326533D01*
X-38247Y326477D01*
X-38564Y326355D01*
X-38870Y326212D01*
X-39007Y326145D01*
X-39135Y326079D01*
X-39252Y326013D01*
X-39349Y325957D01*
X-39431Y325916D01*
X-39492Y325875D01*
X-39528Y325850D01*
X-39538D01*
X-39543Y325844D01*
X-39671Y325768D01*
X-39788Y325691D01*
X-39900Y325630D01*
X-40002Y325579D01*
X-40089Y325533D01*
X-40176Y325498D01*
X-40247Y325467D01*
X-40313Y325442D01*
X-40369Y325416D01*
X-40420Y325406D01*
X-40461Y325396D01*
X-40492Y325385D01*
X-40517Y325380D01*
X-40538D01*
X-40553Y325375D01*
X-40660Y325380D01*
X-40757Y325396D01*
X-40834Y325421D01*
X-40905Y325452D01*
X-40956Y325482D01*
X-41002Y325508D01*
X-41022Y325528D01*
X-41033Y325538D01*
X-41099Y325615D01*
X-41140Y325697D01*
X-41175Y325783D01*
X-41191Y325860D01*
X-41196Y325936D01*
X-41201Y325992D01*
Y326033D01*
Y326043D01*
X-41180Y326156D01*
X-41140Y326268D01*
X-41089Y326370D01*
X-41027Y326462D01*
X-40971Y326538D01*
X-40925Y326604D01*
X-40874Y326656D01*
X-40793Y326727D01*
X-40716Y326793D01*
X-40553Y326885D01*
X-40405Y326951D01*
X-40262Y326982D01*
X-40140Y327002D01*
X-40048Y327013D01*
X-39982Y327007D01*
X-39971D01*
X-39961D01*
X-39844Y326982D01*
X-39716Y326936D01*
X-39604Y326885D01*
X-39492Y326824D01*
X-39405Y326768D01*
X-39334Y326717D01*
X-39303Y326696D01*
X-39283Y326686D01*
X-39273Y326676D01*
X-39268Y326671D01*
X-37982Y328130D01*
X-38125Y328242D01*
X-38273Y328349D01*
X-38421Y328436D01*
X-38564Y328507D01*
X-38712Y328573D01*
X-38854Y328624D01*
X-38982Y328670D01*
X-39109Y328706D01*
X-39227Y328731D01*
X-39329Y328752D01*
X-39426Y328767D01*
X-39507Y328777D01*
X-39574Y328783D01*
X-39620Y328788D01*
X-39650D01*
X-39660D01*
D02*
G37*
G36*
X-46898Y321550D02*
X-47072Y321539D01*
X-47250Y321493D01*
X-47429Y321437D01*
X-47607Y321361D01*
X-47791Y321269D01*
X-47965Y321167D01*
X-48133Y321060D01*
X-48291Y320953D01*
X-48444Y320841D01*
X-48577Y320728D01*
X-48694Y320631D01*
X-48801Y320545D01*
X-48883Y320463D01*
X-48918Y320438D01*
X-49122Y320234D01*
X-49229Y320106D01*
X-49331Y319984D01*
X-49428Y319866D01*
X-49510Y319754D01*
X-49587Y319647D01*
X-49658Y319545D01*
X-49714Y319448D01*
X-49765Y319356D01*
X-49811Y319280D01*
X-49847Y319214D01*
X-49872Y319157D01*
X-49893Y319106D01*
X-49913Y319076D01*
X-49918Y319050D01*
X-49923Y319045D01*
X-50000Y318805D01*
X-50046Y318576D01*
X-50066Y318464D01*
X-50076Y318362D01*
X-50081Y318265D01*
Y318173D01*
X-50076Y318086D01*
X-50071Y318010D01*
X-50066Y317943D01*
X-50061Y317887D01*
X-50056Y317841D01*
X-50051Y317806D01*
X-50046Y317790D01*
Y317780D01*
X-50020Y317663D01*
X-49979Y317551D01*
X-49944Y317444D01*
X-49898Y317347D01*
X-49806Y317163D01*
X-49709Y317005D01*
X-49663Y316938D01*
X-49612Y316877D01*
X-49576Y316821D01*
X-49541Y316786D01*
X-49510Y316745D01*
X-49469Y316704D01*
X-49321Y316576D01*
X-49168Y316464D01*
X-49020Y316377D01*
X-48888Y316306D01*
X-48826Y316286D01*
X-48770Y316260D01*
X-48719Y316240D01*
X-48679Y316229D01*
X-48638Y316219D01*
X-48617Y316209D01*
X-48597D01*
X-48592Y316204D01*
X-48500Y316184D01*
X-48403Y316168D01*
X-48209Y316158D01*
X-48026Y316168D01*
X-47852Y316189D01*
X-47699Y316219D01*
X-47638Y316229D01*
X-47582Y316245D01*
X-47541Y316255D01*
X-47510Y316265D01*
X-47485Y316270D01*
X-47480Y316275D01*
X-47358Y316316D01*
X-47230Y316372D01*
X-47087Y316434D01*
X-46944Y316505D01*
X-46649Y316658D01*
X-46368Y316816D01*
X-46235Y316898D01*
X-46113Y316969D01*
X-45996Y317035D01*
X-45904Y317097D01*
X-45827Y317143D01*
X-45766Y317183D01*
X-45725Y317204D01*
X-45715Y317214D01*
X-45633Y317265D01*
X-45557Y317311D01*
X-45486Y317352D01*
X-45419Y317387D01*
X-45363Y317423D01*
X-45312Y317444D01*
X-45220Y317484D01*
X-45149Y317505D01*
X-45103Y317520D01*
X-45077Y317525D01*
X-45067D01*
X-44996D01*
X-44935Y317515D01*
X-44884Y317495D01*
X-44843Y317474D01*
X-44807Y317459D01*
X-44782Y317444D01*
X-44766Y317428D01*
X-44761Y317423D01*
X-44710Y317362D01*
X-44675Y317296D01*
X-44654Y317234D01*
X-44634Y317173D01*
X-44623Y317122D01*
Y317081D01*
Y317051D01*
Y317041D01*
X-44639Y316954D01*
X-44675Y316867D01*
X-44715Y316786D01*
X-44766Y316714D01*
X-44812Y316648D01*
X-44853Y316597D01*
X-44894Y316556D01*
X-45006Y316454D01*
X-45113Y316377D01*
X-45220Y316321D01*
X-45317Y316275D01*
X-45399Y316255D01*
X-45460Y316235D01*
X-45501D01*
X-45516Y316229D01*
X-45638D01*
X-45756Y316255D01*
X-45868Y316286D01*
X-45975Y316332D01*
X-46067Y316372D01*
X-46138Y316413D01*
X-46164Y316428D01*
X-46179Y316444D01*
X-46195Y316449D01*
X-46200Y316454D01*
X-47480Y315021D01*
X-47327Y314908D01*
X-47174Y314817D01*
X-47026Y314740D01*
X-46883Y314679D01*
X-46745Y314623D01*
X-46608Y314587D01*
X-46485Y314556D01*
X-46363Y314536D01*
X-46256Y314521D01*
X-46159Y314516D01*
X-46072Y314510D01*
X-46001D01*
X-45945Y314516D01*
X-45899Y314521D01*
X-45873Y314526D01*
X-45863D01*
X-45710Y314556D01*
X-45557Y314607D01*
X-45409Y314664D01*
X-45261Y314740D01*
X-45113Y314817D01*
X-44975Y314903D01*
X-44843Y314995D01*
X-44715Y315082D01*
X-44598Y315168D01*
X-44491Y315255D01*
X-44399Y315337D01*
X-44323Y315403D01*
X-44256Y315459D01*
X-44037Y315679D01*
X-43925Y315811D01*
X-43812Y315934D01*
X-43716Y316061D01*
X-43624Y316173D01*
X-43547Y316280D01*
X-43481Y316388D01*
X-43420Y316479D01*
X-43364Y316566D01*
X-43323Y316648D01*
X-43287Y316714D01*
X-43257Y316765D01*
X-43241Y316811D01*
X-43221Y316842D01*
X-43216Y316867D01*
X-43211Y316872D01*
X-43139Y317097D01*
X-43093Y317306D01*
X-43068Y317495D01*
X-43063Y317663D01*
Y317806D01*
X-43078Y317913D01*
Y317954D01*
X-43083Y317979D01*
X-43088Y317994D01*
Y318005D01*
X-43144Y318193D01*
X-43211Y318362D01*
X-43292Y318515D01*
X-43369Y318642D01*
X-43440Y318744D01*
X-43476Y318790D01*
X-43506Y318821D01*
X-43527Y318851D01*
X-43547Y318872D01*
X-43557Y318882D01*
X-43562Y318887D01*
X-43670Y318984D01*
X-43772Y319065D01*
X-43884Y319137D01*
X-43996Y319198D01*
X-44103Y319244D01*
X-44215Y319285D01*
X-44317Y319315D01*
X-44425Y319341D01*
X-44516Y319361D01*
X-44598Y319372D01*
X-44675Y319377D01*
X-44741Y319382D01*
X-44797Y319387D01*
X-44838D01*
X-44858D01*
X-44868D01*
X-45016Y319372D01*
X-45169Y319341D01*
X-45327Y319295D01*
X-45486Y319239D01*
X-45802Y319117D01*
X-46108Y318974D01*
X-46245Y318907D01*
X-46373Y318841D01*
X-46490Y318775D01*
X-46587Y318719D01*
X-46669Y318678D01*
X-46730Y318637D01*
X-46766Y318612D01*
X-46776D01*
X-46781Y318606D01*
X-46909Y318530D01*
X-47026Y318453D01*
X-47138Y318392D01*
X-47240Y318341D01*
X-47327Y318295D01*
X-47414Y318260D01*
X-47485Y318229D01*
X-47551Y318204D01*
X-47607Y318178D01*
X-47658Y318168D01*
X-47699Y318158D01*
X-47730Y318147D01*
X-47755Y318142D01*
X-47776D01*
X-47791Y318137D01*
X-47898Y318142D01*
X-47995Y318158D01*
X-48072Y318183D01*
X-48143Y318214D01*
X-48194Y318244D01*
X-48240Y318270D01*
X-48260Y318290D01*
X-48271Y318300D01*
X-48337Y318377D01*
X-48378Y318458D01*
X-48413Y318545D01*
X-48429Y318622D01*
X-48434Y318698D01*
X-48439Y318754D01*
Y318795D01*
Y318805D01*
X-48418Y318918D01*
X-48378Y319030D01*
X-48327Y319132D01*
X-48265Y319224D01*
X-48209Y319300D01*
X-48163Y319366D01*
X-48112Y319417D01*
X-48031Y319489D01*
X-47954Y319555D01*
X-47791Y319647D01*
X-47643Y319713D01*
X-47500Y319744D01*
X-47378Y319764D01*
X-47286Y319774D01*
X-47220Y319769D01*
X-47210D01*
X-47199D01*
X-47082Y319744D01*
X-46954Y319698D01*
X-46842Y319647D01*
X-46730Y319586D01*
X-46643Y319530D01*
X-46572Y319479D01*
X-46541Y319458D01*
X-46521Y319448D01*
X-46511Y319438D01*
X-46506Y319433D01*
X-45220Y320892D01*
X-45363Y321004D01*
X-45511Y321111D01*
X-45659Y321198D01*
X-45802Y321269D01*
X-45950Y321335D01*
X-46093Y321386D01*
X-46220Y321432D01*
X-46347Y321468D01*
X-46465Y321493D01*
X-46567Y321514D01*
X-46664Y321529D01*
X-46745Y321539D01*
X-46812Y321544D01*
X-46858Y321550D01*
X-46888D01*
X-46898D01*
D02*
G37*
G36*
X-44532Y324661D02*
X-45975Y323218D01*
X-41318Y318561D01*
X-39875Y320004D01*
X-44532Y324661D01*
D02*
G37*
G36*
X-50178Y316617D02*
X-52060Y314735D01*
X-51061Y313735D01*
X-49179Y315617D01*
X-50178Y316617D01*
D02*
G37*
G36*
X-53897Y315296D02*
X-56034Y313159D01*
X-56177Y313006D01*
X-56309Y312843D01*
X-56437Y312674D01*
X-56549Y312521D01*
X-56595Y312455D01*
X-56641Y312389D01*
X-56677Y312332D01*
X-56707Y312281D01*
X-56733Y312236D01*
X-56753Y312205D01*
X-56763Y312185D01*
X-56768Y312180D01*
X-56855Y312011D01*
X-56922Y311833D01*
X-56967Y311664D01*
X-57003Y311506D01*
X-57029Y311369D01*
X-57034Y311312D01*
X-57044Y311261D01*
Y311220D01*
Y311190D01*
X-57049Y311175D01*
Y311164D01*
X-57044Y310945D01*
X-57029Y310736D01*
X-56993Y310537D01*
X-56947Y310359D01*
X-56901Y310211D01*
X-56886Y310144D01*
X-56865Y310093D01*
X-56855Y310052D01*
X-56840Y310027D01*
X-56835Y310001D01*
X-56830Y309996D01*
X-56779Y309884D01*
X-56717Y309772D01*
X-56575Y309537D01*
X-56417Y309318D01*
X-56248Y309109D01*
X-56167Y309017D01*
X-56090Y308930D01*
X-56024Y308854D01*
X-55968Y308787D01*
X-55845Y308665D01*
X-55662Y308492D01*
X-55483Y308344D01*
X-55315Y308206D01*
X-55233Y308145D01*
X-55157Y308089D01*
X-55085Y308048D01*
X-55019Y308002D01*
X-54963Y307966D01*
X-54917Y307931D01*
X-54876Y307910D01*
X-54851Y307895D01*
X-54830Y307885D01*
X-54825Y307880D01*
X-54626Y307772D01*
X-54427Y307686D01*
X-54238Y307619D01*
X-54070Y307574D01*
X-53994Y307558D01*
X-53922Y307538D01*
X-53861Y307528D01*
X-53810Y307517D01*
X-53769Y307507D01*
X-53739D01*
X-53723Y307502D01*
X-53713D01*
X-53499Y307492D01*
X-53290Y307497D01*
X-53101Y307523D01*
X-52928Y307553D01*
X-52780Y307589D01*
X-52718Y307609D01*
X-52667Y307619D01*
X-52627Y307640D01*
X-52596Y307650D01*
X-52576D01*
X-52571Y307655D01*
X-52463Y307701D01*
X-52361Y307752D01*
X-52147Y307874D01*
X-51943Y308017D01*
X-51765Y308155D01*
X-51683Y308226D01*
X-51606Y308293D01*
X-51540Y308349D01*
X-51484Y308395D01*
X-49240Y310639D01*
X-53897Y315296D01*
D02*
G37*
G36*
X-58472Y310721D02*
X-59941Y309252D01*
X-59400Y308252D01*
X-61033Y306620D01*
X-62038Y307155D01*
X-63547Y305645D01*
X-57141Y302738D01*
X-55565Y304314D01*
X-58472Y310721D01*
D02*
G37*
G36*
X-64001Y305191D02*
X-65445Y303748D01*
X-63721Y302024D01*
X-64506Y301238D01*
X-64659Y301075D01*
X-64797Y300917D01*
X-64914Y300759D01*
X-65016Y300606D01*
X-65103Y300458D01*
X-65180Y300320D01*
X-65236Y300193D01*
X-65282Y300065D01*
X-65322Y299953D01*
X-65353Y299851D01*
X-65379Y299764D01*
X-65389Y299693D01*
X-65399Y299632D01*
X-65404Y299586D01*
X-65409Y299560D01*
Y299550D01*
Y299397D01*
X-65389Y299244D01*
X-65358Y299101D01*
X-65317Y298958D01*
X-65266Y298826D01*
X-65210Y298698D01*
X-65144Y298581D01*
X-65083Y298469D01*
X-65016Y298372D01*
X-64955Y298280D01*
X-64894Y298208D01*
X-64843Y298137D01*
X-64792Y298086D01*
X-64761Y298045D01*
X-64731Y298015D01*
X-64598Y297892D01*
X-64471Y297785D01*
X-64343Y297698D01*
X-64216Y297622D01*
X-64088Y297556D01*
X-63971Y297499D01*
X-63853Y297453D01*
X-63746Y297418D01*
X-63644Y297397D01*
X-63552Y297377D01*
X-63476Y297362D01*
X-63405Y297351D01*
X-63354D01*
X-63308Y297346D01*
X-63287D01*
X-63277D01*
X-63134Y297357D01*
X-62991Y297387D01*
X-62854Y297423D01*
X-62716Y297479D01*
X-62583Y297540D01*
X-62456Y297607D01*
X-62333Y297678D01*
X-62221Y297749D01*
X-62119Y297821D01*
X-62022Y297897D01*
X-61941Y297959D01*
X-61869Y298020D01*
X-61813Y298066D01*
X-59344Y300534D01*
X-64001Y305191D01*
D02*
G37*
%LPD*%
G36*
X-51734Y310257D02*
X-52091Y309899D01*
X-52198Y309802D01*
X-52295Y309716D01*
X-52397Y309644D01*
X-52494Y309578D01*
X-52586Y309527D01*
X-52678Y309486D01*
X-52764Y309451D01*
X-52841Y309425D01*
X-52912Y309405D01*
X-52979Y309389D01*
X-53035Y309374D01*
X-53086D01*
X-53121Y309369D01*
X-53152D01*
X-53162D01*
X-53172D01*
X-53269Y309384D01*
X-53376Y309410D01*
X-53478Y309451D01*
X-53591Y309502D01*
X-53800Y309629D01*
X-53999Y309767D01*
X-54085Y309833D01*
X-54172Y309899D01*
X-54249Y309966D01*
X-54305Y310022D01*
X-54361Y310068D01*
X-54402Y310109D01*
X-54422Y310129D01*
X-54432Y310139D01*
X-54534Y310241D01*
X-54621Y310338D01*
X-54703Y310430D01*
X-54779Y310517D01*
X-54840Y310598D01*
X-54896Y310675D01*
X-54942Y310741D01*
X-54988Y310807D01*
X-55024Y310863D01*
X-55055Y310914D01*
X-55075Y310955D01*
X-55095Y310996D01*
X-55111Y311022D01*
X-55121Y311042D01*
Y311052D01*
X-55126Y311057D01*
X-55167Y311190D01*
X-55192Y311307D01*
X-55202Y311420D01*
X-55208Y311516D01*
X-55197Y311598D01*
X-55187Y311659D01*
X-55182Y311695D01*
X-55177Y311710D01*
X-55157Y311761D01*
X-55126Y311822D01*
X-55055Y311945D01*
X-54963Y312067D01*
X-54871Y312190D01*
X-54779Y312292D01*
X-54738Y312332D01*
X-54708Y312373D01*
X-54279Y312802D01*
X-51734Y310257D01*
D02*
G37*
G36*
X-57544Y304753D02*
X-59727Y305905D01*
X-58702Y306931D01*
X-57544Y304753D01*
D02*
G37*
G36*
X-61737Y300040D02*
X-62216Y299560D01*
X-62288Y299499D01*
X-62359Y299448D01*
X-62425Y299402D01*
X-62486Y299361D01*
X-62543Y299326D01*
X-62650Y299280D01*
X-62731Y299249D01*
X-62793Y299239D01*
X-62838Y299234D01*
X-62849D01*
X-62961Y299244D01*
X-63058Y299269D01*
X-63144Y299305D01*
X-63221Y299351D01*
X-63287Y299387D01*
X-63333Y299422D01*
X-63359Y299448D01*
X-63364Y299453D01*
X-63369Y299458D01*
X-63445Y299545D01*
X-63496Y299637D01*
X-63532Y299734D01*
X-63552Y299815D01*
X-63568Y299892D01*
Y299953D01*
Y299994D01*
Y300004D01*
X-63558Y300065D01*
X-63542Y300121D01*
X-63486Y300249D01*
X-63415Y300371D01*
X-63338Y300478D01*
X-63257Y300580D01*
X-63226Y300621D01*
X-63195Y300662D01*
X-62777Y301080D01*
X-61737Y300040D01*
D02*
G37*
%LPC*%
G36*
X83174Y247568D02*
X82021Y246415D01*
X83490Y244946D01*
X79986Y241442D01*
X81425Y240003D01*
X84929Y243507D01*
X86398Y242038D01*
X87551Y243191D01*
X83174Y247568D01*
D02*
G37*
G36*
X88107Y241554D02*
X87877Y241539D01*
X87647Y241503D01*
X87428Y241447D01*
X87214Y241365D01*
X87005Y241278D01*
X86806Y241182D01*
X86617Y241074D01*
X86449Y240967D01*
X86291Y240860D01*
X86143Y240753D01*
X86020Y240651D01*
X85913Y240564D01*
X85832Y240493D01*
X85791Y240462D01*
X85714Y240386D01*
X85561Y240222D01*
X85419Y240059D01*
X85291Y239901D01*
X85184Y239743D01*
X85082Y239590D01*
X84995Y239442D01*
X84919Y239304D01*
X84852Y239177D01*
X84796Y239060D01*
X84750Y238942D01*
X84715Y238855D01*
X84684Y238774D01*
X84664Y238703D01*
X84648Y238657D01*
X84638Y238626D01*
Y238616D01*
X84602Y238447D01*
X84582Y238284D01*
X84572Y238131D01*
X84562Y237978D01*
X84556Y237840D01*
X84567Y237708D01*
X84577Y237585D01*
X84587Y237473D01*
X84607Y237371D01*
X84623Y237274D01*
X84638Y237198D01*
X84653Y237131D01*
X84674Y237080D01*
X84684Y237040D01*
X84694Y237019D01*
Y237009D01*
X84745Y236876D01*
X84817Y236744D01*
X84965Y236484D01*
X85138Y236239D01*
X85225Y236122D01*
X85306Y236009D01*
X85388Y235917D01*
X85464Y235821D01*
X85536Y235739D01*
X85597Y235678D01*
X85648Y235616D01*
X85832Y235433D01*
X85954Y235331D01*
X86061Y235234D01*
X86173Y235152D01*
X86275Y235071D01*
X86372Y235004D01*
X86464Y234943D01*
X86556Y234892D01*
X86638Y234841D01*
X86709Y234800D01*
X86770Y234770D01*
X86826Y234744D01*
X86867Y234724D01*
X86898Y234714D01*
X86918Y234703D01*
X86923Y234698D01*
X87148Y234627D01*
X87362Y234576D01*
X87571Y234550D01*
X87755Y234540D01*
X87836D01*
X87913Y234535D01*
X87979Y234540D01*
X88035Y234545D01*
X88081Y234540D01*
X88117Y234545D01*
X88132Y234550D01*
X88142D01*
X88382Y234596D01*
X88612Y234663D01*
X88831Y234739D01*
X89025Y234821D01*
X89111Y234867D01*
X89188Y234902D01*
X89264Y234938D01*
X89321Y234974D01*
X89367Y234999D01*
X89402Y235015D01*
X89428Y235030D01*
X89433Y235035D01*
X88555Y236677D01*
X88357Y236560D01*
X88265Y236519D01*
X88173Y236479D01*
X88086Y236443D01*
X88005Y236412D01*
X87928Y236387D01*
X87857Y236366D01*
X87801Y236351D01*
X87739Y236341D01*
X87688Y236331D01*
X87647Y236320D01*
X87617D01*
X87591Y236315D01*
X87581D01*
X87571D01*
X87489D01*
X87408Y236325D01*
X87255Y236366D01*
X87107Y236433D01*
X86984Y236504D01*
X86872Y236575D01*
X86826Y236611D01*
X86791Y236647D01*
X86760Y236667D01*
X86719Y236708D01*
X86648Y236790D01*
X86576Y236871D01*
X86480Y237040D01*
X86413Y237198D01*
X86372Y237341D01*
X86357Y237407D01*
X86347Y237468D01*
X86342Y237524D01*
Y237565D01*
Y237606D01*
Y237636D01*
Y237647D01*
Y237657D01*
X86362Y237759D01*
X86393Y237861D01*
X86439Y237968D01*
X86490Y238080D01*
X86622Y238294D01*
X86775Y238498D01*
X86852Y238595D01*
X86918Y238682D01*
X86984Y238759D01*
X87046Y238820D01*
X87097Y238881D01*
X87132Y238917D01*
X87158Y238942D01*
X87168Y238952D01*
X87280Y239065D01*
X87398Y239161D01*
X87505Y239248D01*
X87607Y239330D01*
X87704Y239396D01*
X87795Y239457D01*
X87877Y239508D01*
X87959Y239549D01*
X88035Y239585D01*
X88096Y239615D01*
X88147Y239636D01*
X88193Y239651D01*
X88234Y239661D01*
X88254Y239672D01*
X88275D01*
X88280Y239677D01*
X88402Y239697D01*
X88520Y239702D01*
X88632Y239692D01*
X88739Y239677D01*
X88841Y239656D01*
X88933Y239626D01*
X89020Y239590D01*
X89101Y239549D01*
X89173Y239508D01*
X89239Y239473D01*
X89295Y239437D01*
X89341Y239401D01*
X89382Y239371D01*
X89428Y239325D01*
X89504Y239238D01*
X89565Y239156D01*
X89616Y239075D01*
X89662Y238998D01*
X89693Y238937D01*
X89713Y238886D01*
X89724Y238855D01*
X89729Y238840D01*
X89754Y238743D01*
X89769Y238646D01*
X89775Y238549D01*
X89780Y238463D01*
Y238391D01*
X89775Y238335D01*
X89769Y238300D01*
Y238289D01*
X89754Y238223D01*
X89729Y238146D01*
X89672Y237999D01*
X89647Y237932D01*
X89627Y237881D01*
X89606Y237851D01*
X89601Y237835D01*
X91152Y236846D01*
X91233Y237029D01*
X91310Y237208D01*
X91371Y237381D01*
X91417Y237550D01*
X91453Y237708D01*
X91478Y237866D01*
X91499Y238009D01*
X91514Y238136D01*
Y238259D01*
X91519Y238366D01*
X91514Y238463D01*
Y238544D01*
X91509Y238611D01*
X91504Y238657D01*
X91499Y238682D01*
Y238692D01*
X91463Y238850D01*
X91412Y239014D01*
X91346Y239172D01*
X91279Y239330D01*
X91193Y239478D01*
X91106Y239626D01*
X91019Y239763D01*
X90927Y239886D01*
X90841Y240003D01*
X90754Y240110D01*
X90677Y240207D01*
X90611Y240284D01*
X90555Y240350D01*
X90468Y240437D01*
X90259Y240636D01*
X90045Y240809D01*
X89836Y240957D01*
X89627Y241084D01*
X89423Y241197D01*
X89224Y241283D01*
X89040Y241355D01*
X88867Y241416D01*
X88708Y241462D01*
X88561Y241498D01*
X88428Y241518D01*
X88316Y241539D01*
X88229Y241544D01*
X88163Y241549D01*
X88117Y241554D01*
X88107D01*
D02*
G37*
G36*
X93279Y237463D02*
X88622Y232806D01*
X90060Y231367D01*
X91187Y232495D01*
X92713Y232530D01*
X91784Y229643D01*
X93559Y227868D01*
X94682Y232541D01*
X98140Y232602D01*
X96222Y234520D01*
X92952Y234260D01*
X94717Y236024D01*
X93279Y237463D01*
D02*
G37*
G36*
X98085Y-14845D02*
X93596Y-18079D01*
X95048Y-20018D01*
X95228Y-20010D01*
X95385D01*
X95527Y-20026D01*
X95636Y-20041D01*
X95731Y-20057D01*
X95801Y-20080D01*
X95841Y-20088D01*
X95856D01*
X96005Y-20143D01*
X96139Y-20198D01*
X96257Y-20269D01*
X96366Y-20332D01*
X96453Y-20402D01*
X96516Y-20449D01*
X96563Y-20496D01*
X96712Y-20677D01*
X96822Y-20850D01*
X96900Y-21022D01*
X96947Y-21179D01*
X96979Y-21321D01*
X96994Y-21430D01*
Y-21493D01*
Y-21525D01*
X96979Y-21635D01*
X96963Y-21744D01*
X96876Y-21956D01*
X96767Y-22160D01*
X96657Y-22349D01*
X96531Y-22506D01*
X96476Y-22576D01*
X96421Y-22631D01*
X96390Y-22678D01*
X96358Y-22710D01*
X96335Y-22733D01*
X96327Y-22741D01*
X96100Y-22953D01*
X95880Y-23110D01*
X95676Y-23220D01*
X95495Y-23306D01*
X95338Y-23354D01*
X95228Y-23385D01*
X95150Y-23401D01*
X95118D01*
X94907Y-23393D01*
X94718Y-23361D01*
X94545Y-23298D01*
X94396Y-23228D01*
X94279Y-23157D01*
X94200Y-23094D01*
X94161Y-23071D01*
X94122Y-23032D01*
X93996Y-22890D01*
X93902Y-22733D01*
X93831Y-22584D01*
X93784Y-22443D01*
X93753Y-22317D01*
X93737Y-22223D01*
Y-22160D01*
X93729Y-22137D01*
X93737Y-21941D01*
X93784Y-21752D01*
X93847Y-21564D01*
X93925Y-21407D01*
X94004Y-21266D01*
X94067Y-21156D01*
X94090Y-21117D01*
X94106Y-21085D01*
X94122Y-21070D01*
X94129Y-21062D01*
X91885Y-19272D01*
X91759Y-19508D01*
X91657Y-19735D01*
X91571Y-19931D01*
X91516Y-20112D01*
X91461Y-20261D01*
X91430Y-20371D01*
X91414Y-20449D01*
Y-20465D01*
X91406Y-20473D01*
X91367Y-20685D01*
X91351Y-20889D01*
X91343Y-21085D01*
Y-21274D01*
X91351Y-21423D01*
X91367Y-21548D01*
X91375Y-21619D01*
Y-21650D01*
X91422Y-21886D01*
X91492Y-22113D01*
X91563Y-22325D01*
X91641Y-22514D01*
X91712Y-22678D01*
X91751Y-22749D01*
X91775Y-22804D01*
X91806Y-22851D01*
X91822Y-22882D01*
X91830Y-22906D01*
X91838Y-22914D01*
X91987Y-23157D01*
X92159Y-23393D01*
X92340Y-23620D01*
X92521Y-23832D01*
X92599Y-23926D01*
X92748Y-24076D01*
X92803Y-24146D01*
X92921Y-24264D01*
X93109Y-24437D01*
X93290Y-24601D01*
X93462Y-24743D01*
X93643Y-24876D01*
X93808Y-24994D01*
X93965Y-25104D01*
X94122Y-25198D01*
X94263Y-25276D01*
X94396Y-25347D01*
X94514Y-25402D01*
X94608Y-25449D01*
X94695Y-25488D01*
X94773Y-25520D01*
X94820Y-25535D01*
X94859Y-25543D01*
X94867Y-25551D01*
X95236Y-25637D01*
X95589Y-25677D01*
X95911Y-25684D01*
X96217Y-25661D01*
X96468Y-25630D01*
X96570Y-25606D01*
X96665Y-25590D01*
X96727Y-25575D01*
X96782Y-25567D01*
X96822Y-25559D01*
X96829Y-25551D01*
X97010Y-25496D01*
X97191Y-25426D01*
X97504Y-25269D01*
X97795Y-25104D01*
X98046Y-24947D01*
X98140Y-24868D01*
X98242Y-24798D01*
X98321Y-24735D01*
X98384Y-24672D01*
X98438Y-24633D01*
X98509Y-24562D01*
X98682Y-24374D01*
X98831Y-24178D01*
X98964Y-23981D01*
X99082Y-23785D01*
X99168Y-23589D01*
X99255Y-23393D01*
X99310Y-23212D01*
X99365Y-23032D01*
X99404Y-22867D01*
X99427Y-22718D01*
X99451Y-22584D01*
X99459Y-22467D01*
X99474Y-22372D01*
Y-22310D01*
Y-22262D01*
Y-22247D01*
X99467Y-22004D01*
X99419Y-21768D01*
X99372Y-21532D01*
X99294Y-21313D01*
X99215Y-21109D01*
X99121Y-20905D01*
X99019Y-20724D01*
X98925Y-20552D01*
X98823Y-20402D01*
X98729Y-20261D01*
X98627Y-20143D01*
X98556Y-20041D01*
X98478Y-19963D01*
X98431Y-19900D01*
X98384Y-19853D01*
X98132Y-19633D01*
X98022Y-19539D01*
X97905Y-19453D01*
X97803Y-19382D01*
X97732Y-19327D01*
X97677Y-19303D01*
X97661Y-19288D01*
X97355Y-19123D01*
X97198Y-19045D01*
X97065Y-18990D01*
X96947Y-18935D01*
X96845Y-18895D01*
X96790Y-18872D01*
X96775D01*
X96767Y-18864D01*
X98015Y-17961D01*
X101217Y-21164D01*
X102810Y-19570D01*
X98085Y-14845D01*
D02*
G37*
G36*
X91335Y-22678D02*
X91367Y-22710D01*
D01*
X91335Y-22678D01*
D02*
G37*
G36*
X103579Y-20340D02*
X99113Y-30205D01*
X101515Y-32607D01*
X111350Y-28110D01*
X109097Y-25857D01*
X102339Y-29428D01*
X105895Y-22655D01*
X103579Y-20340D01*
D02*
G37*
G36*
X115509Y-32270D02*
X108343Y-39436D01*
X110565Y-41657D01*
X117731Y-34491D01*
X115509Y-32270D01*
D02*
G37*
G36*
X119332Y-36092D02*
X112166Y-43258D01*
X114246Y-45338D01*
X118194Y-41390D01*
X116938Y-48030D01*
X119026Y-50118D01*
X126192Y-42952D01*
X124104Y-40864D01*
X120132Y-44836D01*
X121396Y-38156D01*
X119332Y-36092D01*
D02*
G37*
G36*
X127651Y-44412D02*
X120485Y-51578D01*
X122707Y-53799D01*
X125360Y-51146D01*
X126568Y-52355D01*
X126819Y-52590D01*
X127063Y-52802D01*
X127306Y-52983D01*
X127542Y-53139D01*
X127769Y-53273D01*
X127981Y-53391D01*
X128177Y-53477D01*
X128373Y-53548D01*
X128546Y-53610D01*
X128703Y-53657D01*
X128837Y-53697D01*
X128947Y-53712D01*
X129041Y-53728D01*
X129111Y-53736D01*
X129150Y-53744D01*
X129166D01*
X129402D01*
X129637Y-53712D01*
X129857Y-53665D01*
X130077Y-53602D01*
X130281Y-53524D01*
X130477Y-53438D01*
X130658Y-53336D01*
X130830Y-53242D01*
X130979Y-53139D01*
X131121Y-53045D01*
X131230Y-52951D01*
X131340Y-52873D01*
X131419Y-52794D01*
X131482Y-52747D01*
X131529Y-52700D01*
X131717Y-52496D01*
X131882Y-52300D01*
X132015Y-52103D01*
X132133Y-51907D01*
X132235Y-51711D01*
X132322Y-51530D01*
X132392Y-51350D01*
X132447Y-51185D01*
X132478Y-51028D01*
X132510Y-50887D01*
X132533Y-50769D01*
X132549Y-50659D01*
Y-50581D01*
X132557Y-50510D01*
Y-50479D01*
Y-50463D01*
X132541Y-50243D01*
X132494Y-50023D01*
X132439Y-49812D01*
X132353Y-49600D01*
X132259Y-49396D01*
X132157Y-49199D01*
X132047Y-49011D01*
X131937Y-48838D01*
X131827Y-48681D01*
X131709Y-48532D01*
X131615Y-48407D01*
X131521Y-48297D01*
X131450Y-48210D01*
X127651Y-44412D01*
D02*
G37*
G36*
X134904Y-51664D02*
X130626Y-55941D01*
X130430Y-56153D01*
X130249Y-56381D01*
X130077Y-56616D01*
X129928Y-56844D01*
X129857Y-56946D01*
X129802Y-57048D01*
X129747Y-57134D01*
X129708Y-57205D01*
X129676Y-57268D01*
X129645Y-57315D01*
X129629Y-57346D01*
X129621Y-57354D01*
X129520Y-57566D01*
X129441Y-57786D01*
X129378Y-58006D01*
X129331Y-58210D01*
X129300Y-58382D01*
X129284Y-58524D01*
X129276Y-58579D01*
X129268Y-58618D01*
X129276Y-58641D01*
X129268Y-58649D01*
X129260Y-58924D01*
X129268Y-59183D01*
X129292Y-59411D01*
X129315Y-59623D01*
X129355Y-59787D01*
X129378Y-59921D01*
X129394Y-59968D01*
X129402Y-60007D01*
Y-60023D01*
X129410Y-60031D01*
X129496Y-60274D01*
X129606Y-60509D01*
X129731Y-60729D01*
X129857Y-60933D01*
X129967Y-61106D01*
X130022Y-61177D01*
X130069Y-61239D01*
X130100Y-61286D01*
X130132Y-61333D01*
X130155Y-61357D01*
X130359Y-61608D01*
X130555Y-61836D01*
X130736Y-62048D01*
X130893Y-62220D01*
X131034Y-62362D01*
X131081Y-62425D01*
X131223Y-62566D01*
X131560Y-62888D01*
X131725Y-63021D01*
X131890Y-63155D01*
X132039Y-63272D01*
X132196Y-63382D01*
X132329Y-63484D01*
X132463Y-63570D01*
X132580Y-63641D01*
X132690Y-63704D01*
X132777Y-63759D01*
X132855Y-63806D01*
X132926Y-63845D01*
X132973Y-63861D01*
X133004Y-63877D01*
X133012Y-63884D01*
X133263Y-63979D01*
X133514Y-64057D01*
X133766Y-64104D01*
X133993Y-64143D01*
X134197Y-64159D01*
X134354Y-64175D01*
X134417D01*
X134464D01*
X134480D01*
X134495D01*
X134810Y-64159D01*
X135100Y-64120D01*
X135375Y-64065D01*
X135618Y-63994D01*
X135814Y-63924D01*
X135900Y-63900D01*
X135963Y-63869D01*
X136018Y-63845D01*
X136065Y-63829D01*
X136089Y-63822D01*
X136097Y-63814D01*
X136379Y-63672D01*
X136638Y-63508D01*
X136882Y-63343D01*
X137093Y-63178D01*
X137180Y-63107D01*
X137266Y-63037D01*
X137329Y-62974D01*
X137392Y-62927D01*
X141779Y-58539D01*
X139566Y-56326D01*
X135186Y-60706D01*
X134959Y-60902D01*
X134739Y-61043D01*
X134535Y-61153D01*
X134339Y-61224D01*
X134174Y-61263D01*
X134056Y-61286D01*
X133970Y-61294D01*
X133938D01*
X133695Y-61271D01*
X133475Y-61208D01*
X133271Y-61114D01*
X133091Y-61012D01*
X132934Y-60902D01*
X132871Y-60855D01*
X132824Y-60808D01*
X132777Y-60776D01*
X132722Y-60721D01*
X132533Y-60502D01*
X132392Y-60282D01*
X132282Y-60078D01*
X132219Y-59889D01*
X132180Y-59724D01*
X132157Y-59607D01*
X132149Y-59521D01*
Y-59489D01*
X132172Y-59246D01*
X132243Y-59018D01*
X132337Y-58814D01*
X132447Y-58626D01*
X132549Y-58477D01*
X132604Y-58406D01*
X132651Y-58359D01*
X132683Y-58312D01*
X132714Y-58280D01*
X132730Y-58265D01*
X132737Y-58257D01*
X137117Y-53877D01*
X134904Y-51664D01*
D02*
G37*
G36*
X142737Y-59497D02*
X140963Y-61271D01*
X143223Y-63531D01*
X137831Y-68923D01*
X140045Y-71137D01*
X145437Y-65745D01*
X147697Y-68005D01*
X149471Y-66231D01*
X142737Y-59497D01*
D02*
G37*
%LPD*%
G36*
X129150Y-48830D02*
X129245Y-48940D01*
X129323Y-49050D01*
X129394Y-49152D01*
X129457Y-49247D01*
X129512Y-49333D01*
X129582Y-49498D01*
X129629Y-49623D01*
X129645Y-49717D01*
X129653Y-49788D01*
Y-49804D01*
X129637Y-49976D01*
X129598Y-50125D01*
X129543Y-50259D01*
X129472Y-50377D01*
X129417Y-50479D01*
X129362Y-50549D01*
X129323Y-50589D01*
X129315Y-50596D01*
X129307Y-50604D01*
X129174Y-50722D01*
X129033Y-50800D01*
X128884Y-50855D01*
X128758Y-50887D01*
X128640Y-50910D01*
X128546D01*
X128483D01*
X128468D01*
X128373Y-50895D01*
X128287Y-50871D01*
X128091Y-50785D01*
X127903Y-50675D01*
X127738Y-50557D01*
X127581Y-50432D01*
X127518Y-50384D01*
X127455Y-50337D01*
X126812Y-49694D01*
X128413Y-48093D01*
X129150Y-48830D01*
D02*
G37*
%LPC*%
G36*
X41287Y350430D02*
X41122Y350407D01*
X41059D01*
X41020Y350399D01*
X40997Y350391D01*
X40981D01*
X40690Y350305D01*
X40431Y350203D01*
X40196Y350077D01*
X40000Y349959D01*
X39843Y349849D01*
X39772Y349795D01*
X39725Y349747D01*
X39678Y349716D01*
X39647Y349685D01*
X39631Y349669D01*
X39623Y349661D01*
X39474Y349496D01*
X39348Y349339D01*
X39239Y349167D01*
X39144Y348994D01*
X39074Y348829D01*
X39011Y348656D01*
X38964Y348499D01*
X38925Y348335D01*
X38893Y348193D01*
X38877Y348068D01*
X38870Y347950D01*
X38862Y347848D01*
X38854Y347762D01*
Y347699D01*
Y347668D01*
Y347652D01*
X38877Y347424D01*
X38925Y347189D01*
X38995Y346945D01*
X39081Y346702D01*
X39270Y346216D01*
X39490Y345745D01*
X39592Y345533D01*
X39694Y345336D01*
X39796Y345156D01*
X39882Y345007D01*
X39945Y344881D01*
X40008Y344787D01*
X40047Y344732D01*
Y344716D01*
X40055Y344709D01*
X40173Y344512D01*
X40290Y344332D01*
X40384Y344159D01*
X40463Y344002D01*
X40533Y343869D01*
X40588Y343735D01*
X40636Y343625D01*
X40675Y343523D01*
X40714Y343437D01*
X40730Y343358D01*
X40746Y343296D01*
X40761Y343249D01*
X40769Y343209D01*
Y343178D01*
X40777Y343154D01*
X40769Y342990D01*
X40746Y342840D01*
X40706Y342723D01*
X40659Y342613D01*
X40612Y342534D01*
X40573Y342464D01*
X40541Y342432D01*
X40526Y342417D01*
X40408Y342315D01*
X40282Y342252D01*
X40149Y342197D01*
X40031Y342173D01*
X39913Y342165D01*
X39827Y342158D01*
X39764D01*
X39749D01*
X39576Y342189D01*
X39403Y342252D01*
X39246Y342330D01*
X39105Y342425D01*
X38987Y342511D01*
X38885Y342581D01*
X38807Y342660D01*
X38697Y342786D01*
X38595Y342903D01*
X38454Y343154D01*
X38352Y343382D01*
X38305Y343602D01*
X38273Y343790D01*
X38257Y343932D01*
X38265Y344034D01*
Y344049D01*
Y344065D01*
X38305Y344245D01*
X38375Y344442D01*
X38454Y344614D01*
X38548Y344787D01*
X38634Y344920D01*
X38713Y345030D01*
X38744Y345077D01*
X38760Y345109D01*
X38775Y345125D01*
X38783Y345132D01*
X36539Y347110D01*
X36366Y346890D01*
X36201Y346663D01*
X36068Y346435D01*
X35958Y346216D01*
X35856Y345988D01*
X35777Y345768D01*
X35707Y345572D01*
X35652Y345376D01*
X35612Y345195D01*
X35581Y345038D01*
X35557Y344889D01*
X35542Y344763D01*
X35534Y344661D01*
X35526Y344591D01*
Y344544D01*
Y344528D01*
X35542Y344261D01*
X35612Y343986D01*
X35699Y343712D01*
X35817Y343437D01*
X35958Y343154D01*
X36115Y342888D01*
X36279Y342629D01*
X36444Y342385D01*
X36617Y342150D01*
X36790Y341946D01*
X36939Y341765D01*
X37072Y341600D01*
X37198Y341475D01*
X37237Y341420D01*
X37551Y341106D01*
X37747Y340941D01*
X37936Y340784D01*
X38116Y340635D01*
X38289Y340509D01*
X38454Y340392D01*
X38611Y340282D01*
X38760Y340196D01*
X38901Y340117D01*
X39019Y340046D01*
X39121Y339991D01*
X39207Y339952D01*
X39286Y339921D01*
X39333Y339889D01*
X39372Y339882D01*
X39380Y339874D01*
X39749Y339756D01*
X40102Y339685D01*
X40275Y339654D01*
X40431Y339638D01*
X40581Y339630D01*
X40722D01*
X40855Y339638D01*
X40973Y339646D01*
X41075Y339654D01*
X41161Y339662D01*
X41232Y339670D01*
X41287Y339678D01*
X41311Y339685D01*
X41326D01*
X41507Y339725D01*
X41680Y339787D01*
X41844Y339842D01*
X41993Y339913D01*
X42276Y340054D01*
X42519Y340203D01*
X42621Y340274D01*
X42716Y340353D01*
X42802Y340407D01*
X42857Y340462D01*
X42920Y340509D01*
X42982Y340572D01*
X43179Y340800D01*
X43351Y341035D01*
X43485Y341263D01*
X43595Y341467D01*
X43626Y341561D01*
X43665Y341647D01*
X43697Y341726D01*
X43712Y341789D01*
X43728Y341852D01*
X43744Y341883D01*
Y341914D01*
X43752Y341922D01*
X43783Y342063D01*
X43807Y342213D01*
X43822Y342511D01*
X43807Y342793D01*
X43775Y343060D01*
X43728Y343296D01*
X43712Y343390D01*
X43689Y343476D01*
X43673Y343539D01*
X43657Y343586D01*
X43650Y343625D01*
X43642Y343633D01*
X43579Y343822D01*
X43492Y344018D01*
X43398Y344238D01*
X43288Y344457D01*
X43053Y344913D01*
X42810Y345344D01*
X42684Y345548D01*
X42574Y345737D01*
X42472Y345917D01*
X42378Y346059D01*
X42307Y346176D01*
X42245Y346270D01*
X42213Y346333D01*
X42197Y346349D01*
X42119Y346474D01*
X42048Y346592D01*
X41986Y346702D01*
X41931Y346804D01*
X41876Y346890D01*
X41844Y346969D01*
X41782Y347110D01*
X41750Y347220D01*
X41727Y347291D01*
X41719Y347330D01*
Y347346D01*
Y347456D01*
X41734Y347550D01*
X41766Y347628D01*
X41797Y347691D01*
X41821Y347746D01*
X41844Y347785D01*
X41868Y347809D01*
X41876Y347817D01*
X41970Y347895D01*
X42072Y347950D01*
X42166Y347981D01*
X42260Y348013D01*
X42339Y348028D01*
X42402D01*
X42449D01*
X42464D01*
X42598Y348005D01*
X42731Y347950D01*
X42857Y347887D01*
X42967Y347809D01*
X43069Y347738D01*
X43147Y347675D01*
X43210Y347613D01*
X43367Y347440D01*
X43485Y347275D01*
X43571Y347110D01*
X43642Y346961D01*
X43673Y346836D01*
X43705Y346741D01*
Y346679D01*
X43712Y346655D01*
Y346467D01*
X43673Y346286D01*
X43626Y346114D01*
X43555Y345949D01*
X43492Y345807D01*
X43430Y345698D01*
X43406Y345658D01*
X43383Y345635D01*
X43375Y345611D01*
X43367Y345603D01*
X45573Y343633D01*
X45745Y343869D01*
X45886Y344104D01*
X46004Y344332D01*
X46098Y344552D01*
X46185Y344763D01*
X46240Y344975D01*
X46287Y345164D01*
X46318Y345352D01*
X46342Y345517D01*
X46350Y345666D01*
X46357Y345799D01*
Y345909D01*
X46350Y345996D01*
X46342Y346066D01*
X46334Y346106D01*
Y346121D01*
X46287Y346357D01*
X46208Y346592D01*
X46122Y346820D01*
X46004Y347047D01*
X45886Y347275D01*
X45753Y347487D01*
X45612Y347691D01*
X45478Y347887D01*
X45345Y348068D01*
X45211Y348233D01*
X45086Y348374D01*
X44984Y348492D01*
X44897Y348594D01*
X44560Y348931D01*
X44356Y349104D01*
X44167Y349277D01*
X43971Y349426D01*
X43799Y349567D01*
X43634Y349685D01*
X43469Y349787D01*
X43328Y349881D01*
X43194Y349967D01*
X43069Y350030D01*
X42967Y350085D01*
X42888Y350132D01*
X42818Y350155D01*
X42771Y350187D01*
X42731Y350195D01*
X42723Y350203D01*
X42378Y350312D01*
X42056Y350383D01*
X41766Y350422D01*
X41507Y350430D01*
X41287D01*
D02*
G37*
G36*
X33949Y359291D02*
X26783Y352126D01*
X29004Y349904D01*
X31916Y352816D01*
X32112Y352620D01*
X32214Y352502D01*
X32300Y352385D01*
X32363Y352259D01*
X32410Y352149D01*
X32441Y352055D01*
X32465Y351969D01*
X32481Y351922D01*
Y351906D01*
X32489Y351772D01*
X32473Y351631D01*
X32457Y351474D01*
X32426Y351317D01*
X32394Y351176D01*
X32363Y351066D01*
X32339Y350980D01*
Y350964D01*
X32332Y350956D01*
X31335Y347573D01*
X33839Y345070D01*
X34827Y348225D01*
X34851Y348327D01*
X34883Y348437D01*
X34922Y348696D01*
X34937Y348806D01*
X34953Y348900D01*
Y348963D01*
X34961Y348986D01*
X34985Y349167D01*
X34992Y349316D01*
Y349441D01*
X35000Y349543D01*
Y349622D01*
X34992Y349677D01*
X34985Y349700D01*
Y349716D01*
X34953Y349842D01*
X34922Y349983D01*
X34867Y350116D01*
X34812Y350250D01*
X34765Y350375D01*
X34718Y350470D01*
X34686Y350532D01*
Y350548D01*
X34678Y350556D01*
X34898Y350430D01*
X35102Y350320D01*
X35283Y350234D01*
X35432Y350163D01*
X35557Y350116D01*
X35652Y350085D01*
X35714Y350069D01*
X35738Y350061D01*
X36005Y350014D01*
X36256Y349983D01*
X36499Y349975D01*
X36703Y349991D01*
X36892Y350006D01*
X37025Y350030D01*
X37080Y350038D01*
X37119Y350046D01*
X37135D01*
X37143Y350053D01*
X37394Y350132D01*
X37637Y350250D01*
X37857Y350375D01*
X38045Y350501D01*
X38203Y350626D01*
X38273Y350681D01*
X38328Y350721D01*
X38375Y350768D01*
X38407Y350799D01*
X38422Y350815D01*
X38430Y350823D01*
X38556Y350948D01*
X38658Y351082D01*
X38846Y351348D01*
X38987Y351600D01*
X39050Y351710D01*
X39105Y351827D01*
X39144Y351929D01*
X39176Y352024D01*
X39199Y352110D01*
X39223Y352180D01*
X39239Y352243D01*
X39246Y352283D01*
X39254Y352306D01*
Y352322D01*
X39286Y352620D01*
Y352903D01*
X39246Y353162D01*
X39191Y353389D01*
X39137Y353585D01*
X39113Y353656D01*
X39089Y353727D01*
X39066Y353782D01*
X39042Y353821D01*
X39034Y353844D01*
X39027Y353852D01*
X38948Y353994D01*
X38870Y354135D01*
X38658Y354425D01*
X38422Y354724D01*
X38195Y354998D01*
X38085Y355124D01*
X37983Y355242D01*
X37889Y355336D01*
X37810Y355430D01*
X33949Y359291D01*
D02*
G37*
G36*
X48445Y344795D02*
X46671Y343021D01*
X48932Y340761D01*
X43540Y335368D01*
X45753Y333155D01*
X51145Y338547D01*
X53405Y336287D01*
X55179Y338061D01*
X48445Y344795D01*
D02*
G37*
%LPD*%
G36*
X35809Y354543D02*
X35903Y354433D01*
X35989Y354331D01*
X36060Y354229D01*
X36115Y354143D01*
X36170Y354056D01*
X36248Y353915D01*
X36303Y353797D01*
X36327Y353711D01*
X36342Y353648D01*
Y353633D01*
Y353476D01*
X36311Y353334D01*
X36264Y353209D01*
X36201Y353099D01*
X36146Y352997D01*
X36091Y352926D01*
X36052Y352887D01*
X36044Y352879D01*
X36036Y352871D01*
X35942Y352793D01*
X35848Y352730D01*
X35754Y352683D01*
X35667Y352644D01*
X35597Y352620D01*
X35534Y352604D01*
X35495Y352597D01*
X35479D01*
X35369D01*
X35251Y352604D01*
X35165Y352628D01*
X35071Y352659D01*
X35000Y352683D01*
X34945Y352706D01*
X34906Y352730D01*
X34898Y352738D01*
X34718Y352855D01*
X34569Y352958D01*
X34443Y353052D01*
X34357Y353122D01*
X34286Y353177D01*
X34239Y353209D01*
X33273Y354174D01*
X34725Y355626D01*
X35809Y354543D01*
D02*
G37*
%LPC*%
G36*
X-41325Y266164D02*
X-45982Y261507D01*
X-44539Y260064D01*
X-42646Y261956D01*
X-42519Y261828D01*
X-42453Y261752D01*
X-42396Y261675D01*
X-42356Y261594D01*
X-42325Y261522D01*
X-42305Y261461D01*
X-42289Y261405D01*
X-42279Y261374D01*
Y261364D01*
X-42274Y261278D01*
X-42284Y261186D01*
X-42294Y261084D01*
X-42315Y260982D01*
X-42335Y260890D01*
X-42356Y260819D01*
X-42371Y260762D01*
Y260752D01*
X-42376Y260747D01*
X-43024Y258549D01*
X-39795Y255320D01*
X-37382Y255896D01*
X-37954Y253479D01*
X-36337Y251861D01*
X-35531Y255850D01*
X-31817Y256656D01*
X-33388Y258227D01*
X-35623Y257595D01*
X-35010Y259849D01*
X-36597Y261436D01*
X-37372Y257743D01*
X-41395Y256928D01*
X-41392Y256936D01*
X-40754Y258972D01*
X-40739Y259038D01*
X-40718Y259110D01*
X-40693Y259278D01*
X-40683Y259349D01*
X-40672Y259411D01*
Y259452D01*
X-40667Y259467D01*
X-40652Y259584D01*
X-40647Y259681D01*
Y259763D01*
X-40642Y259829D01*
Y259880D01*
X-40647Y259916D01*
X-40652Y259931D01*
Y259941D01*
X-40672Y260023D01*
X-40693Y260115D01*
X-40728Y260201D01*
X-40764Y260288D01*
X-40795Y260370D01*
X-40825Y260431D01*
X-40846Y260472D01*
Y260482D01*
X-40851Y260487D01*
X-40708Y260405D01*
X-40575Y260334D01*
X-40458Y260278D01*
X-40361Y260232D01*
X-40280Y260201D01*
X-40218Y260181D01*
X-40178Y260171D01*
X-40162Y260166D01*
X-39989Y260135D01*
X-39826Y260115D01*
X-39667Y260110D01*
X-39535Y260120D01*
X-39412Y260130D01*
X-39326Y260145D01*
X-39290Y260150D01*
X-39265Y260155D01*
X-39254D01*
X-39249Y260161D01*
X-39086Y260212D01*
X-38928Y260288D01*
X-38785Y260370D01*
X-38663Y260451D01*
X-38561Y260533D01*
X-38515Y260569D01*
X-38479Y260594D01*
X-38448Y260625D01*
X-38428Y260645D01*
X-38418Y260655D01*
X-38413Y260660D01*
X-38331Y260742D01*
X-38265Y260829D01*
X-38142Y261002D01*
X-38050Y261165D01*
X-38010Y261237D01*
X-37974Y261313D01*
X-37949Y261380D01*
X-37928Y261441D01*
X-37913Y261497D01*
X-37898Y261543D01*
X-37887Y261584D01*
X-37882Y261609D01*
X-37877Y261625D01*
Y261635D01*
X-37857Y261828D01*
Y262012D01*
X-37882Y262181D01*
X-37918Y262328D01*
X-37954Y262456D01*
X-37969Y262502D01*
X-37984Y262548D01*
X-37999Y262583D01*
X-38015Y262609D01*
X-38020Y262624D01*
X-38025Y262629D01*
X-38076Y262721D01*
X-38127Y262813D01*
X-38265Y263002D01*
X-38418Y263195D01*
X-38566Y263374D01*
X-38637Y263456D01*
X-38703Y263532D01*
X-38765Y263593D01*
X-38816Y263655D01*
X-41325Y266164D01*
D02*
G37*
%LPD*%
G36*
X-40116Y263078D02*
X-40055Y263007D01*
X-39999Y262941D01*
X-39953Y262874D01*
X-39917Y262818D01*
X-39882Y262762D01*
X-39831Y262670D01*
X-39795Y262594D01*
X-39780Y262537D01*
X-39769Y262497D01*
Y262486D01*
Y262384D01*
X-39790Y262293D01*
X-39820Y262211D01*
X-39861Y262140D01*
X-39897Y262073D01*
X-39933Y262027D01*
X-39958Y262002D01*
X-39963Y261997D01*
X-39968Y261992D01*
X-40030Y261941D01*
X-40091Y261900D01*
X-40152Y261869D01*
X-40208Y261844D01*
X-40254Y261828D01*
X-40295Y261818D01*
X-40320Y261813D01*
X-40331D01*
X-40402D01*
X-40479Y261818D01*
X-40535Y261834D01*
X-40596Y261854D01*
X-40642Y261869D01*
X-40677Y261885D01*
X-40703Y261900D01*
X-40708Y261905D01*
X-40825Y261982D01*
X-40922Y262048D01*
X-41004Y262109D01*
X-41060Y262155D01*
X-41106Y262191D01*
X-41136Y262211D01*
X-41764Y262838D01*
X-40820Y263782D01*
X-40116Y263078D01*
D02*
G37*
%LPC*%
G36*
X84295Y213071D02*
X82157Y210934D01*
X82015Y210781D01*
X81882Y210618D01*
X81754Y210449D01*
X81642Y210296D01*
X81596Y210230D01*
X81550Y210164D01*
X81515Y210108D01*
X81484Y210057D01*
X81459Y210011D01*
X81438Y209980D01*
X81428Y209960D01*
X81423Y209955D01*
X81336Y209786D01*
X81270Y209608D01*
X81224Y209439D01*
X81188Y209281D01*
X81163Y209144D01*
X81158Y209088D01*
X81147Y209037D01*
Y208996D01*
Y208965D01*
X81142Y208950D01*
Y208939D01*
X81147Y208720D01*
X81163Y208511D01*
X81198Y208312D01*
X81244Y208134D01*
X81290Y207986D01*
X81306Y207919D01*
X81326Y207868D01*
X81336Y207828D01*
X81351Y207802D01*
X81357Y207777D01*
X81362Y207771D01*
X81413Y207659D01*
X81474Y207547D01*
X81617Y207312D01*
X81775Y207093D01*
X81943Y206884D01*
X82025Y206792D01*
X82101Y206705D01*
X82168Y206629D01*
X82224Y206563D01*
X82346Y206440D01*
X82530Y206267D01*
X82708Y206119D01*
X82877Y205981D01*
X82958Y205920D01*
X83035Y205864D01*
X83106Y205823D01*
X83173Y205777D01*
X83229Y205741D01*
X83274Y205706D01*
X83315Y205685D01*
X83341Y205670D01*
X83361Y205660D01*
X83366Y205655D01*
X83565Y205548D01*
X83764Y205461D01*
X83953Y205394D01*
X84121Y205349D01*
X84198Y205333D01*
X84269Y205313D01*
X84330Y205303D01*
X84381Y205292D01*
X84422Y205282D01*
X84453D01*
X84468Y205277D01*
X84478D01*
X84692Y205267D01*
X84902Y205272D01*
X85090Y205298D01*
X85264Y205328D01*
X85412Y205364D01*
X85473Y205384D01*
X85524Y205394D01*
X85565Y205415D01*
X85595Y205425D01*
X85616D01*
X85621Y205430D01*
X85728Y205476D01*
X85830Y205527D01*
X86044Y205650D01*
X86248Y205792D01*
X86427Y205930D01*
X86508Y206001D01*
X86585Y206068D01*
X86651Y206124D01*
X86707Y206170D01*
X88952Y208414D01*
X84295Y213071D01*
D02*
G37*
G36*
X79250Y208027D02*
X75327Y204104D01*
X76383Y203048D01*
X78862Y205527D01*
X79780Y204609D01*
X77546Y202375D01*
X78495Y201426D01*
X80729Y203660D01*
X81469Y202921D01*
X79061Y200513D01*
X80056Y199518D01*
X83907Y203370D01*
X79250Y208027D01*
D02*
G37*
G36*
X69416Y197264D02*
X69247Y197259D01*
X69099Y197243D01*
X68962Y197228D01*
X68854Y197203D01*
X68768Y197187D01*
X68737Y197177D01*
X68712Y197172D01*
X68702D01*
X68696Y197167D01*
X68538Y197111D01*
X68385Y197039D01*
X68243Y196958D01*
X68110Y196876D01*
X67998Y196805D01*
X67952Y196769D01*
X67911Y196738D01*
X67880Y196718D01*
X67850Y196698D01*
X67834Y196682D01*
X67671Y196550D01*
X67523Y196422D01*
X67386Y196305D01*
X67273Y196203D01*
X67182Y196111D01*
X67141Y196080D01*
X67049Y195989D01*
X66840Y195769D01*
X66753Y195662D01*
X66666Y195555D01*
X66590Y195458D01*
X66518Y195356D01*
X66452Y195269D01*
X66396Y195183D01*
X66350Y195106D01*
X66309Y195035D01*
X66274Y194979D01*
X66243Y194928D01*
X66217Y194882D01*
X66207Y194851D01*
X66197Y194831D01*
X66192Y194826D01*
X66131Y194662D01*
X66080Y194499D01*
X66049Y194336D01*
X66024Y194188D01*
X66013Y194055D01*
X66003Y193953D01*
Y193913D01*
Y193882D01*
Y193872D01*
Y193862D01*
X66013Y193658D01*
X66039Y193469D01*
X66075Y193290D01*
X66121Y193132D01*
X66166Y193005D01*
X66182Y192949D01*
X66202Y192908D01*
X66217Y192872D01*
X66228Y192841D01*
X66233Y192826D01*
X66238Y192821D01*
X66330Y192637D01*
X66437Y192469D01*
X66544Y192311D01*
X66651Y192173D01*
X66697Y192117D01*
X66743Y192061D01*
X66784Y192020D01*
X66814Y191979D01*
X69666Y189128D01*
X71104Y190567D01*
X68258Y193413D01*
X68130Y193561D01*
X68038Y193703D01*
X67967Y193836D01*
X67921Y193964D01*
X67896Y194071D01*
X67880Y194147D01*
X67875Y194203D01*
Y194224D01*
X67891Y194382D01*
X67931Y194525D01*
X67993Y194657D01*
X68059Y194775D01*
X68130Y194877D01*
X68161Y194918D01*
X68191Y194948D01*
X68212Y194979D01*
X68248Y195014D01*
X68390Y195137D01*
X68533Y195229D01*
X68666Y195300D01*
X68788Y195341D01*
X68895Y195366D01*
X68972Y195382D01*
X69028Y195387D01*
X69048D01*
X69207Y195371D01*
X69354Y195326D01*
X69487Y195264D01*
X69609Y195193D01*
X69706Y195127D01*
X69752Y195091D01*
X69783Y195060D01*
X69813Y195040D01*
X69834Y195019D01*
X69844Y195009D01*
X69849Y195004D01*
X72695Y192158D01*
X74134Y193596D01*
X71354Y196376D01*
X71216Y196504D01*
X71068Y196621D01*
X70915Y196733D01*
X70767Y196830D01*
X70701Y196876D01*
X70635Y196912D01*
X70579Y196948D01*
X70533Y196973D01*
X70492Y196994D01*
X70461Y197014D01*
X70441Y197024D01*
X70436Y197029D01*
X70298Y197096D01*
X70155Y197146D01*
X70012Y197187D01*
X69880Y197218D01*
X69768Y197238D01*
X69676Y197249D01*
X69640Y197254D01*
X69615Y197259D01*
X69599Y197254D01*
X69594Y197259D01*
X69416Y197264D01*
D02*
G37*
G36*
X74542Y203319D02*
X72022Y200799D01*
X71992Y200758D01*
X71946Y200712D01*
X71900Y200656D01*
X71803Y200539D01*
X71706Y200421D01*
X71614Y200309D01*
X71573Y200258D01*
X71538Y200212D01*
X71512Y200176D01*
X71492Y200146D01*
X71471Y200125D01*
X71364Y199977D01*
X71277Y199840D01*
X71206Y199727D01*
X71155Y199625D01*
X71119Y199539D01*
X71099Y199478D01*
X71084Y199442D01*
X71079Y199427D01*
X71043Y199258D01*
X71027Y199090D01*
X71022Y198932D01*
X71033Y198799D01*
X71043Y198677D01*
X71058Y198590D01*
X71063Y198554D01*
X71068Y198529D01*
Y198519D01*
X71073Y198514D01*
X71129Y198345D01*
X71196Y198187D01*
X71277Y198044D01*
X71354Y197927D01*
X71435Y197825D01*
X71466Y197784D01*
X71492Y197748D01*
X71634Y197606D01*
X71721Y197539D01*
X71890Y197422D01*
X72058Y197335D01*
X72134Y197300D01*
X72206Y197269D01*
X72277Y197249D01*
X72338Y197228D01*
X72394Y197213D01*
X72446Y197203D01*
X72481Y197197D01*
X72507Y197192D01*
X72522Y197187D01*
X72532D01*
X72629Y197182D01*
X72731D01*
X72935Y197213D01*
X73129Y197264D01*
X73307Y197330D01*
X73461Y197391D01*
X73527Y197427D01*
X73583Y197453D01*
X73629Y197478D01*
X73660Y197498D01*
X73680Y197509D01*
X73685Y197514D01*
X73614Y197351D01*
X73563Y197197D01*
X73527Y197060D01*
X73506Y196937D01*
X73496Y196835D01*
X73491Y196759D01*
Y196718D01*
Y196698D01*
X73501Y196596D01*
X73522Y196494D01*
X73542Y196402D01*
X73573Y196310D01*
X73649Y196142D01*
X73726Y196004D01*
X73807Y195892D01*
X73843Y195846D01*
X73874Y195805D01*
X73899Y195769D01*
X73920Y195749D01*
X73935Y195734D01*
X73940Y195728D01*
X74037Y195642D01*
X74134Y195565D01*
X74236Y195504D01*
X74333Y195448D01*
X74435Y195397D01*
X74532Y195361D01*
X74629Y195336D01*
X74715Y195310D01*
X74802Y195295D01*
X74884Y195285D01*
X74955Y195275D01*
X75011Y195269D01*
X75057Y195264D01*
X75098D01*
X75118D01*
X75128D01*
X75261Y195275D01*
X75389Y195300D01*
X75516Y195336D01*
X75639Y195387D01*
X75761Y195438D01*
X75868Y195494D01*
X76077Y195621D01*
X76169Y195683D01*
X76251Y195744D01*
X76322Y195805D01*
X76383Y195856D01*
X76434Y195897D01*
X79199Y198661D01*
X74542Y203319D01*
D02*
G37*
G36*
X64090Y191816D02*
X63963Y191811D01*
X63846Y191806D01*
X63738Y191791D01*
X63636Y191780D01*
X63550Y191765D01*
X63478Y191755D01*
X63422Y191740D01*
X63376Y191724D01*
X63351Y191719D01*
X63341D01*
X63188Y191668D01*
X63040Y191602D01*
X62892Y191525D01*
X62744Y191449D01*
X62468Y191276D01*
X62341Y191179D01*
X62218Y191087D01*
X62111Y191000D01*
X62009Y190919D01*
X61923Y190842D01*
X61846Y190776D01*
X61785Y190725D01*
X61581Y190521D01*
X61463Y190393D01*
X61361Y190271D01*
X61265Y190153D01*
X61173Y190041D01*
X61091Y189929D01*
X61009Y189827D01*
X60943Y189730D01*
X60887Y189643D01*
X60836Y189562D01*
X60790Y189495D01*
X60754Y189439D01*
X60729Y189393D01*
X60709Y189352D01*
X60698Y189332D01*
X60693Y189327D01*
X60632Y189205D01*
X60576Y189067D01*
X60469Y188786D01*
X60382Y188496D01*
X60336Y188358D01*
X60300Y188220D01*
X60265Y188093D01*
X60239Y187975D01*
X60214Y187868D01*
X60193Y187776D01*
X60178Y187700D01*
X60168Y187649D01*
X60158Y187608D01*
Y187598D01*
X62147Y185609D01*
X64371Y187833D01*
X63402Y188802D01*
X62438Y187838D01*
X61994Y188281D01*
X62040Y188440D01*
X62086Y188587D01*
X62132Y188715D01*
X62167Y188822D01*
X62203Y188909D01*
X62234Y188970D01*
X62254Y189011D01*
Y189021D01*
X62259Y189026D01*
X62320Y189128D01*
X62387Y189225D01*
X62448Y189317D01*
X62514Y189393D01*
X62570Y189460D01*
X62611Y189511D01*
X62652Y189552D01*
X62749Y189638D01*
X62846Y189715D01*
X62943Y189781D01*
X63045Y189842D01*
X63137Y189883D01*
X63228Y189924D01*
X63320Y189954D01*
X63402Y189975D01*
X63478Y190000D01*
X63550Y190011D01*
X63611Y190021D01*
X63667Y190026D01*
X63708D01*
X63738D01*
X63759D01*
X63769D01*
X63886Y190011D01*
X64004Y189975D01*
X64116Y189934D01*
X64238Y189883D01*
X64468Y189755D01*
X64677Y189608D01*
X64769Y189536D01*
X64861Y189465D01*
X64937Y189398D01*
X65003Y189342D01*
X65060Y189296D01*
X65100Y189256D01*
X65121Y189235D01*
X65131Y189225D01*
X65253Y189092D01*
X65371Y188965D01*
X65468Y188837D01*
X65549Y188715D01*
X65621Y188603D01*
X65687Y188496D01*
X65738Y188394D01*
X65779Y188292D01*
X65809Y188210D01*
X65835Y188133D01*
X65860Y188067D01*
X65876Y188011D01*
X65881Y187965D01*
X65886Y187929D01*
X65891Y187914D01*
Y187904D01*
Y187792D01*
X65886Y187685D01*
X65871Y187577D01*
X65850Y187475D01*
X65814Y187379D01*
X65779Y187292D01*
X65697Y187129D01*
X65656Y187057D01*
X65616Y186996D01*
X65575Y186945D01*
X65539Y186899D01*
X65514Y186863D01*
X65468Y186817D01*
X65350Y186710D01*
X65233Y186624D01*
X65116Y186557D01*
X65019Y186511D01*
X64932Y186476D01*
X64861Y186455D01*
X64820Y186445D01*
X64805Y186440D01*
X64677Y186425D01*
X64549Y186430D01*
X64432Y186445D01*
X64330Y186465D01*
X64243Y186491D01*
X64167Y186516D01*
X64126Y186537D01*
X64116D01*
X64111Y186542D01*
X62968Y184910D01*
X63183Y184797D01*
X63387Y184716D01*
X63580Y184655D01*
X63667Y184629D01*
X63749Y184609D01*
X63825Y184594D01*
X63892Y184578D01*
X63953Y184568D01*
X64004Y184558D01*
X64039Y184553D01*
X64070D01*
X64085Y184548D01*
X64096D01*
X64300D01*
X64499Y184563D01*
X64672Y184594D01*
X64835Y184634D01*
X64973Y184680D01*
X65029Y184695D01*
X65075Y184711D01*
X65116Y184731D01*
X65146Y184741D01*
X65162Y184746D01*
X65167Y184752D01*
X65269Y184803D01*
X65371Y184864D01*
X65483Y184935D01*
X65590Y185012D01*
X65804Y185175D01*
X66013Y185343D01*
X66105Y185425D01*
X66192Y185501D01*
X66268Y185578D01*
X66335Y185634D01*
X66610Y185910D01*
X66738Y186057D01*
X66855Y186195D01*
X66962Y186333D01*
X67064Y186465D01*
X67146Y186588D01*
X67222Y186705D01*
X67289Y186812D01*
X67340Y186914D01*
X67386Y187001D01*
X67426Y187083D01*
X67457Y187144D01*
X67477Y187195D01*
X67498Y187236D01*
X67508Y187256D01*
Y187266D01*
X67564Y187435D01*
X67600Y187603D01*
X67630Y187766D01*
X67651Y187919D01*
X67666Y188077D01*
X67671Y188225D01*
X67666Y188363D01*
X67661Y188491D01*
X67651Y188613D01*
X67635Y188720D01*
X67625Y188812D01*
X67605Y188893D01*
X67595Y188955D01*
X67584Y189006D01*
X67574Y189036D01*
Y189046D01*
X67523Y189210D01*
X67457Y189368D01*
X67386Y189521D01*
X67309Y189669D01*
X67227Y189812D01*
X67141Y189949D01*
X67059Y190072D01*
X66972Y190189D01*
X66891Y190301D01*
X66814Y190398D01*
X66743Y190480D01*
X66682Y190551D01*
X66636Y190607D01*
X66559Y190684D01*
X66421Y190811D01*
X66284Y190939D01*
X66146Y191046D01*
X66008Y191143D01*
X65876Y191235D01*
X65743Y191316D01*
X65621Y191388D01*
X65503Y191454D01*
X65396Y191510D01*
X65294Y191561D01*
X65208Y191597D01*
X65131Y191633D01*
X65070Y191653D01*
X65024Y191668D01*
X64998Y191684D01*
X64988D01*
X64830Y191730D01*
X64672Y191765D01*
X64524Y191791D01*
X64376Y191806D01*
X64233Y191816D01*
X64090D01*
D02*
G37*
G36*
X33712Y191481D02*
X32559Y190328D01*
X34028Y188859D01*
X30524Y185355D01*
X31962Y183916D01*
X35467Y187420D01*
X36936Y185951D01*
X38089Y187104D01*
X33712Y191481D01*
D02*
G37*
G36*
X38762Y186431D02*
X34105Y181774D01*
X36242Y179637D01*
X36395Y179494D01*
X36558Y179361D01*
X36727Y179234D01*
X36880Y179121D01*
X36946Y179076D01*
X37012Y179030D01*
X37068Y178994D01*
X37119Y178963D01*
X37165Y178938D01*
X37196Y178917D01*
X37216Y178907D01*
X37221Y178902D01*
X37390Y178815D01*
X37568Y178749D01*
X37737Y178703D01*
X37895Y178667D01*
X38033Y178642D01*
X38089Y178637D01*
X38140Y178627D01*
X38180D01*
X38211D01*
X38226Y178622D01*
X38236D01*
X38456Y178627D01*
X38665Y178642D01*
X38864Y178678D01*
X39042Y178724D01*
X39190Y178769D01*
X39257Y178785D01*
X39308Y178805D01*
X39348Y178815D01*
X39374Y178831D01*
X39399Y178836D01*
X39405Y178841D01*
X39517Y178892D01*
X39629Y178953D01*
X39864Y179096D01*
X40083Y179254D01*
X40292Y179422D01*
X40384Y179504D01*
X40471Y179580D01*
X40547Y179647D01*
X40613Y179703D01*
X40736Y179825D01*
X40909Y180009D01*
X41057Y180187D01*
X41195Y180356D01*
X41256Y180437D01*
X41312Y180514D01*
X41353Y180585D01*
X41399Y180652D01*
X41435Y180708D01*
X41470Y180754D01*
X41491Y180795D01*
X41506Y180820D01*
X41516Y180840D01*
X41521Y180846D01*
X41628Y181044D01*
X41715Y181243D01*
X41782Y181432D01*
X41827Y181600D01*
X41843Y181677D01*
X41863Y181748D01*
X41873Y181810D01*
X41884Y181861D01*
X41894Y181901D01*
Y181932D01*
X41899Y181947D01*
Y181957D01*
X41909Y182172D01*
X41904Y182381D01*
X41878Y182570D01*
X41848Y182743D01*
X41812Y182891D01*
X41792Y182952D01*
X41782Y183003D01*
X41761Y183044D01*
X41751Y183074D01*
Y183095D01*
X41746Y183100D01*
X41700Y183207D01*
X41649Y183309D01*
X41526Y183523D01*
X41384Y183727D01*
X41246Y183906D01*
X41175Y183988D01*
X41108Y184064D01*
X41052Y184130D01*
X41006Y184186D01*
X38762Y186431D01*
D02*
G37*
G36*
X43868Y181325D02*
X39211Y176668D01*
X40654Y175224D01*
X45311Y179881D01*
X43868Y181325D01*
D02*
G37*
%LPD*%
G36*
X86457Y208032D02*
X86100Y207675D01*
X85993Y207578D01*
X85896Y207491D01*
X85794Y207419D01*
X85697Y207353D01*
X85605Y207302D01*
X85514Y207261D01*
X85427Y207226D01*
X85351Y207200D01*
X85279Y207180D01*
X85213Y207164D01*
X85157Y207149D01*
X85106D01*
X85070Y207144D01*
X85039D01*
X85029D01*
X85019D01*
X84922Y207159D01*
X84815Y207185D01*
X84713Y207226D01*
X84601Y207277D01*
X84392Y207404D01*
X84193Y207542D01*
X84106Y207608D01*
X84019Y207675D01*
X83943Y207741D01*
X83887Y207797D01*
X83830Y207843D01*
X83790Y207884D01*
X83769Y207904D01*
X83759Y207914D01*
X83657Y208016D01*
X83570Y208113D01*
X83489Y208205D01*
X83412Y208292D01*
X83351Y208373D01*
X83295Y208450D01*
X83249Y208516D01*
X83203Y208582D01*
X83167Y208639D01*
X83137Y208690D01*
X83116Y208730D01*
X83096Y208771D01*
X83081Y208797D01*
X83070Y208817D01*
Y208827D01*
X83065Y208832D01*
X83025Y208965D01*
X82999Y209082D01*
X82989Y209195D01*
X82984Y209291D01*
X82994Y209373D01*
X83004Y209434D01*
X83009Y209470D01*
X83014Y209485D01*
X83035Y209536D01*
X83065Y209597D01*
X83137Y209720D01*
X83229Y209842D01*
X83320Y209965D01*
X83412Y210067D01*
X83453Y210108D01*
X83484Y210148D01*
X83912Y210577D01*
X86457Y208032D01*
D02*
G37*
G36*
X75032Y199921D02*
X74236Y199126D01*
X74165Y199064D01*
X74037Y198967D01*
X73930Y198901D01*
X73833Y198845D01*
X73751Y198815D01*
X73695Y198799D01*
X73654Y198789D01*
X73644D01*
X73542D01*
X73450Y198809D01*
X73364Y198835D01*
X73297Y198871D01*
X73241Y198906D01*
X73195Y198932D01*
X73170Y198957D01*
X73160Y198967D01*
X73083Y199054D01*
X73037Y199141D01*
X72996Y199223D01*
X72976Y199304D01*
X72961Y199370D01*
X72956Y199427D01*
Y199467D01*
Y199478D01*
X72966Y199529D01*
X72981Y199585D01*
X73032Y199697D01*
X73093Y199809D01*
X73165Y199911D01*
X73231Y199998D01*
X73267Y200034D01*
X73292Y200069D01*
X74088Y200865D01*
X75032Y199921D01*
D02*
G37*
G36*
X76802Y198151D02*
X76169Y197519D01*
X76047Y197407D01*
X75934Y197325D01*
X75843Y197264D01*
X75756Y197218D01*
X75684Y197197D01*
X75634Y197177D01*
X75598Y197172D01*
X75588D01*
X75496D01*
X75414Y197192D01*
X75338Y197218D01*
X75271Y197254D01*
X75215Y197289D01*
X75174Y197320D01*
X75149Y197346D01*
X75139Y197356D01*
X75067Y197437D01*
X75016Y197519D01*
X74976Y197600D01*
X74955Y197672D01*
X74945Y197733D01*
X74935Y197784D01*
Y197815D01*
Y197825D01*
X74955Y197917D01*
X74996Y198019D01*
X75057Y198121D01*
X75123Y198207D01*
X75185Y198289D01*
X75236Y198350D01*
X75919Y199034D01*
X76802Y198151D01*
D02*
G37*
G36*
X39502Y183580D02*
X39598Y183472D01*
X39685Y183375D01*
X39757Y183273D01*
X39823Y183176D01*
X39874Y183085D01*
X39915Y182993D01*
X39950Y182906D01*
X39976Y182830D01*
X39996Y182758D01*
X40012Y182692D01*
X40027Y182636D01*
Y182585D01*
X40032Y182549D01*
Y182519D01*
Y182508D01*
Y182498D01*
X40017Y182401D01*
X39991Y182294D01*
X39950Y182192D01*
X39899Y182080D01*
X39772Y181871D01*
X39634Y181672D01*
X39568Y181585D01*
X39502Y181498D01*
X39435Y181422D01*
X39379Y181366D01*
X39333Y181310D01*
X39292Y181269D01*
X39272Y181248D01*
X39262Y181238D01*
X39160Y181136D01*
X39063Y181049D01*
X38971Y180968D01*
X38884Y180891D01*
X38803Y180830D01*
X38726Y180774D01*
X38660Y180728D01*
X38593Y180682D01*
X38537Y180647D01*
X38486Y180616D01*
X38446Y180595D01*
X38405Y180575D01*
X38379Y180560D01*
X38359Y180550D01*
X38349D01*
X38344Y180544D01*
X38211Y180504D01*
X38094Y180478D01*
X37982Y180468D01*
X37885Y180463D01*
X37803Y180473D01*
X37742Y180483D01*
X37706Y180488D01*
X37691Y180494D01*
X37640Y180514D01*
X37578Y180544D01*
X37456Y180616D01*
X37334Y180708D01*
X37211Y180800D01*
X37109Y180891D01*
X37068Y180932D01*
X37028Y180963D01*
X36599Y181391D01*
X39144Y183937D01*
X39502Y183580D01*
D02*
G37*
%LPC*%
G36*
X13675Y211355D02*
X12522Y210202D01*
X13991Y208733D01*
X10487Y205229D01*
X11925Y203790D01*
X15429Y207295D01*
X16898Y205826D01*
X18051Y206978D01*
X13675Y211355D01*
D02*
G37*
G36*
X18724Y206305D02*
X14067Y201648D01*
X16205Y199511D01*
X16358Y199368D01*
X16521Y199235D01*
X16689Y199108D01*
X16842Y198995D01*
X16909Y198950D01*
X16975Y198904D01*
X17031Y198868D01*
X17082Y198837D01*
X17128Y198812D01*
X17158Y198792D01*
X17179Y198781D01*
X17184Y198776D01*
X17352Y198689D01*
X17531Y198623D01*
X17699Y198577D01*
X17857Y198542D01*
X17995Y198516D01*
X18051Y198511D01*
X18102Y198501D01*
X18143D01*
X18174D01*
X18189Y198496D01*
X18199D01*
X18418Y198501D01*
X18628Y198516D01*
X18827Y198552D01*
X19005Y198598D01*
X19153Y198644D01*
X19219Y198659D01*
X19270Y198679D01*
X19311Y198689D01*
X19337Y198705D01*
X19362Y198710D01*
X19367Y198715D01*
X19479Y198766D01*
X19592Y198827D01*
X19826Y198970D01*
X20045Y199128D01*
X20255Y199296D01*
X20347Y199378D01*
X20433Y199455D01*
X20510Y199521D01*
X20576Y199577D01*
X20698Y199699D01*
X20872Y199883D01*
X21020Y200062D01*
X21158Y200230D01*
X21219Y200312D01*
X21275Y200388D01*
X21316Y200459D01*
X21361Y200526D01*
X21397Y200582D01*
X21433Y200628D01*
X21453Y200669D01*
X21469Y200694D01*
X21479Y200714D01*
X21484Y200720D01*
X21591Y200919D01*
X21678Y201117D01*
X21744Y201306D01*
X21790Y201474D01*
X21805Y201551D01*
X21826Y201623D01*
X21836Y201684D01*
X21846Y201735D01*
X21856Y201775D01*
Y201806D01*
X21861Y201821D01*
Y201832D01*
X21872Y202046D01*
X21867Y202255D01*
X21841Y202444D01*
X21810Y202617D01*
X21775Y202765D01*
X21754Y202826D01*
X21744Y202877D01*
X21724Y202918D01*
X21714Y202949D01*
Y202969D01*
X21708Y202974D01*
X21662Y203081D01*
X21611Y203183D01*
X21489Y203398D01*
X21346Y203601D01*
X21209Y203780D01*
X21137Y203862D01*
X21071Y203938D01*
X21015Y204004D01*
X20969Y204061D01*
X18724Y206305D01*
D02*
G37*
G36*
X23667Y200250D02*
X23433Y200240D01*
X23198Y200199D01*
X22973Y200138D01*
X22754Y200072D01*
X22545Y199985D01*
X22346Y199888D01*
X22157Y199781D01*
X21989Y199674D01*
X21826Y199572D01*
X21683Y199460D01*
X21560Y199368D01*
X21453Y199281D01*
X21372Y199210D01*
X21336Y199174D01*
X21305Y199154D01*
X21254Y199103D01*
X21112Y198950D01*
X20979Y198797D01*
X20856Y198644D01*
X20749Y198496D01*
X20647Y198353D01*
X20566Y198210D01*
X20489Y198083D01*
X20428Y197960D01*
X20372Y197843D01*
X20321Y197741D01*
X20290Y197649D01*
X20255Y197572D01*
X20234Y197511D01*
X20219Y197465D01*
X20209Y197435D01*
Y197425D01*
X20173Y197266D01*
X20148Y197108D01*
X20132Y196950D01*
X20122Y196807D01*
Y196665D01*
X20127Y196527D01*
X20137Y196404D01*
X20153Y196287D01*
X20168Y196180D01*
X20183Y196083D01*
X20204Y196001D01*
X20214Y195930D01*
X20229Y195874D01*
X20245Y195828D01*
X20255Y195808D01*
Y195797D01*
X20311Y195649D01*
X20377Y195512D01*
X20454Y195364D01*
X20535Y195231D01*
X20709Y194966D01*
X20800Y194844D01*
X20882Y194731D01*
X20969Y194624D01*
X21050Y194532D01*
X21122Y194451D01*
X21183Y194379D01*
X21234Y194318D01*
X21311Y194242D01*
X21458Y194104D01*
X21601Y193971D01*
X21744Y193859D01*
X21887Y193757D01*
X22020Y193665D01*
X22152Y193584D01*
X22275Y193512D01*
X22397Y193451D01*
X22504Y193395D01*
X22601Y193349D01*
X22688Y193313D01*
X22759Y193283D01*
X22820Y193262D01*
X22861Y193252D01*
X22887Y193237D01*
X22897D01*
X23050Y193196D01*
X23198Y193171D01*
X23346Y193155D01*
X23489Y193145D01*
X23626Y193140D01*
X23759D01*
X23886Y193145D01*
X24004Y193160D01*
X24116Y193171D01*
X24213Y193186D01*
X24295Y193206D01*
X24366Y193216D01*
X24422Y193232D01*
X24473Y193242D01*
X24493Y193252D01*
X24504D01*
X24657Y193303D01*
X24805Y193369D01*
X24952Y193446D01*
X25095Y193528D01*
X25371Y193701D01*
X25493Y193793D01*
X25610Y193879D01*
X25723Y193961D01*
X25820Y194048D01*
X25906Y194124D01*
X25978Y194186D01*
X26044Y194242D01*
X26121Y194318D01*
X26319Y194527D01*
X26493Y194741D01*
X26646Y194956D01*
X26774Y195165D01*
X26881Y195374D01*
X26972Y195568D01*
X27044Y195751D01*
X27100Y195930D01*
X27146Y196098D01*
X27181Y196246D01*
X27207Y196374D01*
X27222Y196491D01*
X27227Y196578D01*
X27232Y196644D01*
X27238Y196690D01*
Y196700D01*
X27227Y196935D01*
X27192Y197164D01*
X27130Y197389D01*
X27054Y197608D01*
X26967Y197817D01*
X26870Y198016D01*
X26763Y198205D01*
X26656Y198383D01*
X26549Y198542D01*
X26447Y198684D01*
X26345Y198807D01*
X26258Y198914D01*
X26182Y199001D01*
X26151Y199042D01*
X26075Y199118D01*
X25865Y199317D01*
X25646Y199495D01*
X25432Y199638D01*
X25223Y199776D01*
X25014Y199883D01*
X24815Y199970D01*
X24626Y200046D01*
X24448Y200113D01*
X24279Y200159D01*
X24131Y200194D01*
X23999Y200215D01*
X23886Y200235D01*
X23795Y200245D01*
X23723D01*
X23677Y200250D01*
X23667D01*
D02*
G37*
%LPD*%
G36*
X19464Y203454D02*
X19561Y203347D01*
X19648Y203250D01*
X19719Y203148D01*
X19785Y203051D01*
X19836Y202959D01*
X19877Y202867D01*
X19913Y202780D01*
X19938Y202704D01*
X19959Y202632D01*
X19974Y202566D01*
X19989Y202510D01*
Y202459D01*
X19994Y202423D01*
Y202393D01*
Y202383D01*
Y202372D01*
X19979Y202275D01*
X19954Y202168D01*
X19913Y202066D01*
X19862Y201954D01*
X19734Y201745D01*
X19597Y201546D01*
X19530Y201459D01*
X19464Y201373D01*
X19398Y201296D01*
X19342Y201240D01*
X19296Y201184D01*
X19255Y201143D01*
X19234Y201123D01*
X19224Y201112D01*
X19122Y201010D01*
X19025Y200924D01*
X18934Y200842D01*
X18847Y200765D01*
X18765Y200704D01*
X18689Y200648D01*
X18622Y200602D01*
X18556Y200556D01*
X18500Y200521D01*
X18449Y200490D01*
X18408Y200470D01*
X18367Y200449D01*
X18342Y200434D01*
X18321Y200424D01*
X18311D01*
X18306Y200419D01*
X18174Y200378D01*
X18056Y200352D01*
X17944Y200342D01*
X17847Y200337D01*
X17766Y200347D01*
X17704Y200357D01*
X17669Y200363D01*
X17653Y200368D01*
X17602Y200388D01*
X17541Y200419D01*
X17419Y200490D01*
X17296Y200582D01*
X17174Y200674D01*
X17072Y200765D01*
X17031Y200806D01*
X16990Y200837D01*
X16562Y201265D01*
X19107Y203811D01*
X19464Y203454D01*
D02*
G37*
G36*
X24177Y198414D02*
X24274Y198399D01*
X24366Y198378D01*
X24458Y198348D01*
X24539Y198317D01*
X24687Y198241D01*
X24810Y198169D01*
X24861Y198128D01*
X24901Y198098D01*
X24937Y198072D01*
X24978Y198032D01*
X25055Y197945D01*
X25126Y197853D01*
X25182Y197766D01*
X25238Y197680D01*
X25310Y197506D01*
X25335Y197430D01*
X25355Y197348D01*
X25366Y197277D01*
X25381Y197210D01*
X25386Y197154D01*
X25391Y197098D01*
X25396Y197062D01*
Y197032D01*
X25391Y197016D01*
Y197006D01*
X25376Y196899D01*
X25355Y196787D01*
X25315Y196675D01*
X25269Y196568D01*
X25157Y196364D01*
X25029Y196175D01*
X24973Y196088D01*
X24907Y196012D01*
X24850Y195945D01*
X24799Y195884D01*
X24759Y195833D01*
X24728Y195802D01*
X24702Y195777D01*
X24697Y195772D01*
X24550Y195634D01*
X24417Y195512D01*
X24284Y195410D01*
X24157Y195313D01*
X24039Y195236D01*
X23932Y195170D01*
X23830Y195109D01*
X23739Y195068D01*
X23652Y195032D01*
X23580Y195002D01*
X23514Y194976D01*
X23463Y194966D01*
X23417Y194951D01*
X23386D01*
X23371Y194946D01*
X23361D01*
X23259D01*
X23162Y194951D01*
X23060Y194971D01*
X22968Y194991D01*
X22877Y195022D01*
X22790Y195058D01*
X22642Y195134D01*
X22514Y195221D01*
X22468Y195257D01*
X22422Y195292D01*
X22387Y195318D01*
X22341Y195364D01*
X22264Y195450D01*
X22193Y195542D01*
X22137Y195629D01*
X22086Y195711D01*
X22045Y195802D01*
X22014Y195884D01*
X21984Y195966D01*
X21969Y196042D01*
X21953Y196119D01*
X21943Y196180D01*
X21938Y196236D01*
X21933Y196292D01*
X21928Y196328D01*
Y196358D01*
X21933Y196374D01*
Y196384D01*
X21948Y196491D01*
X21979Y196603D01*
X22020Y196716D01*
X22071Y196817D01*
X22188Y197037D01*
X22326Y197236D01*
X22392Y197323D01*
X22463Y197404D01*
X22524Y197475D01*
X22576Y197537D01*
X22621Y197593D01*
X22657Y197628D01*
X22678Y197649D01*
X22688Y197659D01*
X22820Y197782D01*
X22948Y197899D01*
X23070Y197991D01*
X23188Y198077D01*
X23300Y198149D01*
X23407Y198215D01*
X23509Y198266D01*
X23601Y198307D01*
X23677Y198343D01*
X23754Y198368D01*
X23815Y198389D01*
X23866Y198399D01*
X23912Y198414D01*
X23942D01*
X23958Y198419D01*
X23968D01*
X24075Y198424D01*
X24177Y198414D01*
D02*
G37*
%LPC*%
G36*
X-6399Y-24187D02*
X-9226Y-27015D01*
X-12042Y-24199D01*
X-14411Y-26567D01*
X-11595Y-29383D01*
X-14411Y-32199D01*
X-12042Y-34567D01*
X-9226Y-31751D01*
X-6399Y-34579D01*
X-4031Y-32211D01*
X-6858Y-29383D01*
X-4031Y-26556D01*
X-6399Y-24187D01*
D02*
G37*
G36*
X166351Y-334187D02*
X163524Y-337015D01*
X160708Y-334199D01*
X158340Y-336567D01*
X161155Y-339383D01*
X158340Y-342199D01*
X160708Y-344567D01*
X163524Y-341752D01*
X166351Y-344579D01*
X168720Y-342211D01*
X165892Y-339383D01*
X168720Y-336556D01*
X166351Y-334187D01*
D02*
G37*
G36*
X-8431Y238481D02*
X-8538Y238466D01*
X-8579D01*
X-8605Y238461D01*
X-8620Y238456D01*
X-8630D01*
X-8819Y238400D01*
X-8987Y238333D01*
X-9140Y238252D01*
X-9268Y238175D01*
X-9370Y238104D01*
X-9416Y238068D01*
X-9446Y238037D01*
X-9477Y238017D01*
X-9497Y237997D01*
X-9507Y237987D01*
X-9513Y237981D01*
X-9610Y237874D01*
X-9691Y237772D01*
X-9762Y237660D01*
X-9824Y237548D01*
X-9870Y237441D01*
X-9910Y237328D01*
X-9941Y237227D01*
X-9966Y237119D01*
X-9987Y237028D01*
X-9997Y236946D01*
X-10002Y236870D01*
X-10007Y236803D01*
X-10012Y236747D01*
Y236706D01*
Y236686D01*
Y236676D01*
X-9997Y236528D01*
X-9966Y236375D01*
X-9921Y236217D01*
X-9865Y236058D01*
X-9742Y235742D01*
X-9599Y235436D01*
X-9533Y235298D01*
X-9467Y235171D01*
X-9400Y235054D01*
X-9344Y234957D01*
X-9303Y234875D01*
X-9263Y234814D01*
X-9237Y234778D01*
Y234768D01*
X-9232Y234763D01*
X-9155Y234635D01*
X-9079Y234518D01*
X-9018Y234406D01*
X-8967Y234304D01*
X-8921Y234217D01*
X-8885Y234130D01*
X-8855Y234059D01*
X-8829Y233993D01*
X-8803Y233937D01*
X-8793Y233885D01*
X-8783Y233845D01*
X-8773Y233814D01*
X-8768Y233789D01*
Y233768D01*
X-8763Y233753D01*
X-8768Y233646D01*
X-8783Y233549D01*
X-8809Y233472D01*
X-8839Y233401D01*
X-8870Y233350D01*
X-8895Y233304D01*
X-8916Y233284D01*
X-8926Y233273D01*
X-9003Y233207D01*
X-9084Y233166D01*
X-9171Y233131D01*
X-9247Y233115D01*
X-9324Y233110D01*
X-9380Y233105D01*
X-9421D01*
X-9431D01*
X-9543Y233125D01*
X-9655Y233166D01*
X-9757Y233217D01*
X-9849Y233279D01*
X-9926Y233335D01*
X-9992Y233381D01*
X-10043Y233431D01*
X-10114Y233513D01*
X-10181Y233590D01*
X-10273Y233753D01*
X-10339Y233901D01*
X-10369Y234044D01*
X-10390Y234166D01*
X-10400Y234258D01*
X-10395Y234324D01*
Y234334D01*
Y234345D01*
X-10369Y234462D01*
X-10324Y234589D01*
X-10273Y234702D01*
X-10211Y234814D01*
X-10155Y234900D01*
X-10104Y234972D01*
X-10084Y235003D01*
X-10074Y235023D01*
X-10063Y235033D01*
X-10058Y235038D01*
X-11517Y236324D01*
X-11629Y236181D01*
X-11737Y236033D01*
X-11823Y235885D01*
X-11895Y235742D01*
X-11961Y235594D01*
X-12012Y235451D01*
X-12058Y235324D01*
X-12093Y235196D01*
X-12119Y235079D01*
X-12139Y234977D01*
X-12155Y234880D01*
X-12165Y234799D01*
X-12170Y234732D01*
X-12175Y234686D01*
Y234656D01*
Y234646D01*
X-12165Y234472D01*
X-12119Y234294D01*
X-12063Y234115D01*
X-11986Y233937D01*
X-11895Y233753D01*
X-11793Y233579D01*
X-11686Y233411D01*
X-11578Y233253D01*
X-11466Y233100D01*
X-11354Y232967D01*
X-11257Y232850D01*
X-11170Y232743D01*
X-11089Y232661D01*
X-11063Y232626D01*
X-10859Y232422D01*
X-10732Y232314D01*
X-10609Y232212D01*
X-10492Y232115D01*
X-10380Y232034D01*
X-10273Y231957D01*
X-10171Y231886D01*
X-10074Y231830D01*
X-9982Y231779D01*
X-9905Y231733D01*
X-9839Y231697D01*
X-9783Y231672D01*
X-9732Y231651D01*
X-9701Y231631D01*
X-9676Y231626D01*
X-9671Y231621D01*
X-9431Y231544D01*
X-9201Y231498D01*
X-9089Y231478D01*
X-8987Y231468D01*
X-8890Y231463D01*
X-8798D01*
X-8712Y231468D01*
X-8635Y231473D01*
X-8569Y231478D01*
X-8513Y231483D01*
X-8467Y231488D01*
X-8431Y231493D01*
X-8416Y231498D01*
X-8406D01*
X-8288Y231524D01*
X-8176Y231565D01*
X-8069Y231600D01*
X-7972Y231646D01*
X-7789Y231738D01*
X-7630Y231835D01*
X-7564Y231881D01*
X-7503Y231932D01*
X-7447Y231968D01*
X-7411Y232003D01*
X-7370Y232034D01*
X-7329Y232075D01*
X-7202Y232223D01*
X-7090Y232376D01*
X-7003Y232524D01*
X-6931Y232656D01*
X-6911Y232717D01*
X-6886Y232773D01*
X-6865Y232824D01*
X-6855Y232865D01*
X-6845Y232906D01*
X-6835Y232927D01*
Y232947D01*
X-6830Y232952D01*
X-6809Y233044D01*
X-6794Y233141D01*
X-6784Y233335D01*
X-6794Y233518D01*
X-6814Y233692D01*
X-6845Y233845D01*
X-6855Y233906D01*
X-6870Y233962D01*
X-6880Y234003D01*
X-6891Y234033D01*
X-6896Y234059D01*
X-6901Y234064D01*
X-6942Y234186D01*
X-6998Y234314D01*
X-7059Y234457D01*
X-7131Y234600D01*
X-7283Y234895D01*
X-7442Y235176D01*
X-7523Y235309D01*
X-7595Y235431D01*
X-7661Y235548D01*
X-7722Y235640D01*
X-7768Y235717D01*
X-7809Y235778D01*
X-7829Y235819D01*
X-7839Y235829D01*
X-7890Y235910D01*
X-7936Y235987D01*
X-7977Y236058D01*
X-8013Y236125D01*
X-8049Y236181D01*
X-8069Y236232D01*
X-8110Y236324D01*
X-8130Y236395D01*
X-8145Y236441D01*
X-8151Y236467D01*
Y236477D01*
Y236548D01*
X-8140Y236609D01*
X-8120Y236660D01*
X-8100Y236701D01*
X-8084Y236737D01*
X-8069Y236762D01*
X-8054Y236778D01*
X-8049Y236783D01*
X-7987Y236834D01*
X-7921Y236870D01*
X-7860Y236890D01*
X-7799Y236910D01*
X-7748Y236921D01*
X-7707D01*
X-7676D01*
X-7666D01*
X-7579Y236905D01*
X-7493Y236870D01*
X-7411Y236829D01*
X-7340Y236778D01*
X-7273Y236732D01*
X-7222Y236691D01*
X-7182Y236650D01*
X-7079Y236538D01*
X-7003Y236431D01*
X-6947Y236324D01*
X-6901Y236227D01*
X-6880Y236145D01*
X-6860Y236084D01*
Y236043D01*
X-6855Y236028D01*
Y235905D01*
X-6880Y235788D01*
X-6911Y235676D01*
X-6957Y235569D01*
X-6998Y235477D01*
X-7039Y235406D01*
X-7054Y235380D01*
X-7069Y235365D01*
X-7074Y235349D01*
X-7079Y235344D01*
X-5646Y234064D01*
X-5534Y234217D01*
X-5442Y234370D01*
X-5366Y234518D01*
X-5304Y234661D01*
X-5248Y234799D01*
X-5213Y234936D01*
X-5182Y235059D01*
X-5162Y235181D01*
X-5146Y235288D01*
X-5141Y235385D01*
X-5136Y235472D01*
Y235543D01*
X-5141Y235599D01*
X-5146Y235645D01*
X-5151Y235671D01*
Y235681D01*
X-5182Y235834D01*
X-5233Y235987D01*
X-5289Y236135D01*
X-5366Y236283D01*
X-5442Y236431D01*
X-5529Y236569D01*
X-5621Y236701D01*
X-5707Y236829D01*
X-5794Y236946D01*
X-5881Y237053D01*
X-5962Y237145D01*
X-6029Y237221D01*
X-6085Y237288D01*
X-6304Y237507D01*
X-6437Y237619D01*
X-6559Y237731D01*
X-6687Y237828D01*
X-6799Y237920D01*
X-6906Y237997D01*
X-7013Y238063D01*
X-7105Y238124D01*
X-7192Y238180D01*
X-7273Y238221D01*
X-7340Y238257D01*
X-7391Y238288D01*
X-7437Y238303D01*
X-7467Y238323D01*
X-7493Y238328D01*
X-7498Y238333D01*
X-7722Y238405D01*
X-7931Y238451D01*
X-8120Y238476D01*
X-8288Y238481D01*
X-8431D01*
D02*
G37*
G36*
X-13573Y244612D02*
X-16353Y241833D01*
X-16480Y241695D01*
X-16597Y241547D01*
X-16710Y241394D01*
X-16807Y241246D01*
X-16853Y241180D01*
X-16888Y241113D01*
X-16924Y241057D01*
X-16949Y241011D01*
X-16970Y240970D01*
X-16990Y240940D01*
X-17000Y240919D01*
X-17006Y240914D01*
X-17072Y240777D01*
X-17123Y240634D01*
X-17164Y240491D01*
X-17194Y240358D01*
X-17215Y240246D01*
X-17225Y240154D01*
X-17230Y240119D01*
X-17235Y240093D01*
X-17230Y240078D01*
X-17235Y240073D01*
X-17240Y239894D01*
X-17235Y239726D01*
X-17220Y239578D01*
X-17205Y239440D01*
X-17179Y239333D01*
X-17164Y239246D01*
X-17154Y239216D01*
X-17148Y239190D01*
Y239180D01*
X-17143Y239175D01*
X-17087Y239017D01*
X-17016Y238864D01*
X-16934Y238721D01*
X-16853Y238588D01*
X-16781Y238476D01*
X-16746Y238430D01*
X-16715Y238389D01*
X-16695Y238359D01*
X-16674Y238328D01*
X-16659Y238313D01*
X-16526Y238150D01*
X-16399Y238002D01*
X-16281Y237864D01*
X-16179Y237752D01*
X-16087Y237660D01*
X-16057Y237619D01*
X-15965Y237527D01*
X-15746Y237318D01*
X-15639Y237232D01*
X-15532Y237145D01*
X-15434Y237068D01*
X-15332Y236997D01*
X-15246Y236931D01*
X-15159Y236875D01*
X-15083Y236829D01*
X-15011Y236788D01*
X-14955Y236752D01*
X-14904Y236721D01*
X-14858Y236696D01*
X-14828Y236686D01*
X-14807Y236676D01*
X-14802Y236670D01*
X-14639Y236609D01*
X-14476Y236558D01*
X-14312Y236528D01*
X-14165Y236502D01*
X-14032Y236492D01*
X-13930Y236482D01*
X-13889D01*
X-13858D01*
X-13848D01*
X-13838D01*
X-13634Y236492D01*
X-13445Y236518D01*
X-13267Y236553D01*
X-13109Y236599D01*
X-12981Y236645D01*
X-12925Y236660D01*
X-12884Y236681D01*
X-12849Y236696D01*
X-12818Y236706D01*
X-12802Y236711D01*
X-12797Y236716D01*
X-12614Y236808D01*
X-12445Y236915D01*
X-12287Y237022D01*
X-12150Y237130D01*
X-12093Y237176D01*
X-12037Y237221D01*
X-11997Y237262D01*
X-11956Y237293D01*
X-9104Y240144D01*
X-10543Y241583D01*
X-13389Y238736D01*
X-13537Y238609D01*
X-13680Y238517D01*
X-13813Y238446D01*
X-13940Y238400D01*
X-14047Y238374D01*
X-14124Y238359D01*
X-14180Y238354D01*
X-14200D01*
X-14358Y238369D01*
X-14501Y238410D01*
X-14634Y238471D01*
X-14751Y238537D01*
X-14853Y238609D01*
X-14894Y238639D01*
X-14924Y238670D01*
X-14955Y238690D01*
X-14991Y238726D01*
X-15113Y238869D01*
X-15205Y239012D01*
X-15276Y239144D01*
X-15317Y239267D01*
X-15343Y239374D01*
X-15358Y239450D01*
X-15363Y239507D01*
Y239527D01*
X-15348Y239685D01*
X-15302Y239833D01*
X-15241Y239966D01*
X-15169Y240088D01*
X-15103Y240185D01*
X-15067Y240231D01*
X-15037Y240261D01*
X-15016Y240292D01*
X-14996Y240312D01*
X-14986Y240323D01*
X-14981Y240328D01*
X-12134Y243174D01*
X-13573Y244612D01*
D02*
G37*
G36*
X-3448Y234487D02*
X-8105Y229830D01*
X-5585Y227311D01*
X-5544Y227280D01*
X-5498Y227234D01*
X-5442Y227188D01*
X-5325Y227091D01*
X-5207Y226994D01*
X-5095Y226903D01*
X-5044Y226862D01*
X-4998Y226826D01*
X-4963Y226800D01*
X-4932Y226780D01*
X-4912Y226760D01*
X-4764Y226653D01*
X-4626Y226566D01*
X-4514Y226494D01*
X-4412Y226443D01*
X-4325Y226408D01*
X-4264Y226387D01*
X-4228Y226372D01*
X-4213Y226367D01*
X-4044Y226331D01*
X-3876Y226316D01*
X-3718Y226311D01*
X-3585Y226321D01*
X-3463Y226331D01*
X-3376Y226346D01*
X-3341Y226352D01*
X-3315Y226357D01*
X-3305D01*
X-3300Y226362D01*
X-3131Y226418D01*
X-2973Y226484D01*
X-2831Y226566D01*
X-2713Y226642D01*
X-2611Y226724D01*
X-2570Y226755D01*
X-2535Y226780D01*
X-2392Y226923D01*
X-2325Y227010D01*
X-2208Y227178D01*
X-2121Y227346D01*
X-2086Y227423D01*
X-2055Y227494D01*
X-2035Y227566D01*
X-2014Y227627D01*
X-1999Y227683D01*
X-1989Y227734D01*
X-1984Y227770D01*
X-1979Y227795D01*
X-1974Y227810D01*
Y227821D01*
X-1969Y227918D01*
Y228020D01*
X-1999Y228224D01*
X-2050Y228417D01*
X-2116Y228596D01*
X-2178Y228749D01*
X-2213Y228815D01*
X-2239Y228871D01*
X-2264Y228917D01*
X-2285Y228948D01*
X-2295Y228968D01*
X-2300Y228973D01*
X-2137Y228902D01*
X-1984Y228851D01*
X-1846Y228815D01*
X-1724Y228795D01*
X-1622Y228785D01*
X-1545Y228780D01*
X-1504D01*
X-1484D01*
X-1382Y228790D01*
X-1280Y228810D01*
X-1188Y228831D01*
X-1096Y228861D01*
X-928Y228938D01*
X-790Y229014D01*
X-678Y229096D01*
X-632Y229132D01*
X-591Y229162D01*
X-556Y229188D01*
X-535Y229208D01*
X-520Y229223D01*
X-515Y229228D01*
X-428Y229325D01*
X-351Y229422D01*
X-290Y229524D01*
X-234Y229621D01*
X-183Y229723D01*
X-148Y229820D01*
X-122Y229917D01*
X-97Y230004D01*
X-81Y230091D01*
X-71Y230172D01*
X-61Y230243D01*
X-56Y230300D01*
X-51Y230345D01*
Y230386D01*
Y230407D01*
Y230417D01*
X-61Y230550D01*
X-86Y230677D01*
X-122Y230805D01*
X-173Y230927D01*
X-224Y231049D01*
X-280Y231157D01*
X-408Y231366D01*
X-469Y231458D01*
X-530Y231539D01*
X-591Y231611D01*
X-642Y231672D01*
X-683Y231723D01*
X-3448Y234487D01*
D02*
G37*
%LPD*%
G36*
X-2305Y231458D02*
X-2193Y231335D01*
X-2111Y231223D01*
X-2050Y231131D01*
X-2004Y231044D01*
X-1984Y230973D01*
X-1963Y230922D01*
X-1958Y230886D01*
Y230876D01*
Y230784D01*
X-1979Y230703D01*
X-2004Y230626D01*
X-2040Y230560D01*
X-2076Y230504D01*
X-2106Y230463D01*
X-2132Y230437D01*
X-2142Y230427D01*
X-2224Y230356D01*
X-2305Y230305D01*
X-2387Y230264D01*
X-2458Y230243D01*
X-2519Y230233D01*
X-2570Y230223D01*
X-2601D01*
X-2611D01*
X-2703Y230243D01*
X-2805Y230284D01*
X-2907Y230345D01*
X-2994Y230412D01*
X-3075Y230473D01*
X-3137Y230524D01*
X-3820Y231208D01*
X-2938Y232090D01*
X-2305Y231458D01*
D02*
G37*
G36*
X-3912Y229524D02*
X-3851Y229453D01*
X-3754Y229325D01*
X-3687Y229218D01*
X-3631Y229121D01*
X-3601Y229040D01*
X-3585Y228984D01*
X-3575Y228943D01*
Y228933D01*
Y228831D01*
X-3596Y228739D01*
X-3621Y228652D01*
X-3657Y228586D01*
X-3693Y228530D01*
X-3718Y228484D01*
X-3744Y228458D01*
X-3754Y228448D01*
X-3841Y228372D01*
X-3927Y228326D01*
X-4009Y228285D01*
X-4090Y228264D01*
X-4157Y228249D01*
X-4213Y228244D01*
X-4254D01*
X-4264D01*
X-4315Y228254D01*
X-4371Y228270D01*
X-4483Y228321D01*
X-4595Y228382D01*
X-4697Y228453D01*
X-4784Y228519D01*
X-4820Y228555D01*
X-4855Y228581D01*
X-5651Y229376D01*
X-4708Y230320D01*
X-3912Y229524D01*
D02*
G37*
%LPC*%
G36*
X-27362Y234628D02*
X-30739Y231252D01*
X-29443Y229956D01*
X-27826Y231573D01*
X-27745Y231654D01*
X-27658Y231731D01*
X-27582Y231787D01*
X-27510Y231848D01*
X-27434Y231894D01*
X-27372Y231935D01*
X-27316Y231971D01*
X-27260Y231996D01*
X-27209Y232017D01*
X-27168Y232037D01*
X-27127Y232047D01*
X-27097Y232057D01*
X-27056Y232068D01*
X-27041Y232073D01*
X-26923Y232078D01*
X-26821Y232057D01*
X-26725Y232022D01*
X-26638Y231986D01*
X-26577Y231945D01*
X-26531Y231910D01*
X-26495Y231884D01*
X-26485Y231874D01*
X-26413Y231792D01*
X-26362Y231711D01*
X-26327Y231634D01*
X-26306Y231563D01*
X-26291Y231496D01*
X-26286Y231450D01*
Y231420D01*
Y231410D01*
X-26301Y231313D01*
X-26347Y231216D01*
X-26403Y231119D01*
X-26459Y231032D01*
X-26521Y230951D01*
X-26572Y230889D01*
X-26592Y230869D01*
X-26607Y230854D01*
X-26617Y230843D01*
X-26623Y230838D01*
X-28474Y228987D01*
X-27173Y227686D01*
X-25031Y229828D01*
X-24914Y229956D01*
X-24812Y230078D01*
X-24720Y230201D01*
X-24638Y230313D01*
X-24577Y230425D01*
X-24521Y230532D01*
X-24475Y230629D01*
X-24439Y230726D01*
X-24414Y230813D01*
X-24388Y230889D01*
X-24373Y230956D01*
X-24363Y231017D01*
X-24353Y231058D01*
X-24348Y231093D01*
Y231114D01*
Y231124D01*
X-24353Y231241D01*
X-24363Y231353D01*
X-24388Y231461D01*
X-24419Y231563D01*
X-24455Y231670D01*
X-24501Y231767D01*
X-24597Y231935D01*
X-24643Y232012D01*
X-24694Y232083D01*
X-24740Y232139D01*
X-24781Y232190D01*
X-24812Y232231D01*
X-24863Y232282D01*
X-25011Y232420D01*
X-25154Y232532D01*
X-25296Y232624D01*
X-25419Y232695D01*
X-25475Y232721D01*
X-25531Y232746D01*
X-25572Y232766D01*
X-25608Y232782D01*
X-25638Y232792D01*
X-25664Y232797D01*
X-25679Y232802D01*
X-25684Y232807D01*
X-25847Y232848D01*
X-26016Y232873D01*
X-26194Y232889D01*
X-26352Y232894D01*
X-26495Y232884D01*
X-26607D01*
X-26653Y232879D01*
X-26684D01*
X-26699Y232873D01*
X-26709D01*
X-26158Y233424D01*
X-27362Y234628D01*
D02*
G37*
G36*
X-16870Y225707D02*
X-16977Y225692D01*
X-17018D01*
X-17043Y225686D01*
X-17059Y225681D01*
X-17069D01*
X-17257Y225625D01*
X-17426Y225559D01*
X-17579Y225477D01*
X-17706Y225401D01*
X-17808Y225329D01*
X-17854Y225294D01*
X-17885Y225263D01*
X-17916Y225243D01*
X-17936Y225222D01*
X-17946Y225212D01*
X-17951Y225207D01*
X-18048Y225100D01*
X-18130Y224998D01*
X-18201Y224886D01*
X-18262Y224774D01*
X-18308Y224666D01*
X-18349Y224554D01*
X-18380Y224452D01*
X-18405Y224345D01*
X-18426Y224253D01*
X-18436Y224172D01*
X-18441Y224095D01*
X-18446Y224029D01*
X-18451Y223973D01*
Y223932D01*
Y223911D01*
Y223901D01*
X-18436Y223753D01*
X-18405Y223600D01*
X-18359Y223442D01*
X-18303Y223284D01*
X-18181Y222968D01*
X-18038Y222662D01*
X-17972Y222524D01*
X-17905Y222397D01*
X-17839Y222279D01*
X-17783Y222182D01*
X-17742Y222101D01*
X-17701Y222040D01*
X-17676Y222004D01*
Y221994D01*
X-17671Y221989D01*
X-17594Y221861D01*
X-17518Y221744D01*
X-17456Y221631D01*
X-17405Y221529D01*
X-17359Y221443D01*
X-17324Y221356D01*
X-17293Y221285D01*
X-17268Y221218D01*
X-17242Y221162D01*
X-17232Y221111D01*
X-17222Y221070D01*
X-17212Y221040D01*
X-17206Y221014D01*
Y220994D01*
X-17201Y220979D01*
X-17206Y220871D01*
X-17222Y220774D01*
X-17247Y220698D01*
X-17278Y220627D01*
X-17308Y220576D01*
X-17334Y220530D01*
X-17354Y220509D01*
X-17365Y220499D01*
X-17441Y220433D01*
X-17523Y220392D01*
X-17609Y220356D01*
X-17686Y220341D01*
X-17763Y220336D01*
X-17819Y220331D01*
X-17859D01*
X-17870D01*
X-17982Y220351D01*
X-18094Y220392D01*
X-18196Y220443D01*
X-18288Y220504D01*
X-18364Y220560D01*
X-18431Y220606D01*
X-18482Y220657D01*
X-18553Y220739D01*
X-18619Y220815D01*
X-18711Y220979D01*
X-18778Y221126D01*
X-18808Y221269D01*
X-18829Y221392D01*
X-18839Y221483D01*
X-18834Y221550D01*
Y221560D01*
Y221570D01*
X-18808Y221688D01*
X-18762Y221815D01*
X-18711Y221927D01*
X-18650Y222040D01*
X-18594Y222126D01*
X-18543Y222198D01*
X-18522Y222228D01*
X-18512Y222249D01*
X-18502Y222259D01*
X-18497Y222264D01*
X-19956Y223549D01*
X-20068Y223407D01*
X-20175Y223259D01*
X-20262Y223111D01*
X-20333Y222968D01*
X-20400Y222820D01*
X-20451Y222677D01*
X-20496Y222549D01*
X-20532Y222422D01*
X-20558Y222305D01*
X-20578Y222203D01*
X-20593Y222106D01*
X-20604Y222024D01*
X-20609Y221958D01*
X-20614Y221912D01*
Y221881D01*
Y221871D01*
X-20604Y221698D01*
X-20558Y221519D01*
X-20502Y221341D01*
X-20425Y221162D01*
X-20333Y220979D01*
X-20231Y220805D01*
X-20124Y220637D01*
X-20017Y220479D01*
X-19905Y220326D01*
X-19793Y220193D01*
X-19696Y220076D01*
X-19609Y219968D01*
X-19527Y219887D01*
X-19502Y219851D01*
X-19298Y219647D01*
X-19170Y219540D01*
X-19048Y219438D01*
X-18930Y219341D01*
X-18818Y219259D01*
X-18711Y219183D01*
X-18609Y219112D01*
X-18512Y219056D01*
X-18420Y219004D01*
X-18344Y218959D01*
X-18278Y218923D01*
X-18222Y218897D01*
X-18171Y218877D01*
X-18140Y218857D01*
X-18114Y218852D01*
X-18109Y218846D01*
X-17870Y218770D01*
X-17640Y218724D01*
X-17528Y218704D01*
X-17426Y218693D01*
X-17329Y218688D01*
X-17237D01*
X-17150Y218693D01*
X-17074Y218698D01*
X-17008Y218704D01*
X-16952Y218709D01*
X-16906Y218714D01*
X-16870Y218719D01*
X-16854Y218724D01*
X-16844D01*
X-16727Y218749D01*
X-16615Y218790D01*
X-16508Y218826D01*
X-16411Y218872D01*
X-16227Y218964D01*
X-16069Y219061D01*
X-16003Y219107D01*
X-15941Y219158D01*
X-15885Y219193D01*
X-15850Y219229D01*
X-15809Y219259D01*
X-15768Y219300D01*
X-15641Y219448D01*
X-15528Y219601D01*
X-15442Y219749D01*
X-15370Y219882D01*
X-15350Y219943D01*
X-15324Y219999D01*
X-15304Y220050D01*
X-15294Y220091D01*
X-15283Y220132D01*
X-15273Y220152D01*
Y220173D01*
X-15268Y220178D01*
X-15248Y220270D01*
X-15232Y220366D01*
X-15222Y220560D01*
X-15232Y220744D01*
X-15253Y220917D01*
X-15283Y221070D01*
X-15294Y221131D01*
X-15309Y221188D01*
X-15319Y221228D01*
X-15329Y221259D01*
X-15335Y221285D01*
X-15340Y221290D01*
X-15380Y221412D01*
X-15437Y221540D01*
X-15498Y221682D01*
X-15569Y221825D01*
X-15722Y222121D01*
X-15880Y222402D01*
X-15962Y222534D01*
X-16033Y222657D01*
X-16100Y222774D01*
X-16161Y222866D01*
X-16207Y222942D01*
X-16248Y223004D01*
X-16268Y223044D01*
X-16278Y223055D01*
X-16329Y223136D01*
X-16375Y223213D01*
X-16416Y223284D01*
X-16452Y223350D01*
X-16487Y223407D01*
X-16508Y223458D01*
X-16549Y223549D01*
X-16569Y223621D01*
X-16584Y223667D01*
X-16589Y223692D01*
Y223702D01*
Y223774D01*
X-16579Y223835D01*
X-16559Y223886D01*
X-16538Y223927D01*
X-16523Y223962D01*
X-16508Y223988D01*
X-16492Y224003D01*
X-16487Y224008D01*
X-16426Y224059D01*
X-16360Y224095D01*
X-16299Y224116D01*
X-16237Y224136D01*
X-16186Y224146D01*
X-16145D01*
X-16115D01*
X-16105D01*
X-16018Y224131D01*
X-15931Y224095D01*
X-15850Y224054D01*
X-15778Y224003D01*
X-15712Y223957D01*
X-15661Y223916D01*
X-15620Y223876D01*
X-15518Y223764D01*
X-15442Y223656D01*
X-15386Y223549D01*
X-15340Y223452D01*
X-15319Y223371D01*
X-15299Y223310D01*
Y223269D01*
X-15294Y223253D01*
Y223131D01*
X-15319Y223014D01*
X-15350Y222901D01*
X-15396Y222794D01*
X-15437Y222703D01*
X-15477Y222631D01*
X-15493Y222606D01*
X-15508Y222590D01*
X-15513Y222575D01*
X-15518Y222570D01*
X-14085Y221290D01*
X-13973Y221443D01*
X-13881Y221596D01*
X-13804Y221744D01*
X-13743Y221886D01*
X-13687Y222024D01*
X-13651Y222162D01*
X-13621Y222284D01*
X-13600Y222407D01*
X-13585Y222514D01*
X-13580Y222611D01*
X-13575Y222698D01*
Y222769D01*
X-13580Y222825D01*
X-13585Y222871D01*
X-13590Y222896D01*
Y222907D01*
X-13621Y223060D01*
X-13672Y223213D01*
X-13728Y223361D01*
X-13804Y223508D01*
X-13881Y223656D01*
X-13967Y223794D01*
X-14059Y223927D01*
X-14146Y224054D01*
X-14233Y224172D01*
X-14319Y224279D01*
X-14401Y224370D01*
X-14467Y224447D01*
X-14524Y224513D01*
X-14743Y224733D01*
X-14875Y224845D01*
X-14998Y224957D01*
X-15125Y225054D01*
X-15238Y225146D01*
X-15345Y225222D01*
X-15452Y225289D01*
X-15544Y225350D01*
X-15630Y225406D01*
X-15712Y225447D01*
X-15778Y225483D01*
X-15829Y225513D01*
X-15875Y225528D01*
X-15906Y225549D01*
X-15931Y225554D01*
X-15936Y225559D01*
X-16161Y225630D01*
X-16370Y225676D01*
X-16559Y225702D01*
X-16727Y225707D01*
X-16870D01*
D02*
G37*
G36*
X-21639Y231466D02*
X-26296Y226809D01*
X-24853Y225365D01*
X-22960Y227258D01*
X-22833Y227130D01*
X-22766Y227054D01*
X-22710Y226977D01*
X-22669Y226895D01*
X-22639Y226824D01*
X-22618Y226763D01*
X-22603Y226707D01*
X-22593Y226676D01*
Y226666D01*
X-22588Y226579D01*
X-22598Y226487D01*
X-22608Y226385D01*
X-22629Y226283D01*
X-22649Y226192D01*
X-22669Y226120D01*
X-22685Y226064D01*
Y226054D01*
X-22690Y226049D01*
X-23338Y223850D01*
X-21711Y222223D01*
X-21068Y224274D01*
X-21052Y224340D01*
X-21032Y224411D01*
X-21007Y224580D01*
X-20996Y224651D01*
X-20986Y224712D01*
Y224753D01*
X-20981Y224768D01*
X-20966Y224886D01*
X-20961Y224983D01*
Y225064D01*
X-20956Y225131D01*
Y225182D01*
X-20961Y225217D01*
X-20966Y225233D01*
Y225243D01*
X-20986Y225324D01*
X-21007Y225416D01*
X-21042Y225503D01*
X-21078Y225590D01*
X-21109Y225671D01*
X-21139Y225732D01*
X-21160Y225773D01*
Y225783D01*
X-21165Y225788D01*
X-21022Y225707D01*
X-20889Y225636D01*
X-20772Y225579D01*
X-20675Y225534D01*
X-20593Y225503D01*
X-20532Y225483D01*
X-20491Y225472D01*
X-20476Y225467D01*
X-20303Y225437D01*
X-20139Y225416D01*
X-19981Y225411D01*
X-19849Y225421D01*
X-19726Y225431D01*
X-19640Y225447D01*
X-19604Y225452D01*
X-19578Y225457D01*
X-19568D01*
X-19563Y225462D01*
X-19400Y225513D01*
X-19242Y225590D01*
X-19099Y225671D01*
X-18977Y225753D01*
X-18874Y225834D01*
X-18829Y225870D01*
X-18793Y225896D01*
X-18762Y225926D01*
X-18742Y225947D01*
X-18732Y225957D01*
X-18727Y225962D01*
X-18645Y226044D01*
X-18579Y226130D01*
X-18456Y226304D01*
X-18364Y226467D01*
X-18324Y226538D01*
X-18288Y226615D01*
X-18262Y226681D01*
X-18242Y226742D01*
X-18227Y226798D01*
X-18211Y226844D01*
X-18201Y226885D01*
X-18196Y226911D01*
X-18191Y226926D01*
Y226936D01*
X-18171Y227130D01*
Y227314D01*
X-18196Y227482D01*
X-18232Y227630D01*
X-18268Y227757D01*
X-18283Y227803D01*
X-18298Y227849D01*
X-18313Y227885D01*
X-18329Y227910D01*
X-18334Y227926D01*
X-18339Y227931D01*
X-18390Y228023D01*
X-18441Y228114D01*
X-18579Y228303D01*
X-18732Y228497D01*
X-18879Y228676D01*
X-18951Y228757D01*
X-19017Y228834D01*
X-19079Y228895D01*
X-19130Y228956D01*
X-21639Y231466D01*
D02*
G37*
G36*
X-12218Y222045D02*
X-13371Y220892D01*
X-11902Y219423D01*
X-15406Y215919D01*
X-13967Y214480D01*
X-10463Y217984D01*
X-8994Y216515D01*
X-7841Y217668D01*
X-12218Y222045D01*
D02*
G37*
%LPD*%
G36*
X-20430Y228380D02*
X-20369Y228308D01*
X-20313Y228242D01*
X-20267Y228176D01*
X-20231Y228120D01*
X-20196Y228064D01*
X-20145Y227972D01*
X-20109Y227895D01*
X-20094Y227839D01*
X-20083Y227798D01*
Y227788D01*
Y227686D01*
X-20104Y227594D01*
X-20134Y227513D01*
X-20175Y227441D01*
X-20211Y227375D01*
X-20247Y227329D01*
X-20272Y227304D01*
X-20277Y227298D01*
X-20282Y227293D01*
X-20343Y227242D01*
X-20405Y227201D01*
X-20466Y227171D01*
X-20522Y227145D01*
X-20568Y227130D01*
X-20609Y227120D01*
X-20634Y227115D01*
X-20644D01*
X-20716D01*
X-20792Y227120D01*
X-20848Y227135D01*
X-20910Y227156D01*
X-20956Y227171D01*
X-20991Y227186D01*
X-21017Y227201D01*
X-21022Y227207D01*
X-21139Y227283D01*
X-21236Y227349D01*
X-21318Y227411D01*
X-21374Y227456D01*
X-21420Y227492D01*
X-21450Y227513D01*
X-22078Y228140D01*
X-21134Y229084D01*
X-20430Y228380D01*
D02*
G37*
%LPC*%
G36*
X-191689Y-223213D02*
X-198855Y-230379D01*
X-194978Y-234256D01*
X-194915Y-234303D01*
X-194844Y-234374D01*
X-194758Y-234445D01*
X-194578Y-234594D01*
X-194397Y-234743D01*
X-194224Y-234884D01*
X-194146Y-234947D01*
X-194075Y-235002D01*
X-194020Y-235041D01*
X-193973Y-235072D01*
X-193942Y-235104D01*
X-193714Y-235269D01*
X-193502Y-235402D01*
X-193330Y-235512D01*
X-193173Y-235590D01*
X-193039Y-235645D01*
X-192945Y-235677D01*
X-192890Y-235700D01*
X-192867Y-235708D01*
X-192608Y-235763D01*
X-192349Y-235787D01*
X-192105Y-235795D01*
X-191901Y-235779D01*
X-191713Y-235763D01*
X-191579Y-235739D01*
X-191525Y-235732D01*
X-191485Y-235724D01*
X-191469D01*
X-191462Y-235716D01*
X-191203Y-235630D01*
X-190959Y-235528D01*
X-190740Y-235402D01*
X-190559Y-235284D01*
X-190402Y-235159D01*
X-190339Y-235112D01*
X-190284Y-235072D01*
X-190065Y-234853D01*
X-189963Y-234719D01*
X-189782Y-234460D01*
X-189649Y-234201D01*
X-189594Y-234083D01*
X-189547Y-233974D01*
X-189515Y-233864D01*
X-189484Y-233769D01*
X-189460Y-233683D01*
X-189445Y-233605D01*
X-189437Y-233550D01*
X-189429Y-233510D01*
X-189421Y-233487D01*
Y-233471D01*
X-189413Y-233322D01*
Y-233165D01*
X-189460Y-232851D01*
X-189539Y-232553D01*
X-189641Y-232278D01*
X-189735Y-232043D01*
X-189790Y-231941D01*
X-189829Y-231854D01*
X-189868Y-231784D01*
X-189900Y-231737D01*
X-189916Y-231705D01*
X-189923Y-231697D01*
X-189672Y-231807D01*
X-189437Y-231886D01*
X-189225Y-231941D01*
X-189037Y-231972D01*
X-188880Y-231988D01*
X-188762Y-231996D01*
X-188699D01*
X-188668D01*
X-188511Y-231980D01*
X-188354Y-231949D01*
X-188212Y-231917D01*
X-188071Y-231870D01*
X-187812Y-231752D01*
X-187600Y-231635D01*
X-187427Y-231509D01*
X-187357Y-231454D01*
X-187294Y-231407D01*
X-187239Y-231368D01*
X-187208Y-231336D01*
X-187184Y-231313D01*
X-187176Y-231305D01*
X-187043Y-231156D01*
X-186925Y-231007D01*
X-186831Y-230850D01*
X-186745Y-230701D01*
X-186666Y-230544D01*
X-186611Y-230394D01*
X-186572Y-230245D01*
X-186533Y-230112D01*
X-186509Y-229979D01*
X-186493Y-229853D01*
X-186478Y-229743D01*
X-186470Y-229657D01*
X-186462Y-229586D01*
Y-229523D01*
Y-229492D01*
Y-229476D01*
X-186478Y-229272D01*
X-186517Y-229076D01*
X-186572Y-228880D01*
X-186650Y-228691D01*
X-186729Y-228503D01*
X-186815Y-228338D01*
X-187012Y-228016D01*
X-187106Y-227875D01*
X-187200Y-227750D01*
X-187294Y-227640D01*
X-187372Y-227545D01*
X-187435Y-227467D01*
X-191689Y-223213D01*
D02*
G37*
G36*
X-186894Y-233440D02*
X-186925Y-233471D01*
D01*
X-186894Y-233440D01*
D02*
G37*
G36*
X-184060Y-232553D02*
X-184421Y-232569D01*
X-184782Y-232631D01*
X-185128Y-232726D01*
X-185465Y-232828D01*
X-185787Y-232961D01*
X-186093Y-233110D01*
X-186384Y-233275D01*
X-186643Y-233440D01*
X-186894Y-233597D01*
X-187113Y-233769D01*
X-187302Y-233911D01*
X-187467Y-234044D01*
X-187592Y-234154D01*
X-187647Y-234209D01*
X-187694Y-234240D01*
X-187773Y-234319D01*
X-187993Y-234554D01*
X-188197Y-234790D01*
X-188385Y-235025D01*
X-188550Y-235253D01*
X-188707Y-235473D01*
X-188832Y-235692D01*
X-188950Y-235889D01*
X-189044Y-236077D01*
X-189131Y-236257D01*
X-189209Y-236415D01*
X-189256Y-236556D01*
X-189311Y-236674D01*
X-189342Y-236768D01*
X-189366Y-236838D01*
X-189382Y-236886D01*
Y-236901D01*
X-189437Y-237145D01*
X-189476Y-237388D01*
X-189499Y-237631D01*
X-189515Y-237851D01*
Y-238071D01*
X-189507Y-238283D01*
X-189492Y-238471D01*
X-189468Y-238651D01*
X-189445Y-238816D01*
X-189421Y-238965D01*
X-189390Y-239091D01*
X-189374Y-239201D01*
X-189350Y-239287D01*
X-189327Y-239358D01*
X-189311Y-239389D01*
Y-239405D01*
X-189225Y-239632D01*
X-189123Y-239844D01*
X-189005Y-240072D01*
X-188880Y-240276D01*
X-188613Y-240684D01*
X-188471Y-240873D01*
X-188346Y-241045D01*
X-188212Y-241210D01*
X-188087Y-241351D01*
X-187977Y-241477D01*
X-187883Y-241587D01*
X-187804Y-241681D01*
X-187687Y-241799D01*
X-187459Y-242011D01*
X-187239Y-242215D01*
X-187019Y-242387D01*
X-186800Y-242544D01*
X-186595Y-242686D01*
X-186391Y-242811D01*
X-186203Y-242921D01*
X-186015Y-243015D01*
X-185850Y-243102D01*
X-185701Y-243172D01*
X-185567Y-243227D01*
X-185457Y-243274D01*
X-185363Y-243306D01*
X-185300Y-243321D01*
X-185261Y-243345D01*
X-185245D01*
X-185010Y-243408D01*
X-184782Y-243447D01*
X-184555Y-243471D01*
X-184335Y-243486D01*
X-184123Y-243494D01*
X-183919D01*
X-183723Y-243486D01*
X-183542Y-243463D01*
X-183370Y-243447D01*
X-183221Y-243424D01*
X-183095Y-243392D01*
X-182985Y-243376D01*
X-182899Y-243353D01*
X-182820Y-243337D01*
X-182789Y-243321D01*
X-182773D01*
X-182538Y-243243D01*
X-182310Y-243141D01*
X-182083Y-243023D01*
X-181863Y-242898D01*
X-181439Y-242631D01*
X-181250Y-242489D01*
X-181070Y-242356D01*
X-180897Y-242230D01*
X-180748Y-242097D01*
X-180615Y-241979D01*
X-180505Y-241885D01*
X-180403Y-241799D01*
X-180285Y-241681D01*
X-179979Y-241359D01*
X-179712Y-241030D01*
X-179477Y-240700D01*
X-179280Y-240378D01*
X-179116Y-240056D01*
X-178974Y-239758D01*
X-178864Y-239475D01*
X-178778Y-239201D01*
X-178708Y-238942D01*
X-178653Y-238714D01*
X-178613Y-238518D01*
X-178590Y-238337D01*
X-178582Y-238204D01*
X-178574Y-238102D01*
X-178566Y-238031D01*
Y-238016D01*
X-178582Y-237655D01*
X-178637Y-237301D01*
X-178731Y-236956D01*
X-178849Y-236619D01*
X-178982Y-236297D01*
X-179131Y-235991D01*
X-179296Y-235700D01*
X-179461Y-235426D01*
X-179626Y-235182D01*
X-179783Y-234963D01*
X-179940Y-234774D01*
X-180073Y-234609D01*
X-180191Y-234476D01*
X-180238Y-234413D01*
X-180356Y-234295D01*
X-180678Y-233989D01*
X-181015Y-233715D01*
X-181345Y-233495D01*
X-181667Y-233283D01*
X-181988Y-233118D01*
X-182294Y-232985D01*
X-182585Y-232867D01*
X-182859Y-232765D01*
X-183118Y-232694D01*
X-183346Y-232639D01*
X-183550Y-232608D01*
X-183723Y-232577D01*
X-183864Y-232561D01*
X-183974D01*
X-184045Y-232553D01*
X-184060D01*
D02*
G37*
G36*
X-175717Y-240896D02*
X-176078Y-240912D01*
X-176439Y-240975D01*
X-176785Y-241069D01*
X-177122Y-241171D01*
X-177444Y-241304D01*
X-177750Y-241453D01*
X-178040Y-241618D01*
X-178299Y-241783D01*
X-178550Y-241940D01*
X-178770Y-242113D01*
X-178959Y-242254D01*
X-179123Y-242387D01*
X-179249Y-242497D01*
X-179304Y-242552D01*
X-179351Y-242584D01*
X-179430Y-242662D01*
X-179649Y-242898D01*
X-179853Y-243133D01*
X-180042Y-243368D01*
X-180207Y-243596D01*
X-180364Y-243816D01*
X-180489Y-244036D01*
X-180607Y-244232D01*
X-180701Y-244420D01*
X-180787Y-244601D01*
X-180866Y-244758D01*
X-180913Y-244899D01*
X-180968Y-245017D01*
X-180999Y-245111D01*
X-181023Y-245182D01*
X-181039Y-245229D01*
Y-245244D01*
X-181094Y-245488D01*
X-181133Y-245731D01*
X-181156Y-245974D01*
X-181172Y-246194D01*
Y-246414D01*
X-181164Y-246626D01*
X-181148Y-246814D01*
X-181125Y-246995D01*
X-181101Y-247159D01*
X-181078Y-247309D01*
X-181046Y-247434D01*
X-181031Y-247544D01*
X-181007Y-247630D01*
X-180984Y-247701D01*
X-180968Y-247732D01*
Y-247748D01*
X-180882Y-247976D01*
X-180780Y-248188D01*
X-180662Y-248415D01*
X-180536Y-248619D01*
X-180269Y-249028D01*
X-180128Y-249216D01*
X-180002Y-249389D01*
X-179869Y-249553D01*
X-179743Y-249695D01*
X-179634Y-249820D01*
X-179540Y-249930D01*
X-179461Y-250024D01*
X-179343Y-250142D01*
X-179116Y-250354D01*
X-178896Y-250558D01*
X-178676Y-250731D01*
X-178456Y-250888D01*
X-178252Y-251029D01*
X-178048Y-251154D01*
X-177860Y-251264D01*
X-177672Y-251359D01*
X-177507Y-251445D01*
X-177358Y-251516D01*
X-177224Y-251570D01*
X-177114Y-251618D01*
X-177020Y-251649D01*
X-176957Y-251665D01*
X-176918Y-251688D01*
X-176902D01*
X-176667Y-251751D01*
X-176439Y-251790D01*
X-176212Y-251814D01*
X-175992Y-251829D01*
X-175780Y-251837D01*
X-175576D01*
X-175380Y-251829D01*
X-175199Y-251806D01*
X-175026Y-251790D01*
X-174877Y-251767D01*
X-174752Y-251735D01*
X-174642Y-251720D01*
X-174555Y-251696D01*
X-174477Y-251680D01*
X-174446Y-251665D01*
X-174430D01*
X-174195Y-251586D01*
X-173967Y-251484D01*
X-173739Y-251366D01*
X-173519Y-251241D01*
X-173096Y-250974D01*
X-172907Y-250833D01*
X-172727Y-250699D01*
X-172554Y-250574D01*
X-172405Y-250440D01*
X-172271Y-250322D01*
X-172162Y-250228D01*
X-172060Y-250142D01*
X-171942Y-250024D01*
X-171636Y-249702D01*
X-171369Y-249373D01*
X-171133Y-249043D01*
X-170937Y-248721D01*
X-170772Y-248400D01*
X-170631Y-248101D01*
X-170521Y-247819D01*
X-170435Y-247544D01*
X-170364Y-247285D01*
X-170309Y-247057D01*
X-170270Y-246861D01*
X-170247Y-246681D01*
X-170239Y-246547D01*
X-170231Y-246445D01*
X-170223Y-246375D01*
Y-246359D01*
X-170239Y-245998D01*
X-170294Y-245645D01*
X-170388Y-245299D01*
X-170506Y-244962D01*
X-170639Y-244640D01*
X-170788Y-244334D01*
X-170953Y-244044D01*
X-171118Y-243769D01*
X-171283Y-243526D01*
X-171440Y-243306D01*
X-171597Y-243117D01*
X-171730Y-242952D01*
X-171848Y-242819D01*
X-171895Y-242756D01*
X-172013Y-242639D01*
X-172334Y-242332D01*
X-172672Y-242058D01*
X-173001Y-241838D01*
X-173323Y-241626D01*
X-173645Y-241461D01*
X-173951Y-241328D01*
X-174242Y-241210D01*
X-174516Y-241108D01*
X-174775Y-241037D01*
X-175003Y-240982D01*
X-175207Y-240951D01*
X-175380Y-240920D01*
X-175521Y-240904D01*
X-175631D01*
X-175701Y-240896D01*
X-175717D01*
D02*
G37*
G36*
X-167719Y-247183D02*
X-169493Y-248957D01*
X-167233Y-251217D01*
X-172625Y-256609D01*
X-170411Y-258823D01*
X-165019Y-253431D01*
X-162759Y-255691D01*
X-160985Y-253917D01*
X-167719Y-247183D01*
D02*
G37*
%LPD*%
G36*
X-189931Y-227875D02*
X-189758Y-228064D01*
X-189633Y-228236D01*
X-189539Y-228377D01*
X-189468Y-228511D01*
X-189437Y-228621D01*
X-189405Y-228699D01*
X-189398Y-228754D01*
Y-228770D01*
Y-228911D01*
X-189429Y-229037D01*
X-189468Y-229154D01*
X-189523Y-229256D01*
X-189578Y-229343D01*
X-189625Y-229406D01*
X-189664Y-229445D01*
X-189680Y-229461D01*
X-189806Y-229570D01*
X-189931Y-229649D01*
X-190057Y-229712D01*
X-190167Y-229743D01*
X-190261Y-229759D01*
X-190339Y-229774D01*
X-190386D01*
X-190402D01*
X-190543Y-229743D01*
X-190700Y-229680D01*
X-190857Y-229586D01*
X-190991Y-229484D01*
X-191116Y-229390D01*
X-191210Y-229311D01*
X-192262Y-228260D01*
X-190904Y-226902D01*
X-189931Y-227875D01*
D02*
G37*
G36*
X-192404Y-230850D02*
X-192309Y-230960D01*
X-192160Y-231156D01*
X-192058Y-231321D01*
X-191972Y-231470D01*
X-191925Y-231595D01*
X-191901Y-231682D01*
X-191886Y-231744D01*
Y-231760D01*
Y-231917D01*
X-191917Y-232059D01*
X-191956Y-232192D01*
X-192011Y-232294D01*
X-192066Y-232380D01*
X-192105Y-232451D01*
X-192145Y-232490D01*
X-192160Y-232506D01*
X-192294Y-232624D01*
X-192427Y-232694D01*
X-192553Y-232757D01*
X-192678Y-232788D01*
X-192780Y-232812D01*
X-192867Y-232820D01*
X-192929D01*
X-192945D01*
X-193024Y-232804D01*
X-193110Y-232781D01*
X-193283Y-232702D01*
X-193455Y-232608D01*
X-193612Y-232498D01*
X-193746Y-232396D01*
X-193801Y-232341D01*
X-193856Y-232302D01*
X-195080Y-231077D01*
X-193628Y-229625D01*
X-192404Y-230850D01*
D02*
G37*
G36*
X-183276Y-235378D02*
X-183126Y-235402D01*
X-182985Y-235433D01*
X-182844Y-235480D01*
X-182718Y-235528D01*
X-182491Y-235645D01*
X-182302Y-235755D01*
X-182224Y-235818D01*
X-182161Y-235865D01*
X-182106Y-235904D01*
X-182043Y-235967D01*
X-181926Y-236101D01*
X-181816Y-236242D01*
X-181729Y-236375D01*
X-181643Y-236509D01*
X-181533Y-236776D01*
X-181494Y-236893D01*
X-181462Y-237019D01*
X-181447Y-237129D01*
X-181423Y-237231D01*
X-181415Y-237317D01*
X-181408Y-237404D01*
X-181400Y-237458D01*
Y-237505D01*
X-181408Y-237529D01*
Y-237545D01*
X-181431Y-237710D01*
X-181462Y-237882D01*
X-181525Y-238055D01*
X-181596Y-238220D01*
X-181768Y-238534D01*
X-181965Y-238824D01*
X-182051Y-238958D01*
X-182153Y-239075D01*
X-182239Y-239177D01*
X-182318Y-239272D01*
X-182381Y-239350D01*
X-182428Y-239397D01*
X-182467Y-239436D01*
X-182475Y-239444D01*
X-182703Y-239656D01*
X-182907Y-239844D01*
X-183111Y-240001D01*
X-183307Y-240151D01*
X-183487Y-240268D01*
X-183652Y-240370D01*
X-183809Y-240464D01*
X-183951Y-240527D01*
X-184084Y-240582D01*
X-184194Y-240629D01*
X-184296Y-240669D01*
X-184374Y-240684D01*
X-184445Y-240708D01*
X-184492D01*
X-184516Y-240716D01*
X-184531D01*
X-184688D01*
X-184837Y-240708D01*
X-184994Y-240676D01*
X-185136Y-240645D01*
X-185277Y-240598D01*
X-185410Y-240543D01*
X-185638Y-240425D01*
X-185834Y-240292D01*
X-185905Y-240237D01*
X-185975Y-240182D01*
X-186030Y-240143D01*
X-186101Y-240072D01*
X-186219Y-239939D01*
X-186329Y-239797D01*
X-186415Y-239664D01*
X-186493Y-239538D01*
X-186556Y-239397D01*
X-186603Y-239272D01*
X-186650Y-239146D01*
X-186674Y-239028D01*
X-186698Y-238910D01*
X-186713Y-238816D01*
X-186721Y-238730D01*
X-186729Y-238644D01*
X-186737Y-238589D01*
Y-238542D01*
X-186729Y-238518D01*
Y-238502D01*
X-186705Y-238337D01*
X-186658Y-238165D01*
X-186595Y-237992D01*
X-186517Y-237835D01*
X-186336Y-237498D01*
X-186125Y-237192D01*
X-186022Y-237058D01*
X-185913Y-236933D01*
X-185818Y-236823D01*
X-185740Y-236728D01*
X-185669Y-236642D01*
X-185614Y-236587D01*
X-185583Y-236556D01*
X-185567Y-236540D01*
X-185363Y-236352D01*
X-185167Y-236171D01*
X-184979Y-236030D01*
X-184798Y-235896D01*
X-184625Y-235787D01*
X-184461Y-235685D01*
X-184304Y-235606D01*
X-184162Y-235543D01*
X-184045Y-235488D01*
X-183927Y-235449D01*
X-183833Y-235418D01*
X-183754Y-235402D01*
X-183684Y-235378D01*
X-183636D01*
X-183613Y-235371D01*
X-183597D01*
X-183432Y-235363D01*
X-183276Y-235378D01*
D02*
G37*
G36*
X-174932Y-243722D02*
X-174783Y-243745D01*
X-174642Y-243777D01*
X-174501Y-243824D01*
X-174375Y-243871D01*
X-174147Y-243989D01*
X-173959Y-244098D01*
X-173881Y-244161D01*
X-173818Y-244208D01*
X-173763Y-244248D01*
X-173700Y-244310D01*
X-173582Y-244444D01*
X-173472Y-244585D01*
X-173386Y-244718D01*
X-173300Y-244852D01*
X-173190Y-245119D01*
X-173151Y-245236D01*
X-173119Y-245362D01*
X-173104Y-245472D01*
X-173080Y-245574D01*
X-173072Y-245660D01*
X-173064Y-245747D01*
X-173056Y-245802D01*
Y-245849D01*
X-173064Y-245872D01*
Y-245888D01*
X-173088Y-246053D01*
X-173119Y-246225D01*
X-173182Y-246398D01*
X-173253Y-246563D01*
X-173425Y-246877D01*
X-173622Y-247167D01*
X-173708Y-247301D01*
X-173810Y-247418D01*
X-173896Y-247521D01*
X-173975Y-247615D01*
X-174037Y-247693D01*
X-174085Y-247740D01*
X-174124Y-247780D01*
X-174132Y-247787D01*
X-174359Y-247999D01*
X-174563Y-248188D01*
X-174767Y-248345D01*
X-174964Y-248494D01*
X-175144Y-248612D01*
X-175309Y-248713D01*
X-175466Y-248808D01*
X-175607Y-248871D01*
X-175741Y-248925D01*
X-175851Y-248972D01*
X-175953Y-249012D01*
X-176031Y-249028D01*
X-176102Y-249051D01*
X-176149D01*
X-176172Y-249059D01*
X-176188D01*
X-176345D01*
X-176494Y-249051D01*
X-176651Y-249020D01*
X-176792Y-248988D01*
X-176934Y-248941D01*
X-177067Y-248886D01*
X-177295Y-248768D01*
X-177491Y-248635D01*
X-177562Y-248580D01*
X-177632Y-248525D01*
X-177687Y-248486D01*
X-177758Y-248415D01*
X-177875Y-248282D01*
X-177985Y-248141D01*
X-178072Y-248007D01*
X-178150Y-247882D01*
X-178213Y-247740D01*
X-178260Y-247615D01*
X-178307Y-247489D01*
X-178331Y-247371D01*
X-178354Y-247254D01*
X-178370Y-247159D01*
X-178378Y-247073D01*
X-178386Y-246987D01*
X-178393Y-246932D01*
Y-246885D01*
X-178386Y-246861D01*
Y-246845D01*
X-178362Y-246681D01*
X-178315Y-246508D01*
X-178252Y-246335D01*
X-178174Y-246178D01*
X-177993Y-245841D01*
X-177781Y-245535D01*
X-177679Y-245401D01*
X-177569Y-245276D01*
X-177475Y-245166D01*
X-177397Y-245072D01*
X-177326Y-244985D01*
X-177271Y-244930D01*
X-177240Y-244899D01*
X-177224Y-244883D01*
X-177020Y-244695D01*
X-176824Y-244514D01*
X-176635Y-244373D01*
X-176455Y-244240D01*
X-176282Y-244130D01*
X-176117Y-244028D01*
X-175960Y-243949D01*
X-175819Y-243887D01*
X-175701Y-243832D01*
X-175584Y-243792D01*
X-175490Y-243761D01*
X-175411Y-243745D01*
X-175340Y-243722D01*
X-175293D01*
X-175270Y-243714D01*
X-175254D01*
X-175089Y-243706D01*
X-174932Y-243722D01*
D02*
G37*
%LPC*%
G36*
X57703Y271594D02*
X57565Y271589D01*
X57438Y271583D01*
X57315Y271573D01*
X57208Y271558D01*
X57116Y271548D01*
X57035Y271527D01*
X56974Y271517D01*
X56923Y271507D01*
X56892Y271497D01*
X56882D01*
X56719Y271446D01*
X56560Y271380D01*
X56407Y271308D01*
X56259Y271231D01*
X56117Y271150D01*
X55979Y271063D01*
X55857Y270982D01*
X55739Y270895D01*
X55627Y270813D01*
X55530Y270737D01*
X55448Y270665D01*
X55377Y270604D01*
X55321Y270558D01*
X55244Y270482D01*
X55117Y270344D01*
X54989Y270206D01*
X54882Y270069D01*
X54785Y269931D01*
X54694Y269798D01*
X54612Y269666D01*
X54541Y269543D01*
X54474Y269426D01*
X54418Y269319D01*
X54367Y269217D01*
X54331Y269130D01*
X54296Y269053D01*
X54275Y268992D01*
X54260Y268946D01*
X54245Y268921D01*
Y268911D01*
X54199Y268753D01*
X54163Y268594D01*
X54138Y268447D01*
X54122Y268299D01*
X54112Y268156D01*
Y268013D01*
X54117Y267885D01*
X54122Y267768D01*
X54138Y267661D01*
X54148Y267559D01*
X54163Y267472D01*
X54173Y267401D01*
X54189Y267345D01*
X54204Y267299D01*
X54209Y267273D01*
Y267263D01*
X54260Y267110D01*
X54326Y266962D01*
X54403Y266814D01*
X54479Y266666D01*
X54653Y266391D01*
X54750Y266263D01*
X54841Y266141D01*
X54928Y266034D01*
X55010Y265932D01*
X55086Y265845D01*
X55153Y265769D01*
X55204Y265707D01*
X55408Y265503D01*
X55535Y265386D01*
X55658Y265284D01*
X55775Y265187D01*
X55887Y265095D01*
X55999Y265014D01*
X56101Y264932D01*
X56198Y264866D01*
X56285Y264810D01*
X56367Y264759D01*
X56433Y264713D01*
X56489Y264677D01*
X56535Y264652D01*
X56576Y264631D01*
X56596Y264621D01*
X56601Y264616D01*
X56724Y264555D01*
X56861Y264499D01*
X57142Y264391D01*
X57433Y264305D01*
X57570Y264259D01*
X57708Y264223D01*
X57836Y264187D01*
X57953Y264162D01*
X58060Y264136D01*
X58152Y264116D01*
X58228Y264101D01*
X58279Y264090D01*
X58320Y264080D01*
X58330D01*
X60320Y266070D01*
X58096Y268293D01*
X57127Y267324D01*
X58091Y266360D01*
X57647Y265917D01*
X57489Y265962D01*
X57341Y266008D01*
X57213Y266054D01*
X57106Y266090D01*
X57020Y266126D01*
X56958Y266156D01*
X56918Y266177D01*
X56907D01*
X56902Y266182D01*
X56800Y266243D01*
X56703Y266309D01*
X56611Y266371D01*
X56535Y266437D01*
X56469Y266493D01*
X56418Y266534D01*
X56377Y266574D01*
X56290Y266672D01*
X56214Y266768D01*
X56147Y266865D01*
X56086Y266967D01*
X56045Y267059D01*
X56005Y267151D01*
X55974Y267243D01*
X55953Y267324D01*
X55928Y267401D01*
X55918Y267472D01*
X55908Y267533D01*
X55903Y267590D01*
Y267630D01*
Y267661D01*
Y267681D01*
Y267692D01*
X55918Y267809D01*
X55953Y267926D01*
X55994Y268039D01*
X56045Y268161D01*
X56173Y268390D01*
X56321Y268599D01*
X56392Y268691D01*
X56463Y268783D01*
X56530Y268860D01*
X56586Y268926D01*
X56632Y268982D01*
X56673Y269023D01*
X56693Y269043D01*
X56703Y269053D01*
X56836Y269176D01*
X56963Y269293D01*
X57091Y269390D01*
X57213Y269472D01*
X57326Y269543D01*
X57433Y269610D01*
X57535Y269660D01*
X57637Y269701D01*
X57718Y269732D01*
X57795Y269757D01*
X57861Y269783D01*
X57917Y269798D01*
X57963Y269803D01*
X57999Y269808D01*
X58014Y269813D01*
X58024D01*
X58137D01*
X58244Y269808D01*
X58351Y269793D01*
X58453Y269773D01*
X58550Y269737D01*
X58636Y269701D01*
X58800Y269620D01*
X58871Y269579D01*
X58932Y269538D01*
X58983Y269497D01*
X59029Y269462D01*
X59065Y269436D01*
X59111Y269390D01*
X59218Y269273D01*
X59305Y269156D01*
X59371Y269038D01*
X59417Y268941D01*
X59453Y268855D01*
X59473Y268783D01*
X59483Y268742D01*
X59488Y268727D01*
X59504Y268599D01*
X59499Y268472D01*
X59483Y268355D01*
X59463Y268253D01*
X59437Y268166D01*
X59412Y268090D01*
X59391Y268049D01*
Y268039D01*
X59386Y268033D01*
X61019Y266891D01*
X61131Y267105D01*
X61212Y267309D01*
X61274Y267503D01*
X61299Y267590D01*
X61319Y267671D01*
X61335Y267748D01*
X61350Y267814D01*
X61360Y267875D01*
X61371Y267926D01*
X61376Y267962D01*
Y267993D01*
X61381Y268008D01*
Y268018D01*
Y268222D01*
X61365Y268421D01*
X61335Y268594D01*
X61294Y268758D01*
X61248Y268895D01*
X61233Y268951D01*
X61217Y268997D01*
X61197Y269038D01*
X61187Y269069D01*
X61182Y269084D01*
X61177Y269089D01*
X61126Y269191D01*
X61064Y269293D01*
X60993Y269405D01*
X60917Y269513D01*
X60753Y269727D01*
X60585Y269936D01*
X60503Y270028D01*
X60427Y270114D01*
X60350Y270191D01*
X60294Y270257D01*
X60019Y270533D01*
X59871Y270660D01*
X59733Y270778D01*
X59595Y270885D01*
X59463Y270987D01*
X59340Y271068D01*
X59223Y271145D01*
X59116Y271211D01*
X59014Y271262D01*
X58927Y271308D01*
X58846Y271349D01*
X58784Y271380D01*
X58733Y271400D01*
X58693Y271420D01*
X58672Y271430D01*
X58662D01*
X58494Y271487D01*
X58325Y271522D01*
X58162Y271553D01*
X58009Y271573D01*
X57851Y271589D01*
X57703Y271594D01*
D02*
G37*
G36*
X63181Y267207D02*
X58524Y262550D01*
X59876Y261198D01*
X62442Y263764D01*
X61625Y259449D01*
X62982Y258092D01*
X67639Y262749D01*
X66283Y264106D01*
X63702Y261525D01*
X64523Y265865D01*
X63181Y267207D01*
D02*
G37*
G36*
X68614Y261775D02*
X63957Y257118D01*
X66094Y254980D01*
X66247Y254838D01*
X66410Y254705D01*
X66578Y254578D01*
X66731Y254465D01*
X66798Y254419D01*
X66864Y254373D01*
X66920Y254338D01*
X66971Y254307D01*
X67017Y254282D01*
X67048Y254261D01*
X67068Y254251D01*
X67073Y254246D01*
X67242Y254159D01*
X67420Y254093D01*
X67588Y254047D01*
X67747Y254011D01*
X67884Y253986D01*
X67940Y253981D01*
X67991Y253971D01*
X68032D01*
X68063D01*
X68078Y253965D01*
X68088D01*
X68308Y253971D01*
X68517Y253986D01*
X68716Y254021D01*
X68894Y254067D01*
X69042Y254113D01*
X69108Y254129D01*
X69159Y254149D01*
X69200Y254159D01*
X69226Y254174D01*
X69251Y254180D01*
X69256Y254185D01*
X69369Y254236D01*
X69481Y254297D01*
X69715Y254440D01*
X69935Y254598D01*
X70144Y254766D01*
X70236Y254848D01*
X70322Y254924D01*
X70399Y254991D01*
X70465Y255047D01*
X70588Y255169D01*
X70761Y255353D01*
X70909Y255531D01*
X71047Y255700D01*
X71108Y255781D01*
X71164Y255858D01*
X71205Y255929D01*
X71251Y255996D01*
X71286Y256052D01*
X71322Y256098D01*
X71343Y256138D01*
X71358Y256164D01*
X71368Y256184D01*
X71373Y256189D01*
X71480Y256388D01*
X71567Y256587D01*
X71633Y256776D01*
X71679Y256944D01*
X71694Y257021D01*
X71715Y257092D01*
X71725Y257153D01*
X71735Y257204D01*
X71746Y257245D01*
Y257276D01*
X71751Y257291D01*
Y257301D01*
X71761Y257516D01*
X71756Y257725D01*
X71730Y257913D01*
X71700Y258087D01*
X71664Y258235D01*
X71644Y258296D01*
X71633Y258347D01*
X71613Y258388D01*
X71603Y258418D01*
Y258439D01*
X71598Y258444D01*
X71552Y258551D01*
X71501Y258653D01*
X71378Y258867D01*
X71235Y259071D01*
X71098Y259250D01*
X71026Y259331D01*
X70960Y259408D01*
X70904Y259474D01*
X70858Y259530D01*
X68614Y261775D01*
D02*
G37*
%LPD*%
G36*
X69353Y258923D02*
X69450Y258816D01*
X69537Y258719D01*
X69608Y258617D01*
X69675Y258520D01*
X69726Y258429D01*
X69766Y258337D01*
X69802Y258250D01*
X69828Y258174D01*
X69848Y258102D01*
X69863Y258036D01*
X69879Y257980D01*
Y257929D01*
X69884Y257893D01*
Y257862D01*
Y257852D01*
Y257842D01*
X69868Y257745D01*
X69843Y257638D01*
X69802Y257536D01*
X69751Y257424D01*
X69624Y257215D01*
X69486Y257016D01*
X69419Y256929D01*
X69353Y256842D01*
X69287Y256766D01*
X69231Y256710D01*
X69185Y256653D01*
X69144Y256613D01*
X69124Y256592D01*
X69113Y256582D01*
X69012Y256480D01*
X68914Y256393D01*
X68823Y256312D01*
X68736Y256235D01*
X68654Y256174D01*
X68578Y256118D01*
X68512Y256072D01*
X68445Y256026D01*
X68389Y255990D01*
X68338Y255960D01*
X68297Y255939D01*
X68257Y255919D01*
X68231Y255904D01*
X68211Y255893D01*
X68200D01*
X68195Y255888D01*
X68063Y255848D01*
X67945Y255822D01*
X67833Y255812D01*
X67736Y255807D01*
X67655Y255817D01*
X67593Y255827D01*
X67558Y255832D01*
X67542Y255837D01*
X67491Y255858D01*
X67430Y255888D01*
X67308Y255960D01*
X67185Y256052D01*
X67063Y256143D01*
X66961Y256235D01*
X66920Y256276D01*
X66879Y256307D01*
X66451Y256735D01*
X68996Y259280D01*
X69353Y258923D01*
D02*
G37*
%LPC*%
G36*
X189768Y-183744D02*
X184113Y-189400D01*
X178457Y-183744D01*
X173721Y-188481D01*
X179376Y-194136D01*
X173744Y-199768D01*
X178481Y-204504D01*
X184113Y-198873D01*
X189744Y-204504D01*
X194481Y-199768D01*
X188849Y-194136D01*
X194504Y-188481D01*
X189768Y-183744D01*
D02*
G37*
G36*
X-59525Y284365D02*
X-60678Y283212D01*
X-59209Y281743D01*
X-62713Y278239D01*
X-61275Y276800D01*
X-57771Y280304D01*
X-56302Y278835D01*
X-55149Y279988D01*
X-59525Y284365D01*
D02*
G37*
G36*
X-54812Y279651D02*
X-55588Y275958D01*
X-59617Y275142D01*
X-58011Y273536D01*
X-55598Y274112D01*
X-56169Y271694D01*
X-54552Y270077D01*
X-53746Y274066D01*
X-50033Y274872D01*
X-51604Y276443D01*
X-53838Y275811D01*
X-53226Y278065D01*
X-54812Y279651D01*
D02*
G37*
G36*
X-5522Y335720D02*
X-8440Y333619D01*
X-7496Y332359D01*
X-7379Y332364D01*
X-7277D01*
X-7185Y332354D01*
X-7114Y332344D01*
X-7053Y332333D01*
X-7007Y332318D01*
X-6981Y332313D01*
X-6971D01*
X-6874Y332277D01*
X-6787Y332242D01*
X-6711Y332196D01*
X-6640Y332155D01*
X-6583Y332109D01*
X-6543Y332078D01*
X-6512Y332048D01*
X-6415Y331931D01*
X-6344Y331818D01*
X-6293Y331706D01*
X-6262Y331604D01*
X-6242Y331512D01*
X-6231Y331441D01*
Y331400D01*
Y331380D01*
X-6242Y331308D01*
X-6252Y331237D01*
X-6308Y331099D01*
X-6379Y330966D01*
X-6451Y330844D01*
X-6532Y330742D01*
X-6568Y330696D01*
X-6604Y330660D01*
X-6624Y330630D01*
X-6645Y330609D01*
X-6660Y330594D01*
X-6665Y330589D01*
X-6813Y330451D01*
X-6956Y330349D01*
X-7088Y330278D01*
X-7206Y330222D01*
X-7308Y330191D01*
X-7379Y330171D01*
X-7430Y330161D01*
X-7451D01*
X-7588Y330166D01*
X-7711Y330186D01*
X-7823Y330227D01*
X-7920Y330273D01*
X-7996Y330319D01*
X-8047Y330359D01*
X-8073Y330375D01*
X-8098Y330400D01*
X-8180Y330492D01*
X-8241Y330594D01*
X-8287Y330691D01*
X-8318Y330783D01*
X-8338Y330864D01*
X-8348Y330926D01*
Y330966D01*
X-8353Y330982D01*
X-8348Y331109D01*
X-8318Y331232D01*
X-8277Y331354D01*
X-8226Y331456D01*
X-8175Y331548D01*
X-8134Y331619D01*
X-8119Y331645D01*
X-8109Y331665D01*
X-8098Y331675D01*
X-8093Y331681D01*
X-9552Y332844D01*
X-9634Y332691D01*
X-9700Y332543D01*
X-9756Y332415D01*
X-9792Y332298D01*
X-9827Y332201D01*
X-9848Y332130D01*
X-9858Y332078D01*
Y332068D01*
X-9863Y332063D01*
X-9889Y331925D01*
X-9899Y331793D01*
X-9904Y331665D01*
Y331543D01*
X-9899Y331446D01*
X-9889Y331364D01*
X-9884Y331318D01*
Y331298D01*
X-9853Y331145D01*
X-9807Y330997D01*
X-9761Y330859D01*
X-9710Y330737D01*
X-9664Y330630D01*
X-9639Y330584D01*
X-9624Y330548D01*
X-9603Y330518D01*
X-9593Y330497D01*
X-9588Y330482D01*
X-9583Y330477D01*
X-9486Y330319D01*
X-9373Y330166D01*
X-9256Y330018D01*
X-9139Y329880D01*
X-9088Y329819D01*
X-8991Y329722D01*
X-8955Y329676D01*
X-8879Y329599D01*
X-8756Y329487D01*
X-8639Y329380D01*
X-8527Y329288D01*
X-8410Y329202D01*
X-8302Y329125D01*
X-8200Y329054D01*
X-8098Y328993D01*
X-8007Y328941D01*
X-7920Y328896D01*
X-7843Y328860D01*
X-7782Y328829D01*
X-7726Y328804D01*
X-7675Y328783D01*
X-7644Y328773D01*
X-7619Y328768D01*
X-7614Y328763D01*
X-7374Y328707D01*
X-7145Y328681D01*
X-6935Y328676D01*
X-6736Y328691D01*
X-6573Y328712D01*
X-6507Y328727D01*
X-6446Y328737D01*
X-6405Y328748D01*
X-6369Y328753D01*
X-6344Y328758D01*
X-6338Y328763D01*
X-6221Y328799D01*
X-6104Y328845D01*
X-5900Y328947D01*
X-5711Y329054D01*
X-5548Y329156D01*
X-5487Y329207D01*
X-5420Y329253D01*
X-5369Y329293D01*
X-5329Y329334D01*
X-5293Y329360D01*
X-5247Y329406D01*
X-5135Y329528D01*
X-5038Y329656D01*
X-4951Y329783D01*
X-4875Y329911D01*
X-4818Y330038D01*
X-4762Y330166D01*
X-4727Y330283D01*
X-4691Y330400D01*
X-4665Y330507D01*
X-4650Y330604D01*
X-4635Y330691D01*
X-4630Y330768D01*
X-4620Y330829D01*
Y330869D01*
Y330900D01*
Y330910D01*
X-4625Y331068D01*
X-4655Y331222D01*
X-4686Y331375D01*
X-4737Y331517D01*
X-4788Y331650D01*
X-4849Y331783D01*
X-4915Y331900D01*
X-4977Y332012D01*
X-5043Y332109D01*
X-5104Y332201D01*
X-5171Y332277D01*
X-5216Y332344D01*
X-5267Y332395D01*
X-5298Y332435D01*
X-5329Y332466D01*
X-5492Y332609D01*
X-5563Y332670D01*
X-5640Y332726D01*
X-5706Y332772D01*
X-5752Y332808D01*
X-5788Y332823D01*
X-5798Y332833D01*
X-5997Y332940D01*
X-6099Y332991D01*
X-6186Y333027D01*
X-6262Y333063D01*
X-6328Y333088D01*
X-6364Y333104D01*
X-6374D01*
X-6379Y333109D01*
X-5568Y333695D01*
X-3487Y331614D01*
X-2452Y332650D01*
X-5522Y335720D01*
D02*
G37*
G36*
X-1952Y332150D02*
X-4854Y325738D01*
X-3293Y324177D01*
X3098Y327100D01*
X1634Y328564D01*
X-2758Y326243D01*
X-447Y330645D01*
X-1952Y332150D01*
D02*
G37*
G36*
X35744Y294644D02*
X34592Y293491D01*
X36061Y292022D01*
X32556Y288518D01*
X33995Y287079D01*
X37499Y290584D01*
X38968Y289114D01*
X40121Y290267D01*
X35744Y294644D01*
D02*
G37*
G36*
X46645Y282754D02*
X46538Y282739D01*
X46497D01*
X46471Y282733D01*
X46456Y282728D01*
X46446D01*
X46257Y282672D01*
X46089Y282606D01*
X45936Y282524D01*
X45808Y282448D01*
X45706Y282376D01*
X45660Y282341D01*
X45630Y282310D01*
X45599Y282290D01*
X45579Y282269D01*
X45568Y282259D01*
X45563Y282254D01*
X45466Y282147D01*
X45385Y282045D01*
X45313Y281933D01*
X45252Y281820D01*
X45206Y281713D01*
X45166Y281601D01*
X45135Y281499D01*
X45109Y281392D01*
X45089Y281300D01*
X45079Y281218D01*
X45074Y281142D01*
X45069Y281076D01*
X45064Y281020D01*
Y280979D01*
Y280958D01*
Y280948D01*
X45079Y280800D01*
X45109Y280647D01*
X45155Y280489D01*
X45211Y280331D01*
X45334Y280015D01*
X45477Y279709D01*
X45543Y279571D01*
X45609Y279443D01*
X45676Y279326D01*
X45732Y279229D01*
X45773Y279148D01*
X45813Y279086D01*
X45839Y279051D01*
Y279041D01*
X45844Y279035D01*
X45920Y278908D01*
X45997Y278791D01*
X46058Y278678D01*
X46109Y278576D01*
X46155Y278490D01*
X46191Y278403D01*
X46221Y278332D01*
X46247Y278265D01*
X46272Y278209D01*
X46283Y278158D01*
X46293Y278117D01*
X46303Y278087D01*
X46308Y278061D01*
Y278041D01*
X46313Y278025D01*
X46308Y277918D01*
X46293Y277821D01*
X46267Y277745D01*
X46237Y277673D01*
X46206Y277623D01*
X46181Y277577D01*
X46160Y277556D01*
X46150Y277546D01*
X46073Y277480D01*
X45992Y277439D01*
X45905Y277403D01*
X45829Y277388D01*
X45752Y277383D01*
X45696Y277378D01*
X45655D01*
X45645D01*
X45533Y277398D01*
X45420Y277439D01*
X45318Y277490D01*
X45227Y277551D01*
X45150Y277607D01*
X45084Y277653D01*
X45033Y277704D01*
X44962Y277786D01*
X44895Y277862D01*
X44803Y278025D01*
X44737Y278173D01*
X44706Y278316D01*
X44686Y278439D01*
X44676Y278530D01*
X44681Y278597D01*
Y278607D01*
Y278617D01*
X44706Y278734D01*
X44752Y278862D01*
X44803Y278974D01*
X44865Y279086D01*
X44921Y279173D01*
X44972Y279244D01*
X44992Y279275D01*
X45002Y279296D01*
X45012Y279306D01*
X45018Y279311D01*
X43559Y280596D01*
X43446Y280453D01*
X43339Y280306D01*
X43253Y280158D01*
X43181Y280015D01*
X43115Y279867D01*
X43064Y279724D01*
X43018Y279597D01*
X42982Y279469D01*
X42957Y279352D01*
X42936Y279250D01*
X42921Y279153D01*
X42911Y279071D01*
X42906Y279005D01*
X42901Y278959D01*
Y278928D01*
Y278918D01*
X42911Y278745D01*
X42957Y278566D01*
X43013Y278388D01*
X43089Y278209D01*
X43181Y278025D01*
X43283Y277852D01*
X43390Y277684D01*
X43498Y277526D01*
X43610Y277372D01*
X43722Y277240D01*
X43819Y277123D01*
X43906Y277015D01*
X43987Y276934D01*
X44013Y276898D01*
X44217Y276694D01*
X44344Y276587D01*
X44467Y276485D01*
X44584Y276388D01*
X44696Y276306D01*
X44803Y276230D01*
X44905Y276159D01*
X45002Y276102D01*
X45094Y276051D01*
X45171Y276005D01*
X45237Y275970D01*
X45293Y275944D01*
X45344Y275924D01*
X45375Y275903D01*
X45400Y275898D01*
X45405Y275893D01*
X45645Y275817D01*
X45875Y275771D01*
X45987Y275751D01*
X46089Y275740D01*
X46186Y275735D01*
X46277D01*
X46364Y275740D01*
X46441Y275745D01*
X46507Y275751D01*
X46563Y275756D01*
X46609Y275761D01*
X46645Y275766D01*
X46660Y275771D01*
X46670D01*
X46788Y275796D01*
X46900Y275837D01*
X47007Y275873D01*
X47104Y275919D01*
X47287Y276011D01*
X47446Y276108D01*
X47512Y276153D01*
X47573Y276204D01*
X47629Y276240D01*
X47665Y276276D01*
X47706Y276306D01*
X47747Y276347D01*
X47874Y276495D01*
X47986Y276648D01*
X48073Y276796D01*
X48144Y276929D01*
X48165Y276990D01*
X48190Y277046D01*
X48211Y277097D01*
X48221Y277138D01*
X48231Y277179D01*
X48241Y277199D01*
Y277220D01*
X48246Y277225D01*
X48267Y277316D01*
X48282Y277413D01*
X48292Y277607D01*
X48282Y277791D01*
X48262Y277964D01*
X48231Y278117D01*
X48221Y278178D01*
X48205Y278235D01*
X48195Y278275D01*
X48185Y278306D01*
X48180Y278332D01*
X48175Y278337D01*
X48134Y278459D01*
X48078Y278587D01*
X48017Y278729D01*
X47945Y278872D01*
X47792Y279168D01*
X47634Y279449D01*
X47553Y279581D01*
X47481Y279704D01*
X47415Y279821D01*
X47354Y279913D01*
X47308Y279989D01*
X47267Y280050D01*
X47247Y280091D01*
X47236Y280101D01*
X47185Y280183D01*
X47140Y280260D01*
X47099Y280331D01*
X47063Y280397D01*
X47027Y280453D01*
X47007Y280504D01*
X46966Y280596D01*
X46946Y280668D01*
X46930Y280714D01*
X46925Y280739D01*
Y280749D01*
Y280821D01*
X46936Y280882D01*
X46956Y280933D01*
X46976Y280974D01*
X46992Y281009D01*
X47007Y281035D01*
X47022Y281050D01*
X47027Y281055D01*
X47088Y281106D01*
X47155Y281142D01*
X47216Y281162D01*
X47277Y281183D01*
X47328Y281193D01*
X47369D01*
X47400D01*
X47410D01*
X47497Y281178D01*
X47583Y281142D01*
X47665Y281101D01*
X47736Y281050D01*
X47803Y281004D01*
X47854Y280963D01*
X47894Y280923D01*
X47996Y280811D01*
X48073Y280703D01*
X48129Y280596D01*
X48175Y280499D01*
X48195Y280418D01*
X48216Y280357D01*
Y280316D01*
X48221Y280300D01*
Y280178D01*
X48195Y280061D01*
X48165Y279948D01*
X48119Y279841D01*
X48078Y279750D01*
X48037Y279678D01*
X48022Y279653D01*
X48007Y279637D01*
X48001Y279622D01*
X47996Y279617D01*
X49430Y278337D01*
X49542Y278490D01*
X49634Y278643D01*
X49710Y278791D01*
X49771Y278933D01*
X49828Y279071D01*
X49863Y279209D01*
X49894Y279331D01*
X49914Y279454D01*
X49930Y279561D01*
X49935Y279658D01*
X49940Y279744D01*
Y279816D01*
X49935Y279872D01*
X49930Y279918D01*
X49925Y279943D01*
Y279953D01*
X49894Y280107D01*
X49843Y280260D01*
X49787Y280408D01*
X49710Y280555D01*
X49634Y280703D01*
X49547Y280841D01*
X49455Y280974D01*
X49369Y281101D01*
X49282Y281218D01*
X49195Y281326D01*
X49113Y281417D01*
X49047Y281494D01*
X48991Y281560D01*
X48772Y281780D01*
X48639Y281892D01*
X48517Y282004D01*
X48389Y282101D01*
X48277Y282193D01*
X48170Y282269D01*
X48063Y282336D01*
X47971Y282397D01*
X47884Y282453D01*
X47803Y282494D01*
X47736Y282529D01*
X47685Y282560D01*
X47639Y282575D01*
X47609Y282596D01*
X47583Y282601D01*
X47578Y282606D01*
X47354Y282677D01*
X47145Y282723D01*
X46956Y282749D01*
X46788Y282754D01*
X46645D01*
D02*
G37*
G36*
X40758Y289630D02*
X36101Y284973D01*
X37280Y283794D01*
X40830Y287345D01*
X38182Y282892D01*
X39249Y281826D01*
X43712Y284463D01*
X40162Y280912D01*
X41340Y279734D01*
X45997Y284391D01*
X44104Y286284D01*
X40544Y284172D01*
X42651Y287737D01*
X40758Y289630D01*
D02*
G37*
G36*
X14739Y314925D02*
X14601Y314920D01*
X14469Y314910D01*
X14341Y314884D01*
X14224Y314859D01*
X14101Y314828D01*
X13994Y314792D01*
X13897Y314757D01*
X13811Y314721D01*
X13729Y314690D01*
X13663Y314655D01*
X13607Y314629D01*
X13566Y314609D01*
X13540Y314593D01*
X13535Y314588D01*
X14545Y313150D01*
X14683Y313247D01*
X14816Y313318D01*
X14928Y313369D01*
X15025Y313405D01*
X15106Y313425D01*
X15167Y313435D01*
X15203Y313441D01*
X15213D01*
X15315Y313430D01*
X15412Y313405D01*
X15499Y313369D01*
X15581Y313328D01*
X15642Y313288D01*
X15693Y313247D01*
X15729Y313211D01*
X15800Y313130D01*
X15856Y313043D01*
X15892Y312966D01*
X15922Y312895D01*
X15938Y312829D01*
X15943Y312783D01*
X15948Y312747D01*
Y312737D01*
X15938Y312645D01*
X15912Y312558D01*
X15882Y312477D01*
X15841Y312405D01*
X15805Y312349D01*
X15769Y312303D01*
X15744Y312278D01*
X15734Y312267D01*
X15647Y312191D01*
X15555Y312140D01*
X15463Y312099D01*
X15377Y312074D01*
X15290Y312058D01*
X15234Y312053D01*
X15188Y312048D01*
X15178D01*
X15060Y312063D01*
X14948Y312094D01*
X14851Y312140D01*
X14764Y312186D01*
X14698Y312232D01*
X14642Y312278D01*
X14606Y312303D01*
X14596Y312313D01*
X14550Y312369D01*
X14504Y312426D01*
X14479Y312451D01*
X14464Y312477D01*
X14448Y312492D01*
X13459Y311635D01*
X13576Y311569D01*
X13683Y311502D01*
X13765Y311441D01*
X13831Y311395D01*
X13882Y311354D01*
X13923Y311324D01*
X13948Y311298D01*
X14045Y311191D01*
X14117Y311079D01*
X14163Y310972D01*
X14198Y310875D01*
X14214Y310788D01*
X14224Y310727D01*
X14229Y310681D01*
X14224Y310666D01*
X14209Y310538D01*
X14168Y310416D01*
X14112Y310299D01*
X14050Y310196D01*
X13989Y310115D01*
X13943Y310049D01*
X13918Y310023D01*
X13902Y310008D01*
X13892Y309998D01*
X13887Y309993D01*
X13770Y309885D01*
X13648Y309804D01*
X13530Y309748D01*
X13428Y309707D01*
X13341Y309681D01*
X13270Y309671D01*
X13224Y309666D01*
X13209Y309661D01*
X13081Y309666D01*
X12959Y309697D01*
X12852Y309732D01*
X12765Y309778D01*
X12688Y309824D01*
X12637Y309865D01*
X12597Y309896D01*
X12586Y309906D01*
X12500Y310003D01*
X12444Y310100D01*
X12393Y310191D01*
X12362Y310283D01*
X12342Y310355D01*
X12332Y310416D01*
X12326Y310452D01*
X12321Y310467D01*
Y310528D01*
X12332Y310589D01*
X12367Y310717D01*
X12413Y310844D01*
X12474Y310967D01*
X12530Y311074D01*
X12556Y311120D01*
X12586Y311161D01*
X12607Y311191D01*
X12622Y311217D01*
X12627Y311232D01*
X12632Y311237D01*
X11163Y312359D01*
X11061Y312155D01*
X10975Y311956D01*
X10913Y311773D01*
X10862Y311609D01*
X10842Y311538D01*
X10832Y311477D01*
X10822Y311416D01*
X10806Y311370D01*
Y311329D01*
X10801Y311303D01*
Y311283D01*
X10796Y311278D01*
X10791Y311079D01*
X10801Y310895D01*
X10832Y310722D01*
X10868Y310564D01*
X10903Y310426D01*
X10919Y310370D01*
X10934Y310324D01*
X10949Y310288D01*
X10959Y310258D01*
X10964Y310243D01*
X10970Y310237D01*
X11015Y310140D01*
X11066Y310038D01*
X11194Y309839D01*
X11337Y309646D01*
X11485Y309467D01*
X11546Y309386D01*
X11617Y309314D01*
X11674Y309248D01*
X11719Y309192D01*
X11944Y308967D01*
X12066Y308865D01*
X12184Y308768D01*
X12296Y308676D01*
X12403Y308600D01*
X12505Y308529D01*
X12602Y308472D01*
X12694Y308421D01*
X12775Y308370D01*
X12852Y308335D01*
X12913Y308304D01*
X12969Y308279D01*
X13010Y308258D01*
X13040Y308248D01*
X13066Y308243D01*
X13071Y308238D01*
X13296Y308177D01*
X13515Y308151D01*
X13714Y308136D01*
X13897Y308146D01*
X14050Y308156D01*
X14112Y308166D01*
X14163Y308177D01*
X14209Y308182D01*
X14239Y308192D01*
X14260D01*
X14265Y308197D01*
X14479Y308268D01*
X14668Y308355D01*
X14841Y308447D01*
X14984Y308539D01*
X15045Y308580D01*
X15101Y308626D01*
X15147Y308661D01*
X15183Y308697D01*
X15218Y308722D01*
X15259Y308763D01*
X15372Y308886D01*
X15463Y309008D01*
X15535Y309120D01*
X15591Y309227D01*
X15632Y309319D01*
X15662Y309391D01*
X15678Y309436D01*
Y309447D01*
X15683Y309452D01*
X15713Y309584D01*
X15734Y309717D01*
X15739Y309845D01*
X15734Y309952D01*
X15729Y310049D01*
X15713Y310125D01*
X15708Y310171D01*
Y310181D01*
X15703Y310186D01*
X15678Y310273D01*
X15642Y310370D01*
X15596Y310467D01*
X15550Y310554D01*
X15509Y310635D01*
X15479Y310696D01*
X15463Y310722D01*
X15448Y310737D01*
Y310747D01*
X15443Y310753D01*
X15632Y310707D01*
X15810Y310681D01*
X15963Y310671D01*
X16101Y310666D01*
X16213Y310676D01*
X16300Y310681D01*
X16356Y310686D01*
X16366D01*
X16371Y310691D01*
X16519Y310727D01*
X16657Y310783D01*
X16779Y310844D01*
X16887Y310911D01*
X16968Y310972D01*
X17034Y311018D01*
X17055Y311038D01*
X17070Y311054D01*
X17080Y311064D01*
X17085Y311069D01*
X17177Y311171D01*
X17254Y311268D01*
X17320Y311375D01*
X17376Y311482D01*
X17417Y311594D01*
X17458Y311696D01*
X17478Y311798D01*
X17504Y311895D01*
X17519Y311982D01*
X17529Y312074D01*
X17534Y312140D01*
X17539Y312206D01*
X17534Y312262D01*
Y312303D01*
Y312324D01*
Y312334D01*
X17514Y312477D01*
X17473Y312619D01*
X17422Y312762D01*
X17356Y312910D01*
X17279Y313048D01*
X17198Y313191D01*
X17024Y313446D01*
X16932Y313558D01*
X16851Y313660D01*
X16774Y313757D01*
X16703Y313839D01*
X16647Y313905D01*
X16560Y313992D01*
X16412Y314129D01*
X16264Y314257D01*
X16121Y314369D01*
X15984Y314466D01*
X15851Y314558D01*
X15718Y314629D01*
X15601Y314695D01*
X15489Y314746D01*
X15387Y314787D01*
X15295Y314828D01*
X15213Y314848D01*
X15147Y314874D01*
X15091Y314889D01*
X15050Y314900D01*
X15025Y314905D01*
X15014D01*
X14877Y314920D01*
X14739Y314925D01*
D02*
G37*
G36*
X18728Y311660D02*
X15826Y305249D01*
X17386Y303688D01*
X23778Y306611D01*
X22314Y308075D01*
X17922Y305754D01*
X20233Y310156D01*
X18728Y311660D01*
D02*
G37*
G36*
X24145Y305519D02*
X24007Y305514D01*
X23875Y305504D01*
X23747Y305478D01*
X23630Y305453D01*
X23507Y305422D01*
X23400Y305387D01*
X23303Y305351D01*
X23217Y305315D01*
X23135Y305285D01*
X23069Y305249D01*
X23012Y305223D01*
X22972Y305203D01*
X22946Y305188D01*
X22941Y305182D01*
X23951Y303744D01*
X24089Y303841D01*
X24221Y303912D01*
X24334Y303963D01*
X24430Y303999D01*
X24512Y304020D01*
X24573Y304030D01*
X24609Y304035D01*
X24619D01*
X24721Y304025D01*
X24818Y303999D01*
X24905Y303963D01*
X24987Y303923D01*
X25048Y303882D01*
X25099Y303841D01*
X25134Y303805D01*
X25206Y303724D01*
X25262Y303637D01*
X25298Y303560D01*
X25328Y303489D01*
X25344Y303423D01*
X25349Y303377D01*
X25354Y303341D01*
Y303331D01*
X25344Y303239D01*
X25318Y303152D01*
X25287Y303071D01*
X25247Y302999D01*
X25211Y302943D01*
X25175Y302897D01*
X25150Y302872D01*
X25140Y302862D01*
X25053Y302785D01*
X24961Y302734D01*
X24869Y302693D01*
X24783Y302668D01*
X24696Y302652D01*
X24640Y302647D01*
X24594Y302642D01*
X24584D01*
X24466Y302658D01*
X24354Y302688D01*
X24257Y302734D01*
X24170Y302780D01*
X24104Y302826D01*
X24048Y302872D01*
X24012Y302897D01*
X24002Y302908D01*
X23956Y302964D01*
X23910Y303020D01*
X23885Y303045D01*
X23869Y303071D01*
X23854Y303086D01*
X22865Y302229D01*
X22982Y302163D01*
X23089Y302097D01*
X23171Y302035D01*
X23237Y301989D01*
X23288Y301949D01*
X23329Y301918D01*
X23354Y301893D01*
X23451Y301785D01*
X23523Y301673D01*
X23568Y301566D01*
X23604Y301469D01*
X23619Y301382D01*
X23630Y301321D01*
X23635Y301275D01*
X23630Y301260D01*
X23614Y301132D01*
X23574Y301010D01*
X23517Y300893D01*
X23456Y300791D01*
X23395Y300709D01*
X23349Y300643D01*
X23324Y300617D01*
X23308Y300602D01*
X23298Y300592D01*
X23293Y300587D01*
X23176Y300480D01*
X23053Y300398D01*
X22936Y300342D01*
X22834Y300301D01*
X22747Y300275D01*
X22676Y300265D01*
X22630Y300260D01*
X22615Y300255D01*
X22487Y300260D01*
X22365Y300291D01*
X22258Y300326D01*
X22171Y300372D01*
X22094Y300418D01*
X22043Y300459D01*
X22002Y300490D01*
X21992Y300500D01*
X21906Y300597D01*
X21850Y300694D01*
X21799Y300786D01*
X21768Y300877D01*
X21748Y300949D01*
X21737Y301010D01*
X21732Y301046D01*
X21727Y301061D01*
Y301122D01*
X21737Y301183D01*
X21773Y301311D01*
X21819Y301439D01*
X21880Y301561D01*
X21936Y301668D01*
X21962Y301714D01*
X21992Y301755D01*
X22013Y301785D01*
X22028Y301811D01*
X22033Y301826D01*
X22038Y301831D01*
X20569Y302953D01*
X20467Y302749D01*
X20380Y302551D01*
X20319Y302367D01*
X20268Y302204D01*
X20248Y302132D01*
X20238Y302071D01*
X20227Y302010D01*
X20212Y301964D01*
Y301923D01*
X20207Y301898D01*
Y301877D01*
X20202Y301872D01*
X20197Y301673D01*
X20207Y301490D01*
X20238Y301316D01*
X20273Y301158D01*
X20309Y301020D01*
X20324Y300964D01*
X20340Y300918D01*
X20355Y300882D01*
X20365Y300852D01*
X20370Y300837D01*
X20375Y300832D01*
X20421Y300735D01*
X20472Y300633D01*
X20600Y300434D01*
X20743Y300240D01*
X20891Y300061D01*
X20952Y299980D01*
X21023Y299908D01*
X21079Y299842D01*
X21125Y299786D01*
X21350Y299561D01*
X21472Y299459D01*
X21589Y299363D01*
X21702Y299271D01*
X21809Y299194D01*
X21911Y299123D01*
X22008Y299067D01*
X22099Y299016D01*
X22181Y298965D01*
X22258Y298929D01*
X22319Y298898D01*
X22375Y298873D01*
X22416Y298852D01*
X22446Y298842D01*
X22472Y298837D01*
X22477Y298832D01*
X22701Y298771D01*
X22921Y298745D01*
X23120Y298730D01*
X23303Y298740D01*
X23456Y298750D01*
X23517Y298761D01*
X23568Y298771D01*
X23614Y298776D01*
X23645Y298786D01*
X23665D01*
X23670Y298791D01*
X23885Y298863D01*
X24074Y298949D01*
X24247Y299041D01*
X24390Y299133D01*
X24451Y299174D01*
X24507Y299220D01*
X24553Y299255D01*
X24589Y299291D01*
X24624Y299317D01*
X24665Y299357D01*
X24777Y299480D01*
X24869Y299602D01*
X24941Y299714D01*
X24997Y299821D01*
X25038Y299913D01*
X25068Y299985D01*
X25083Y300031D01*
Y300041D01*
X25089Y300046D01*
X25119Y300179D01*
X25140Y300311D01*
X25145Y300439D01*
X25140Y300546D01*
X25134Y300643D01*
X25119Y300719D01*
X25114Y300765D01*
Y300775D01*
X25109Y300781D01*
X25083Y300867D01*
X25048Y300964D01*
X25002Y301061D01*
X24956Y301148D01*
X24915Y301229D01*
X24885Y301291D01*
X24869Y301316D01*
X24854Y301331D01*
Y301342D01*
X24849Y301347D01*
X25038Y301301D01*
X25216Y301275D01*
X25369Y301265D01*
X25507Y301260D01*
X25619Y301270D01*
X25706Y301275D01*
X25762Y301280D01*
X25772D01*
X25777Y301285D01*
X25925Y301321D01*
X26063Y301377D01*
X26185Y301439D01*
X26292Y301505D01*
X26374Y301566D01*
X26440Y301612D01*
X26461Y301632D01*
X26476Y301648D01*
X26486Y301658D01*
X26491Y301663D01*
X26583Y301765D01*
X26660Y301862D01*
X26726Y301969D01*
X26782Y302076D01*
X26823Y302188D01*
X26864Y302290D01*
X26884Y302392D01*
X26909Y302489D01*
X26925Y302576D01*
X26935Y302668D01*
X26940Y302734D01*
X26945Y302800D01*
X26940Y302857D01*
Y302897D01*
Y302918D01*
Y302928D01*
X26920Y303071D01*
X26879Y303214D01*
X26828Y303356D01*
X26762Y303504D01*
X26685Y303642D01*
X26604Y303785D01*
X26430Y304040D01*
X26338Y304152D01*
X26257Y304254D01*
X26180Y304351D01*
X26109Y304433D01*
X26053Y304499D01*
X25966Y304586D01*
X25818Y304723D01*
X25670Y304851D01*
X25527Y304963D01*
X25389Y305060D01*
X25257Y305152D01*
X25124Y305223D01*
X25007Y305290D01*
X24895Y305341D01*
X24793Y305381D01*
X24701Y305422D01*
X24619Y305443D01*
X24553Y305468D01*
X24497Y305483D01*
X24456Y305494D01*
X24430Y305499D01*
X24420D01*
X24283Y305514D01*
X24145Y305519D01*
D02*
G37*
G36*
X375053Y-144392D02*
X373759D01*
Y-150845D01*
X375434D01*
X375510Y-150837D01*
X375688D01*
X375882Y-150820D01*
X376077Y-150803D01*
X376263Y-150786D01*
X376348Y-150769D01*
X376424Y-150752D01*
X376432D01*
X376449Y-150744D01*
X376466Y-150735D01*
X376500Y-150727D01*
X376593Y-150702D01*
X376703Y-150659D01*
X376821Y-150600D01*
X376956Y-150532D01*
X377083Y-150448D01*
X377210Y-150355D01*
X377227Y-150338D01*
X377261Y-150295D01*
X377320Y-150228D01*
X377396Y-150126D01*
X377481Y-149999D01*
X377565Y-149839D01*
X377650Y-149644D01*
X377692Y-149534D01*
X377735Y-149416D01*
Y-149407D01*
X377743Y-149382D01*
X377752Y-149348D01*
X377769Y-149297D01*
X377785Y-149230D01*
X377802Y-149145D01*
X377819Y-149052D01*
X377836Y-148942D01*
X377853Y-148824D01*
X377870Y-148688D01*
X377887Y-148545D01*
X377904Y-148384D01*
X377921Y-148206D01*
X377929Y-148029D01*
X377938Y-147826D01*
Y-147623D01*
Y-147606D01*
Y-147572D01*
Y-147513D01*
Y-147437D01*
X377929Y-147344D01*
Y-147234D01*
X377921Y-147115D01*
X377912Y-146988D01*
X377887Y-146709D01*
X377853Y-146422D01*
X377802Y-146143D01*
X377769Y-146016D01*
X377735Y-145897D01*
Y-145889D01*
X377726Y-145872D01*
X377718Y-145838D01*
X377701Y-145796D01*
X377675Y-145745D01*
X377650Y-145686D01*
X377591Y-145550D01*
X377506Y-145398D01*
X377413Y-145238D01*
X377295Y-145085D01*
X377168Y-144950D01*
X377151Y-144933D01*
X377100Y-144891D01*
X377024Y-144840D01*
X376923Y-144764D01*
X376787Y-144688D01*
X376635Y-144612D01*
X376457Y-144544D01*
X376263Y-144485D01*
X376254D01*
X376246Y-144476D01*
X376221D01*
X376178Y-144468D01*
X376128Y-144459D01*
X376068Y-144451D01*
X375992Y-144442D01*
X375908Y-144434D01*
X375806Y-144425D01*
X375688Y-144417D01*
X375552D01*
X375400Y-144409D01*
X375239Y-144400D01*
X375053Y-144392D01*
D02*
G37*
G36*
X315009Y-144366D02*
X313216D01*
Y-146616D01*
X315110D01*
X315355Y-146608D01*
X315592D01*
X315694Y-146599D01*
X315787D01*
X315871Y-146591D01*
X315956D01*
X315981Y-146582D01*
X316015Y-146574D01*
X316100Y-146557D01*
X316218Y-146523D01*
X316345Y-146481D01*
X316472Y-146422D01*
X316599Y-146337D01*
X316717Y-146244D01*
X316734Y-146227D01*
X316768Y-146193D01*
X316810Y-146126D01*
X316869Y-146041D01*
X316920Y-145931D01*
X316971Y-145796D01*
X317005Y-145652D01*
X317013Y-145483D01*
Y-145474D01*
Y-145466D01*
Y-145441D01*
Y-145407D01*
X316996Y-145322D01*
X316979Y-145221D01*
X316954Y-145102D01*
X316903Y-144975D01*
X316844Y-144857D01*
X316759Y-144747D01*
X316751Y-144730D01*
X316717Y-144705D01*
X316658Y-144654D01*
X316573Y-144595D01*
X316472Y-144535D01*
X316345Y-144476D01*
X316193Y-144434D01*
X316024Y-144400D01*
X315990D01*
X315956Y-144392D01*
X315854D01*
X315787Y-144383D01*
X315601D01*
X315482Y-144375D01*
X315186D01*
X315009Y-144366D01*
D02*
G37*
G36*
X315051Y-148240D02*
X313216D01*
Y-150845D01*
X315389D01*
X315491Y-150837D01*
X315601D01*
X315829Y-150828D01*
X316057Y-150820D01*
X316159Y-150811D01*
X316243Y-150803D01*
X316328Y-150794D01*
X316387Y-150786D01*
X316404D01*
X316430Y-150778D01*
X316463Y-150769D01*
X316539Y-150744D01*
X316641Y-150710D01*
X316759Y-150659D01*
X316878Y-150591D01*
X316996Y-150507D01*
X317106Y-150405D01*
X317115Y-150388D01*
X317148Y-150346D01*
X317191Y-150279D01*
X317250Y-150185D01*
X317301Y-150067D01*
X317343Y-149923D01*
X317377Y-149763D01*
X317385Y-149577D01*
Y-149568D01*
Y-149560D01*
Y-149534D01*
Y-149500D01*
X317377Y-149424D01*
X317360Y-149314D01*
X317335Y-149204D01*
X317292Y-149078D01*
X317242Y-148951D01*
X317166Y-148832D01*
X317157Y-148815D01*
X317123Y-148781D01*
X317081Y-148722D01*
X317013Y-148655D01*
X316920Y-148587D01*
X316819Y-148511D01*
X316692Y-148443D01*
X316548Y-148384D01*
X316539D01*
X316531Y-148376D01*
X316506Y-148367D01*
X316463Y-148359D01*
X316413Y-148350D01*
X316353Y-148342D01*
X316277Y-148325D01*
X316184Y-148308D01*
X316074Y-148299D01*
X315947Y-148282D01*
X315804Y-148274D01*
X315643Y-148265D01*
X315465Y-148257D01*
X315271Y-148249D01*
X315051Y-148240D01*
D02*
G37*
G36*
X336010Y-144256D02*
X335960D01*
X335892Y-144265D01*
X335807Y-144273D01*
X335706Y-144282D01*
X335587Y-144299D01*
X335452Y-144324D01*
X335308Y-144358D01*
X335156Y-144409D01*
X334995Y-144459D01*
X334835Y-144527D01*
X334665Y-144612D01*
X334505Y-144705D01*
X334344Y-144815D01*
X334192Y-144950D01*
X334048Y-145094D01*
X334040Y-145102D01*
X334014Y-145136D01*
X333980Y-145178D01*
X333930Y-145254D01*
X333879Y-145339D01*
X333811Y-145449D01*
X333744Y-145576D01*
X333676Y-145720D01*
X333608Y-145889D01*
X333540Y-146075D01*
X333473Y-146286D01*
X333422Y-146506D01*
X333371Y-146760D01*
X333338Y-147022D01*
X333312Y-147310D01*
X333304Y-147614D01*
Y-147623D01*
Y-147631D01*
Y-147656D01*
Y-147690D01*
X333312Y-147775D01*
Y-147885D01*
X333329Y-148029D01*
X333346Y-148181D01*
X333371Y-148359D01*
X333397Y-148553D01*
X333439Y-148748D01*
X333490Y-148959D01*
X333549Y-149162D01*
X333625Y-149374D01*
X333710Y-149577D01*
X333811Y-149771D01*
X333930Y-149957D01*
X334065Y-150126D01*
X334073Y-150135D01*
X334099Y-150160D01*
X334141Y-150202D01*
X334200Y-150262D01*
X334276Y-150321D01*
X334369Y-150397D01*
X334471Y-150473D01*
X334598Y-150549D01*
X334725Y-150634D01*
X334877Y-150710D01*
X335038Y-150786D01*
X335207Y-150845D01*
X335393Y-150905D01*
X335587Y-150947D01*
X335790Y-150972D01*
X336010Y-150981D01*
X336061D01*
X336120Y-150972D01*
X336205Y-150964D01*
X336306Y-150955D01*
X336425Y-150938D01*
X336552Y-150913D01*
X336695Y-150871D01*
X336839Y-150828D01*
X337000Y-150778D01*
X337161Y-150702D01*
X337321Y-150625D01*
X337482Y-150524D01*
X337643Y-150414D01*
X337795Y-150287D01*
X337939Y-150135D01*
X337947Y-150126D01*
X337973Y-150092D01*
X338007Y-150042D01*
X338057Y-149974D01*
X338116Y-149889D01*
X338184Y-149780D01*
X338252Y-149644D01*
X338319Y-149500D01*
X338387Y-149331D01*
X338463Y-149145D01*
X338522Y-148934D01*
X338582Y-148705D01*
X338632Y-148452D01*
X338666Y-148189D01*
X338692Y-147893D01*
X338700Y-147589D01*
Y-147580D01*
Y-147572D01*
Y-147547D01*
Y-147513D01*
X338692Y-147428D01*
Y-147310D01*
X338675Y-147174D01*
X338658Y-147014D01*
X338641Y-146836D01*
X338607Y-146650D01*
X338573Y-146447D01*
X338522Y-146244D01*
X338463Y-146033D01*
X338387Y-145830D01*
X338302Y-145627D01*
X338209Y-145432D01*
X338091Y-145246D01*
X337964Y-145085D01*
X337956Y-145077D01*
X337930Y-145051D01*
X337888Y-145009D01*
X337829Y-144958D01*
X337753Y-144891D01*
X337668Y-144823D01*
X337567Y-144747D01*
X337448Y-144671D01*
X337313Y-144595D01*
X337161Y-144518D01*
X337000Y-144451D01*
X336831Y-144383D01*
X336645Y-144333D01*
X336442Y-144290D01*
X336230Y-144265D01*
X336010Y-144256D01*
D02*
G37*
G36*
X325412D02*
X325362D01*
X325294Y-144265D01*
X325209Y-144273D01*
X325108Y-144282D01*
X324989Y-144299D01*
X324854Y-144324D01*
X324710Y-144358D01*
X324558Y-144409D01*
X324397Y-144459D01*
X324236Y-144527D01*
X324067Y-144612D01*
X323907Y-144705D01*
X323746Y-144815D01*
X323594Y-144950D01*
X323450Y-145094D01*
X323441Y-145102D01*
X323416Y-145136D01*
X323382Y-145178D01*
X323331Y-145254D01*
X323281Y-145339D01*
X323213Y-145449D01*
X323145Y-145576D01*
X323078Y-145720D01*
X323010Y-145889D01*
X322942Y-146075D01*
X322875Y-146286D01*
X322824Y-146506D01*
X322773Y-146760D01*
X322739Y-147022D01*
X322714Y-147310D01*
X322706Y-147614D01*
Y-147623D01*
Y-147631D01*
Y-147656D01*
Y-147690D01*
X322714Y-147775D01*
Y-147885D01*
X322731Y-148029D01*
X322748Y-148181D01*
X322773Y-148359D01*
X322799Y-148553D01*
X322841Y-148748D01*
X322892Y-148959D01*
X322951Y-149162D01*
X323027Y-149374D01*
X323112Y-149577D01*
X323213Y-149771D01*
X323331Y-149957D01*
X323467Y-150126D01*
X323475Y-150135D01*
X323501Y-150160D01*
X323543Y-150202D01*
X323602Y-150262D01*
X323678Y-150321D01*
X323771Y-150397D01*
X323873Y-150473D01*
X324000Y-150549D01*
X324127Y-150634D01*
X324279Y-150710D01*
X324440Y-150786D01*
X324609Y-150845D01*
X324795Y-150905D01*
X324989Y-150947D01*
X325192Y-150972D01*
X325412Y-150981D01*
X325463D01*
X325522Y-150972D01*
X325607Y-150964D01*
X325708Y-150955D01*
X325827Y-150938D01*
X325953Y-150913D01*
X326097Y-150871D01*
X326241Y-150828D01*
X326402Y-150778D01*
X326562Y-150702D01*
X326723Y-150625D01*
X326884Y-150524D01*
X327045Y-150414D01*
X327197Y-150287D01*
X327341Y-150135D01*
X327349Y-150126D01*
X327374Y-150092D01*
X327408Y-150042D01*
X327459Y-149974D01*
X327518Y-149889D01*
X327586Y-149780D01*
X327654Y-149644D01*
X327721Y-149500D01*
X327789Y-149331D01*
X327865Y-149145D01*
X327924Y-148934D01*
X327984Y-148705D01*
X328034Y-148452D01*
X328068Y-148189D01*
X328093Y-147893D01*
X328102Y-147589D01*
Y-147580D01*
Y-147572D01*
Y-147547D01*
Y-147513D01*
X328093Y-147428D01*
Y-147310D01*
X328077Y-147174D01*
X328060Y-147014D01*
X328043Y-146836D01*
X328009Y-146650D01*
X327975Y-146447D01*
X327924Y-146244D01*
X327865Y-146033D01*
X327789Y-145830D01*
X327704Y-145627D01*
X327611Y-145432D01*
X327493Y-145246D01*
X327366Y-145085D01*
X327358Y-145077D01*
X327332Y-145051D01*
X327290Y-145009D01*
X327231Y-144958D01*
X327155Y-144891D01*
X327070Y-144823D01*
X326968Y-144747D01*
X326850Y-144671D01*
X326715Y-144595D01*
X326562Y-144518D01*
X326402Y-144451D01*
X326233Y-144383D01*
X326047Y-144333D01*
X325844Y-144290D01*
X325632Y-144265D01*
X325412Y-144256D01*
D02*
G37*
%LPD*%
D10*
X51072Y-2095D02*
G03*
X51072Y-2095I-1250J0D01*
G01*
X228102Y12898D02*
G03*
X228102Y12898I-1250J0D01*
G01*
X276898Y-24852D02*
G03*
X276898Y-24852I-1250J0D01*
G01*
X291148Y-39602D02*
G03*
X291148Y-39602I-1250J0D01*
G01*
X249920Y-33700D02*
G03*
X249920Y-33700I-1250J0D01*
G01*
X146500Y60000D02*
G03*
X146500Y60000I-1250J0D01*
G01*
X-65242Y323566D02*
G03*
X-65242Y323566I-1250J0D01*
G01*
X-49602Y-104102D02*
G03*
X-49602Y-104102I-1250J0D01*
G01*
X-92244Y-172250D02*
G03*
X-92244Y-172250I-1250J0D01*
G01*
X241000Y-348450D02*
G03*
X241000Y-348450I-1250J0D01*
G01*
X-94616Y-284414D02*
G03*
X-94616Y-284414I-1250J0D01*
G01*
X124383Y307336D02*
G03*
X124383Y307336I-1250J0D01*
G01*
X-96994Y-153250D02*
G03*
X-96994Y-153250I-1250J0D01*
G01*
X-324750Y-370500D02*
G03*
X-324750Y-370500I-1250J0D01*
G01*
X201171Y-357190D02*
X245189Y-313172D01*
X-245189Y293172D02*
X-201171Y337190D01*
X347190Y-211171D01*
X-347190Y191171D02*
X-303172Y235189D01*
X-347190Y191171D02*
X201171Y-357190D01*
X303172Y-255189D02*
X347190Y-211171D01*
X172889Y250069D02*
X165820Y243000D01*
X169354Y246534D01*
X174067Y241822D01*
X177601Y245356D01*
X170532Y238288D01*
X179957Y243000D02*
X172889Y235931D01*
X177601D01*
Y231219D01*
X184670Y238288D01*
X191739Y226506D02*
X187026Y221794D01*
X189382Y224150D01*
X191739D01*
X194095D01*
X195273Y222972D01*
X197629Y211190D02*
X195273Y213547D01*
Y215903D01*
X197629Y218259D01*
X199986Y218259D01*
X202342Y215903D01*
Y213547D01*
X201164Y212369D01*
X196451Y217081D01*
X205876Y212369D02*
X203520Y205300D01*
X210589Y207656D01*
X220014Y188806D02*
X215301Y193519D01*
X224726D01*
X225905Y194697D01*
X225905Y197053D01*
X223548Y199409D01*
X221192D01*
X222370Y186450D02*
X223548Y187628D01*
X224726Y186450D01*
X223548Y185271D01*
X222370Y186450D01*
X232973Y175847D02*
X228261Y180559D01*
X237686D01*
X238864Y181737D01*
Y184093D01*
X236508Y186450D01*
X234151D01*
D11*
X-97750Y-211000D02*
G03*
X-97750Y-211000I-7000J0D01*
G01*
X27500Y336250D02*
G03*
X27500Y336250I-7000J0D01*
G01*
X-262750Y-294750D02*
G03*
X-262750Y-294750I-7000J0D01*
G01*
X-194250Y-294250D02*
G03*
X-194250Y-294250I-7000J0D01*
G01*
X316000Y-339250D02*
G03*
X316000Y-339250I-7000J0D01*
G01*
X18500Y-250250D02*
G03*
X18500Y-250250I-7000J0D01*
G01*
X-316000Y-256000D02*
G03*
X-316000Y-256000I-7000J0D01*
G01*
X-77250Y-211000D02*
G03*
X-77250Y-211000I-7000J0D01*
G01*
X-147000Y-327250D02*
G03*
X-147000Y-327250I-7000J0D01*
G01*
X325250Y-353500D02*
G03*
X325250Y-353500I-7000J0D01*
G01*
X66500Y91750D02*
G03*
X66500Y91750I-7000J0D01*
G01*
X7000Y-237250D02*
G03*
X7000Y-237250I-7000J0D01*
G01*
X45000Y-241000D02*
G03*
X45000Y-241000I-7000J0D01*
G01*
X-122250Y-243750D02*
G03*
X-122250Y-243750I-7000J0D01*
G01*
X-264250Y-243250D02*
G03*
X-264250Y-243250I-7000J0D01*
G01*
X-292250Y-328500D02*
G03*
X-292250Y-328500I-7000J0D01*
G01*
X-307000Y-353500D02*
G03*
X-307000Y-353500I-7000J0D01*
G01*
X2941Y-68549D02*
X92743Y-158352D01*
X58802Y-12688D02*
X148604Y-102491D01*
X242906Y7678D02*
X243146Y7917D01*
X231833Y-3396D02*
X232073Y-3156D01*
X231833Y-3396D02*
X250854Y-22418D01*
X261928Y-11344D02*
X262167Y-11104D01*
X250854Y-22418D02*
X251094Y-22178D01*
X243146Y7917D02*
X262167Y-11104D01*
X270427Y-40906D02*
X270667Y-41146D01*
X259354Y-29833D02*
X259594Y-30073D01*
X240333Y-48854D02*
X259354Y-29833D01*
X251406Y-59928D02*
X251646Y-60167D01*
X240333Y-48854D02*
X240572Y-49094D01*
X251646Y-60167D02*
X270667Y-41146D01*
X284678Y-55656D02*
X284918Y-55896D01*
X273604Y-44583D02*
X273844Y-44823D01*
X254583Y-63604D02*
X273604Y-44583D01*
X265656Y-74678D02*
X265896Y-74917D01*
X254583Y-63604D02*
X254823Y-63844D01*
X265896Y-74917D02*
X284918Y-55896D01*
X209426Y-24154D02*
X214729Y-29457D01*
X209426Y-24154D02*
X218618Y-14961D01*
X226043Y-40771D02*
X231346Y-46074D01*
X240539Y-36882D01*
X-201930Y347482D02*
X-190104Y359308D01*
X-191518Y337070D02*
X-179692Y348896D01*
X-163780Y325967D02*
X-158654Y320840D01*
X-152997Y326497D01*
X-179160Y341346D02*
X-174033Y336220D01*
X-179160Y341346D02*
X-173503Y347003D01*
X120791Y73264D02*
Y81736D01*
X103209Y73264D02*
Y81736D01*
X338000Y245000D02*
Y254000D01*
X-362000Y-201000D02*
Y-192000D01*
X-186119Y-323707D02*
X-174293Y-311881D01*
X-175707Y-334119D02*
X-163881Y-322293D01*
X-111959Y353124D02*
X-75896Y317061D01*
X-134586Y330496D02*
X-98524Y294434D01*
X-75896Y317061D01*
X-134586Y330496D02*
X-111959Y353124D01*
X-94561Y-255061D02*
Y-230939D01*
X-77439Y-255061D02*
Y-230939D01*
X-252612Y-299138D02*
X-235888D01*
X-252612Y-313862D02*
X-235888D01*
X338000Y-201000D02*
Y-192000D01*
Y22000D02*
Y31000D01*
X-362000Y245000D02*
Y254000D01*
X-181616Y19722D02*
X-164559Y2666D01*
X-193722Y7616D02*
X-176666Y-9441D01*
X50884Y113278D02*
X67941Y130334D01*
X38778Y125385D02*
X55834Y142441D01*
X-328582Y-124525D02*
X-311525Y-141581D01*
X-316475Y-112418D02*
X-299419Y-129475D01*
X143291Y91986D02*
X143291Y83514D01*
X125709Y83514D02*
X125709Y91986D01*
X-74854Y-139417D02*
X-55833Y-120396D01*
X-86167Y-128104D02*
X-85927Y-128344D01*
X-75094Y-139178D02*
X-74854Y-139417D01*
X-86167Y-128104D02*
X-67146Y-109082D01*
X-66906Y-109323D01*
X-56073Y-120156D02*
X-55833Y-120396D01*
X-18500Y-225500D02*
X-10500D01*
Y-218250D01*
X-18500Y-196500D02*
X-10500D01*
Y-203750D02*
Y-196500D01*
X-78450Y-164250D02*
X-51550D01*
Y-180250D02*
Y-179911D01*
Y-164589D02*
Y-164250D01*
X-78450Y-180250D02*
X-51550D01*
X-78450D02*
Y-179911D01*
Y-164589D02*
Y-164250D01*
X-54561Y-255061D02*
X-54561Y-230939D01*
X-37439D02*
X-37439Y-255061D01*
X204000Y-399791D02*
X212472D01*
X204000Y-382209D02*
X212472D01*
X324014Y-381959D02*
X332486D01*
X324014Y-399541D02*
X332486D01*
X-362000Y22000D02*
Y31000D01*
X149439Y32689D02*
X173561Y32689D01*
X149439Y49811D02*
X173561D01*
X-81975Y-119581D02*
X-64918Y-102525D01*
X-94081Y-107475D02*
X-77025Y-90419D01*
X-100561Y-200561D02*
X-76439D01*
X-100561Y-183439D02*
X-76439D01*
X-340212Y-143221D02*
X-334221Y-149212D01*
X-327779Y-130788D02*
X-321788Y-136779D01*
X-148616Y314722D02*
X-131559Y297666D01*
X-160722Y302616D02*
X-143666Y285559D01*
X151169Y111311D02*
X175291D01*
X151169Y94189D02*
X175291D01*
X-22732Y-164969D02*
X-14768D01*
X-22732Y-192031D02*
X-14768D01*
X-232862Y-313862D02*
X-216138D01*
X-232862Y-299138D02*
X-216138D01*
X-163749Y-272393D02*
X-149607Y-258251D01*
X-128393D02*
X-114251Y-272393D01*
X-163749Y-293607D02*
X-149607Y-307749D01*
X-128393D02*
X-114251Y-293607D01*
X-149607Y-307749D02*
X-136879D01*
X-163749Y-293607D02*
X-163749Y-280879D01*
X-141121Y-258251D02*
X-128393D01*
X-114251Y-285121D02*
X-114251Y-272393D01*
X-59520Y-136891D02*
X-36141Y-160270D01*
X-42859Y-120230D02*
X-19480Y-143609D01*
X-114561Y-255061D02*
Y-230939D01*
X-97439Y-255061D02*
Y-230939D01*
X-57439Y-226561D02*
Y-202439D01*
X-74561Y-226561D02*
Y-202439D01*
X80189Y-283561D02*
X104311D01*
X80189Y-266439D02*
X104311D01*
X61939Y-264561D02*
X86061D01*
X61939Y-247439D02*
X86061D01*
X55251Y319357D02*
X69393Y333499D01*
X90607D02*
X104749Y319357D01*
X55251Y298143D02*
X69393Y284001D01*
X90607D02*
X104749Y298143D01*
X69393Y284001D02*
X82121D01*
X55251Y298143D02*
X55251Y310871D01*
X77879Y333499D02*
X90607D01*
X104749Y306629D02*
X104749Y319357D01*
X-83200Y-145250D02*
X-56300D01*
Y-161250D02*
Y-160911D01*
Y-145589D02*
Y-145250D01*
X-83200Y-161250D02*
X-56300D01*
X-83200D02*
Y-160911D01*
Y-145589D02*
Y-145250D01*
X5219Y-222531D02*
Y-189469D01*
X28781Y-222531D02*
Y-189469D01*
X-74561Y-255061D02*
Y-230939D01*
X-57439Y-255061D02*
Y-230939D01*
X-34561Y-255061D02*
Y-230939D01*
X-17439Y-255061D02*
Y-230939D01*
X-313561Y-401311D02*
Y-377189D01*
X-296439Y-401311D02*
Y-377189D01*
X-319250Y-399250D02*
Y-379250D01*
X-342750Y-399250D02*
Y-379250D01*
X-213765Y391329D02*
Y381332D01*
X-208767D01*
X-207101Y382998D01*
Y389663D01*
X-208767Y391329D01*
X-213765D01*
X-198770Y381332D02*
X-202103D01*
X-203769Y382998D01*
Y386331D01*
X-202103Y387997D01*
X-198770D01*
X-197104Y386331D01*
Y384664D01*
X-203769D01*
X-193772Y381332D02*
X-188773D01*
X-187107Y382998D01*
X-188773Y384664D01*
X-192106D01*
X-193772Y386331D01*
X-192106Y387997D01*
X-187107D01*
X-183775Y381332D02*
X-180443D01*
X-182109D01*
Y387997D01*
X-183775D01*
X-172112Y378000D02*
X-170446D01*
X-168780Y379666D01*
Y387997D01*
X-173778D01*
X-175444Y386331D01*
Y382998D01*
X-173778Y381332D01*
X-168780D01*
X-165448D02*
Y387997D01*
X-160449D01*
X-158783Y386331D01*
Y381332D01*
X-150452D02*
X-153785D01*
X-155451Y382998D01*
Y386331D01*
X-153785Y387997D01*
X-150452D01*
X-148786Y386331D01*
Y384664D01*
X-155451D01*
X-138790Y391329D02*
Y381332D01*
X-143788D01*
X-145454Y382998D01*
Y386331D01*
X-143788Y387997D01*
X-138790D01*
X-125461Y391329D02*
Y381332D01*
X-120462D01*
X-118796Y382998D01*
Y384664D01*
Y386331D01*
X-120462Y387997D01*
X-125461D01*
X-115464D02*
Y382998D01*
X-113798Y381332D01*
X-108799D01*
Y379666D01*
X-110465Y378000D01*
X-112132D01*
X-108799Y381332D02*
Y387997D01*
X-95470Y381332D02*
Y391329D01*
X-90472D01*
X-88806Y389663D01*
Y386331D01*
X-90472Y384664D01*
X-95470D01*
X-85473Y381332D02*
X-82141D01*
X-83807D01*
Y391329D01*
X-85473D01*
X-75477Y387997D02*
X-72144D01*
X-70478Y386331D01*
Y381332D01*
X-75477D01*
X-77143Y382998D01*
X-75477Y384664D01*
X-70478D01*
X-67146Y381332D02*
Y387997D01*
X-62148D01*
X-60482Y386331D01*
Y381332D01*
X-57149D02*
X-53817D01*
X-55483D01*
Y387997D01*
X-57149D01*
X-48818Y381332D02*
Y387997D01*
X-43820D01*
X-42154Y386331D01*
Y381332D01*
X-38822D02*
X-33823D01*
X-32157Y382998D01*
X-33823Y384664D01*
X-37156D01*
X-38822Y386331D01*
X-37156Y387997D01*
X-32157D01*
X-23827Y381332D02*
X-27159D01*
X-28825Y382998D01*
Y386331D01*
X-27159Y387997D01*
X-23827D01*
X-22160Y386331D01*
Y384664D01*
X-28825D01*
X-18828Y381332D02*
Y391329D01*
Y384664D02*
X-13830Y387997D01*
X-18828Y384664D02*
X-13830Y381332D01*
X1165Y391329D02*
X4498D01*
X2831D01*
Y381332D01*
X1165D01*
X4498D01*
X9496D02*
Y387997D01*
X14494D01*
X16161Y386331D01*
Y381332D01*
X26157Y391329D02*
Y381332D01*
X21159D01*
X19493Y382998D01*
Y386331D01*
X21159Y387997D01*
X26157D01*
X29490D02*
Y382998D01*
X31156Y381332D01*
X36154D01*
Y387997D01*
X39486Y381332D02*
X44485D01*
X46151Y382998D01*
X44485Y384664D01*
X41153D01*
X39486Y386331D01*
X41153Y387997D01*
X46151D01*
X51149Y389663D02*
Y387997D01*
X49483D01*
X52815D01*
X51149D01*
Y382998D01*
X52815Y381332D01*
X57814Y387997D02*
Y381332D01*
Y384664D01*
X59480Y386331D01*
X61146Y387997D01*
X62812D01*
X67811Y381332D02*
X71143D01*
X69477D01*
Y387997D01*
X67811D01*
X81140Y381332D02*
X77807D01*
X76141Y382998D01*
Y386331D01*
X77807Y387997D01*
X81140D01*
X82806Y386331D01*
Y384664D01*
X76141D01*
X86138Y381332D02*
X91136D01*
X92802Y382998D01*
X91136Y384664D01*
X87804D01*
X86138Y386331D01*
X87804Y387997D01*
X92802D01*
X106131Y381332D02*
X109464D01*
X107798D01*
Y387997D01*
X106131D01*
X114462Y381332D02*
Y387997D01*
X119460D01*
X121127Y386331D01*
Y381332D01*
X141120Y389663D02*
X139454Y391329D01*
X136122D01*
X134456Y389663D01*
Y387997D01*
X136122Y386331D01*
X139454D01*
X141120Y384664D01*
Y382998D01*
X139454Y381332D01*
X136122D01*
X134456Y382998D01*
X144452Y381332D02*
X147785D01*
X146119D01*
Y391329D01*
X144452D01*
X154449Y381332D02*
X157781D01*
X159448Y382998D01*
Y386331D01*
X157781Y387997D01*
X154449D01*
X152783Y386331D01*
Y382998D01*
X154449Y381332D01*
X162780Y387997D02*
X166112Y381332D01*
X169444Y387997D01*
X177775Y381332D02*
X174443D01*
X172777Y382998D01*
Y386331D01*
X174443Y387997D01*
X177775D01*
X179441Y386331D01*
Y384664D01*
X172777D01*
X182773Y381332D02*
Y387997D01*
X187772D01*
X189438Y386331D01*
Y381332D01*
X192770D02*
X196103D01*
X194436D01*
Y387997D01*
X192770D01*
X202767D02*
X206099D01*
X207765Y386331D01*
Y381332D01*
X202767D01*
X201101Y382998D01*
X202767Y384664D01*
X207765D01*
D12*
X-87038Y317061D02*
G03*
X-87038Y317061I-3000J0D01*
G01*
D13*
X12818Y214142D02*
G03*
X12818Y228284I-7071J7071D01*
G01*
X-1324Y214142D02*
G03*
X12818Y214142I7071J7071D01*
G01*
X-15466Y256568D02*
G03*
X-29608Y256568I-7071J-7071D01*
G01*
X-29608Y256568D02*
G03*
X-29608Y242426I7071J-7071D01*
G01*
X-29608D02*
X-1324Y214142D01*
X-15466Y256568D02*
X12818Y228284D01*
D14*
X147750Y78250D02*
X178750D01*
X147750Y69250D02*
X178750D01*
Y78250D01*
X147750Y69250D02*
Y78250D01*
X323604Y-251790D02*
X342165Y-270351D01*
X330851Y-281665D02*
X342165Y-270351D01*
X312290Y-263104D02*
X330851Y-281665D01*
X312290Y-263104D02*
X323604Y-251790D01*
X-1324Y214142D02*
X-1324Y214142D01*
X-26072Y344957D02*
X101207Y217677D01*
X-72034Y298995D02*
X-26072Y344957D01*
X-72034Y298995D02*
X-29608Y256568D01*
X55245Y171716D02*
X101207Y217677D01*
X12818Y214142D02*
X55245Y171716D01*
X12818Y228284D02*
X12818Y228284D01*
X150500Y113000D02*
Y129000D01*
X124250Y129000D02*
X150500Y129000D01*
X124250Y113000D02*
Y129000D01*
Y113000D02*
X150500Y113000D01*
X-303750Y-185500D02*
Y-159250D01*
X-319750Y-185500D02*
X-303750D01*
X-319750D02*
Y-159250D01*
X-303750D01*
X80540Y181104D02*
X91854Y169790D01*
X110415Y188351D01*
X99101Y199665D02*
X110415Y188351D01*
X80540Y181104D02*
X99101Y199665D01*
X251000Y-401500D02*
X283000D01*
X251000Y-350500D02*
X283000D01*
X-51842Y196722D02*
X-33280Y215283D01*
X-21967Y203970D01*
X-40528Y185408D02*
X-21967Y203970D01*
X-51842Y196722D02*
X-40528Y185408D01*
D15*
X230165Y153331D02*
X228498Y154997D01*
X225166D01*
X223500Y153331D01*
Y151664D01*
X225166Y149998D01*
X228498D01*
X230165Y148332D01*
Y146666D01*
X228498Y145000D01*
X225166D01*
X223500Y146666D01*
X233497Y145000D02*
Y154997D01*
X240161Y145000D01*
Y154997D01*
X243493Y151664D02*
X245160D01*
Y149998D01*
X243493D01*
Y151664D01*
Y146666D02*
X245160D01*
Y145000D01*
X243493D01*
Y146666D01*
D16*
X157845Y310716D02*
X146535Y299406D01*
X152190Y305061D01*
X159730Y297521D01*
X165385Y303176D01*
X154075Y291866D01*
X159730Y286211D02*
X163500Y282441D01*
X167271D01*
X171040Y286211D01*
Y289981D01*
X167271Y293751D01*
X163500D01*
X159730Y289981D01*
Y286211D01*
X169155Y276786D02*
X176695Y284326D01*
X178580Y282441D01*
Y278671D01*
X172925Y273016D01*
X178580Y278671D01*
X182351D01*
Y274901D01*
X176695Y269246D01*
X186120Y259821D02*
X182351Y263591D01*
Y267361D01*
X186120Y271131D01*
X189890D01*
X193661Y267361D01*
Y263591D01*
X191775Y261706D01*
X184235Y269246D01*
X203086Y265476D02*
X191775Y254166D01*
X197431Y248511D01*
X201201D01*
X203086Y250396D01*
Y254166D01*
X197431Y259821D01*
X203086Y254166D01*
X206856D01*
X208741Y256051D01*
Y259821D01*
X203086Y265476D01*
X210626Y250396D02*
X204971Y244741D01*
Y240971D01*
X210626Y235316D01*
X218166Y242856D01*
X225706Y239086D02*
X223821Y237201D01*
X221936Y239086D01*
X225706Y235316D01*
X223821Y237201D01*
X218166Y231546D01*
Y227775D01*
X235131Y229661D02*
X233246Y227776D01*
X231361Y229661D01*
X235131Y225891D01*
X233246Y227776D01*
X227591Y222120D01*
Y218351D01*
X235131Y210811D02*
X238901Y207041D01*
X242671D01*
X246441Y210811D01*
Y214580D01*
X242671Y218351D01*
X238901D01*
X235131Y214580D01*
Y210811D01*
X244556Y201385D02*
X252096Y208925D01*
X257751Y203270D01*
Y199501D01*
X252096Y193845D01*
X255866Y190075D02*
X261521Y184420D01*
X265291D01*
Y188190D01*
X261521Y191960D01*
Y195730D01*
X265291D01*
X270946Y190075D01*
D17*
X306000Y114000D02*
D03*
M02*
