G04*
G04 #@! TF.GenerationSoftware,Altium Limited,Altium Designer,22.2.1 (43)*
G04*
G04 Layer_Color=16711935*
%FSLAX44Y44*%
%MOMM*%
G71*
G04*
G04 #@! TF.SameCoordinates,13086E6C-73B7-4856-AC7F-9DC760E3CE82*
G04*
G04*
G04 #@! TF.FilePolarity,Negative*
G04*
G01*
G75*
%ADD94C,0.2960*%
%ADD95C,0.2032*%
%ADD96C,1.7032*%
%ADD97O,1.4000X2.2000*%
%ADD98O,1.2000X2.0000*%
%ADD99C,0.1000*%
%ADD139R,1.2000X1.0000*%
D94*
X0Y360000D02*
D03*
X-380000Y-383000D02*
D03*
X380000D02*
D03*
D95*
X350000Y265500D02*
D03*
X-350000Y-180500D02*
D03*
X350000D02*
D03*
Y42500D02*
D03*
X-350000Y265500D02*
D03*
X197297Y-319550D02*
D03*
X251897Y-148745D02*
D03*
X-251897Y128745D02*
D03*
X-350000Y42500D02*
D03*
D96*
X44921Y216829D02*
D03*
X62882Y234790D02*
D03*
X42093Y249922D02*
D03*
X26960Y270711D02*
D03*
X24132Y231961D02*
D03*
X-8960Y306632D02*
D03*
X-26921Y288671D02*
D03*
X6172Y285843D02*
D03*
X9000Y252750D02*
D03*
X-11789Y267882D02*
D03*
D97*
X-192000Y-393500D02*
D03*
X-278000D02*
D03*
D98*
X-192000Y-349199D02*
D03*
X-278000D02*
D03*
D99*
X-263900Y-354200D02*
D03*
X-206100D02*
D03*
D139*
X-293250Y246000D02*
D03*
X-331750D02*
D03*
X-293250Y285000D02*
D03*
X-331750D02*
D03*
X-293250Y23000D02*
D03*
X-331750D02*
D03*
X-293250Y62000D02*
D03*
X-331750D02*
D03*
X-293250Y-200000D02*
D03*
X-331750D02*
D03*
X-293250Y-161000D02*
D03*
X-331750D02*
D03*
X293250D02*
D03*
X331750D02*
D03*
X293250Y-200000D02*
D03*
X331750D02*
D03*
X293250Y62000D02*
D03*
X331750D02*
D03*
X293250Y23000D02*
D03*
X331750D02*
D03*
X293250Y285000D02*
D03*
X331750D02*
D03*
X293250Y246000D02*
D03*
X331750D02*
D03*
M02*
