G04*
G04 #@! TF.GenerationSoftware,Altium Limited,Altium Designer,22.2.1 (43)*
G04*
G04 Layer_Physical_Order=1*
G04 Layer_Color=255*
%FSLAX44Y44*%
%MOMM*%
G71*
G04*
G04 #@! TF.SameCoordinates,F22D7B0F-2773-4D4D-AF8D-6C822D1F900A*
G04*
G04*
G04 #@! TF.FilePolarity,Positive*
G04*
G01*
G75*
%ADD11C,0.2000*%
%ADD12C,0.6000*%
%ADD15C,0.4000*%
%ADD16C,0.3000*%
G04:AMPARAMS|DCode=21|XSize=1.1082mm|YSize=0.7821mm|CornerRadius=0.3911mm|HoleSize=0mm|Usage=FLASHONLY|Rotation=225.000|XOffset=0mm|YOffset=0mm|HoleType=Round|Shape=RoundedRectangle|*
%AMROUNDEDRECTD21*
21,1,1.1082,0.0000,0,0,225.0*
21,1,0.3261,0.7821,0,0,225.0*
1,1,0.7821,-0.1153,-0.1153*
1,1,0.7821,0.1153,0.1153*
1,1,0.7821,0.1153,0.1153*
1,1,0.7821,-0.1153,-0.1153*
%
%ADD21ROUNDEDRECTD21*%
G04:AMPARAMS|DCode=22|XSize=1.1082mm|YSize=0.7821mm|CornerRadius=0mm|HoleSize=0mm|Usage=FLASHONLY|Rotation=225.000|XOffset=0mm|YOffset=0mm|HoleType=Round|Shape=Rectangle|*
%AMROTATEDRECTD22*
4,1,4,0.1153,0.6683,0.6683,0.1153,-0.1153,-0.6683,-0.6683,-0.1153,0.1153,0.6683,0.0*
%
%ADD22ROTATEDRECTD22*%

G04:AMPARAMS|DCode=31|XSize=1.1082mm|YSize=0.7821mm|CornerRadius=0.3911mm|HoleSize=0mm|Usage=FLASHONLY|Rotation=315.000|XOffset=0mm|YOffset=0mm|HoleType=Round|Shape=RoundedRectangle|*
%AMROUNDEDRECTD31*
21,1,1.1082,0.0000,0,0,315.0*
21,1,0.3261,0.7821,0,0,315.0*
1,1,0.7821,0.1153,-0.1153*
1,1,0.7821,-0.1153,0.1153*
1,1,0.7821,-0.1153,0.1153*
1,1,0.7821,0.1153,-0.1153*
%
%ADD31ROUNDEDRECTD31*%
G04:AMPARAMS|DCode=32|XSize=1.1082mm|YSize=0.7821mm|CornerRadius=0mm|HoleSize=0mm|Usage=FLASHONLY|Rotation=315.000|XOffset=0mm|YOffset=0mm|HoleType=Round|Shape=Rectangle|*
%AMROTATEDRECTD32*
4,1,4,-0.6683,0.1153,-0.1153,0.6683,0.6683,-0.1153,0.1153,-0.6683,-0.6683,0.1153,0.0*
%
%ADD32ROTATEDRECTD32*%

G04:AMPARAMS|DCode=37|XSize=0.6654mm|YSize=0.6725mm|CornerRadius=0mm|HoleSize=0mm|Usage=FLASHONLY|Rotation=45.000|XOffset=0mm|YOffset=0mm|HoleType=Round|Shape=Rectangle|*
%AMROTATEDRECTD37*
4,1,4,0.0025,-0.4730,-0.4730,0.0025,-0.0025,0.4730,0.4730,-0.0025,0.0025,-0.4730,0.0*
%
%ADD37ROTATEDRECTD37*%

G04:AMPARAMS|DCode=38|XSize=1.5052mm|YSize=0.5721mm|CornerRadius=0.2861mm|HoleSize=0mm|Usage=FLASHONLY|Rotation=225.000|XOffset=0mm|YOffset=0mm|HoleType=Round|Shape=RoundedRectangle|*
%AMROUNDEDRECTD38*
21,1,1.5052,0.0000,0,0,225.0*
21,1,0.9331,0.5721,0,0,225.0*
1,1,0.5721,-0.3299,-0.3299*
1,1,0.5721,0.3299,0.3299*
1,1,0.5721,0.3299,0.3299*
1,1,0.5721,-0.3299,-0.3299*
%
%ADD38ROUNDEDRECTD38*%
G04:AMPARAMS|DCode=39|XSize=1.5052mm|YSize=0.5721mm|CornerRadius=0mm|HoleSize=0mm|Usage=FLASHONLY|Rotation=225.000|XOffset=0mm|YOffset=0mm|HoleType=Round|Shape=Rectangle|*
%AMROTATEDRECTD39*
4,1,4,0.3299,0.7345,0.7345,0.3299,-0.3299,-0.7345,-0.7345,-0.3299,0.3299,0.7345,0.0*
%
%ADD39ROTATEDRECTD39*%

%ADD40R,1.7582X1.3055*%
%ADD46R,0.9121X0.9581*%
%ADD47R,0.6654X0.6725*%
G04:AMPARAMS|DCode=48|XSize=0.9581mm|YSize=0.9121mm|CornerRadius=0mm|HoleSize=0mm|Usage=FLASHONLY|Rotation=315.000|XOffset=0mm|YOffset=0mm|HoleType=Round|Shape=Rectangle|*
%AMROTATEDRECTD48*
4,1,4,-0.6612,0.0163,-0.0163,0.6612,0.6612,-0.0163,0.0163,-0.6612,-0.6612,0.0163,0.0*
%
%ADD48ROTATEDRECTD48*%

G04:AMPARAMS|DCode=49|XSize=0.9581mm|YSize=0.9121mm|CornerRadius=0mm|HoleSize=0mm|Usage=FLASHONLY|Rotation=45.000|XOffset=0mm|YOffset=0mm|HoleType=Round|Shape=Rectangle|*
%AMROTATEDRECTD49*
4,1,4,-0.0163,-0.6612,-0.6612,-0.0163,0.0163,0.6612,0.6612,0.0163,-0.0163,-0.6612,0.0*
%
%ADD49ROTATEDRECTD49*%

%ADD52R,1.5052X0.5721*%
G04:AMPARAMS|DCode=53|XSize=1.5052mm|YSize=0.5721mm|CornerRadius=0.2861mm|HoleSize=0mm|Usage=FLASHONLY|Rotation=0.000|XOffset=0mm|YOffset=0mm|HoleType=Round|Shape=RoundedRectangle|*
%AMROUNDEDRECTD53*
21,1,1.5052,0.0000,0,0,0.0*
21,1,0.9331,0.5721,0,0,0.0*
1,1,0.5721,0.4666,0.0000*
1,1,0.5721,-0.4666,0.0000*
1,1,0.5721,-0.4666,0.0000*
1,1,0.5721,0.4666,0.0000*
%
%ADD53ROUNDEDRECTD53*%
%ADD55R,1.1082X0.7821*%
G04:AMPARAMS|DCode=56|XSize=1.1082mm|YSize=0.7821mm|CornerRadius=0.3911mm|HoleSize=0mm|Usage=FLASHONLY|Rotation=0.000|XOffset=0mm|YOffset=0mm|HoleType=Round|Shape=RoundedRectangle|*
%AMROUNDEDRECTD56*
21,1,1.1082,0.0000,0,0,0.0*
21,1,0.3261,0.7821,0,0,0.0*
1,1,0.7821,0.1631,0.0000*
1,1,0.7821,-0.1631,0.0000*
1,1,0.7821,-0.1631,0.0000*
1,1,0.7821,0.1631,0.0000*
%
%ADD56ROUNDEDRECTD56*%
%ADD58R,1.3055X1.7582*%
%ADD59R,0.9581X0.9121*%
G04:AMPARAMS|DCode=61|XSize=1.3055mm|YSize=1.7582mm|CornerRadius=0mm|HoleSize=0mm|Usage=FLASHONLY|Rotation=135.000|XOffset=0mm|YOffset=0mm|HoleType=Round|Shape=Rectangle|*
%AMROTATEDRECTD61*
4,1,4,1.0832,0.1601,-0.1601,-1.0832,-1.0832,-0.1601,0.1601,1.0832,1.0832,0.1601,0.0*
%
%ADD61ROTATEDRECTD61*%

%ADD64R,1.3549X2.7062*%
G04:AMPARAMS|DCode=66|XSize=1.4546mm|YSize=1.5562mm|CornerRadius=0mm|HoleSize=0mm|Usage=FLASHONLY|Rotation=315.000|XOffset=0mm|YOffset=0mm|HoleType=Round|Shape=Rectangle|*
%AMROTATEDRECTD66*
4,1,4,-1.0645,-0.0359,0.0359,1.0645,1.0645,0.0359,-0.0359,-1.0645,-1.0645,-0.0359,0.0*
%
%ADD66ROTATEDRECTD66*%

%ADD67R,1.5562X1.4546*%
%ADD99R,1.6000X0.7000*%
%ADD106C,0.3352*%
%ADD107R,0.9500X0.8000*%
%ADD108C,1.0000*%
G04:AMPARAMS|DCode=109|XSize=0.95mm|YSize=0.8mm|CornerRadius=0mm|HoleSize=0mm|Usage=FLASHONLY|Rotation=225.000|XOffset=0mm|YOffset=0mm|HoleType=Round|Shape=Rectangle|*
%AMROTATEDRECTD109*
4,1,4,0.0530,0.6187,0.6187,0.0530,-0.0530,-0.6187,-0.6187,-0.0530,0.0530,0.6187,0.0*
%
%ADD109ROTATEDRECTD109*%

G04:AMPARAMS|DCode=110|XSize=0.8mm|YSize=0.4mm|CornerRadius=0mm|HoleSize=0mm|Usage=FLASHONLY|Rotation=45.000|XOffset=0mm|YOffset=0mm|HoleType=Round|Shape=Rectangle|*
%AMROTATEDRECTD110*
4,1,4,-0.1414,-0.4243,-0.4243,-0.1414,0.1414,0.4243,0.4243,0.1414,-0.1414,-0.4243,0.0*
%
%ADD110ROTATEDRECTD110*%

%ADD111P,1.1314X4X90.0*%
G04:AMPARAMS|DCode=112|XSize=0.4mm|YSize=0.8mm|CornerRadius=0mm|HoleSize=0mm|Usage=FLASHONLY|Rotation=45.000|XOffset=0mm|YOffset=0mm|HoleType=Round|Shape=Rectangle|*
%AMROTATEDRECTD112*
4,1,4,0.1414,-0.4243,-0.4243,0.1414,-0.1414,0.4243,0.4243,-0.1414,0.1414,-0.4243,0.0*
%
%ADD112ROTATEDRECTD112*%

%ADD113P,1.6971X4X90.0*%
%ADD114P,0.8485X4X90.0*%
G04:AMPARAMS|DCode=115|XSize=3mm|YSize=4.2mm|CornerRadius=0mm|HoleSize=0mm|Usage=FLASHONLY|Rotation=45.000|XOffset=0mm|YOffset=0mm|HoleType=Round|Shape=Rectangle|*
%AMROTATEDRECTD115*
4,1,4,0.4243,-2.5456,-2.5456,0.4243,-0.4243,2.5456,2.5456,-0.4243,0.4243,-2.5456,0.0*
%
%ADD115ROTATEDRECTD115*%

G04:AMPARAMS|DCode=116|XSize=3mm|YSize=7mm|CornerRadius=0mm|HoleSize=0mm|Usage=FLASHONLY|Rotation=45.000|XOffset=0mm|YOffset=0mm|HoleType=Round|Shape=Rectangle|*
%AMROTATEDRECTD116*
4,1,4,1.4142,-3.5355,-3.5355,1.4142,-1.4142,3.5355,3.5355,-1.4142,1.4142,-3.5355,0.0*
%
%ADD116ROTATEDRECTD116*%

G04:AMPARAMS|DCode=117|XSize=0.95mm|YSize=0.8mm|CornerRadius=0mm|HoleSize=0mm|Usage=FLASHONLY|Rotation=135.000|XOffset=0mm|YOffset=0mm|HoleType=Round|Shape=Rectangle|*
%AMROTATEDRECTD117*
4,1,4,0.6187,-0.0530,0.0530,-0.6187,-0.6187,0.0530,-0.0530,0.6187,0.6187,-0.0530,0.0*
%
%ADD117ROTATEDRECTD117*%

%ADD118P,1.1314X4X360.0*%
%ADD119R,0.6000X1.0500*%
%ADD120R,0.8000X0.9500*%
%ADD121R,1.5000X1.0000*%
%ADD122P,1.4142X4X360.0*%
%ADD123R,2.0000X3.0000*%
%ADD124R,0.3000X1.5000*%
G04:AMPARAMS|DCode=125|XSize=0.6mm|YSize=1.45mm|CornerRadius=0mm|HoleSize=0mm|Usage=FLASHONLY|Rotation=315.000|XOffset=0mm|YOffset=0mm|HoleType=Round|Shape=Round|*
%AMOVALD125*
21,1,0.8500,0.6000,0.0000,0.0000,45.0*
1,1,0.6000,-0.3005,-0.3005*
1,1,0.6000,0.3005,0.3005*
%
%ADD125OVALD125*%

G04:AMPARAMS|DCode=126|XSize=6.5mm|YSize=7mm|CornerRadius=0mm|HoleSize=0mm|Usage=FLASHONLY|Rotation=315.000|XOffset=0mm|YOffset=0mm|HoleType=Round|Shape=Rectangle|*
%AMROTATEDRECTD126*
4,1,4,-4.7730,-0.1768,0.1768,4.7730,4.7730,0.1768,-0.1768,-4.7730,-4.7730,-0.1768,0.0*
%
%ADD126ROTATEDRECTD126*%

%ADD127R,1.0000X1.0000*%
%ADD128R,1.0500X0.9000*%
%ADD129R,1.0000X1.0000*%
%ADD130P,1.4142X4X90.0*%
%ADD131R,2.5200X3.4100*%
%ADD132O,1.4500X0.6000*%
G04:AMPARAMS|DCode=133|XSize=1.7mm|YSize=1mm|CornerRadius=0mm|HoleSize=0mm|Usage=FLASHONLY|Rotation=135.000|XOffset=0mm|YOffset=0mm|HoleType=Round|Shape=Rectangle|*
%AMROTATEDRECTD133*
4,1,4,0.9546,-0.2475,0.2475,-0.9546,-0.9546,0.2475,-0.2475,0.9546,0.9546,-0.2475,0.0*
%
%ADD133ROTATEDRECTD133*%

%ADD134R,0.3200X1.5000*%
%ADD135R,0.3500X0.5500*%
%ADD136C,0.8000*%
%ADD137C,0.5000*%
%ADD138C,1.0000*%
%ADD139C,0.2512*%
%ADD140C,1.5000*%
%ADD141O,1.3000X2.1000*%
%ADD142O,1.1000X1.9000*%
%ADD143C,0.5000*%
%ADD144C,0.6000*%
G36*
X184410Y374616D02*
X185522Y372930D01*
X186746Y371324D01*
X188074Y369803D01*
X188788Y369090D01*
X189830Y368047D01*
X192109Y366177D01*
X194560Y364539D01*
X197160Y363149D01*
X199884Y362021D01*
X202705Y361166D01*
X205596Y360591D01*
X208530Y360302D01*
X210004Y360302D01*
X225239D01*
Y360302D01*
X225241Y360302D01*
X225243D01*
X225245Y360302D01*
X225247Y360302D01*
X225249Y360302D01*
X225252Y360302D01*
X225253D01*
X225255Y360302D01*
X227738Y360304D01*
X251327Y360327D01*
X262690Y349752D01*
X263984Y347988D01*
X267210Y345034D01*
X270950Y342766D01*
X275061Y341271D01*
X277223Y340939D01*
X345576Y340939D01*
X360500Y326015D01*
Y290378D01*
X359000Y288500D01*
X341000D01*
Y281549D01*
X338500D01*
X337525Y281355D01*
X336698Y280802D01*
X327395Y271500D01*
X320000D01*
Y259000D01*
X331000D01*
Y260102D01*
X333500Y260599D01*
X334081Y259196D01*
X336085Y256585D01*
X338696Y254581D01*
X340500Y253834D01*
Y250000D01*
X350000D01*
Y248000D01*
X340500D01*
Y242000D01*
X350001D01*
X350957Y239690D01*
X342556Y231289D01*
X342556Y231289D01*
X342054Y230787D01*
X341098Y229739D01*
X340193Y228646D01*
X339341Y227511D01*
X338942Y226925D01*
X323306Y211289D01*
X323306Y211289D01*
X322262Y210246D01*
X320388Y207966D01*
X318747Y205513D01*
X317354Y202912D01*
X316224Y200186D01*
X315366Y197362D01*
X314790Y194468D01*
X314500Y191531D01*
X314500Y190055D01*
Y135555D01*
Y134080D01*
X314790Y131143D01*
X315366Y128249D01*
X316224Y125425D01*
X317354Y122699D01*
X318747Y120097D01*
X320388Y117644D01*
X322262Y115364D01*
X323306Y114322D01*
X340363Y97264D01*
X340363Y97264D01*
X340620Y96944D01*
X341152Y96318D01*
X341701Y95707D01*
X342266Y95112D01*
X342556Y94822D01*
X360500Y76877D01*
Y67379D01*
X359000Y65500D01*
X341000D01*
Y58549D01*
X338500D01*
X337524Y58355D01*
X336698Y57802D01*
X327895Y49000D01*
X320500D01*
Y36500D01*
X331500D01*
Y36500D01*
X333978Y36446D01*
X334081Y36196D01*
X336085Y33585D01*
X338696Y31581D01*
X340500Y30834D01*
Y27000D01*
X350000D01*
Y26000D01*
X351000D01*
Y19000D01*
X358000D01*
X360500Y16914D01*
X360500Y-155622D01*
X359000Y-157500D01*
X341000D01*
Y-161316D01*
X338500Y-161395D01*
X332049Y-154944D01*
Y-112000D01*
X331855Y-111025D01*
X331302Y-110198D01*
X330214Y-109110D01*
X332831Y-106493D01*
X325053Y-98715D01*
X317927Y-105840D01*
X316815Y-105698D01*
X316380Y-103853D01*
X323285Y-96947D01*
X315507Y-89169D01*
X314845Y-89831D01*
X313954Y-89782D01*
X311941Y-89200D01*
X311384Y-88366D01*
X310061Y-87482D01*
X308500Y-87172D01*
X306939Y-87482D01*
X305616Y-88366D01*
X304732Y-89689D01*
X304422Y-91250D01*
X304732Y-92811D01*
X305616Y-94134D01*
X305655Y-96288D01*
X303058Y-96549D01*
X301015Y-94506D01*
X299527Y-93511D01*
X297771Y-93162D01*
X292193D01*
X291237Y-90852D01*
X296078Y-86010D01*
X298053Y-84743D01*
X298260Y-84536D01*
X301589Y-81207D01*
X296816Y-76434D01*
X297523Y-75727D01*
X296816Y-75020D01*
X301059Y-70777D01*
X298233Y-67952D01*
X296993Y-66711D01*
X295536Y-65605D01*
X294964Y-63424D01*
Y-62640D01*
X299552Y-58052D01*
X300105Y-57225D01*
X300299Y-56250D01*
Y-25578D01*
X300105Y-24603D01*
X299552Y-23776D01*
X280799Y-5023D01*
Y-750D01*
X280605Y225D01*
X280052Y1052D01*
X259654Y21451D01*
X260689Y23951D01*
X266194D01*
X274198Y15948D01*
X275025Y15395D01*
X276000Y15201D01*
X287500D01*
X288475Y15395D01*
X289302Y15948D01*
X309855Y36500D01*
X318000D01*
Y49000D01*
X307000D01*
Y40837D01*
X306948Y40802D01*
X287745Y21600D01*
X284562Y21790D01*
X283828Y22750D01*
X283518Y24311D01*
X282634Y25634D01*
X282299Y25858D01*
Y30000D01*
X286000D01*
X286000Y40707D01*
X286500Y43000D01*
X286500Y43293D01*
Y48000D01*
X279750D01*
Y49000D01*
X278750D01*
Y55000D01*
X275043D01*
X273000Y55000D01*
X270707Y54500D01*
X260390D01*
X258722Y56367D01*
X273556Y71201D01*
X289892D01*
X290116Y70866D01*
X291439Y69982D01*
X293000Y69672D01*
X294561Y69982D01*
X295884Y70866D01*
X296768Y72189D01*
X297078Y73750D01*
X296768Y75311D01*
X295884Y76634D01*
X294561Y77518D01*
X293000Y77828D01*
X291439Y77518D01*
X290116Y76634D01*
X289892Y76299D01*
X272500D01*
X271525Y76105D01*
X270698Y75552D01*
X250194Y55049D01*
X220806D01*
X207000Y68855D01*
X207078Y69250D01*
X207000Y69645D01*
X214306Y76951D01*
X216500D01*
X217475Y77145D01*
X218302Y77698D01*
X229302Y88698D01*
X229855Y89524D01*
X230049Y90500D01*
Y132200D01*
X229855Y133175D01*
X229302Y134002D01*
X212002Y151302D01*
X211175Y151855D01*
X210200Y152049D01*
X199056D01*
X192302Y158802D01*
X191476Y159355D01*
X190500Y159549D01*
X186358D01*
X186134Y159884D01*
X184811Y160768D01*
X183250Y161078D01*
X182855Y161000D01*
X180799Y163056D01*
Y241295D01*
X201955Y262451D01*
X216694D01*
X217948Y261198D01*
X218775Y260645D01*
X219750Y260451D01*
X231642D01*
X231866Y260116D01*
X233189Y259232D01*
X234750Y258922D01*
X236311Y259232D01*
X237634Y260116D01*
X238279Y261081D01*
X240010Y261625D01*
X241131Y261764D01*
X256698Y246198D01*
X257525Y245645D01*
X258500Y245451D01*
X264944D01*
X273198Y237198D01*
X274025Y236645D01*
X275000Y236451D01*
X285750D01*
X286726Y236645D01*
X287552Y237198D01*
X309355Y259000D01*
X317500D01*
Y271500D01*
X306500D01*
Y263337D01*
X306448Y263302D01*
X286045Y242900D01*
X283571Y243785D01*
X283439Y244049D01*
X283578Y244750D01*
X283268Y246311D01*
X282384Y247634D01*
X282049Y247858D01*
Y253000D01*
X286000D01*
X286000Y263707D01*
X286500Y266000D01*
X286500Y266293D01*
Y271000D01*
X279750D01*
Y273000D01*
X286500D01*
X286500Y278000D01*
X288710Y278701D01*
X289250D01*
X290226Y278895D01*
X291052Y279448D01*
X294802Y283198D01*
X295355Y284025D01*
X295549Y285000D01*
Y293142D01*
X295884Y293366D01*
X296768Y294689D01*
X297078Y296250D01*
X296768Y297811D01*
X295884Y299134D01*
X294561Y300018D01*
X293000Y300328D01*
X291439Y300018D01*
X290116Y299134D01*
X289232Y297811D01*
X288922Y296250D01*
X289232Y294689D01*
X290116Y293366D01*
X290451Y293142D01*
Y286056D01*
X288194Y283799D01*
X254031D01*
X253055Y283605D01*
X252229Y283052D01*
X249475Y280299D01*
X237858D01*
X237634Y280634D01*
X236311Y281518D01*
X234750Y281828D01*
X233189Y281518D01*
X231866Y280634D01*
X230982Y279311D01*
X230672Y277750D01*
X230811Y277049D01*
X229547Y274957D01*
X229071Y274549D01*
X198000D01*
X197024Y274355D01*
X196198Y273802D01*
X169448Y247052D01*
X168895Y246225D01*
X168701Y245250D01*
Y152306D01*
X164944Y148549D01*
X157012D01*
X156433Y149176D01*
X155389Y151049D01*
X155578Y152000D01*
X155268Y153561D01*
X154384Y154884D01*
X153061Y155768D01*
X151500Y156078D01*
X149939Y155768D01*
X148616Y154884D01*
X148559Y154799D01*
X117127D01*
Y158691D01*
X116856Y160057D01*
X116082Y161215D01*
X98619Y178677D01*
X108824Y188882D01*
X103200Y194506D01*
Y220368D01*
X102929Y221734D01*
X102155Y222892D01*
X27273Y297773D01*
X26116Y298547D01*
X24750Y298819D01*
X15579D01*
X14213Y298547D01*
X13056Y297773D01*
X9491Y294209D01*
X8521Y294611D01*
X6172Y294920D01*
X3822Y294611D01*
X1633Y293704D01*
X-247Y292262D01*
X-1690Y290381D01*
X-2597Y288192D01*
X-2906Y285843D01*
X-2597Y283493D01*
X-1690Y281304D01*
X-247Y279424D01*
X1633Y277981D01*
X3822Y277074D01*
X6172Y276765D01*
X8521Y277074D01*
X10710Y277981D01*
X12590Y279424D01*
X14033Y281304D01*
X14940Y283493D01*
X15249Y285843D01*
X14940Y288192D01*
X14538Y289162D01*
X17057Y291681D01*
X23272D01*
X96063Y218890D01*
Y194506D01*
X90439Y188882D01*
X82308Y180750D01*
X91500Y171558D01*
X93573Y173631D01*
X109990Y157213D01*
Y153823D01*
X109982Y153811D01*
X109672Y152250D01*
X109910Y151049D01*
X109504Y150040D01*
X108405Y148549D01*
X92205D01*
X79952Y160802D01*
X79125Y161355D01*
X78149Y161549D01*
X49500D01*
X48524Y161355D01*
X47698Y160802D01*
X-19306Y93799D01*
X-33404D01*
X-33810Y94070D01*
X-35261Y96299D01*
X-35172Y96750D01*
X-35482Y98311D01*
X-36366Y99634D01*
X-36701Y99858D01*
Y109694D01*
X64684Y211079D01*
X65237Y211906D01*
X65430Y212882D01*
Y226104D01*
X67420Y226928D01*
X69300Y228371D01*
X70743Y230251D01*
X71650Y232440D01*
X71959Y234790D01*
X71650Y237139D01*
X70743Y239328D01*
X69300Y241208D01*
X67420Y242651D01*
X65231Y243558D01*
X62882Y243867D01*
X60532Y243558D01*
X58343Y242651D01*
X56463Y241208D01*
X55020Y239328D01*
X54113Y237139D01*
X53804Y234790D01*
X54113Y232440D01*
X55020Y230251D01*
X56463Y228371D01*
X58343Y226928D01*
X60110Y226196D01*
Y223794D01*
X57833Y222851D01*
X46920Y233764D01*
X46093Y234316D01*
X45117Y234510D01*
X32818D01*
X31994Y236500D01*
X30551Y238380D01*
X28671Y239823D01*
X26482Y240729D01*
X24132Y241039D01*
X22747Y240856D01*
X21579Y243224D01*
X28763Y250408D01*
X29316Y251235D01*
X29509Y252211D01*
Y262025D01*
X31499Y262849D01*
X33379Y264292D01*
X34822Y266172D01*
X35729Y268361D01*
X36038Y270711D01*
X35729Y273060D01*
X34822Y275249D01*
X33379Y277129D01*
X31499Y278572D01*
X29310Y279479D01*
X26960Y279788D01*
X24611Y279479D01*
X22422Y278572D01*
X20542Y277129D01*
X19099Y275249D01*
X18192Y273060D01*
X17883Y270711D01*
X18192Y268361D01*
X19099Y266172D01*
X20542Y264292D01*
X22422Y262849D01*
X24412Y262025D01*
Y253266D01*
X19717Y248571D01*
X17597Y249988D01*
X17768Y250401D01*
X18078Y252750D01*
X17768Y255099D01*
X16861Y257289D01*
X15419Y259169D01*
X13539Y260611D01*
X11350Y261518D01*
X9000Y261828D01*
X6651Y261518D01*
X5399Y261000D01*
X4338Y261451D01*
X3297Y262270D01*
X3049Y262624D01*
Y271500D01*
X2855Y272475D01*
X2302Y273302D01*
X-14619Y290223D01*
X-15445Y290776D01*
X-16421Y290970D01*
X-18146D01*
X-18153Y291021D01*
X-19060Y293210D01*
X-20502Y295090D01*
X-22382Y296532D01*
X-24571Y297439D01*
X-26921Y297749D01*
X-29271Y297439D01*
X-31460Y296532D01*
X-33340Y295090D01*
X-34783Y293210D01*
X-35689Y291021D01*
X-35999Y288671D01*
X-35689Y286322D01*
X-34783Y284132D01*
X-33340Y282252D01*
X-31460Y280810D01*
X-29271Y279903D01*
X-26921Y279593D01*
X-24571Y279903D01*
X-22382Y280810D01*
X-20502Y282252D01*
X-19152Y284012D01*
X-19009Y284140D01*
X-16173Y284568D01*
X-10979Y279375D01*
X-11535Y277718D01*
X-12064Y276924D01*
X-14138Y276650D01*
X-16328Y275744D01*
X-18208Y274301D01*
X-19650Y272421D01*
X-20557Y270231D01*
X-20867Y267882D01*
X-20557Y265533D01*
X-19650Y263343D01*
X-19153Y262695D01*
X-20302Y261546D01*
X-20855Y260719D01*
X-21049Y259744D01*
Y240946D01*
X-23549Y239757D01*
X-23939Y240018D01*
X-25500Y240328D01*
X-27061Y240018D01*
X-28384Y239134D01*
X-29268Y237811D01*
X-29578Y236250D01*
X-29268Y234689D01*
X-28384Y233366D01*
X-28049Y233142D01*
Y212806D01*
X-29956Y210899D01*
X-32750Y213692D01*
X-40847Y205595D01*
X-56201Y220949D01*
Y279694D01*
X-1444Y334451D01*
X14210D01*
X14822Y332972D01*
X15864Y331614D01*
X17222Y330572D01*
X18803Y329917D01*
X20500Y329694D01*
X22197Y329917D01*
X23778Y330572D01*
X25136Y331614D01*
X26178Y332972D01*
X26790Y334451D01*
X58753D01*
X59728Y334645D01*
X60555Y335198D01*
X65893Y340535D01*
X73636Y332792D01*
X82828Y341984D01*
X68686Y356126D01*
X59494Y346934D01*
X62288Y344140D01*
X57697Y339549D01*
X26162D01*
X25136Y340886D01*
X23778Y341928D01*
X22197Y342583D01*
X20500Y342806D01*
X18803Y342583D01*
X17222Y341928D01*
X15864Y340886D01*
X14838Y339549D01*
X-2500D01*
X-3475Y339355D01*
X-4302Y338802D01*
X-60552Y282552D01*
X-61105Y281726D01*
X-61299Y280750D01*
Y219893D01*
X-61105Y218918D01*
X-60552Y218091D01*
X-44452Y201991D01*
X-50074Y196368D01*
X-47280Y193574D01*
X-128052Y112802D01*
X-128605Y111975D01*
X-128799Y111000D01*
Y104108D01*
X-129134Y103884D01*
X-130018Y102561D01*
X-130328Y101000D01*
X-130040Y99549D01*
X-130029Y99420D01*
X-131427Y97049D01*
X-144194D01*
X-153698Y106552D01*
X-154524Y107105D01*
X-155500Y107299D01*
X-163142D01*
X-163366Y107634D01*
X-164689Y108518D01*
X-166250Y108828D01*
X-168681Y110714D01*
Y223726D01*
X-124123Y268284D01*
X-122757Y266919D01*
X-120538Y269138D01*
X-117995Y266594D01*
X-120081Y264507D01*
X-111243Y255669D01*
X-103464Y263447D01*
X-112303Y272285D01*
X-114390Y270199D01*
X-116933Y272742D01*
X-113919Y275757D01*
X-121697Y283536D01*
X-130535Y274697D01*
X-129170Y273331D01*
X-174773Y227728D01*
X-175547Y226570D01*
X-175819Y225204D01*
Y165589D01*
X-178128Y164632D01*
X-237548Y224052D01*
X-238375Y224605D01*
X-239350Y224799D01*
X-254142D01*
X-254366Y225134D01*
X-255631Y225979D01*
X-255690Y226022D01*
X-256431Y228714D01*
X-246698Y238448D01*
X-246145Y239275D01*
X-245951Y240250D01*
Y242642D01*
X-245616Y242866D01*
X-244732Y244189D01*
X-244422Y245750D01*
X-244732Y247311D01*
X-245616Y248634D01*
X-246939Y249518D01*
X-248500Y249828D01*
X-250061Y249518D01*
X-251384Y248634D01*
X-252268Y247311D01*
X-252578Y245750D01*
X-252268Y244189D01*
X-251384Y242866D01*
X-251898Y240456D01*
X-259251Y233104D01*
X-260516Y233441D01*
X-261749Y234141D01*
X-261982Y235311D01*
X-262866Y236634D01*
X-264189Y237518D01*
X-265446Y237768D01*
X-266068Y238807D01*
X-266527Y240223D01*
X-230605Y276145D01*
X-252799Y298338D01*
X-246193Y304944D01*
X-188500D01*
X-186803Y305167D01*
X-185222Y305822D01*
X-183864Y306864D01*
X-171114Y319614D01*
X-166396Y324333D01*
X-165354Y325690D01*
X-164699Y327272D01*
X-164475Y328968D01*
X-164511Y329240D01*
X-163625Y330566D01*
X-163306Y332170D01*
X-162885Y332454D01*
X-160953Y333353D01*
X-159227Y331626D01*
X-158400Y331074D01*
X-157424Y330880D01*
X-155768D01*
X-154792Y331074D01*
X-154782Y331081D01*
X-152050Y328348D01*
X-140353Y340045D01*
X-137107Y340335D01*
X-131181Y334409D01*
Y334051D01*
X-142616Y322616D01*
X-142616Y322616D01*
X-151331Y313902D01*
X-151444Y314015D01*
X-154458Y311001D01*
X-154559Y310959D01*
X-155917Y309917D01*
X-156959Y308559D01*
X-157001Y308458D01*
X-160015Y305444D01*
X-157231Y302660D01*
X-156959Y302003D01*
X-155917Y300645D01*
X-154559Y299604D01*
X-153903Y299331D01*
X-151502Y296931D01*
X-149734Y295163D01*
X-149351Y294780D01*
X-140837Y286266D01*
X-140082Y284243D01*
Y284243D01*
X-132303Y276465D01*
X-123464Y285303D01*
X-131016Y292855D01*
X-132266Y294837D01*
Y294837D01*
X-134191Y296762D01*
X-131009Y299944D01*
X-130236Y301102D01*
X-130190Y301333D01*
X-129625Y301640D01*
X-126879Y300286D01*
X-126759Y299527D01*
X-127264Y298770D01*
X-127613Y297015D01*
X-127264Y295259D01*
X-126269Y293770D01*
X-124781Y292776D01*
X-123025Y292426D01*
X-121269Y292776D01*
X-120203Y293488D01*
X-120020Y293464D01*
X-119682Y293508D01*
X-119519Y293454D01*
X-117605Y291540D01*
X-117551Y291377D01*
X-117596Y291040D01*
X-117571Y290856D01*
X-118284Y289790D01*
X-118633Y288034D01*
X-118284Y286278D01*
X-117289Y284790D01*
X-115801Y283795D01*
X-114045Y283446D01*
X-112289Y283795D01*
X-111223Y284508D01*
X-111039Y284484D01*
X-109343Y284707D01*
X-107761Y285362D01*
X-106404Y286404D01*
X-99106Y293702D01*
X-96606Y292666D01*
Y288053D01*
X-104560Y280098D01*
X-104699Y279890D01*
X-110535Y274053D01*
X-101697Y265215D01*
X-93919Y272993D01*
X-99187Y278261D01*
X-92254Y285194D01*
X-91702Y286021D01*
X-91508Y286997D01*
Y311913D01*
X-91702Y312889D01*
X-92254Y313716D01*
X-113854Y335316D01*
Y340153D01*
X-114048Y341129D01*
X-114601Y341956D01*
X-140773Y368128D01*
X-141600Y368680D01*
X-142575Y368874D01*
X-161675D01*
X-162650Y368680D01*
X-163477Y368128D01*
X-173806Y357799D01*
X-183459D01*
X-184435Y357605D01*
X-185262Y357052D01*
X-185494Y356820D01*
X-187275Y358601D01*
X-192629Y353248D01*
X-194101Y351775D01*
X-195869Y350007D01*
X-201223Y344654D01*
X-194346Y337777D01*
X-193096Y339027D01*
X-181670Y327602D01*
X-191216Y318056D01*
X-248909D01*
X-250606Y317833D01*
X-252187Y317178D01*
X-253545Y316136D01*
X-262071Y307610D01*
X-284980Y330520D01*
X-338764Y276736D01*
X-341000Y277662D01*
Y285754D01*
X-340951Y286000D01*
X-341000Y286246D01*
Y288500D01*
X-343254D01*
X-343500Y288549D01*
X-343746Y288500D01*
X-347451D01*
Y291444D01*
X-344377Y294519D01*
X-341884Y294616D01*
X-340561Y293732D01*
X-339000Y293422D01*
X-337439Y293732D01*
X-336116Y294616D01*
X-335232Y295939D01*
X-334922Y297500D01*
X-335232Y299061D01*
X-336116Y300384D01*
X-337439Y301268D01*
X-339000Y301578D01*
X-340561Y301268D01*
X-341884Y300384D01*
X-342108Y300049D01*
X-345000D01*
X-345975Y299855D01*
X-346802Y299302D01*
X-351802Y294302D01*
X-352355Y293475D01*
X-352549Y292500D01*
Y288500D01*
X-357992D01*
X-360492Y290382D01*
Y324278D01*
X-344818Y339952D01*
X-282845D01*
X-281370Y339952D01*
X-278433Y340242D01*
X-275538Y340818D01*
X-272715Y341676D01*
X-269988Y342806D01*
X-267386Y344199D01*
X-264934Y345840D01*
X-262654Y347714D01*
X-261611Y348758D01*
X-250068Y360302D01*
X-209996D01*
X-208016Y360302D01*
X-204089Y360822D01*
X-200266Y361854D01*
X-196611Y363380D01*
X-193188Y365372D01*
X-190057Y367798D01*
X-187271Y370614D01*
X-184881Y373771D01*
X-184369Y374673D01*
X184377D01*
X184410Y374616D01*
D02*
G37*
G36*
X-21049Y209473D02*
Y190306D01*
X-77051Y134303D01*
X-77604Y133476D01*
X-77798Y132501D01*
Y99358D01*
X-78133Y99134D01*
X-79017Y97811D01*
X-79327Y96250D01*
X-81200Y93799D01*
X-86295D01*
X-88548Y96052D01*
X-89375Y96605D01*
X-90351Y96799D01*
X-90441D01*
X-90525Y96855D01*
X-91500Y97049D01*
X-121073D01*
X-122471Y99420D01*
X-122460Y99549D01*
X-122172Y101000D01*
X-122482Y102561D01*
X-123366Y103884D01*
X-123701Y104108D01*
Y109944D01*
X-43675Y189970D01*
X-40882Y187176D01*
X-32750Y195308D01*
X-23558Y204500D01*
X-26351Y207294D01*
X-23698Y209948D01*
X-23549Y210170D01*
X-21049Y209473D01*
D02*
G37*
G36*
X205589Y127750D02*
X204554Y125250D01*
X202000D01*
Y119250D01*
X201000D01*
Y118250D01*
X194250D01*
Y115646D01*
X194000Y113250D01*
X191750Y113250D01*
X182549D01*
Y117578D01*
X182355Y118554D01*
X181802Y119381D01*
X180631Y120552D01*
X179804Y121105D01*
X178828Y121299D01*
X177750D01*
Y127500D01*
X166750D01*
Y115000D01*
X177451D01*
Y111744D01*
X177291Y109311D01*
X174951Y109311D01*
X171500D01*
Y102750D01*
X169500D01*
Y109311D01*
X164544D01*
X163709Y109311D01*
X162153Y108971D01*
X161410Y110195D01*
X161105Y111275D01*
X161299Y112250D01*
Y115000D01*
X164250D01*
Y127500D01*
X153250D01*
Y115000D01*
X154360D01*
X155395Y112500D01*
X154158Y111263D01*
X153605Y110436D01*
X153411Y109460D01*
Y108811D01*
X149669D01*
Y106210D01*
X144869D01*
Y109843D01*
X145268Y110439D01*
X145578Y112000D01*
X145578Y112000D01*
Y114500D01*
X149500D01*
Y127500D01*
X138000D01*
Y127500D01*
X125000D01*
Y126608D01*
X120564D01*
X119608Y128917D01*
X121622Y130931D01*
X202408D01*
X205589Y127750D01*
D02*
G37*
G36*
X-261572Y222437D02*
X-261201Y221611D01*
X-261018Y220689D01*
X-260134Y219366D01*
X-258811Y218482D01*
X-257250Y218172D01*
X-255689Y218482D01*
X-254366Y219366D01*
X-254142Y219701D01*
X-240406D01*
X-179299Y158594D01*
Y110701D01*
X-181750Y108828D01*
X-183311Y108518D01*
X-184634Y107634D01*
X-184858Y107299D01*
X-193323D01*
X-194721Y109670D01*
X-194710Y109799D01*
X-194422Y111250D01*
X-194732Y112811D01*
X-195616Y114134D01*
X-196939Y115018D01*
X-198500Y115328D01*
X-198895Y115250D01*
X-204448Y120802D01*
X-205275Y121355D01*
X-206250Y121549D01*
X-222627D01*
X-223603Y121355D01*
X-224430Y120802D01*
X-244552Y100680D01*
X-245105Y99853D01*
X-245299Y98877D01*
Y88806D01*
X-249806Y84299D01*
X-258750D01*
Y88000D01*
X-269750D01*
Y78452D01*
X-271000Y77761D01*
X-272250Y78452D01*
Y88000D01*
X-275201D01*
Y101250D01*
X-275395Y102225D01*
X-275948Y103052D01*
X-276951Y104056D01*
Y213995D01*
X-266994Y223951D01*
X-263539D01*
X-261572Y222437D01*
D02*
G37*
G36*
X86448Y137198D02*
X87275Y136645D01*
X88250Y136451D01*
X113781D01*
X114738Y134141D01*
X87720Y107123D01*
X85716Y109127D01*
X87081Y110493D01*
X79712Y117862D01*
X78766Y119970D01*
X77296Y121439D01*
X74700Y124036D01*
X70457Y119793D01*
X69750Y120500D01*
X69043Y119793D01*
X64270Y124566D01*
X60942Y121237D01*
X60734Y121030D01*
X59467Y119056D01*
X59320Y118909D01*
X57477Y117065D01*
X54307Y120236D01*
X56363Y122291D01*
X58337Y123559D01*
X58927Y124149D01*
X62432Y127654D01*
X57793Y132293D01*
X53154Y136932D01*
X49649Y133427D01*
X49059Y132837D01*
X47791Y130863D01*
X39485Y122556D01*
X48056Y113985D01*
X50702Y116631D01*
X53872Y113461D01*
X51896Y111484D01*
X60734Y102646D01*
X60918Y102007D01*
Y102007D01*
X62802Y100124D01*
X61386Y98004D01*
X61197Y98083D01*
X59500Y98306D01*
X57803Y98083D01*
X56222Y97428D01*
X55077Y96549D01*
X3820D01*
X2863Y98859D01*
X53455Y149451D01*
X74194D01*
X86448Y137198D01*
D02*
G37*
G36*
X15237Y233347D02*
X15055Y231961D01*
X15364Y229612D01*
X16271Y227422D01*
X17713Y225542D01*
X19593Y224100D01*
X21783Y223193D01*
X24132Y222883D01*
X26482Y223193D01*
X28671Y224100D01*
X30551Y225542D01*
X31994Y227422D01*
X32818Y229412D01*
X43070D01*
X43781Y228839D01*
X44200Y228177D01*
X43015Y225656D01*
X42572Y225597D01*
X40382Y224690D01*
X38502Y223248D01*
X37060Y221368D01*
X36153Y219179D01*
X35843Y216829D01*
X36153Y214480D01*
X36977Y212490D01*
X-54302Y121210D01*
X-54855Y120383D01*
X-55049Y119408D01*
Y103331D01*
X-56375Y102565D01*
X-57701Y103331D01*
Y121444D01*
X6802Y185948D01*
X7355Y186775D01*
X7549Y187750D01*
Y229194D01*
X12869Y234514D01*
X15237Y233347D01*
D02*
G37*
G36*
X-287395Y219355D02*
X-274208Y232542D01*
X-271442Y231860D01*
X-271522Y231583D01*
X-284802Y218302D01*
X-285355Y217475D01*
X-285549Y216500D01*
Y103556D01*
X-296140Y92964D01*
X-298757Y95581D01*
X-300844Y93495D01*
X-303152Y95802D01*
X-303979Y96355D01*
X-304954Y96549D01*
X-311500D01*
X-312475Y96355D01*
X-313302Y95802D01*
X-316390Y92714D01*
X-319007Y95331D01*
X-326578Y87760D01*
X-328553Y86493D01*
X-328760Y86285D01*
X-332089Y82957D01*
X-327316Y78184D01*
X-322543Y73411D01*
X-319214Y76740D01*
X-319007Y76947D01*
X-318419Y77864D01*
X-315686Y77862D01*
X-307243Y69419D01*
X-303035Y73627D01*
X-299856Y70448D01*
X-299029Y69895D01*
X-298053Y69701D01*
X-286277D01*
X-285242Y67201D01*
X-286316Y66126D01*
X-286869Y65300D01*
X-287063Y64324D01*
Y60542D01*
X-301556Y46049D01*
X-307000D01*
Y49000D01*
X-318000D01*
Y36500D01*
X-307000D01*
Y40951D01*
X-300500D01*
X-299524Y41145D01*
X-298698Y41698D01*
X-288250Y52145D01*
X-285750Y51110D01*
X-285750Y43543D01*
X-286250Y41250D01*
X-286250Y40957D01*
Y36250D01*
X-279500D01*
Y35250D01*
X-278500D01*
Y29250D01*
X-272773D01*
X-271021Y27466D01*
X-274188Y24299D01*
X-277142D01*
X-277366Y24634D01*
X-278689Y25518D01*
X-280250Y25828D01*
X-281811Y25518D01*
X-283134Y24634D01*
X-284018Y23311D01*
X-284328Y21750D01*
X-284018Y20189D01*
X-283134Y18866D01*
X-281811Y17982D01*
X-280250Y17672D01*
X-279173Y17886D01*
X-277985Y16447D01*
X-277699Y15824D01*
X-357262Y-63738D01*
X-357704Y-64400D01*
X-357859Y-65180D01*
X-357704Y-65961D01*
X-357262Y-66622D01*
X-325442Y-98442D01*
X-324780Y-98884D01*
X-324000Y-99039D01*
X-323220Y-98884D01*
X-322558Y-98442D01*
X-322558Y-98442D01*
X-321362Y-97245D01*
X-320616Y-97554D01*
X-319468Y-97079D01*
X-318760Y-96372D01*
X-315312Y-99820D01*
X-311070Y-95577D01*
X-309655Y-96991D01*
X-313898Y-101234D01*
X-311777Y-103355D01*
X-310362Y-104770D01*
X-307888Y-107244D01*
X-303645Y-103002D01*
X-299402Y-98759D01*
X-300256Y-97906D01*
X-301297Y-96284D01*
X-300256Y-94663D01*
X-299402Y-93809D01*
X-303645Y-89567D01*
X-302231Y-88153D01*
X-297988Y-92395D01*
X-295867Y-90274D01*
X-293392Y-87799D01*
X-297635Y-83556D01*
X-296220Y-82142D01*
X-291978Y-86385D01*
X-289856Y-84263D01*
Y-84263D01*
X-289503Y-83910D01*
X-287381Y-81789D01*
X-291624Y-77546D01*
X-290210Y-76132D01*
X-285967Y-80374D01*
X-283846Y-78253D01*
X-283492Y-77899D01*
X-281371Y-75778D01*
X-285614Y-71536D01*
X-284200Y-70121D01*
X-279957Y-74364D01*
X-277836Y-72243D01*
X-275361Y-69768D01*
X-279603Y-65525D01*
X-278189Y-64111D01*
X-273946Y-68354D01*
X-271825Y-66232D01*
Y-66232D01*
X-271472Y-65879D01*
X-269350Y-63757D01*
X-273593Y-59515D01*
X-272179Y-58101D01*
X-267936Y-62343D01*
X-265815Y-60222D01*
X-263340Y-57747D01*
X-267583Y-53504D01*
X-266168Y-52090D01*
X-261926Y-56333D01*
X-259804Y-54211D01*
Y-54211D01*
X-259451Y-53858D01*
X-257330Y-51736D01*
X-261572Y-47494D01*
X-260158Y-46080D01*
X-255915Y-50322D01*
X-253794Y-48201D01*
X-251319Y-45726D01*
X-255562Y-41483D01*
X-254147Y-40069D01*
X-249905Y-44312D01*
X-247784Y-42191D01*
Y-42191D01*
X-247430Y-41837D01*
X-245309Y-39716D01*
X-249551Y-35473D01*
X-248137Y-34059D01*
X-243895Y-38301D01*
X-241773Y-36180D01*
X-239298Y-33705D01*
X-243541Y-29463D01*
X-242127Y-28049D01*
X-237884Y-32291D01*
X-235763Y-30170D01*
Y-30170D01*
X-235409Y-29816D01*
X-233288Y-27695D01*
X-237530Y-23452D01*
X-236116Y-22038D01*
X-231874Y-26281D01*
X-229752Y-24159D01*
X-229399Y-23806D01*
X-227277Y-21685D01*
X-231520Y-17442D01*
X-230106Y-16028D01*
X-225863Y-20270D01*
X-223742Y-18149D01*
X-221267Y-15674D01*
X-225510Y-11431D01*
X-224095Y-10017D01*
X-219853Y-14260D01*
X-217731Y-12139D01*
Y-12139D01*
X-217378Y-11785D01*
X-215257Y-9664D01*
X-219499Y-5421D01*
X-218085Y-4007D01*
X-213842Y-8249D01*
X-212489Y-6896D01*
X-211014Y-6377D01*
X-209720Y-6832D01*
X-209393Y-7042D01*
X-206064Y-10371D01*
X-204296Y-12139D01*
X-203589Y-12846D01*
X-200261Y-16174D01*
X-198993Y-18149D01*
X-196872Y-20270D01*
X-192629Y-16028D01*
X-188386Y-11785D01*
X-189594Y-10578D01*
X-190508Y-9664D01*
X-192483Y-8396D01*
X-195811Y-5067D01*
X-196484Y-4395D01*
X-198168Y-2544D01*
X-189098Y6527D01*
X-184709Y2138D01*
X-183441Y163D01*
X-182851Y-427D01*
X-179346Y-3932D01*
X-174707Y707D01*
X-170068Y5346D01*
X-173573Y8851D01*
X-174163Y9441D01*
X-176138Y10709D01*
X-178193Y12764D01*
X-171757Y19201D01*
X-149750D01*
X-148775Y19395D01*
X-147948Y19948D01*
X-124448Y43448D01*
X-123895Y44275D01*
X-123701Y45250D01*
Y55392D01*
X-123366Y55616D01*
X-122482Y56939D01*
X-122172Y58500D01*
X-122482Y60061D01*
X-122871Y60642D01*
X-121904Y62988D01*
X-121763Y63142D01*
X-81909D01*
X-81663Y60642D01*
X-81850Y60605D01*
X-82677Y60052D01*
X-140585Y2145D01*
X-141513Y2596D01*
X-142647Y3618D01*
X-142422Y4750D01*
X-142732Y6311D01*
X-143616Y7634D01*
X-144939Y8518D01*
X-146500Y8828D01*
X-148061Y8518D01*
X-149384Y7634D01*
X-150268Y6311D01*
X-150578Y4750D01*
X-150483Y4268D01*
X-176524Y-21773D01*
X-179229Y-20943D01*
X-180962Y-19210D01*
X-185205Y-23452D01*
X-189447Y-27695D01*
X-188240Y-28902D01*
X-187326Y-29816D01*
X-186000Y-30667D01*
X-187151Y-32820D01*
X-187896Y-32672D01*
X-189456Y-32982D01*
X-190779Y-33866D01*
X-191664Y-35189D01*
X-191974Y-36750D01*
X-191896Y-37145D01*
X-193641Y-38891D01*
X-195951Y-37934D01*
Y-34750D01*
X-196145Y-33775D01*
X-196698Y-32948D01*
X-202500Y-27145D01*
X-202422Y-26750D01*
X-202732Y-25189D01*
X-203616Y-23866D01*
X-204939Y-22982D01*
X-206500Y-22672D01*
X-207643Y-22899D01*
X-208580Y-22299D01*
X-208677Y-22209D01*
X-209625Y-21020D01*
X-209422Y-20000D01*
X-209732Y-18439D01*
X-210616Y-17116D01*
X-211939Y-16232D01*
X-213500Y-15922D01*
X-215061Y-16232D01*
X-216384Y-17116D01*
X-217268Y-18439D01*
X-217578Y-20000D01*
X-217268Y-21561D01*
X-216384Y-22884D01*
X-216049Y-23108D01*
Y-34944D01*
X-250552Y-69448D01*
X-251105Y-70275D01*
X-251299Y-71250D01*
Y-120590D01*
X-264705Y-133996D01*
X-266522Y-132347D01*
X-265253Y-130080D01*
X-264939Y-130018D01*
X-263616Y-129134D01*
X-262732Y-127811D01*
X-262422Y-126250D01*
X-262732Y-124689D01*
X-263616Y-123366D01*
X-264939Y-122482D01*
X-266500Y-122172D01*
X-266895Y-122250D01*
X-274448Y-114698D01*
X-275275Y-114145D01*
X-276250Y-113951D01*
X-279667D01*
X-280642Y-114145D01*
X-281469Y-114698D01*
X-282736Y-115965D01*
X-284587Y-114281D01*
X-285260Y-113608D01*
X-288589Y-110280D01*
X-289856Y-108305D01*
X-291978Y-106184D01*
X-296220Y-110426D01*
X-300463Y-114669D01*
X-299451Y-115681D01*
X-298342Y-116790D01*
X-299178Y-118944D01*
X-306332Y-126097D01*
X-308432Y-123997D01*
X-309700Y-122022D01*
X-310290Y-121432D01*
X-313794Y-117928D01*
X-318433Y-122567D01*
X-323073Y-127206D01*
X-319568Y-130710D01*
X-318978Y-131300D01*
X-318409Y-131666D01*
X-317952Y-134744D01*
X-322911Y-139704D01*
X-323555Y-140667D01*
X-334221Y-151333D01*
X-323304Y-162250D01*
X-323920Y-164750D01*
X-329645D01*
X-331698Y-162698D01*
X-332524Y-162145D01*
X-333500Y-161951D01*
X-341000D01*
Y-157500D01*
X-359000D01*
X-360492Y-155618D01*
Y16911D01*
X-359500Y19000D01*
X-351000D01*
Y26000D01*
X-350000D01*
Y27000D01*
X-340500D01*
Y30834D01*
X-338696Y31581D01*
X-336085Y33585D01*
X-334081Y36196D01*
X-333978Y36446D01*
X-331500Y36500D01*
Y36500D01*
X-320500D01*
Y49000D01*
X-327895D01*
X-336698Y57802D01*
X-337524Y58355D01*
X-338500Y58549D01*
X-341000D01*
Y65500D01*
X-359000D01*
X-360492Y67382D01*
Y70127D01*
X-321298Y109321D01*
X-320254Y110364D01*
X-318380Y112644D01*
X-316738Y115097D01*
X-315346Y117698D01*
X-314215Y120424D01*
X-313358Y123248D01*
X-312782Y126143D01*
X-312492Y129080D01*
X-312492Y130555D01*
X-312492Y185055D01*
X-312492D01*
X-312492Y185055D01*
X-312492Y185056D01*
X-312492Y186531D01*
X-312574Y187365D01*
X-312781Y189468D01*
X-313358Y192362D01*
X-314215Y195186D01*
X-315346Y197912D01*
X-316738Y200514D01*
X-318380Y202967D01*
X-320254Y205247D01*
X-321298Y206289D01*
X-354700Y239690D01*
X-353743Y242000D01*
X-351000D01*
Y249000D01*
X-350000D01*
Y250000D01*
X-340500D01*
Y253834D01*
X-338696Y254581D01*
X-336085Y256585D01*
X-334081Y259196D01*
X-333112Y261537D01*
X-330512Y262473D01*
X-287395Y219355D01*
D02*
G37*
G36*
X-197543Y89948D02*
X-196716Y89395D01*
X-195740Y89201D01*
X-184858D01*
X-184634Y88866D01*
X-183311Y87982D01*
X-181750Y87672D01*
X-179299Y85799D01*
Y74358D01*
X-202500D01*
X-204646Y73931D01*
X-206465Y72715D01*
X-206646Y72534D01*
X-209690Y72874D01*
X-211013Y73758D01*
X-212574Y74069D01*
X-212969Y73990D01*
X-216190Y77211D01*
X-217017Y77764D01*
X-217992Y77958D01*
X-221179D01*
X-226201Y82980D01*
Y92023D01*
X-223023Y95201D01*
X-202796D01*
X-197543Y89948D01*
D02*
G37*
G36*
X-130596Y62988D02*
X-129629Y60642D01*
X-130018Y60061D01*
X-130328Y58500D01*
X-130018Y56939D01*
X-129134Y55616D01*
X-128799Y55392D01*
Y46306D01*
X-150806Y24299D01*
X-172812D01*
X-173788Y24105D01*
X-174615Y23552D01*
X-181798Y16369D01*
X-184340Y18911D01*
X-185919Y20757D01*
Y20757D01*
X-193697Y28535D01*
X-195508Y26724D01*
X-198060Y27708D01*
X-195464Y30303D01*
X-198541Y33379D01*
X-197309Y35683D01*
X-197250Y35672D01*
X-195689Y35982D01*
X-194366Y36866D01*
X-193482Y38189D01*
X-193172Y39750D01*
X-193482Y41311D01*
X-194366Y42634D01*
X-195689Y43518D01*
X-197250Y43828D01*
X-198811Y43518D01*
X-200053Y42688D01*
X-201583D01*
X-204951Y46056D01*
Y51444D01*
X-198444Y57951D01*
X-160358D01*
X-160134Y57616D01*
X-158811Y56732D01*
X-157250Y56422D01*
X-155689Y56732D01*
X-154366Y57616D01*
X-153482Y58939D01*
X-153172Y60500D01*
X-153200Y60642D01*
X-151427Y63142D01*
X-130737D01*
X-130596Y62988D01*
D02*
G37*
G36*
X147797Y98010D02*
X148845Y96582D01*
X149250Y94250D01*
X149250D01*
Y80750D01*
X158250D01*
Y94250D01*
X158250D01*
X158396Y96689D01*
X161416D01*
X163709Y96189D01*
X164544Y96189D01*
X166896D01*
X168250Y94250D01*
X168250Y93689D01*
Y80750D01*
X177250D01*
Y89197D01*
X181500D01*
Y88750D01*
X190583D01*
X191619Y86250D01*
X183977Y78608D01*
X183203Y77450D01*
X182931Y76084D01*
Y56000D01*
X183073Y55288D01*
X180896Y53929D01*
X177250Y57576D01*
Y66750D01*
X168250D01*
Y67250D01*
X164250D01*
Y60000D01*
X162250D01*
Y67250D01*
X158250D01*
X158250Y66750D01*
X149250D01*
Y60443D01*
X149162Y60000D01*
Y47311D01*
X147939D01*
Y35189D01*
X151162D01*
Y30500D01*
Y21226D01*
X148662Y20468D01*
X148384Y20884D01*
X147061Y21768D01*
X145500Y22078D01*
X143939Y21768D01*
X142616Y20884D01*
X142392Y20549D01*
X138401D01*
X137425Y20355D01*
X136599Y19802D01*
X110345Y-6451D01*
X108670D01*
X75123Y27096D01*
Y56474D01*
X75768Y57439D01*
X76078Y59000D01*
X75768Y60561D01*
X74884Y61884D01*
X73561Y62768D01*
X72000Y63078D01*
X71069Y62893D01*
X70774Y63058D01*
X70103Y65923D01*
X99399Y95219D01*
X101709Y94262D01*
Y83236D01*
X120208D01*
X121112Y83236D01*
X121128Y83233D01*
X121693Y83141D01*
X121975Y83083D01*
X122543Y82896D01*
X123591Y81482D01*
X123709Y80536D01*
X123709Y80173D01*
Y74384D01*
X122791Y72264D01*
X121209Y72264D01*
X113000D01*
Y63736D01*
Y55209D01*
X122791D01*
Y63339D01*
X123709Y65459D01*
X125291Y65459D01*
X133500D01*
Y73986D01*
Y82514D01*
X125792D01*
X124888Y82514D01*
X124795Y82529D01*
X123101Y84780D01*
X123312Y85524D01*
X123721Y86262D01*
X125211Y86458D01*
X126792Y87113D01*
X128150Y88155D01*
X133481Y93486D01*
X144791D01*
Y98053D01*
X147734D01*
X147797Y98010D01*
D02*
G37*
G36*
X-211502Y29822D02*
X-212082Y29243D01*
X-204303Y21465D01*
X-201583Y24185D01*
X-200599Y21633D01*
X-202535Y19697D01*
X-194757Y11918D01*
X-194757D01*
X-194592Y11777D01*
X-194455Y8379D01*
X-200565Y2268D01*
X-203270Y3099D01*
X-206418Y6246D01*
X-210660Y2004D01*
X-212075Y3418D01*
X-207832Y7660D01*
X-211280Y11109D01*
X-210573Y11816D01*
X-210098Y12964D01*
X-210406Y13710D01*
X-209421Y14695D01*
X-208979Y15357D01*
X-208824Y16137D01*
X-208979Y16917D01*
X-209421Y17579D01*
X-221793Y29951D01*
X-220758Y32451D01*
X-217250D01*
X-216275Y32645D01*
X-215448Y33198D01*
X-215163Y33482D01*
X-211502Y29822D01*
D02*
G37*
G36*
X151162Y-6726D02*
Y-10500D01*
X151511Y-12256D01*
X152506Y-13744D01*
X153994Y-14739D01*
X155750Y-15088D01*
X157506Y-14739D01*
X158181Y-14288D01*
X160648Y-15362D01*
X160681Y-15395D01*
Y-81374D01*
X160248Y-81862D01*
X158181Y-83097D01*
X157250Y-82912D01*
X146151D01*
X135633Y-72395D01*
X134145Y-71400D01*
X132389Y-71051D01*
X112339D01*
X111304Y-68551D01*
X120552Y-59302D01*
X121105Y-58475D01*
X121299Y-57500D01*
Y-17556D01*
X132806Y-6049D01*
X142392D01*
X142616Y-6384D01*
X143939Y-7268D01*
X145500Y-7578D01*
X147061Y-7268D01*
X148384Y-6384D01*
X148662Y-5968D01*
X151162Y-6726D01*
D02*
G37*
G36*
X275701Y-1806D02*
Y-6078D01*
X275895Y-7054D01*
X276448Y-7881D01*
X295201Y-26634D01*
Y-55194D01*
X290110Y-60286D01*
X287493Y-57668D01*
X280838Y-64323D01*
X278338Y-63288D01*
Y-58938D01*
X285227Y-52049D01*
X285478Y-51673D01*
X290788Y-46364D01*
X283136Y-38712D01*
X281526Y-40322D01*
X274678Y-33474D01*
X276538Y-31614D01*
X268886Y-23962D01*
X267151Y-25697D01*
X265322Y-23868D01*
Y-22987D01*
X265483Y-22747D01*
X265903Y-20636D01*
X265483Y-18525D01*
X264287Y-16735D01*
X261981Y-14429D01*
X260191Y-13233D01*
X258080Y-12813D01*
X255969Y-13233D01*
X254686Y-14090D01*
X250257D01*
X248501Y-14440D01*
X247012Y-15434D01*
X242598Y-19849D01*
X241953Y-19204D01*
X234175Y-26982D01*
X241953Y-34760D01*
X249731Y-26982D01*
X249086Y-26337D01*
X252157Y-23267D01*
X255215D01*
X256146Y-24198D01*
Y-25768D01*
X256495Y-27524D01*
X257490Y-29013D01*
X260663Y-32185D01*
X258928Y-33920D01*
X266580Y-41572D01*
X268190Y-39962D01*
X275038Y-46810D01*
X273178Y-48670D01*
X274404Y-49896D01*
X270506Y-53794D01*
X269511Y-55282D01*
X269162Y-57038D01*
Y-69382D01*
X269511Y-71137D01*
X270506Y-72626D01*
X271520Y-73641D01*
X270168Y-74993D01*
X279007Y-83832D01*
X279669Y-84743D01*
Y-84743D01*
X285778Y-90852D01*
X284821Y-93162D01*
X259900D01*
X254338Y-87599D01*
Y-82143D01*
X258193Y-78289D01*
X258475Y-78233D01*
X260265Y-77037D01*
X262571Y-74731D01*
X263767Y-72941D01*
X264187Y-70830D01*
X263767Y-68719D01*
X262571Y-66929D01*
X260781Y-65733D01*
X258670Y-65313D01*
X256559Y-65733D01*
X254769Y-66929D01*
X252463Y-69235D01*
X251268Y-71025D01*
X250966Y-72538D01*
X246506Y-76999D01*
X245511Y-78487D01*
X245162Y-80243D01*
Y-89500D01*
X245511Y-91256D01*
X246506Y-92744D01*
X252094Y-98333D01*
X251513Y-99735D01*
X250890Y-100664D01*
X248854Y-101069D01*
X247035Y-102285D01*
X243677Y-105642D01*
X202465D01*
X191077Y-94255D01*
X192309Y-91951D01*
X193000Y-92088D01*
X213000D01*
X214756Y-91739D01*
X216244Y-90744D01*
X243328Y-63661D01*
X244225Y-63483D01*
X246015Y-62287D01*
X248321Y-59981D01*
X249517Y-58191D01*
X249937Y-56080D01*
X249517Y-53969D01*
X248321Y-52179D01*
X246531Y-50983D01*
X244420Y-50563D01*
X242309Y-50983D01*
X240519Y-52179D01*
X238213Y-54485D01*
X237017Y-56275D01*
X236839Y-57172D01*
X211099Y-82912D01*
X193000D01*
X191244Y-83261D01*
X191108Y-83352D01*
X188608Y-82016D01*
Y-74823D01*
X222230Y-41201D01*
X222537Y-40741D01*
X226043Y-37235D01*
X222537Y-33729D01*
X222230Y-33270D01*
X222230Y-33270D01*
X212745Y-23785D01*
X210925Y-22569D01*
X208779Y-22142D01*
X207357D01*
X202160Y-16945D01*
X201767Y-14969D01*
X200571Y-13179D01*
X200306Y-13002D01*
X199720Y-9815D01*
X200446Y-8838D01*
X209500D01*
X211256Y-8489D01*
X212744Y-7494D01*
X218249Y-1990D01*
X218830Y-2572D01*
X222854Y1452D01*
X224075Y2268D01*
X225822Y4015D01*
X227678D01*
X230675Y1018D01*
X231056Y763D01*
X231642Y177D01*
Y-2177D01*
X228789Y-5031D01*
X228155Y-5980D01*
X224552Y-9582D01*
X224246Y-10041D01*
X220740Y-13547D01*
X224246Y-17053D01*
X224552Y-17513D01*
X225012Y-17819D01*
X228518Y-21325D01*
X232024Y-17819D01*
X232483Y-17513D01*
X232483Y-17512D01*
X236719Y-13276D01*
X237354Y-12327D01*
X241215Y-8465D01*
X242431Y-6646D01*
X242858Y-4500D01*
Y2500D01*
X242756Y3014D01*
X243572Y3830D01*
X241777Y5625D01*
X241215Y6465D01*
X238732Y8948D01*
X238351Y9203D01*
X233966Y13588D01*
X232146Y14804D01*
X230000Y15231D01*
X223500D01*
X221367Y14807D01*
X221136Y15038D01*
X219993Y13895D01*
X219534Y13588D01*
X216399Y10453D01*
X216018Y10198D01*
X215456Y9358D01*
X211178Y5080D01*
X211760Y4498D01*
X207600Y338D01*
X196500D01*
X194744Y-11D01*
X193256Y-1006D01*
X188349Y-5912D01*
X186000D01*
X184244Y-6261D01*
X184117Y-6346D01*
X182937Y-5623D01*
X182091Y-4693D01*
X182328Y-3500D01*
X182018Y-1939D01*
X181947Y-1755D01*
X183260Y701D01*
X186250D01*
X187225Y895D01*
X188052Y1448D01*
X192993Y6388D01*
X193556Y6456D01*
X196022Y5882D01*
X196366Y5366D01*
X197689Y4482D01*
X199250Y4172D01*
X200811Y4482D01*
X202134Y5366D01*
X203018Y6689D01*
X203328Y8250D01*
X203250Y8645D01*
X226306Y31701D01*
X242194D01*
X275701Y-1806D01*
D02*
G37*
G36*
X-25834Y62242D02*
X-25463Y60642D01*
X-32802Y53302D01*
X-33355Y52476D01*
X-33549Y51500D01*
Y37306D01*
X-89302Y-18448D01*
X-89855Y-19274D01*
X-90049Y-20250D01*
Y-36642D01*
X-90384Y-36866D01*
X-91268Y-38189D01*
X-91578Y-39750D01*
X-91268Y-41311D01*
X-91007Y-41701D01*
X-92196Y-44201D01*
X-106011D01*
X-108172Y-43000D01*
X-108482Y-41439D01*
X-109366Y-40116D01*
X-110689Y-39232D01*
X-111042Y-39162D01*
X-111917Y-36500D01*
X-37448Y37968D01*
X-36895Y38795D01*
X-36701Y39771D01*
Y55892D01*
X-36366Y56116D01*
X-35482Y57439D01*
X-35172Y59000D01*
X-35482Y60561D01*
X-35537Y60642D01*
X-34200Y63142D01*
X-26425D01*
X-25834Y62242D01*
D02*
G37*
G36*
X184244Y-14739D02*
X186000Y-15088D01*
X187722D01*
X188979Y-16866D01*
X189205Y-17588D01*
X188848Y-19386D01*
X189268Y-21497D01*
X190463Y-23287D01*
X192253Y-24483D01*
X194229Y-24876D01*
X201069Y-31715D01*
X202888Y-32931D01*
X205034Y-33358D01*
X206457D01*
X210334Y-37235D01*
X181359Y-66211D01*
X179049Y-65254D01*
Y-18306D01*
X180052Y-17302D01*
X180605Y-16475D01*
X180799Y-15500D01*
Y-15215D01*
X181395Y-14767D01*
X183299Y-14107D01*
X184244Y-14739D01*
D02*
G37*
G36*
X55366Y56366D02*
X56689Y55482D01*
X58250Y55172D01*
X58931Y55307D01*
X61036Y54028D01*
X61431Y53558D01*
Y27250D01*
X61703Y25884D01*
X62477Y24727D01*
X103681Y-16478D01*
Y-50772D01*
X61639Y-92814D01*
X61329Y-92970D01*
X58898Y-92981D01*
X58610Y-92847D01*
X55926Y-90163D01*
X65696Y-80393D01*
X14077Y-28775D01*
X-9257Y-52109D01*
X42362Y-103728D01*
X48729Y-97361D01*
X50912Y-98713D01*
Y-105750D01*
X51261Y-107506D01*
X52256Y-108994D01*
X53744Y-109989D01*
X55500Y-110338D01*
X57256Y-109989D01*
X57939Y-109532D01*
X60394Y-110596D01*
X60439Y-110640D01*
Y-115265D01*
X47017Y-128687D01*
X46427Y-128746D01*
X44001Y-128166D01*
X43634Y-127616D01*
X42311Y-126732D01*
X40750Y-126422D01*
X39189Y-126732D01*
X37866Y-127616D01*
X36982Y-128939D01*
X36672Y-130500D01*
X36750Y-130895D01*
X30568Y-137077D01*
X16180D01*
X-75949Y-44948D01*
X-76776Y-44395D01*
X-77751Y-44201D01*
X-82804D01*
X-83993Y-41701D01*
X-83732Y-41311D01*
X-83422Y-39750D01*
X-83732Y-38189D01*
X-84616Y-36866D01*
X-84951Y-36642D01*
Y-21306D01*
X-29198Y34448D01*
X-28645Y35275D01*
X-28451Y36250D01*
Y50444D01*
X-22194Y56701D01*
X55142D01*
X55366Y56366D01*
D02*
G37*
G36*
X-91746Y-70790D02*
X-91340Y-71799D01*
X-91578Y-73000D01*
X-91268Y-74561D01*
X-90384Y-75884D01*
X-90049Y-76108D01*
Y-92444D01*
X-99052Y-101448D01*
X-99605Y-102275D01*
X-99799Y-103250D01*
Y-120892D01*
X-100134Y-121116D01*
X-101018Y-122439D01*
X-101328Y-124000D01*
X-101018Y-125561D01*
X-100134Y-126884D01*
X-98811Y-127768D01*
X-97250Y-128078D01*
X-95689Y-127768D01*
X-94366Y-126884D01*
X-93549Y-125661D01*
X-93361Y-125624D01*
X-91049Y-126278D01*
Y-130694D01*
X-96024Y-135669D01*
X-98278Y-134388D01*
X-98395Y-133801D01*
X-98948Y-132975D01*
X-118826Y-113097D01*
X-118383Y-110780D01*
X-116262Y-108659D01*
X-120504Y-104416D01*
X-124747Y-100173D01*
X-125954Y-101381D01*
X-126868Y-102295D01*
X-128136Y-104270D01*
X-131465Y-107598D01*
X-132172Y-108305D01*
X-133939Y-110073D01*
X-137475Y-113608D01*
X-138182Y-114316D01*
X-143485Y-119619D01*
X-145253Y-121386D01*
X-145960Y-122094D01*
X-149496Y-125629D01*
X-150203Y-126336D01*
X-152020Y-127986D01*
X-155451Y-124554D01*
Y-88000D01*
X-155645Y-87025D01*
X-154508Y-84549D01*
X-136979D01*
X-136004Y-84355D01*
X-135177Y-83802D01*
X-133988Y-82614D01*
X-132172Y-84263D01*
X-132171D01*
X-127222Y-89213D01*
X-127222D01*
X-126161Y-90274D01*
X-122126Y-94309D01*
X-121916Y-94637D01*
X-121460Y-95931D01*
X-121979Y-97406D01*
X-123333Y-98759D01*
X-119090Y-103002D01*
X-114847Y-107244D01*
X-114140Y-106537D01*
X-112726Y-105123D01*
X-110958Y-103355D01*
X-108837Y-101234D01*
X-113080Y-96991D01*
X-112373Y-96284D01*
X-113080Y-95577D01*
X-108837Y-91334D01*
X-111458Y-88713D01*
X-112373Y-87799D01*
X-112815Y-85482D01*
X-96632Y-69299D01*
X-92844D01*
X-91746Y-70790D01*
D02*
G37*
G36*
X141006Y-90744D02*
X142494Y-91739D01*
X144250Y-92088D01*
X157250D01*
X158181Y-91903D01*
X160248Y-93138D01*
X160681Y-93626D01*
Y-100814D01*
X160953Y-102179D01*
X161727Y-103337D01*
X281163Y-222773D01*
X282321Y-223547D01*
X282899Y-223662D01*
X282652Y-226162D01*
X282000D01*
X280244Y-226511D01*
X278756Y-227506D01*
X215506Y-290756D01*
X214511Y-292244D01*
X214162Y-294000D01*
Y-299129D01*
X213012Y-300007D01*
X211662Y-300653D01*
X210500Y-300422D01*
X208939Y-300732D01*
X207616Y-301616D01*
X207392Y-301951D01*
X178485D01*
X168642Y-292108D01*
X111446Y-234912D01*
X111302Y-234698D01*
X58799Y-182194D01*
Y-153608D01*
X59134Y-153384D01*
X60018Y-152061D01*
X60328Y-150500D01*
X60018Y-148939D01*
X59134Y-147616D01*
X58558Y-147232D01*
X57975Y-144836D01*
X58028Y-144226D01*
X77310Y-124944D01*
X77862Y-124117D01*
X78056Y-123142D01*
Y-104355D01*
X78162Y-104285D01*
X80662Y-105621D01*
Y-106000D01*
X81011Y-107756D01*
X82006Y-109244D01*
X83494Y-110239D01*
X85250Y-110588D01*
X87006Y-110239D01*
X88494Y-109244D01*
X89489Y-107756D01*
X89838Y-106000D01*
Y-103151D01*
X112761Y-80227D01*
X130489D01*
X141006Y-90744D01*
D02*
G37*
G36*
X-273239Y-141186D02*
X-272532Y-141893D01*
X-268997Y-145428D01*
X-267229Y-147196D01*
X-266522Y-147903D01*
X-262279Y-152146D01*
X-262279D01*
X-261218Y-153206D01*
X-256976Y-157449D01*
X-255208Y-159217D01*
X-254501Y-159924D01*
X-250965Y-163459D01*
X-250259Y-164167D01*
X-249663Y-164762D01*
X-249663Y-167262D01*
X-254302Y-171901D01*
X-254855Y-172728D01*
X-255049Y-173703D01*
Y-215071D01*
X-255457Y-215547D01*
X-257549Y-216811D01*
X-258250Y-216672D01*
X-258645Y-216750D01*
X-273701Y-201694D01*
Y-168806D01*
X-271895Y-167000D01*
X-271500Y-167078D01*
X-269939Y-166768D01*
X-268616Y-165884D01*
X-267732Y-164561D01*
X-267422Y-163000D01*
X-267732Y-161439D01*
X-268616Y-160116D01*
X-269939Y-159232D01*
X-271500Y-158922D01*
X-273061Y-159232D01*
X-274384Y-160116D01*
X-275268Y-161439D01*
X-275578Y-163000D01*
X-275500Y-163395D01*
X-277176Y-165071D01*
X-278305Y-165868D01*
X-280534Y-165162D01*
X-286873Y-158823D01*
X-287700Y-158270D01*
X-288675Y-158076D01*
X-288701D01*
Y-153181D01*
X-275056Y-139536D01*
X-273239Y-141186D01*
D02*
G37*
G36*
X-208061Y-30518D02*
X-206500Y-30828D01*
X-206105Y-30750D01*
X-201049Y-35806D01*
Y-55450D01*
X-200855Y-56425D01*
X-200302Y-57252D01*
X-190602Y-66952D01*
X-189775Y-67505D01*
X-188800Y-67699D01*
X-186856D01*
X-164049Y-90506D01*
Y-117444D01*
X-202802Y-156198D01*
X-203355Y-157024D01*
X-203549Y-158000D01*
Y-160591D01*
X-220914Y-177955D01*
X-223388Y-175480D01*
X-223388D01*
X-224449Y-174419D01*
X-229399Y-169470D01*
X-230459Y-168409D01*
X-235409Y-163459D01*
X-240713Y-158156D01*
X-241420Y-157449D01*
X-242480Y-156388D01*
X-240715Y-154618D01*
X-239616Y-153884D01*
X-238732Y-152561D01*
X-238422Y-151000D01*
X-238732Y-149439D01*
X-239616Y-148116D01*
X-240939Y-147232D01*
X-242264Y-146968D01*
X-242500Y-146922D01*
X-244422Y-145000D01*
X-244468Y-144764D01*
X-244732Y-143439D01*
X-245616Y-142116D01*
X-246939Y-141232D01*
X-248500Y-140922D01*
X-250172Y-139500D01*
X-250482Y-137939D01*
X-251366Y-136616D01*
X-252689Y-135732D01*
X-254250Y-135422D01*
X-255667Y-135704D01*
X-255822Y-135595D01*
X-256791Y-133292D01*
X-246948Y-123448D01*
X-246395Y-122621D01*
X-246201Y-121646D01*
Y-72306D01*
X-211698Y-37802D01*
X-211145Y-36975D01*
X-210951Y-36000D01*
Y-31446D01*
X-208451Y-30257D01*
X-208061Y-30518D01*
D02*
G37*
G36*
X16390Y-169245D02*
X15525Y-171915D01*
X15189Y-171982D01*
X13866Y-172866D01*
X12982Y-174189D01*
X12672Y-175750D01*
X12982Y-177311D01*
X13181Y-177609D01*
Y-185087D01*
X12362Y-185751D01*
X10681Y-186642D01*
X9781Y-186462D01*
X3281D01*
Y-163469D01*
X-13268D01*
Y-192150D01*
X-15768Y-193185D01*
X-21446Y-187508D01*
X-22603Y-186734D01*
X-23969Y-186462D01*
X-24232D01*
Y-163469D01*
X-29744D01*
Y-155994D01*
X-20187Y-146437D01*
X-31512Y-135112D01*
X-32595Y-134030D01*
X-34362Y-132262D01*
X-45687Y-120938D01*
X-47181Y-122432D01*
X-49681Y-121396D01*
Y-117534D01*
X-49953Y-116168D01*
X-50727Y-115011D01*
X-52418Y-113320D01*
X-49962Y-110864D01*
X-57614Y-103212D01*
X-67572Y-113170D01*
X-59920Y-120822D01*
X-59319Y-120220D01*
X-56819Y-121256D01*
Y-125250D01*
X-56547Y-126616D01*
X-55773Y-127773D01*
X-54148Y-129398D01*
X-58812Y-134063D01*
X-53448Y-139427D01*
X-54973Y-140952D01*
X-55747Y-142110D01*
X-56019Y-143476D01*
Y-148119D01*
X-56192Y-148153D01*
X-57981Y-149349D01*
X-59177Y-151139D01*
X-59597Y-153250D01*
X-59177Y-155361D01*
X-57981Y-157151D01*
X-56192Y-158347D01*
X-54080Y-158767D01*
X-50820D01*
X-48709Y-158347D01*
X-46919Y-157151D01*
X-45723Y-155361D01*
X-45303Y-153250D01*
X-45723Y-151139D01*
X-46631Y-149780D01*
X-44689Y-148186D01*
X-36881Y-155994D01*
Y-163469D01*
X-40781D01*
Y-166270D01*
X-43281Y-167606D01*
X-43959Y-167153D01*
X-46070Y-166733D01*
X-49330D01*
X-51442Y-167153D01*
X-53231Y-168349D01*
X-54427Y-170139D01*
X-54847Y-172250D01*
X-54427Y-174361D01*
X-53231Y-176151D01*
X-51442Y-177347D01*
X-49330Y-177767D01*
X-46070D01*
X-43959Y-177347D01*
X-43281Y-176894D01*
X-40781Y-178230D01*
Y-189638D01*
X-43281Y-190974D01*
X-43750Y-190660D01*
Y-185750D01*
X-54457Y-185750D01*
X-56750Y-185250D01*
X-57043Y-185250D01*
X-61750D01*
Y-192000D01*
X-62750D01*
Y-193000D01*
X-68750D01*
Y-197939D01*
X-68750Y-198750D01*
X-70550Y-200439D01*
X-72561D01*
Y-206230D01*
X-66000D01*
X-59439D01*
Y-201250D01*
X-59439Y-200439D01*
X-57639Y-198750D01*
X-56750Y-198750D01*
X-54457Y-198250D01*
X-54250Y-198250D01*
X-50547D01*
X-51883Y-200750D01*
X-53250D01*
Y-206250D01*
X-46000D01*
Y-208250D01*
X-53250D01*
Y-213451D01*
X-53250Y-213750D01*
X-53250Y-213750D01*
X-52750Y-215750D01*
X-52750Y-215750D01*
Y-224360D01*
X-55250Y-225395D01*
X-57619Y-223026D01*
X-58446Y-222474D01*
X-59422Y-222279D01*
X-59939D01*
Y-216314D01*
X-59439Y-214021D01*
X-59439Y-213186D01*
Y-208230D01*
X-66000D01*
X-72561D01*
Y-213186D01*
X-72561Y-214021D01*
X-72061Y-216314D01*
Y-226583D01*
X-72561Y-228939D01*
X-74957Y-228689D01*
X-77701Y-225944D01*
Y-216172D01*
X-77895Y-215196D01*
X-78448Y-214369D01*
X-78562Y-214254D01*
X-77917Y-212697D01*
X-77694Y-211000D01*
X-77917Y-209303D01*
X-78572Y-207722D01*
X-79614Y-206364D01*
X-80972Y-205322D01*
X-82553Y-204667D01*
X-84250Y-204444D01*
X-85947Y-204667D01*
X-86676Y-204969D01*
X-91085Y-200561D01*
X-90071Y-198114D01*
X-88021Y-198561D01*
X-87186Y-198561D01*
X-82230D01*
Y-192000D01*
Y-185439D01*
X-87051D01*
X-88021Y-185439D01*
X-89551Y-183573D01*
Y-182917D01*
X-84294Y-177661D01*
X-75259D01*
Y-166839D01*
X-89341D01*
Y-172614D01*
X-92382Y-175655D01*
X-94565Y-174568D01*
X-94701Y-174438D01*
Y-161615D01*
X-94591Y-159161D01*
X-92201Y-159161D01*
X-88050D01*
Y-153250D01*
Y-147339D01*
X-94591Y-147339D01*
X-94701Y-144885D01*
Y-141556D01*
X-92174Y-139029D01*
X-89494Y-139744D01*
X-89432Y-139823D01*
X-88287Y-141537D01*
X-86497Y-142732D01*
X-84386Y-143153D01*
X-82275Y-142732D01*
X-80485Y-141537D01*
X-78179Y-139231D01*
X-76983Y-137441D01*
X-76563Y-135330D01*
X-76983Y-133219D01*
X-78179Y-131429D01*
X-78512Y-131207D01*
Y-116648D01*
X-78783Y-115282D01*
X-79557Y-114124D01*
X-79805Y-113876D01*
X-76497Y-110568D01*
X-74522Y-109300D01*
X-73932Y-108710D01*
X-70427Y-105206D01*
X-75066Y-100566D01*
X-79706Y-95927D01*
X-83210Y-99432D01*
X-83800Y-100022D01*
X-85068Y-101997D01*
X-92201Y-109130D01*
X-94701Y-108094D01*
Y-104306D01*
X-85698Y-95302D01*
X-85145Y-94475D01*
X-84951Y-93500D01*
Y-76108D01*
X-84616Y-75884D01*
X-83732Y-74561D01*
X-83422Y-73000D01*
X-83429Y-72961D01*
X-81125Y-71729D01*
X16390Y-169245D01*
D02*
G37*
G36*
X-318250Y-161603D02*
Y-173250D01*
Y-184750D01*
X-305250D01*
Y-181838D01*
X-304265D01*
X-302509Y-181489D01*
X-301020Y-180494D01*
X-297506Y-176980D01*
X-297247Y-176592D01*
X-294678Y-177096D01*
X-294509Y-178654D01*
X-298052Y-182198D01*
X-298605Y-183025D01*
X-298799Y-184000D01*
Y-190250D01*
X-301457D01*
X-303749Y-189750D01*
X-303750Y-189750D01*
X-303750Y-189750D01*
X-308750D01*
Y-196500D01*
Y-203250D01*
X-307250D01*
Y-213110D01*
X-309750Y-214145D01*
X-324451Y-199444D01*
Y-189250D01*
X-320750D01*
Y-178250D01*
X-330140D01*
X-330192Y-178152D01*
X-330293Y-177702D01*
X-328731Y-175750D01*
X-320750D01*
Y-164750D01*
X-321817D01*
X-322433Y-162250D01*
X-320750Y-160567D01*
X-318250Y-161603D01*
D02*
G37*
G36*
X-206418Y-198815D02*
X-205711Y-198108D01*
X-197327Y-206491D01*
Y-210473D01*
X-247556Y-260701D01*
X-251430D01*
X-252387Y-258391D01*
X-225448Y-231452D01*
X-224895Y-230625D01*
X-224701Y-229650D01*
Y-223858D01*
X-224366Y-223634D01*
X-223482Y-222311D01*
X-223172Y-220750D01*
X-223482Y-219189D01*
X-224366Y-217866D01*
X-225689Y-216982D01*
X-227250Y-216672D01*
X-227951Y-216811D01*
X-230043Y-215547D01*
X-230451Y-215071D01*
Y-203118D01*
X-222169Y-194837D01*
X-219853Y-195279D01*
X-216317Y-198815D01*
X-212075Y-194572D01*
X-211367Y-195279D01*
X-210660Y-194572D01*
X-206418Y-198815D01*
D02*
G37*
G36*
X-118258Y-132895D02*
X-118328Y-133250D01*
X-118018Y-134811D01*
X-117134Y-136134D01*
X-115811Y-137018D01*
X-114250Y-137328D01*
X-112689Y-137018D01*
X-111366Y-136134D01*
X-110482Y-134811D01*
X-110172Y-133250D01*
X-110359Y-132308D01*
X-108231Y-130900D01*
X-103299Y-135833D01*
Y-171994D01*
X-113040Y-181735D01*
X-113592Y-182562D01*
X-113786Y-183538D01*
Y-200432D01*
X-120052Y-206698D01*
X-120605Y-207525D01*
X-120799Y-208500D01*
Y-240634D01*
X-123299Y-241132D01*
X-123572Y-240472D01*
X-124614Y-239114D01*
X-125972Y-238072D01*
X-127553Y-237417D01*
X-129250Y-237194D01*
X-130947Y-237417D01*
X-132528Y-238072D01*
X-133886Y-239114D01*
X-134928Y-240472D01*
X-135230Y-241201D01*
X-137250D01*
X-138225Y-241395D01*
X-139052Y-241948D01*
X-141521Y-244416D01*
X-150314Y-235624D01*
X-159506Y-244816D01*
X-147913Y-256409D01*
Y-281308D01*
X-179440Y-312836D01*
X-181750Y-311879D01*
Y-310500D01*
X-187750D01*
Y-309500D01*
X-188750D01*
Y-302750D01*
X-193451D01*
X-193750Y-302750D01*
X-193750Y-302750D01*
X-195750Y-303250D01*
X-195750Y-303250D01*
X-198701D01*
Y-300230D01*
X-197972Y-299928D01*
X-196614Y-298886D01*
X-195572Y-297528D01*
X-194917Y-295947D01*
X-194694Y-294250D01*
X-194917Y-292553D01*
X-195572Y-290972D01*
X-196614Y-289614D01*
X-197972Y-288572D01*
X-199553Y-287917D01*
X-201250Y-287694D01*
X-202947Y-287917D01*
X-204528Y-288572D01*
X-205886Y-289614D01*
X-206928Y-290972D01*
X-207583Y-292553D01*
X-207806Y-294250D01*
X-207583Y-295947D01*
X-206928Y-297528D01*
X-205886Y-298886D01*
X-204528Y-299928D01*
X-203799Y-300230D01*
Y-303250D01*
X-206750D01*
Y-312145D01*
X-219303Y-324698D01*
X-219855Y-325525D01*
X-220049Y-326500D01*
Y-326852D01*
X-220363Y-327645D01*
X-222865Y-328022D01*
X-223175Y-327559D01*
X-226507Y-324226D01*
Y-314862D01*
X-221209D01*
Y-311862D01*
X-220464D01*
Y-306500D01*
Y-301138D01*
X-221209D01*
Y-298138D01*
X-223550D01*
X-224801Y-295823D01*
X-224803Y-295638D01*
X-223049Y-293884D01*
X-138740Y-209575D01*
X-138695Y-209621D01*
X-134668Y-204906D01*
X-131429Y-199620D01*
X-129056Y-193891D01*
X-127608Y-187862D01*
X-127307Y-184029D01*
X-127122Y-181681D01*
X-127122D01*
X-127122Y-181681D01*
X-127294Y-179252D01*
X-127555Y-175259D01*
X-128795Y-169029D01*
X-130836Y-163013D01*
X-133646Y-157316D01*
X-137175Y-152034D01*
X-140435Y-148317D01*
X-140504Y-147796D01*
X-141435Y-145549D01*
X-142915Y-143620D01*
X-143182Y-143357D01*
X-144546Y-141186D01*
Y-141186D01*
X-147021Y-138711D01*
X-144192Y-135882D01*
X-143485Y-135175D01*
X-141718Y-133407D01*
X-138182Y-129872D01*
X-136414Y-128104D01*
X-135707Y-127397D01*
X-132172Y-123861D01*
X-131499Y-123189D01*
X-129648Y-121505D01*
X-118258Y-132895D01*
D02*
G37*
G36*
X245455Y-129799D02*
X244206Y-130178D01*
X240732Y-132035D01*
X237686Y-134534D01*
X235187Y-137580D01*
X233330Y-141054D01*
X232186Y-144824D01*
X231800Y-148745D01*
X232186Y-152666D01*
X233330Y-156435D01*
X235187Y-159910D01*
X237686Y-162955D01*
X240732Y-165455D01*
X244206Y-167312D01*
X247976Y-168455D01*
X251897Y-168842D01*
X255817Y-168455D01*
X259587Y-167312D01*
X263062Y-165455D01*
X266107Y-162955D01*
X268606Y-159910D01*
X270464Y-156435D01*
X271607Y-152666D01*
X271993Y-148745D01*
X271607Y-144824D01*
X270703Y-141843D01*
X272914Y-140518D01*
X283698Y-151302D01*
X284524Y-151855D01*
X285500Y-152049D01*
X290142D01*
X290366Y-152384D01*
X291689Y-153268D01*
X293250Y-153578D01*
X294811Y-153268D01*
X294951Y-153174D01*
X297451Y-154510D01*
Y-188444D01*
X287694Y-198201D01*
X282108D01*
X281884Y-197866D01*
X280561Y-196982D01*
X279000Y-196672D01*
X277439Y-196982D01*
X276116Y-197866D01*
X275232Y-199189D01*
X274922Y-200750D01*
X275232Y-202311D01*
X276116Y-203634D01*
X277439Y-204518D01*
X279000Y-204828D01*
X280561Y-204518D01*
X281884Y-203634D01*
X282108Y-203299D01*
X288750D01*
X289725Y-203105D01*
X290552Y-202552D01*
X299333Y-193772D01*
X301642Y-194729D01*
Y-219060D01*
X301206Y-219434D01*
X299291Y-220244D01*
X296773Y-217727D01*
X295616Y-216953D01*
X294250Y-216681D01*
X285165D01*
X198092Y-129609D01*
X199048Y-127299D01*
X245084D01*
X245455Y-129799D01*
D02*
G37*
G36*
X18000Y-224531D02*
X26781D01*
Y-224531D01*
X27288Y-224571D01*
X28240Y-227155D01*
X20694Y-234701D01*
X13000D01*
X12025Y-234895D01*
X11198Y-235448D01*
X9029Y-237616D01*
X8047Y-237470D01*
X6475Y-236635D01*
X6333Y-235553D01*
X5678Y-233972D01*
X4636Y-232614D01*
X3278Y-231572D01*
X1697Y-230917D01*
X0Y-230694D01*
X-1697Y-230917D01*
X-3278Y-231572D01*
X-4789Y-229586D01*
X4719Y-220078D01*
X7219Y-221113D01*
Y-224531D01*
X16000D01*
Y-215258D01*
X18000D01*
Y-224531D01*
D02*
G37*
G36*
X-12784Y-223952D02*
X-12205Y-225934D01*
X-12146Y-226850D01*
X-16939Y-231643D01*
X-19245Y-230881D01*
X-19439Y-230729D01*
Y-228939D01*
X-25000D01*
Y-235730D01*
X-26000D01*
Y-236730D01*
X-32561D01*
Y-241686D01*
X-32561Y-242521D01*
X-32061Y-244814D01*
Y-256561D01*
X-29059D01*
Y-264750D01*
X-29059Y-264750D01*
X-28826Y-265921D01*
X-28163Y-266913D01*
X-24059Y-271017D01*
Y-272954D01*
X-25302Y-274198D01*
X-25855Y-275025D01*
X-26049Y-276000D01*
Y-276694D01*
X-27500D01*
Y-286194D01*
Y-295694D01*
X-26299D01*
Y-322944D01*
X-30306Y-326951D01*
X-61899D01*
X-62875Y-327145D01*
X-63702Y-327698D01*
X-67205Y-331201D01*
X-124976D01*
X-126011Y-328701D01*
X-118494Y-321184D01*
X-132636Y-307042D01*
X-141828Y-316234D01*
X-129361Y-328701D01*
X-130397Y-331201D01*
X-139181D01*
X-139482Y-329689D01*
X-140366Y-328366D01*
X-141689Y-327482D01*
X-143250Y-327172D01*
X-144811Y-327482D01*
X-144967Y-327586D01*
X-145569Y-327505D01*
X-147563Y-326347D01*
X-147667Y-325553D01*
X-148322Y-323972D01*
X-149364Y-322614D01*
X-150722Y-321572D01*
X-152303Y-320917D01*
X-154000Y-320694D01*
X-155697Y-320917D01*
X-157278Y-321572D01*
X-158636Y-322614D01*
X-159678Y-323972D01*
X-160333Y-325553D01*
X-160556Y-327250D01*
X-160333Y-328947D01*
X-159678Y-330528D01*
X-158636Y-331886D01*
X-158225Y-332201D01*
X-159074Y-334701D01*
X-165809D01*
X-165866Y-334616D01*
X-167189Y-333732D01*
X-168750Y-333422D01*
X-170311Y-333732D01*
X-171634Y-334616D01*
X-172113Y-335334D01*
X-174319Y-335925D01*
X-175063Y-335919D01*
X-178053Y-332929D01*
X-171768Y-326644D01*
X-171414Y-326998D01*
X-168355Y-323938D01*
X-172146Y-320146D01*
X-171439Y-319439D01*
X-172146Y-318732D01*
X-168380Y-314966D01*
X-171370Y-311975D01*
X-143562Y-284166D01*
X-143009Y-283339D01*
X-142815Y-282364D01*
Y-256409D01*
X-136172Y-249766D01*
Y-249766D01*
X-136075Y-249640D01*
X-135741Y-249448D01*
X-132675Y-249315D01*
X-132528Y-249428D01*
X-130947Y-250083D01*
X-129250Y-250306D01*
X-127553Y-250083D01*
X-125972Y-249428D01*
X-124614Y-248386D01*
X-123572Y-247028D01*
X-123299Y-246368D01*
X-120799Y-246866D01*
Y-256700D01*
X-120605Y-257675D01*
X-120052Y-258502D01*
X-95002Y-283552D01*
X-94175Y-284105D01*
X-93200Y-284299D01*
X-78887D01*
X-77811Y-285018D01*
X-76250Y-285328D01*
X-74689Y-285018D01*
X-73366Y-284134D01*
X-72482Y-282811D01*
X-72172Y-281250D01*
X-72482Y-279689D01*
X-73366Y-278366D01*
X-73841Y-278049D01*
X-73083Y-275549D01*
X-68319D01*
X-66500Y-277194D01*
Y-290256D01*
X-66650Y-292694D01*
X-69000Y-292694D01*
X-77650D01*
Y-308694D01*
X-66650D01*
Y-297632D01*
X-66500Y-295194D01*
X-60500Y-295194D01*
Y-295194D01*
X-36500D01*
Y-295194D01*
X-32000D01*
Y-295694D01*
X-29500D01*
Y-286194D01*
Y-276694D01*
X-31451D01*
Y-276302D01*
X-31645Y-275326D01*
X-32198Y-274499D01*
X-43451Y-263246D01*
Y-256561D01*
X-39939D01*
Y-244814D01*
X-39439Y-242521D01*
X-39439Y-241686D01*
Y-236730D01*
X-46000D01*
Y-234730D01*
X-39439D01*
Y-230172D01*
X-39250Y-227750D01*
X-39250Y-226518D01*
Y-225128D01*
X-38708Y-224713D01*
X-36750Y-224021D01*
X-35872Y-224608D01*
X-34170Y-224946D01*
X-24839D01*
X-23138Y-224608D01*
X-21720Y-223660D01*
X-20811Y-224268D01*
X-19250Y-224578D01*
X-17689Y-224268D01*
X-16366Y-223384D01*
X-13634D01*
X-12784Y-223952D01*
D02*
G37*
G36*
X-98319Y-199480D02*
X-98125Y-200455D01*
X-97572Y-201283D01*
X-90281Y-208574D01*
X-90583Y-209303D01*
X-90806Y-211000D01*
X-90583Y-212697D01*
X-89928Y-214278D01*
X-88886Y-215636D01*
X-87528Y-216678D01*
X-85947Y-217333D01*
X-84250Y-217556D01*
X-82799Y-218829D01*
Y-227000D01*
X-84715Y-228916D01*
X-84768Y-228939D01*
X-85000D01*
Y-235730D01*
X-87000D01*
Y-228939D01*
X-92561D01*
X-93451Y-226808D01*
Y-219750D01*
X-93645Y-218775D01*
X-94198Y-217948D01*
X-98719Y-213426D01*
X-98417Y-212697D01*
X-98194Y-211000D01*
X-98417Y-209303D01*
X-99072Y-207722D01*
X-100114Y-206364D01*
X-101472Y-205322D01*
X-102201Y-205020D01*
Y-200502D01*
X-102061Y-198061D01*
X-98319D01*
Y-199480D01*
D02*
G37*
G36*
X-333250Y-189250D02*
Y-189250D01*
X-329549D01*
Y-200500D01*
X-329355Y-201475D01*
X-328802Y-202302D01*
X-311052Y-220052D01*
X-310225Y-220605D01*
X-309250Y-220799D01*
X-298846D01*
X-298440Y-221070D01*
X-296989Y-223299D01*
X-297078Y-223750D01*
X-296768Y-225311D01*
X-295884Y-226634D01*
X-294561Y-227518D01*
X-293000Y-227828D01*
X-292605Y-227750D01*
X-288549Y-231806D01*
Y-235500D01*
X-292250D01*
Y-238451D01*
X-295750D01*
Y-233750D01*
X-308250D01*
Y-244750D01*
X-295750D01*
Y-243549D01*
X-292250D01*
Y-246500D01*
X-280309D01*
X-282311Y-249000D01*
X-292250D01*
Y-260000D01*
X-284271D01*
X-283314Y-262310D01*
X-288504Y-267500D01*
X-296451D01*
Y-264000D01*
X-296645Y-263025D01*
X-297198Y-262198D01*
X-298000Y-261395D01*
X-297922Y-261000D01*
X-297971Y-260750D01*
X-296249Y-258250D01*
X-295750D01*
Y-247250D01*
X-308250D01*
Y-250451D01*
X-317835D01*
X-318811Y-250645D01*
X-319073Y-250820D01*
X-319722Y-250322D01*
X-321303Y-249667D01*
X-323000Y-249444D01*
X-324697Y-249667D01*
X-326278Y-250322D01*
X-327636Y-251364D01*
X-328678Y-252722D01*
X-329333Y-254303D01*
X-329556Y-256000D01*
X-329333Y-257697D01*
X-328678Y-259278D01*
X-327636Y-260636D01*
X-326278Y-261678D01*
X-324697Y-262333D01*
X-323000Y-262556D01*
X-321303Y-262333D01*
X-319722Y-261678D01*
X-318364Y-260636D01*
X-317322Y-259278D01*
X-316667Y-257697D01*
X-316444Y-256000D01*
X-316048Y-255549D01*
X-308250D01*
Y-258250D01*
X-307751D01*
X-306029Y-260750D01*
X-306078Y-261000D01*
X-305768Y-262561D01*
X-304884Y-263884D01*
X-303561Y-264768D01*
X-302394Y-265000D01*
X-302640Y-267500D01*
X-360492Y-267500D01*
Y-206089D01*
X-359500Y-204000D01*
X-351000D01*
Y-197000D01*
X-350000D01*
Y-196000D01*
X-340500D01*
Y-192166D01*
X-338696Y-191419D01*
X-336085Y-189415D01*
X-335750Y-188979D01*
X-333250Y-189250D01*
D02*
G37*
G36*
X-262250Y-220355D02*
X-262328Y-220750D01*
X-262018Y-222311D01*
X-261134Y-223634D01*
X-259811Y-224518D01*
X-258250Y-224828D01*
X-257549Y-224689D01*
X-255457Y-225953D01*
X-255049Y-226429D01*
Y-238995D01*
X-263067Y-247013D01*
X-265186Y-245596D01*
X-264917Y-244947D01*
X-264694Y-243250D01*
X-264917Y-241553D01*
X-265572Y-239972D01*
X-266614Y-238614D01*
X-267972Y-237572D01*
X-269553Y-236917D01*
X-271250Y-236694D01*
X-272947Y-236917D01*
X-274528Y-237572D01*
X-275886Y-238614D01*
X-276928Y-239972D01*
X-277250Y-240750D01*
X-279750Y-240253D01*
Y-235500D01*
X-283451D01*
Y-230750D01*
X-283645Y-229775D01*
X-284198Y-228948D01*
X-289000Y-224145D01*
X-288922Y-223750D01*
X-289011Y-223299D01*
X-287560Y-221070D01*
X-287154Y-220799D01*
X-283785D01*
X-282810Y-220605D01*
X-281983Y-220052D01*
X-280555Y-218624D01*
X-280448Y-218552D01*
X-279198Y-217302D01*
X-278645Y-216475D01*
X-278451Y-215500D01*
Y-207689D01*
X-275951Y-206654D01*
X-262250Y-220355D01*
D02*
G37*
G36*
X-110428Y-207722D02*
X-111083Y-209303D01*
X-111306Y-211000D01*
X-111083Y-212697D01*
X-110428Y-214278D01*
X-109386Y-215636D01*
X-108028Y-216678D01*
X-106447Y-217333D01*
X-104750Y-217556D01*
X-103053Y-217333D01*
X-102324Y-217031D01*
X-98549Y-220806D01*
Y-226808D01*
X-99439Y-228939D01*
X-101049Y-228939D01*
X-105000D01*
Y-235730D01*
X-106000D01*
Y-236730D01*
X-112561D01*
Y-241686D01*
X-112561Y-242521D01*
X-112061Y-244814D01*
Y-254514D01*
X-114552Y-255770D01*
X-115701Y-254906D01*
Y-209556D01*
X-112435Y-206290D01*
X-110428Y-207722D01*
D02*
G37*
G36*
X52982Y-152808D02*
X53366Y-153384D01*
X53701Y-153608D01*
Y-183250D01*
X53895Y-184226D01*
X54448Y-185052D01*
X107554Y-238159D01*
X107698Y-238374D01*
X163360Y-294036D01*
X128194Y-329201D01*
X116040D01*
X115428Y-327722D01*
X114386Y-326364D01*
X113028Y-325322D01*
X111447Y-324667D01*
X109750Y-324444D01*
X108053Y-324667D01*
X106472Y-325322D01*
X105114Y-326364D01*
X104072Y-327722D01*
X103417Y-329303D01*
X103194Y-331000D01*
X103417Y-332697D01*
X104072Y-334278D01*
X105114Y-335636D01*
X106472Y-336678D01*
X108053Y-337333D01*
X109750Y-337556D01*
X111447Y-337333D01*
X113028Y-336678D01*
X114386Y-335636D01*
X115412Y-334299D01*
X126701D01*
Y-337500D01*
X126895Y-338475D01*
X127448Y-339302D01*
X130809Y-342663D01*
X128191Y-345280D01*
X135763Y-352851D01*
X137030Y-354826D01*
X137237Y-355033D01*
X140566Y-358362D01*
X145339Y-353589D01*
X150112Y-348816D01*
X146783Y-345487D01*
X146576Y-345280D01*
X144601Y-344013D01*
X144455Y-343866D01*
X137030Y-336441D01*
X134413Y-339058D01*
X131799Y-336444D01*
Y-332806D01*
X166964Y-297640D01*
X175626Y-306302D01*
X176453Y-306855D01*
X177429Y-307049D01*
X188948D01*
X189796Y-309549D01*
X188382Y-310634D01*
X186378Y-313246D01*
X185118Y-316286D01*
X184689Y-319550D01*
X185118Y-322813D01*
X186378Y-325854D01*
X188382Y-328465D01*
X190993Y-330468D01*
X194034Y-331728D01*
X197297Y-332158D01*
X200560Y-331728D01*
X203601Y-330468D01*
X206212Y-328465D01*
X208215Y-325854D01*
X209475Y-322813D01*
X209904Y-319550D01*
X209475Y-316286D01*
X208215Y-313246D01*
X206212Y-310634D01*
X206087Y-310539D01*
X206022Y-309897D01*
X206689Y-307850D01*
X207999Y-307640D01*
X208939Y-308268D01*
X210500Y-308578D01*
X211662Y-308347D01*
X213012Y-308993D01*
X214162Y-309871D01*
Y-327599D01*
X198506Y-343256D01*
X197511Y-344744D01*
X197162Y-346500D01*
Y-371172D01*
X149510D01*
X120455Y-342116D01*
X119132Y-341232D01*
X117571Y-340922D01*
X117571Y-340922D01*
X98549D01*
Y-322250D01*
X102250D01*
X102250Y-311543D01*
X102750Y-309250D01*
X102750Y-308957D01*
Y-304250D01*
X89250D01*
Y-308957D01*
X89250Y-309250D01*
X89750Y-311543D01*
X89750Y-311750D01*
Y-322250D01*
X93451D01*
Y-340922D01*
X-10301D01*
X-11257Y-338612D01*
X13302Y-314052D01*
X13855Y-313225D01*
X14049Y-312250D01*
Y-295194D01*
X18500D01*
Y-295194D01*
X33672D01*
X35211Y-297694D01*
X34939Y-298232D01*
X33616Y-299116D01*
X32732Y-300439D01*
X32422Y-302000D01*
X32732Y-303561D01*
X33616Y-304884D01*
X34939Y-305768D01*
X36500Y-306078D01*
X38061Y-305768D01*
X39384Y-304884D01*
X40203Y-303659D01*
X40852Y-303561D01*
X42148D01*
X42797Y-303659D01*
X43616Y-304884D01*
X44939Y-305768D01*
X46500Y-306078D01*
X48061Y-305768D01*
X49384Y-304884D01*
X50268Y-303561D01*
X50578Y-302000D01*
X50268Y-300439D01*
X49384Y-299116D01*
X49049Y-298892D01*
Y-295194D01*
X54500Y-295194D01*
X54650Y-297632D01*
Y-308694D01*
X65650D01*
Y-292694D01*
X57000D01*
X54650Y-292694D01*
X54500Y-290256D01*
Y-277194D01*
X41446D01*
X40411Y-274694D01*
X45306Y-269799D01*
X66694D01*
X73698Y-276802D01*
X74524Y-277355D01*
X75500Y-277549D01*
X78689D01*
Y-281061D01*
X90436D01*
X92729Y-281561D01*
X93564Y-281561D01*
X98520D01*
Y-275000D01*
Y-268439D01*
X93564D01*
X92729Y-268439D01*
X90436Y-268939D01*
X78689D01*
Y-271566D01*
X76189Y-272085D01*
X69552Y-265448D01*
X68726Y-264895D01*
X67750Y-264701D01*
X61067D01*
X60031Y-262201D01*
X60250Y-261982D01*
X60439Y-262061D01*
Y-262061D01*
X72186D01*
X74479Y-262561D01*
X75314Y-262561D01*
X80270D01*
Y-256000D01*
Y-249439D01*
X75314D01*
X74479Y-249439D01*
X72186Y-249939D01*
X60439D01*
Y-253840D01*
X60111D01*
X59135Y-254034D01*
X58309Y-254587D01*
X51694Y-261201D01*
X45087D01*
X43288Y-259507D01*
X38390Y-254609D01*
X39347Y-252299D01*
X44500D01*
X45475Y-252105D01*
X46302Y-251552D01*
X49052Y-248802D01*
X49605Y-247976D01*
X49799Y-247000D01*
Y-236500D01*
X49605Y-235525D01*
X49422Y-235250D01*
X50250Y-232750D01*
X50250D01*
Y-221750D01*
X37799D01*
Y-219250D01*
X50250D01*
Y-208250D01*
X49813D01*
X49395Y-207956D01*
X47979Y-205750D01*
X48078Y-205250D01*
X47768Y-203689D01*
X46884Y-202366D01*
X45561Y-201482D01*
X44000Y-201172D01*
X42439Y-201482D01*
X41116Y-202366D01*
X40299Y-203589D01*
X40111Y-203626D01*
X37799Y-202972D01*
Y-179550D01*
X37605Y-178575D01*
X37052Y-177748D01*
X24963Y-165659D01*
X25920Y-163349D01*
X37849D01*
X38825Y-163155D01*
X39652Y-162603D01*
X49976Y-152278D01*
X50586Y-152225D01*
X52982Y-152808D01*
D02*
G37*
G36*
X-5678Y-233972D02*
X-6333Y-235553D01*
X-6556Y-237250D01*
X-6333Y-238947D01*
X-5678Y-240528D01*
X-4636Y-241886D01*
X-3278Y-242928D01*
X-1697Y-243583D01*
X-615Y-243725D01*
X220Y-245297D01*
X366Y-246280D01*
X-15302Y-261948D01*
X-15855Y-262775D01*
X-16049Y-263750D01*
Y-267424D01*
X-18549Y-268018D01*
X-18837Y-267587D01*
X-22941Y-263483D01*
Y-256561D01*
X-19939D01*
Y-253839D01*
X-17343D01*
X-15977Y-253567D01*
X-14820Y-252793D01*
X-12477Y-250450D01*
X-11703Y-249292D01*
X-11431Y-247927D01*
Y-236228D01*
X-7664Y-232461D01*
X-5678Y-233972D01*
D02*
G37*
G36*
X-254612Y-301739D02*
Y-305500D01*
X-249286D01*
Y-306500D01*
X-248286D01*
Y-311862D01*
X-247541D01*
Y-314862D01*
X-242243D01*
Y-322741D01*
X-246198Y-326697D01*
X-261448Y-311448D01*
X-262274Y-310895D01*
X-263250Y-310701D01*
X-264250D01*
Y-303250D01*
X-264250D01*
X-264281Y-303147D01*
X-262362Y-300824D01*
X-262250Y-300835D01*
X-258819Y-300497D01*
X-256563Y-299813D01*
X-254612Y-301739D01*
D02*
G37*
G36*
X-282250Y-316250D02*
X-277549D01*
X-277250Y-316250D01*
X-277250Y-316250D01*
X-275250Y-315750D01*
X-275250Y-315750D01*
X-266996D01*
X-266750Y-315799D01*
X-264306D01*
X-256569Y-323536D01*
X-258025Y-325616D01*
X-259000Y-325422D01*
X-260561Y-325732D01*
X-261884Y-326616D01*
X-262768Y-327939D01*
X-263078Y-329500D01*
X-263044Y-329672D01*
X-264156Y-331603D01*
X-265863Y-332000D01*
X-267500D01*
Y-341500D01*
X-269500D01*
Y-332000D01*
X-272100D01*
Y-337122D01*
X-273263Y-337960D01*
X-274600Y-338490D01*
X-276042Y-337892D01*
X-276500Y-337832D01*
Y-349199D01*
Y-360567D01*
X-276042Y-360506D01*
X-274218Y-359751D01*
X-272651Y-358549D01*
X-271602Y-357180D01*
X-271282Y-357077D01*
X-270781Y-357032D01*
X-268825Y-357179D01*
X-268045Y-358345D01*
X-266143Y-359616D01*
X-263900Y-360062D01*
X-261656Y-359616D01*
X-259754Y-358345D01*
X-258484Y-356443D01*
X-258037Y-354200D01*
X-258276Y-353000D01*
X-256679Y-350500D01*
X-249100D01*
Y-354000D01*
X-248536D01*
X-248393Y-354720D01*
X-247010Y-356789D01*
X-245539Y-358260D01*
X-243469Y-359643D01*
X-241028Y-360128D01*
X-234002D01*
X-231562Y-359643D01*
X-229492Y-358260D01*
X-228021Y-356789D01*
X-226638Y-354720D01*
X-226495Y-354000D01*
X-220900D01*
Y-350500D01*
X-213321D01*
X-211724Y-353000D01*
X-211963Y-354200D01*
X-211516Y-356443D01*
X-210246Y-358345D01*
X-208344Y-359616D01*
X-206100Y-360062D01*
X-203857Y-359616D01*
X-201955Y-358345D01*
X-201175Y-357179D01*
X-199219Y-357032D01*
X-198718Y-357077D01*
X-198398Y-357180D01*
X-197349Y-358549D01*
X-195782Y-359751D01*
X-193958Y-360506D01*
X-193500Y-360567D01*
Y-349199D01*
Y-337832D01*
X-193958Y-337892D01*
X-195400Y-338490D01*
X-196737Y-337960D01*
X-197900Y-337122D01*
Y-332783D01*
X-189735D01*
X-187759Y-334759D01*
X-165884Y-356634D01*
X-165884Y-356634D01*
X-165797Y-357063D01*
X-167128Y-359446D01*
X-167311Y-359482D01*
X-168634Y-360366D01*
X-169518Y-361689D01*
X-169828Y-363250D01*
X-169518Y-364811D01*
X-168634Y-366134D01*
X-167311Y-367018D01*
X-165750Y-367328D01*
X-164189Y-367018D01*
X-162866Y-366134D01*
X-161982Y-364811D01*
X-161672Y-363250D01*
X-161685Y-363181D01*
X-160012Y-361299D01*
X-150679D01*
X-149704Y-361105D01*
X-148877Y-360552D01*
X-145623Y-357299D01*
X-58000D01*
X-57024Y-357105D01*
X-56198Y-356552D01*
X-52194Y-352549D01*
X114444D01*
X143948Y-382052D01*
X144775Y-382605D01*
X145750Y-382799D01*
X162944D01*
X175186Y-395041D01*
X175050Y-397493D01*
X174866Y-397616D01*
X173982Y-398939D01*
X173672Y-400500D01*
X173982Y-402061D01*
X174584Y-402961D01*
X174106Y-404520D01*
X173476Y-405461D01*
X107415D01*
X105976Y-405299D01*
X104719Y-404859D01*
X103592Y-404150D01*
X102650Y-403208D01*
X101941Y-402081D01*
X101501Y-400824D01*
X101339Y-399385D01*
Y-391000D01*
X101316Y-390887D01*
X101326Y-390772D01*
X101126Y-388992D01*
X101056Y-388773D01*
X101024Y-388546D01*
X100432Y-386855D01*
X100316Y-386658D01*
X100234Y-386444D01*
X99281Y-384927D01*
X99124Y-384761D01*
X98996Y-384570D01*
X97730Y-383303D01*
X97539Y-383176D01*
X97373Y-383019D01*
X95856Y-382066D01*
X95642Y-381984D01*
X95445Y-381868D01*
X93754Y-381276D01*
X93527Y-381244D01*
X93308Y-381174D01*
X91528Y-380974D01*
X91413Y-380983D01*
X91300Y-380961D01*
X-85800D01*
X-85913Y-380983D01*
X-86028Y-380974D01*
X-87809Y-381174D01*
X-88027Y-381244D01*
X-88254Y-381276D01*
X-89944Y-381868D01*
X-90142Y-381984D01*
X-90356Y-382066D01*
X-91873Y-383019D01*
X-92039Y-383176D01*
X-92230Y-383303D01*
X-93497Y-384570D01*
X-93624Y-384761D01*
X-93781Y-384927D01*
X-94734Y-386444D01*
X-94816Y-386658D01*
X-94932Y-386855D01*
X-95524Y-388546D01*
X-95556Y-388773D01*
X-95626Y-388992D01*
X-95826Y-390772D01*
X-95816Y-390887D01*
X-95839Y-391000D01*
Y-399385D01*
X-96001Y-400824D01*
X-96441Y-402081D01*
X-97149Y-403208D01*
X-98091Y-404150D01*
X-99219Y-404859D01*
X-100476Y-405299D01*
X-101915Y-405461D01*
X-184366D01*
X-184780Y-404961D01*
X-185476Y-402961D01*
X-184575Y-401787D01*
X-183718Y-399719D01*
X-183426Y-397500D01*
Y-395000D01*
X-200573D01*
Y-397500D01*
X-200281Y-399719D01*
X-199424Y-401787D01*
X-198524Y-402961D01*
X-199220Y-404961D01*
X-199633Y-405461D01*
X-270367D01*
X-270781Y-404961D01*
X-271476Y-402961D01*
X-270576Y-401787D01*
X-269719Y-399719D01*
X-269427Y-397500D01*
Y-395000D01*
X-286574D01*
Y-397500D01*
X-286282Y-399719D01*
X-285425Y-401787D01*
X-284524Y-402961D01*
X-285220Y-404961D01*
X-285634Y-405461D01*
X-297595D01*
X-298439Y-403311D01*
X-298439Y-403311D01*
X-298439D01*
X-298439Y-403311D01*
Y-389729D01*
X-296532Y-388299D01*
X-293608D01*
X-293384Y-388634D01*
X-292061Y-389518D01*
X-290500Y-389828D01*
X-288959Y-389522D01*
X-288935Y-389521D01*
X-286574Y-390944D01*
Y-392000D01*
X-279500D01*
Y-381124D01*
X-280219Y-381219D01*
X-282287Y-382076D01*
X-284063Y-383438D01*
X-284277Y-383717D01*
X-284908Y-383839D01*
X-287225Y-383452D01*
X-287616Y-382866D01*
X-287912Y-382668D01*
Y-379832D01*
X-287616Y-379634D01*
X-286732Y-378311D01*
X-286422Y-376750D01*
X-286500Y-376355D01*
X-285698Y-375552D01*
X-285145Y-374725D01*
X-284951Y-373750D01*
Y-360394D01*
X-282451Y-359238D01*
X-281783Y-359751D01*
X-279958Y-360506D01*
X-279500Y-360567D01*
Y-349199D01*
Y-337832D01*
X-279958Y-337892D01*
X-281783Y-338648D01*
X-282451Y-339161D01*
X-284951Y-338005D01*
Y-320321D01*
X-285145Y-319345D01*
X-285543Y-318750D01*
X-285188Y-317287D01*
X-284758Y-316250D01*
X-284250D01*
Y-309500D01*
X-282250D01*
Y-316250D01*
D02*
G37*
G36*
X-8637Y-296463D02*
X-8628Y-297694D01*
X-9634Y-298366D01*
X-10518Y-299689D01*
X-10828Y-301250D01*
X-10518Y-302811D01*
X-9634Y-304134D01*
X-8311Y-305018D01*
X-6750Y-305328D01*
X-5189Y-305018D01*
X-3866Y-304134D01*
X-3549Y-303659D01*
X-1049Y-304417D01*
Y-311295D01*
X-20205Y-330451D01*
X-23330D01*
X-24287Y-328141D01*
X-21948Y-325802D01*
X-21395Y-324975D01*
X-21201Y-324000D01*
Y-295194D01*
X-9044D01*
X-8637Y-296463D01*
D02*
G37*
G36*
X337694Y-300572D02*
Y-306034D01*
X327614Y-316114D01*
X326572Y-317472D01*
X325917Y-319053D01*
X325694Y-320750D01*
Y-348417D01*
X323194Y-349266D01*
X322886Y-348864D01*
X321528Y-347822D01*
X319947Y-347167D01*
X318250Y-346944D01*
X316553Y-347167D01*
X314972Y-347822D01*
X314049Y-348531D01*
X312477Y-348085D01*
X311681Y-347539D01*
X311775Y-345136D01*
X312278Y-344928D01*
X313636Y-343886D01*
X314678Y-342528D01*
X315333Y-340947D01*
X315556Y-339250D01*
X315333Y-337553D01*
X314678Y-335972D01*
X313636Y-334614D01*
X312278Y-333572D01*
X310697Y-332917D01*
X309000Y-332694D01*
X307303Y-332917D01*
X305722Y-333572D01*
X304364Y-334614D01*
X303322Y-335972D01*
X302667Y-337553D01*
X302444Y-339250D01*
X302667Y-340947D01*
X303322Y-342528D01*
X304364Y-343886D01*
X305289Y-344595D01*
X305392Y-345879D01*
X304252Y-346883D01*
X303225Y-347395D01*
X302250Y-347201D01*
X291065D01*
X290109Y-344891D01*
X335384Y-299616D01*
X337694Y-300572D01*
D02*
G37*
G36*
X335698Y-165802D02*
X336525Y-166355D01*
X337500Y-166549D01*
X339484D01*
X339981Y-169049D01*
X338696Y-169581D01*
X336085Y-171585D01*
X334081Y-174196D01*
X332822Y-177237D01*
X332392Y-180500D01*
X332822Y-183763D01*
X334081Y-186804D01*
X336085Y-189415D01*
X338696Y-191419D01*
X340500Y-192166D01*
Y-196000D01*
X350000D01*
Y-197000D01*
X351000D01*
Y-204000D01*
X358000D01*
X360500Y-206086D01*
X360500Y-340945D01*
X360500Y-340945D01*
X360500Y-343306D01*
X361239Y-347971D01*
X362699Y-352463D01*
X364843Y-356671D01*
X367618Y-360491D01*
X370958Y-363831D01*
X374779Y-366607D01*
X378987Y-368751D01*
X383478Y-370210D01*
X388143Y-370949D01*
X392866Y-370949D01*
X397530Y-370210D01*
X399887Y-369444D01*
X401808Y-371449D01*
X400670Y-374498D01*
X397049Y-381130D01*
X392521Y-387179D01*
X387179Y-392521D01*
X381130Y-397049D01*
X374498Y-400670D01*
X367419Y-403311D01*
X360036Y-404917D01*
X352427Y-405461D01*
X182024D01*
X181394Y-404520D01*
X180916Y-402961D01*
X181518Y-402061D01*
X181828Y-400500D01*
X181518Y-398939D01*
X180634Y-397616D01*
X180299Y-397392D01*
Y-394000D01*
X180105Y-393024D01*
X179552Y-392198D01*
X168993Y-381638D01*
X169949Y-379328D01*
X183810D01*
X185945Y-380209D01*
X185945Y-381828D01*
Y-390000D01*
X194473D01*
X203000D01*
Y-381929D01*
X203217Y-380882D01*
X203519Y-379995D01*
X205135Y-379328D01*
X206824D01*
X213972Y-386477D01*
Y-401291D01*
X230028D01*
Y-399128D01*
X233504D01*
X233744Y-399289D01*
X235500Y-399638D01*
X244000D01*
X245756Y-399289D01*
X247244Y-398294D01*
X248239Y-396806D01*
X248588Y-395050D01*
X248239Y-393294D01*
X247244Y-391806D01*
X245756Y-390811D01*
X244000Y-390462D01*
X235500D01*
X233744Y-390811D01*
X233504Y-390972D01*
X230028D01*
Y-387485D01*
X230406Y-387175D01*
X232527Y-386377D01*
X233549Y-387060D01*
X235500Y-387448D01*
X238750D01*
Y-382350D01*
Y-377252D01*
X235500D01*
X233549Y-377640D01*
X231895Y-378745D01*
X231771Y-378931D01*
X230265Y-380466D01*
X228374Y-380709D01*
X219740D01*
X211397Y-372366D01*
X210074Y-371482D01*
X208514Y-371172D01*
X206338Y-370269D01*
Y-348400D01*
X221994Y-332744D01*
X222989Y-331256D01*
X223338Y-329500D01*
Y-310310D01*
X225838Y-308546D01*
X226000Y-308578D01*
X226395Y-308500D01*
X269448Y-351552D01*
X270275Y-352105D01*
X271250Y-352299D01*
X284704D01*
X286025Y-354799D01*
X285761Y-355194D01*
X285412Y-356950D01*
X285761Y-358706D01*
X286756Y-360194D01*
X288244Y-361189D01*
X290000Y-361538D01*
X298500D01*
X300256Y-361189D01*
X301744Y-360194D01*
X302209Y-359499D01*
X302578D01*
X303554Y-359305D01*
X303951Y-359040D01*
X305433Y-359497D01*
X306451Y-360218D01*
Y-365694D01*
X305044Y-367101D01*
X302209D01*
X301744Y-366406D01*
X300256Y-365411D01*
X298500Y-365062D01*
X290000D01*
X288244Y-365411D01*
X286756Y-366406D01*
X285761Y-367894D01*
X285412Y-369650D01*
X285761Y-371406D01*
X286756Y-372894D01*
X288244Y-373889D01*
X290000Y-374238D01*
X298500D01*
X299713Y-373997D01*
X301089Y-375831D01*
X301187Y-376059D01*
X299320Y-377925D01*
X298500Y-377762D01*
X290000D01*
X288244Y-378111D01*
X286756Y-379106D01*
X285761Y-380594D01*
X285412Y-382350D01*
X285761Y-384106D01*
X286756Y-385594D01*
X288244Y-386589D01*
X290000Y-386938D01*
X298500D01*
X300256Y-386589D01*
X301744Y-385594D01*
X302739Y-384106D01*
X302998Y-382802D01*
X303959Y-382006D01*
X305385Y-382421D01*
X306459Y-383350D01*
Y-389442D01*
X294250D01*
X292104Y-389869D01*
X291217Y-390462D01*
X290000D01*
X288244Y-390811D01*
X286756Y-391806D01*
X285761Y-393294D01*
X285412Y-395050D01*
X285761Y-396806D01*
X286756Y-398294D01*
X288244Y-399289D01*
X290000Y-399638D01*
X291217D01*
X292104Y-400231D01*
X294250Y-400658D01*
X306459D01*
Y-401041D01*
X322514D01*
Y-389731D01*
X330986Y-381258D01*
X333486Y-382294D01*
Y-389750D01*
X341014D01*
Y-379959D01*
X335821D01*
X334785Y-377459D01*
X336886Y-375359D01*
X337928Y-374001D01*
X338583Y-372420D01*
X338806Y-370723D01*
Y-323466D01*
X348886Y-313386D01*
X349928Y-312028D01*
X350583Y-310447D01*
X350806Y-308750D01*
Y-283750D01*
X350583Y-282053D01*
X349928Y-280472D01*
X348886Y-279114D01*
X339983Y-270211D01*
X345783Y-264411D01*
X346999Y-262591D01*
X347426Y-260445D01*
Y-253818D01*
X346999Y-251672D01*
X345783Y-249853D01*
X329578Y-233648D01*
X330535Y-231338D01*
X331000D01*
X332756Y-230989D01*
X334244Y-229994D01*
X335239Y-228506D01*
X335588Y-226750D01*
X335239Y-224994D01*
X334244Y-223506D01*
X332756Y-222511D01*
X331000Y-222162D01*
X328671D01*
X320338Y-213829D01*
Y-165393D01*
X325244Y-160487D01*
X325902Y-159503D01*
X327948Y-158940D01*
X328805Y-158910D01*
X335698Y-165802D01*
D02*
G37*
G36*
X-327071Y-301250D02*
X-327355Y-301675D01*
X-327549Y-302651D01*
Y-344244D01*
X-341302Y-357998D01*
X-341855Y-358825D01*
X-342049Y-359800D01*
Y-366000D01*
X-349466D01*
X-355000Y-371534D01*
Y-403442D01*
X-356830Y-405146D01*
X-360036Y-404917D01*
X-367419Y-403311D01*
X-374498Y-400670D01*
X-381130Y-397049D01*
X-387179Y-392521D01*
X-392521Y-387178D01*
X-397049Y-381130D01*
X-400670Y-374498D01*
X-401809Y-371446D01*
X-399888Y-369441D01*
X-397522Y-370210D01*
X-392858Y-370949D01*
X-388135D01*
X-383470Y-370210D01*
X-378979Y-368750D01*
X-374771Y-366606D01*
X-370950Y-363830D01*
X-367611Y-360491D01*
X-364835Y-356670D01*
X-362691Y-352462D01*
X-361231Y-347971D01*
X-360492Y-343306D01*
Y-340945D01*
Y-298750D01*
X-327819D01*
X-327071Y-301250D01*
D02*
G37*
%LPC*%
G36*
X113419Y368743D02*
X112424Y368726D01*
X111512Y368330D01*
X110821Y367616D01*
X106598Y361063D01*
X104103Y360904D01*
X103681Y361405D01*
X103419Y361615D01*
X103185Y361857D01*
X103033Y361923D01*
X102904Y362026D01*
X102582Y362119D01*
X102273Y362254D01*
X102108Y362257D01*
X101949Y362303D01*
X101615Y362266D01*
X101279Y362271D01*
X101125Y362211D01*
X100961Y362193D01*
X100666Y362030D01*
X100353Y361908D01*
X100234Y361793D01*
X100089Y361713D01*
X99880Y361450D01*
X99638Y361217D01*
X93388Y352217D01*
X92991Y351305D01*
X92973Y350311D01*
X93337Y349385D01*
X94027Y348669D01*
X94939Y348272D01*
X95934Y348255D01*
X96859Y348619D01*
X97575Y349309D01*
X100753Y353886D01*
X103250Y354002D01*
X103782Y353371D01*
X104078Y353134D01*
X104351Y352870D01*
X104463Y352826D01*
X104558Y352750D01*
X104923Y352645D01*
X105275Y352505D01*
X105397Y352507D01*
X105514Y352473D01*
X105891Y352515D01*
X106270Y352522D01*
X106381Y352570D01*
X106502Y352583D01*
X106834Y352766D01*
X107182Y352917D01*
X107267Y353005D01*
X107373Y353063D01*
X107610Y353360D01*
X107874Y353632D01*
X111745Y359638D01*
X114245D01*
X118196Y353507D01*
X118460Y353234D01*
X118696Y352938D01*
X118803Y352880D01*
X118887Y352792D01*
X119235Y352641D01*
X119568Y352458D01*
X119688Y352445D01*
X119800Y352397D01*
X120179Y352390D01*
X120556Y352348D01*
X120673Y352382D01*
X120794Y352380D01*
X121147Y352519D01*
X121511Y352625D01*
X121606Y352701D01*
X121719Y352745D01*
X121992Y353009D01*
X122288Y353246D01*
X122819Y353877D01*
X125316Y353761D01*
X128495Y349184D01*
X129211Y348494D01*
X130136Y348130D01*
X131130Y348147D01*
X132042Y348544D01*
X132733Y349260D01*
X133097Y350186D01*
X133079Y351180D01*
X132682Y352092D01*
X126432Y361092D01*
X126190Y361325D01*
X125980Y361588D01*
X125835Y361668D01*
X125716Y361782D01*
X125404Y361906D01*
X125109Y362068D01*
X124945Y362086D01*
X124791Y362146D01*
X124455Y362141D01*
X124121Y362178D01*
X123962Y362132D01*
X123796Y362129D01*
X123488Y361995D01*
X123165Y361901D01*
X123036Y361798D01*
X122885Y361732D01*
X122651Y361490D01*
X122389Y361280D01*
X121967Y360779D01*
X119472Y360938D01*
X115249Y367491D01*
X114558Y368205D01*
X114493Y368234D01*
X114344Y368377D01*
X113419Y368743D01*
D02*
G37*
G36*
X0Y368331D02*
X-2156Y368047D01*
X-4166Y367215D01*
X-5891Y365891D01*
X-7215Y364166D01*
X-8047Y362156D01*
X-8331Y360000D01*
X-8047Y357844D01*
X-7215Y355834D01*
X-5891Y354109D01*
X-4166Y352785D01*
X-2156Y351953D01*
X0Y351669D01*
X2156Y351953D01*
X4166Y352785D01*
X5891Y354109D01*
X7215Y355834D01*
X8047Y357844D01*
X8331Y360000D01*
X8047Y362156D01*
X7215Y364166D01*
X5891Y365891D01*
X4166Y367215D01*
X2156Y368047D01*
X0Y368331D01*
D02*
G37*
G36*
X-87458Y355640D02*
X-89408Y355252D01*
X-91062Y354147D01*
X-93360Y351849D01*
X-90463Y348952D01*
X-84700Y354714D01*
X-85507Y355252D01*
X-87458Y355640D01*
D02*
G37*
G36*
X-96438Y364111D02*
X-98194Y363762D01*
X-99682Y362767D01*
X-105692Y356757D01*
X-106687Y355268D01*
X-107036Y353512D01*
X-106687Y351757D01*
X-105692Y350268D01*
X-104204Y349273D01*
X-102448Y348924D01*
X-100692Y349273D01*
X-99204Y350268D01*
X-93193Y356278D01*
X-92199Y357767D01*
X-91850Y359523D01*
X-92199Y361279D01*
X-93193Y362767D01*
X-94682Y363762D01*
X-96438Y364111D01*
D02*
G37*
G36*
X-83286Y353300D02*
X-89049Y347537D01*
X-86151Y344640D01*
X-83853Y346938D01*
X-82748Y348592D01*
X-82360Y350543D01*
X-82748Y352494D01*
X-83286Y353300D01*
D02*
G37*
G36*
X-94775Y350435D02*
X-97073Y348137D01*
X-98178Y346483D01*
X-98566Y344532D01*
X-98178Y342581D01*
X-97639Y341775D01*
X-91877Y347537D01*
X-94775Y350435D01*
D02*
G37*
G36*
X-78477Y346660D02*
X-80428Y346272D01*
X-82082Y345167D01*
X-84380Y342869D01*
X-81482Y339971D01*
X-75720Y345733D01*
X-76526Y346272D01*
X-78477Y346660D01*
D02*
G37*
G36*
X-90463Y346123D02*
X-96225Y340361D01*
X-95419Y339822D01*
X-93468Y339434D01*
X-91517Y339822D01*
X-89863Y340927D01*
X-87565Y343226D01*
X-90463Y346123D01*
D02*
G37*
G36*
X-238250Y343828D02*
X-239811Y343518D01*
X-241134Y342634D01*
X-242018Y341311D01*
X-242328Y339750D01*
X-242018Y338189D01*
X-241134Y336866D01*
X-239811Y335982D01*
X-238250Y335672D01*
X-236689Y335982D01*
X-235366Y336866D01*
X-234482Y338189D01*
X-234172Y339750D01*
X-234482Y341311D01*
X-235366Y342634D01*
X-236689Y343518D01*
X-238250Y343828D01*
D02*
G37*
G36*
X-74306Y344319D02*
X-80068Y338557D01*
X-77171Y335659D01*
X-74872Y337957D01*
X-73767Y339611D01*
X-73379Y341562D01*
X-73767Y343513D01*
X-74306Y344319D01*
D02*
G37*
G36*
X-85794Y341455D02*
X-88092Y339157D01*
X-89198Y337503D01*
X-89586Y335552D01*
X-89198Y333601D01*
X-88659Y332795D01*
X-82897Y338557D01*
X-85794Y341455D01*
D02*
G37*
G36*
X-69497Y337680D02*
X-71448Y337292D01*
X-73102Y336187D01*
X-75400Y333889D01*
X-72502Y330991D01*
X-66740Y336753D01*
X-67546Y337292D01*
X-69497Y337680D01*
D02*
G37*
G36*
X-81482Y337143D02*
X-87245Y331381D01*
X-86439Y330842D01*
X-84488Y330454D01*
X-82537Y330842D01*
X-80883Y331947D01*
X-78585Y334245D01*
X-81482Y337143D01*
D02*
G37*
G36*
X-65326Y335339D02*
X-71088Y329577D01*
X-68190Y326679D01*
X-65892Y328977D01*
X-64787Y330631D01*
X-64399Y332582D01*
X-64787Y334533D01*
X-65326Y335339D01*
D02*
G37*
G36*
X-76814Y332475D02*
X-79112Y330176D01*
X-80217Y328522D01*
X-80605Y326572D01*
X-80217Y324621D01*
X-79679Y323815D01*
X-73916Y329577D01*
X-76814Y332475D01*
D02*
G37*
G36*
X-72502Y328163D02*
X-78264Y322400D01*
X-77458Y321862D01*
X-75507Y321474D01*
X-73556Y321862D01*
X-71903Y322967D01*
X-69605Y325265D01*
X-72502Y328163D01*
D02*
G37*
G36*
X41816Y329963D02*
X37574Y325721D01*
X44291Y319003D01*
X48534Y323246D01*
X41816Y329963D01*
D02*
G37*
G36*
X-334750Y322828D02*
X-336311Y322518D01*
X-337634Y321634D01*
X-338518Y320311D01*
X-338828Y318750D01*
X-338518Y317189D01*
X-337634Y315866D01*
X-336311Y314982D01*
X-334750Y314672D01*
X-333189Y314982D01*
X-331866Y315866D01*
X-330982Y317189D01*
X-330672Y318750D01*
X-330982Y320311D01*
X-331866Y321634D01*
X-333189Y322518D01*
X-334750Y322828D01*
D02*
G37*
G36*
X36159Y324306D02*
X31917Y320064D01*
X38634Y313346D01*
X42877Y317589D01*
X36159Y324306D01*
D02*
G37*
G36*
X49948Y321831D02*
X45705Y317589D01*
X52423Y310871D01*
X56666Y315114D01*
X49948Y321831D01*
D02*
G37*
G36*
X44291Y316175D02*
X40048Y311932D01*
X46766Y305215D01*
X51009Y309457D01*
X44291Y316175D01*
D02*
G37*
G36*
X-8960Y315709D02*
X-11310Y315400D01*
X-13499Y314493D01*
X-15379Y313050D01*
X-16822Y311170D01*
X-17729Y308981D01*
X-18038Y306632D01*
X-17729Y304282D01*
X-16822Y302093D01*
X-15379Y300213D01*
X-13499Y298770D01*
X-11310Y297863D01*
X-8960Y297554D01*
X-6611Y297863D01*
X-4422Y298770D01*
X-2542Y300213D01*
X-1099Y302093D01*
X-192Y304282D01*
X117Y306632D01*
X-192Y308981D01*
X-1099Y311170D01*
X-2542Y313050D01*
X-4422Y314493D01*
X-6611Y315400D01*
X-8960Y315709D01*
D02*
G37*
G36*
X113234Y311578D02*
X104042Y302386D01*
X118184Y288244D01*
X127376Y297436D01*
X113234Y311578D01*
D02*
G37*
G36*
X236000Y316728D02*
X205250D01*
Y288000D01*
X236000D01*
Y316728D01*
D02*
G37*
G36*
X86364Y284708D02*
X77172Y275516D01*
X91314Y261374D01*
X100506Y270566D01*
X86364Y284708D01*
D02*
G37*
G36*
X42093Y259503D02*
X39613Y259177D01*
X37302Y258220D01*
X36517Y257618D01*
X42093Y252043D01*
X47668Y257618D01*
X46884Y258220D01*
X44573Y259177D01*
X42093Y259503D01*
D02*
G37*
G36*
X34396Y255497D02*
X33794Y254713D01*
X32837Y252402D01*
X32511Y249922D01*
X32837Y247442D01*
X33794Y245131D01*
X34396Y244347D01*
X39971Y249922D01*
X34396Y255497D01*
D02*
G37*
G36*
X49789Y255497D02*
X44214Y249922D01*
X49789Y244346D01*
X50391Y245131D01*
X51348Y247442D01*
X51674Y249922D01*
X51348Y252402D01*
X50391Y254713D01*
X49789Y255497D01*
D02*
G37*
G36*
X42093Y247800D02*
X36518Y242225D01*
X37302Y241623D01*
X39613Y240666D01*
X42093Y240340D01*
X44573Y240666D01*
X46884Y241623D01*
X47668Y242225D01*
X42093Y247800D01*
D02*
G37*
G36*
X280750Y55000D02*
Y50000D01*
X286500D01*
Y55000D01*
X280750D01*
D02*
G37*
G36*
X349000Y25000D02*
X340500D01*
Y19000D01*
X349000D01*
Y25000D01*
D02*
G37*
G36*
X302473Y-72192D02*
X298937Y-75727D01*
X303003Y-79793D01*
X306539Y-76257D01*
X302473Y-72192D01*
D02*
G37*
G36*
X200000Y125250D02*
X194250D01*
Y120250D01*
X200000D01*
Y125250D01*
D02*
G37*
G36*
X-230250Y187078D02*
X-231811Y186768D01*
X-233134Y185884D01*
X-234018Y184561D01*
X-234328Y183000D01*
X-234018Y181439D01*
X-233134Y180116D01*
X-231811Y179232D01*
X-230250Y178922D01*
X-228689Y179232D01*
X-227366Y180116D01*
X-226482Y181439D01*
X-226172Y183000D01*
X-226482Y184561D01*
X-227366Y185884D01*
X-228689Y186768D01*
X-230250Y187078D01*
D02*
G37*
G36*
X-251897Y148842D02*
X-255817Y148455D01*
X-259587Y147312D01*
X-263062Y145455D01*
X-266107Y142955D01*
X-268606Y139910D01*
X-270464Y136435D01*
X-271607Y132666D01*
X-271993Y128745D01*
X-271607Y124824D01*
X-270464Y121054D01*
X-268606Y117580D01*
X-266107Y114534D01*
X-263062Y112035D01*
X-259587Y110178D01*
X-255817Y109034D01*
X-251897Y108648D01*
X-247976Y109034D01*
X-244206Y110178D01*
X-240732Y112035D01*
X-237686Y114534D01*
X-235187Y117580D01*
X-233330Y121054D01*
X-232186Y124824D01*
X-231800Y128745D01*
X-232186Y132666D01*
X-233330Y136435D01*
X-235187Y139910D01*
X-237686Y142955D01*
X-240732Y145455D01*
X-244206Y147312D01*
X-247976Y148455D01*
X-251897Y148842D01*
D02*
G37*
G36*
X58663Y142441D02*
X54568Y138346D01*
X58500Y134414D01*
X62595Y138509D01*
X58663Y142441D01*
D02*
G37*
G36*
X64009Y137095D02*
X59914Y133000D01*
X63846Y129068D01*
X67941Y133163D01*
X64009Y137095D01*
D02*
G37*
G36*
X69220Y129516D02*
X65684Y125980D01*
X69750Y121914D01*
X73286Y125450D01*
X69220Y129516D01*
D02*
G37*
G36*
X-340500Y248000D02*
X-349000D01*
Y242000D01*
X-340500D01*
Y248000D01*
D02*
G37*
G36*
X-333503Y81543D02*
X-337039Y78007D01*
X-332973Y73941D01*
X-329437Y77477D01*
X-333503Y81543D01*
D02*
G37*
G36*
X-328023Y76063D02*
X-331558Y72527D01*
X-327493Y68461D01*
X-323957Y71997D01*
X-328023Y76063D01*
D02*
G37*
G36*
X-280500Y34250D02*
X-286250D01*
Y29250D01*
X-280500D01*
Y34250D01*
D02*
G37*
G36*
X-340500Y25000D02*
X-349000D01*
Y19000D01*
X-340500D01*
Y25000D01*
D02*
G37*
G36*
X-168654Y3932D02*
X-172586Y0D01*
X-168491Y-4095D01*
X-164559Y-163D01*
X-168654Y3932D01*
D02*
G37*
G36*
X-174000Y-1414D02*
X-177932Y-5346D01*
X-173837Y-9441D01*
X-169905Y-5509D01*
X-174000Y-1414D01*
D02*
G37*
G36*
X-186972Y-13199D02*
X-191215Y-17442D01*
X-195458Y-21685D01*
X-194750Y-22392D01*
X-193336Y-23806D01*
X-190861Y-26281D01*
X-186619Y-22038D01*
X-182376Y-17795D01*
X-183083Y-17088D01*
X-184497Y-15674D01*
X-186972Y-13199D01*
D02*
G37*
G36*
X-234000Y-34922D02*
X-235561Y-35232D01*
X-236884Y-36116D01*
X-237768Y-37439D01*
X-238078Y-39000D01*
X-237768Y-40561D01*
X-236884Y-41884D01*
X-235561Y-42768D01*
X-234000Y-43078D01*
X-232439Y-42768D01*
X-231116Y-41884D01*
X-230232Y-40561D01*
X-229922Y-39000D01*
X-230232Y-37439D01*
X-231116Y-36116D01*
X-232439Y-35232D01*
X-234000Y-34922D01*
D02*
G37*
G36*
X-297988Y-100173D02*
X-302231Y-104416D01*
X-306473Y-108659D01*
X-305766Y-109366D01*
X-304352Y-110780D01*
X-302584Y-112548D01*
X-301877Y-113255D01*
X-297635Y-109012D01*
X-293392Y-104769D01*
X-294099Y-104062D01*
X-295513Y-102648D01*
X-297281Y-100880D01*
X-297988Y-100173D01*
D02*
G37*
G36*
X-319303Y-112418D02*
X-323235Y-116351D01*
X-319141Y-120445D01*
X-315209Y-116513D01*
X-319303Y-112418D01*
D02*
G37*
G36*
X-324650Y-117765D02*
X-328582Y-121697D01*
X-324487Y-125791D01*
X-320555Y-121860D01*
X-324650Y-117765D01*
D02*
G37*
G36*
X-339132Y-116607D02*
X-346055Y-123531D01*
X-340732Y-128853D01*
X-333809Y-121930D01*
X-339132Y-116607D01*
D02*
G37*
G36*
X-332395Y-123344D02*
X-339318Y-130268D01*
X-333995Y-135590D01*
X-327072Y-128667D01*
X-332395Y-123344D01*
D02*
G37*
G36*
X-347469Y-124945D02*
X-354393Y-131868D01*
X-349070Y-137191D01*
X-342146Y-130268D01*
X-347469Y-124945D01*
D02*
G37*
G36*
X-340732Y-131682D02*
X-347656Y-138605D01*
X-342333Y-143928D01*
X-335410Y-137005D01*
X-340732Y-131682D01*
D02*
G37*
G36*
X135500Y82514D02*
Y74986D01*
X145291D01*
Y82514D01*
X135500D01*
D02*
G37*
G36*
X145291Y72986D02*
X135500D01*
Y65459D01*
X145291D01*
Y72986D01*
D02*
G37*
G36*
X111000Y72264D02*
X101209D01*
Y64736D01*
X111000D01*
Y72264D01*
D02*
G37*
G36*
Y62736D02*
X101209D01*
Y55209D01*
X111000D01*
Y62736D01*
D02*
G37*
G36*
X233750Y29078D02*
X232189Y28768D01*
X230866Y27884D01*
X229982Y26561D01*
X229672Y25000D01*
X229982Y23439D01*
X230866Y22116D01*
X232189Y21232D01*
X233750Y20922D01*
X235311Y21232D01*
X236634Y22116D01*
X237518Y23439D01*
X237828Y25000D01*
X237518Y26561D01*
X236634Y27884D01*
X235311Y28768D01*
X233750Y29078D01*
D02*
G37*
G36*
X42362Y217D02*
X31048Y-11097D01*
X56504Y-36553D01*
X67818Y-25239D01*
X42362Y217D01*
D02*
G37*
G36*
X29634Y-12511D02*
X18320Y-23825D01*
X43776Y-49281D01*
X55090Y-37967D01*
X29634Y-12511D01*
D02*
G37*
G36*
X69232Y-26653D02*
X57918Y-37967D01*
X83374Y-63423D01*
X94688Y-52109D01*
X69232Y-26653D01*
D02*
G37*
G36*
X56504Y-39381D02*
X45190Y-50695D01*
X70646Y-76151D01*
X81960Y-64837D01*
X56504Y-39381D01*
D02*
G37*
G36*
X-107423Y-92749D02*
X-110958Y-96284D01*
X-107423Y-99820D01*
X-103887Y-96284D01*
X-107423Y-92749D01*
D02*
G37*
G36*
X126507Y-84636D02*
X103173Y-107971D01*
X134993Y-139790D01*
X158327Y-116456D01*
X126507Y-84636D01*
D02*
G37*
G36*
X98223Y-112920D02*
X74889Y-136255D01*
X106708Y-168075D01*
X130043Y-144740D01*
X98223Y-112920D01*
D02*
G37*
G36*
X-211500Y-47922D02*
X-213061Y-48232D01*
X-214384Y-49116D01*
X-215268Y-50439D01*
X-215578Y-52000D01*
X-215268Y-53561D01*
X-214384Y-54884D01*
X-213061Y-55768D01*
X-211500Y-56078D01*
X-209939Y-55768D01*
X-208616Y-54884D01*
X-207732Y-53561D01*
X-207422Y-52000D01*
X-207732Y-50439D01*
X-208616Y-49116D01*
X-209939Y-48232D01*
X-211500Y-47922D01*
D02*
G37*
G36*
X-211367Y-61636D02*
X-216317Y-66586D01*
X-211368Y-71536D01*
X-206418Y-66586D01*
X-211367Y-61636D01*
D02*
G37*
G36*
X-205004Y-68000D02*
X-210660Y-73657D01*
X-211368Y-72950D01*
X-212075Y-73657D01*
X-217731Y-68000D01*
X-221267Y-71536D01*
X-222681Y-72950D01*
X-224449Y-74717D01*
X-227985Y-78253D01*
X-222328Y-83910D01*
X-223035Y-84617D01*
X-222328Y-85324D01*
X-227985Y-90981D01*
X-224303Y-94663D01*
X-223262Y-96284D01*
X-224303Y-97906D01*
X-227985Y-101588D01*
X-222328Y-107244D01*
X-223035Y-107951D01*
X-222328Y-108659D01*
X-227985Y-114316D01*
X-224449Y-117851D01*
X-223035Y-119265D01*
X-221267Y-121033D01*
X-217731Y-124569D01*
X-212075Y-118912D01*
X-211367Y-119619D01*
X-210660Y-118912D01*
X-205004Y-124569D01*
X-201468Y-121033D01*
X-200054Y-119619D01*
X-198286Y-117851D01*
X-194750Y-114316D01*
X-200407Y-108659D01*
X-198993Y-107244D01*
X-193336Y-112901D01*
X-189801Y-109366D01*
X-188387Y-107951D01*
X-186619Y-106184D01*
X-183083Y-102648D01*
X-188740Y-96991D01*
X-188033Y-96284D01*
X-188740Y-95577D01*
X-183083Y-89920D01*
X-186619Y-86385D01*
X-188033Y-84971D01*
X-189801Y-83203D01*
X-193336Y-79667D01*
X-198993Y-85324D01*
X-200407Y-83910D01*
X-194750Y-78253D01*
X-198286Y-74717D01*
X-199700Y-73303D01*
X-201468Y-71536D01*
X-205004Y-68000D01*
D02*
G37*
G36*
X-229399Y-79667D02*
X-234349Y-84617D01*
X-229399Y-89567D01*
X-224449Y-84617D01*
X-229399Y-79667D01*
D02*
G37*
G36*
X-238945Y-93456D02*
X-241773Y-96284D01*
X-238945Y-99113D01*
Y-93456D01*
D02*
G37*
G36*
X-181669Y-91334D02*
X-186619Y-96284D01*
X-181669Y-101234D01*
X-176719Y-96284D01*
X-181669Y-91334D01*
D02*
G37*
G36*
X-229399Y-103002D02*
X-234349Y-107951D01*
X-229399Y-112901D01*
X-224449Y-107951D01*
X-229399Y-103002D01*
D02*
G37*
G36*
X-211367Y-121033D02*
X-216317Y-125983D01*
X-211367Y-130933D01*
X-206418Y-125983D01*
X-211367Y-121033D01*
D02*
G37*
G36*
X-74197Y-90419D02*
X-78291Y-94513D01*
X-74359Y-98445D01*
X-70265Y-94351D01*
X-74197Y-90419D01*
D02*
G37*
G36*
X-68850Y-95765D02*
X-72945Y-99859D01*
X-69013Y-103791D01*
X-64918Y-99697D01*
X-68850Y-95765D01*
D02*
G37*
G36*
X-86050Y-147339D02*
Y-152250D01*
X-79509D01*
Y-147339D01*
X-86050D01*
D02*
G37*
G36*
X-79509Y-154250D02*
X-86050D01*
Y-159161D01*
X-79509D01*
Y-154250D01*
D02*
G37*
G36*
X-80230Y-185439D02*
Y-191000D01*
X-74439D01*
Y-185439D01*
X-80230D01*
D02*
G37*
G36*
X-63750Y-185250D02*
X-68750D01*
Y-191000D01*
X-63750D01*
Y-185250D01*
D02*
G37*
G36*
X-74439Y-193000D02*
X-80230D01*
Y-198561D01*
X-74439D01*
Y-193000D01*
D02*
G37*
G36*
X-310750Y-189750D02*
X-315750D01*
Y-195500D01*
X-310750D01*
Y-189750D01*
D02*
G37*
G36*
Y-197500D02*
X-315750D01*
Y-203250D01*
X-310750D01*
Y-197500D01*
D02*
G37*
G36*
X-211367Y-196693D02*
X-214903Y-200229D01*
X-211367Y-203764D01*
X-207832Y-200229D01*
X-211367Y-196693D01*
D02*
G37*
G36*
X-177184Y-261787D02*
X-181426Y-266029D01*
X-174709Y-272747D01*
X-170466Y-268504D01*
X-177184Y-261787D01*
D02*
G37*
G36*
X-182841Y-267444D02*
X-187083Y-271686D01*
X-180366Y-278404D01*
X-176123Y-274161D01*
X-182841Y-267444D01*
D02*
G37*
G36*
X-169052Y-269918D02*
X-173295Y-274161D01*
X-166577Y-280879D01*
X-162334Y-276636D01*
X-169052Y-269918D01*
D02*
G37*
G36*
X-174709Y-275575D02*
X-178951Y-279818D01*
X-172234Y-286535D01*
X-167991Y-282293D01*
X-174709Y-275575D01*
D02*
G37*
G36*
X-214138Y-301138D02*
X-218464D01*
Y-305500D01*
X-214138D01*
Y-301138D01*
D02*
G37*
G36*
X-186750Y-302750D02*
Y-308500D01*
X-181750D01*
Y-302750D01*
X-186750D01*
D02*
G37*
G36*
X-214138Y-307500D02*
X-218464D01*
Y-311862D01*
X-214138D01*
Y-307500D01*
D02*
G37*
G36*
X-27000Y-228939D02*
X-32561D01*
Y-234730D01*
X-27000D01*
Y-228939D01*
D02*
G37*
G36*
X-105766Y-280172D02*
X-114958Y-289364D01*
X-100816Y-303506D01*
X-93150Y-295840D01*
X-90650Y-296875D01*
Y-308694D01*
X-79650D01*
Y-292694D01*
X-89795D01*
X-90650Y-292694D01*
X-93150Y-292788D01*
X-105766Y-280172D01*
D02*
G37*
G36*
X-166966Y-316380D02*
X-170025Y-319439D01*
X-166940Y-322524D01*
X-163881Y-319464D01*
X-166966Y-316380D01*
D02*
G37*
G36*
X-66650Y-310694D02*
X-77650D01*
Y-326694D01*
X-66650D01*
Y-310694D01*
D02*
G37*
G36*
X-79650D02*
X-90650D01*
Y-326694D01*
X-79650D01*
Y-310694D01*
D02*
G37*
G36*
X-340500Y-198000D02*
X-349000D01*
Y-204000D01*
X-340500D01*
Y-198000D01*
D02*
G37*
G36*
X-107000Y-228939D02*
X-112561D01*
Y-234730D01*
X-107000D01*
Y-228939D01*
D02*
G37*
G36*
X82270Y-249439D02*
Y-255000D01*
X88061D01*
Y-249439D01*
X82270D01*
D02*
G37*
G36*
X88061Y-257000D02*
X82270D01*
Y-262561D01*
X88061D01*
Y-257000D01*
D02*
G37*
G36*
X100520Y-268439D02*
Y-274000D01*
X106311D01*
Y-268439D01*
X100520D01*
D02*
G37*
G36*
X106311Y-276000D02*
X100520D01*
Y-281561D01*
X106311D01*
Y-276000D01*
D02*
G37*
G36*
X102750Y-297250D02*
X97000D01*
Y-302250D01*
X102750D01*
Y-297250D01*
D02*
G37*
G36*
X95000D02*
X89250D01*
Y-302250D01*
X95000D01*
Y-297250D01*
D02*
G37*
G36*
X67650Y-292694D02*
Y-308694D01*
X78650D01*
Y-292694D01*
X67650D01*
D02*
G37*
G36*
X78650Y-310694D02*
X67650D01*
Y-326694D01*
X78650D01*
Y-310694D01*
D02*
G37*
G36*
X65650D02*
X54650D01*
Y-326694D01*
X65650D01*
Y-310694D01*
D02*
G37*
G36*
X151526Y-350230D02*
X147460Y-354296D01*
X150996Y-357831D01*
X155062Y-353766D01*
X151526Y-350230D01*
D02*
G37*
G36*
X146046Y-355710D02*
X141980Y-359776D01*
X145516Y-363312D01*
X149581Y-359246D01*
X146046Y-355710D01*
D02*
G37*
G36*
X-250286Y-307500D02*
X-254612D01*
Y-311862D01*
X-250286D01*
Y-307500D01*
D02*
G37*
G36*
X-190500Y-337832D02*
Y-347700D01*
X-184435D01*
Y-345200D01*
X-184693Y-343242D01*
X-185448Y-341417D01*
X-186651Y-339850D01*
X-188217Y-338648D01*
X-190042Y-337892D01*
X-190500Y-337832D01*
D02*
G37*
G36*
X-184435Y-350700D02*
X-190500D01*
Y-360567D01*
X-190042Y-360506D01*
X-188217Y-359751D01*
X-186651Y-358549D01*
X-185448Y-356982D01*
X-184693Y-355157D01*
X-184435Y-353200D01*
Y-350700D01*
D02*
G37*
G36*
X-190500Y-381124D02*
Y-392000D01*
X-183426D01*
Y-389500D01*
X-183718Y-387281D01*
X-184575Y-385214D01*
X-185937Y-383438D01*
X-187713Y-382076D01*
X-189781Y-381219D01*
X-190500Y-381124D01*
D02*
G37*
G36*
X-193500D02*
X-194219Y-381219D01*
X-196286Y-382076D01*
X-198062Y-383438D01*
X-199424Y-385214D01*
X-200281Y-387281D01*
X-200573Y-389500D01*
Y-392000D01*
X-193500D01*
Y-381124D01*
D02*
G37*
G36*
X-276500D02*
Y-392000D01*
X-269427D01*
Y-389500D01*
X-269719Y-387281D01*
X-270576Y-385214D01*
X-271938Y-383438D01*
X-273714Y-382076D01*
X-275781Y-381219D01*
X-276500Y-381124D01*
D02*
G37*
G36*
X349000Y-198000D02*
X340500D01*
Y-204000D01*
X349000D01*
Y-198000D01*
D02*
G37*
G36*
X222750Y-349500D02*
X217000D01*
Y-354500D01*
X222750D01*
Y-349500D01*
D02*
G37*
G36*
X244000Y-351852D02*
X240750D01*
Y-355950D01*
X248899D01*
X248710Y-354999D01*
X247605Y-353345D01*
X245951Y-352240D01*
X244000Y-351852D01*
D02*
G37*
G36*
X248899Y-357950D02*
X240750D01*
Y-362048D01*
X244000D01*
X245951Y-361660D01*
X247605Y-360555D01*
X248710Y-358901D01*
X248899Y-357950D01*
D02*
G37*
G36*
X230500Y-349500D02*
X224750D01*
Y-355500D01*
X223750D01*
Y-356500D01*
X217000D01*
Y-361207D01*
X217000Y-361500D01*
X217500Y-363793D01*
X217500Y-364000D01*
Y-374500D01*
X230000D01*
Y-374018D01*
X231365Y-373338D01*
X232500Y-373058D01*
X233744Y-373889D01*
X235500Y-374238D01*
X244000D01*
X245756Y-373889D01*
X247244Y-372894D01*
X248239Y-371406D01*
X248588Y-369650D01*
X248239Y-367894D01*
X247244Y-366406D01*
X245756Y-365411D01*
X244000Y-365062D01*
X235500D01*
X233744Y-365411D01*
X232464Y-366266D01*
X231768D01*
X230000Y-364498D01*
X230000Y-363793D01*
X230500Y-361500D01*
X233000Y-361293D01*
X233549Y-361660D01*
X235500Y-362048D01*
X238750D01*
Y-356950D01*
Y-351852D01*
X235500D01*
X233549Y-352240D01*
X233000Y-352607D01*
X230500Y-351276D01*
Y-349500D01*
D02*
G37*
G36*
X244000Y-377252D02*
X240750D01*
Y-381350D01*
X248899D01*
X248710Y-380399D01*
X247605Y-378745D01*
X245951Y-377640D01*
X244000Y-377252D01*
D02*
G37*
G36*
X248899Y-383350D02*
X240750D01*
Y-387448D01*
X244000D01*
X245951Y-387060D01*
X247605Y-385955D01*
X248710Y-384301D01*
X248899Y-383350D01*
D02*
G37*
G36*
X350541Y-379959D02*
X343014D01*
Y-389750D01*
X350541D01*
Y-379959D01*
D02*
G37*
G36*
X380000Y-374669D02*
X377844Y-374953D01*
X375834Y-375785D01*
X374109Y-377109D01*
X372785Y-378834D01*
X371953Y-380844D01*
X371669Y-383000D01*
X371953Y-385156D01*
X372785Y-387166D01*
X374109Y-388891D01*
X375834Y-390215D01*
X377844Y-391047D01*
X380000Y-391331D01*
X382156Y-391047D01*
X384166Y-390215D01*
X385891Y-388891D01*
X387215Y-387166D01*
X388047Y-385156D01*
X388331Y-383000D01*
X388047Y-380844D01*
X387215Y-378834D01*
X385891Y-377109D01*
X384166Y-375785D01*
X382156Y-374953D01*
X380000Y-374669D01*
D02*
G37*
G36*
X350541Y-391750D02*
X343014D01*
Y-401541D01*
X350541D01*
Y-391750D01*
D02*
G37*
G36*
X341014D02*
X333486D01*
Y-401541D01*
X341014D01*
Y-391750D01*
D02*
G37*
G36*
X203000Y-392000D02*
X195473D01*
Y-401791D01*
X203000D01*
Y-392000D01*
D02*
G37*
G36*
X193473D02*
X185945D01*
Y-401791D01*
X193473D01*
Y-392000D01*
D02*
G37*
G36*
X-380000Y-374669D02*
X-382156Y-374953D01*
X-384166Y-375785D01*
X-385891Y-377109D01*
X-387215Y-378834D01*
X-388047Y-380844D01*
X-388331Y-383000D01*
X-388047Y-385156D01*
X-387215Y-387166D01*
X-385891Y-388891D01*
X-384166Y-390215D01*
X-382156Y-391047D01*
X-380000Y-391331D01*
X-377844Y-391047D01*
X-375834Y-390215D01*
X-374109Y-388891D01*
X-372785Y-387166D01*
X-371953Y-385156D01*
X-371669Y-383000D01*
X-371953Y-380844D01*
X-372785Y-378834D01*
X-374109Y-377109D01*
X-375834Y-375785D01*
X-377844Y-374953D01*
X-380000Y-374669D01*
D02*
G37*
%LPD*%
D11*
X-266875Y-139771D02*
X-248750Y-121646D01*
Y-71250D02*
X-213500Y-36000D01*
X-248750Y-121646D02*
Y-71250D01*
X-213500Y-36000D02*
Y-20000D01*
X-201000Y-158000D02*
X-161500Y-118500D01*
Y-89450D01*
X-201000Y-166756D02*
Y-158000D01*
X-206500Y-26750D02*
X-198500Y-34750D01*
Y-55450D02*
Y-34750D01*
X-188800Y-65150D02*
X-185800D01*
X-198500Y-55450D02*
X-188800Y-65150D01*
X-185800D02*
X-161500Y-89450D01*
X-201000Y-166756D02*
X-191922Y-175834D01*
X279250Y258500D02*
X279500Y258250D01*
X-279500Y48750D02*
X-277000Y46250D01*
X-279514Y48764D02*
X-279500Y48750D01*
X243250Y34250D02*
X278250Y-750D01*
Y-6078D02*
Y-750D01*
X225250Y34250D02*
X243250D01*
X199250Y8250D02*
X225250Y34250D01*
X297750Y-56250D02*
Y-25578D01*
X278250Y-6078D02*
X297750Y-25578D01*
X258750Y26500D02*
X267250D01*
X245750Y39500D02*
X258750Y26500D01*
X267250D02*
X276000Y17750D01*
X222500Y39500D02*
X245750D01*
X186250Y3250D02*
X222500Y39500D01*
X191000Y74220D02*
X206779Y90000D01*
X212021D01*
X217000Y94979D01*
X194500Y72771D02*
X208229Y86500D01*
X213470D01*
X220500Y93530D01*
X198000Y71321D02*
X209679Y83000D01*
X214920D01*
X224000Y92080D01*
X203000Y69250D02*
X213250Y79500D01*
X216500D01*
X227500Y90500D01*
X217000Y94979D02*
Y127750D01*
X220500Y93530D02*
Y129200D01*
X224000Y92080D02*
Y130750D01*
X227500Y90500D02*
Y132200D01*
X187750Y107750D02*
X199000D01*
X201000Y105750D01*
X109750Y-331000D02*
X110500Y-331750D01*
X129250D01*
X-179750Y-151943D02*
X-171847Y-159847D01*
X166839Y-293911D02*
X177429Y-304500D01*
X109500Y-236571D02*
X166839Y-293911D01*
Y-294161D02*
Y-293911D01*
X129250Y-331750D02*
X166839Y-294161D01*
X129250Y-337500D02*
Y-331750D01*
Y-337500D02*
X136500Y-344750D01*
Y-344750D02*
Y-344750D01*
X-179901Y-28756D02*
X-146500Y4646D01*
Y4750D01*
X-112250Y-43000D02*
X-108500Y-46750D01*
X-77751D02*
X15124Y-139626D01*
X-108500Y-46750D02*
X-77751D01*
X15124Y-139626D02*
X31624D01*
X40750Y-130500D01*
X-87500Y-39750D02*
Y-20250D01*
X-31000Y36250D01*
X56250Y-183250D02*
X109500Y-236500D01*
X56250Y-183250D02*
Y-150500D01*
X177429Y-304500D02*
X210500D01*
X109500Y-236571D02*
Y-236500D01*
X302250Y-349750D02*
X303750Y-351250D01*
X271250Y-349750D02*
X302250D01*
X226000Y-304500D02*
X271250Y-349750D01*
X303750Y-355779D02*
Y-351250D01*
X294250Y-356950D02*
X302578D01*
X303750Y-355779D01*
X-262250Y226500D02*
X-248500Y240250D01*
Y245750D01*
X-345000Y297500D02*
X-339000D01*
X-350000Y292500D02*
X-345000Y297500D01*
X-350000Y282000D02*
Y292500D01*
X-268050Y226500D02*
X-262250D01*
X-279500Y215050D02*
X-268050Y226500D01*
X-279500Y103000D02*
Y215050D01*
X-277750Y81750D02*
Y101250D01*
X-279500Y103000D02*
X-277750Y101250D01*
X-176750Y69000D02*
Y159649D01*
X-239350Y222250D02*
X-176750Y159649D01*
X-257250Y222250D02*
X-239350D01*
X-283000Y102500D02*
Y216500D01*
X-298227Y87273D02*
X-283000Y102500D01*
Y216500D02*
X-265750Y233750D01*
X-206250Y119000D02*
X-198500Y111250D01*
X-222627Y119000D02*
X-206250D01*
X-242750Y98877D02*
X-222627Y119000D01*
X-242750Y87750D02*
Y98877D01*
X-248750Y81750D02*
X-242750Y87750D01*
X-264250Y81750D02*
X-248750D01*
X-304954Y94000D02*
X-298227Y87273D01*
X-311500Y94000D02*
X-304954D01*
X-318477Y87023D02*
X-311500Y94000D01*
X-255812Y73500D02*
X-255000D01*
X-257062Y72250D02*
X-255812Y73500D01*
X-298053Y72250D02*
X-257062D01*
X-303530Y77727D02*
X-298053Y72250D01*
X-307773Y77727D02*
X-303530D01*
X-281548Y67290D02*
X-251710D01*
X-284514Y64324D02*
X-281548Y67290D01*
X-284514Y59486D02*
Y64324D01*
X-300500Y43500D02*
X-284514Y59486D01*
X-279514Y48764D02*
Y62253D01*
X-251710Y67290D02*
X-239250Y79750D01*
X-264250Y81000D02*
X-261250Y78000D01*
X-264250Y81000D02*
Y81750D01*
X-241500Y66500D02*
X-236179D01*
X-224590Y54910D01*
X-239250Y79750D02*
Y97428D01*
X-228428Y108250D01*
X-228428D02*
X-223428Y113250D01*
X-228428Y108250D02*
X-228428D01*
X-223428Y113250D02*
X-215750D01*
X-174000Y0D02*
X-170250D01*
X-175187D02*
X-174000D01*
X-291250Y-159453D02*
Y-152125D01*
X-275714Y-136589D01*
X-248959Y-157688D02*
X-242500Y-151229D01*
X-254964Y-151902D02*
Y-151683D01*
X-248500Y-145219D01*
X-260782Y-145865D02*
X-254417Y-139500D01*
X308500Y-91250D02*
X314727Y-97477D01*
X314977D01*
X308500Y-91250D02*
X308500D01*
X324523Y-107023D02*
Y-107023D01*
Y-107023D02*
X329500Y-112000D01*
Y-156000D02*
Y-112000D01*
Y-156000D02*
X337500Y-164000D01*
X350000D01*
Y-163250D02*
X350250Y-163000D01*
X350000Y-164000D02*
Y-163250D01*
X96000Y-344750D02*
Y-316750D01*
X95750Y-345000D02*
X96000Y-344750D01*
X288023Y-65977D02*
Y-65977D01*
X297750Y-56250D01*
X72574Y26040D02*
X107614Y-9000D01*
X111401D02*
X138401Y18000D01*
X107614Y-9000D02*
X111401D01*
X138401Y18000D02*
X145500D01*
X72000Y59000D02*
X72574Y58426D01*
Y26040D02*
Y58426D01*
X-23250Y59250D02*
X58250D01*
X-31000Y51500D02*
X-23250Y59250D01*
X-31000Y36250D02*
Y51500D01*
X-87500Y-93500D02*
Y-73000D01*
X-97250Y-103250D02*
X-87500Y-93500D01*
X-97250Y-124000D02*
Y-103250D01*
X-114298Y-133250D02*
X-114250D01*
X-128990Y-118558D02*
X-114298Y-133250D01*
X259250Y-117750D02*
X262750Y-114250D01*
X197450Y-117750D02*
X259250D01*
X-277750Y81000D02*
Y81750D01*
X-280750Y78000D02*
X-277750Y81000D01*
X-344000Y285500D02*
X-343500Y286000D01*
X-344500Y285500D02*
X-344000D01*
X-348500Y281500D02*
X-344500Y285500D01*
X68507Y-97357D02*
X111750Y-54114D01*
Y-13601D02*
X135422Y10071D01*
X111750Y-54114D02*
Y-13601D01*
X72007Y-98806D02*
X115250Y-55564D01*
Y-15050D01*
X133300Y3000D01*
X118750Y-16500D02*
X131750Y-3500D01*
X118750Y-57500D02*
Y-16500D01*
X75507Y-100743D02*
X118750Y-57500D01*
X75507Y-123142D02*
Y-100743D01*
X72007Y-121692D02*
Y-98806D01*
X68507Y-120243D02*
Y-97357D01*
X37849Y-160800D02*
X75507Y-123142D01*
X21450Y-160800D02*
X37849D01*
X36399Y-157300D02*
X72007Y-121692D01*
X22899Y-157300D02*
X36399D01*
X24349Y-153800D02*
X34950D01*
X68507Y-120243D01*
X-141010Y-61989D02*
X-39250Y39771D01*
Y59000D01*
X-147021Y-55979D02*
X-46250Y44792D01*
Y58750D01*
X-153031Y-49969D02*
X-54000Y49062D01*
Y58000D01*
X-54500Y58500D02*
X-54000Y58000D01*
X-651Y94000D02*
X55085D01*
X-13901Y80750D02*
X-651Y94000D01*
X-92000Y80750D02*
X-13901D01*
X-15351Y84250D02*
X52399Y152000D01*
X-90250Y84250D02*
X-15351D01*
X-16800Y87750D02*
X50950Y155500D01*
X-88800Y87750D02*
X-16800D01*
X-18250Y91250D02*
X49500Y159000D01*
X-87351Y91250D02*
X-18250D01*
X-39250Y96750D02*
Y110750D01*
X113106Y366110D02*
X120338Y354888D01*
X124338Y359638D01*
X130588Y350638D01*
X105731Y355013D02*
X112963Y366235D01*
X101731Y359763D02*
X105731Y355013D01*
X95481Y350763D02*
X101731Y359763D01*
X-175500Y340000D02*
X-163996D01*
X-187250Y351750D02*
X-175500Y340000D01*
X-187250Y351750D02*
X-186959D01*
X-183459Y355250D02*
X-172750D01*
X-186959Y351750D02*
X-183459Y355250D01*
X-172750D02*
X-161675Y366325D01*
X-142575D01*
X-163996Y340000D02*
X-157424Y333429D01*
X-155768D02*
X-151382Y337814D01*
X-157424Y333429D02*
X-155768D01*
X-151382Y337814D02*
X-148751D01*
X-142575Y366325D02*
X-116403Y340153D01*
Y334260D02*
X-94057Y311913D01*
X-116403Y334260D02*
Y340153D01*
X-102757Y274053D02*
Y278296D01*
X-94057Y286997D02*
Y311913D01*
X-102757Y274053D02*
X-102227Y273523D01*
X-102757Y278296D02*
X-94057Y286997D01*
X-122227Y274431D02*
X-111773Y263977D01*
X-122227Y274431D02*
Y275227D01*
X174694Y18785D02*
X185086D01*
X196426Y30126D02*
Y45426D01*
X169500Y13592D02*
X174694Y18785D01*
X185086D02*
X196426Y30126D01*
X169500Y-99700D02*
Y13592D01*
X173000Y12142D02*
X176143Y15285D01*
X173000Y-98250D02*
Y12142D01*
X186535Y15285D02*
X202000Y30750D01*
X176143Y15285D02*
X186535D01*
X202000Y30750D02*
Y49222D01*
X208075Y30825D02*
Y40764D01*
X178214Y10286D02*
X187535D01*
X208075Y30825D01*
X178250Y3250D02*
X186250D01*
X196426Y45426D02*
X197000Y46000D01*
X179746Y91746D02*
X180000Y92000D01*
X174750Y91746D02*
X180000D01*
X185246D01*
X174750Y118750D02*
X178828D01*
X180000Y92000D02*
Y117578D01*
X178828Y118750D02*
X180000Y117578D01*
X185246Y91746D02*
X187750Y94250D01*
X172750Y87500D02*
Y89746D01*
X174750Y91746D01*
X158750Y112250D02*
Y121250D01*
X155960Y109460D02*
X158750Y112250D01*
X155960Y102750D02*
Y109460D01*
X172250Y121250D02*
X174750Y118750D01*
X198000Y65250D02*
X209000Y54250D01*
X198000Y65250D02*
Y71321D01*
X210200Y149500D02*
X227500Y132200D01*
X198000Y149500D02*
X210200D01*
X190500Y157000D02*
X198000Y149500D01*
X183250Y157000D02*
X190500D01*
X187179Y146000D02*
X208650D01*
X209750Y145000D02*
X224000Y130750D01*
X209650Y145000D02*
X209750D01*
X174750Y158429D02*
X187179Y146000D01*
X208650D02*
X209650Y145000D01*
X207200Y142500D02*
X220500Y129200D01*
X89700Y142500D02*
X207200D01*
X205750Y139000D02*
X217000Y127750D01*
X88250Y139000D02*
X205750D01*
X174750Y158429D02*
Y243800D01*
X191000Y60222D02*
Y74220D01*
Y60222D02*
X202000Y49222D01*
X207171Y49000D02*
X266500D01*
X194500Y61672D02*
Y72771D01*
Y61672D02*
X207171Y49000D01*
X178250Y162000D02*
Y242351D01*
Y162000D02*
X183250Y157000D01*
X309000Y-366750D02*
Y-339250D01*
X306100Y-369650D02*
X309000Y-366750D01*
X294250Y-369650D02*
X306100D01*
X6625Y-243625D02*
X13000Y-237250D01*
X-13500Y-263750D02*
X6625Y-243625D01*
X0Y-237250D02*
X250D01*
X6625Y-243625D01*
X13000Y-237250D02*
X21750D01*
X-16250Y-215000D02*
X-10750Y-220500D01*
X-23500Y-215000D02*
X-16250D01*
X-29505Y-208995D02*
X-23500Y-215000D01*
X-29505Y-208995D02*
Y-201500D01*
X-6750Y-301250D02*
X-3500Y-298000D01*
Y-286194D01*
X46500Y-302000D02*
Y-286194D01*
X36500Y-302000D02*
X41500Y-297000D01*
Y-286194D01*
X-19250Y-220500D02*
X-19250Y-220500D01*
X-29505Y-220500D02*
X-19250D01*
X-29505D02*
X-29005Y-221000D01*
X-195000Y-54000D02*
Y-43854D01*
X-188146Y-37000D02*
X-188000D01*
X-195000Y-43854D02*
X-188146Y-37000D01*
X-195000Y-54000D02*
X-188000Y-61000D01*
X-185000D01*
X-158000Y-88000D01*
Y-125610D02*
Y-88000D01*
Y-125610D02*
X-149849Y-133761D01*
X-302000Y-261000D02*
X-299000Y-264000D01*
Y-276651D02*
Y-264000D01*
X-302000Y-261000D02*
Y-255000D01*
X-325000Y-302651D02*
X-299000Y-276651D01*
X-304000Y-253000D02*
X-302000Y-255000D01*
Y-252750D01*
X-317835Y-253000D02*
X-304000D01*
X-320835Y-256000D02*
X-317835Y-253000D01*
X-323000Y-256000D02*
X-320835D01*
X-302000Y-239250D02*
X-300250Y-241000D01*
X-286000D01*
X-293000Y-223750D02*
X-286000Y-230750D01*
Y-241000D02*
Y-230750D01*
X113750Y152250D02*
X151250D01*
X151500Y152000D01*
X201000Y390750D02*
X201250Y390500D01*
X-203000Y390750D02*
X201000D01*
X-308750Y-306200D02*
X-245500Y-242950D01*
X-308750Y-328250D02*
Y-306200D01*
X-245500Y-242950D02*
Y-190521D01*
X-242500Y-331650D02*
X-236125Y-325275D01*
X-242500Y-341500D02*
Y-331650D01*
X-236125Y-325275D02*
Y-309625D01*
X-227500Y-341500D02*
Y-331885D01*
X-232643Y-326742D02*
X-227500Y-331885D01*
X-237500Y-341500D02*
Y-331600D01*
X-232625Y-326725D01*
Y-309625D01*
X-229536Y-306536D02*
Y-306500D01*
X-239214Y-306536D02*
Y-306500D01*
X-232625Y-309625D02*
X-229536Y-306536D01*
X-239214D02*
X-236125Y-309625D01*
X-2500Y337000D02*
X58753D01*
X66211Y344459D01*
X-58750Y280750D02*
X-2500Y337000D01*
X66211Y344459D02*
X71161D01*
X-58750Y219893D02*
Y280750D01*
X-40882Y196368D02*
Y202025D01*
X-58750Y219893D02*
X-40882Y202025D01*
X-126250Y111000D02*
X-40882Y196368D01*
X-126250Y101000D02*
Y111000D01*
X-40882Y196368D02*
Y196368D01*
X-25500Y211750D02*
Y236250D01*
X-32750Y204500D02*
X-25500Y211750D01*
X-32750Y204500D02*
Y204500D01*
X-126250Y45250D02*
Y58500D01*
X-149750Y21750D02*
X-126250Y45250D01*
X-172812Y21750D02*
X-149750D01*
X-184281Y10281D02*
X-172812Y21750D01*
X-18500Y259744D02*
X-11789Y266455D01*
Y267882D01*
X-18500Y189250D02*
Y259744D01*
X-75249Y132501D02*
X-18500Y189250D01*
X-75249Y96250D02*
Y132501D01*
X-68250Y96500D02*
X-68000Y96250D01*
X-68250Y96500D02*
Y126000D01*
X-75249Y58749D02*
X-74749D01*
X-75748Y58250D02*
X-75249Y58749D01*
X-80875Y58250D02*
X-75748D01*
X-171062Y-31938D02*
X-80875Y58250D01*
X-26671Y288421D02*
X-16421D01*
X-26921Y288671D02*
X-26671Y288421D01*
X-16421D02*
X500Y271500D01*
Y262000D02*
Y271500D01*
X-8250Y253250D02*
X500Y262000D01*
X-8250Y186000D02*
Y253250D01*
X-68250Y126000D02*
X-8250Y186000D01*
X-68427Y58500D02*
X-68250D01*
X-164875Y-37948D02*
X-68427Y58500D01*
X-165052Y-37948D02*
X-164875D01*
X5000Y230250D02*
X26960Y252211D01*
Y270711D01*
X5000Y187750D02*
Y230250D01*
X-60250Y122500D02*
X5000Y187750D01*
X-60250Y96750D02*
Y122500D01*
X-91500Y94500D02*
X-91250Y94250D01*
X-90351D01*
X-145250Y94500D02*
X-91500D01*
X-90351Y94250D02*
X-87351Y91250D01*
X-147000Y90750D02*
X-91800D01*
X-88800Y87750D01*
X-152750Y87250D02*
X-93250D01*
X-90250Y84250D01*
X-95000Y83750D02*
X-92000Y80750D01*
X-160250Y83750D02*
X-95000D01*
X-159042Y-43958D02*
X-61000Y54083D01*
Y58500D01*
X-52500Y119408D02*
X44921Y216829D01*
X-52500Y96750D02*
Y119408D01*
X-46250Y97000D02*
X-46000Y96750D01*
X-46250Y97000D02*
Y114000D01*
X-39250Y110750D02*
X62882Y212882D01*
X24132Y231961D02*
X45117D01*
X57750Y212700D02*
Y219328D01*
X45117Y231961D02*
X57750Y219328D01*
X43900Y198850D02*
X57750Y212700D01*
X38600Y198850D02*
X43900D01*
X-46250Y114000D02*
X38600Y198850D01*
X62882Y212882D02*
Y234790D01*
X293000Y285000D02*
Y296250D01*
X289250Y281250D02*
X293000Y285000D01*
X254031Y281250D02*
X289250D01*
X234750Y277750D02*
X250531D01*
X254031Y281250D01*
X219750Y263000D02*
X234750D01*
X217750Y265000D02*
X219750Y263000D01*
X200900Y265000D02*
X217750D01*
X178250Y242351D02*
X200900Y265000D01*
X219750Y52500D02*
X251250D01*
X203000Y69250D02*
X219750Y52500D01*
X272500Y73750D02*
X293000D01*
X251250Y52500D02*
X272500Y73750D01*
X178250Y-15500D02*
Y-3500D01*
X176500Y-96800D02*
X197450Y-117750D01*
X176500Y-96800D02*
Y-17250D01*
X178250Y-15500D01*
X208075Y40764D02*
X209250Y41938D01*
Y42750D01*
X209000Y54250D02*
X209500D01*
X285500Y-149500D02*
X293250D01*
X194550Y-124750D02*
X260750D01*
X169500Y-99700D02*
X194550Y-124750D01*
X260750D02*
X285500Y-149500D01*
X173000Y-98250D02*
X196000Y-121250D01*
X-195740Y91750D02*
X-181750D01*
X-182000Y98000D02*
X-181750Y98250D01*
X-195500Y98000D02*
X-182000D01*
X-226978Y104750D02*
X-181750D01*
X-177000Y68750D02*
X-176750Y69000D01*
X-201740Y97750D02*
X-195740Y91750D01*
X-198750Y101250D02*
X-195500Y98000D01*
X-225528Y101250D02*
X-198750D01*
X-224079Y97750D02*
X-201740D01*
X-235750Y95978D02*
X-226978Y104750D01*
X-224250Y35000D02*
X-217250D01*
X-240207Y50957D02*
X-224250Y35000D01*
X-217250D02*
X-213000Y39250D01*
X-273132Y21750D02*
X-243925Y50957D01*
X-240207D01*
X-280250Y21750D02*
X-273132D01*
X-276250Y-202750D02*
Y-167750D01*
X-271500Y-163000D01*
X309500Y39000D02*
X312500Y42000D01*
X276000Y17750D02*
X287500D01*
X312500Y42000D02*
Y42750D01*
X308750Y39000D02*
X309500D01*
X287500Y17750D02*
X308750Y39000D01*
X312000Y264500D02*
Y265250D01*
X308250Y261500D02*
X309000D01*
X275000Y239000D02*
X285750D01*
X309000Y261500D02*
X312000Y264500D01*
X285750Y239000D02*
X308250Y261500D01*
X-147143Y-247987D02*
X-145364Y-249766D01*
X-147143Y-247987D02*
X-141487D01*
X-137250Y-243750D01*
X-147839Y-247291D02*
X-147143Y-247987D01*
X-137250Y-243750D02*
X-129250D01*
X-300250Y-313750D02*
Y-302649D01*
Y-313750D02*
X-291000Y-323000D01*
X-300250Y-302649D02*
X-227250Y-229650D01*
X-255901Y-263250D02*
X-246500D01*
X-296250Y-303599D02*
X-255901Y-263250D01*
X-246500D02*
X-193250Y-210000D01*
Y-199500D01*
X-296250Y-311571D02*
Y-303599D01*
X-276250Y-202750D02*
X-258250Y-220750D01*
X-227250Y-229650D02*
Y-220750D01*
X-294938Y-339250D02*
X-291000Y-335312D01*
Y-323000D01*
X-295750Y-339250D02*
X-294938D01*
X-296250Y-311571D02*
X-287500Y-320321D01*
Y-373750D02*
Y-320321D01*
X-290500Y-376750D02*
X-287500Y-373750D01*
X-262250Y-283250D02*
X-247250D01*
X-181250Y-217250D01*
X-276250Y-116500D02*
X-266500Y-126250D01*
X-279667Y-116500D02*
X-276250D01*
X-284907Y-121740D02*
X-279667Y-116500D01*
X-184250Y-321250D02*
X-145364Y-282364D01*
X-201000Y-321250D02*
X-184250D01*
X-145364Y-282364D02*
Y-249766D01*
X-325000Y-345300D02*
Y-302651D01*
X-321500Y-304101D02*
X-277074Y-259675D01*
X-321500Y-346750D02*
Y-304101D01*
X-316250Y-303800D02*
X-252500Y-240050D01*
X-316250Y-337200D02*
Y-303800D01*
X-312750Y-305250D02*
X-249000Y-241500D01*
X-312750Y-335750D02*
Y-305250D01*
X-191750Y-163985D02*
X-185912Y-169823D01*
X-191750Y-163985D02*
Y-163500D01*
X-186214Y-157500D02*
X-179901Y-163813D01*
X-179750Y-151943D02*
Y-151750D01*
X-121250Y-56679D02*
X-118321Y-53750D01*
X-118286D01*
X-121250Y-56714D02*
Y-56679D01*
X-114785Y-50250D02*
X-79201D01*
X-118286Y-53750D02*
X-114785Y-50250D01*
X-122744Y-58209D02*
X-121250Y-56714D01*
X-122744Y-59021D02*
Y-58209D01*
X-79201Y-50250D02*
X24349Y-153800D01*
X135422Y10071D02*
X145429D01*
X-111821Y-53750D02*
X-80651D01*
X22899Y-157300D01*
X-116250Y-58750D02*
Y-58179D01*
X-111821Y-53750D01*
X-109500Y-58500D02*
X-80850D01*
X-109750Y-58750D02*
X-109500Y-58500D01*
X133300Y3000D02*
X145500D01*
X-80850Y-58500D02*
X21450Y-160800D01*
X131750Y-3500D02*
X145500D01*
X171250Y151250D02*
Y245250D01*
X91149Y146000D02*
X166000D01*
X171250Y151250D01*
X198000Y272000D02*
X266500D01*
X171250Y245250D02*
X198000Y272000D01*
X174750Y243800D02*
X199450Y268500D01*
X238000D01*
X258500Y248000D01*
X266000D01*
X275000Y239000D01*
X-145500Y-78500D02*
X-137828Y-70828D01*
X-157050Y-78500D02*
X-145500D01*
X-180900Y-54650D02*
X-157050Y-78500D01*
X-180900Y-54650D02*
Y-51850D01*
X-188000Y-44750D02*
X-180900Y-51850D01*
X-136979Y-82000D02*
X-131818Y-76839D01*
X-158500Y-82000D02*
X-136979D01*
X-187500Y-53000D02*
X-158500Y-82000D01*
X-170250Y0D02*
X-166000Y-4250D01*
X-312500Y42750D02*
X-311750Y43500D01*
X-300500D01*
X-155500Y104750D02*
X-145250Y94500D01*
X-154500Y98250D02*
X-147000Y90750D01*
X-157250Y91750D02*
X-152750Y87250D01*
X-166250Y91750D02*
X-157250D01*
X-166250Y104750D02*
X-155500D01*
X52399Y152000D02*
X75250D01*
X50950Y155500D02*
X76700D01*
X49500Y159000D02*
X78149D01*
X-166250Y98250D02*
X-154500D01*
X57335Y91750D02*
X59500D01*
X55085Y94000D02*
X57335Y91750D01*
X59500D02*
X69227Y101477D01*
X-242500Y-151229D02*
Y-151000D01*
X-248500Y-145219D02*
Y-145000D01*
X-254417Y-139500D02*
X-254250D01*
X-235750Y74783D02*
Y95978D01*
X-232250Y94528D02*
X-225528Y101250D01*
X-232250Y80474D02*
Y94528D01*
X-228750Y93078D02*
X-224079Y97750D01*
X-228750Y81924D02*
Y93078D01*
Y81924D02*
X-222235Y75409D01*
X-217992D01*
X-212574Y69990D01*
X-232250Y80474D02*
X-217170Y65394D01*
X-235750Y74783D02*
X-221700Y60733D01*
X-199500Y60500D02*
X-157250D01*
X-207500Y52500D02*
X-199500Y60500D01*
X78149Y159000D02*
X91149Y146000D01*
X76700Y155500D02*
X89700Y142500D01*
X75250Y152000D02*
X88250Y139000D01*
X196000Y-121250D02*
X275500D01*
X-233750Y57000D02*
X-224500Y47750D01*
X-265500Y57000D02*
X-233750D01*
X-207500Y45000D02*
X-202639Y40139D01*
X-207500Y45000D02*
Y52500D01*
X-202639Y40139D02*
X-197639D01*
X-197250Y39750D01*
X-181250Y-217250D02*
Y-198527D01*
X-195104Y-184673D02*
X-181250Y-198527D01*
X-327000Y-200500D02*
X-309250Y-218250D01*
X-283785D02*
X-282285Y-216750D01*
X-309250Y-218250D02*
X-283785D01*
X-282250Y-216750D02*
X-281000Y-215500D01*
Y-168300D01*
X-282285Y-216750D02*
X-282250D01*
X-291250Y-159453D02*
X-290078Y-160625D01*
X-288675D01*
X-281000Y-168300D01*
X-327000Y-200500D02*
Y-183750D01*
X-290109Y-138963D02*
X-281725Y-130579D01*
X-288250Y-209250D02*
Y-177500D01*
X-286500Y-175750D01*
Y-167750D01*
X-290125Y-164125D02*
X-286500Y-167750D01*
X-292125Y-164125D02*
X-290125D01*
X-294750Y-161500D02*
X-292125Y-164125D01*
X-294750Y-161500D02*
Y-146000D01*
X-290109Y-141359D02*
Y-138963D01*
X-294750Y-146000D02*
X-290109Y-141359D01*
X-299250Y-202250D02*
Y-199500D01*
X-301750Y-209250D02*
X-299500Y-207000D01*
Y-202500D02*
X-299250Y-202250D01*
X-299500Y-207000D02*
Y-202500D01*
X-299250Y-199500D02*
X-296250Y-196500D01*
Y-184000D01*
X-291750Y-179500D02*
Y-171000D01*
X-296250Y-184000D02*
X-291750Y-179500D01*
X-333500Y-164500D02*
X-327750Y-170250D01*
X-327000D01*
X-350000Y-164500D02*
X-333500D01*
X-277000Y46250D02*
X-271750D01*
X-271746Y46246D02*
X-268246D01*
X-265500Y43500D01*
X-271750Y46250D02*
X-271746Y46246D01*
X-338500Y56000D02*
X-326000Y43500D01*
Y42750D02*
Y43500D01*
X-350000Y58500D02*
X-347500Y56000D01*
X-338500D01*
X279000Y-200750D02*
X288750D01*
X300000Y-189500D02*
Y-135000D01*
X288750Y-200750D02*
X300000Y-189500D01*
Y-135000D02*
Y-127250D01*
X289000Y-122000D02*
X292000Y-125000D01*
X297750D01*
X300000Y-127250D01*
X289000Y-122000D02*
Y-121250D01*
X266500Y258500D02*
X279250D01*
X279500Y258250D02*
X279750Y258500D01*
X266500Y35500D02*
X279750D01*
Y22750D02*
Y35500D01*
X338500Y56000D02*
X347500D01*
X326000Y42750D02*
Y43500D01*
X347500Y56000D02*
X350000Y58500D01*
X326000Y43500D02*
X338500Y56000D01*
X279500Y244750D02*
Y258250D01*
X338500Y279000D02*
X347500D01*
X350000Y281500D01*
X325500Y265250D02*
Y266000D01*
X338500Y279000D01*
X48219Y122719D02*
X59984Y110954D01*
X60204D01*
X69227Y101477D02*
Y101931D01*
X60204Y110954D02*
X69227Y101931D01*
X-275926Y-249888D02*
X-271250Y-245212D01*
X-275926Y-253926D02*
Y-249888D01*
X-271250Y-245212D02*
Y-243250D01*
X-276500Y-254500D02*
X-275926Y-253926D01*
X-233000Y-226500D02*
Y-202062D01*
X-239250Y-232750D02*
X-233000Y-226500D01*
X-240000Y-225750D02*
Y-197042D01*
X-227631Y-184673D01*
X-201115Y-191635D02*
X-193250Y-199500D01*
X-201115Y-191635D02*
Y-190683D01*
X-233000Y-202062D02*
X-221621Y-190683D01*
X-339500Y-359800D02*
X-325000Y-345300D01*
X-339500Y-369000D02*
Y-359800D01*
X-345500Y-375000D02*
X-339500Y-369000D01*
X-336000Y-380000D02*
Y-361250D01*
X-321500Y-346750D01*
X-276500Y-254500D02*
X-276500Y-254500D01*
X-277074Y-255074D02*
X-276500Y-254500D01*
X-277074Y-259675D02*
Y-255074D01*
X-286000Y-254500D02*
X-276500D01*
X-299324Y-363176D02*
X-298750Y-363750D01*
X-252500Y-240050D02*
Y-173703D01*
X-249000Y-241500D02*
Y-182000D01*
X-154250Y-337250D02*
X-64700D01*
X-168500D02*
X-154250D01*
X-154000Y-337000D02*
Y-327250D01*
X-154250Y-337250D02*
X-154000Y-337000D01*
X-304250Y-354260D02*
Y-353500D01*
Y-365321D02*
Y-354260D01*
Y-353500D02*
Y-349200D01*
Y-365321D02*
X-299071Y-370500D01*
X-314000Y-353500D02*
X-305010D01*
X-304250Y-354260D01*
X-308750Y-333700D02*
Y-328250D01*
X-308500Y-328500D01*
X-299250D01*
X-305000Y-382189D02*
Y-381980D01*
Y-382189D02*
X-301439Y-385750D01*
X-290500D01*
X-140750Y-333750D02*
X-66150D01*
X-143250Y-331250D02*
X-140750Y-333750D01*
X-316250Y-337200D02*
X-304250Y-349200D01*
X-299071Y-370500D02*
X-298750D01*
X-23750Y-286444D02*
X-23500Y-286194D01*
X-23750Y-324000D02*
Y-286444D01*
X-29250Y-329500D02*
X-23750Y-324000D01*
X-61899Y-329500D02*
X-29250D01*
X-66150Y-333750D02*
X-61899Y-329500D01*
X-60450Y-333000D02*
X-19149D01*
X-64700Y-337250D02*
X-60450Y-333000D01*
X-63500Y-341000D02*
X-59000Y-336500D01*
X-158500Y-341000D02*
X-63500D01*
X-59000Y-336500D02*
X-17700D01*
X-62250Y-344750D02*
X-57500Y-340000D01*
X-155183Y-344750D02*
X-62250D01*
X-57500Y-340000D02*
X-16250D01*
X-58000Y-354750D02*
X-53250Y-350000D01*
X-146679Y-354750D02*
X-58000D01*
X-53250Y-350000D02*
X115500D01*
X-305000Y-381980D02*
X-301750Y-378730D01*
X-345500Y-397328D02*
X-344328Y-398500D01*
X-336000D01*
X-345500Y-397328D02*
Y-375000D01*
X-315520Y-381980D02*
X-305000D01*
X-317500Y-380000D02*
X-315520Y-381980D01*
X-326000Y-380000D02*
X-317500D01*
X-296270Y-396520D02*
X-296250Y-396500D01*
X-305000Y-396520D02*
X-296270D01*
X-311520D02*
X-305000D01*
X-313500Y-398500D02*
X-311520Y-396520D01*
X-326000Y-398500D02*
X-313500D01*
X318250Y-372250D02*
Y-353500D01*
X315500Y-375000D02*
X318250Y-372250D01*
X309750Y-375000D02*
X315500D01*
X164000Y-380250D02*
X177750Y-394000D01*
X145750Y-380250D02*
X164000D01*
X177750Y-400500D02*
Y-394000D01*
X115500Y-350000D02*
X145750Y-380250D01*
X298500Y-382350D02*
X305276Y-375574D01*
X309176D01*
X309750Y-375000D01*
X-106208Y-63250D02*
X-81050D01*
X35250Y-179550D01*
Y-228700D02*
Y-179550D01*
X31750Y-227250D02*
Y-181000D01*
X-97688Y-66750D02*
X-82500D01*
X31750Y-181000D01*
X-19149Y-333000D02*
X1500Y-312351D01*
X-168750Y-337500D02*
X-168500Y-337250D01*
X1500Y-312351D02*
Y-286194D01*
X-194227Y20227D02*
Y20227D01*
X-189094Y-13906D02*
X-175187Y0D01*
X-194227Y20227D02*
X-184281Y10281D01*
X-188948D02*
X-184281D01*
X-201115Y-1885D02*
X-188948Y10281D01*
X-84250Y-212172D02*
X-80250Y-216172D01*
X-76000Y-259000D02*
Y-231250D01*
X-80250Y-227000D02*
X-76000Y-231250D01*
X-84250Y-212172D02*
Y-211000D01*
X-80250Y-227000D02*
Y-216172D01*
X-95770Y-199480D02*
X-84250Y-211000D01*
X-269750Y-309500D02*
Y-294750D01*
X-263250Y-313250D02*
X-247500Y-329000D01*
Y-341500D02*
Y-329000D01*
X-266750Y-313250D02*
X-263250D01*
X-269750Y-310250D02*
X-266750Y-313250D01*
X-269750Y-310250D02*
Y-309500D01*
X-201250D02*
Y-294250D01*
X-217500Y-341500D02*
Y-326500D01*
X-201250Y-310250D01*
Y-309500D01*
X-93200Y-281750D02*
X-76750D01*
X-76250Y-281250D01*
X-118250Y-256700D02*
X-93200Y-281750D01*
X44000Y-213750D02*
Y-205250D01*
X24477Y-268273D02*
X24727Y-268523D01*
X24223Y-268019D02*
X24477Y-268273D01*
X19981Y-268019D02*
X24223D01*
X16500Y-271500D02*
X19981Y-268019D01*
X16500Y-286194D02*
Y-271500D01*
X44500Y-249750D02*
X47250Y-247000D01*
Y-236500D01*
X30700Y-249750D02*
X44500D01*
X44000Y-233250D02*
X47250Y-236500D01*
X44000Y-233250D02*
Y-227250D01*
X6500Y-273950D02*
X30700Y-249750D01*
X6500Y-286194D02*
Y-273950D01*
X34000Y-244750D02*
X36250Y-242500D01*
X8750Y-266750D02*
X30750Y-244750D01*
X4000Y-266750D02*
X8750D01*
X30750Y-244750D02*
X34000D01*
X31500Y-286194D02*
Y-274500D01*
X42250Y-263750D02*
X52750D01*
X31500Y-274500D02*
X42250Y-263750D01*
X44250Y-267250D02*
X67750D01*
X36500Y-286194D02*
Y-275000D01*
X44250Y-267250D01*
X-312750Y-335750D02*
X-299250Y-349250D01*
Y-357250D02*
Y-349250D01*
X-308750Y-333700D02*
X-294250Y-348200D01*
Y-359321D02*
Y-348200D01*
X-249000Y-182000D02*
X-239652Y-172652D01*
X6500Y-312300D02*
Y-286194D01*
X-17700Y-336500D02*
X6500Y-312300D01*
X-16250Y-340000D02*
X11500Y-312250D01*
Y-286194D01*
X222000Y-391000D02*
Y-388736D01*
X-165750Y-363250D02*
X-161250Y-358750D01*
X-150679D01*
X-146679Y-354750D01*
X294250Y-382350D02*
X298500D01*
X-210100Y-340900D02*
X-209500Y-341500D01*
X-212500D02*
X-211900Y-340900D01*
X-211000Y-331250D02*
X-210100Y-332150D01*
Y-340900D02*
Y-332150D01*
X-211900Y-340900D02*
Y-332150D01*
X-211000Y-331250D01*
X-211900Y-340900D02*
X-210100D01*
X-298679Y-363750D02*
X-294250Y-359321D01*
X-298750Y-363750D02*
X-298679D01*
X-158000Y-347250D02*
X-157683D01*
X-155183Y-344750D01*
X-163906Y-342250D02*
X-159750D01*
X-158500Y-341000D01*
X-245662Y-166865D02*
Y-166641D01*
X-252500Y-173703D02*
X-245662Y-166865D01*
X-245500Y-190521D02*
X-233641Y-178662D01*
X-3500Y-286194D02*
Y-274250D01*
X4000Y-266750D01*
X-100750Y-173050D02*
Y-134777D01*
X-122979Y-112548D02*
X-100750Y-134777D01*
X-111237Y-183538D02*
X-100750Y-173050D01*
X-111237Y-201487D02*
Y-183538D01*
X-118250Y-208500D02*
X-111237Y-201487D01*
X-118250Y-256700D02*
Y-208500D01*
X-122979Y-80021D02*
X-106208Y-63250D01*
X11500Y-250250D02*
X21000Y-240750D01*
X23200D01*
X35250Y-228700D01*
X-116969Y-86031D02*
X-97688Y-66750D01*
X21750Y-237250D02*
X31750Y-227250D01*
X-8500Y-270250D02*
X11500Y-250250D01*
X-8500Y-286194D02*
Y-270250D01*
X-13500Y-286194D02*
Y-263750D01*
X52750D02*
X60111Y-256389D01*
X66341D02*
X66730Y-256000D01*
X60111Y-256389D02*
X66341D01*
X67750Y-267250D02*
X75500Y-275000D01*
X84980D01*
X-84803Y-112614D02*
X-84641Y-112451D01*
X-88500Y-116311D02*
X-84803Y-112614D01*
X-84641Y-112451D02*
Y-110141D01*
X-88500Y-131750D02*
Y-116311D01*
X-97250Y-140500D02*
X-88500Y-131750D01*
X-97250Y-174500D02*
Y-140500D01*
X-104750Y-182000D02*
X-97250Y-174500D01*
X-104750Y-211000D02*
Y-182000D01*
X-56000Y-259251D02*
Y-228250D01*
X-59422Y-224828D02*
X-56000Y-228250D01*
X-62941Y-224828D02*
X-59422D01*
X-66000Y-221770D02*
X-62941Y-224828D01*
X-56000Y-259251D02*
X-39000Y-276251D01*
X-95681Y-192000D02*
X-95540D01*
X-95770D02*
X-95681D01*
X-38281Y-172250D02*
X-33313Y-177218D01*
X-46000Y-221750D02*
X-44750Y-220500D01*
X-29505D01*
X-83930Y-172250D02*
X-82300D01*
X-95540Y-192000D02*
X-91979Y-188439D01*
X-95770Y-199480D02*
Y-192000D01*
X-104750Y-211000D02*
X-96000Y-219750D01*
X-23500Y-286194D02*
Y-276000D01*
X-21000Y-273500D01*
X-18500Y-276000D01*
Y-286194D02*
Y-276000D01*
X-46000Y-264302D02*
Y-250270D01*
X-34000Y-285694D02*
Y-276302D01*
X-46000Y-264302D02*
X-34000Y-276302D01*
Y-285694D02*
X-33500Y-286194D01*
X-39000Y-285694D02*
X-38500Y-286194D01*
X-39000Y-285694D02*
Y-276251D01*
X-64828Y-259000D02*
X-61201D01*
X-66000Y-257828D02*
Y-250270D01*
Y-257828D02*
X-64828Y-259000D01*
X-61201D02*
X-44000Y-276201D01*
Y-285694D02*
Y-276201D01*
Y-285694D02*
X-43500Y-286194D01*
X-76000Y-259000D02*
X-72500Y-262500D01*
X-62651D01*
X-49000Y-276151D01*
Y-285694D02*
X-48500Y-286194D01*
X-49000Y-285694D02*
Y-276151D01*
X-86000Y-262000D02*
X-82000Y-266000D01*
X-86000Y-262000D02*
Y-250270D01*
X-82000Y-266000D02*
X-64101D01*
X-54000Y-285694D02*
Y-276101D01*
X-64101Y-266000D02*
X-54000Y-276101D01*
Y-285694D02*
X-53500Y-286194D01*
X-96000Y-265000D02*
Y-219750D01*
Y-265000D02*
X-91500Y-269500D01*
X-65550D01*
X-59000Y-285694D02*
X-58500Y-286194D01*
X-59000Y-285694D02*
Y-276050D01*
X-65550Y-269500D02*
X-59000Y-276050D01*
X-106000Y-264000D02*
X-97000Y-273000D01*
X-106000Y-264000D02*
Y-250270D01*
X-97000Y-273000D02*
X-67000D01*
X-63500Y-276500D01*
Y-286194D02*
Y-276500D01*
X209750Y312229D02*
Y306897D01*
Y309563D01*
X211083Y310896D01*
X212416Y312229D01*
X213749D01*
X221746Y306897D02*
X219080D01*
X217747Y308230D01*
Y310896D01*
X219080Y312229D01*
X221746D01*
X223079Y310896D01*
Y309563D01*
X217747D01*
X225745Y312229D02*
X228411Y306897D01*
X231076Y312229D01*
X215082Y292500D02*
X209750D01*
X215082Y297832D01*
Y299165D01*
X213749Y300497D01*
X211083D01*
X209750Y299165D01*
X217747Y292500D02*
Y293833D01*
X219080D01*
Y292500D01*
X217747D01*
X224412Y299165D02*
X225745Y300497D01*
X228411D01*
X229744Y299165D01*
Y297832D01*
X228411Y296499D01*
X227078D01*
X228411D01*
X229744Y295166D01*
Y293833D01*
X228411Y292500D01*
X225745D01*
X224412Y293833D01*
D12*
X209500Y-4250D02*
X219983Y6233D01*
X196500Y-4250D02*
X209500D01*
X190250Y-10500D02*
X196500Y-4250D01*
X186000Y-10500D02*
X190250D01*
X155750Y30500D02*
Y39730D01*
Y-10500D02*
Y30500D01*
X154230Y41250D02*
X155750Y39730D01*
X153750Y41730D02*
X154230Y41250D01*
X153750Y41730D02*
Y60000D01*
X278477Y-75648D02*
X287977Y-85148D01*
X278477Y-75648D02*
Y-75523D01*
X287977Y-85273D02*
Y-85148D01*
X273750Y-69382D02*
X278477Y-74109D01*
X273750Y-69382D02*
Y-57038D01*
X278477Y-75523D02*
Y-74109D01*
X273750Y-57038D02*
X281983Y-48805D01*
Y-47267D01*
X287977Y-85398D02*
Y-85273D01*
X267733Y-33017D02*
X281983Y-47267D01*
X267733Y-33017D02*
Y-32767D01*
X260734Y-25768D02*
X267733Y-32767D01*
X260734Y-25768D02*
Y-20984D01*
X259233Y-19483D02*
X260734Y-20984D01*
X267733Y-32767D02*
Y-32767D01*
X241953Y-26982D02*
X250257Y-18678D01*
X241953Y-26982D02*
X241953D01*
X250257Y-18678D02*
X258428D01*
X259233Y-19483D01*
X282000Y-230750D02*
X294500D01*
X303750Y-240000D01*
X144250Y-87500D02*
X157250D01*
X132389Y-75639D02*
X144250Y-87500D01*
X85250Y-101250D02*
X110861Y-75639D01*
X132389D01*
X85250Y-106000D02*
Y-101250D01*
X28219Y-68945D02*
X55500Y-96226D01*
Y-105750D02*
Y-96226D01*
X28219Y-68945D02*
Y-66251D01*
X193000Y-87500D02*
X213000D01*
X243267Y-57233D01*
X326771Y-226750D02*
X331000D01*
X315750Y-215729D02*
Y-163493D01*
Y-215729D02*
X326771Y-226750D01*
X257517Y-72476D02*
Y-71983D01*
X249750Y-80243D02*
X257517Y-72476D01*
X249750Y-89500D02*
Y-80243D01*
Y-89500D02*
X258000Y-97750D01*
X297771D01*
X315750Y-163493D02*
X322000Y-157243D01*
Y-121979D01*
X297771Y-97750D02*
X322000Y-121979D01*
X218750Y-294000D02*
X282000Y-230750D01*
X218750Y-329500D02*
Y-294000D01*
X201750Y-346500D02*
X218750Y-329500D01*
X201750Y-375250D02*
Y-346500D01*
X-300750Y-144250D02*
Y-144000D01*
X-296750Y-140000D01*
X-311750Y-166750D02*
Y-166015D01*
X-300750Y-173735D02*
Y-144250D01*
X-310750Y-177250D02*
X-304265D01*
X-300750Y-173735D01*
X-311750Y-178250D02*
X-310750Y-177250D01*
X-321268Y-149732D02*
X-312485Y-158515D01*
X-321268Y-149732D02*
Y-149732D01*
X-312485Y-166015D02*
X-311750Y-166750D01*
X-312485Y-166015D02*
Y-158515D01*
X-319667Y-148132D02*
Y-142948D01*
X-321268Y-149732D02*
X-319667Y-148132D01*
Y-142948D02*
X-308859Y-132141D01*
D15*
X192250Y119250D02*
X201000D01*
X186500Y76084D02*
X204916Y94500D01*
X210157D01*
X212500Y96843D01*
Y125886D01*
X-331912Y77477D02*
X-331382Y78007D01*
X-340479Y73250D02*
X-336252Y77477D01*
X-328553Y78007D02*
X-328023Y77477D01*
X-331382Y78007D02*
X-328553D01*
X-336252Y77477D02*
X-331912D01*
X-340750Y73250D02*
X-340479D01*
X-212075Y2004D02*
X-210660D01*
X-201500Y-346600D02*
Y-341500D01*
X-268500Y-346600D02*
Y-341500D01*
X96000Y-303250D02*
Y-295250D01*
X297523Y-75727D02*
X303250Y-70000D01*
X87822Y102178D02*
X120143Y134500D01*
X61893Y76250D02*
X87822Y102178D01*
X78773Y111023D02*
X87618Y102178D01*
X87822D01*
X283686Y-220250D02*
X294250D01*
X334445Y-260445D01*
X164250Y-100814D02*
X283686Y-220250D01*
X334445Y-260445D02*
X341818D01*
X164250Y-100814D02*
Y14706D01*
X65000Y27250D02*
X107250Y-15000D01*
X65000Y27250D02*
Y68750D01*
X107250Y-52250D02*
Y-15000D01*
X64007Y-95493D02*
X107250Y-52250D01*
X64007Y-116743D02*
Y-95493D01*
X34500Y-146250D02*
X64007Y-116743D01*
X28000Y-146250D02*
X34500D01*
X-165000Y76250D02*
X61893D01*
X167709Y97209D02*
Y100189D01*
X170270Y102750D01*
X163250Y75500D02*
Y92750D01*
X170270Y102750D02*
X170500D01*
X163250Y92750D02*
X167709Y97209D01*
X164250Y14706D02*
X172830Y23285D01*
X189750Y33750D02*
Y52750D01*
X172830Y23285D02*
X179285D01*
X189750Y33750D01*
X186500Y56000D02*
X189750Y52750D01*
X186500Y56000D02*
Y76084D01*
X165979Y43811D02*
X168540Y41250D01*
X165979Y43811D02*
Y50271D01*
X164250Y52000D02*
X165979Y50271D01*
X164250Y52000D02*
Y59000D01*
X163250Y60000D02*
X164250Y59000D01*
X163250Y60000D02*
Y75500D01*
X203886Y134500D02*
X212500Y125886D01*
X120143Y134500D02*
X203886D01*
X170629Y110876D02*
X170758Y111005D01*
X170629Y102879D02*
Y110876D01*
X170500Y102750D02*
X170629Y102879D01*
X112000Y53750D02*
Y63736D01*
X-32000Y-202361D02*
X-31139Y-201500D01*
X-29505D01*
X-350000Y240750D02*
Y249000D01*
X-275801Y-347000D02*
X-268900D01*
X-278000Y-349199D02*
X-275801Y-347000D01*
X-268900D02*
X-268500Y-346600D01*
X-194199Y-347000D02*
X-192000Y-349199D01*
X-201100Y-347000D02*
X-194199D01*
X-201500Y-346600D02*
X-201100Y-347000D01*
X278191Y-133441D02*
X284941D01*
X286500Y-135000D01*
X278000Y-133250D02*
X278191Y-133441D01*
X-223035Y-107951D02*
X-211367Y-119619D01*
X-234702Y-96284D02*
X-223035Y-107951D01*
X-199700Y-84617D02*
X-188033Y-96284D01*
X-211367Y-72950D02*
X-199700Y-84617D01*
X-211367Y-96284D02*
X-199700Y-107951D01*
X-223035Y-84617D02*
X-211367Y-96284D01*
X-199700Y-107951D02*
X-188033Y-96284D01*
X-211367Y-119619D02*
X-199700Y-107951D01*
X-211367Y-96284D02*
X-199700Y-84617D01*
X-223035Y-107951D02*
X-211367Y-96284D01*
X-223035Y-84617D02*
X-211367Y-72950D01*
X-234702Y-96284D02*
X-223035Y-84617D01*
X-218792Y-4714D02*
X-212075Y2004D01*
X-44000Y-197500D02*
X-38170D01*
X-35031Y-200639D01*
X-46750Y-194750D02*
X-44000Y-197500D01*
X-35031Y-200639D02*
X-30366D01*
X-47250Y-194750D02*
X-46750D01*
X-49250Y-192750D02*
Y-192000D01*
Y-192750D02*
X-47250Y-194750D01*
X-30366Y-200639D02*
X-29505Y-201500D01*
X15579Y295250D02*
X24750D01*
X6172Y285843D02*
X15579Y295250D01*
X24750D02*
X99632Y220368D01*
Y188882D02*
Y220368D01*
X113559Y152441D02*
Y158691D01*
Y152441D02*
X113750Y152250D01*
X91500Y180750D02*
X113559Y158691D01*
X34630Y327250D02*
X44291Y317589D01*
X-172250Y83500D02*
X-165000Y76250D01*
X-172250Y83500D02*
Y225204D01*
X-122227Y275227D01*
X-187750Y-309500D02*
X-187625Y-309375D01*
Y-301875D02*
X-187500Y-301750D01*
X-187625Y-309375D02*
Y-301875D01*
X-311309Y-205309D02*
Y-198059D01*
X-309750Y-196500D01*
X-311500Y-205500D02*
X-311309Y-205309D01*
X58979Y133000D02*
X64729Y138750D01*
X65000D01*
X58500Y133000D02*
X58979D01*
X58500Y132375D02*
X69750Y121125D01*
X58500Y132375D02*
Y133000D01*
X69750Y120500D02*
Y121125D01*
X-171439Y-319439D02*
Y-319189D01*
X-167250Y-315000D01*
Y-314750D01*
X323250Y-262750D02*
X331382Y-270882D01*
X16750Y-196492D02*
Y-175750D01*
Y-196492D02*
X17000Y-196742D01*
X-311750Y-178250D02*
Y-166750D01*
X-308859Y-132141D02*
X-307328D01*
X-293745Y-118558D01*
X131500Y121000D02*
X131500Y121000D01*
X143000D01*
X-141000Y294500D02*
X-131773Y285273D01*
Y284773D02*
Y285273D01*
X-141000Y294500D02*
Y295000D01*
X-133532Y303926D02*
X-129000Y308459D01*
X-133532Y302467D02*
Y303926D01*
X-141000Y295000D02*
Y295000D01*
X-129000Y308459D02*
Y309000D01*
X-141000Y295000D02*
X-133532Y302467D01*
X-347750Y-122500D02*
X-340732Y-129518D01*
Y-130268D02*
Y-129518D01*
X-326250Y-114750D02*
X-319141Y-121859D01*
X-35730Y-235730D02*
X-26000D01*
X-46000D02*
X-35730D01*
X-106000D02*
Y-226750D01*
X-86000Y-235730D02*
Y-226750D01*
X-56000Y-207250D02*
X-46000D01*
X-56000Y-207250D02*
X-56000Y-207250D01*
X-56020Y-207230D02*
X-56000Y-207250D01*
X-66000Y-207230D02*
X-56020D01*
X-71059Y-197691D02*
X-68561Y-200189D01*
X-71250Y-192250D02*
X-71059Y-192441D01*
Y-197691D02*
Y-192441D01*
X-68561Y-204669D02*
X-66000Y-207230D01*
X-68561Y-204669D02*
Y-200189D01*
X-81105Y-192125D02*
X-71375D01*
X-81230Y-192000D02*
X-81105Y-192125D01*
X-71375D02*
X-71250Y-192250D01*
X-71000Y-192000D01*
X-62750D01*
X-87000Y-160250D02*
Y-153300D01*
X-87050Y-153250D02*
X-87000Y-153300D01*
X-80969Y-93250D02*
X-74359Y-99859D01*
X168770Y41250D02*
X177000D01*
X134500Y63500D02*
X134750Y63250D01*
X134500Y63500D02*
Y73986D01*
X168540Y41250D02*
X168770D01*
X-219464Y-306500D02*
X-213000D01*
X-256250Y-306750D02*
X-256000Y-306500D01*
X-249286D01*
X-291250Y-309500D02*
X-283250D01*
X-15000Y-247927D02*
Y-234750D01*
X3531Y-216219D01*
Y-205969D01*
X-17343Y-250270D02*
X-15000Y-247927D01*
X-26000Y-250270D02*
X-17343D01*
X3531Y-205969D02*
X7485Y-202015D01*
X11727D01*
X17000Y-196742D01*
X-219Y-190031D02*
X9781D01*
X16492Y-196742D01*
X-4994Y-185257D02*
Y-178500D01*
Y-185257D02*
X-219Y-190031D01*
X16492Y-196742D02*
X17000D01*
X-32506Y-185257D02*
Y-178500D01*
X-23969Y-190031D02*
X-11861Y-202139D01*
X-32506Y-185257D02*
X-27732Y-190031D01*
X-23969D01*
X-11861Y-210205D02*
Y-202139D01*
X-11065Y-211000D02*
X-7495D01*
X-11861Y-210205D02*
X-11065Y-211000D01*
X-84803Y-112614D02*
Y-110303D01*
Y-113925D02*
Y-112614D01*
X-95681Y-192000D02*
X-93120Y-189439D01*
Y-181439D01*
X-83930Y-172250D01*
X-82080Y-135330D02*
Y-116648D01*
X-84803Y-113925D02*
X-82080Y-116648D01*
X-84803Y-110303D02*
X-84641Y-110141D01*
X-83233Y-136483D02*
X-82080Y-135330D01*
X-53250Y-125250D02*
Y-117534D01*
X-58767Y-112017D02*
Y-112017D01*
Y-112017D02*
X-53250Y-117534D01*
X-46046Y-133704D02*
Y-132454D01*
X-53250Y-125250D02*
X-46046Y-132454D01*
X-52450Y-143476D02*
X-46046Y-137072D01*
Y-133704D01*
X-52450Y-153250D02*
Y-143476D01*
X-33313Y-177218D02*
Y-147155D01*
Y-177694D02*
Y-177218D01*
Y-147155D02*
X-32954Y-146796D01*
X-33313Y-177694D02*
X-32506Y-178500D01*
X-47700Y-172250D02*
X-38281D01*
D16*
X180215Y31286D02*
X184750Y35821D01*
Y45750D01*
X172750Y57750D02*
X184750Y45750D01*
X156536Y31286D02*
X180215D01*
X155750Y30500D02*
X156536Y31286D01*
X172750Y57750D02*
Y60000D01*
X-175750Y324250D02*
Y326007D01*
X-194371Y344628D02*
X-175750Y326007D01*
X342014Y-390750D02*
X351750D01*
X239425Y-369325D02*
X239750Y-369650D01*
X224075Y-369325D02*
X239425D01*
X223750Y-369000D02*
X224075Y-369325D01*
X239176Y-356376D02*
X239750Y-356950D01*
X224626Y-356376D02*
X239176D01*
X223750Y-355500D02*
X224626Y-356376D01*
X94750Y-260860D02*
Y-260500D01*
X99520Y-275000D02*
Y-265630D01*
X94750Y-260860D02*
X99520Y-265630D01*
X90250Y-256000D02*
X94750Y-260500D01*
X81270Y-256000D02*
X90250D01*
X42096Y-255750D02*
X43500D01*
X34803Y-259507D02*
X38339D01*
X42096Y-255750D01*
X34273Y-258977D02*
X34803Y-259507D01*
X17000Y-225500D02*
Y-215258D01*
X-75000Y-222500D02*
X-74617Y-222883D01*
Y-226883D02*
X-66000Y-235500D01*
X-74617Y-226883D02*
Y-222883D01*
X-66000Y-235730D02*
Y-235500D01*
X-260400Y-341400D02*
Y-331441D01*
X-259000Y-330041D02*
X-257600Y-331441D01*
X-260400Y-331441D02*
X-259000Y-330041D01*
X-257600Y-341400D02*
Y-331441D01*
X-259000Y-330041D02*
Y-329500D01*
X-260500Y-341500D02*
X-260400Y-341400D01*
X-257600D02*
X-257500Y-341500D01*
X-26000Y-264750D02*
X-21000Y-269750D01*
X-26000Y-264750D02*
Y-250270D01*
X-21000Y-273500D02*
Y-269750D01*
D21*
X195517Y-18233D02*
D03*
X243267Y-57233D02*
D03*
X257517Y-71983D02*
D03*
X-83233Y-136483D02*
D03*
D22*
X219983Y6233D02*
D03*
X267733Y-32767D02*
D03*
X281983Y-47517D02*
D03*
X-58767Y-112017D02*
D03*
D31*
X259233Y-19483D02*
D03*
D32*
X234767Y4983D02*
D03*
D37*
X-187250Y351750D02*
D03*
X-194371Y344628D02*
D03*
X-171439Y-319439D02*
D03*
X-178561Y-326561D02*
D03*
D38*
X-171032Y328968D02*
D03*
X-162186Y351249D02*
D03*
D39*
X-148751Y337814D02*
D03*
D40*
X112000Y63736D02*
D03*
Y91264D02*
D03*
X134500Y73986D02*
D03*
Y101514D02*
D03*
D46*
X-86000Y-235730D02*
D03*
Y-250270D02*
D03*
X-46000Y-235730D02*
D03*
Y-250270D02*
D03*
X-106000Y-235730D02*
D03*
Y-250270D02*
D03*
X-66000Y-221770D02*
D03*
Y-207230D02*
D03*
Y-235730D02*
D03*
Y-250270D02*
D03*
X-26000Y-235730D02*
D03*
Y-250270D02*
D03*
X-305000Y-381980D02*
D03*
Y-396520D02*
D03*
D47*
X-239214Y-306500D02*
D03*
X-249286D02*
D03*
X-229536D02*
D03*
X-219464D02*
D03*
D48*
X-174000Y0D02*
D03*
X-184281Y10281D02*
D03*
X-319141Y-121859D02*
D03*
X-308859Y-132141D02*
D03*
X-141000Y295000D02*
D03*
X-151281Y305281D02*
D03*
D49*
X48219Y122719D02*
D03*
X58500Y133000D02*
D03*
X-84641Y-110141D02*
D03*
X-74359Y-99859D02*
D03*
D52*
X-29505Y-201500D02*
D03*
D53*
Y-220500D02*
D03*
X-7495Y-211000D02*
D03*
D55*
X-82300Y-172250D02*
D03*
X-87050Y-153250D02*
D03*
D56*
X-47700Y-172250D02*
D03*
X-52450Y-153250D02*
D03*
D58*
X194473Y-391000D02*
D03*
X222000D02*
D03*
X342014Y-390750D02*
D03*
X314486D02*
D03*
D59*
X154230Y41250D02*
D03*
X168770D02*
D03*
X-95770Y-192000D02*
D03*
X-81230D02*
D03*
X170500Y102750D02*
D03*
X155960D02*
D03*
X84980Y-275000D02*
D03*
X99520D02*
D03*
X66730Y-256000D02*
D03*
X81270D02*
D03*
D61*
X-340732Y-130268D02*
D03*
X-321268Y-149732D02*
D03*
D64*
X-4994Y-178500D02*
D03*
X-32506D02*
D03*
D66*
X-46046Y-133704D02*
D03*
X-32954Y-146796D02*
D03*
D67*
X17000Y-196742D02*
D03*
Y-215258D02*
D03*
D99*
X-331000Y-389250D02*
D03*
D106*
X-147690Y-148399D02*
G03*
X-147692Y-148397I-1813J-1808D01*
G01*
X-153031Y-142600D02*
G03*
X-152709Y-143380I1106J0D01*
G01*
D02*
G03*
X-152707Y-143382I784J781D01*
G01*
X-133920Y-181598D02*
G03*
X-146192Y-152018I-41784J-0D01*
G01*
X-143502Y-204814D02*
G03*
X-133920Y-181681I-23133J23133D01*
G01*
X-146942Y-150207D02*
G03*
X-146192Y-152018I2561J0D01*
G01*
X-146942Y-150207D02*
G03*
X-147690Y-148399I-2561J0D01*
G01*
X-229579Y-290891D02*
G03*
X-231949Y-296613I5722J-5722D01*
G01*
X-231186Y-302515D02*
G03*
X-230502Y-305207I5636J0D01*
G01*
X-231949Y-299426D02*
G03*
X-231568Y-300347I1302J0D01*
G01*
X-231186Y-301267D02*
G03*
X-231568Y-300347I-1302J0D01*
G01*
X-230502Y-305207D02*
G03*
X-229536Y-306500I4951J2692D01*
G01*
X-153245Y-153949D02*
G03*
X-153242Y-153951I1811J1811D01*
G01*
X-149623Y-155449D02*
G03*
X-151434Y-154699I-1811J-1811D01*
G01*
X-153242Y-153951D02*
G03*
X-151434Y-154699I1808J1813D01*
G01*
X-158261Y-148933D02*
G03*
X-159042Y-148610I-781J-784D01*
G01*
X-158260Y-148934D02*
G03*
X-158261Y-148933I-782J-782D01*
G01*
X-146958Y-201408D02*
G03*
X-138772Y-181646I-19761J19761D01*
G01*
D02*
G03*
X-149623Y-155449I-37049J0D01*
G01*
X-233720Y-288170D02*
G03*
X-233722Y-288172I7438J-7438D01*
G01*
D02*
G03*
X-236801Y-295608I7440J-7436D01*
G01*
X-237182Y-300347D02*
G03*
X-236801Y-299426I-921J921D01*
G01*
X-237182Y-300347D02*
G03*
X-237564Y-301267I921J-921D01*
G01*
X-239214Y-306500D02*
G03*
X-237564Y-302515I-3985J3985D01*
G01*
X-147692Y-148397D02*
X-147690Y-148399D01*
X-152707Y-143382D02*
X-147692Y-148397D01*
X-152709Y-143380D02*
X-152707Y-143382D01*
X-133920Y-181681D02*
Y-181598D01*
X-229579Y-290891D02*
X-143502Y-204814D01*
X-231186Y-302515D02*
Y-301267D01*
X-231949Y-299426D02*
Y-296613D01*
X-153245Y-153949D02*
X-153242Y-153951D01*
X-158261Y-148933D02*
X-158260Y-148934D01*
X-153245Y-153949D01*
X-233720Y-288170D02*
X-146958Y-201408D01*
X-233722Y-288172D02*
X-233720Y-288170D01*
X-236801Y-299426D02*
Y-295608D01*
X-237564Y-302515D02*
Y-301267D01*
D107*
X201000Y105750D02*
D03*
Y119250D02*
D03*
X96000Y-303250D02*
D03*
Y-316750D02*
D03*
X187750Y107750D02*
D03*
Y94250D02*
D03*
X-265500Y43500D02*
D03*
Y57000D02*
D03*
X223750Y-355500D02*
D03*
Y-369000D02*
D03*
X279750Y258500D02*
D03*
Y272000D02*
D03*
X44000Y-227250D02*
D03*
Y-213750D02*
D03*
X279750Y35500D02*
D03*
Y49000D02*
D03*
X-286000Y-241000D02*
D03*
Y-254500D02*
D03*
X266500Y35500D02*
D03*
Y49000D02*
D03*
X-279500Y48750D02*
D03*
Y35250D02*
D03*
X266500Y258500D02*
D03*
Y272000D02*
D03*
X-327000Y-170250D02*
D03*
Y-183750D02*
D03*
X-302000Y-239250D02*
D03*
Y-252750D02*
D03*
D108*
X109750Y-331000D02*
D03*
X-104750Y-211000D02*
D03*
X20500Y336250D02*
D03*
X-269750Y-294750D02*
D03*
X-201250Y-294250D02*
D03*
X309000Y-339250D02*
D03*
X11500Y-250250D02*
D03*
X-323000Y-256000D02*
D03*
X-84250Y-211000D02*
D03*
X-154000Y-327250D02*
D03*
X318250Y-353500D02*
D03*
X59500Y91750D02*
D03*
X0Y-237250D02*
D03*
X38000Y-241000D02*
D03*
X-129250Y-243750D02*
D03*
X-271250Y-243250D02*
D03*
X-299250Y-328500D02*
D03*
X-314000Y-353500D02*
D03*
D109*
X146046Y-354296D02*
D03*
X136500Y-344750D02*
D03*
X314977Y-97477D02*
D03*
X324523Y-107023D02*
D03*
X-122227Y275227D02*
D03*
X-131773Y284773D02*
D03*
X-194227Y20227D02*
D03*
X-203773Y29773D02*
D03*
D110*
X-218792Y-187855D02*
D03*
X-224803Y-181844D02*
D03*
X-230813Y-175834D02*
D03*
X-236823Y-169823D02*
D03*
X-242834Y-163813D02*
D03*
X-248844Y-157803D02*
D03*
X-254855Y-151792D02*
D03*
X-260865Y-145782D02*
D03*
X-266875Y-139771D02*
D03*
X-272886Y-133761D02*
D03*
X-278896Y-127751D02*
D03*
X-284907Y-121740D02*
D03*
X-290917Y-115730D02*
D03*
X-296928Y-109719D02*
D03*
X-302938Y-103709D02*
D03*
X-119797Y-88860D02*
D03*
X-125808Y-82849D02*
D03*
X-131818Y-76839D02*
D03*
X-137828Y-70828D02*
D03*
X-143839Y-64818D02*
D03*
X-149849Y-58808D02*
D03*
X-155860Y-52797D02*
D03*
X-161870Y-46787D02*
D03*
X-167880Y-40776D02*
D03*
X-173891Y-34766D02*
D03*
X-179901Y-28756D02*
D03*
X-185912Y-22745D02*
D03*
X-191922Y-16735D02*
D03*
X-197932Y-10724D02*
D03*
X-203943Y-4714D02*
D03*
D111*
X-211367Y-195279D02*
D03*
X-310362Y-96284D02*
D03*
X-112373D02*
D03*
X-211367Y2711D02*
D03*
D112*
X-203943Y-187855D02*
D03*
X-197932Y-181844D02*
D03*
X-191922Y-175834D02*
D03*
X-185912Y-169823D02*
D03*
X-179901Y-163813D02*
D03*
X-173891Y-157803D02*
D03*
X-167880Y-151792D02*
D03*
X-161870Y-145782D02*
D03*
X-155860Y-139771D02*
D03*
X-149849Y-133761D02*
D03*
X-143839Y-127751D02*
D03*
X-137828Y-121740D02*
D03*
X-131818Y-115730D02*
D03*
X-125808Y-109719D02*
D03*
X-119797Y-103709D02*
D03*
X-218792Y-4714D02*
D03*
X-224803Y-10724D02*
D03*
X-230813Y-16735D02*
D03*
X-236823Y-22745D02*
D03*
X-242834Y-28756D02*
D03*
X-248844Y-34766D02*
D03*
X-254855Y-40776D02*
D03*
X-260865Y-46787D02*
D03*
X-266875Y-52797D02*
D03*
X-272886Y-58808D02*
D03*
X-278896Y-64818D02*
D03*
X-284907Y-70828D02*
D03*
X-290917Y-76839D02*
D03*
X-296928Y-82849D02*
D03*
X-302938Y-88860D02*
D03*
D113*
X-211367Y-96284D02*
D03*
Y-119619D02*
D03*
X-223035Y-107951D02*
D03*
X-199700D02*
D03*
X-188033Y-96284D02*
D03*
X-199700Y-84617D02*
D03*
X-211367Y-72950D02*
D03*
X-223035Y-84617D02*
D03*
D114*
X-234702Y-96284D02*
D03*
D115*
X102466Y-140498D02*
D03*
X130750Y-112213D02*
D03*
D116*
X28219Y-66251D02*
D03*
X56504Y-37967D02*
D03*
D117*
X278477Y-75523D02*
D03*
X288023Y-65977D02*
D03*
X297523Y-75727D02*
D03*
X287977Y-85273D02*
D03*
X-102227Y273523D02*
D03*
X-111773Y263977D02*
D03*
X-318477Y87023D02*
D03*
X-328023Y77477D02*
D03*
X34273Y-258977D02*
D03*
X24727Y-268523D02*
D03*
X78773Y111023D02*
D03*
X69227Y101477D02*
D03*
X-307773Y77727D02*
D03*
X-298227Y87273D02*
D03*
X60204Y110954D02*
D03*
X69750Y120500D02*
D03*
D118*
X218265Y-37235D02*
D03*
X228518Y-13547D02*
D03*
X241953Y-26982D02*
D03*
D119*
X153750Y87500D02*
D03*
X172750D02*
D03*
Y60000D02*
D03*
X163250Y60000D02*
D03*
X153750Y60000D02*
D03*
D120*
X172250Y121250D02*
D03*
X158750D02*
D03*
X-277750Y81750D02*
D03*
X-264250D02*
D03*
X286500Y-135000D02*
D03*
X300000D02*
D03*
X326000Y42750D02*
D03*
X312500D02*
D03*
X-326000D02*
D03*
X-312500D02*
D03*
X289000Y-121250D02*
D03*
X275500D02*
D03*
X325500Y265250D02*
D03*
X312000D02*
D03*
X-288250Y-209250D02*
D03*
X-301750D02*
D03*
X-49250Y-192000D02*
D03*
X-62750D02*
D03*
X-296250Y-196500D02*
D03*
X-309750D02*
D03*
X-201250Y-309500D02*
D03*
X-187750D02*
D03*
X-269750D02*
D03*
X-283250D02*
D03*
D121*
X350000Y249000D02*
D03*
Y282000D02*
D03*
X-350000Y-197000D02*
D03*
Y-164000D02*
D03*
X350000Y-197000D02*
D03*
Y-164000D02*
D03*
Y26000D02*
D03*
Y59000D02*
D03*
X-350000Y249000D02*
D03*
Y282000D02*
D03*
Y26000D02*
D03*
Y59000D02*
D03*
D122*
X323250Y-262750D02*
D03*
X331382Y-270882D02*
D03*
D123*
X66650Y-309694D02*
D03*
X-78650D02*
D03*
D124*
X-63500Y-286194D02*
D03*
X-58500Y-286194D02*
D03*
X-53500D02*
D03*
X-48500D02*
D03*
X-43500D02*
D03*
X-38500D02*
D03*
X-33500Y-286194D02*
D03*
X-28500Y-286194D02*
D03*
X-23500D02*
D03*
X-18500D02*
D03*
X-13500D02*
D03*
X-8500D02*
D03*
X-3500D02*
D03*
X1500Y-286194D02*
D03*
X6500Y-286194D02*
D03*
X11500D02*
D03*
X16500D02*
D03*
X21500Y-286194D02*
D03*
X26500D02*
D03*
X31500D02*
D03*
X36500D02*
D03*
X41500Y-286194D02*
D03*
X46500D02*
D03*
X51500D02*
D03*
D125*
X-72502Y329577D02*
D03*
X-81482Y338557D02*
D03*
X-90463Y347537D02*
D03*
X-99443Y356518D02*
D03*
X-111039Y291040D02*
D03*
X-120020Y300020D02*
D03*
X-129000Y309000D02*
D03*
X-137980Y317980D02*
D03*
D126*
X285205Y-295205D02*
D03*
X-285205Y275205D02*
D03*
D127*
X131500Y121000D02*
D03*
X143000Y121000D02*
D03*
D128*
X-46000Y-207250D02*
D03*
Y-221750D02*
D03*
D129*
X-311750Y-166750D02*
D03*
Y-178250D02*
D03*
D130*
X99632Y188882D02*
D03*
X91500Y180750D02*
D03*
X-40882Y196368D02*
D03*
X-32750Y204500D02*
D03*
D131*
X267000Y-376000D02*
D03*
D132*
X294250Y-395050D02*
D03*
Y-382350D02*
D03*
Y-369650D02*
D03*
Y-356950D02*
D03*
X239750Y-395050D02*
D03*
Y-382350D02*
D03*
Y-369650D02*
D03*
Y-356950D02*
D03*
D133*
X-103291Y-291839D02*
D03*
X-147839Y-247291D02*
D03*
X-130161Y-318709D02*
D03*
X-174709Y-274161D02*
D03*
X115709Y299911D02*
D03*
X71161Y344459D02*
D03*
X88839Y273041D02*
D03*
X44291Y317589D02*
D03*
D134*
X-268500Y-341500D02*
D03*
X-265500D02*
D03*
X-260500D02*
D03*
X-257500D02*
D03*
X-252500D02*
D03*
X-247500D02*
D03*
X-242500D02*
D03*
X-237500D02*
D03*
X-232500D02*
D03*
X-227500D02*
D03*
X-222500D02*
D03*
X-217500D02*
D03*
X-212500D02*
D03*
X-209500D02*
D03*
X-204500D02*
D03*
X-201500D02*
D03*
D135*
X-326000Y-380000D02*
D03*
X-336000D02*
D03*
Y-398500D02*
D03*
X-326000D02*
D03*
D136*
X234767Y4983D02*
X237250Y2500D01*
X232754Y-8996D02*
X237250Y-4500D01*
Y2500D01*
X228518Y-13547D02*
X232754Y-9311D01*
X228518Y-13547D02*
Y-13547D01*
X232754Y-9311D02*
Y-8996D01*
X230000Y9623D02*
X234641Y4983D01*
X223500Y9623D02*
X230000D01*
X220109Y6233D02*
X223500Y9623D01*
X234641Y4983D02*
X234767D01*
X219983Y6233D02*
X220109D01*
X208779Y-27750D02*
X218265Y-37235D01*
X218265D01*
X205034Y-27750D02*
X208779D01*
X195517Y-18233D02*
X195517D01*
X205034Y-27750D01*
X-208750Y35000D02*
X-203648Y29898D01*
X331382Y-270882D02*
X341818Y-260445D01*
X183000Y-72500D02*
X218265Y-37235D01*
X183000Y-94108D02*
Y-72500D01*
X251000Y-106250D02*
X294250D01*
X246000Y-111250D02*
X251000Y-106250D01*
X200142Y-111250D02*
X246000D01*
X183000Y-94108D02*
X200142Y-111250D01*
X294250Y-106250D02*
X313500Y-125500D01*
Y-153722D02*
Y-125500D01*
X307250Y-219250D02*
Y-159972D01*
X313500Y-153722D01*
X-177000Y68750D02*
X65000D01*
X108104Y111854D02*
X117250Y121000D01*
X65000Y68750D02*
X108104Y111854D01*
X113750Y106208D01*
X-202500Y68750D02*
X-177000D01*
X307250Y-219250D02*
X341818Y-253818D01*
X184250Y-390000D02*
X193473D01*
X194473Y-391000D01*
X341818Y-260445D02*
Y-253818D01*
X331382Y-270882D02*
Y-270882D01*
X-215250Y41500D02*
X-213000Y39250D01*
X-215250Y41500D02*
Y56000D01*
X-213000Y39250D02*
X-208750Y35000D01*
X-215250Y56000D02*
X-202500Y68750D01*
X-203648Y29898D02*
Y29898D01*
X-203773Y29773D02*
X-203648Y29898D01*
X117250Y121000D02*
X131500D01*
X-97250Y340750D02*
X-90463Y347537D01*
Y347537D01*
X-79750Y322500D02*
X-72673Y329577D01*
X-72502D01*
X-88500Y331500D02*
X-81482Y338518D01*
Y338557D01*
X294250Y-395050D02*
X310459D01*
X314486Y-391022D02*
Y-390750D01*
X310459Y-395050D02*
X314486Y-391022D01*
D137*
X95750Y-345000D02*
X117571D01*
X-55321D02*
X95750D01*
X201750Y-375250D02*
X208514D01*
X147821D02*
X201750D01*
X155192Y102132D02*
X155811Y102750D01*
X153750Y100689D02*
X155192Y102132D01*
X155342D01*
X155112D02*
X155192D01*
X155730Y102750D02*
X155811D01*
X155960D01*
X153750Y87500D02*
Y100689D01*
X-148750Y-349750D02*
X-60071D01*
X-55321Y-345000D01*
X-184875Y-331875D02*
X-163000Y-353750D01*
X-188046Y-328704D02*
X-184875Y-331875D01*
X-179561Y-326561D01*
X-178561D01*
X-211000Y-331250D02*
Y-329000D01*
X-210704Y-328704D02*
X-188046D01*
X-211000Y-329000D02*
X-210704Y-328704D01*
X141500Y112000D02*
Y119500D01*
X140791Y111291D02*
X141500Y112000D01*
Y119500D02*
X143000Y121000D01*
X140791Y105541D02*
Y111291D01*
X137382Y102132D02*
X155112D01*
X135118D02*
X137382D01*
X140791Y105541D01*
X136764Y101514D02*
X137382Y102132D01*
X134500Y101514D02*
X136764D01*
X155112Y102132D02*
X155730Y102750D01*
X153669Y100689D02*
X155112Y102132D01*
X134500Y101514D02*
X135118Y102132D01*
X155342D02*
X155960Y102750D01*
X117571Y-345000D02*
X147821Y-375250D01*
X208514D02*
X222000Y-388736D01*
Y-391022D02*
X226028Y-395050D01*
X239750D01*
X222000Y-391022D02*
Y-391000D01*
X-152750Y-353750D02*
X-148750Y-349750D01*
X-163000Y-353750D02*
X-152750D01*
D138*
X-175750Y324250D02*
X-171032Y328968D01*
X-188500Y311500D02*
X-175750Y324250D01*
X-160400Y353035D02*
X-154610Y358825D01*
X-146325D02*
X-124625Y337125D01*
X-154610Y358825D02*
X-146325D01*
X-124625Y331875D02*
Y337125D01*
Y331336D02*
Y331875D01*
X-285204Y275205D02*
X-248909Y311500D01*
X-188500D01*
X-285205Y275205D02*
X-285204D01*
X112000Y91264D02*
X113527Y92791D01*
X132236Y101514D02*
X134500D01*
X123514Y92791D02*
X132236Y101514D01*
X113527Y92791D02*
X123514D01*
X331382Y-270882D02*
X344250Y-283750D01*
X332250Y-320750D02*
X344250Y-308750D01*
Y-283750D01*
X316014Y-386959D02*
X332250Y-370723D01*
Y-320750D01*
X314486Y-390750D02*
X316014Y-389222D01*
Y-386959D01*
X331382Y-270882D02*
Y-270882D01*
X285205Y-295205D02*
X290795D01*
X323250Y-262750D01*
X-150679Y305281D02*
X-137980Y317980D01*
X-151281Y305281D02*
X-150679D01*
X-137980Y317980D02*
X-137980D01*
X-124625Y331875D02*
X-105625Y312875D01*
X-137980Y317980D02*
Y317980D01*
X-124625Y331336D01*
X-105625Y312875D02*
X-101557Y308807D01*
X-120020Y300020D02*
X-107164Y312875D01*
X-105625D01*
X-120020Y300020D02*
X-120020D01*
X-111039Y291040D02*
X-101557Y300522D01*
Y308807D01*
D139*
X-242500Y-352279D02*
Y-341500D01*
X-232531Y-352279D02*
Y-341531D01*
X-241028Y-353750D02*
X-234002D01*
X-232531Y-352279D01*
X-242500D02*
X-241028Y-353750D01*
X-232531Y-341531D02*
X-232500Y-341500D01*
D140*
X44921Y216829D02*
D03*
X62882Y234790D02*
D03*
X42093Y249922D02*
D03*
X26960Y270711D02*
D03*
X24132Y231961D02*
D03*
X-8960Y306632D02*
D03*
X-26921Y288671D02*
D03*
X6172Y285843D02*
D03*
X9000Y252750D02*
D03*
X-11789Y267882D02*
D03*
D141*
X-192000Y-393500D02*
D03*
X-278000D02*
D03*
D142*
X-192000Y-349199D02*
D03*
X-278000D02*
D03*
D143*
X233750Y25000D02*
D03*
X-211500Y-52000D02*
D03*
X-234000Y-39000D02*
D03*
X-206500Y-26750D02*
D03*
X192250Y119250D02*
D03*
X352250Y-362500D02*
D03*
X353750Y-268500D02*
D03*
X320250Y-327250D02*
D03*
X-273250Y-224500D02*
D03*
X147500Y-154500D02*
D03*
X-7000Y-103500D02*
D03*
X-38000Y-69250D02*
D03*
X46500Y-167000D02*
D03*
X122250Y-235500D02*
D03*
X-100500Y-36250D02*
D03*
X-146500Y4750D02*
D03*
X-112250Y-43000D02*
D03*
X-87500Y-39750D02*
D03*
X40750Y-130500D02*
D03*
X56250Y-150500D02*
D03*
X210500Y-304500D02*
D03*
X226000D02*
D03*
X-334750Y318750D02*
D03*
X-238250Y339750D02*
D03*
X-230250Y183000D02*
D03*
X-248500Y245750D02*
D03*
X-339000Y297500D02*
D03*
X-257250Y222250D02*
D03*
X-255000Y73500D02*
D03*
X-279514Y62253D02*
D03*
X-340750Y73250D02*
D03*
X-241500Y66500D02*
D03*
X-299265Y122256D02*
D03*
X286000Y-2000D02*
D03*
X329250Y-3750D02*
D03*
X329500Y-55250D02*
D03*
X346500Y-125500D02*
D03*
X325500Y-171500D02*
D03*
X295000Y-209250D02*
D03*
X-64750Y-172750D02*
D03*
X-71000Y-125500D02*
D03*
X-104000Y-105000D02*
D03*
X-96500Y-81750D02*
D03*
X247500Y-7250D02*
D03*
X228500Y-27500D02*
D03*
X192750Y-34750D02*
D03*
X218250Y-60000D02*
D03*
X269750Y-87000D02*
D03*
X217750Y-100000D02*
D03*
X238000Y-81000D02*
D03*
X218750Y-136250D02*
D03*
X273250Y-179750D02*
D03*
X308500Y-91250D02*
D03*
X96000Y-295250D02*
D03*
X303250Y-70000D02*
D03*
X199250Y8250D02*
D03*
X145500Y18000D02*
D03*
X72000Y59000D02*
D03*
X58250Y59250D02*
D03*
X-87500Y-73000D02*
D03*
X-97250Y-124000D02*
D03*
X-114250Y-133250D02*
D03*
X186000Y-10500D02*
D03*
X155750D02*
D03*
X303750Y-240000D02*
D03*
X157250Y-87500D02*
D03*
X55500Y-105750D02*
D03*
X85250Y-106000D02*
D03*
X193000Y-87500D02*
D03*
X331000Y-226750D02*
D03*
X262750Y-114250D02*
D03*
X80000Y-160000D02*
D03*
X-0Y-0D02*
D03*
X-20000Y-40000D02*
D03*
X320000Y320000D02*
D03*
Y80000D02*
D03*
X280000Y320000D02*
D03*
X300000Y200000D02*
D03*
X280000Y160000D02*
D03*
X300000Y120000D02*
D03*
X280000Y80000D02*
D03*
X300000Y40000D02*
D03*
X240000Y320000D02*
D03*
Y240000D02*
D03*
X260000Y200000D02*
D03*
X240000Y160000D02*
D03*
X260000Y120000D02*
D03*
X240000Y80000D02*
D03*
Y-240000D02*
D03*
X200000Y320000D02*
D03*
X220000Y280000D02*
D03*
X200000Y240000D02*
D03*
X220000Y200000D02*
D03*
X200000Y160000D02*
D03*
Y-160000D02*
D03*
Y-240000D02*
D03*
X220000Y-280000D02*
D03*
X160000Y320000D02*
D03*
X180000Y280000D02*
D03*
X160000Y240000D02*
D03*
Y160000D02*
D03*
X180000Y-200000D02*
D03*
X160000Y-240000D02*
D03*
X180000Y-280000D02*
D03*
X160000Y-320000D02*
D03*
X180000Y-360000D02*
D03*
X160000Y-400000D02*
D03*
X120000Y320000D02*
D03*
X140000Y280000D02*
D03*
X120000Y240000D02*
D03*
X140000Y200000D02*
D03*
X120000Y160000D02*
D03*
X140000Y40000D02*
D03*
Y-40000D02*
D03*
Y-200000D02*
D03*
Y-280000D02*
D03*
X120000Y-320000D02*
D03*
Y-400000D02*
D03*
X80000Y320000D02*
D03*
X100000Y280000D02*
D03*
Y40000D02*
D03*
X80000Y-0D02*
D03*
X100000Y-200000D02*
D03*
X80000Y-240000D02*
D03*
X100000Y-360000D02*
D03*
X60000Y280000D02*
D03*
Y200000D02*
D03*
X40000Y160000D02*
D03*
X60000Y-200000D02*
D03*
Y-280000D02*
D03*
X40000Y-320000D02*
D03*
X60000Y-360000D02*
D03*
X-0Y320000D02*
D03*
X20000Y280000D02*
D03*
Y200000D02*
D03*
Y40000D02*
D03*
X-0Y-80000D02*
D03*
X20000Y-120000D02*
D03*
X-0Y-160000D02*
D03*
X20000Y-360000D02*
D03*
X-40000Y320000D02*
D03*
Y240000D02*
D03*
X-20000Y120000D02*
D03*
Y40000D02*
D03*
X-40000Y-0D02*
D03*
Y-160000D02*
D03*
Y-320000D02*
D03*
X-20000Y-360000D02*
D03*
X-80000Y240000D02*
D03*
X-60000Y200000D02*
D03*
Y-40000D02*
D03*
X-80000Y-80000D02*
D03*
X-60000Y-360000D02*
D03*
X-120000Y240000D02*
D03*
X-100000Y200000D02*
D03*
X-120000Y160000D02*
D03*
X-100000Y120000D02*
D03*
X-120000Y-160000D02*
D03*
X-100000Y-360000D02*
D03*
X-120000Y-400000D02*
D03*
X-140000Y280000D02*
D03*
Y200000D02*
D03*
X-160000Y160000D02*
D03*
X-140000Y120000D02*
D03*
Y40000D02*
D03*
X-160000Y-0D02*
D03*
Y-240000D02*
D03*
X-140000Y-280000D02*
D03*
X-160000Y-320000D02*
D03*
Y-400000D02*
D03*
X-180000Y280000D02*
D03*
X-200000Y240000D02*
D03*
X-180000Y200000D02*
D03*
Y-120000D02*
D03*
X-220000Y280000D02*
D03*
X-240000Y240000D02*
D03*
Y160000D02*
D03*
Y-80000D02*
D03*
Y-400000D02*
D03*
X-260000Y200000D02*
D03*
X-280000Y-80000D02*
D03*
X-260000Y-200000D02*
D03*
X-280000Y-320000D02*
D03*
X-300000Y200000D02*
D03*
X-320000Y-0D02*
D03*
Y-240000D02*
D03*
X-340000Y-40000D02*
D03*
X-360000Y-400000D02*
D03*
X-39250Y96750D02*
D03*
X197000Y46000D02*
D03*
X177000Y41250D02*
D03*
X163250Y75500D02*
D03*
X170758Y111005D02*
D03*
X112000Y53750D02*
D03*
X-93250Y57500D02*
D03*
X-347250Y-248250D02*
D03*
X-345000Y-7000D02*
D03*
X-212500Y-140500D02*
D03*
X-122250Y-144750D02*
D03*
X-7250Y-246000D02*
D03*
X-35250Y-263000D02*
D03*
X-10750Y-220500D02*
D03*
X-6750Y-301250D02*
D03*
X46500Y-302000D02*
D03*
X36500D02*
D03*
X-19250Y-220500D02*
D03*
X-150750Y-90250D02*
D03*
X-302000Y-261000D02*
D03*
X-311500Y220000D02*
D03*
X-350000Y240750D02*
D03*
X-327750Y255250D02*
D03*
X-293000Y-223750D02*
D03*
X151500Y152000D02*
D03*
X183250Y157000D02*
D03*
X278000Y-133250D02*
D03*
X-205750Y-208500D02*
D03*
X-346500Y-315000D02*
D03*
X-13500Y-314750D02*
D03*
X-190000Y129000D02*
D03*
X-221250Y84750D02*
D03*
X-190750Y82500D02*
D03*
X-256750Y-97500D02*
D03*
X-203000Y390750D02*
D03*
X201250Y390500D02*
D03*
X113750Y152250D02*
D03*
Y106208D02*
D03*
X34630Y327250D02*
D03*
X-25500Y236250D02*
D03*
X-126250Y101000D02*
D03*
Y58500D02*
D03*
X-68000Y96250D02*
D03*
X-75249Y96250D02*
D03*
Y58749D02*
D03*
X-68250Y58500D02*
D03*
X-60250Y96750D02*
D03*
X-61000Y58500D02*
D03*
X-52500Y96750D02*
D03*
X-46000D02*
D03*
X-54500Y58500D02*
D03*
X-46250Y58750D02*
D03*
X-39250Y59000D02*
D03*
X234750Y277750D02*
D03*
Y263000D02*
D03*
X203000Y69250D02*
D03*
X209500Y54250D02*
D03*
X209250Y42750D02*
D03*
X178214Y10286D02*
D03*
X178250Y3250D02*
D03*
Y-3500D02*
D03*
X-181750Y91750D02*
D03*
Y98250D02*
D03*
X-181750Y104750D02*
D03*
X-265750Y233750D02*
D03*
X-280250Y21750D02*
D03*
X-271500Y-163000D02*
D03*
X-258250Y-220750D02*
D03*
X-227250D02*
D03*
X-295750Y-339250D02*
D03*
X-262250Y-283250D02*
D03*
X-266500Y-126250D02*
D03*
X-201000Y-321250D02*
D03*
X-187500Y-301750D02*
D03*
X28000Y-146250D02*
D03*
X-191750Y-163500D02*
D03*
X-186214Y-157500D02*
D03*
X-179750Y-151750D02*
D03*
X-122744Y-59021D02*
D03*
X-116250Y-58750D02*
D03*
X-109750D02*
D03*
X145500Y-3500D02*
D03*
X145500Y3000D02*
D03*
X145429Y10071D02*
D03*
X-187500Y-53000D02*
D03*
X-166000Y-4250D02*
D03*
X-188000Y-44750D02*
D03*
X-215750Y113250D02*
D03*
X-198500Y111250D02*
D03*
X-213500Y-20000D02*
D03*
X-187896Y-36750D02*
D03*
X-242500Y-151000D02*
D03*
X-248500Y-145000D02*
D03*
X-254250Y-139500D02*
D03*
X-212574Y69990D02*
D03*
X-217170Y65394D02*
D03*
X-221700Y60733D02*
D03*
X-166250Y104750D02*
D03*
Y98250D02*
D03*
Y91750D02*
D03*
X-160250Y83750D02*
D03*
X-157250Y60500D02*
D03*
X-224590Y54910D02*
D03*
X-224500Y47750D02*
D03*
X-311500Y-205500D02*
D03*
X-291750Y-171000D02*
D03*
X279000Y-200750D02*
D03*
X293250Y-149500D02*
D03*
X293000Y73750D02*
D03*
X279750Y22750D02*
D03*
X293000Y296250D02*
D03*
X279500Y244750D02*
D03*
X-197250Y39750D02*
D03*
X65000Y138750D02*
D03*
X-239250Y-232750D02*
D03*
X-240000Y-225750D02*
D03*
X-276500Y-254500D02*
D03*
X-290500Y-385750D02*
D03*
X-143250Y-331250D02*
D03*
X-290500Y-376750D02*
D03*
X-167250Y-314750D02*
D03*
X-296270Y-396520D02*
D03*
X184250Y-390000D02*
D03*
X177750Y-400500D02*
D03*
X351750Y-390750D02*
D03*
X309750Y-375000D02*
D03*
X16750Y-175750D02*
D03*
X-296750Y-140000D02*
D03*
X-300750Y-144250D02*
D03*
X-213000Y39250D02*
D03*
X-208750Y35000D02*
D03*
X-97250Y340750D02*
D03*
X-79750Y322500D02*
D03*
X-88500Y331500D02*
D03*
X-347750Y-122500D02*
D03*
X-326250Y-114750D02*
D03*
X94750Y-260500D02*
D03*
X43500Y-255750D02*
D03*
X17000Y-225500D02*
D03*
X-75000Y-222500D02*
D03*
X-35730Y-235730D02*
D03*
X-106000Y-226750D02*
D03*
X-86000D02*
D03*
X-56000Y-207250D02*
D03*
X-71250Y-192250D02*
D03*
X-87000Y-160250D02*
D03*
X-80969Y-93250D02*
D03*
X134500Y63500D02*
D03*
X-213000Y-306500D02*
D03*
X-256000D02*
D03*
X-291250Y-309500D02*
D03*
X-211000Y-329590D02*
D03*
X-259000Y-329500D02*
D03*
X-76250Y-281250D02*
D03*
X44000Y-205250D02*
D03*
X-299250Y-357250D02*
D03*
X-165750Y-363250D02*
D03*
X-298750Y-370500D02*
D03*
Y-363750D02*
D03*
X-158000Y-347250D02*
D03*
X-163906Y-342250D02*
D03*
X-168750Y-337500D02*
D03*
D144*
X272500Y-387000D02*
D03*
X261500D02*
D03*
X272500Y-376000D02*
D03*
X261500Y-376000D02*
D03*
X272500Y-365000D02*
D03*
X261500Y-365000D02*
D03*
M02*
