G04*
G04 #@! TF.GenerationSoftware,Altium Limited,Altium Designer,22.2.1 (43)*
G04*
G04 Layer_Color=8388736*
%FSLAX44Y44*%
%MOMM*%
G71*
G04*
G04 #@! TF.SameCoordinates,B871D9CF-1150-4038-8CC5-882BAF5B3A6C*
G04*
G04*
G04 #@! TF.FilePolarity,Negative*
G04*
G01*
G75*
G04:AMPARAMS|DCode=28|XSize=1.1082mm|YSize=0.7821mm|CornerRadius=0.3911mm|HoleSize=0mm|Usage=FLASHONLY|Rotation=315.000|XOffset=0mm|YOffset=0mm|HoleType=Round|Shape=RoundedRectangle|*
%AMROUNDEDRECTD28*
21,1,1.1082,0.0000,0,0,315.0*
21,1,0.3261,0.7821,0,0,315.0*
1,1,0.7821,0.1153,-0.1153*
1,1,0.7821,-0.1153,0.1153*
1,1,0.7821,-0.1153,0.1153*
1,1,0.7821,0.1153,-0.1153*
%
%ADD28ROUNDEDRECTD28*%
G04:AMPARAMS|DCode=29|XSize=1.1082mm|YSize=0.7821mm|CornerRadius=0mm|HoleSize=0mm|Usage=FLASHONLY|Rotation=315.000|XOffset=0mm|YOffset=0mm|HoleType=Round|Shape=Rectangle|*
%AMROTATEDRECTD29*
4,1,4,-0.6683,0.1153,-0.1153,0.6683,0.6683,-0.1153,0.1153,-0.6683,-0.6683,0.1153,0.0*
%
%ADD29ROTATEDRECTD29*%

G04:AMPARAMS|DCode=31|XSize=1.1082mm|YSize=0.7821mm|CornerRadius=0.3911mm|HoleSize=0mm|Usage=FLASHONLY|Rotation=225.000|XOffset=0mm|YOffset=0mm|HoleType=Round|Shape=RoundedRectangle|*
%AMROUNDEDRECTD31*
21,1,1.1082,0.0000,0,0,225.0*
21,1,0.3261,0.7821,0,0,225.0*
1,1,0.7821,-0.1153,-0.1153*
1,1,0.7821,0.1153,0.1153*
1,1,0.7821,0.1153,0.1153*
1,1,0.7821,-0.1153,-0.1153*
%
%ADD31ROUNDEDRECTD31*%
G04:AMPARAMS|DCode=32|XSize=1.1082mm|YSize=0.7821mm|CornerRadius=0mm|HoleSize=0mm|Usage=FLASHONLY|Rotation=225.000|XOffset=0mm|YOffset=0mm|HoleType=Round|Shape=Rectangle|*
%AMROTATEDRECTD32*
4,1,4,0.1153,0.6683,0.6683,0.1153,-0.1153,-0.6683,-0.6683,-0.1153,0.1153,0.6683,0.0*
%
%ADD32ROTATEDRECTD32*%

G04:AMPARAMS|DCode=37|XSize=0.6654mm|YSize=0.6725mm|CornerRadius=0mm|HoleSize=0mm|Usage=FLASHONLY|Rotation=45.000|XOffset=0mm|YOffset=0mm|HoleType=Round|Shape=Rectangle|*
%AMROTATEDRECTD37*
4,1,4,0.0025,-0.4730,-0.4730,0.0025,-0.0025,0.4730,0.4730,-0.0025,0.0025,-0.4730,0.0*
%
%ADD37ROTATEDRECTD37*%

G04:AMPARAMS|DCode=38|XSize=1.5052mm|YSize=0.5721mm|CornerRadius=0.2861mm|HoleSize=0mm|Usage=FLASHONLY|Rotation=225.000|XOffset=0mm|YOffset=0mm|HoleType=Round|Shape=RoundedRectangle|*
%AMROUNDEDRECTD38*
21,1,1.5052,0.0000,0,0,225.0*
21,1,0.9331,0.5721,0,0,225.0*
1,1,0.5721,-0.3299,-0.3299*
1,1,0.5721,0.3299,0.3299*
1,1,0.5721,0.3299,0.3299*
1,1,0.5721,-0.3299,-0.3299*
%
%ADD38ROUNDEDRECTD38*%
G04:AMPARAMS|DCode=39|XSize=1.5052mm|YSize=0.5721mm|CornerRadius=0mm|HoleSize=0mm|Usage=FLASHONLY|Rotation=225.000|XOffset=0mm|YOffset=0mm|HoleType=Round|Shape=Rectangle|*
%AMROTATEDRECTD39*
4,1,4,0.3299,0.7345,0.7345,0.3299,-0.3299,-0.7345,-0.7345,-0.3299,0.3299,0.7345,0.0*
%
%ADD39ROTATEDRECTD39*%

%ADD40R,1.7582X1.3055*%
%ADD46R,0.9121X0.9581*%
%ADD47R,0.6654X0.6725*%
G04:AMPARAMS|DCode=48|XSize=0.9581mm|YSize=0.9121mm|CornerRadius=0mm|HoleSize=0mm|Usage=FLASHONLY|Rotation=315.000|XOffset=0mm|YOffset=0mm|HoleType=Round|Shape=Rectangle|*
%AMROTATEDRECTD48*
4,1,4,-0.6612,0.0163,-0.0163,0.6612,0.6612,-0.0163,0.0163,-0.6612,-0.6612,0.0163,0.0*
%
%ADD48ROTATEDRECTD48*%

G04:AMPARAMS|DCode=49|XSize=0.9581mm|YSize=0.9121mm|CornerRadius=0mm|HoleSize=0mm|Usage=FLASHONLY|Rotation=45.000|XOffset=0mm|YOffset=0mm|HoleType=Round|Shape=Rectangle|*
%AMROTATEDRECTD49*
4,1,4,-0.0163,-0.6612,-0.6612,-0.0163,0.0163,0.6612,0.6612,0.0163,-0.0163,-0.6612,0.0*
%
%ADD49ROTATEDRECTD49*%

%ADD52R,1.5052X0.5721*%
G04:AMPARAMS|DCode=53|XSize=1.5052mm|YSize=0.5721mm|CornerRadius=0.2861mm|HoleSize=0mm|Usage=FLASHONLY|Rotation=0.000|XOffset=0mm|YOffset=0mm|HoleType=Round|Shape=RoundedRectangle|*
%AMROUNDEDRECTD53*
21,1,1.5052,0.0000,0,0,0.0*
21,1,0.9331,0.5721,0,0,0.0*
1,1,0.5721,0.4666,0.0000*
1,1,0.5721,-0.4666,0.0000*
1,1,0.5721,-0.4666,0.0000*
1,1,0.5721,0.4666,0.0000*
%
%ADD53ROUNDEDRECTD53*%
%ADD55R,1.1082X0.7821*%
G04:AMPARAMS|DCode=56|XSize=1.1082mm|YSize=0.7821mm|CornerRadius=0.3911mm|HoleSize=0mm|Usage=FLASHONLY|Rotation=0.000|XOffset=0mm|YOffset=0mm|HoleType=Round|Shape=RoundedRectangle|*
%AMROUNDEDRECTD56*
21,1,1.1082,0.0000,0,0,0.0*
21,1,0.3261,0.7821,0,0,0.0*
1,1,0.7821,0.1631,0.0000*
1,1,0.7821,-0.1631,0.0000*
1,1,0.7821,-0.1631,0.0000*
1,1,0.7821,0.1631,0.0000*
%
%ADD56ROUNDEDRECTD56*%
%ADD58R,1.3055X1.7582*%
%ADD59R,0.9581X0.9121*%
G04:AMPARAMS|DCode=61|XSize=1.3055mm|YSize=1.7582mm|CornerRadius=0mm|HoleSize=0mm|Usage=FLASHONLY|Rotation=135.000|XOffset=0mm|YOffset=0mm|HoleType=Round|Shape=Rectangle|*
%AMROTATEDRECTD61*
4,1,4,1.0832,0.1601,-0.1601,-1.0832,-1.0832,-0.1601,0.1601,1.0832,1.0832,0.1601,0.0*
%
%ADD61ROTATEDRECTD61*%

%ADD64R,1.3549X2.7062*%
G04:AMPARAMS|DCode=66|XSize=1.4546mm|YSize=1.5562mm|CornerRadius=0mm|HoleSize=0mm|Usage=FLASHONLY|Rotation=315.000|XOffset=0mm|YOffset=0mm|HoleType=Round|Shape=Rectangle|*
%AMROTATEDRECTD66*
4,1,4,-1.0645,-0.0359,0.0359,1.0645,1.0645,0.0359,-0.0359,-1.0645,-1.0645,-0.0359,0.0*
%
%ADD66ROTATEDRECTD66*%

%ADD67R,1.5562X1.4546*%
%ADD69R,0.3500X0.6500*%
%ADD70R,0.3500X0.6500*%
%ADD71R,0.3500X0.6500*%
G04:AMPARAMS|DCode=72|XSize=1.0032mm|YSize=0.6032mm|CornerRadius=0mm|HoleSize=0mm|Usage=FLASHONLY|Rotation=45.000|XOffset=0mm|YOffset=0mm|HoleType=Round|Shape=Rectangle|*
%AMROTATEDRECTD72*
4,1,4,-0.1414,-0.5679,-0.5679,-0.1414,0.1414,0.5679,0.5679,0.1414,-0.1414,-0.5679,0.0*
%
%ADD72ROTATEDRECTD72*%

%ADD73P,1.4187X4X90.0*%
G04:AMPARAMS|DCode=74|XSize=0.6032mm|YSize=1.0032mm|CornerRadius=0mm|HoleSize=0mm|Usage=FLASHONLY|Rotation=45.000|XOffset=0mm|YOffset=0mm|HoleType=Round|Shape=Rectangle|*
%AMROTATEDRECTD74*
4,1,4,0.1414,-0.5679,-0.5679,0.1414,-0.1414,0.5679,0.5679,-0.1414,0.1414,-0.5679,0.0*
%
%ADD74ROTATEDRECTD74*%

%ADD75P,1.9844X4X90.0*%
G04:AMPARAMS|DCode=76|XSize=3.2032mm|YSize=4.4032mm|CornerRadius=0mm|HoleSize=0mm|Usage=FLASHONLY|Rotation=45.000|XOffset=0mm|YOffset=0mm|HoleType=Round|Shape=Rectangle|*
%AMROTATEDRECTD76*
4,1,4,0.4243,-2.6893,-2.6893,0.4243,-0.4243,2.6893,2.6893,-0.4243,0.4243,-2.6893,0.0*
%
%ADD76ROTATEDRECTD76*%

G04:AMPARAMS|DCode=77|XSize=3.2032mm|YSize=7.2032mm|CornerRadius=0mm|HoleSize=0mm|Usage=FLASHONLY|Rotation=45.000|XOffset=0mm|YOffset=0mm|HoleType=Round|Shape=Rectangle|*
%AMROTATEDRECTD77*
4,1,4,1.4142,-3.6792,-3.6792,1.4142,-1.4142,3.6792,3.6792,-1.4142,1.4142,-3.6792,0.0*
%
%ADD77ROTATEDRECTD77*%

G04:AMPARAMS|DCode=78|XSize=1.1532mm|YSize=1.0032mm|CornerRadius=0mm|HoleSize=0mm|Usage=FLASHONLY|Rotation=45.000|XOffset=0mm|YOffset=0mm|HoleType=Round|Shape=Rectangle|*
%AMROTATEDRECTD78*
4,1,4,-0.0530,-0.7624,-0.7624,-0.0530,0.0530,0.7624,0.7624,0.0530,-0.0530,-0.7624,0.0*
%
%ADD78ROTATEDRECTD78*%

G04:AMPARAMS|DCode=79|XSize=1.1532mm|YSize=1.0032mm|CornerRadius=0mm|HoleSize=0mm|Usage=FLASHONLY|Rotation=135.000|XOffset=0mm|YOffset=0mm|HoleType=Round|Shape=Rectangle|*
%AMROTATEDRECTD79*
4,1,4,0.7624,-0.0530,0.0530,-0.7624,-0.7624,0.0530,-0.0530,0.7624,0.7624,-0.0530,0.0*
%
%ADD79ROTATEDRECTD79*%

%ADD80P,1.4187X4X360.0*%
%ADD81R,1.1532X1.0032*%
%ADD82R,0.8032X1.2532*%
%ADD83R,1.0032X1.1532*%
%ADD84R,1.7032X1.2032*%
%ADD85C,1.2032*%
%ADD86P,1.7016X4X360.0*%
%ADD87R,2.2032X3.2032*%
%ADD88R,0.4000X1.6000*%
G04:AMPARAMS|DCode=89|XSize=0.8032mm|YSize=1.6532mm|CornerRadius=0mm|HoleSize=0mm|Usage=FLASHONLY|Rotation=315.000|XOffset=0mm|YOffset=0mm|HoleType=Round|Shape=Round|*
%AMOVALD89*
21,1,0.8500,0.8032,0.0000,0.0000,45.0*
1,1,0.8032,-0.3005,-0.3005*
1,1,0.8032,0.3005,0.3005*
%
%ADD89OVALD89*%

G04:AMPARAMS|DCode=90|XSize=6.7032mm|YSize=7.2032mm|CornerRadius=0mm|HoleSize=0mm|Usage=FLASHONLY|Rotation=315.000|XOffset=0mm|YOffset=0mm|HoleType=Round|Shape=Rectangle|*
%AMROTATEDRECTD90*
4,1,4,-4.9167,-0.1768,0.1768,4.9167,4.9167,0.1768,-0.1768,-4.9167,-4.9167,-0.1768,0.0*
%
%ADD90ROTATEDRECTD90*%

%ADD91R,1.2032X1.2032*%
%ADD92R,1.2532X1.1032*%
%ADD93R,1.2032X1.2032*%
%ADD94P,1.7016X4X90.0*%
%ADD95R,2.7232X3.6132*%
%ADD96O,1.6532X0.8032*%
G04:AMPARAMS|DCode=97|XSize=1.9032mm|YSize=1.2032mm|CornerRadius=0mm|HoleSize=0mm|Usage=FLASHONLY|Rotation=135.000|XOffset=0mm|YOffset=0mm|HoleType=Round|Shape=Rectangle|*
%AMROTATEDRECTD97*
4,1,4,1.0983,-0.2475,0.2475,-1.0983,-1.0983,0.2475,-0.2475,1.0983,1.0983,-0.2475,0.0*
%
%ADD97ROTATEDRECTD97*%

%ADD98R,0.4200X1.6000*%
%ADD99R,1.6000X0.7000*%
%ADD100C,0.2960*%
%ADD101C,0.2032*%
%ADD102C,1.7032*%
%ADD103O,1.4000X2.2000*%
%ADD104O,1.2000X2.0000*%
%ADD105C,0.1000*%
G36*
X-224803Y-96284D02*
X-234702Y-106184D01*
X-240005Y-100880D01*
Y-91688D01*
X-234702Y-86385D01*
X-224803Y-96284D01*
D02*
G37*
D28*
X259233Y-19483D02*
D03*
D29*
X234767Y4983D02*
D03*
D31*
X243267Y-57233D02*
D03*
X257517Y-71983D02*
D03*
X-83233Y-136483D02*
D03*
D32*
X267733Y-32767D02*
D03*
X281983Y-47517D02*
D03*
X-58767Y-112017D02*
D03*
D37*
X-187250Y351750D02*
D03*
X-194371Y344628D02*
D03*
X-171439Y-319439D02*
D03*
X-178561Y-326561D02*
D03*
D38*
X-171032Y328968D02*
D03*
X-162186Y351249D02*
D03*
D39*
X-148751Y337814D02*
D03*
D40*
X112000Y63736D02*
D03*
Y91264D02*
D03*
X134500Y73986D02*
D03*
Y101514D02*
D03*
D46*
X-86000Y-235730D02*
D03*
Y-250270D02*
D03*
X-46000Y-235730D02*
D03*
Y-250270D02*
D03*
X-106000Y-235730D02*
D03*
Y-250270D02*
D03*
X-66000Y-221770D02*
D03*
Y-207230D02*
D03*
Y-235730D02*
D03*
Y-250270D02*
D03*
X-26000Y-235730D02*
D03*
Y-250270D02*
D03*
X-305000Y-381980D02*
D03*
Y-396520D02*
D03*
D47*
X-239214Y-306500D02*
D03*
X-249286D02*
D03*
X-229536D02*
D03*
X-219464D02*
D03*
D48*
X-174000Y0D02*
D03*
X-184281Y10281D02*
D03*
X-319141Y-121859D02*
D03*
X-308859Y-132141D02*
D03*
X-141000Y295000D02*
D03*
X-151281Y305281D02*
D03*
D49*
X48219Y122719D02*
D03*
X58500Y133000D02*
D03*
X-84641Y-110141D02*
D03*
X-74359Y-99859D02*
D03*
D52*
X-29505Y-201500D02*
D03*
D53*
Y-220500D02*
D03*
X-7495Y-211000D02*
D03*
D55*
X-82300Y-172250D02*
D03*
X-87050Y-153250D02*
D03*
D56*
X-47700Y-172250D02*
D03*
X-52450Y-153250D02*
D03*
D58*
X194473Y-391000D02*
D03*
X222000D02*
D03*
X342014Y-390750D02*
D03*
X314486D02*
D03*
D59*
X154230Y41250D02*
D03*
X168770D02*
D03*
X-95770Y-192000D02*
D03*
X-81230D02*
D03*
X170500Y102750D02*
D03*
X155960D02*
D03*
X84980Y-275000D02*
D03*
X99520D02*
D03*
X66730Y-256000D02*
D03*
X81270D02*
D03*
D61*
X-340732Y-130268D02*
D03*
X-321268Y-149732D02*
D03*
D64*
X-4994Y-178500D02*
D03*
X-32506D02*
D03*
D66*
X-46046Y-133704D02*
D03*
X-32954Y-146796D02*
D03*
D67*
X17000Y-196742D02*
D03*
Y-215258D02*
D03*
D69*
X-326003Y-399003D02*
D03*
X-326000Y-379500D02*
D03*
D70*
X-336000Y-399000D02*
D03*
D71*
Y-379500D02*
D03*
D72*
X-218792Y-187855D02*
D03*
X-224803Y-181844D02*
D03*
X-230813Y-175834D02*
D03*
X-236823Y-169823D02*
D03*
X-242834Y-163813D02*
D03*
X-248844Y-157803D02*
D03*
X-254855Y-151792D02*
D03*
X-260865Y-145782D02*
D03*
X-266875Y-139771D02*
D03*
X-272886Y-133761D02*
D03*
X-278896Y-127751D02*
D03*
X-284907Y-121740D02*
D03*
X-290917Y-115730D02*
D03*
X-296928Y-109719D02*
D03*
X-302938Y-103709D02*
D03*
X-119797Y-88860D02*
D03*
X-125808Y-82849D02*
D03*
X-131818Y-76839D02*
D03*
X-137828Y-70828D02*
D03*
X-143839Y-64818D02*
D03*
X-149849Y-58808D02*
D03*
X-155860Y-52797D02*
D03*
X-161870Y-46787D02*
D03*
X-167880Y-40776D02*
D03*
X-173891Y-34766D02*
D03*
X-179901Y-28756D02*
D03*
X-185912Y-22745D02*
D03*
X-191922Y-16735D02*
D03*
X-197932Y-10724D02*
D03*
X-203943Y-4714D02*
D03*
D73*
X-211367Y-195279D02*
D03*
X-310362Y-96284D02*
D03*
X-112373D02*
D03*
X-211367Y2711D02*
D03*
D74*
X-203943Y-187855D02*
D03*
X-197932Y-181844D02*
D03*
X-191922Y-175834D02*
D03*
X-185912Y-169823D02*
D03*
X-179901Y-163813D02*
D03*
X-173891Y-157803D02*
D03*
X-167880Y-151792D02*
D03*
X-161870Y-145782D02*
D03*
X-155860Y-139771D02*
D03*
X-149849Y-133761D02*
D03*
X-143839Y-127751D02*
D03*
X-137828Y-121740D02*
D03*
X-131818Y-115730D02*
D03*
X-125808Y-109719D02*
D03*
X-119797Y-103709D02*
D03*
X-218792Y-4714D02*
D03*
X-224803Y-10724D02*
D03*
X-230813Y-16735D02*
D03*
X-236823Y-22745D02*
D03*
X-242834Y-28756D02*
D03*
X-248844Y-34766D02*
D03*
X-254855Y-40776D02*
D03*
X-260865Y-46787D02*
D03*
X-266875Y-52797D02*
D03*
X-272886Y-58808D02*
D03*
X-278896Y-64818D02*
D03*
X-284907Y-70828D02*
D03*
X-290917Y-76839D02*
D03*
X-296928Y-82849D02*
D03*
X-302938Y-88860D02*
D03*
D75*
X-211367Y-96284D02*
D03*
Y-119619D02*
D03*
X-223035Y-107951D02*
D03*
X-199700D02*
D03*
X-188033Y-96284D02*
D03*
X-199700Y-84617D02*
D03*
X-211367Y-72950D02*
D03*
X-223035Y-84617D02*
D03*
D76*
X102466Y-140498D02*
D03*
X130750Y-112213D02*
D03*
D77*
X28219Y-66251D02*
D03*
X56504Y-37967D02*
D03*
D78*
X314977Y-97477D02*
D03*
X324523Y-107023D02*
D03*
X-122227Y275227D02*
D03*
X-131773Y284773D02*
D03*
X-194227Y20227D02*
D03*
X-203773Y29773D02*
D03*
D79*
X278477Y-75523D02*
D03*
X288023Y-65977D02*
D03*
X297523Y-75727D02*
D03*
X287977Y-85273D02*
D03*
X-102227Y273523D02*
D03*
X-111773Y263977D02*
D03*
X-343023Y313727D02*
D03*
X-333477Y323273D02*
D03*
X-316000Y235500D02*
D03*
X-325546Y225954D02*
D03*
X34273Y-258977D02*
D03*
X24727Y-268523D02*
D03*
X78773Y111023D02*
D03*
X69227Y101477D02*
D03*
X-340046Y231454D02*
D03*
X-330500Y241000D02*
D03*
X60204Y110954D02*
D03*
X69750Y120500D02*
D03*
D80*
X218265Y-37235D02*
D03*
X228518Y-13547D02*
D03*
X241953Y-26982D02*
D03*
D81*
X96000Y-303250D02*
D03*
Y-316750D02*
D03*
X187750Y107750D02*
D03*
Y94250D02*
D03*
X201000Y119250D02*
D03*
Y105750D02*
D03*
X-265500Y43500D02*
D03*
Y57000D02*
D03*
X223750Y-355500D02*
D03*
Y-369000D02*
D03*
X279750Y258500D02*
D03*
Y272000D02*
D03*
X44000Y-227250D02*
D03*
Y-213750D02*
D03*
X279750Y35500D02*
D03*
Y49000D02*
D03*
X-286000Y-241000D02*
D03*
Y-254500D02*
D03*
X266500Y35500D02*
D03*
Y49000D02*
D03*
X-279500Y48750D02*
D03*
Y35250D02*
D03*
X266500Y258500D02*
D03*
Y272000D02*
D03*
X-327000Y-170250D02*
D03*
Y-183750D02*
D03*
X-302000Y-239250D02*
D03*
Y-252750D02*
D03*
D82*
X153750Y87500D02*
D03*
X172750D02*
D03*
Y60000D02*
D03*
X163250Y60000D02*
D03*
X153750Y60000D02*
D03*
D83*
X172250Y121250D02*
D03*
X158750D02*
D03*
X286500Y-135000D02*
D03*
X300000D02*
D03*
X326000Y42750D02*
D03*
X312500D02*
D03*
X-326000D02*
D03*
X-312500D02*
D03*
X289000Y-121250D02*
D03*
X275500D02*
D03*
X325500Y265250D02*
D03*
X312000D02*
D03*
X-288250Y-209250D02*
D03*
X-301750D02*
D03*
X-49250Y-192000D02*
D03*
X-62750D02*
D03*
X-296250Y-196500D02*
D03*
X-309750D02*
D03*
X-201250Y-309500D02*
D03*
X-187750D02*
D03*
X-269750D02*
D03*
X-283250D02*
D03*
D84*
X350000Y249000D02*
D03*
Y282000D02*
D03*
X-350000Y-197000D02*
D03*
Y-164000D02*
D03*
X350000Y-197000D02*
D03*
Y-164000D02*
D03*
Y26000D02*
D03*
Y59000D02*
D03*
X-350000Y249000D02*
D03*
Y282000D02*
D03*
Y26000D02*
D03*
Y59000D02*
D03*
D85*
X-104750Y-211000D02*
D03*
X20500Y336250D02*
D03*
X-269750Y-294750D02*
D03*
X-201250Y-294250D02*
D03*
X309000Y-339250D02*
D03*
X11500Y-250250D02*
D03*
X-323000Y-256000D02*
D03*
X-84250Y-211000D02*
D03*
X-154000Y-327250D02*
D03*
X318250Y-353500D02*
D03*
X59500Y91750D02*
D03*
X0Y-237250D02*
D03*
X38000Y-241000D02*
D03*
X-129250Y-243750D02*
D03*
X-271250Y-243250D02*
D03*
X-299250Y-328500D02*
D03*
X-314000Y-353500D02*
D03*
D86*
X323250Y-262750D02*
D03*
X331382Y-270882D02*
D03*
D87*
X66650Y-309694D02*
D03*
X-78650D02*
D03*
D88*
X-63500Y-286194D02*
D03*
X-58500Y-286194D02*
D03*
X-53500D02*
D03*
X-48500D02*
D03*
X-43500D02*
D03*
X-38500D02*
D03*
X-33500Y-286194D02*
D03*
X-28500Y-286194D02*
D03*
X-23500D02*
D03*
X-18500D02*
D03*
X-13500D02*
D03*
X-8500D02*
D03*
X-3500D02*
D03*
X1500Y-286194D02*
D03*
X6500Y-286194D02*
D03*
X11500D02*
D03*
X16500D02*
D03*
X21500Y-286194D02*
D03*
X26500D02*
D03*
X31500D02*
D03*
X36500D02*
D03*
X41500Y-286194D02*
D03*
X46500D02*
D03*
X51500D02*
D03*
D89*
X-72502Y329577D02*
D03*
X-81482Y338557D02*
D03*
X-90463Y347537D02*
D03*
X-99443Y356518D02*
D03*
X-111039Y291040D02*
D03*
X-120020Y300020D02*
D03*
X-129000Y309000D02*
D03*
X-137980Y317980D02*
D03*
D90*
X285205Y-295205D02*
D03*
X-285205Y275205D02*
D03*
D91*
X131500Y121000D02*
D03*
X143000Y121000D02*
D03*
D92*
X-46000Y-207250D02*
D03*
Y-221750D02*
D03*
D93*
X-311750Y-166750D02*
D03*
Y-178250D02*
D03*
D94*
X99632Y188882D02*
D03*
X91500Y180750D02*
D03*
X-40882Y196368D02*
D03*
X-32750Y204500D02*
D03*
D95*
X267000Y-376000D02*
D03*
D96*
X294250Y-395050D02*
D03*
Y-382350D02*
D03*
Y-369650D02*
D03*
Y-356950D02*
D03*
X239750Y-395050D02*
D03*
Y-382350D02*
D03*
Y-369650D02*
D03*
Y-356950D02*
D03*
D97*
X-103291Y-291839D02*
D03*
X-147839Y-247291D02*
D03*
X-130161Y-318709D02*
D03*
X-174709Y-274161D02*
D03*
X115709Y299911D02*
D03*
X71161Y344459D02*
D03*
X88839Y273041D02*
D03*
X44291Y317589D02*
D03*
D98*
X-268500Y-341500D02*
D03*
X-265500D02*
D03*
X-260500D02*
D03*
X-257500D02*
D03*
X-252500D02*
D03*
X-247500D02*
D03*
X-242500D02*
D03*
X-237500D02*
D03*
X-232500D02*
D03*
X-227500D02*
D03*
X-222500D02*
D03*
X-217500D02*
D03*
X-212500D02*
D03*
X-209500D02*
D03*
X-204500D02*
D03*
X-201500D02*
D03*
D99*
X-331000Y-389250D02*
D03*
D100*
X0Y360000D02*
D03*
X-380000Y-383000D02*
D03*
X380000D02*
D03*
D101*
X350000Y265500D02*
D03*
X-350000Y-180500D02*
D03*
X350000D02*
D03*
Y42500D02*
D03*
X-350000Y265500D02*
D03*
X197297Y-319550D02*
D03*
X251897Y-148745D02*
D03*
X-251897Y128745D02*
D03*
X-350000Y42500D02*
D03*
D102*
X44921Y216829D02*
D03*
X62882Y234790D02*
D03*
X42093Y249922D02*
D03*
X26960Y270711D02*
D03*
X24132Y231961D02*
D03*
X-8960Y306632D02*
D03*
X-26921Y288671D02*
D03*
X6172Y285843D02*
D03*
X9000Y252750D02*
D03*
X-11789Y267882D02*
D03*
D103*
X-192000Y-393500D02*
D03*
X-278000D02*
D03*
D104*
X-192000Y-349199D02*
D03*
X-278000D02*
D03*
D105*
X-263900Y-354200D02*
D03*
X-206100D02*
D03*
M02*
