G04*
G04 #@! TF.GenerationSoftware,Altium Limited,Altium Designer,22.2.1 (43)*
G04*
G04 Layer_Physical_Order=2*
G04 Layer_Color=16711680*
%FSLAX44Y44*%
%MOMM*%
G71*
G04*
G04 #@! TF.SameCoordinates,43BE9FCF-9398-434B-9B24-0F6D2AEF1124*
G04*
G04*
G04 #@! TF.FilePolarity,Positive*
G04*
G01*
G75*
%ADD10C,0.2000*%
%ADD12C,0.6000*%
%ADD16C,0.4000*%
%ADD136C,0.8000*%
%ADD140C,1.5000*%
%ADD141O,1.3000X2.1000*%
%ADD142O,1.1000X1.9000*%
%ADD143C,0.5000*%
%ADD144C,0.6000*%
%ADD145C,3.0000*%
%ADD146R,1.1000X0.9000*%
G36*
X185655Y372812D02*
X188721Y369221D01*
X192312Y366155D01*
X196338Y363687D01*
X200701Y361880D01*
X205292Y360778D01*
X210000Y360407D01*
X223944D01*
X225196Y360363D01*
X225196Y360363D01*
X226466Y360407D01*
X246233Y360395D01*
X251327Y360392D01*
X263559Y348539D01*
X265196Y347184D01*
X266812Y345804D01*
X267014Y345681D01*
X267197Y345529D01*
X269026Y344447D01*
X270838Y343337D01*
X271057Y343246D01*
X271262Y343126D01*
X273238Y342343D01*
X275201Y341530D01*
X275431Y341475D01*
X275652Y341387D01*
X277726Y340924D01*
X279792Y340428D01*
X280029Y340409D01*
X280261Y340357D01*
X282381Y340224D01*
X284500Y340057D01*
X346523D01*
X360407Y326173D01*
Y277933D01*
X359352Y277227D01*
X358263Y277678D01*
X355000Y278108D01*
X345000D01*
X341737Y277678D01*
X338696Y276419D01*
X336085Y274415D01*
X334081Y271804D01*
X332822Y268763D01*
X332392Y265500D01*
X332822Y262237D01*
X334081Y259196D01*
X336085Y256585D01*
X338696Y254581D01*
X341737Y253322D01*
X345000Y252892D01*
X355000D01*
X358263Y253322D01*
X359352Y253773D01*
X360407Y253067D01*
Y249465D01*
X342471Y231529D01*
X339404Y227938D01*
X339047Y227354D01*
X323221Y211529D01*
X320154Y207938D01*
X317687Y203912D01*
X315880Y199549D01*
X314778Y194957D01*
X314407Y190250D01*
X314407Y190250D01*
Y135751D01*
X314407Y135750D01*
X314778Y131043D01*
X315880Y126451D01*
X317687Y122088D01*
X320154Y118062D01*
X323221Y114471D01*
X341008Y96685D01*
X342471Y94971D01*
X360407Y77035D01*
Y54933D01*
X359352Y54227D01*
X358263Y54678D01*
X355000Y55108D01*
X345000D01*
X341737Y54678D01*
X338696Y53419D01*
X336085Y51415D01*
X334081Y48804D01*
X332822Y45763D01*
X332392Y42500D01*
X332822Y39237D01*
X334081Y36196D01*
X336085Y33585D01*
X338696Y31581D01*
X341737Y30322D01*
X345000Y29892D01*
X355000D01*
X358263Y30322D01*
X359352Y30773D01*
X360407Y30067D01*
X360407Y-168067D01*
X359351Y-168773D01*
X358263Y-168322D01*
X355000Y-167892D01*
X345000D01*
X341737Y-168322D01*
X338696Y-169581D01*
X336085Y-171585D01*
X334081Y-174196D01*
X332822Y-177237D01*
X332392Y-180500D01*
X332822Y-183763D01*
X334081Y-186804D01*
X336085Y-189415D01*
X338696Y-191419D01*
X341737Y-192678D01*
X345000Y-193108D01*
X355000D01*
X358263Y-192678D01*
X359351Y-192227D01*
X360407Y-192933D01*
Y-340750D01*
X360778Y-345457D01*
X361880Y-350049D01*
X363687Y-354412D01*
X366155Y-358438D01*
X369221Y-362029D01*
X372812Y-365095D01*
X376838Y-367563D01*
X381201Y-369370D01*
X385793Y-370472D01*
X390500Y-370843D01*
X395208Y-370472D01*
X399799Y-369370D01*
X401622Y-368615D01*
X402536Y-369497D01*
X400670Y-374498D01*
X397049Y-381130D01*
X392521Y-387179D01*
X387179Y-392521D01*
X381130Y-397049D01*
X374498Y-400670D01*
X367419Y-403311D01*
X360036Y-404917D01*
X352427Y-405461D01*
X304303D01*
X303817Y-404288D01*
X311552Y-396552D01*
X312105Y-395726D01*
X312299Y-394750D01*
Y-378108D01*
X312634Y-377884D01*
X313518Y-376561D01*
X313828Y-375000D01*
X313518Y-373439D01*
X312634Y-372116D01*
X311311Y-371232D01*
X309750Y-370922D01*
X308189Y-371232D01*
X306866Y-372116D01*
X305982Y-373439D01*
X305672Y-375000D01*
X305982Y-376561D01*
X306866Y-377884D01*
X307201Y-378108D01*
Y-393694D01*
X298944Y-401951D01*
X182806D01*
X181750Y-400895D01*
X181828Y-400500D01*
X181518Y-398939D01*
X180634Y-397616D01*
X179311Y-396732D01*
X177750Y-396422D01*
X176189Y-396732D01*
X174866Y-397616D01*
X173982Y-398939D01*
X173672Y-400500D01*
X173982Y-402061D01*
X174866Y-403384D01*
X175077Y-403524D01*
X175387Y-405251D01*
X175236Y-405461D01*
X107415D01*
X105976Y-405299D01*
X104719Y-404859D01*
X103592Y-404150D01*
X102650Y-403208D01*
X101941Y-402081D01*
X101501Y-400824D01*
X101339Y-399385D01*
Y-391000D01*
X101316Y-390887D01*
X101326Y-390772D01*
X101126Y-388992D01*
X101056Y-388773D01*
X101024Y-388546D01*
X100432Y-386855D01*
X100316Y-386658D01*
X100234Y-386444D01*
X99281Y-384927D01*
X99124Y-384761D01*
X98996Y-384570D01*
X97730Y-383303D01*
X97539Y-383176D01*
X97373Y-383019D01*
X95856Y-382066D01*
X95642Y-381984D01*
X95445Y-381868D01*
X93754Y-381276D01*
X93527Y-381244D01*
X93308Y-381174D01*
X91528Y-380974D01*
X91413Y-380983D01*
X91300Y-380961D01*
X-85800D01*
X-85913Y-380983D01*
X-86028Y-380974D01*
X-87809Y-381174D01*
X-88027Y-381244D01*
X-88254Y-381276D01*
X-89944Y-381868D01*
X-90142Y-381984D01*
X-90356Y-382066D01*
X-91873Y-383019D01*
X-92039Y-383176D01*
X-92230Y-383303D01*
X-93497Y-384570D01*
X-93624Y-384761D01*
X-93781Y-384927D01*
X-94734Y-386444D01*
X-94816Y-386658D01*
X-94932Y-386855D01*
X-95524Y-388546D01*
X-95556Y-388773D01*
X-95626Y-388992D01*
X-95826Y-390772D01*
X-95816Y-390887D01*
X-95839Y-391000D01*
Y-399385D01*
X-96001Y-400824D01*
X-96441Y-402081D01*
X-97149Y-403208D01*
X-98091Y-404150D01*
X-99219Y-404859D01*
X-100476Y-405299D01*
X-101915Y-405461D01*
X-186325D01*
X-186756Y-404191D01*
X-185937Y-403563D01*
X-184575Y-401787D01*
X-183718Y-399719D01*
X-183426Y-397500D01*
Y-395000D01*
X-200573D01*
Y-397500D01*
X-200281Y-399719D01*
X-199424Y-401787D01*
X-198062Y-403563D01*
X-197243Y-404191D01*
X-197674Y-405461D01*
X-272326D01*
X-272757Y-404191D01*
X-271938Y-403563D01*
X-270576Y-401787D01*
X-269719Y-399719D01*
X-269427Y-397500D01*
Y-395000D01*
X-286574D01*
Y-397500D01*
X-286282Y-399719D01*
X-285425Y-401787D01*
X-284063Y-403563D01*
X-283244Y-404191D01*
X-283675Y-405461D01*
X-299000D01*
X-299000Y-374784D01*
X-298750Y-374578D01*
X-297189Y-374268D01*
X-297110Y-374215D01*
X-296688Y-374299D01*
X-295084D01*
X-294343Y-375569D01*
X-294578Y-376750D01*
X-294268Y-378311D01*
X-293384Y-379634D01*
X-292061Y-380518D01*
X-291635Y-380603D01*
Y-381897D01*
X-292061Y-381982D01*
X-293384Y-382866D01*
X-294268Y-384189D01*
X-294578Y-385750D01*
X-294268Y-387311D01*
X-293384Y-388634D01*
X-292061Y-389518D01*
X-290500Y-389828D01*
X-288939Y-389518D01*
X-287753Y-388725D01*
X-287220Y-388891D01*
X-286551Y-389325D01*
X-286574Y-389500D01*
Y-392000D01*
X-269427D01*
Y-389500D01*
X-269719Y-387281D01*
X-270576Y-385214D01*
X-271454Y-384069D01*
X-270828Y-382799D01*
X-199172D01*
X-198546Y-384069D01*
X-199424Y-385214D01*
X-200281Y-387281D01*
X-200573Y-389500D01*
Y-392000D01*
X-183426D01*
Y-389500D01*
X-183718Y-387281D01*
X-184575Y-385214D01*
X-185453Y-384069D01*
X-184827Y-382799D01*
X-164000D01*
X-163025Y-382605D01*
X-162198Y-382052D01*
X-141573Y-361427D01*
X-141020Y-360600D01*
X-140826Y-359625D01*
Y-334441D01*
X-140366Y-334134D01*
X-139482Y-332811D01*
X-139172Y-331250D01*
X-139482Y-329689D01*
X-140366Y-328366D01*
X-141689Y-327482D01*
X-143250Y-327172D01*
X-144811Y-327482D01*
X-146134Y-328366D01*
X-147018Y-329689D01*
X-147328Y-331250D01*
X-147018Y-332811D01*
X-146134Y-334134D01*
X-145924Y-334274D01*
Y-358569D01*
X-165056Y-377701D01*
X-174937D01*
X-175423Y-376528D01*
X-166145Y-367250D01*
X-165750Y-367328D01*
X-164189Y-367018D01*
X-162866Y-366134D01*
X-161982Y-364811D01*
X-161672Y-363250D01*
X-161982Y-361689D01*
X-162866Y-360366D01*
X-164189Y-359482D01*
X-164725Y-359376D01*
X-165143Y-357998D01*
X-158395Y-351250D01*
X-158000Y-351328D01*
X-156439Y-351018D01*
X-155116Y-350134D01*
X-154232Y-348811D01*
X-153922Y-347250D01*
X-154232Y-345689D01*
X-155116Y-344366D01*
X-156439Y-343482D01*
X-158000Y-343172D01*
X-158745Y-343320D01*
X-159828Y-342250D01*
X-160138Y-340689D01*
X-161022Y-339366D01*
X-162345Y-338482D01*
X-163906Y-338172D01*
X-164762Y-337047D01*
X-164982Y-335939D01*
X-165866Y-334616D01*
X-167189Y-333732D01*
X-168750Y-333422D01*
X-170311Y-333732D01*
X-171634Y-334616D01*
X-172518Y-335939D01*
X-172828Y-337500D01*
X-172750Y-337895D01*
X-180277Y-345423D01*
X-181451Y-344936D01*
Y-338250D01*
X-181645Y-337275D01*
X-182197Y-336448D01*
X-197000Y-321645D01*
X-196922Y-321250D01*
X-197232Y-319689D01*
X-198116Y-318366D01*
X-199439Y-317482D01*
X-201000Y-317172D01*
X-202561Y-317482D01*
X-203884Y-318366D01*
X-204768Y-319689D01*
X-205078Y-321250D01*
X-204768Y-322811D01*
X-203884Y-324134D01*
X-202561Y-325018D01*
X-201000Y-325328D01*
X-200605Y-325250D01*
X-188839Y-337016D01*
X-189558Y-338093D01*
X-190042Y-337892D01*
X-190500Y-337832D01*
Y-349199D01*
X-192000D01*
Y-350700D01*
X-199564D01*
Y-351520D01*
X-199754Y-351594D01*
X-200834Y-351731D01*
X-201955Y-350054D01*
X-203857Y-348783D01*
X-206100Y-348337D01*
X-207129Y-348542D01*
X-207892Y-347399D01*
X-207703Y-347116D01*
X-207431Y-345750D01*
Y-331449D01*
X-207232Y-331150D01*
X-206922Y-329590D01*
X-207232Y-328029D01*
X-208116Y-326706D01*
X-209439Y-325822D01*
X-211000Y-325511D01*
X-212561Y-325822D01*
X-213884Y-326706D01*
X-214768Y-328029D01*
X-215078Y-329590D01*
X-214768Y-331150D01*
X-214569Y-331449D01*
Y-344272D01*
X-224728Y-354431D01*
X-245272D01*
X-255431Y-344272D01*
Y-331359D01*
X-255232Y-331061D01*
X-254922Y-329500D01*
X-255232Y-327939D01*
X-256116Y-326616D01*
X-257439Y-325732D01*
X-259000Y-325422D01*
X-260561Y-325732D01*
X-261884Y-326616D01*
X-262768Y-327939D01*
X-263078Y-329500D01*
X-262768Y-331061D01*
X-262569Y-331359D01*
Y-345750D01*
X-262297Y-347116D01*
X-262108Y-347399D01*
X-262871Y-348542D01*
X-263900Y-348337D01*
X-266143Y-348783D01*
X-268045Y-350054D01*
X-269166Y-351731D01*
X-270246Y-351594D01*
X-270436Y-351520D01*
Y-350700D01*
X-285565D01*
Y-353200D01*
X-285307Y-355157D01*
X-284552Y-356982D01*
X-284207Y-357431D01*
X-284833Y-358701D01*
X-286701D01*
X-293201Y-352201D01*
Y-342358D01*
X-292866Y-342134D01*
X-291982Y-340811D01*
X-291672Y-339250D01*
X-291982Y-337689D01*
X-292866Y-336366D01*
X-294189Y-335482D01*
X-295750Y-335172D01*
X-297311Y-335482D01*
X-298634Y-336366D01*
X-299518Y-337689D01*
X-299828Y-339250D01*
X-299518Y-340811D01*
X-298634Y-342134D01*
X-298299Y-342358D01*
Y-352066D01*
X-299250Y-353172D01*
X-300811Y-353482D01*
X-302134Y-354366D01*
X-303018Y-355689D01*
X-303328Y-357250D01*
X-303018Y-358811D01*
X-302134Y-360134D01*
X-302128Y-360138D01*
X-301634Y-360866D01*
X-302518Y-362189D01*
X-302828Y-363750D01*
X-302518Y-365311D01*
X-301886Y-366257D01*
X-301872Y-366332D01*
X-302132Y-366595D01*
X-303402Y-366599D01*
X-304000Y-366000D01*
X-349466Y-366000D01*
X-355000Y-371534D01*
Y-404345D01*
X-355929Y-405210D01*
X-360036Y-404917D01*
X-367419Y-403311D01*
X-374498Y-400670D01*
X-381130Y-397049D01*
X-387179Y-392521D01*
X-392521Y-387178D01*
X-397049Y-381130D01*
X-400670Y-374498D01*
X-402536Y-369497D01*
X-401622Y-368615D01*
X-399799Y-369370D01*
X-395208Y-370472D01*
X-390500Y-370843D01*
X-385793Y-370472D01*
X-381201Y-369370D01*
X-376838Y-367563D01*
X-372812Y-365095D01*
X-369221Y-362029D01*
X-366155Y-358438D01*
X-363687Y-354412D01*
X-361880Y-350049D01*
X-360778Y-345457D01*
X-360407Y-340750D01*
Y-299202D01*
X-269529D01*
X-268979Y-299496D01*
X-265681Y-300497D01*
X-262250Y-300835D01*
X-258819Y-300497D01*
X-255521Y-299496D01*
X-252481Y-297871D01*
X-249816Y-295684D01*
X-247629Y-293020D01*
X-246004Y-289979D01*
X-245003Y-286681D01*
X-244665Y-283250D01*
X-245003Y-279819D01*
X-246004Y-276521D01*
X-247629Y-273480D01*
X-249816Y-270816D01*
X-252481Y-268629D01*
X-255521Y-267004D01*
X-258819Y-266003D01*
X-262250Y-265665D01*
X-265681Y-266003D01*
X-268979Y-267004D01*
X-269061Y-267048D01*
X-360407D01*
Y-192933D01*
X-359351Y-192227D01*
X-358263Y-192678D01*
X-355000Y-193108D01*
X-345000D01*
X-341737Y-192678D01*
X-338696Y-191419D01*
X-336085Y-189415D01*
X-334081Y-186804D01*
X-332822Y-183763D01*
X-332392Y-180500D01*
X-332822Y-177237D01*
X-334081Y-174196D01*
X-336085Y-171585D01*
X-338696Y-169581D01*
X-341737Y-168322D01*
X-345000Y-167892D01*
X-355000D01*
X-358263Y-168322D01*
X-359351Y-168773D01*
X-360407Y-168067D01*
Y30067D01*
X-359351Y30773D01*
X-358263Y30322D01*
X-355000Y29892D01*
X-345000D01*
X-341737Y30322D01*
X-338696Y31581D01*
X-336085Y33585D01*
X-334081Y36196D01*
X-332822Y39237D01*
X-332392Y42500D01*
X-332822Y45763D01*
X-334081Y48804D01*
X-336085Y51415D01*
X-338696Y53419D01*
X-341737Y54678D01*
X-345000Y55108D01*
X-355000D01*
X-358263Y54678D01*
X-359351Y54227D01*
X-360407Y54933D01*
Y70285D01*
X-340971Y89721D01*
X-321221Y109471D01*
X-321221Y109471D01*
X-318155Y113062D01*
X-315687Y117088D01*
X-313880Y121451D01*
X-312778Y126043D01*
X-312407Y130750D01*
Y185250D01*
X-312778Y189957D01*
X-313880Y194549D01*
X-315687Y198912D01*
X-318155Y202938D01*
X-321221Y206529D01*
X-321221Y206529D01*
X-340971Y226279D01*
X-360407Y245715D01*
Y253067D01*
X-359351Y253773D01*
X-358263Y253322D01*
X-355000Y252892D01*
X-345000D01*
X-341737Y253322D01*
X-338696Y254581D01*
X-336085Y256585D01*
X-334081Y259196D01*
X-332822Y262237D01*
X-332392Y265500D01*
X-332822Y268763D01*
X-334081Y271804D01*
X-336085Y274415D01*
X-338696Y276419D01*
X-341737Y277678D01*
X-345000Y278108D01*
X-355000D01*
X-358263Y277678D01*
X-359351Y277227D01*
X-360407Y277933D01*
X-360407Y324436D01*
X-344785Y340058D01*
X-282850D01*
X-282849Y340058D01*
X-278142Y340429D01*
X-273550Y341531D01*
X-269188Y343338D01*
X-265161Y345805D01*
X-261570Y348872D01*
X-250035Y360407D01*
X-210000D01*
X-205292Y360778D01*
X-200701Y361880D01*
X-196338Y363687D01*
X-192312Y366155D01*
X-188721Y369221D01*
X-185655Y372812D01*
X-184007Y375500D01*
X184007D01*
X185655Y372812D01*
D02*
G37*
%LPC*%
G36*
X0Y368331D02*
X-2156Y368047D01*
X-4166Y367215D01*
X-5891Y365891D01*
X-7215Y364166D01*
X-8047Y362156D01*
X-8331Y360000D01*
X-8047Y357844D01*
X-7215Y355834D01*
X-5891Y354109D01*
X-4166Y352785D01*
X-2156Y351953D01*
X0Y351669D01*
X2156Y351953D01*
X4166Y352785D01*
X5891Y354109D01*
X7215Y355834D01*
X8047Y357844D01*
X8331Y360000D01*
X8047Y362156D01*
X7215Y364166D01*
X5891Y365891D01*
X4166Y367215D01*
X2156Y368047D01*
X0Y368331D01*
D02*
G37*
G36*
X-238250Y343828D02*
X-239811Y343518D01*
X-241134Y342634D01*
X-242018Y341311D01*
X-242328Y339750D01*
X-242018Y338189D01*
X-241134Y336866D01*
X-239811Y335982D01*
X-238250Y335672D01*
X-236689Y335982D01*
X-235366Y336866D01*
X-234482Y338189D01*
X-234172Y339750D01*
X-234482Y341311D01*
X-235366Y342634D01*
X-236689Y343518D01*
X-238250Y343828D01*
D02*
G37*
G36*
X-334750Y322828D02*
X-336311Y322518D01*
X-337634Y321634D01*
X-338518Y320311D01*
X-338828Y318750D01*
X-338518Y317189D01*
X-337634Y315866D01*
X-336311Y314982D01*
X-334750Y314672D01*
X-333189Y314982D01*
X-331866Y315866D01*
X-330982Y317189D01*
X-330672Y318750D01*
X-330982Y320311D01*
X-331866Y321634D01*
X-333189Y322518D01*
X-334750Y322828D01*
D02*
G37*
G36*
X-8960Y315709D02*
X-11310Y315400D01*
X-13499Y314493D01*
X-15379Y313050D01*
X-16822Y311170D01*
X-17729Y308981D01*
X-18038Y306632D01*
X-17729Y304282D01*
X-16822Y302093D01*
X-15379Y300213D01*
X-13499Y298770D01*
X-11310Y297863D01*
X-8960Y297554D01*
X-6611Y297863D01*
X-4422Y298770D01*
X-2542Y300213D01*
X-1099Y302093D01*
X-192Y304282D01*
X117Y306632D01*
X-192Y308981D01*
X-1099Y311170D01*
X-2542Y313050D01*
X-4422Y314493D01*
X-6611Y315400D01*
X-8960Y315709D01*
D02*
G37*
G36*
X-26921Y297749D02*
X-29271Y297439D01*
X-31460Y296532D01*
X-33340Y295090D01*
X-34783Y293210D01*
X-35689Y291021D01*
X-35999Y288671D01*
X-35689Y286322D01*
X-34783Y284132D01*
X-33340Y282252D01*
X-31460Y280810D01*
X-29271Y279903D01*
X-26921Y279593D01*
X-24571Y279903D01*
X-22382Y280810D01*
X-20502Y282252D01*
X-19060Y284132D01*
X-18153Y286322D01*
X-17843Y288671D01*
X-18153Y291021D01*
X-19060Y293210D01*
X-20502Y295090D01*
X-22382Y296532D01*
X-24571Y297439D01*
X-26921Y297749D01*
D02*
G37*
G36*
X338750Y291000D02*
X324750D01*
Y279000D01*
X338750D01*
Y291000D01*
D02*
G37*
G36*
X293000Y300328D02*
X291439Y300018D01*
X290116Y299134D01*
X289232Y297811D01*
X288922Y296250D01*
X289232Y294689D01*
X290116Y293366D01*
X290451Y293142D01*
Y291000D01*
X286250D01*
Y279000D01*
X300250D01*
Y291000D01*
X295549D01*
Y293142D01*
X295884Y293366D01*
X296768Y294689D01*
X297078Y296250D01*
X296768Y297811D01*
X295884Y299134D01*
X294561Y300018D01*
X293000Y300328D01*
D02*
G37*
G36*
X-324750Y291000D02*
X-338750D01*
Y279000D01*
X-324750D01*
Y291000D01*
D02*
G37*
G36*
X6172Y294920D02*
X3822Y294611D01*
X1633Y293704D01*
X-247Y292262D01*
X-1690Y290381D01*
X-2597Y288192D01*
X-2906Y285843D01*
X-2597Y283493D01*
X-1690Y281304D01*
X-247Y279424D01*
X1633Y277981D01*
X3822Y277074D01*
X6172Y276765D01*
X8521Y277074D01*
X10710Y277981D01*
X12590Y279424D01*
X14033Y281304D01*
X14940Y283493D01*
X15249Y285843D01*
X14940Y288192D01*
X14033Y290381D01*
X12590Y292262D01*
X10710Y293704D01*
X8521Y294611D01*
X6172Y294920D01*
D02*
G37*
G36*
X26960Y279788D02*
X24611Y279479D01*
X22422Y278572D01*
X20542Y277129D01*
X19099Y275249D01*
X18192Y273060D01*
X17883Y270711D01*
X18192Y268361D01*
X19099Y266172D01*
X20542Y264292D01*
X22422Y262849D01*
X24611Y261942D01*
X26960Y261633D01*
X29310Y261942D01*
X31499Y262849D01*
X33379Y264292D01*
X34822Y266172D01*
X35729Y268361D01*
X36038Y270711D01*
X35729Y273060D01*
X34822Y275249D01*
X33379Y277129D01*
X31499Y278572D01*
X29310Y279479D01*
X26960Y279788D01*
D02*
G37*
G36*
X234750Y281828D02*
X233189Y281518D01*
X231866Y280634D01*
X230982Y279311D01*
X230672Y277750D01*
X230982Y276189D01*
X231866Y274866D01*
X232201Y274642D01*
Y266108D01*
X231866Y265884D01*
X230982Y264561D01*
X230672Y263000D01*
X230982Y261439D01*
X231866Y260116D01*
X233189Y259232D01*
X234750Y258922D01*
X236311Y259232D01*
X237634Y260116D01*
X238518Y261439D01*
X238828Y263000D01*
X238518Y264561D01*
X237634Y265884D01*
X237299Y266108D01*
Y274642D01*
X237634Y274866D01*
X238518Y276189D01*
X238828Y277750D01*
X238518Y279311D01*
X237634Y280634D01*
X236311Y281518D01*
X234750Y281828D01*
D02*
G37*
G36*
X-11789Y276960D02*
X-14138Y276650D01*
X-16328Y275744D01*
X-18208Y274301D01*
X-19650Y272421D01*
X-20557Y270231D01*
X-20867Y267882D01*
X-20557Y265533D01*
X-19650Y263343D01*
X-18208Y261463D01*
X-16328Y260021D01*
X-14138Y259114D01*
X-11789Y258804D01*
X-9439Y259114D01*
X-7250Y260021D01*
X-5370Y261463D01*
X-3927Y263343D01*
X-3021Y265533D01*
X-2711Y267882D01*
X-3021Y270231D01*
X-3927Y272421D01*
X-5370Y274301D01*
X-7250Y275744D01*
X-9439Y276650D01*
X-11789Y276960D01*
D02*
G37*
G36*
X42093Y259503D02*
X39613Y259177D01*
X37302Y258220D01*
X36517Y257618D01*
X42093Y252043D01*
X47668Y257618D01*
X46884Y258220D01*
X44573Y259177D01*
X42093Y259503D01*
D02*
G37*
G36*
X300250Y252000D02*
X286250D01*
Y247299D01*
X282608D01*
X282384Y247634D01*
X281061Y248518D01*
X279500Y248828D01*
X277939Y248518D01*
X276616Y247634D01*
X275732Y246311D01*
X275422Y244750D01*
X275732Y243189D01*
X276616Y241866D01*
X277939Y240982D01*
X279500Y240672D01*
X281061Y240982D01*
X282384Y241866D01*
X282608Y242201D01*
X286250D01*
Y240000D01*
X300250D01*
Y252000D01*
D02*
G37*
G36*
X34396Y255497D02*
X33794Y254713D01*
X32837Y252402D01*
X32511Y249922D01*
X32837Y247442D01*
X33794Y245131D01*
X34396Y244347D01*
X39971Y249922D01*
X34396Y255497D01*
D02*
G37*
G36*
X49789Y255497D02*
X44214Y249922D01*
X49789Y244346D01*
X50391Y245131D01*
X51348Y247442D01*
X51674Y249922D01*
X51348Y252402D01*
X50391Y254713D01*
X49789Y255497D01*
D02*
G37*
G36*
X9000Y261828D02*
X6651Y261518D01*
X4461Y260611D01*
X2581Y259169D01*
X1139Y257289D01*
X232Y255099D01*
X-78Y252750D01*
X232Y250401D01*
X1056Y248411D01*
X-8556Y238799D01*
X-22392D01*
X-22616Y239134D01*
X-23939Y240018D01*
X-25500Y240328D01*
X-27061Y240018D01*
X-28384Y239134D01*
X-29268Y237811D01*
X-29578Y236250D01*
X-29268Y234689D01*
X-28384Y233366D01*
X-27061Y232482D01*
X-25500Y232172D01*
X-23939Y232482D01*
X-22616Y233366D01*
X-22392Y233701D01*
X-7500D01*
X-6525Y233895D01*
X-5698Y234448D01*
X4661Y244806D01*
X6651Y243982D01*
X9000Y243672D01*
X11350Y243982D01*
X13539Y244888D01*
X15419Y246331D01*
X16861Y248211D01*
X17768Y250401D01*
X18078Y252750D01*
X17768Y255099D01*
X16861Y257289D01*
X15419Y259169D01*
X13539Y260611D01*
X11350Y261518D01*
X9000Y261828D01*
D02*
G37*
G36*
X-339000Y301578D02*
X-340561Y301268D01*
X-341884Y300384D01*
X-342768Y299061D01*
X-343078Y297500D01*
X-342768Y295939D01*
X-341884Y294616D01*
X-340561Y293732D01*
X-339000Y293422D01*
X-337439Y293732D01*
X-336116Y294616D01*
X-335892Y294951D01*
X-286056D01*
X-255549Y264444D01*
Y250922D01*
X-255355Y249946D01*
X-254802Y249119D01*
X-252388Y246705D01*
X-252578Y245750D01*
X-252268Y244189D01*
X-251384Y242866D01*
X-250061Y241982D01*
X-248500Y241672D01*
X-246939Y241982D01*
X-245616Y242866D01*
X-244732Y244189D01*
X-244422Y245750D01*
X-244732Y247311D01*
X-245616Y248634D01*
X-246939Y249518D01*
X-248253Y249779D01*
X-250451Y251977D01*
Y265500D01*
X-250645Y266476D01*
X-251198Y267302D01*
X-283198Y299302D01*
X-284025Y299855D01*
X-285000Y300049D01*
X-335892D01*
X-336116Y300384D01*
X-337439Y301268D01*
X-339000Y301578D01*
D02*
G37*
G36*
X42093Y247800D02*
X36518Y242225D01*
X37302Y241623D01*
X39613Y240666D01*
X42093Y240340D01*
X44573Y240666D01*
X46884Y241623D01*
X47668Y242225D01*
X42093Y247800D01*
D02*
G37*
G36*
X338750Y252000D02*
X324750D01*
Y240000D01*
X338750D01*
Y252000D01*
D02*
G37*
G36*
X-324750D02*
X-338750D01*
Y240000D01*
X-324750D01*
Y252000D01*
D02*
G37*
G36*
X-286250Y291000D02*
X-300250D01*
Y279000D01*
X-286250D01*
Y283201D01*
X-284806D01*
X-268299Y266694D01*
Y236858D01*
X-268634Y236634D01*
X-269518Y235311D01*
X-269828Y233750D01*
X-269518Y232189D01*
X-268634Y230866D01*
X-267311Y229982D01*
X-265750Y229672D01*
X-264189Y229982D01*
X-262866Y230866D01*
X-261982Y232189D01*
X-261672Y233750D01*
X-261982Y235311D01*
X-262866Y236634D01*
X-263201Y236858D01*
Y267750D01*
X-263395Y268725D01*
X-263948Y269552D01*
X-281948Y287552D01*
X-282775Y288105D01*
X-283750Y288299D01*
X-286250D01*
Y291000D01*
D02*
G37*
G36*
X62882Y243867D02*
X60532Y243558D01*
X58343Y242651D01*
X56463Y241208D01*
X55020Y239328D01*
X54113Y237139D01*
X53804Y234790D01*
X54113Y232440D01*
X55020Y230251D01*
X56463Y228371D01*
X58343Y226928D01*
X60532Y226021D01*
X62882Y225712D01*
X65231Y226021D01*
X67420Y226928D01*
X69300Y228371D01*
X70743Y230251D01*
X71650Y232440D01*
X71959Y234790D01*
X71650Y237139D01*
X70743Y239328D01*
X69300Y241208D01*
X67420Y242651D01*
X65231Y243558D01*
X62882Y243867D01*
D02*
G37*
G36*
X24132Y241039D02*
X21783Y240729D01*
X19593Y239823D01*
X17713Y238380D01*
X16271Y236500D01*
X15364Y234311D01*
X15055Y231961D01*
X15364Y229612D01*
X16271Y227422D01*
X17713Y225542D01*
X19593Y224100D01*
X21783Y223193D01*
X24132Y222883D01*
X26482Y223193D01*
X28671Y224100D01*
X30551Y225542D01*
X31994Y227422D01*
X32900Y229612D01*
X33210Y231961D01*
X32900Y234311D01*
X31994Y236500D01*
X30551Y238380D01*
X28671Y239823D01*
X26482Y240729D01*
X24132Y241039D01*
D02*
G37*
G36*
X-286250Y252000D02*
X-300250D01*
Y240000D01*
X-291355D01*
X-290221Y238866D01*
Y236422D01*
X-290026Y235446D01*
X-289474Y234619D01*
X-275302Y220448D01*
X-274475Y219895D01*
X-273500Y219701D01*
X-260358D01*
X-260134Y219366D01*
X-258811Y218482D01*
X-257250Y218172D01*
X-255689Y218482D01*
X-254366Y219366D01*
X-253482Y220689D01*
X-253172Y222250D01*
X-253482Y223811D01*
X-254366Y225134D01*
X-255689Y226018D01*
X-257250Y226328D01*
X-258811Y226018D01*
X-260134Y225134D01*
X-260358Y224799D01*
X-272444D01*
X-285123Y237477D01*
Y239922D01*
X-285317Y240897D01*
X-285869Y241724D01*
X-286250Y242105D01*
Y252000D01*
D02*
G37*
G36*
X44921Y225907D02*
X42572Y225597D01*
X40382Y224690D01*
X38502Y223248D01*
X37060Y221368D01*
X36153Y219179D01*
X35843Y216829D01*
X36153Y214480D01*
X37060Y212290D01*
X38502Y210410D01*
X40382Y208968D01*
X42572Y208061D01*
X44921Y207751D01*
X47270Y208061D01*
X49460Y208968D01*
X51340Y210410D01*
X52783Y212290D01*
X53689Y214480D01*
X53999Y216829D01*
X53689Y219179D01*
X52783Y221368D01*
X51340Y223248D01*
X49460Y224690D01*
X47270Y225597D01*
X44921Y225907D01*
D02*
G37*
G36*
X-230250Y187078D02*
X-231811Y186768D01*
X-233134Y185884D01*
X-234018Y184561D01*
X-234328Y183000D01*
X-234018Y181439D01*
X-233134Y180116D01*
X-231811Y179232D01*
X-230250Y178922D01*
X-228689Y179232D01*
X-227366Y180116D01*
X-226482Y181439D01*
X-226172Y183000D01*
X-226482Y184561D01*
X-227366Y185884D01*
X-228689Y186768D01*
X-230250Y187078D01*
D02*
G37*
G36*
X183250Y161078D02*
X181689Y160768D01*
X180366Y159884D01*
X180142Y159549D01*
X170000D01*
X169025Y159355D01*
X168198Y158802D01*
X163944Y154549D01*
X154608D01*
X154384Y154884D01*
X153061Y155768D01*
X151500Y156078D01*
X149939Y155768D01*
X148616Y154884D01*
X147732Y153561D01*
X147422Y152000D01*
X147732Y150439D01*
X148616Y149116D01*
X149939Y148232D01*
X151500Y147922D01*
X153061Y148232D01*
X154384Y149116D01*
X154608Y149451D01*
X165000D01*
X165975Y149645D01*
X166802Y150198D01*
X171056Y154451D01*
X180142D01*
X180366Y154116D01*
X181689Y153232D01*
X183250Y152922D01*
X184811Y153232D01*
X186134Y154116D01*
X187018Y155439D01*
X187328Y157000D01*
X187018Y158561D01*
X186134Y159884D01*
X184811Y160768D01*
X183250Y161078D01*
D02*
G37*
G36*
X-251897Y148842D02*
X-255817Y148455D01*
X-259587Y147312D01*
X-263062Y145455D01*
X-266107Y142955D01*
X-268606Y139910D01*
X-270464Y136435D01*
X-271607Y132666D01*
X-271993Y128745D01*
X-271607Y124824D01*
X-270464Y121054D01*
X-268606Y117580D01*
X-266107Y114534D01*
X-263062Y112035D01*
X-259587Y110178D01*
X-255817Y109034D01*
X-251897Y108648D01*
X-247976Y109034D01*
X-244206Y110178D01*
X-240732Y112035D01*
X-237686Y114534D01*
X-235187Y117580D01*
X-233330Y121054D01*
X-232186Y124824D01*
X-231800Y128745D01*
X-232186Y132666D01*
X-233330Y136435D01*
X-235187Y139910D01*
X-237686Y142955D01*
X-240732Y145455D01*
X-244206Y147312D01*
X-247976Y148455D01*
X-251897Y148842D01*
D02*
G37*
G36*
X-166250Y108828D02*
X-167811Y108518D01*
X-169134Y107634D01*
X-169358Y107299D01*
X-178642D01*
X-178866Y107634D01*
X-180189Y108518D01*
X-181750Y108828D01*
X-183311Y108518D01*
X-184634Y107634D01*
X-185518Y106311D01*
X-185828Y104750D01*
X-185518Y103189D01*
X-185001Y102416D01*
X-184739Y101500D01*
X-185001Y100584D01*
X-185518Y99811D01*
X-185828Y98250D01*
X-185518Y96689D01*
X-184634Y95366D01*
Y94634D01*
X-185518Y93311D01*
X-185828Y91750D01*
X-185518Y90189D01*
X-184634Y88866D01*
X-183311Y87982D01*
X-181750Y87672D01*
X-180189Y87982D01*
X-178866Y88866D01*
X-178642Y89201D01*
X-169358D01*
X-169134Y88866D01*
X-167811Y87982D01*
X-166250Y87672D01*
X-164689Y87982D01*
X-163366Y88866D01*
X-162482Y90189D01*
X-162172Y91750D01*
X-162482Y93311D01*
X-163366Y94634D01*
Y95366D01*
X-162482Y96689D01*
X-162172Y98250D01*
X-162482Y99811D01*
X-163366Y101134D01*
Y101866D01*
X-162482Y103189D01*
X-162172Y104750D01*
X-162482Y106311D01*
X-163366Y107634D01*
X-164689Y108518D01*
X-166250Y108828D01*
D02*
G37*
G36*
X113750Y156328D02*
X112189Y156018D01*
X110866Y155134D01*
X109982Y153811D01*
X109672Y152250D01*
X109982Y150689D01*
X110181Y150391D01*
Y108067D01*
X109982Y107769D01*
X109672Y106208D01*
X109982Y104647D01*
X110866Y103324D01*
X112189Y102440D01*
X113750Y102130D01*
X115311Y102440D01*
X116634Y103324D01*
X117518Y104647D01*
X117828Y106208D01*
X117518Y107769D01*
X117319Y108067D01*
Y150391D01*
X117518Y150689D01*
X117828Y152250D01*
X117518Y153811D01*
X116634Y155134D01*
X115311Y156018D01*
X113750Y156328D01*
D02*
G37*
G36*
X-39250Y100828D02*
X-40811Y100518D01*
X-41757Y99886D01*
X-42625Y99725D01*
X-43493Y99886D01*
X-44439Y100518D01*
X-46000Y100828D01*
X-47561Y100518D01*
X-48884Y99634D01*
X-49616D01*
X-50939Y100518D01*
X-52500Y100828D01*
X-54061Y100518D01*
X-55384Y99634D01*
X-55611Y99293D01*
X-57139D01*
X-57366Y99634D01*
X-58689Y100518D01*
X-60250Y100828D01*
X-61811Y100518D01*
X-63134Y99634D01*
X-63528Y99043D01*
X-65056D01*
X-65116Y99134D01*
X-66439Y100018D01*
X-68000Y100328D01*
X-69561Y100018D01*
X-70884Y99134D01*
X-70989Y98976D01*
X-72259D01*
X-72365Y99134D01*
X-73688Y100018D01*
X-75249Y100328D01*
X-76810Y100018D01*
X-78133Y99134D01*
X-79017Y97811D01*
X-79327Y96250D01*
X-79017Y94689D01*
X-78133Y93366D01*
X-77798Y93142D01*
Y61857D01*
X-78133Y61633D01*
X-79017Y60310D01*
X-79327Y58749D01*
X-79017Y57188D01*
X-78133Y55865D01*
X-76810Y54981D01*
X-75249Y54671D01*
X-73688Y54981D01*
X-72685Y55652D01*
X-71134Y55616D01*
X-69811Y54732D01*
X-68250Y54422D01*
X-66689Y54732D01*
X-65366Y55616D01*
X-65260Y55775D01*
X-63990D01*
X-63884Y55616D01*
X-62561Y54732D01*
X-61000Y54422D01*
X-59439Y54732D01*
X-58116Y55616D01*
X-57384D01*
X-56061Y54732D01*
X-54500Y54422D01*
X-52939Y54732D01*
X-51616Y55616D01*
X-51055Y56456D01*
X-49667Y56571D01*
X-49586Y56543D01*
X-49134Y55866D01*
X-47811Y54982D01*
X-46250Y54672D01*
X-44689Y54982D01*
X-43455Y55807D01*
X-42701Y56116D01*
X-42134D01*
X-40811Y55232D01*
X-39250Y54922D01*
X-37689Y55232D01*
X-36366Y56116D01*
X-35482Y57439D01*
X-35172Y59000D01*
X-35482Y60561D01*
X-36366Y61884D01*
X-36701Y62108D01*
Y93642D01*
X-36366Y93866D01*
X-35482Y95189D01*
X-35172Y96750D01*
X-35482Y98311D01*
X-36366Y99634D01*
X-37689Y100518D01*
X-39250Y100828D01*
D02*
G37*
G36*
X-215750Y117328D02*
X-217311Y117018D01*
X-218634Y116134D01*
X-219518Y114811D01*
X-219828Y113250D01*
X-219518Y111689D01*
X-218634Y110366D01*
X-218299Y110142D01*
Y90070D01*
X-218105Y89094D01*
X-217552Y88267D01*
X-202998Y73713D01*
X-203484Y72539D01*
X-209466D01*
X-209690Y72874D01*
X-211013Y73758D01*
X-212574Y74069D01*
X-214134Y73758D01*
X-215457Y72874D01*
X-216341Y71551D01*
X-216652Y69990D01*
X-217818Y69343D01*
X-218730Y69162D01*
X-220054Y68278D01*
X-220938Y66955D01*
X-221248Y65394D01*
X-222248Y64702D01*
X-223261Y64501D01*
X-224584Y63617D01*
X-225468Y62294D01*
X-225778Y60733D01*
X-225468Y59172D01*
X-226506Y58440D01*
X-227473Y57794D01*
X-228357Y56471D01*
X-228668Y54910D01*
X-228357Y53350D01*
X-227508Y52078D01*
X-227337Y51743D01*
Y50665D01*
X-227384Y50634D01*
X-228268Y49311D01*
X-228578Y47750D01*
X-228268Y46189D01*
X-227384Y44866D01*
X-226061Y43982D01*
X-224500Y43672D01*
X-222939Y43982D01*
X-221616Y44866D01*
X-221392Y45201D01*
X-216279D01*
X-215894Y43931D01*
X-216965Y43215D01*
X-218181Y41396D01*
X-218608Y39250D01*
X-218181Y37104D01*
X-216965Y35285D01*
X-210471Y28790D01*
Y20288D01*
X-211644Y19802D01*
X-241241Y49399D01*
X-241902Y49841D01*
X-242683Y49996D01*
X-243463Y49841D01*
X-244125Y49399D01*
X-244125Y49399D01*
X-357262Y-63738D01*
X-357704Y-64400D01*
X-357859Y-65180D01*
X-357704Y-65961D01*
X-357262Y-66622D01*
X-325442Y-98442D01*
X-324780Y-98884D01*
X-324000Y-99039D01*
X-323220Y-98884D01*
X-322558Y-98442D01*
X-322558Y-98442D01*
X-321362Y-97245D01*
X-320616Y-97554D01*
X-319468Y-97079D01*
X-303531Y-81142D01*
X-302358Y-81628D01*
Y-137677D01*
X-303715Y-139035D01*
X-304219Y-139788D01*
X-304715Y-140285D01*
X-305931Y-142104D01*
X-306358Y-144250D01*
X-305931Y-146396D01*
X-304715Y-148215D01*
X-302896Y-149431D01*
X-300750Y-149858D01*
X-298604Y-149431D01*
X-296785Y-148215D01*
X-295785Y-147215D01*
X-295281Y-146462D01*
X-292785Y-143965D01*
X-291838Y-142549D01*
X-286056D01*
X-280049Y-148556D01*
Y-197694D01*
X-280556Y-198201D01*
X-286250D01*
Y-194000D01*
X-300250D01*
Y-206000D01*
X-295549D01*
Y-220642D01*
X-295884Y-220866D01*
X-296768Y-222189D01*
X-297078Y-223750D01*
X-296768Y-225311D01*
X-295884Y-226634D01*
X-294561Y-227518D01*
X-293000Y-227828D01*
X-291439Y-227518D01*
X-290116Y-226634D01*
X-289232Y-225311D01*
X-288922Y-223750D01*
X-289232Y-222189D01*
X-290116Y-220866D01*
X-290451Y-220642D01*
Y-206000D01*
X-286250D01*
Y-203299D01*
X-279500D01*
X-278524Y-203105D01*
X-277698Y-202552D01*
X-275698Y-200552D01*
X-275145Y-199725D01*
X-274951Y-198750D01*
Y-167032D01*
X-273681Y-166353D01*
X-273061Y-166768D01*
X-271500Y-167078D01*
X-269939Y-166768D01*
X-268616Y-165884D01*
X-267732Y-164561D01*
X-267422Y-163000D01*
X-267500Y-162605D01*
X-264698Y-159802D01*
X-264145Y-158975D01*
X-263951Y-158000D01*
Y-136699D01*
X-262681Y-136313D01*
X-262634Y-136384D01*
X-261311Y-137268D01*
X-259750Y-137578D01*
X-259117Y-137452D01*
X-259088Y-137466D01*
X-258140Y-138553D01*
X-258328Y-139500D01*
X-258018Y-141061D01*
X-257134Y-142384D01*
X-255811Y-143268D01*
X-254250Y-143578D01*
X-253563Y-143442D01*
X-252483Y-144522D01*
X-252578Y-145000D01*
X-252268Y-146561D01*
X-251384Y-147884D01*
X-250061Y-148768D01*
X-248500Y-149078D01*
X-247347Y-148849D01*
X-247157Y-148953D01*
X-246453Y-149657D01*
X-246349Y-149847D01*
X-246578Y-151000D01*
X-246268Y-152561D01*
X-245384Y-153884D01*
X-244061Y-154768D01*
X-242500Y-155078D01*
X-240939Y-154768D01*
X-239616Y-153884D01*
X-238732Y-152561D01*
X-238422Y-151000D01*
X-238732Y-149439D01*
X-239616Y-148116D01*
X-240451Y-147558D01*
Y-132655D01*
X-191698Y-83902D01*
X-191145Y-83075D01*
X-190951Y-82099D01*
Y-57032D01*
X-189681Y-56353D01*
X-189061Y-56768D01*
X-187500Y-57078D01*
X-185939Y-56768D01*
X-184616Y-55884D01*
X-183732Y-54561D01*
X-183422Y-53000D01*
X-183500Y-52605D01*
X-169448Y-38552D01*
X-168895Y-37726D01*
X-168701Y-36750D01*
Y50519D01*
X-168895Y51495D01*
X-169448Y52322D01*
X-195951Y78825D01*
Y108142D01*
X-195616Y108366D01*
X-194732Y109689D01*
X-194422Y111250D01*
X-194732Y112811D01*
X-195616Y114134D01*
X-196939Y115018D01*
X-198500Y115328D01*
X-200061Y115018D01*
X-201384Y114134D01*
X-202268Y112811D01*
X-202578Y111250D01*
X-202268Y109689D01*
X-201384Y108366D01*
X-201049Y108142D01*
Y80633D01*
X-202222Y80147D01*
X-213201Y91125D01*
Y110142D01*
X-212866Y110366D01*
X-211982Y111689D01*
X-211672Y113250D01*
X-211982Y114811D01*
X-212866Y116134D01*
X-214189Y117018D01*
X-215750Y117328D01*
D02*
G37*
G36*
X-255000Y77578D02*
X-256561Y77268D01*
X-257884Y76384D01*
X-258768Y75061D01*
X-259078Y73500D01*
X-258768Y71939D01*
X-257884Y70616D01*
X-256561Y69732D01*
X-255000Y69422D01*
X-254605Y69500D01*
X-249802Y64698D01*
X-248975Y64145D01*
X-248000Y63951D01*
X-244608D01*
X-244384Y63616D01*
X-243061Y62732D01*
X-241500Y62422D01*
X-239939Y62732D01*
X-238616Y63616D01*
X-237732Y64939D01*
X-237422Y66500D01*
X-237732Y68061D01*
X-238616Y69384D01*
X-239939Y70268D01*
X-241500Y70578D01*
X-243061Y70268D01*
X-244384Y69384D01*
X-244608Y69049D01*
X-246944D01*
X-251000Y73105D01*
X-250922Y73500D01*
X-251232Y75061D01*
X-252116Y76384D01*
X-253439Y77268D01*
X-255000Y77578D01*
D02*
G37*
G36*
X-286250Y68000D02*
X-300250D01*
Y56000D01*
X-286250D01*
Y59704D01*
X-282621D01*
X-282397Y59369D01*
X-281074Y58485D01*
X-279514Y58175D01*
X-277953Y58485D01*
X-276630Y59369D01*
X-275746Y60692D01*
X-275435Y62253D01*
X-275746Y63814D01*
X-276630Y65137D01*
X-277953Y66021D01*
X-279514Y66331D01*
X-281074Y66021D01*
X-282397Y65137D01*
X-282621Y64802D01*
X-286250D01*
Y68000D01*
D02*
G37*
G36*
X-160250Y87828D02*
X-161811Y87518D01*
X-163134Y86634D01*
X-164018Y85311D01*
X-164328Y83750D01*
X-164018Y82189D01*
X-163134Y80866D01*
X-161811Y79982D01*
X-160672Y79756D01*
X-159799Y78882D01*
Y63608D01*
X-160134Y63384D01*
X-161018Y62061D01*
X-161328Y60500D01*
X-161018Y58939D01*
X-160134Y57616D01*
X-158811Y56732D01*
X-157250Y56422D01*
X-155689Y56732D01*
X-154366Y57616D01*
X-153482Y58939D01*
X-153172Y60500D01*
X-153482Y62061D01*
X-154366Y63384D01*
X-154701Y63608D01*
Y79938D01*
X-154895Y80914D01*
X-155448Y81741D01*
X-156385Y82678D01*
X-156172Y83750D01*
X-156482Y85311D01*
X-157366Y86634D01*
X-158689Y87518D01*
X-160250Y87828D01*
D02*
G37*
G36*
X338750Y68000D02*
X324750D01*
Y56000D01*
X338750D01*
Y68000D01*
D02*
G37*
G36*
X293000Y77828D02*
X291439Y77518D01*
X290116Y76634D01*
X289232Y75311D01*
X288922Y73750D01*
X289232Y72189D01*
X290116Y70866D01*
X290451Y70642D01*
Y68000D01*
X286250D01*
Y56000D01*
X300250D01*
Y68000D01*
X295549D01*
Y70642D01*
X295884Y70866D01*
X296768Y72189D01*
X297078Y73750D01*
X296768Y75311D01*
X295884Y76634D01*
X294561Y77518D01*
X293000Y77828D01*
D02*
G37*
G36*
X-324750Y68000D02*
X-338750D01*
Y56000D01*
X-324750D01*
Y68000D01*
D02*
G37*
G36*
X58250Y63328D02*
X56689Y63018D01*
X55366Y62134D01*
X54482Y60811D01*
X54172Y59250D01*
X54482Y57689D01*
X55366Y56366D01*
X56689Y55482D01*
X58250Y55172D01*
X59811Y55482D01*
X61134Y56366D01*
X61358Y56701D01*
X68725D01*
X69116Y56116D01*
X70439Y55232D01*
X72000Y54922D01*
X73561Y55232D01*
X74884Y56116D01*
X75768Y57439D01*
X76078Y59000D01*
X75768Y60561D01*
X74884Y61884D01*
X73561Y62768D01*
X72000Y63078D01*
X70439Y62768D01*
X69116Y61884D01*
X69060Y61799D01*
X61358D01*
X61134Y62134D01*
X59811Y63018D01*
X58250Y63328D01*
D02*
G37*
G36*
X-126250Y105078D02*
X-127811Y104768D01*
X-129134Y103884D01*
X-130018Y102561D01*
X-130328Y101000D01*
X-130018Y99439D01*
X-129134Y98116D01*
X-128799Y97892D01*
Y61608D01*
X-129134Y61384D01*
X-130018Y60061D01*
X-130328Y58500D01*
X-130018Y56939D01*
X-129134Y55616D01*
X-127811Y54732D01*
X-126250Y54422D01*
X-124689Y54732D01*
X-123366Y55616D01*
X-122482Y56939D01*
X-122172Y58500D01*
X-122482Y60061D01*
X-123366Y61384D01*
X-123701Y61608D01*
Y97892D01*
X-123366Y98116D01*
X-122482Y99439D01*
X-122172Y101000D01*
X-122482Y102561D01*
X-123366Y103884D01*
X-124689Y104768D01*
X-126250Y105078D01*
D02*
G37*
G36*
X203000Y73328D02*
X201439Y73018D01*
X200116Y72134D01*
X199232Y70811D01*
X198922Y69250D01*
X199232Y67689D01*
X200116Y66366D01*
X200451Y66142D01*
Y53056D01*
X197395Y50000D01*
X197000Y50078D01*
X195439Y49768D01*
X194116Y48884D01*
X193232Y47561D01*
X192922Y46000D01*
X193232Y44439D01*
X194116Y43116D01*
X195439Y42232D01*
X197000Y41922D01*
X198561Y42232D01*
X199884Y43116D01*
X200768Y44439D01*
X201078Y46000D01*
X201000Y46395D01*
X204802Y50198D01*
X205355Y51024D01*
X205556Y51079D01*
X206505Y50521D01*
X206826Y50040D01*
Y45941D01*
X206366Y45634D01*
X205482Y44311D01*
X205172Y42750D01*
X205482Y41189D01*
X206366Y39866D01*
X207689Y38982D01*
X209250Y38672D01*
X210811Y38982D01*
X212134Y39866D01*
X213018Y41189D01*
X213328Y42750D01*
X213018Y44311D01*
X212134Y45634D01*
X211924Y45774D01*
Y51059D01*
X212384Y51366D01*
X213268Y52689D01*
X213578Y54250D01*
X213268Y55811D01*
X212384Y57134D01*
X211061Y58018D01*
X209500Y58328D01*
X207939Y58018D01*
X206819Y57269D01*
X206051Y57499D01*
X205549Y57823D01*
Y66142D01*
X205884Y66366D01*
X206768Y67689D01*
X207078Y69250D01*
X206768Y70811D01*
X205884Y72134D01*
X204561Y73018D01*
X203000Y73328D01*
D02*
G37*
G36*
X300250Y29000D02*
X286250D01*
Y25299D01*
X282858D01*
X282634Y25634D01*
X281311Y26518D01*
X279750Y26828D01*
X278189Y26518D01*
X276866Y25634D01*
X275982Y24311D01*
X275672Y22750D01*
X275982Y21189D01*
X276866Y19866D01*
X278189Y18982D01*
X279750Y18672D01*
X281311Y18982D01*
X282634Y19866D01*
X282858Y20201D01*
X286250D01*
Y17000D01*
X300250D01*
Y29000D01*
D02*
G37*
G36*
X-286250D02*
X-300250D01*
Y17000D01*
X-286250D01*
Y19201D01*
X-283358D01*
X-283134Y18866D01*
X-281811Y17982D01*
X-280250Y17672D01*
X-278689Y17982D01*
X-277366Y18866D01*
X-276482Y20189D01*
X-276172Y21750D01*
X-276482Y23311D01*
X-277366Y24634D01*
X-278689Y25518D01*
X-280250Y25828D01*
X-281811Y25518D01*
X-283134Y24634D01*
X-283358Y24299D01*
X-286250D01*
Y29000D01*
D02*
G37*
G36*
X338750D02*
X324750D01*
Y17000D01*
X338750D01*
Y29000D01*
D02*
G37*
G36*
X-324750D02*
X-338750D01*
Y17000D01*
X-324750D01*
Y29000D01*
D02*
G37*
G36*
X145500Y22078D02*
X143939Y21768D01*
X142616Y20884D01*
X141732Y19561D01*
X141422Y18000D01*
X141732Y16439D01*
X142616Y15116D01*
X143055Y14823D01*
Y13296D01*
X142545Y12955D01*
X141661Y11632D01*
X141351Y10071D01*
X141661Y8510D01*
X142464Y7309D01*
X142616Y6844D01*
Y5884D01*
X141732Y4561D01*
X141422Y3000D01*
X141732Y1439D01*
X142249Y666D01*
X142511Y-250D01*
X142249Y-1166D01*
X141732Y-1939D01*
X141422Y-3500D01*
X141732Y-5061D01*
X142616Y-6384D01*
X143939Y-7268D01*
X145500Y-7578D01*
X147061Y-7268D01*
X148384Y-6384D01*
X148608Y-6049D01*
X152026D01*
X152390Y-6964D01*
X152463Y-7319D01*
X151511Y-8744D01*
X151162Y-10500D01*
X151511Y-12256D01*
X152506Y-13744D01*
X153994Y-14739D01*
X155750Y-15088D01*
X186000D01*
X187756Y-14739D01*
X189244Y-13744D01*
X190239Y-12256D01*
X190588Y-10500D01*
X190239Y-8744D01*
X189244Y-7256D01*
X187756Y-6261D01*
X186000Y-5912D01*
X182860D01*
X182101Y-4642D01*
X182328Y-3500D01*
X182018Y-1939D01*
X181386Y-993D01*
X181225Y-125D01*
X181386Y743D01*
X182018Y1689D01*
X182328Y3250D01*
X182018Y4811D01*
X181134Y6134D01*
X181098Y6158D01*
Y6826D01*
X181229Y7598D01*
X181982Y8725D01*
X182293Y10286D01*
X181982Y11846D01*
X181098Y13169D01*
X179775Y14053D01*
X179134Y14181D01*
X179259Y15451D01*
X188694D01*
X195292Y8854D01*
X195172Y8250D01*
X195482Y6689D01*
X196366Y5366D01*
X197689Y4482D01*
X199250Y4172D01*
X200811Y4482D01*
X202134Y5366D01*
X203018Y6689D01*
X203328Y8250D01*
X203018Y9811D01*
X202134Y11134D01*
X200811Y12018D01*
X199250Y12328D01*
X199063Y12291D01*
X191552Y19802D01*
X190725Y20355D01*
X189750Y20549D01*
X148608D01*
X148384Y20884D01*
X147061Y21768D01*
X145500Y22078D01*
D02*
G37*
G36*
X-146500Y8828D02*
X-148061Y8518D01*
X-149384Y7634D01*
X-150268Y6311D01*
X-150578Y4750D01*
X-150268Y3189D01*
X-149384Y1866D01*
X-148061Y982D01*
X-146500Y672D01*
X-146105Y750D01*
X-114799Y-30556D01*
Y-39892D01*
X-115134Y-40116D01*
X-116018Y-41439D01*
X-116328Y-43000D01*
X-116018Y-44561D01*
X-115134Y-45884D01*
X-113811Y-46768D01*
X-112250Y-47078D01*
X-110689Y-46768D01*
X-109366Y-45884D01*
X-108482Y-44561D01*
X-108172Y-43000D01*
X-108482Y-41439D01*
X-109366Y-40116D01*
X-109701Y-39892D01*
Y-29500D01*
X-109895Y-28525D01*
X-110448Y-27698D01*
X-142500Y4355D01*
X-142422Y4750D01*
X-142732Y6311D01*
X-143616Y7634D01*
X-144939Y8518D01*
X-146500Y8828D01*
D02*
G37*
G36*
X-109750Y-54672D02*
X-111311Y-54982D01*
X-112634Y-55866D01*
X-113366D01*
X-114689Y-54982D01*
X-116250Y-54672D01*
X-117811Y-54982D01*
X-118705Y-55580D01*
X-119860Y-56137D01*
X-121184Y-55253D01*
X-122744Y-54942D01*
X-124305Y-55253D01*
X-125628Y-56137D01*
X-126512Y-57460D01*
X-126823Y-59021D01*
X-126512Y-60581D01*
X-125628Y-61904D01*
X-125293Y-62128D01*
Y-73789D01*
X-193552Y-142048D01*
X-194105Y-142875D01*
X-194299Y-143851D01*
Y-160392D01*
X-194634Y-160616D01*
X-195518Y-161939D01*
X-195828Y-163500D01*
X-195518Y-165061D01*
X-194634Y-166384D01*
X-193311Y-167268D01*
X-191750Y-167578D01*
X-190189Y-167268D01*
X-188866Y-166384D01*
X-187982Y-165061D01*
X-187672Y-163500D01*
X-187861Y-162546D01*
X-186922Y-161462D01*
X-186884Y-161445D01*
X-186214Y-161578D01*
X-184653Y-161268D01*
X-183330Y-160384D01*
X-182446Y-159061D01*
X-182136Y-157500D01*
X-182367Y-156340D01*
X-181322Y-155511D01*
X-181311Y-155518D01*
X-179750Y-155828D01*
X-178189Y-155518D01*
X-176866Y-154634D01*
X-175982Y-153311D01*
X-175672Y-151750D01*
X-175982Y-150189D01*
X-176866Y-148866D01*
X-177201Y-148642D01*
Y-142806D01*
X-107948Y-73552D01*
X-107395Y-72725D01*
X-107201Y-71750D01*
Y-61858D01*
X-106866Y-61634D01*
X-105982Y-60311D01*
X-105672Y-58750D01*
X-105982Y-57189D01*
X-106866Y-55866D01*
X-108189Y-54982D01*
X-109750Y-54672D01*
D02*
G37*
G36*
X-87500Y-35672D02*
X-89061Y-35982D01*
X-90384Y-36866D01*
X-91268Y-38189D01*
X-91578Y-39750D01*
X-91268Y-41311D01*
X-90384Y-42634D01*
X-90049Y-42858D01*
Y-69892D01*
X-90384Y-70116D01*
X-91268Y-71439D01*
X-91578Y-73000D01*
X-91268Y-74561D01*
X-90384Y-75884D01*
X-89061Y-76768D01*
X-87500Y-77078D01*
X-85939Y-76768D01*
X-84616Y-75884D01*
X-83732Y-74561D01*
X-83422Y-73000D01*
X-83732Y-71439D01*
X-84616Y-70116D01*
X-84951Y-69892D01*
Y-42858D01*
X-84616Y-42634D01*
X-83732Y-41311D01*
X-83422Y-39750D01*
X-83732Y-38189D01*
X-84616Y-36866D01*
X-85939Y-35982D01*
X-87500Y-35672D01*
D02*
G37*
G36*
X193000Y-82912D02*
X157250D01*
X155494Y-83261D01*
X154006Y-84256D01*
X153011Y-85744D01*
X152662Y-87500D01*
X153011Y-89256D01*
X154006Y-90744D01*
X155494Y-91739D01*
X157250Y-92088D01*
X193000D01*
X194756Y-91739D01*
X196244Y-90744D01*
X197239Y-89256D01*
X197588Y-87500D01*
X197239Y-85744D01*
X196244Y-84256D01*
X194756Y-83261D01*
X193000Y-82912D01*
D02*
G37*
G36*
X308500Y-87172D02*
X306939Y-87482D01*
X305616Y-88366D01*
X304732Y-89689D01*
X304422Y-91250D01*
X304500Y-91645D01*
X284444Y-111701D01*
X265858D01*
X265634Y-111366D01*
X264311Y-110482D01*
X262750Y-110172D01*
X261189Y-110482D01*
X259866Y-111366D01*
X258982Y-112689D01*
X258672Y-114250D01*
X258982Y-115811D01*
X259866Y-117134D01*
X261189Y-118018D01*
X262750Y-118328D01*
X264311Y-118018D01*
X265634Y-117134D01*
X265858Y-116799D01*
X285500D01*
X286476Y-116605D01*
X287302Y-116052D01*
X308105Y-95250D01*
X308500Y-95328D01*
X310061Y-95018D01*
X311384Y-94134D01*
X312268Y-92811D01*
X312578Y-91250D01*
X312268Y-89689D01*
X311384Y-88366D01*
X310061Y-87482D01*
X308500Y-87172D01*
D02*
G37*
G36*
X55500Y-101162D02*
X53744Y-101511D01*
X52256Y-102506D01*
X51261Y-103994D01*
X50912Y-105750D01*
X51261Y-107506D01*
X52256Y-108994D01*
X52506Y-109244D01*
X53994Y-110239D01*
X55750Y-110588D01*
X85250D01*
X87006Y-110239D01*
X88494Y-109244D01*
X89489Y-107756D01*
X89838Y-106000D01*
X89489Y-104244D01*
X88494Y-102756D01*
X87006Y-101761D01*
X85250Y-101412D01*
X56757D01*
X55500Y-101162D01*
D02*
G37*
G36*
X-97250Y-119922D02*
X-98811Y-120232D01*
X-100078Y-121079D01*
X-101401D01*
X-102376Y-121273D01*
X-103203Y-121825D01*
X-111593Y-130215D01*
X-112689Y-129482D01*
X-114250Y-129172D01*
X-115811Y-129482D01*
X-117134Y-130366D01*
X-118018Y-131689D01*
X-118328Y-133250D01*
X-118018Y-134811D01*
X-117134Y-136134D01*
X-115811Y-137018D01*
X-114250Y-137328D01*
X-112689Y-137018D01*
X-111366Y-136134D01*
X-110958Y-135523D01*
X-110747D01*
X-109772Y-135329D01*
X-108945Y-134777D01*
X-100970Y-126802D01*
X-100134Y-126884D01*
X-98811Y-127768D01*
X-97250Y-128078D01*
X-95689Y-127768D01*
X-94366Y-126884D01*
X-93482Y-125561D01*
X-93172Y-124000D01*
X-93482Y-122439D01*
X-94366Y-121116D01*
X-95689Y-120232D01*
X-97250Y-119922D01*
D02*
G37*
G36*
X40750Y-126422D02*
X39189Y-126732D01*
X37866Y-127616D01*
X36982Y-128939D01*
X36672Y-130500D01*
X36982Y-132061D01*
X37866Y-133384D01*
X38775Y-133991D01*
Y-135574D01*
X38969Y-136550D01*
X39522Y-137376D01*
X52250Y-150105D01*
X52172Y-150500D01*
X52482Y-152061D01*
X53366Y-153384D01*
X54689Y-154268D01*
X56250Y-154578D01*
X57811Y-154268D01*
X59134Y-153384D01*
X60018Y-152061D01*
X60328Y-150500D01*
X60018Y-148939D01*
X59134Y-147616D01*
X57811Y-146732D01*
X56250Y-146422D01*
X55855Y-146500D01*
X43873Y-134518D01*
Y-133026D01*
X44518Y-132061D01*
X44828Y-130500D01*
X44518Y-128939D01*
X43634Y-127616D01*
X42311Y-126732D01*
X40750Y-126422D01*
D02*
G37*
G36*
X338750Y-155000D02*
X324750D01*
Y-167000D01*
X338750D01*
Y-155000D01*
D02*
G37*
G36*
X293250Y-145422D02*
X291689Y-145732D01*
X290366Y-146616D01*
X289482Y-147939D01*
X289172Y-149500D01*
X289482Y-151061D01*
X290366Y-152384D01*
X290701Y-152608D01*
Y-155000D01*
X286250D01*
Y-167000D01*
X300250D01*
Y-155000D01*
X295799D01*
Y-152608D01*
X296134Y-152384D01*
X297018Y-151061D01*
X297328Y-149500D01*
X297018Y-147939D01*
X296134Y-146616D01*
X294811Y-145732D01*
X293250Y-145422D01*
D02*
G37*
G36*
X-324750Y-155000D02*
X-338750D01*
Y-167000D01*
X-324750D01*
Y-155000D01*
D02*
G37*
G36*
X251897Y-128648D02*
X247976Y-129034D01*
X244206Y-130178D01*
X240732Y-132035D01*
X237686Y-134534D01*
X235187Y-137580D01*
X233330Y-141054D01*
X232186Y-144824D01*
X231800Y-148745D01*
X232186Y-152666D01*
X233330Y-156435D01*
X235187Y-159910D01*
X237686Y-162955D01*
X240732Y-165455D01*
X244206Y-167312D01*
X247976Y-168455D01*
X251897Y-168842D01*
X255817Y-168455D01*
X259587Y-167312D01*
X263062Y-165455D01*
X266107Y-162955D01*
X268606Y-159910D01*
X270464Y-156435D01*
X271607Y-152666D01*
X271993Y-148745D01*
X271607Y-144824D01*
X270464Y-141054D01*
X268606Y-137580D01*
X266107Y-134534D01*
X263062Y-132035D01*
X259587Y-130178D01*
X255817Y-129034D01*
X251897Y-128648D01*
D02*
G37*
G36*
X-286250Y-155000D02*
X-300250D01*
Y-167000D01*
X-295249D01*
X-294912Y-167611D01*
X-294737Y-168270D01*
X-295518Y-169439D01*
X-295828Y-171000D01*
X-295518Y-172561D01*
X-294634Y-173884D01*
X-293311Y-174768D01*
X-291750Y-175078D01*
X-290189Y-174768D01*
X-288866Y-173884D01*
X-287982Y-172561D01*
X-287672Y-171000D01*
X-287982Y-169439D01*
X-288763Y-168270D01*
X-288588Y-167611D01*
X-288251Y-167000D01*
X-286250D01*
Y-155000D01*
D02*
G37*
G36*
X300250Y-194000D02*
X286250D01*
Y-198201D01*
X282108D01*
X281884Y-197866D01*
X280561Y-196982D01*
X279000Y-196672D01*
X277439Y-196982D01*
X276116Y-197866D01*
X275232Y-199189D01*
X274922Y-200750D01*
X275232Y-202311D01*
X276116Y-203634D01*
X277439Y-204518D01*
X279000Y-204828D01*
X280561Y-204518D01*
X281884Y-203634D01*
X282108Y-203299D01*
X286250D01*
Y-206000D01*
X300250D01*
Y-194000D01*
D02*
G37*
G36*
X338750D02*
X324750D01*
Y-206000D01*
X338750D01*
Y-194000D01*
D02*
G37*
G36*
X-324750D02*
X-338750D01*
Y-206000D01*
X-324750D01*
Y-194000D01*
D02*
G37*
G36*
X28000Y-142172D02*
X26439Y-142482D01*
X25116Y-143366D01*
X24232Y-144689D01*
X23922Y-146250D01*
X24232Y-147811D01*
X24431Y-148109D01*
Y-163022D01*
X15541Y-171912D01*
X15189Y-171982D01*
X13866Y-172866D01*
X12982Y-174189D01*
X12672Y-175750D01*
X12982Y-177311D01*
X13866Y-178634D01*
X15189Y-179518D01*
X16750Y-179828D01*
X18311Y-179518D01*
X19634Y-178634D01*
X20518Y-177311D01*
X20588Y-176959D01*
X28000Y-169547D01*
X40431Y-181978D01*
Y-203391D01*
X40232Y-203689D01*
X39922Y-205250D01*
X40232Y-206811D01*
X41116Y-208134D01*
X42439Y-209018D01*
X44000Y-209328D01*
X45561Y-209018D01*
X46884Y-208134D01*
X47768Y-206811D01*
X48078Y-205250D01*
X47768Y-203689D01*
X47569Y-203391D01*
Y-180500D01*
X47297Y-179134D01*
X46523Y-177977D01*
X31569Y-163022D01*
Y-148109D01*
X31768Y-147811D01*
X32078Y-146250D01*
X31768Y-144689D01*
X30884Y-143366D01*
X29561Y-142482D01*
X28000Y-142172D01*
D02*
G37*
G36*
X-227250Y-216672D02*
X-228811Y-216982D01*
X-230134Y-217866D01*
X-230358Y-218201D01*
X-255142D01*
X-255366Y-217866D01*
X-256689Y-216982D01*
X-258250Y-216672D01*
X-259811Y-216982D01*
X-261134Y-217866D01*
X-262018Y-219189D01*
X-262328Y-220750D01*
X-262018Y-222311D01*
X-261134Y-223634D01*
X-259811Y-224518D01*
X-258250Y-224828D01*
X-256689Y-224518D01*
X-255366Y-223634D01*
X-255142Y-223299D01*
X-244584D01*
X-243843Y-224569D01*
X-244078Y-225750D01*
X-244000Y-226145D01*
X-252625Y-234770D01*
X-253177Y-235597D01*
X-253372Y-236572D01*
Y-239446D01*
X-262377Y-248451D01*
X-267444D01*
X-268198Y-247698D01*
X-269025Y-247145D01*
X-270000Y-246951D01*
X-280500D01*
X-281475Y-247145D01*
X-282302Y-247698D01*
X-285551Y-250946D01*
X-286103Y-251773D01*
X-286297Y-252749D01*
Y-256693D01*
X-288056Y-258451D01*
X-298892D01*
X-299116Y-258116D01*
X-300439Y-257232D01*
X-302000Y-256922D01*
X-303561Y-257232D01*
X-304884Y-258116D01*
X-305768Y-259439D01*
X-306078Y-261000D01*
X-305768Y-262561D01*
X-304884Y-263884D01*
X-303561Y-264768D01*
X-302000Y-265078D01*
X-300439Y-264768D01*
X-299116Y-263884D01*
X-298892Y-263549D01*
X-287000D01*
X-286024Y-263355D01*
X-285198Y-262802D01*
X-281946Y-259551D01*
X-281394Y-258724D01*
X-281199Y-257749D01*
Y-256952D01*
X-279930Y-256567D01*
X-279384Y-257384D01*
X-278061Y-258268D01*
X-276500Y-258578D01*
X-274939Y-258268D01*
X-273616Y-257384D01*
X-273392Y-257049D01*
X-257750D01*
X-256775Y-256855D01*
X-255948Y-256302D01*
X-242441Y-242796D01*
X-241888Y-241968D01*
X-241694Y-240993D01*
Y-238799D01*
X-239645Y-236750D01*
X-239250Y-236828D01*
X-237689Y-236518D01*
X-236366Y-235634D01*
X-235482Y-234311D01*
X-235172Y-232750D01*
X-235482Y-231189D01*
X-236366Y-229866D01*
X-236607Y-229705D01*
X-236748Y-228083D01*
X-236232Y-227311D01*
X-235922Y-225750D01*
X-236157Y-224569D01*
X-235416Y-223299D01*
X-230358D01*
X-230134Y-223634D01*
X-228811Y-224518D01*
X-227250Y-224828D01*
X-225689Y-224518D01*
X-224366Y-223634D01*
X-223482Y-222311D01*
X-223172Y-220750D01*
X-223482Y-219189D01*
X-224366Y-217866D01*
X-225689Y-216982D01*
X-227250Y-216672D01*
D02*
G37*
G36*
X-10750Y-216422D02*
X-12311Y-216732D01*
X-13634Y-217616D01*
X-14294Y-218605D01*
X-14531Y-218671D01*
X-15468D01*
X-15706Y-218605D01*
X-16366Y-217616D01*
X-17689Y-216732D01*
X-19250Y-216422D01*
X-20811Y-216732D01*
X-22134Y-217616D01*
X-23018Y-218939D01*
X-23328Y-220500D01*
X-23018Y-222061D01*
X-22134Y-223384D01*
X-21799Y-223608D01*
Y-228944D01*
X-25802Y-232948D01*
X-26355Y-233775D01*
X-26549Y-234750D01*
Y-279050D01*
X-26673Y-279201D01*
X-72808D01*
X-73366Y-278366D01*
X-74689Y-277482D01*
X-76250Y-277172D01*
X-77811Y-277482D01*
X-79134Y-278366D01*
X-80018Y-279689D01*
X-80328Y-281250D01*
X-80018Y-282811D01*
X-79134Y-284134D01*
X-77811Y-285018D01*
X-76250Y-285328D01*
X-74689Y-285018D01*
X-73613Y-284299D01*
X-27306D01*
X-10750Y-300855D01*
X-10828Y-301250D01*
X-10518Y-302811D01*
X-9634Y-304134D01*
X-8311Y-305018D01*
X-6750Y-305328D01*
X-5189Y-305018D01*
X-3866Y-304134D01*
X-2982Y-302811D01*
X-2672Y-301250D01*
X-2982Y-299689D01*
X-3866Y-298366D01*
X-4311Y-298069D01*
X-3926Y-296799D01*
X6944D01*
X13948Y-303802D01*
X14775Y-304355D01*
X15750Y-304549D01*
X33392D01*
X33616Y-304884D01*
X34939Y-305768D01*
X36500Y-306078D01*
X38061Y-305768D01*
X39384Y-304884D01*
X40268Y-303561D01*
X40578Y-302000D01*
X40449Y-301350D01*
X41620Y-300724D01*
X42500Y-301605D01*
X42422Y-302000D01*
X42732Y-303561D01*
X43616Y-304884D01*
X44939Y-305768D01*
X46500Y-306078D01*
X48061Y-305768D01*
X49384Y-304884D01*
X50268Y-303561D01*
X50578Y-302000D01*
X50268Y-300439D01*
X49384Y-299116D01*
X48061Y-298232D01*
X46500Y-297922D01*
X46105Y-298000D01*
X42802Y-294698D01*
X41975Y-294145D01*
X41000Y-293951D01*
X31750D01*
X30775Y-294145D01*
X29948Y-294698D01*
X28694Y-295951D01*
X18255D01*
X11252Y-288948D01*
X10425Y-288395D01*
X9450Y-288201D01*
X-5694D01*
X-17951Y-275944D01*
Y-237255D01*
X-8948Y-228252D01*
X-8395Y-227425D01*
X-8201Y-226450D01*
Y-223608D01*
X-7866Y-223384D01*
X-6982Y-222061D01*
X-6672Y-220500D01*
X-6982Y-218939D01*
X-7866Y-217616D01*
X-9189Y-216732D01*
X-10750Y-216422D01*
D02*
G37*
G36*
X331000Y-222162D02*
X329244Y-222511D01*
X327756Y-223506D01*
X315849Y-235412D01*
X303750D01*
X301994Y-235761D01*
X300506Y-236756D01*
X299511Y-238244D01*
X299162Y-240000D01*
X299511Y-241756D01*
X300506Y-243244D01*
X301994Y-244239D01*
X303750Y-244588D01*
X317750D01*
X319506Y-244239D01*
X320994Y-243244D01*
X334244Y-229994D01*
X335239Y-228506D01*
X335588Y-226750D01*
X335239Y-224994D01*
X334244Y-223506D01*
X332756Y-222511D01*
X331000Y-222162D01*
D02*
G37*
G36*
X226000Y-300422D02*
X224439Y-300732D01*
X223116Y-301616D01*
X222892Y-301951D01*
X213608D01*
X213384Y-301616D01*
X212061Y-300732D01*
X210500Y-300422D01*
X208939Y-300732D01*
X207616Y-301616D01*
X206732Y-302939D01*
X206422Y-304500D01*
X206732Y-306061D01*
X207616Y-307384D01*
X208939Y-308268D01*
X210500Y-308578D01*
X212061Y-308268D01*
X213384Y-307384D01*
X213608Y-307049D01*
X222892D01*
X223116Y-307384D01*
X224439Y-308268D01*
X226000Y-308578D01*
X227561Y-308268D01*
X228884Y-307384D01*
X229768Y-306061D01*
X230078Y-304500D01*
X229768Y-302939D01*
X228884Y-301616D01*
X227561Y-300732D01*
X226000Y-300422D01*
D02*
G37*
G36*
X197297Y-306942D02*
X194034Y-307371D01*
X190993Y-308631D01*
X188382Y-310634D01*
X186378Y-313246D01*
X185118Y-316286D01*
X184689Y-319550D01*
X185118Y-322813D01*
X186378Y-325854D01*
X188382Y-328465D01*
X190993Y-330468D01*
X194034Y-331728D01*
X197297Y-332158D01*
X200560Y-331728D01*
X203601Y-330468D01*
X206212Y-328465D01*
X208215Y-325854D01*
X209475Y-322813D01*
X209904Y-319550D01*
X209475Y-316286D01*
X208215Y-313246D01*
X206212Y-310634D01*
X203601Y-308631D01*
X200560Y-307371D01*
X197297Y-306942D01*
D02*
G37*
G36*
X-193500Y-337832D02*
X-193958Y-337892D01*
X-195782Y-338648D01*
X-197349Y-339850D01*
X-198551Y-341417D01*
X-199307Y-343242D01*
X-199564Y-345200D01*
Y-347700D01*
X-193500D01*
Y-337832D01*
D02*
G37*
G36*
X-276500D02*
Y-347700D01*
X-270436D01*
Y-345200D01*
X-270693Y-343242D01*
X-271449Y-341417D01*
X-272651Y-339850D01*
X-274218Y-338648D01*
X-276042Y-337892D01*
X-276500Y-337832D01*
D02*
G37*
G36*
X-279500D02*
X-279958Y-337892D01*
X-281783Y-338648D01*
X-283349Y-339850D01*
X-284552Y-341417D01*
X-285307Y-343242D01*
X-285565Y-345200D01*
Y-347700D01*
X-279500D01*
Y-337832D01*
D02*
G37*
G36*
X380000Y-374669D02*
X377844Y-374953D01*
X375834Y-375785D01*
X374109Y-377109D01*
X372785Y-378834D01*
X371953Y-380844D01*
X371669Y-383000D01*
X371953Y-385156D01*
X372785Y-387166D01*
X374109Y-388891D01*
X375834Y-390215D01*
X377844Y-391047D01*
X380000Y-391331D01*
X382156Y-391047D01*
X384166Y-390215D01*
X385891Y-388891D01*
X387215Y-387166D01*
X388047Y-385156D01*
X388331Y-383000D01*
X388047Y-380844D01*
X387215Y-378834D01*
X385891Y-377109D01*
X384166Y-375785D01*
X382156Y-374953D01*
X380000Y-374669D01*
D02*
G37*
G36*
X-380000D02*
X-382156Y-374953D01*
X-384166Y-375785D01*
X-385891Y-377109D01*
X-387215Y-378834D01*
X-388047Y-380844D01*
X-388331Y-383000D01*
X-388047Y-385156D01*
X-387215Y-387166D01*
X-385891Y-388891D01*
X-384166Y-390215D01*
X-382156Y-391047D01*
X-380000Y-391331D01*
X-377844Y-391047D01*
X-375834Y-390215D01*
X-374109Y-388891D01*
X-372785Y-387166D01*
X-371953Y-385156D01*
X-371669Y-383000D01*
X-371953Y-380844D01*
X-372785Y-378834D01*
X-374109Y-377109D01*
X-375834Y-375785D01*
X-377844Y-374953D01*
X-380000Y-374669D01*
D02*
G37*
%LPD*%
G36*
X-199799Y7629D02*
Y-2694D01*
X-213105Y-16000D01*
X-213500Y-15922D01*
X-215061Y-16232D01*
X-216384Y-17116D01*
X-217268Y-18439D01*
X-217578Y-20000D01*
X-217268Y-21561D01*
X-216384Y-22884D01*
X-215061Y-23768D01*
X-213500Y-24078D01*
X-211939Y-23768D01*
X-210616Y-22884D01*
X-209732Y-21561D01*
X-209422Y-20000D01*
X-209500Y-19605D01*
X-207722Y-17827D01*
X-206549Y-18313D01*
Y-76694D01*
X-259355Y-129500D01*
X-259750Y-129422D01*
X-261311Y-129732D01*
X-262197Y-130324D01*
X-263468Y-129861D01*
X-263531Y-129804D01*
X-263616Y-129134D01*
X-262732Y-127811D01*
X-262422Y-126250D01*
X-262732Y-124689D01*
X-263616Y-123366D01*
X-264939Y-122482D01*
X-266500Y-122172D01*
X-268061Y-122482D01*
X-269384Y-123366D01*
X-270268Y-124689D01*
X-270578Y-126250D01*
X-270268Y-127811D01*
X-269384Y-129134D01*
X-269049Y-129358D01*
Y-156944D01*
X-271105Y-159000D01*
X-271500Y-158922D01*
X-273061Y-159232D01*
X-273681Y-159647D01*
X-274951Y-158968D01*
Y-147500D01*
X-275145Y-146524D01*
X-275698Y-145698D01*
X-283198Y-138198D01*
X-284025Y-137645D01*
X-285000Y-137451D01*
X-291142D01*
Y-82166D01*
X-201285Y7691D01*
X-201069Y8014D01*
X-199799Y7629D01*
D02*
G37*
D10*
X-390500Y-282750D02*
G03*
X-389595Y-283125I905J905D01*
G01*
X-112250Y-43000D02*
Y-29500D01*
X-146500Y4750D02*
X-112250Y-29500D01*
X-87500Y-73000D02*
Y-39750D01*
X41324Y-135574D02*
Y-131074D01*
Y-135574D02*
X56250Y-150500D01*
X40750Y-130500D02*
X41324Y-131074D01*
X210500Y-304500D02*
X226000D01*
X-253000Y250922D02*
Y265500D01*
X-285000Y297500D02*
X-253000Y265500D01*
Y250922D02*
X-248500Y246422D01*
Y245750D02*
Y246422D01*
X-339000Y297500D02*
X-285000D01*
X-273500Y222250D02*
X-257250D01*
X-287672Y236422D02*
X-273500Y222250D01*
X-248000Y66500D02*
X-241500D01*
X-255000Y73500D02*
X-248000Y66500D01*
X-292503Y62253D02*
X-279514D01*
X285500Y-114250D02*
X308500Y-91250D01*
X262750Y-114250D02*
X285500D01*
X199250Y8250D02*
Y8500D01*
X189750Y18000D02*
X199250Y8500D01*
X145500Y18000D02*
X189750D01*
X71750Y59250D02*
X72000Y59000D01*
X58250Y59250D02*
X71750D01*
X-110747Y-132974D02*
X-101401Y-123628D01*
X-97622D01*
X-113974Y-132974D02*
X-110747D01*
X-114250Y-133250D02*
X-113974Y-132974D01*
X-97622Y-123628D02*
X-97250Y-124000D01*
X-39250Y59000D02*
Y96750D01*
X203000Y52000D02*
Y69250D01*
X197000Y46000D02*
X203000Y52000D01*
X-10750Y-226450D02*
Y-220500D01*
X-20500Y-236200D02*
X-10750Y-226450D01*
X31750Y-296500D02*
X41000D01*
X29750Y-298500D02*
X31750Y-296500D01*
X41000D02*
X46500Y-302000D01*
X-20500Y-277000D02*
X-6750Y-290750D01*
X9450D01*
X17200Y-298500D01*
X-24000Y-279050D02*
X-8800Y-294250D01*
X8000D02*
X15750Y-302000D01*
X-8800Y-294250D02*
X8000D01*
X-20500Y-277000D02*
Y-236200D01*
X17200Y-298500D02*
X29750D01*
X-24000Y-279050D02*
Y-234750D01*
X-19250Y-230000D01*
Y-220500D01*
X15750Y-302000D02*
X36500D01*
X-26250Y-281750D02*
X-6750Y-301250D01*
X-302000Y-261000D02*
X-287000D01*
X-283748Y-257749D01*
X-283750Y285750D02*
X-265750Y267750D01*
X-293000Y285750D02*
X-283750D01*
X-265750Y233750D02*
Y267750D01*
X-293000Y-223750D02*
Y-200750D01*
X151500Y152000D02*
X165000D01*
X170000Y157000D01*
X183250D01*
X-389595Y-283125D02*
X-262375D01*
X210000Y390500D02*
X225196D01*
X225235D01*
X363534D02*
X366258Y387776D01*
X366258Y387776D01*
X263500Y390500D02*
X363534D01*
X225235D02*
X263500D01*
X210000D02*
X210000Y390500D01*
X-262375Y-283125D02*
X-262250Y-283250D01*
X-25500Y236250D02*
X-7500D01*
X9000Y252750D01*
X-126250Y58500D02*
Y101000D01*
X-68125Y58625D02*
Y96125D01*
X-68250Y58500D02*
X-68125Y58625D01*
Y96125D02*
X-68000Y96250D01*
X-75249Y96250D02*
X-75249Y96250D01*
X-75249Y58749D02*
Y96250D01*
X-60625Y96375D02*
X-60250Y96750D01*
X-61000Y58500D02*
X-60625Y58875D01*
Y96375D01*
X-54500Y58500D02*
Y59172D01*
X-52500Y61172D01*
Y96750D01*
X-46250Y58750D02*
X-46125Y58875D01*
Y96625D01*
X-46000Y96750D01*
X234750Y263000D02*
Y277750D01*
X209375Y54125D02*
X209500Y54250D01*
X209375Y42875D02*
Y54125D01*
X209250Y42750D02*
X209375Y42875D01*
X178107Y10178D02*
X178214Y10286D01*
X145429Y10071D02*
X145536Y10178D01*
X178107D01*
X145625Y3125D02*
X178125D01*
X145500Y3000D02*
X145625Y3125D01*
X178125D02*
X178250Y3250D01*
X145500Y-3500D02*
X178250D01*
X-181750Y91750D02*
X-166250D01*
X-181750Y98250D02*
X-166250D01*
X-181750Y104750D02*
X-181750Y104750D01*
X-166250D01*
X-166250Y104750D01*
X-293000Y245250D02*
X-287672Y239922D01*
Y236422D02*
Y239922D01*
X-292500Y21750D02*
X-280250D01*
X-293000Y22250D02*
X-292500Y21750D01*
X-277500Y-198750D02*
Y-147500D01*
X-285000Y-140000D02*
X-277500Y-147500D01*
X-296750Y-140000D02*
X-285000D01*
X-279500Y-200750D02*
X-277500Y-198750D01*
X-293000Y-200750D02*
X-279500D01*
X-271500Y-163000D02*
X-266500Y-158000D01*
Y-126250D01*
X-258250Y-220750D02*
X-227250D01*
X-285000Y-380250D02*
X-164000D01*
X-143375Y-359625D01*
X-290500Y-385750D02*
X-285000Y-380250D01*
X-297938Y-370500D02*
X-296688Y-371750D01*
X-298750Y-370500D02*
X-297938D01*
X-296688Y-371750D02*
X-288429D01*
X-295750Y-353257D02*
Y-339250D01*
Y-353257D02*
X-287757Y-361250D01*
X-282503D02*
X-281003Y-362750D01*
X-287757Y-361250D02*
X-282503D01*
X-281003Y-362750D02*
X-190237D01*
X-184000Y-356513D01*
Y-338250D01*
X-201000Y-321250D02*
X-184000Y-338250D01*
X-188250Y-366250D02*
X-180000Y-358000D01*
X-284029Y-366250D02*
X-188250D01*
X-296133Y-357824D02*
X-289207Y-364750D01*
X-285529D02*
X-284029Y-366250D01*
X-289207Y-364750D02*
X-285529D01*
X-186800Y-369750D02*
X-173115Y-356065D01*
X-285479Y-369750D02*
X-186800D01*
X-296454Y-364324D02*
X-292528Y-368250D01*
X-286979D01*
X-285479Y-369750D01*
X-288429Y-371750D02*
X-286929Y-373250D01*
X-184000D01*
X-158000Y-347250D01*
X-290500Y-376750D02*
X-179250D01*
X-165750Y-363250D01*
X-191750Y-163500D02*
Y-143851D01*
X-122744Y-74845D02*
Y-59021D01*
X-191750Y-143851D02*
X-122744Y-74845D01*
X-186214Y-157500D02*
Y-143265D01*
X-116250Y-73300D01*
Y-58750D01*
X-179750Y-151750D02*
Y-141750D01*
X-109750Y-71750D01*
Y-58750D01*
X-187500Y-53000D02*
X-171250Y-36750D01*
Y50519D01*
X-198500Y77769D02*
Y111250D01*
Y77769D02*
X-171250Y50519D01*
X-188000Y-44750D02*
X-174750Y-31500D01*
Y49070D01*
X-215750Y90070D02*
Y113250D01*
Y90070D02*
X-174750Y49070D01*
X-197250Y-3750D02*
Y39750D01*
X-213500Y-20000D02*
X-197250Y-3750D01*
X-190000Y-27566D02*
X-187896Y-29671D01*
X-190000Y-27566D02*
Y-21299D01*
X-187896Y-36750D02*
Y-29671D01*
X-190000Y-21299D02*
X-178250Y-9549D01*
Y47620D01*
X-200620Y69990D02*
X-178250Y47620D01*
X-212574Y69990D02*
X-200620D01*
X-243000Y-150500D02*
X-242500Y-151000D01*
X-243000Y-150500D02*
Y-131599D01*
X-248750Y-144750D02*
Y-132400D01*
Y-144750D02*
X-248500Y-145000D01*
X-254300Y-139450D02*
Y-133000D01*
X-200500Y-79200D01*
X-254300Y-139450D02*
X-254250Y-139500D01*
X-243000Y-131599D02*
X-193500Y-82099D01*
Y-19849D01*
X-181750Y-8099D01*
Y46170D01*
X-216766Y64990D02*
X-200570D01*
X-181750Y46170D01*
X-217170Y65394D02*
X-216766Y64990D01*
X-248750Y-132400D02*
X-197000Y-80649D01*
Y-18399D01*
X-185250Y-6650D01*
Y44721D01*
X-200924Y60394D02*
X-185250Y44721D01*
X-221361Y60394D02*
X-200924D01*
X-221700Y60733D02*
X-221361Y60394D01*
X-200500Y-79200D02*
Y-16950D01*
X-188750Y-5200D01*
X-196729Y51250D02*
X-188750Y43271D01*
Y-5200D02*
Y43271D01*
X-224590Y54910D02*
X-224132D01*
X-220472Y51250D01*
X-196729D01*
X-259750Y-133500D02*
X-204000Y-77750D01*
Y-15500D01*
X-192250Y-3750D01*
X-198179Y47750D02*
X-192250Y41821D01*
X-224500Y47750D02*
X-198179D01*
X-192250Y-3750D02*
Y41821D01*
X-160250Y82938D02*
X-157250Y79938D01*
Y60500D02*
Y79938D01*
X-160250Y82938D02*
Y83750D01*
X-293000Y-160250D02*
X-291750Y-161500D01*
Y-171000D02*
Y-161500D01*
X279000Y-200750D02*
X293000D01*
Y-160250D02*
X293250Y-160000D01*
Y-149500D01*
X293000Y62750D02*
Y73750D01*
X279750Y22750D02*
X292500D01*
X293000Y22250D01*
Y285750D02*
Y296250D01*
X292500Y244750D02*
X293000Y245250D01*
X279500Y244750D02*
X292500D01*
X-257750Y-254500D02*
X-244243Y-240993D01*
Y-237743D02*
X-239250Y-232750D01*
X-244243Y-240993D02*
Y-237743D01*
X-250823Y-236572D02*
X-240000Y-225750D01*
X-250823Y-240501D02*
Y-236572D01*
X-261321Y-251000D02*
X-250823Y-240501D01*
X-280500Y-249500D02*
X-270000D01*
X-283748Y-252749D02*
X-280500Y-249500D01*
X-283748Y-257749D02*
Y-252749D01*
X-268500Y-251000D02*
X-261321D01*
X-270000Y-249500D02*
X-268500Y-251000D01*
X-276500Y-254500D02*
X-257750D01*
X-143375Y-331375D02*
X-143250Y-331250D01*
X-143375Y-359625D02*
Y-331375D01*
X177750Y-400500D02*
X181750Y-404500D01*
X300000D01*
X309750Y-394750D01*
Y-375000D01*
X-76250Y-281250D02*
X-75750Y-281750D01*
X-26250D01*
X-180000Y-348750D02*
X-168750Y-337500D01*
X-180000Y-358000D02*
Y-348750D01*
X-299250Y-357250D02*
X-298676Y-357824D01*
X-296133D01*
X-298750Y-363750D02*
X-298176Y-364324D01*
X-296454D01*
X-173115Y-351459D02*
X-163906Y-342250D01*
X-173115Y-356065D02*
Y-351459D01*
D12*
X155750Y-10500D02*
X186000D01*
X303750Y-240000D02*
X317750D01*
X331000Y-226750D01*
X157250Y-87500D02*
X193000D01*
X55500Y-105750D02*
X55750Y-106000D01*
X85250D01*
D16*
X28000Y-164500D02*
X44000Y-180500D01*
Y-205250D02*
Y-180500D01*
X113750Y106208D02*
Y152250D01*
X28000Y-164500D02*
Y-146250D01*
X16750Y-175750D02*
X28000Y-164500D01*
X-246750Y-358000D02*
X-223250D01*
X-211000Y-345750D01*
X-259000D02*
X-246750Y-358000D01*
X-211000Y-345750D02*
Y-329590D01*
X-259000Y-345750D02*
Y-329500D01*
D136*
X-208750Y35000D02*
X-204863Y31113D01*
X-213000Y39250D02*
X-208750Y35000D01*
X-205250Y11657D02*
Y13265D01*
X-296750Y-79843D02*
X-205250Y11657D01*
X-204863Y13652D02*
Y31113D01*
X-205250Y13265D02*
X-204863Y13652D01*
X-296750Y-140000D02*
Y-79843D01*
X-299750Y-143000D02*
X-296750Y-140000D01*
X-300750Y-144250D02*
X-299750Y-143250D01*
Y-143000D01*
D140*
X44921Y216829D02*
D03*
X62882Y234790D02*
D03*
X42093Y249922D02*
D03*
X26960Y270711D02*
D03*
X24132Y231961D02*
D03*
X-8960Y306632D02*
D03*
X-26921Y288671D02*
D03*
X6172Y285843D02*
D03*
X9000Y252750D02*
D03*
X-11789Y267882D02*
D03*
D141*
X-192000Y-393500D02*
D03*
X-278000D02*
D03*
D142*
X-192000Y-349199D02*
D03*
X-278000D02*
D03*
D143*
X192250Y119250D02*
D03*
X352250Y-362500D02*
D03*
X353750Y-268500D02*
D03*
X320250Y-327250D02*
D03*
X-273250Y-224500D02*
D03*
X147500Y-154500D02*
D03*
X-7000Y-103500D02*
D03*
X-38000Y-69250D02*
D03*
X46500Y-167000D02*
D03*
X122250Y-235500D02*
D03*
X-100500Y-36250D02*
D03*
X-146500Y4750D02*
D03*
X-112250Y-43000D02*
D03*
X-87500Y-39750D02*
D03*
X40750Y-130500D02*
D03*
X56250Y-150500D02*
D03*
X210500Y-304500D02*
D03*
X226000D02*
D03*
X-334750Y318750D02*
D03*
X-238250Y339750D02*
D03*
X-230250Y183000D02*
D03*
X-248500Y245750D02*
D03*
X-339000Y297500D02*
D03*
X-257250Y222250D02*
D03*
X-255000Y73500D02*
D03*
X-279514Y62253D02*
D03*
X-340750Y73250D02*
D03*
X-241500Y66500D02*
D03*
X-299265Y122256D02*
D03*
X286000Y-2000D02*
D03*
X329250Y-3750D02*
D03*
X329500Y-55250D02*
D03*
X346500Y-125500D02*
D03*
X325500Y-171500D02*
D03*
X295000Y-209250D02*
D03*
X-64750Y-172750D02*
D03*
X-71000Y-125500D02*
D03*
X-104000Y-105000D02*
D03*
X-96500Y-81750D02*
D03*
X247500Y-7250D02*
D03*
X214000Y3750D02*
D03*
X228500Y-27500D02*
D03*
X192750Y-34750D02*
D03*
X218250Y-60000D02*
D03*
X269750Y-87000D02*
D03*
X217750Y-100000D02*
D03*
X238000Y-81000D02*
D03*
X218750Y-136250D02*
D03*
X273250Y-179750D02*
D03*
X308500Y-91250D02*
D03*
X96000Y-295250D02*
D03*
X303250Y-70000D02*
D03*
X199250Y8250D02*
D03*
X145500Y18000D02*
D03*
X72000Y59000D02*
D03*
X58250Y59250D02*
D03*
X-87500Y-73000D02*
D03*
X-97250Y-124000D02*
D03*
X-114250Y-133250D02*
D03*
X186000Y-10500D02*
D03*
X155750D02*
D03*
X303750Y-240000D02*
D03*
X157250Y-87500D02*
D03*
X55500Y-105750D02*
D03*
X85250Y-106000D02*
D03*
X193000Y-87500D02*
D03*
X331000Y-226750D02*
D03*
X262750Y-114250D02*
D03*
X80000Y-160000D02*
D03*
X-0Y-0D02*
D03*
X-20000Y-40000D02*
D03*
X320000Y320000D02*
D03*
Y80000D02*
D03*
X280000Y320000D02*
D03*
X300000Y200000D02*
D03*
X280000Y160000D02*
D03*
X300000Y120000D02*
D03*
X280000Y80000D02*
D03*
X300000Y40000D02*
D03*
X240000Y320000D02*
D03*
Y240000D02*
D03*
X260000Y200000D02*
D03*
X240000Y160000D02*
D03*
X260000Y120000D02*
D03*
X240000Y80000D02*
D03*
Y-240000D02*
D03*
X200000Y320000D02*
D03*
X220000Y280000D02*
D03*
X200000Y240000D02*
D03*
X220000Y200000D02*
D03*
X200000Y160000D02*
D03*
X220000Y40000D02*
D03*
X200000Y-160000D02*
D03*
Y-240000D02*
D03*
X220000Y-280000D02*
D03*
X160000Y320000D02*
D03*
X180000Y280000D02*
D03*
X160000Y240000D02*
D03*
Y160000D02*
D03*
X180000Y-200000D02*
D03*
X160000Y-240000D02*
D03*
X180000Y-280000D02*
D03*
X160000Y-320000D02*
D03*
X180000Y-360000D02*
D03*
X160000Y-400000D02*
D03*
X120000Y320000D02*
D03*
X140000Y280000D02*
D03*
X120000Y240000D02*
D03*
X140000Y200000D02*
D03*
X120000Y160000D02*
D03*
X140000Y40000D02*
D03*
Y-40000D02*
D03*
Y-200000D02*
D03*
Y-280000D02*
D03*
X120000Y-320000D02*
D03*
Y-400000D02*
D03*
X80000Y320000D02*
D03*
X100000Y280000D02*
D03*
Y40000D02*
D03*
X80000Y-0D02*
D03*
X100000Y-200000D02*
D03*
X80000Y-240000D02*
D03*
X100000Y-360000D02*
D03*
X60000Y280000D02*
D03*
Y200000D02*
D03*
X40000Y160000D02*
D03*
X60000Y-200000D02*
D03*
Y-280000D02*
D03*
X40000Y-320000D02*
D03*
X60000Y-360000D02*
D03*
X-0Y320000D02*
D03*
X20000Y280000D02*
D03*
Y200000D02*
D03*
Y40000D02*
D03*
X-0Y-80000D02*
D03*
X20000Y-120000D02*
D03*
X-0Y-160000D02*
D03*
X20000Y-360000D02*
D03*
X-40000Y320000D02*
D03*
Y240000D02*
D03*
X-20000Y120000D02*
D03*
Y40000D02*
D03*
X-40000Y-0D02*
D03*
Y-160000D02*
D03*
Y-320000D02*
D03*
X-20000Y-360000D02*
D03*
X-80000Y240000D02*
D03*
X-60000Y200000D02*
D03*
Y-40000D02*
D03*
X-80000Y-80000D02*
D03*
X-60000Y-360000D02*
D03*
X-120000Y240000D02*
D03*
X-100000Y200000D02*
D03*
X-120000Y160000D02*
D03*
X-100000Y120000D02*
D03*
X-120000Y-160000D02*
D03*
X-100000Y-360000D02*
D03*
X-120000Y-400000D02*
D03*
X-140000Y280000D02*
D03*
Y200000D02*
D03*
X-160000Y160000D02*
D03*
X-140000Y120000D02*
D03*
Y40000D02*
D03*
X-160000Y-0D02*
D03*
Y-240000D02*
D03*
X-140000Y-280000D02*
D03*
X-160000Y-320000D02*
D03*
Y-400000D02*
D03*
X-180000Y280000D02*
D03*
X-200000Y240000D02*
D03*
X-180000Y200000D02*
D03*
Y-120000D02*
D03*
X-220000Y280000D02*
D03*
X-240000Y240000D02*
D03*
Y160000D02*
D03*
X-220000Y-40000D02*
D03*
X-240000Y-80000D02*
D03*
Y-400000D02*
D03*
X-260000Y200000D02*
D03*
X-280000Y-80000D02*
D03*
X-260000Y-200000D02*
D03*
X-280000Y-320000D02*
D03*
X-300000Y200000D02*
D03*
X-320000Y-0D02*
D03*
Y-240000D02*
D03*
X-340000Y-40000D02*
D03*
X-360000Y-400000D02*
D03*
X-39250Y96750D02*
D03*
X197000Y46000D02*
D03*
X177000Y41250D02*
D03*
X163250Y75500D02*
D03*
X170758Y111005D02*
D03*
X112000Y53750D02*
D03*
X-93250Y57500D02*
D03*
X-347250Y-248250D02*
D03*
X-345000Y-7000D02*
D03*
X-212500Y-140500D02*
D03*
X-122250Y-144750D02*
D03*
X-7250Y-246000D02*
D03*
X-35250Y-263000D02*
D03*
X-10750Y-220500D02*
D03*
X-6750Y-301250D02*
D03*
X46500Y-302000D02*
D03*
X36500D02*
D03*
X-19250Y-220500D02*
D03*
X-150750Y-90250D02*
D03*
X-302000Y-261000D02*
D03*
X-311500Y220000D02*
D03*
X-350000Y240750D02*
D03*
X-327750Y255250D02*
D03*
X-293000Y-223750D02*
D03*
X151500Y152000D02*
D03*
X183250Y157000D02*
D03*
X278000Y-133250D02*
D03*
X-205750Y-208500D02*
D03*
X-346500Y-315000D02*
D03*
X-13500Y-314750D02*
D03*
X-190000Y129000D02*
D03*
X-221250Y84750D02*
D03*
X-190750Y82500D02*
D03*
X-256750Y-97500D02*
D03*
X-233750Y-58500D02*
D03*
X-164750Y-95250D02*
D03*
X-203000Y390750D02*
D03*
X201250Y390500D02*
D03*
X113750Y152250D02*
D03*
Y106208D02*
D03*
X34630Y327250D02*
D03*
X-25500Y236250D02*
D03*
X-126250Y101000D02*
D03*
Y58500D02*
D03*
X-68000Y96250D02*
D03*
X-75249Y96250D02*
D03*
Y58749D02*
D03*
X-68250Y58500D02*
D03*
X-60250Y96750D02*
D03*
X-61000Y58500D02*
D03*
X-52500Y96750D02*
D03*
X-46000D02*
D03*
X-54500Y58500D02*
D03*
X-46250Y58750D02*
D03*
X-39250Y59000D02*
D03*
X234750Y277750D02*
D03*
Y263000D02*
D03*
X203000Y69250D02*
D03*
X209500Y54250D02*
D03*
X209250Y42750D02*
D03*
X178214Y10286D02*
D03*
X178250Y3250D02*
D03*
Y-3500D02*
D03*
X-181750Y91750D02*
D03*
Y98250D02*
D03*
X-181750Y104750D02*
D03*
X-265750Y233750D02*
D03*
X-280250Y21750D02*
D03*
X-271500Y-163000D02*
D03*
X-258250Y-220750D02*
D03*
X-227250D02*
D03*
X-295750Y-339250D02*
D03*
X-262250Y-283250D02*
D03*
X-266500Y-126250D02*
D03*
X-201000Y-321250D02*
D03*
X-187500Y-301750D02*
D03*
X28000Y-146250D02*
D03*
X-191750Y-163500D02*
D03*
X-186214Y-157500D02*
D03*
X-179750Y-151750D02*
D03*
X-122744Y-59021D02*
D03*
X-116250Y-58750D02*
D03*
X-109750D02*
D03*
X145500Y-3500D02*
D03*
X145500Y3000D02*
D03*
X145429Y10071D02*
D03*
X-187500Y-53000D02*
D03*
X-166000Y-4250D02*
D03*
X-188000Y-44750D02*
D03*
X-215750Y113250D02*
D03*
X-198500Y111250D02*
D03*
X-213500Y-20000D02*
D03*
X-187896Y-36750D02*
D03*
X-242500Y-151000D02*
D03*
X-248500Y-145000D02*
D03*
X-254250Y-139500D02*
D03*
X-259750Y-133500D02*
D03*
X-212574Y69990D02*
D03*
X-217170Y65394D02*
D03*
X-221700Y60733D02*
D03*
X-166250Y104750D02*
D03*
Y98250D02*
D03*
Y91750D02*
D03*
X-160250Y83750D02*
D03*
X-157250Y60500D02*
D03*
X-224590Y54910D02*
D03*
X-224500Y47750D02*
D03*
X-311500Y-205500D02*
D03*
X-291750Y-171000D02*
D03*
X279000Y-200750D02*
D03*
X293250Y-149500D02*
D03*
X293000Y73750D02*
D03*
X279750Y22750D02*
D03*
X293000Y296250D02*
D03*
X279500Y244750D02*
D03*
X-197250Y39750D02*
D03*
X65000Y138750D02*
D03*
X-239250Y-232750D02*
D03*
X-240000Y-225750D02*
D03*
X-276500Y-254500D02*
D03*
X-290500Y-385750D02*
D03*
X-143250Y-331250D02*
D03*
X-290500Y-376750D02*
D03*
X-167250Y-314750D02*
D03*
X-296270Y-396520D02*
D03*
X184250Y-390000D02*
D03*
X177750Y-400500D02*
D03*
X351750Y-390750D02*
D03*
X309750Y-375000D02*
D03*
X16750Y-175750D02*
D03*
X-296750Y-140000D02*
D03*
X-300750Y-144250D02*
D03*
X-213000Y39250D02*
D03*
X-208750Y35000D02*
D03*
X-97250Y340750D02*
D03*
X-79750Y322500D02*
D03*
X-88500Y331500D02*
D03*
X-347750Y-122500D02*
D03*
X-326250Y-114750D02*
D03*
X94750Y-260500D02*
D03*
X43500Y-255750D02*
D03*
X17000Y-225500D02*
D03*
X-75000Y-222500D02*
D03*
X-35730Y-235730D02*
D03*
X-106000Y-226750D02*
D03*
X-86000D02*
D03*
X-56000Y-207250D02*
D03*
X-71250Y-192250D02*
D03*
X-87000Y-160250D02*
D03*
X-80969Y-93250D02*
D03*
X134500Y63500D02*
D03*
X-213000Y-306500D02*
D03*
X-256000D02*
D03*
X-291250Y-309500D02*
D03*
X-211000Y-329590D02*
D03*
X-259000Y-329500D02*
D03*
X-76250Y-281250D02*
D03*
X44000Y-205250D02*
D03*
X-299250Y-357250D02*
D03*
X-165750Y-363250D02*
D03*
X-298750Y-370500D02*
D03*
Y-363750D02*
D03*
X-158000Y-347250D02*
D03*
X-163906Y-342250D02*
D03*
X-168750Y-337500D02*
D03*
D144*
X272500Y-387000D02*
D03*
X261500D02*
D03*
X272500Y-376000D02*
D03*
X261500Y-376000D02*
D03*
X272500Y-365000D02*
D03*
X261500Y-365000D02*
D03*
D145*
X-390424Y352958D02*
G03*
X-390500Y350821I29924J-2137D01*
G01*
X-389623Y359960D02*
G03*
X-390221Y355800I29323J-6338D01*
G01*
X-385998Y370151D02*
G03*
X-387774Y366265I26330J-14378D01*
G01*
X-383145Y374738D02*
G03*
X-385459Y371138I24016J-17978D01*
G01*
X-379653Y378889D02*
G03*
X-382472Y375638I21197J-21229D01*
G01*
X-375644Y382467D02*
G03*
X-378861Y379681I17984J-24012D01*
G01*
X-371138Y385460D02*
G03*
X-374736Y383147I14377J-26330D01*
G01*
X-350821Y390500D02*
G03*
X-352953Y390424I0J-30000D01*
G01*
X390500Y350821D02*
G03*
X390424Y352962I-30000J0D01*
G01*
X225235Y390500D02*
G03*
X225196Y390500I-39J-30000D01*
G01*
X385460Y371138D02*
G03*
X383145Y374739I-26330J-14377D01*
G01*
X370151Y385998D02*
G03*
X366258Y387776I-14377J-26330D01*
G01*
X387777Y366257D02*
G03*
X385998Y370151I-28109J-10483D01*
G01*
X-366257Y387776D02*
G03*
X-370151Y385998I10484J-28108D01*
G01*
X389375Y361097D02*
G03*
X388170Y365204I-29314J-6377D01*
G01*
X-361097Y389375D02*
G03*
X-365204Y388169I6377J-29314D01*
G01*
X359960Y389623D02*
G03*
X355761Y390224I-6338J-29323D01*
G01*
X382471Y375639D02*
G03*
X379669Y378874I-24016J-17979D01*
G01*
X-388169Y365204D02*
G03*
X-389389Y361033I28108J-10484D01*
G01*
X-355762Y390224D02*
G03*
X-359999Y389614I2140J-29924D01*
G01*
X390331Y354258D02*
G03*
X390336Y354180I29926J2101D01*
G01*
X365204Y388169D02*
G03*
X361097Y389375I-10484J-28108D01*
G01*
X390224Y355761D02*
G03*
X389614Y359999I-29924J-2140D01*
G01*
X378874Y379669D02*
G03*
X375639Y382471I-21213J-21213D01*
G01*
X374739Y383145D02*
G03*
X371138Y385460I-17978J-24016D01*
G01*
X284500Y370150D02*
X356362D01*
X-390500Y-282750D02*
Y82750D01*
Y-340750D02*
Y-282750D01*
X-390500Y342229D02*
Y350821D01*
X-390424Y352958D02*
X-390221Y355800D01*
X-389623Y359960D02*
X-389622Y359961D01*
X-389389Y361033D01*
X-388169Y365204D02*
X-387774Y366265D01*
X-385998Y370151D02*
X-385459Y371138D01*
X-383145Y374738D02*
X-382472Y375638D01*
X-379653Y378889D02*
X-378861Y379681D01*
X-375644Y382467D02*
X-374736Y383147D01*
X-385998Y370151D02*
X-357250D01*
X210000Y390500D02*
X225235D01*
X-350821Y390500D02*
X-262500D01*
X390500Y338638D02*
Y350821D01*
X225235Y390500D02*
X246251Y390488D01*
X358000Y371138D02*
X385460D01*
X263523Y390477D02*
X350821Y390425D01*
X246251Y390488D02*
X263523Y390477D01*
X284500Y370150D01*
X263500Y390500D02*
X263523Y390477D01*
X356362Y369500D02*
X358000Y371138D01*
X390500Y338638D01*
X-390500Y109750D02*
X-390500Y233250D01*
X-362250Y111000D02*
Y205000D01*
X-342500Y130750D02*
Y185250D01*
X-390500Y82750D02*
X-362250Y111000D01*
X-385172Y342229D02*
X-357250Y370151D01*
X-390500Y82750D02*
Y115000D01*
Y233250D02*
X-390500Y342229D01*
X-355762Y390224D02*
X-352953Y390424D01*
X389375Y361097D02*
X389614Y359999D01*
X378874Y379669D02*
X379669Y378874D01*
X363750Y209500D02*
X364250Y210000D01*
X344500Y135750D02*
Y190250D01*
X-366257Y387776D02*
X-365204Y388169D01*
X-357250Y370151D02*
X-282849D01*
X370151Y385998D02*
X371138Y385460D01*
X365204Y388169D02*
X366258Y387776D01*
X385460Y371138D02*
X385998Y370151D01*
X390224Y355761D02*
X390331Y354258D01*
X390336Y354180D02*
X390424Y352962D01*
X390500Y89500D02*
Y338638D01*
X-361097Y389375D02*
X-359999Y389614D01*
X-262500Y390500D02*
X-210000D01*
X352963Y390424D02*
X355761Y390224D01*
X390500Y-340750D02*
X390500Y89500D01*
X344500Y190250D02*
X363750Y209500D01*
X-282849Y370151D02*
X-262500Y390500D01*
X350821Y390425D02*
X352963Y390424D01*
X363750Y116250D02*
Y116500D01*
Y210250D02*
X389750Y236250D01*
X-390500Y233250D02*
X-362250Y205000D01*
X387777Y366257D02*
X388170Y365204D01*
X363750Y116500D02*
X364250Y116000D01*
X363750Y116250D02*
X390500Y89500D01*
X-362250Y205000D02*
X-342500Y185250D01*
X-390500Y342229D02*
X-385172D01*
X359960Y389623D02*
X361097Y389375D01*
X382471Y375639D02*
X383145Y374739D01*
X344500Y135750D02*
X363750Y116500D01*
Y209500D01*
X-362250Y111000D02*
X-342500Y130750D01*
X-371138Y385460D02*
X-370151Y385998D01*
X374739Y383145D02*
X375639Y382471D01*
X363750Y209500D02*
Y210250D01*
D146*
X-293250Y246000D02*
D03*
X-331750D02*
D03*
X-293250Y285000D02*
D03*
X-331750D02*
D03*
X-293250Y23000D02*
D03*
X-331750D02*
D03*
X-293250Y62000D02*
D03*
X-331750D02*
D03*
X-293250Y-200000D02*
D03*
X-331750D02*
D03*
X-293250Y-161000D02*
D03*
X-331750D02*
D03*
X293250D02*
D03*
X331750D02*
D03*
X293250Y-200000D02*
D03*
X331750D02*
D03*
X293250Y62000D02*
D03*
X331750D02*
D03*
X293250Y23000D02*
D03*
X331750D02*
D03*
X293250Y285000D02*
D03*
X331750D02*
D03*
X293250Y246000D02*
D03*
X331750D02*
D03*
M02*
