G04*
G04 #@! TF.GenerationSoftware,Altium Limited,Altium Designer,22.2.1 (43)*
G04*
G04 Layer_Color=16711935*
%FSLAX44Y44*%
%MOMM*%
G71*
G04*
G04 #@! TF.SameCoordinates,94726236-D1AE-4565-9949-D72E77048C11*
G04*
G04*
G04 #@! TF.FilePolarity,Positive*
G04*
G01*
G75*
%ADD11C,0.2000*%
%ADD110C,0.0127*%
D11*
X-979649Y-289076D02*
Y-279079D01*
X-974650D01*
X-972984Y-280745D01*
Y-284077D01*
X-974650Y-285743D01*
X-979649D01*
X-969652Y-289076D02*
X-966320D01*
X-967986D01*
Y-279079D01*
X-969652D01*
X-959655Y-282411D02*
X-956323D01*
X-954657Y-284077D01*
Y-289076D01*
X-959655D01*
X-961321Y-287409D01*
X-959655Y-285743D01*
X-954657D01*
X-944660Y-282411D02*
X-949659D01*
X-951325Y-284077D01*
Y-287409D01*
X-949659Y-289076D01*
X-944660D01*
X-936329D02*
X-939662D01*
X-941328Y-287409D01*
Y-284077D01*
X-939662Y-282411D01*
X-936329D01*
X-934663Y-284077D01*
Y-285743D01*
X-941328D01*
X-921334Y-279079D02*
Y-289076D01*
X-916336D01*
X-914670Y-287409D01*
Y-280745D01*
X-916336Y-279079D01*
X-921334D01*
X-911338D02*
X-904673Y-289076D01*
Y-279079D02*
X-911338Y-289076D01*
X-894676Y-279079D02*
X-901341D01*
Y-284077D01*
X-898009D01*
X-901341D01*
Y-289076D01*
X-879681Y-282411D02*
X-876349D01*
X-874683Y-284077D01*
Y-289076D01*
X-879681D01*
X-881347Y-287409D01*
X-879681Y-285743D01*
X-874683D01*
X-869684Y-280745D02*
Y-282411D01*
X-871350D01*
X-868018D01*
X-869684D01*
Y-287409D01*
X-868018Y-289076D01*
X-976317Y-305872D02*
X-979649Y-302539D01*
Y-299207D01*
X-976317Y-295875D01*
X-971318Y-305872D02*
X-967986D01*
X-969652D01*
Y-295875D01*
X-971318Y-297541D01*
X-962988D02*
X-961321Y-295875D01*
X-957989D01*
X-956323Y-297541D01*
Y-304205D01*
X-957989Y-305872D01*
X-961321D01*
X-962988Y-304205D01*
Y-297541D01*
X-952991D02*
X-951325Y-295875D01*
X-947992D01*
X-946326Y-297541D01*
Y-304205D01*
X-947992Y-305872D01*
X-951325D01*
X-952991Y-304205D01*
Y-297541D01*
X-941328Y-307538D02*
X-939662Y-305872D01*
Y-304205D01*
X-941328D01*
Y-305872D01*
X-939662D01*
X-941328Y-307538D01*
X-942994Y-309204D01*
X-932997Y-305872D02*
X-929665D01*
X-931331D01*
Y-295875D01*
X-932997Y-297541D01*
X-924667D02*
X-923000Y-295875D01*
X-919668D01*
X-918002Y-297541D01*
Y-304205D01*
X-919668Y-305872D01*
X-923000D01*
X-924667Y-304205D01*
Y-297541D01*
X-914670D02*
X-913004Y-295875D01*
X-909671D01*
X-908005Y-297541D01*
Y-304205D01*
X-909671Y-305872D01*
X-913004D01*
X-914670Y-304205D01*
Y-297541D01*
X-904673Y-305872D02*
X-901341Y-302539D01*
Y-299207D01*
X-904673Y-295875D01*
X-896342Y-305872D02*
Y-299207D01*
X-894676D01*
X-893010Y-300873D01*
Y-305872D01*
Y-300873D01*
X-891344Y-299207D01*
X-889678Y-300873D01*
Y-305872D01*
X-886346D02*
Y-299207D01*
X-884679D01*
X-883013Y-300873D01*
Y-305872D01*
Y-300873D01*
X-881347Y-299207D01*
X-879681Y-300873D01*
Y-305872D01*
X-866352Y-299207D02*
Y-304205D01*
X-864686Y-305872D01*
X-863020Y-304205D01*
X-861354Y-305872D01*
X-859688Y-304205D01*
Y-299207D01*
X-856355Y-295875D02*
Y-305872D01*
Y-300873D01*
X-854689Y-299207D01*
X-851357D01*
X-849691Y-300873D01*
Y-305872D01*
X-841360D02*
X-844692D01*
X-846359Y-304205D01*
Y-300873D01*
X-844692Y-299207D01*
X-841360D01*
X-839694Y-300873D01*
Y-302539D01*
X-846359D01*
X-836362Y-305872D02*
Y-299207D01*
X-831363D01*
X-829697Y-300873D01*
Y-305872D01*
X-979649Y-316003D02*
Y-321002D01*
X-977983Y-322668D01*
X-972984D01*
Y-316003D01*
X-969652Y-326000D02*
Y-316003D01*
X-964654D01*
X-962988Y-317669D01*
Y-321002D01*
X-964654Y-322668D01*
X-969652D01*
X-952991Y-312671D02*
Y-322668D01*
X-957989D01*
X-959655Y-321002D01*
Y-317669D01*
X-957989Y-316003D01*
X-952991D01*
X-947992D02*
X-944660D01*
X-942994Y-317669D01*
Y-322668D01*
X-947992D01*
X-949659Y-321002D01*
X-947992Y-319335D01*
X-942994D01*
X-937996Y-314337D02*
Y-316003D01*
X-939662D01*
X-936329D01*
X-937996D01*
Y-321002D01*
X-936329Y-322668D01*
X-931331D02*
X-927999D01*
X-929665D01*
Y-316003D01*
X-931331D01*
X-923000Y-322668D02*
Y-316003D01*
X-918002D01*
X-916336Y-317669D01*
Y-322668D01*
X-909671Y-326000D02*
X-908005D01*
X-906339Y-324334D01*
Y-316003D01*
X-911338D01*
X-913004Y-317669D01*
Y-321002D01*
X-911338Y-322668D01*
X-906339D01*
D110*
X-290649Y-230000D02*
G03*
X-231649Y-289000I59000J0D01*
G01*
Y289000D02*
G03*
X-290649Y230000I0J-59000D01*
G01*
X287351D02*
G03*
X228351Y289000I-59000J0D01*
G01*
Y-289000D02*
G03*
X287351Y-230000I0J59000D01*
G01*
X88851Y-279000D02*
G03*
X98851Y-289000I10000J0D01*
G01*
X88851Y-239000D02*
G03*
X78851Y-229000I-10000J0D01*
G01*
X-62149D02*
G03*
X-72149Y-239000I0J-10000D01*
G01*
X-82149Y-289000D02*
G03*
X-72149Y-279000I0J10000D01*
G01*
X5000Y0D02*
G03*
X5000Y0I-5000J0D01*
G01*
X-290649Y-230000D02*
Y230000D01*
X-231649Y289000D02*
X228351D01*
X287351Y-230000D02*
Y230000D01*
X98851Y-289000D02*
X228351D01*
X88851Y-279000D02*
Y-239000D01*
X-62149Y-229000D02*
X78851D01*
X-72149Y-279000D02*
Y-239000D01*
X-231649Y-289000D02*
X-82149D01*
M02*
