G04*
G04 #@! TF.GenerationSoftware,Altium Limited,Altium Designer,22.2.1 (43)*
G04*
G04 Layer_Color=32896*
%FSLAX44Y44*%
%MOMM*%
G71*
G04*
G04 #@! TF.SameCoordinates,94726236-D1AE-4565-9949-D72E77048C11*
G04*
G04*
G04 #@! TF.FilePolarity,Positive*
G04*
G01*
G75*
%ADD11C,0.2000*%
%ADD13C,0.1500*%
D11*
X19700Y241300D02*
G03*
X19700Y241300I-7000J0D01*
G01*
X-5700D02*
G03*
X-5700Y241300I-7000J0D01*
G01*
X70500Y215900D02*
G03*
X70500Y215900I-7000J0D01*
G01*
X45100D02*
G03*
X45100Y215900I-7000J0D01*
G01*
X19700Y190500D02*
G03*
X19700Y190500I-7000J0D01*
G01*
X-5700D02*
G03*
X-5700Y190500I-7000J0D01*
G01*
X-31100Y215900D02*
G03*
X-31100Y215900I-7000J0D01*
G01*
X-56500D02*
G03*
X-56500Y215900I-7000J0D01*
G01*
X70500Y190500D02*
G03*
X70500Y190500I-7000J0D01*
G01*
X45100D02*
G03*
X45100Y190500I-7000J0D01*
G01*
X19700Y215900D02*
G03*
X19700Y215900I-7000J0D01*
G01*
X-5700D02*
G03*
X-5700Y215900I-7000J0D01*
G01*
X-31100Y190500D02*
G03*
X-31100Y190500I-7000J0D01*
G01*
X-56500D02*
G03*
X-56500Y190500I-7000J0D01*
G01*
X224612Y230000D02*
X230000Y235388D01*
X232694Y232694D02*
X237184Y237184D01*
X222816Y222816D02*
X227306Y227306D01*
X231796Y242572D02*
X242572Y231796D01*
X217428Y228204D02*
X228204Y217428D01*
X-235388Y-230000D02*
X-230000Y-224612D01*
X-227306Y-227306D02*
X-222816Y-222816D01*
X-237184Y-237184D02*
X-232694Y-232694D01*
X-228204Y-217428D02*
X-217428Y-228204D01*
X-242572Y-231796D02*
X-231796Y-242572D01*
X224612Y-230000D02*
X230000Y-224612D01*
X232694Y-227306D02*
X237184Y-222816D01*
X222816Y-237184D02*
X227306Y-232694D01*
X231796Y-217428D02*
X242572Y-228204D01*
X217428Y-231796D02*
X228204Y-242572D01*
X-235388Y230000D02*
X-230000Y235388D01*
X-227306Y232694D02*
X-222816Y237184D01*
X-237184Y222816D02*
X-232694Y227306D01*
X-228204Y242572D02*
X-217428Y231796D01*
X-242572Y228204D02*
X-231796Y217428D01*
D13*
X242374Y252981D02*
X252981Y242374D01*
X207019Y217626D02*
X217626Y207019D01*
X205251Y240607D02*
X219393Y254749D01*
X240607Y205251D02*
X254749Y219393D01*
X-217626Y-207019D02*
X-207019Y-217626D01*
X-252981Y-242374D02*
X-242374Y-252981D01*
X-254749Y-219393D02*
X-240607Y-205251D01*
X-219393Y-254749D02*
X-205251Y-240607D01*
X242374Y-207019D02*
X252981Y-217626D01*
X207019Y-242374D02*
X217626Y-252981D01*
X205251Y-219393D02*
X219393Y-205251D01*
X240607Y-254749D02*
X254749Y-240607D01*
X-217626Y252981D02*
X-207019Y242374D01*
X-252981Y217626D02*
X-242374Y207019D01*
X-254749Y240607D02*
X-240607Y254749D01*
X-219393Y205251D02*
X-205251Y219393D01*
M02*
