G04*
G04 #@! TF.GenerationSoftware,Altium Limited,Altium Designer,22.2.1 (43)*
G04*
G04 Layer_Color=65535*
%FSLAX44Y44*%
%MOMM*%
G71*
G04*
G04 #@! TF.SameCoordinates,94726236-D1AE-4565-9949-D72E77048C11*
G04*
G04*
G04 #@! TF.FilePolarity,Positive*
G04*
G01*
G75*
%ADD10C,0.2500*%
%ADD11C,0.2000*%
%ADD12C,0.2540*%
%ADD13C,0.1500*%
%ADD14C,0.4000*%
D10*
X-130256Y-240500D02*
G03*
X-130256Y-240500I-1250J0D01*
G01*
X-264000Y114500D02*
G03*
X-264000Y114500I-1250J0D01*
G01*
X-90256Y-199000D02*
G03*
X-90256Y-199000I-1250J0D01*
G01*
X-125750Y-203506D02*
G03*
X-125750Y-203506I-1250J0D01*
G01*
X-234164Y186866D02*
G03*
X-234164Y186866I-1250J0D01*
G01*
X-250250Y-167000D02*
G03*
X-250250Y-167000I-1250J0D01*
G01*
D11*
X256500Y188000D02*
G03*
X256500Y188000I-7000J0D01*
G01*
X15000Y-93000D02*
G03*
X15000Y-93000I-7000J0D01*
G01*
X39000D02*
G03*
X39000Y-93000I-7000J0D01*
G01*
X27000Y-104000D02*
G03*
X27000Y-104000I-7000J0D01*
G01*
X2000Y-103000D02*
G03*
X2000Y-103000I-7000J0D01*
G01*
X-11000Y-93000D02*
G03*
X-11000Y-93000I-7000J0D01*
G01*
X-24000Y-103000D02*
G03*
X-24000Y-103000I-7000J0D01*
G01*
X-65000Y-106250D02*
G03*
X-65000Y-106250I-7000J0D01*
G01*
Y-124500D02*
G03*
X-65000Y-124500I-7000J0D01*
G01*
X-269500Y-137750D02*
G03*
X-269500Y-137750I-7000J0D01*
G01*
X-252500Y-138000D02*
G03*
X-252500Y-138000I-7000J0D01*
G01*
X-173450Y-248500D02*
X-146550D01*
X-173450Y-232839D02*
Y-232500D01*
Y-248500D02*
Y-248161D01*
Y-232500D02*
X-146550D01*
Y-232839D02*
Y-232500D01*
Y-248500D02*
Y-248161D01*
X-182581Y-251689D02*
X-158459Y-251689D01*
X-182581Y-268811D02*
X-158459Y-268811D01*
X-171031Y-142469D02*
X-137969D01*
X-171031Y-166031D02*
X-137969D01*
X177019Y-206010D02*
X183383Y-199646D01*
X-200354Y-216617D02*
X-193990Y-222981D01*
X-183383Y199646D02*
X-177019Y206010D01*
X193990Y222981D02*
X200354Y216617D01*
X-189561Y162669D02*
Y186791D01*
X-172439Y162669D02*
Y186791D01*
X-168000Y156791D02*
X-159528D01*
X-168000Y139209D02*
X-159528D01*
X-169061Y134561D02*
X-144939D01*
X-169061Y117439D02*
X-144939D01*
X-252750Y128000D02*
X-243750Y119000D01*
X-223750D02*
X-214750Y128000D01*
X-223750Y169000D02*
X-214750Y160000D01*
X-252750Y160000D02*
X-243750Y169000D01*
X-258750Y134000D02*
Y154000D01*
X-243750Y169000D02*
X-223750D01*
X-243750Y119000D02*
X-223750D01*
X-208750Y134000D02*
Y154000D01*
X202000Y150500D02*
X210000D01*
X202000Y143250D02*
Y150500D01*
Y121500D02*
X210000D01*
X202000D02*
Y128750D01*
X244689Y161189D02*
X268811D01*
X244689Y178311D02*
X268811Y178311D01*
X-133031Y-170482D02*
Y-162518D01*
X-105969Y-170482D02*
Y-162518D01*
X-154505Y-198250D02*
X-146505D01*
Y-191000D01*
X-154505Y-169250D02*
X-146505D01*
Y-176500D02*
Y-169250D01*
X-172031Y-228781D02*
X-138969D01*
X-172031Y-205219D02*
X-138969D01*
X-133450Y-207000D02*
X-106550D01*
X-133450Y-191339D02*
Y-191000D01*
Y-207000D02*
Y-206661D01*
Y-191000D02*
X-106550Y-191000D01*
Y-191339D02*
Y-191000D01*
Y-207000D02*
Y-206661D01*
X-119000Y-245450D02*
Y-218550D01*
X-135000Y-245450D02*
X-134661D01*
X-119339D02*
X-119000D01*
X-135000D02*
Y-218550D01*
X-134661D01*
X-119339D02*
X-119000D01*
X-116561Y-211939D02*
X-116561Y-236061D01*
X-99439D02*
X-99439Y-211939D01*
X66189Y-225061D02*
Y-200939D01*
X83311Y-225061D02*
Y-200939D01*
X48939Y-200939D02*
X48939Y-225061D01*
X66061D02*
X66061Y-200939D01*
X-311Y-225561D02*
X-311Y-201439D01*
X16811D02*
X16811Y-225561D01*
X-17561Y-225561D02*
Y-201439D01*
X-439Y-225561D02*
Y-201439D01*
X-34811Y-225561D02*
Y-201439D01*
X-17689Y-225561D02*
Y-201439D01*
X-52061Y-225561D02*
Y-201439D01*
X-34939Y-225561D02*
Y-201439D01*
X-69311Y-225561D02*
Y-201439D01*
X-52189Y-225561D02*
Y-201439D01*
X-86561Y-201439D02*
X-86561Y-225561D01*
X-69439D02*
X-69439Y-201439D01*
X-236121Y205251D02*
X-223393Y205251D01*
X-209251Y232121D02*
X-209251Y219393D01*
X-244607Y254749D02*
X-231879Y254749D01*
X-258749Y240607D02*
X-258749Y227879D01*
X-258749Y219393D02*
X-244607Y205251D01*
X-258749Y240607D02*
X-244607Y254749D01*
X-223393Y205251D02*
X-209251Y219393D01*
X-223393Y254749D02*
X-209251Y240607D01*
X-288000Y89400D02*
X-251000D01*
Y-88400D02*
Y89400D01*
X-288000Y-88400D02*
X-251000D01*
X-280250Y-150250D02*
X-260250D01*
X-280250Y-173750D02*
X-260250Y-173750D01*
X-280331Y-191561D02*
X-256209D01*
X-280331Y-174439D02*
X-256209D01*
X126689Y222581D02*
X126689Y198459D01*
X143811D02*
X143811Y222581D01*
X106709Y214264D02*
Y222736D01*
X124291Y214264D02*
Y222736D01*
X145939Y175561D02*
X170061D01*
X145939Y158439D02*
X170061D01*
X189561Y159939D02*
Y184061D01*
X172439Y159939D02*
Y184061D01*
X160527Y156791D02*
X169000D01*
X160527Y139209D02*
X169000D01*
X-278502Y74002D02*
X-277003Y75501D01*
Y78500D01*
X-278502Y80000D01*
X-284500D01*
X-286000Y78500D01*
Y75501D01*
X-284500Y74002D01*
X-286000Y71003D02*
X-277003D01*
Y66504D01*
X-278502Y65005D01*
X-281501D01*
X-283001Y66504D01*
Y71003D01*
X-286000Y56008D02*
Y62006D01*
X-280002Y56008D01*
X-278502D01*
X-277003Y57507D01*
Y60506D01*
X-278502Y62006D01*
X-286000Y53009D02*
Y50010D01*
Y51509D01*
X-277003D01*
X-278502Y53009D01*
Y45511D02*
X-277003Y44012D01*
Y41013D01*
X-278502Y39513D01*
X-284500D01*
X-286000Y41013D01*
Y44012D01*
X-284500Y45511D01*
X-278502D01*
X-286000Y30516D02*
Y36514D01*
X-280002Y30516D01*
X-278502D01*
X-277003Y32016D01*
Y35015D01*
X-278502Y36514D01*
X-277003Y18520D02*
X-284500D01*
X-286000Y17020D01*
Y14021D01*
X-284500Y12522D01*
X-277003D01*
X-278502Y3525D02*
X-277003Y5024D01*
Y8023D01*
X-278502Y9523D01*
X-280002D01*
X-281501Y8023D01*
Y5024D01*
X-283001Y3525D01*
X-284500D01*
X-286000Y5024D01*
Y8023D01*
X-284500Y9523D01*
X-277003Y526D02*
X-286000D01*
Y-3973D01*
X-284500Y-5472D01*
X-283001D01*
X-281501Y-3973D01*
Y526D01*
Y-3973D01*
X-280002Y-5472D01*
X-278502D01*
X-277003Y-3973D01*
Y526D01*
X-281501Y-8471D02*
Y-14469D01*
X-278502Y-18968D02*
X-280002D01*
Y-17469D01*
Y-20468D01*
Y-18968D01*
X-284500D01*
X-286000Y-20468D01*
Y-26466D02*
Y-29465D01*
X-284500Y-30964D01*
X-281501D01*
X-280002Y-29465D01*
Y-26466D01*
X-281501Y-24966D01*
X-284500D01*
X-286000Y-26466D01*
X-281501Y-33963D02*
Y-39961D01*
X-277003Y-42960D02*
X-284500D01*
X-286000Y-44460D01*
Y-47459D01*
X-284500Y-48958D01*
X-277003D01*
X-286000Y-51957D02*
X-280002D01*
X-277003Y-54956D01*
X-280002Y-57955D01*
X-286000D01*
X-281501D01*
Y-51957D01*
X-286000Y-60954D02*
X-277003D01*
Y-65453D01*
X-278502Y-66953D01*
X-281501D01*
X-283001Y-65453D01*
Y-60954D01*
Y-63953D02*
X-286000Y-66953D01*
X-277003Y-69952D02*
Y-75950D01*
Y-72951D01*
X-286000D01*
D12*
X170700Y175220D02*
G03*
X170700Y175220I-1270J0D01*
G01*
D13*
X-278000Y-119250D02*
Y-93000D01*
X-262000D01*
Y-119250D02*
Y-93000D01*
X-278000Y-119250D02*
X-262000D01*
X-158000Y163000D02*
Y189250D01*
X-142000D01*
Y163000D02*
Y189250D01*
X-158000Y163000D02*
X-142000D01*
X132650Y118250D02*
X158900D01*
X132650D02*
Y134250D01*
X158900D01*
Y118250D02*
Y134250D01*
X103000Y150000D02*
Y190000D01*
X143000Y150000D02*
Y190000D01*
D14*
X276500Y111500D02*
X276500Y-133500D01*
X-246500Y-133501D02*
X276500Y-133500D01*
X-246500Y111500D02*
X-246500Y-133501D01*
X-246500Y111500D02*
X276500Y111500D01*
M02*
