G04*
G04 #@! TF.GenerationSoftware,Altium Limited,Altium Designer,22.2.1 (43)*
G04*
G04 Layer_Physical_Order=2*
G04 Layer_Color=16711680*
%FSLAX44Y44*%
%MOMM*%
G71*
G04*
G04 #@! TF.SameCoordinates,94726236-D1AE-4565-9949-D72E77048C11*
G04*
G04*
G04 #@! TF.FilePolarity,Positive*
G04*
G01*
G75*
%ADD11C,0.2000*%
%ADD91C,1.0000*%
%ADD99C,0.7000*%
%ADD100C,0.8000*%
%ADD104C,2.4000*%
%ADD105C,1.5000*%
%ADD106C,0.7000*%
G04:AMPARAMS|DCode=107|XSize=1.1mm|YSize=0.9mm|CornerRadius=0mm|HoleSize=0mm|Usage=FLASHONLY|Rotation=315.000|XOffset=0mm|YOffset=0mm|HoleType=Round|Shape=Rectangle|*
%AMROTATEDRECTD107*
4,1,4,-0.7071,0.0707,-0.0707,0.7071,0.7071,-0.0707,0.0707,-0.7071,-0.7071,0.0707,0.0*
%
%ADD107ROTATEDRECTD107*%

D11*
X-68750Y80500D02*
Y133250D01*
X-38100Y163900D01*
X-76250Y90000D02*
X-76000Y89750D01*
X-76250Y90000D02*
Y130841D01*
X1750Y18500D02*
X2250Y18000D01*
X15000D01*
X38750Y41750D01*
X1500Y30500D02*
X16500D01*
X38750Y52750D01*
X48250Y265750D02*
X106750D01*
X30000Y247500D02*
X48250Y265750D01*
X35850Y-162900D02*
X52500Y-146250D01*
Y-126750D01*
X-80741Y-162900D02*
X35850D01*
X-88591Y-170750D02*
X-80741Y-162900D01*
X-141000Y-170750D02*
X-88591D01*
X-106250Y-193500D02*
X-79250Y-166500D01*
X53750D01*
X-148750Y-193500D02*
X-106250D01*
X-38100Y190500D02*
X-29000Y199600D01*
Y227750D01*
X-38000Y236750D02*
X-29000Y227750D01*
X-38050Y215950D02*
Y226450D01*
X-38100Y215900D02*
X-38050Y215950D01*
Y226450D02*
X-38000Y226500D01*
X-76250Y130841D02*
X-47750Y159341D01*
Y206250D01*
X-38100Y215900D01*
Y163900D02*
Y190500D01*
X-82000Y281250D02*
X-77000Y276250D01*
X-160250Y281250D02*
X-82000D01*
X-77000Y255500D02*
Y276250D01*
Y255500D02*
X-63750Y242250D01*
X-63625Y216025D02*
X-63500Y215900D01*
X-63750Y242250D02*
X-63625Y242125D01*
Y216025D02*
Y242125D01*
X-63500Y178000D02*
Y190500D01*
Y178000D02*
X-63500Y178000D01*
X-63500Y190500D02*
X-63500Y190500D01*
X-2750Y200450D02*
Y228500D01*
X-12700Y190500D02*
X-2750Y200450D01*
X-12600Y228400D02*
X-12500Y228500D01*
X-12700Y215900D02*
X-12600Y216000D01*
Y228400D01*
X24000Y201800D02*
Y222500D01*
X12700Y190500D02*
X24000Y201800D01*
X18000Y228500D02*
X24000Y222500D01*
X7500Y223250D02*
X12700Y218050D01*
X7500Y223250D02*
Y228500D01*
X12700Y215900D02*
Y218050D01*
X6500Y95000D02*
X23250Y111750D01*
Y139500D01*
X6500Y83500D02*
Y95000D01*
X-1750Y75250D02*
X6500Y83500D01*
X-1500Y87750D02*
Y100750D01*
X13250Y115500D01*
Y139500D01*
X15750Y87750D02*
X33500Y105500D01*
Y139500D01*
X15625Y-42000D02*
X31125Y-57500D01*
X31750D01*
D91*
X12700Y241300D02*
D03*
X-12700D02*
D03*
X63500Y215900D02*
D03*
X38100D02*
D03*
X12700Y190500D02*
D03*
X-12700D02*
D03*
X-38100Y215900D02*
D03*
X-63500D02*
D03*
X63500Y190500D02*
D03*
X38100D02*
D03*
X12700Y215900D02*
D03*
X-12700D02*
D03*
X-38100Y190500D02*
D03*
X-63500D02*
D03*
D99*
X38100Y159044D02*
X86144Y111000D01*
X114750D01*
X38100Y159044D02*
Y190500D01*
X214750Y44000D02*
X248500D01*
D100*
X45250Y237000D02*
X81250D01*
X81500Y236750D01*
X38483Y216283D02*
Y230233D01*
X38100Y215900D02*
X38483Y216283D01*
Y230233D02*
X45250Y237000D01*
X105000Y125750D02*
X128500D01*
X63500Y167250D02*
X105000Y125750D01*
X63500Y167250D02*
Y190500D01*
D104*
X248500Y44000D02*
D03*
Y-66000D02*
D03*
D105*
X-266000Y64000D02*
D03*
X-262000Y38600D02*
D03*
X-266000Y13200D02*
D03*
X-262000Y-12200D02*
D03*
X-266000Y-37600D02*
D03*
X-262000Y-63000D02*
D03*
D106*
X-202250Y148250D02*
D03*
X-68750Y80500D02*
D03*
X-76000Y89750D02*
D03*
X1750Y18500D02*
D03*
X1500Y30500D02*
D03*
X38750Y41750D02*
D03*
Y52750D02*
D03*
X-275540Y-191710D02*
D03*
X114750Y111000D02*
D03*
X106750Y265750D02*
D03*
X30000Y247500D02*
D03*
X81500Y236750D02*
D03*
X214750Y44000D02*
D03*
X-141000Y-170750D02*
D03*
X-148750Y-193500D02*
D03*
X52500Y-126750D02*
D03*
X53750Y-166500D02*
D03*
X-182500Y-138250D02*
D03*
X-163758Y-141508D02*
D03*
X-38000Y236750D02*
D03*
X-160250Y281250D02*
D03*
X-63750Y242250D02*
D03*
X128500Y125750D02*
D03*
X-63500Y178000D02*
D03*
X18000Y228500D02*
D03*
X7500D02*
D03*
X-2750D02*
D03*
X-12500D02*
D03*
X-38000Y226500D02*
D03*
X-1750Y75250D02*
D03*
X-1500Y87750D02*
D03*
X15750D02*
D03*
X15625Y-42000D02*
D03*
X31750Y-57500D02*
D03*
X33500Y139500D02*
D03*
X23250D02*
D03*
X13250D02*
D03*
X264020Y179730D02*
D03*
X221005Y153495D02*
D03*
X232500Y145500D02*
D03*
X209250D02*
D03*
X189730Y164730D02*
D03*
X135250Y227000D02*
D03*
X115500Y243250D02*
D03*
X162000Y148000D02*
D03*
X174500Y198000D02*
D03*
X165270Y158020D02*
D03*
X189250Y148000D02*
D03*
X158000Y208750D02*
D03*
Y177250D02*
D03*
X-177527Y134527D02*
D03*
X-173500Y126000D02*
D03*
X-188000Y-260250D02*
D03*
X-108000Y-241000D02*
D03*
X-127000Y-225000D02*
D03*
X-198750Y-165250D02*
D03*
D107*
X230177Y257400D02*
D03*
X257400Y230177D02*
D03*
X202600Y229823D02*
D03*
X229823Y202600D02*
D03*
X-229823Y-202600D02*
D03*
X-202600Y-229823D02*
D03*
X-257400Y-230177D02*
D03*
X-230177Y-257400D02*
D03*
X230177Y-202600D02*
D03*
X257400Y-229823D02*
D03*
X202600Y-230177D02*
D03*
X229823Y-257400D02*
D03*
X-229823Y257400D02*
D03*
X-202600Y230177D02*
D03*
X-257400Y229823D02*
D03*
X-230177Y202600D02*
D03*
M02*
