G04*
G04 #@! TF.GenerationSoftware,Altium Limited,Altium Designer,23.2.1 (34)*
G04*
G04 Layer_Physical_Order=1*
G04 Layer_Color=255*
%FSLAX44Y44*%
%MOMM*%
G71*
G04*
G04 #@! TF.SameCoordinates,D71E7737-13ED-4BDA-A6DE-6AB0D4F083BE*
G04*
G04*
G04 #@! TF.FilePolarity,Positive*
G04*
G01*
G75*
%ADD12C,0.2000*%
%ADD16R,1.1000X1.2000*%
%ADD22R,1.3000X8.0000*%
%ADD23R,4.0000X2.0000*%
%ADD24R,8.0000X1.2000*%
%ADD25R,3.0000X4.0000*%
%ADD30C,5.4000*%
%ADD36R,1.5000X0.3200*%
%ADD37R,1.0000X1.7000*%
%ADD38C,1.5000*%
%ADD39C,1.0000*%
%ADD40C,0.8000*%
%ADD41C,0.5000*%
%ADD42C,0.3000*%
%ADD43O,2.8000X1.7000*%
%ADD44C,2.0000*%
%ADD45O,2.1000X1.3000*%
%ADD46O,1.9000X1.1000*%
%ADD47C,1.5000*%
%ADD48C,0.5000*%
%ADD49C,1.2700*%
G36*
X-202635Y222196D02*
X-202256Y221569D01*
X-202250Y221542D01*
Y220906D01*
X-201413Y218885D01*
X-199865Y217337D01*
X-197844Y216500D01*
X-195656D01*
X-193634Y217337D01*
X-192500Y218472D01*
X-191366Y217337D01*
X-189344Y216500D01*
X-187156D01*
X-185135Y217337D01*
X-184000Y218472D01*
X-182866Y217337D01*
X-180844Y216500D01*
X-178656D01*
X-176635Y217337D01*
X-175500Y218472D01*
X-174366Y217337D01*
X-172344Y216500D01*
X-170156D01*
X-168134Y217337D01*
X-167000Y218472D01*
X-165865Y217337D01*
X-163844Y216500D01*
X-161656D01*
X-159635Y217337D01*
X-158500Y218472D01*
X-157366Y217337D01*
X-155344Y216500D01*
X-153156D01*
X-151135Y217337D01*
X-150000Y218472D01*
X-148865Y217337D01*
X-146844Y216500D01*
X-144656D01*
X-142634Y217337D01*
X-141500Y218472D01*
X-140365Y217337D01*
X-138344Y216500D01*
X-136156D01*
X-134135Y217337D01*
X-133000Y218472D01*
X-131866Y217337D01*
X-129844Y216500D01*
X-127656D01*
X-125634Y217337D01*
X-124500Y218472D01*
X-123365Y217337D01*
X-121344Y216500D01*
X-119156D01*
X-117135Y217337D01*
X-116000Y218472D01*
X-114866Y217337D01*
X-112844Y216500D01*
X-110656D01*
X-108635Y217337D01*
X-107500Y218472D01*
X-106365Y217337D01*
X-104344Y216500D01*
X-102156D01*
X-100134Y217337D01*
X-98587Y218885D01*
X-97750Y220906D01*
Y221539D01*
X-97733Y221610D01*
X-97325Y222244D01*
X-95861Y223361D01*
X-30000Y223361D01*
X-28167D01*
X-24533Y222883D01*
X-20993Y221934D01*
X-17607Y220531D01*
X-14432Y218699D01*
X-11524Y216467D01*
X-8933Y213875D01*
X-6701Y210967D01*
X-4869Y207793D01*
X-3466Y204407D01*
X-2517Y200867D01*
X-2039Y197233D01*
Y195400D01*
Y12306D01*
X-4039Y11825D01*
X-5625Y14937D01*
X-8261Y18566D01*
X-11434Y21739D01*
X-15063Y24375D01*
X-19060Y26412D01*
X-23326Y27798D01*
X-27757Y28500D01*
X-32243D01*
X-36674Y27798D01*
X-40940Y26412D01*
X-44937Y24375D01*
X-48566Y21739D01*
X-51739Y18566D01*
X-54375Y14937D01*
X-56412Y10940D01*
X-57798Y6674D01*
X-58500Y2243D01*
Y-2243D01*
X-57798Y-6674D01*
X-56412Y-10940D01*
X-54375Y-14937D01*
X-51739Y-18566D01*
X-48566Y-21739D01*
X-44937Y-24375D01*
X-40940Y-26412D01*
X-36674Y-27798D01*
X-32243Y-28500D01*
X-27757D01*
X-23326Y-27798D01*
X-19060Y-26412D01*
X-15063Y-24375D01*
X-11434Y-21739D01*
X-8261Y-18566D01*
X-5625Y-14937D01*
X-4039Y-11825D01*
X-2039Y-12306D01*
Y-195400D01*
Y-197233D01*
X-2517Y-200867D01*
X-3466Y-204407D01*
X-4869Y-207793D01*
X-6701Y-210968D01*
X-8933Y-213875D01*
X-11524Y-216467D01*
X-14432Y-218699D01*
X-17607Y-220531D01*
X-20993Y-221934D01*
X-24533Y-222882D01*
X-28167Y-223361D01*
X-30000Y-223361D01*
X-467196Y-223361D01*
X-467353Y-221361D01*
X-466326Y-221198D01*
X-462060Y-219812D01*
X-458063Y-217775D01*
X-454434Y-215139D01*
X-451261Y-211966D01*
X-448625Y-208337D01*
X-446588Y-204340D01*
X-445202Y-200074D01*
X-444500Y-195643D01*
Y-191157D01*
X-445202Y-186726D01*
X-446588Y-182460D01*
X-448625Y-178463D01*
X-451261Y-174834D01*
X-454434Y-171661D01*
X-458063Y-169025D01*
X-462060Y-166988D01*
X-466326Y-165602D01*
X-470757Y-164900D01*
X-475243D01*
X-479674Y-165602D01*
X-483940Y-166988D01*
X-487937Y-169025D01*
X-491567Y-171661D01*
X-494739Y-174834D01*
X-497375Y-178463D01*
X-499412Y-182460D01*
X-500798Y-186726D01*
X-501500Y-191157D01*
Y-195643D01*
X-500798Y-200074D01*
X-499412Y-204340D01*
X-497375Y-208337D01*
X-494739Y-211966D01*
X-491567Y-215139D01*
X-487937Y-217775D01*
X-483940Y-219812D01*
X-479674Y-221198D01*
X-478647Y-221361D01*
X-478804Y-223361D01*
X-660000D01*
X-661833D01*
X-665467Y-222882D01*
X-669007Y-221934D01*
X-672393Y-220531D01*
X-675568Y-218699D01*
X-678475Y-216467D01*
X-681067Y-213876D01*
X-683299Y-210968D01*
X-685131Y-207793D01*
X-686534Y-204407D01*
X-687483Y-200867D01*
X-687961Y-197233D01*
X-687961Y-195400D01*
X-687961Y195400D01*
Y197233D01*
X-687483Y200867D01*
X-686534Y204407D01*
X-685131Y207793D01*
X-683298Y210968D01*
X-681067Y213875D01*
X-678475Y216467D01*
X-675567Y218699D01*
X-672393Y220531D01*
X-669007Y221934D01*
X-665467Y222882D01*
X-661833Y223361D01*
X-660000Y223361D01*
X-494804Y223361D01*
X-494646Y221361D01*
X-495674Y221198D01*
X-499940Y219812D01*
X-503937Y217775D01*
X-507566Y215139D01*
X-510739Y211966D01*
X-513375Y208337D01*
X-515412Y204340D01*
X-516798Y200074D01*
X-517500Y195643D01*
Y191157D01*
X-516798Y186726D01*
X-515412Y182460D01*
X-513375Y178463D01*
X-510739Y174834D01*
X-507566Y171661D01*
X-503937Y169025D01*
X-499940Y166988D01*
X-495674Y165602D01*
X-491243Y164900D01*
X-486757D01*
X-482326Y165602D01*
X-478060Y166988D01*
X-474063Y169025D01*
X-470434Y171661D01*
X-467261Y174834D01*
X-464625Y178463D01*
X-462588Y182460D01*
X-461202Y186726D01*
X-460500Y191157D01*
Y195643D01*
X-461202Y200074D01*
X-462588Y204340D01*
X-464625Y208337D01*
X-467261Y211966D01*
X-470434Y215139D01*
X-474063Y217775D01*
X-478060Y219812D01*
X-482326Y221198D01*
X-483354Y221361D01*
X-483196Y223361D01*
X-204139Y223361D01*
X-202635Y222196D01*
D02*
G37*
%LPC*%
G36*
X-544500Y207586D02*
X-555500D01*
X-558111Y207243D01*
X-560543Y206235D01*
X-562632Y204632D01*
X-564235Y202543D01*
X-565243Y200110D01*
X-565586Y197500D01*
X-565243Y194890D01*
X-564235Y192457D01*
X-562632Y190368D01*
X-560543Y188765D01*
X-558111Y187757D01*
X-555500Y187414D01*
X-544500D01*
X-541889Y187757D01*
X-539457Y188765D01*
X-537368Y190368D01*
X-535765Y192457D01*
X-534757Y194890D01*
X-534414Y197500D01*
X-534757Y200110D01*
X-535765Y202543D01*
X-537368Y204632D01*
X-539457Y206235D01*
X-541889Y207243D01*
X-544500Y207586D01*
D02*
G37*
G36*
X-624500Y206500D02*
X-637500D01*
Y186500D01*
X-624500D01*
Y206500D01*
D02*
G37*
G36*
X-662500Y206500D02*
X-675500D01*
Y186500D01*
X-662500D01*
Y206500D01*
D02*
G37*
G36*
X-544500Y182186D02*
X-555500D01*
X-558111Y181843D01*
X-560543Y180835D01*
X-562632Y179232D01*
X-564235Y177143D01*
X-565243Y174711D01*
X-565586Y172100D01*
X-565243Y169489D01*
X-564235Y167057D01*
X-562632Y164968D01*
X-560543Y163365D01*
X-558111Y162357D01*
X-555500Y162014D01*
X-544500D01*
X-541889Y162357D01*
X-539457Y163365D01*
X-537368Y164968D01*
X-535765Y167057D01*
X-534757Y169489D01*
X-534414Y172100D01*
X-534757Y174711D01*
X-535765Y177143D01*
X-537368Y179232D01*
X-539457Y180835D01*
X-541889Y181843D01*
X-544500Y182186D01*
D02*
G37*
G36*
Y156786D02*
X-555500D01*
X-558111Y156443D01*
X-560543Y155435D01*
X-562632Y153832D01*
X-564235Y151743D01*
X-565243Y149311D01*
X-565586Y146700D01*
X-565243Y144089D01*
X-564235Y141657D01*
X-562632Y139568D01*
X-560543Y137965D01*
X-558111Y136957D01*
X-555500Y136614D01*
X-544500D01*
X-541889Y136957D01*
X-539457Y137965D01*
X-537368Y139568D01*
X-535765Y141657D01*
X-534757Y144089D01*
X-534414Y146700D01*
X-534757Y149311D01*
X-535765Y151743D01*
X-537368Y153832D01*
X-539457Y155435D01*
X-541889Y156443D01*
X-544500Y156786D01*
D02*
G37*
G36*
X-624000Y144000D02*
X-630000D01*
Y134500D01*
X-624000D01*
Y144000D01*
D02*
G37*
G36*
X-632000D02*
X-638000D01*
Y134500D01*
X-632000D01*
Y144000D01*
D02*
G37*
G36*
X-662500Y143500D02*
X-675500D01*
Y123500D01*
X-662500D01*
Y128451D01*
X-657108D01*
X-656266Y127609D01*
X-654796Y127000D01*
X-653204D01*
X-651734Y127609D01*
X-650609Y128734D01*
X-650000Y130204D01*
Y131796D01*
X-650609Y133266D01*
X-651734Y134391D01*
X-653204Y135000D01*
X-654796D01*
X-656266Y134391D01*
X-657108Y133549D01*
X-662500D01*
Y143500D01*
D02*
G37*
G36*
X-624000Y132500D02*
X-630000D01*
Y123000D01*
X-624000D01*
Y132500D01*
D02*
G37*
G36*
X-632000D02*
X-638000D01*
Y123000D01*
X-632000D01*
Y132500D01*
D02*
G37*
G36*
X-213000Y121400D02*
X-229000D01*
Y100400D01*
X-213000D01*
Y121400D01*
D02*
G37*
G36*
X-281000D02*
X-297000D01*
Y100400D01*
X-281000D01*
Y121400D01*
D02*
G37*
G36*
X-543000Y105500D02*
X-549500D01*
Y98500D01*
X-543000D01*
Y105500D01*
D02*
G37*
G36*
X-551500D02*
X-558000D01*
Y98500D01*
X-551500D01*
Y105500D01*
D02*
G37*
G36*
X-605500D02*
X-612000D01*
Y98500D01*
X-605500D01*
Y105500D01*
D02*
G37*
G36*
X-614000D02*
X-620500D01*
Y98500D01*
X-614000D01*
Y105500D01*
D02*
G37*
G36*
X-665500D02*
X-672000D01*
Y98500D01*
X-665500D01*
Y105500D01*
D02*
G37*
G36*
X-674000D02*
X-680500D01*
Y98500D01*
X-674000D01*
Y105500D01*
D02*
G37*
G36*
X-528204Y119000D02*
X-529796D01*
X-531266Y118391D01*
X-532391Y117266D01*
X-533000Y115796D01*
Y114204D01*
X-532391Y112734D01*
X-531549Y111892D01*
Y105000D01*
X-536500D01*
Y90000D01*
X-522500D01*
Y105000D01*
X-526451D01*
Y111892D01*
X-525609Y112734D01*
X-525000Y114204D01*
Y115796D01*
X-525609Y117266D01*
X-526734Y118391D01*
X-528204Y119000D01*
D02*
G37*
G36*
X-591204D02*
X-592796D01*
X-594266Y118391D01*
X-595391Y117266D01*
X-596000Y115796D01*
Y114204D01*
X-595391Y112734D01*
X-594549Y111892D01*
Y105000D01*
X-599000D01*
Y90000D01*
X-585000D01*
Y105000D01*
X-589451D01*
Y111892D01*
X-588609Y112734D01*
X-588000Y114204D01*
Y115796D01*
X-588609Y117266D01*
X-589734Y118391D01*
X-591204Y119000D01*
D02*
G37*
G36*
X-651204D02*
X-652796D01*
X-654266Y118391D01*
X-655391Y117266D01*
X-656000Y115796D01*
Y114204D01*
X-655391Y112734D01*
X-654549Y111892D01*
Y105000D01*
X-659000D01*
Y90000D01*
X-645000D01*
Y105000D01*
X-649451D01*
Y111892D01*
X-648609Y112734D01*
X-648000Y114204D01*
Y115796D01*
X-648609Y117266D01*
X-649734Y118391D01*
X-651204Y119000D01*
D02*
G37*
G36*
X-543000Y96500D02*
X-549500D01*
Y89500D01*
X-543000D01*
Y96500D01*
D02*
G37*
G36*
X-551500D02*
X-558000D01*
Y89500D01*
X-551500D01*
Y96500D01*
D02*
G37*
G36*
X-605500D02*
X-612000D01*
Y89500D01*
X-605500D01*
Y96500D01*
D02*
G37*
G36*
X-614000D02*
X-620500D01*
Y89500D01*
X-614000D01*
Y96500D01*
D02*
G37*
G36*
X-665500D02*
X-672000D01*
Y89500D01*
X-665500D01*
Y96500D01*
D02*
G37*
G36*
X-674000D02*
X-680500D01*
Y89500D01*
X-674000D01*
Y96500D01*
D02*
G37*
G36*
X-213000Y98400D02*
X-229000D01*
Y77400D01*
X-213000D01*
Y98400D01*
D02*
G37*
G36*
X-281000D02*
X-297000D01*
Y77400D01*
X-281000D01*
Y98400D01*
D02*
G37*
G36*
X-242397Y214078D02*
X-268242D01*
X-270592Y213768D01*
X-272781Y212861D01*
X-274661Y211419D01*
X-283448Y202632D01*
X-284890Y200752D01*
X-285797Y198563D01*
X-286107Y196213D01*
Y178900D01*
X-296500D01*
Y163078D01*
X-361000D01*
X-363349Y162768D01*
X-365539Y161861D01*
X-367419Y160419D01*
X-368861Y158539D01*
X-369768Y156349D01*
X-370078Y154000D01*
X-369768Y151650D01*
X-368861Y149461D01*
X-367419Y147581D01*
X-365539Y146138D01*
X-363349Y145232D01*
X-361000Y144922D01*
X-296500D01*
Y135900D01*
X-266095D01*
Y121400D01*
X-279000D01*
Y99400D01*
Y77400D01*
X-266095D01*
Y73900D01*
X-265717Y71028D01*
X-264608Y68353D01*
X-262845Y66055D01*
X-260548Y64292D01*
X-257872Y63183D01*
X-255000Y62805D01*
X-252128Y63183D01*
X-249452Y64292D01*
X-247155Y66055D01*
X-245392Y68353D01*
X-244283Y71028D01*
X-243905Y73900D01*
Y77400D01*
X-231000D01*
Y99400D01*
Y121400D01*
X-243905D01*
Y135900D01*
X-213500D01*
Y178900D01*
X-224532D01*
Y196213D01*
X-224842Y198563D01*
X-225748Y200752D01*
X-227191Y202632D01*
X-235978Y211419D01*
X-237858Y212861D01*
X-240047Y213768D01*
X-242397Y214078D01*
D02*
G37*
G36*
X-669400Y51574D02*
X-671900D01*
Y44500D01*
X-661024D01*
X-661119Y45219D01*
X-661976Y47287D01*
X-663338Y49063D01*
X-665114Y50425D01*
X-667181Y51282D01*
X-669400Y51574D01*
D02*
G37*
G36*
X-674900D02*
X-677400D01*
X-679619Y51282D01*
X-681687Y50425D01*
X-683463Y49063D01*
X-684825Y47287D01*
X-685682Y45219D01*
X-685776Y44500D01*
X-674900D01*
Y51574D01*
D02*
G37*
G36*
X-625099Y50565D02*
X-627599D01*
Y44500D01*
X-617732D01*
X-617793Y44958D01*
X-618548Y46783D01*
X-619750Y48349D01*
X-621317Y49552D01*
X-623142Y50307D01*
X-625099Y50565D01*
D02*
G37*
G36*
X-630599D02*
X-633100D01*
X-635057Y50307D01*
X-636882Y49552D01*
X-638448Y48349D01*
X-639651Y46783D01*
X-640406Y44958D01*
X-640467Y44500D01*
X-630599D01*
Y50565D01*
D02*
G37*
G36*
X-661024Y41500D02*
X-671900D01*
Y34427D01*
X-669400D01*
X-667181Y34719D01*
X-665114Y35576D01*
X-663338Y36938D01*
X-661976Y38714D01*
X-661119Y40781D01*
X-661024Y41500D01*
D02*
G37*
G36*
X-674900D02*
X-685776D01*
X-685682Y40781D01*
X-684825Y38714D01*
X-683463Y36938D01*
X-681687Y35576D01*
X-679619Y34719D01*
X-677400Y34427D01*
X-674900D01*
Y41500D01*
D02*
G37*
G36*
X-617732Y41500D02*
X-629100D01*
X-640467D01*
X-640406Y41042D01*
X-639651Y39218D01*
X-638448Y37651D01*
X-636882Y36449D01*
X-636504Y36293D01*
X-636504Y34128D01*
X-637357Y33774D01*
X-638974Y32157D01*
X-639850Y30044D01*
Y27756D01*
X-638974Y25643D01*
X-638857Y25525D01*
X-639068Y22908D01*
X-643309Y18667D01*
X-644561Y18418D01*
X-645884Y17534D01*
X-646768Y16211D01*
X-647078Y14650D01*
Y-14000D01*
X-646768Y-15561D01*
X-645884Y-16884D01*
X-644561Y-17768D01*
X-643309Y-18017D01*
X-638635Y-22690D01*
X-637534Y-23840D01*
X-638698Y-25366D01*
X-638974Y-25643D01*
X-639850Y-27756D01*
Y-30044D01*
X-638974Y-32157D01*
X-637357Y-33774D01*
X-636504Y-34128D01*
X-636504Y-36293D01*
X-636882Y-36449D01*
X-638448Y-37651D01*
X-639651Y-39218D01*
X-640406Y-41042D01*
X-640467Y-41500D01*
X-629100D01*
X-617732D01*
X-617793Y-41042D01*
X-618548Y-39218D01*
X-618638Y-39100D01*
X-617652Y-37100D01*
X-611900D01*
Y-34500D01*
X-621400D01*
Y-32500D01*
X-611900D01*
Y-31500D01*
X-621400D01*
Y-29500D01*
X-611900D01*
Y-26900D01*
X-612400D01*
Y-20049D01*
X-604556D01*
X-600802Y-23802D01*
X-599976Y-24355D01*
X-599000Y-24549D01*
X-581108D01*
X-580266Y-25391D01*
X-578796Y-26000D01*
X-577204D01*
X-575734Y-25391D01*
X-574609Y-24266D01*
X-574000Y-22796D01*
Y-21204D01*
X-574609Y-19734D01*
X-575734Y-18609D01*
X-577204Y-18000D01*
X-578796D01*
X-580266Y-18609D01*
X-581108Y-19451D01*
X-597944D01*
X-601698Y-15697D01*
X-602525Y-15145D01*
X-603500Y-14951D01*
X-612400D01*
Y-10049D01*
X-610000D01*
X-609024Y-9855D01*
X-608197Y-9302D01*
X-605395Y-6500D01*
X-604204D01*
X-602734Y-5891D01*
X-601609Y-4766D01*
X-601000Y-3296D01*
Y-1704D01*
X-601609Y-234D01*
X-601787Y-57D01*
X-602530Y1250D01*
X-601787Y2557D01*
X-601609Y2734D01*
X-601000Y4204D01*
Y5796D01*
X-601609Y7266D01*
X-602734Y8391D01*
X-603482Y8701D01*
X-604428Y9330D01*
X-604438Y9345D01*
X-604926Y10172D01*
X-604972Y10482D01*
X-604749Y11382D01*
X-604188Y12207D01*
X-593944Y22451D01*
X-581108D01*
X-580266Y21609D01*
X-578796Y21000D01*
X-577204D01*
X-575734Y21609D01*
X-574609Y22734D01*
X-574000Y24204D01*
Y25796D01*
X-574609Y27266D01*
X-575734Y28391D01*
X-577204Y29000D01*
X-578796D01*
X-580266Y28391D01*
X-581108Y27549D01*
X-594855D01*
X-595142Y27881D01*
X-595804Y29428D01*
X-594116Y31116D01*
X-593893Y31450D01*
X-593609Y31734D01*
X-593455Y32105D01*
X-593232Y32439D01*
X-593154Y32833D01*
X-593000Y33204D01*
Y33606D01*
X-592922Y34000D01*
X-593000Y34394D01*
Y34796D01*
X-593154Y35167D01*
X-593232Y35561D01*
X-593455Y35895D01*
X-593609Y36266D01*
X-593893Y36550D01*
X-594116Y36884D01*
X-594450Y37107D01*
X-594734Y37391D01*
X-595105Y37545D01*
X-595439Y37768D01*
X-595833Y37846D01*
X-596204Y38000D01*
X-596606D01*
X-597000Y38078D01*
X-597394Y38000D01*
X-597796D01*
X-598167Y37846D01*
X-598561Y37768D01*
X-598895Y37545D01*
X-599266Y37391D01*
X-599550Y37107D01*
X-599884Y36884D01*
X-608689Y28078D01*
X-611000D01*
X-611788Y29500D01*
X-621400D01*
Y31500D01*
X-611900D01*
Y32500D01*
X-621400D01*
Y34500D01*
X-611900D01*
Y37100D01*
X-617652D01*
X-618638Y39100D01*
X-618548Y39218D01*
X-617793Y41042D01*
X-617732Y41500D01*
D02*
G37*
G36*
X-416000Y14608D02*
X-443000D01*
X-445146Y14181D01*
X-446965Y12965D01*
X-448181Y11146D01*
X-448608Y9000D01*
X-448181Y6854D01*
X-446965Y5035D01*
X-445146Y3819D01*
X-443000Y3392D01*
X-416000D01*
X-413854Y3819D01*
X-412035Y5035D01*
X-410819Y6854D01*
X-410392Y9000D01*
X-410819Y11146D01*
X-412035Y12965D01*
X-413854Y14181D01*
X-416000Y14608D01*
D02*
G37*
G36*
X-456204Y30000D02*
X-457796D01*
X-459266Y29391D01*
X-460391Y28266D01*
X-461000Y26796D01*
Y25204D01*
X-460391Y23734D01*
X-459266Y22609D01*
X-457796Y22000D01*
X-456204D01*
X-454734Y22609D01*
X-452847Y21668D01*
X-452729Y21451D01*
X-453000Y20796D01*
Y19204D01*
X-452391Y17734D01*
X-451266Y16609D01*
X-449796Y16000D01*
X-448204D01*
X-446734Y16609D01*
X-445892Y17451D01*
X-411056D01*
X-403549Y9944D01*
Y2108D01*
X-404391Y1266D01*
X-405000Y-204D01*
Y-1796D01*
X-404391Y-3266D01*
X-403266Y-4391D01*
X-401796Y-5000D01*
X-400204D01*
X-398734Y-4391D01*
X-397609Y-3266D01*
X-397582Y-3202D01*
X-395418D01*
X-395391Y-3266D01*
X-394266Y-4391D01*
X-392796Y-5000D01*
X-391204D01*
X-389734Y-4391D01*
X-388609Y-3266D01*
X-388000Y-1796D01*
Y-204D01*
X-388609Y1266D01*
X-389451Y2108D01*
Y9950D01*
X-389645Y10925D01*
X-390198Y11752D01*
X-406248Y27802D01*
X-407075Y28355D01*
X-408050Y28549D01*
X-453892D01*
X-454734Y29391D01*
X-456204Y30000D01*
D02*
G37*
G36*
X-669400Y-34427D02*
X-671900D01*
Y-41500D01*
X-661024D01*
X-661119Y-40781D01*
X-661976Y-38714D01*
X-663338Y-36938D01*
X-665114Y-35576D01*
X-667181Y-34719D01*
X-669400Y-34427D01*
D02*
G37*
G36*
X-674900D02*
X-677400D01*
X-679619Y-34719D01*
X-681687Y-35576D01*
X-683463Y-36938D01*
X-684825Y-38714D01*
X-685682Y-40781D01*
X-685776Y-41500D01*
X-674900D01*
Y-34427D01*
D02*
G37*
G36*
X-617732Y-44500D02*
X-627599D01*
Y-50565D01*
X-625099D01*
X-623142Y-50307D01*
X-621317Y-49552D01*
X-619750Y-48349D01*
X-618548Y-46783D01*
X-617793Y-44958D01*
X-617732Y-44500D01*
D02*
G37*
G36*
X-630600D02*
X-640467D01*
X-640406Y-44958D01*
X-639651Y-46783D01*
X-638448Y-48349D01*
X-636882Y-49552D01*
X-635057Y-50307D01*
X-633100Y-50565D01*
X-630600D01*
Y-44500D01*
D02*
G37*
G36*
X-661024D02*
X-671900D01*
Y-51574D01*
X-669400D01*
X-667181Y-51282D01*
X-665114Y-50425D01*
X-663338Y-49063D01*
X-661976Y-47287D01*
X-661119Y-45219D01*
X-661024Y-44500D01*
D02*
G37*
G36*
X-674900D02*
X-685776D01*
X-685682Y-45219D01*
X-684825Y-47287D01*
X-683463Y-49063D01*
X-681687Y-50425D01*
X-679619Y-51282D01*
X-677400Y-51574D01*
X-674900D01*
Y-44500D01*
D02*
G37*
G36*
X-556315Y-71900D02*
X-558685D01*
X-560974Y-72513D01*
X-563026Y-73698D01*
X-564702Y-75374D01*
X-565887Y-77426D01*
X-566500Y-79715D01*
Y-82085D01*
X-565887Y-84374D01*
X-564702Y-86426D01*
X-563026Y-88102D01*
X-560974Y-89287D01*
X-558685Y-89900D01*
X-556315D01*
X-554026Y-89287D01*
X-551974Y-88102D01*
X-550298Y-86426D01*
X-549113Y-84374D01*
X-548500Y-82085D01*
Y-79715D01*
X-549113Y-77426D01*
X-550298Y-75374D01*
X-551974Y-73698D01*
X-554026Y-72513D01*
X-556315Y-71900D01*
D02*
G37*
G36*
X-581715D02*
X-584085D01*
X-586374Y-72513D01*
X-588426Y-73698D01*
X-590102Y-75374D01*
X-591287Y-77426D01*
X-591900Y-79715D01*
Y-82085D01*
X-591287Y-84374D01*
X-590102Y-86426D01*
X-588426Y-88102D01*
X-586374Y-89287D01*
X-584085Y-89900D01*
X-581715D01*
X-579426Y-89287D01*
X-577374Y-88102D01*
X-575698Y-86426D01*
X-574513Y-84374D01*
X-573900Y-82085D01*
Y-79715D01*
X-574513Y-77426D01*
X-575698Y-75374D01*
X-577374Y-73698D01*
X-579426Y-72513D01*
X-581715Y-71900D01*
D02*
G37*
G36*
X-197204Y-89000D02*
X-198796D01*
X-200266Y-89609D01*
X-201391Y-90734D01*
X-201418Y-90798D01*
X-203582D01*
X-203609Y-90734D01*
X-204734Y-89609D01*
X-206204Y-89000D01*
X-207796D01*
X-209266Y-89609D01*
X-210391Y-90734D01*
X-211000Y-92204D01*
Y-93796D01*
X-210391Y-95266D01*
X-209549Y-96108D01*
Y-108777D01*
X-211439Y-109284D01*
X-214061Y-110798D01*
X-216202Y-112939D01*
X-217716Y-115561D01*
X-218500Y-118486D01*
Y-120895D01*
X-219444D01*
X-220420Y-121089D01*
X-221246Y-121642D01*
X-226802Y-127198D01*
X-227355Y-128025D01*
X-227549Y-129000D01*
Y-153944D01*
X-229605Y-156000D01*
X-230796D01*
X-232266Y-156609D01*
X-233391Y-157734D01*
X-234000Y-159204D01*
Y-160796D01*
X-233391Y-162266D01*
X-232266Y-163391D01*
X-230796Y-164000D01*
X-229204D01*
X-227734Y-163391D01*
X-226609Y-162266D01*
X-226000Y-160796D01*
Y-159605D01*
X-223198Y-156802D01*
X-222645Y-155976D01*
X-222451Y-155000D01*
Y-130056D01*
X-218648Y-126253D01*
X-216568Y-126427D01*
X-216202Y-127061D01*
X-214061Y-129202D01*
X-211439Y-130716D01*
X-208514Y-131500D01*
X-205486D01*
X-202561Y-130716D01*
X-199939Y-129202D01*
X-199049Y-128312D01*
X-197049Y-129141D01*
Y-131844D01*
X-200867Y-135662D01*
X-202561Y-134684D01*
X-205486Y-133900D01*
X-208514D01*
X-211439Y-134684D01*
X-214061Y-136198D01*
X-216202Y-138339D01*
X-217716Y-140961D01*
X-218500Y-143886D01*
Y-146914D01*
X-217716Y-149839D01*
X-216202Y-152461D01*
X-214061Y-154602D01*
X-211439Y-156116D01*
X-208514Y-156900D01*
X-205486D01*
X-202561Y-156116D01*
X-199939Y-154602D01*
X-197798Y-152461D01*
X-196284Y-149839D01*
X-195500Y-146914D01*
Y-143886D01*
X-196284Y-140961D01*
X-197262Y-139267D01*
X-192698Y-134702D01*
X-192145Y-133875D01*
X-191951Y-132900D01*
Y-128741D01*
X-190596Y-128180D01*
X-190596Y-128180D01*
X-189951Y-127912D01*
X-188661Y-129202D01*
X-186039Y-130716D01*
X-183114Y-131500D01*
X-180086D01*
X-177161Y-130716D01*
X-174539Y-129202D01*
X-172398Y-127061D01*
X-170884Y-124439D01*
X-170100Y-121514D01*
Y-118486D01*
X-170884Y-115561D01*
X-172398Y-112939D01*
X-174539Y-110798D01*
X-177161Y-109284D01*
X-180086Y-108500D01*
X-183114D01*
X-186039Y-109284D01*
X-188661Y-110798D01*
X-189951Y-112087D01*
X-190030Y-112055D01*
X-190596Y-111820D01*
X-190596Y-111820D01*
X-191951Y-111259D01*
Y-96500D01*
X-192145Y-95525D01*
X-192698Y-94698D01*
X-194000Y-93395D01*
Y-92204D01*
X-194609Y-90734D01*
X-195734Y-89609D01*
X-197204Y-89000D01*
D02*
G37*
G36*
X-132300Y-82600D02*
X-132380D01*
X-135432Y-83418D01*
X-138168Y-84998D01*
X-140402Y-87232D01*
X-141982Y-89968D01*
X-142465Y-91769D01*
X-144535D01*
X-145018Y-89968D01*
X-146598Y-87232D01*
X-148832Y-84998D01*
X-151568Y-83418D01*
X-154620Y-82600D01*
X-154700D01*
Y-94600D01*
X-156200D01*
Y-96100D01*
X-168200D01*
Y-96180D01*
X-167382Y-99232D01*
X-165802Y-101968D01*
X-163568Y-104202D01*
X-160832Y-105782D01*
X-157780Y-106600D01*
X-157714Y-108500D01*
X-160639Y-109284D01*
X-163261Y-110798D01*
X-165402Y-112939D01*
X-166916Y-115561D01*
X-167700Y-118486D01*
Y-121514D01*
X-166916Y-124439D01*
X-165402Y-127061D01*
X-163261Y-129202D01*
X-160639Y-130716D01*
X-157714Y-131500D01*
X-154686D01*
X-151761Y-130716D01*
X-149139Y-129202D01*
X-146998Y-127061D01*
X-145484Y-124439D01*
X-144700Y-121514D01*
Y-118486D01*
X-145484Y-115561D01*
X-146998Y-112939D01*
X-149139Y-110798D01*
X-151761Y-109284D01*
X-154686Y-108500D01*
X-154620Y-106600D01*
X-151568Y-105782D01*
X-148832Y-104202D01*
X-146598Y-101968D01*
X-145018Y-99232D01*
X-144535Y-97431D01*
X-142465D01*
X-141982Y-99232D01*
X-140402Y-101968D01*
X-138168Y-104202D01*
X-135432Y-105782D01*
X-132380Y-106600D01*
X-132314Y-108500D01*
X-135239Y-109284D01*
X-137861Y-110798D01*
X-140002Y-112939D01*
X-141516Y-115561D01*
X-142300Y-118486D01*
Y-121514D01*
X-141516Y-124439D01*
X-140002Y-127061D01*
X-137861Y-129202D01*
X-135239Y-130716D01*
X-132314Y-131500D01*
X-129286D01*
X-126361Y-130716D01*
X-123739Y-129202D01*
X-121598Y-127061D01*
X-120084Y-124439D01*
X-119300Y-121514D01*
Y-118486D01*
X-120084Y-115561D01*
X-121598Y-112939D01*
X-123739Y-110798D01*
X-126361Y-109284D01*
X-129286Y-108500D01*
X-129220Y-106600D01*
X-126168Y-105782D01*
X-123432Y-104202D01*
X-121198Y-101968D01*
X-119618Y-99232D01*
X-118800Y-96180D01*
Y-96100D01*
X-130800D01*
Y-94600D01*
X-132300D01*
Y-82600D01*
D02*
G37*
G36*
X-129220D02*
X-129300D01*
Y-93100D01*
X-118800D01*
Y-93020D01*
X-119618Y-89968D01*
X-121198Y-87232D01*
X-123432Y-84998D01*
X-126168Y-83418D01*
X-129220Y-82600D01*
D02*
G37*
G36*
X-157700D02*
X-157780D01*
X-160832Y-83418D01*
X-163568Y-84998D01*
X-165802Y-87232D01*
X-167382Y-89968D01*
X-168200Y-93020D01*
Y-93100D01*
X-157700D01*
Y-82600D01*
D02*
G37*
G36*
X-577400Y-96867D02*
Y-104800D01*
X-569467D01*
X-570047Y-102633D01*
X-571298Y-100467D01*
X-573067Y-98698D01*
X-575233Y-97447D01*
X-577400Y-96867D01*
D02*
G37*
G36*
X-580400D02*
X-582567Y-97447D01*
X-584733Y-98698D01*
X-586502Y-100467D01*
X-587753Y-102633D01*
X-588333Y-104800D01*
X-580400D01*
Y-96867D01*
D02*
G37*
G36*
X-569467Y-107800D02*
X-577400D01*
Y-115733D01*
X-575233Y-115153D01*
X-573067Y-113902D01*
X-571298Y-112133D01*
X-570047Y-109967D01*
X-569467Y-107800D01*
D02*
G37*
G36*
X-580400D02*
X-588333D01*
X-587753Y-109967D01*
X-586502Y-112133D01*
X-584733Y-113902D01*
X-582567Y-115153D01*
X-580400Y-115733D01*
Y-107800D01*
D02*
G37*
G36*
X-78486Y-108500D02*
X-81514D01*
X-84439Y-109284D01*
X-87061Y-110798D01*
X-89202Y-112939D01*
X-90716Y-115561D01*
X-91500Y-118486D01*
Y-121514D01*
X-90716Y-124439D01*
X-89202Y-127061D01*
X-87061Y-129202D01*
X-84439Y-130716D01*
X-81514Y-131500D01*
X-78486D01*
X-75561Y-130716D01*
X-72939Y-129202D01*
X-70798Y-127061D01*
X-69284Y-124439D01*
X-68500Y-121514D01*
Y-118486D01*
X-69284Y-115561D01*
X-70798Y-112939D01*
X-72939Y-110798D01*
X-75561Y-109284D01*
X-78486Y-108500D01*
D02*
G37*
G36*
X-103886D02*
X-106914D01*
X-109839Y-109284D01*
X-112461Y-110798D01*
X-114602Y-112939D01*
X-116116Y-115561D01*
X-116900Y-118486D01*
Y-121514D01*
X-116116Y-124439D01*
X-114602Y-127061D01*
X-112461Y-129202D01*
X-109839Y-130716D01*
X-106914Y-131500D01*
X-103886D01*
X-100961Y-130716D01*
X-98339Y-129202D01*
X-96198Y-127061D01*
X-94684Y-124439D01*
X-93900Y-121514D01*
Y-118486D01*
X-94684Y-115561D01*
X-96198Y-112939D01*
X-98339Y-110798D01*
X-100961Y-109284D01*
X-103886Y-108500D01*
D02*
G37*
G36*
X-662000Y-123000D02*
X-668000D01*
Y-132500D01*
X-662000D01*
Y-123000D01*
D02*
G37*
G36*
X-670000D02*
X-676000D01*
Y-132500D01*
X-670000D01*
Y-123000D01*
D02*
G37*
G36*
X-552315Y-97300D02*
X-554685D01*
X-556974Y-97913D01*
X-559026Y-99098D01*
X-560702Y-100774D01*
X-561887Y-102826D01*
X-562500Y-105115D01*
Y-107485D01*
X-561887Y-109774D01*
X-560702Y-111826D01*
X-559026Y-113502D01*
X-557382Y-114451D01*
X-557728Y-116451D01*
X-570200D01*
X-571175Y-116645D01*
X-572002Y-117198D01*
X-578597Y-123792D01*
X-579426Y-123313D01*
X-581715Y-122700D01*
X-584085D01*
X-586374Y-123313D01*
X-588426Y-124498D01*
X-590102Y-126174D01*
X-591287Y-128226D01*
X-591900Y-130515D01*
Y-132885D01*
X-591287Y-135174D01*
X-590102Y-137226D01*
X-588426Y-138902D01*
X-586374Y-140087D01*
X-584085Y-140700D01*
X-581715D01*
X-579426Y-140087D01*
X-577374Y-138902D01*
X-575698Y-137226D01*
X-574513Y-135174D01*
X-573900Y-132885D01*
Y-130515D01*
X-574513Y-128226D01*
X-574992Y-127397D01*
X-569144Y-121549D01*
X-561728D01*
X-561382Y-123549D01*
X-563026Y-124498D01*
X-564702Y-126174D01*
X-565887Y-128226D01*
X-566500Y-130515D01*
Y-132885D01*
X-565887Y-135174D01*
X-564702Y-137226D01*
X-563026Y-138902D01*
X-560974Y-140087D01*
X-558685Y-140700D01*
X-556315D01*
X-554026Y-140087D01*
X-551974Y-138902D01*
X-550298Y-137226D01*
X-549113Y-135174D01*
X-548500Y-132885D01*
Y-130515D01*
X-549113Y-128226D01*
X-550298Y-126174D01*
X-551974Y-124498D01*
X-553618Y-123549D01*
X-553272Y-121549D01*
X-496000D01*
X-495024Y-121355D01*
X-494198Y-120802D01*
X-488395Y-115000D01*
X-487204D01*
X-485734Y-114391D01*
X-484609Y-113266D01*
X-484000Y-111796D01*
Y-110204D01*
X-484609Y-108734D01*
X-485734Y-107609D01*
X-487204Y-107000D01*
X-488796D01*
X-490266Y-107609D01*
X-491391Y-108734D01*
X-492000Y-110204D01*
Y-111395D01*
X-497056Y-116451D01*
X-549272D01*
X-549618Y-114451D01*
X-547974Y-113502D01*
X-546298Y-111826D01*
X-545113Y-109774D01*
X-544500Y-107485D01*
Y-105115D01*
X-545113Y-102826D01*
X-546298Y-100774D01*
X-547974Y-99098D01*
X-550026Y-97913D01*
X-552315Y-97300D01*
D02*
G37*
G36*
X-630204Y-114000D02*
X-631796D01*
X-633266Y-114609D01*
X-634391Y-115734D01*
X-635000Y-117204D01*
Y-118796D01*
X-634391Y-120266D01*
X-633549Y-121108D01*
Y-123500D01*
X-637500D01*
Y-143500D01*
X-624500D01*
Y-123500D01*
X-628451D01*
Y-121108D01*
X-627609Y-120266D01*
X-627000Y-118796D01*
Y-117204D01*
X-627609Y-115734D01*
X-628734Y-114609D01*
X-630204Y-114000D01*
D02*
G37*
G36*
X-662000Y-134500D02*
X-668000D01*
Y-144000D01*
X-662000D01*
Y-134500D01*
D02*
G37*
G36*
X-670000D02*
X-676000D01*
Y-144000D01*
X-670000D01*
Y-134500D01*
D02*
G37*
G36*
X-78486Y-133900D02*
X-81514D01*
X-84439Y-134684D01*
X-87061Y-136198D01*
X-89202Y-138339D01*
X-90716Y-140961D01*
X-91500Y-143886D01*
Y-146914D01*
X-90716Y-149839D01*
X-89202Y-152461D01*
X-87061Y-154602D01*
X-84439Y-156116D01*
X-81514Y-156900D01*
X-78486D01*
X-75561Y-156116D01*
X-72939Y-154602D01*
X-70798Y-152461D01*
X-69284Y-149839D01*
X-68500Y-146914D01*
Y-143886D01*
X-69284Y-140961D01*
X-70798Y-138339D01*
X-72939Y-136198D01*
X-75561Y-134684D01*
X-78486Y-133900D01*
D02*
G37*
G36*
X-103886D02*
X-106914D01*
X-109839Y-134684D01*
X-112461Y-136198D01*
X-114602Y-138339D01*
X-116116Y-140961D01*
X-116900Y-143886D01*
Y-146914D01*
X-116116Y-149839D01*
X-114602Y-152461D01*
X-112461Y-154602D01*
X-109839Y-156116D01*
X-106914Y-156900D01*
X-103886D01*
X-100961Y-156116D01*
X-98339Y-154602D01*
X-96198Y-152461D01*
X-94684Y-149839D01*
X-93900Y-146914D01*
Y-143886D01*
X-94684Y-140961D01*
X-96198Y-138339D01*
X-98339Y-136198D01*
X-100961Y-134684D01*
X-103886Y-133900D01*
D02*
G37*
G36*
X-129286D02*
X-132314D01*
X-135239Y-134684D01*
X-137861Y-136198D01*
X-140002Y-138339D01*
X-141516Y-140961D01*
X-142300Y-143886D01*
Y-146914D01*
X-141516Y-149839D01*
X-140002Y-152461D01*
X-137861Y-154602D01*
X-135239Y-156116D01*
X-132314Y-156900D01*
X-129286D01*
X-126361Y-156116D01*
X-123739Y-154602D01*
X-121598Y-152461D01*
X-120084Y-149839D01*
X-119300Y-146914D01*
Y-143886D01*
X-120084Y-140961D01*
X-121598Y-138339D01*
X-123739Y-136198D01*
X-126361Y-134684D01*
X-129286Y-133900D01*
D02*
G37*
G36*
X-154686D02*
X-157714D01*
X-160639Y-134684D01*
X-163261Y-136198D01*
X-165402Y-138339D01*
X-166916Y-140961D01*
X-167700Y-143886D01*
Y-146914D01*
X-166916Y-149839D01*
X-165402Y-152461D01*
X-163261Y-154602D01*
X-160639Y-156116D01*
X-157714Y-156900D01*
X-154686D01*
X-151761Y-156116D01*
X-149139Y-154602D01*
X-146998Y-152461D01*
X-145484Y-149839D01*
X-144700Y-146914D01*
Y-143886D01*
X-145484Y-140961D01*
X-146998Y-138339D01*
X-149139Y-136198D01*
X-151761Y-134684D01*
X-154686Y-133900D01*
D02*
G37*
G36*
X-180086D02*
X-183114D01*
X-186039Y-134684D01*
X-188661Y-136198D01*
X-190802Y-138339D01*
X-192316Y-140961D01*
X-193100Y-143886D01*
Y-146914D01*
X-192316Y-149839D01*
X-190802Y-152461D01*
X-188661Y-154602D01*
X-186039Y-156116D01*
X-183114Y-156900D01*
X-180086D01*
X-177161Y-156116D01*
X-174539Y-154602D01*
X-172398Y-152461D01*
X-170884Y-149839D01*
X-170100Y-146914D01*
Y-143886D01*
X-170884Y-140961D01*
X-172398Y-138339D01*
X-174539Y-136198D01*
X-177161Y-134684D01*
X-180086Y-133900D01*
D02*
G37*
G36*
X-552315Y-148100D02*
X-554685D01*
X-556974Y-148713D01*
X-559026Y-149898D01*
X-560702Y-151574D01*
X-561887Y-153626D01*
X-562500Y-155915D01*
Y-158285D01*
X-561887Y-160574D01*
X-560702Y-162626D01*
X-559026Y-164302D01*
X-556974Y-165487D01*
X-554685Y-166100D01*
X-552315D01*
X-550026Y-165487D01*
X-547974Y-164302D01*
X-546298Y-162626D01*
X-545113Y-160574D01*
X-544500Y-158285D01*
Y-155915D01*
X-545113Y-153626D01*
X-546298Y-151574D01*
X-547974Y-149898D01*
X-550026Y-148713D01*
X-552315Y-148100D01*
D02*
G37*
G36*
X-577715D02*
X-580085D01*
X-582374Y-148713D01*
X-584426Y-149898D01*
X-586102Y-151574D01*
X-587287Y-153626D01*
X-587900Y-155915D01*
Y-158285D01*
X-587287Y-160574D01*
X-586102Y-162626D01*
X-584426Y-164302D01*
X-582374Y-165487D01*
X-580085Y-166100D01*
X-577715D01*
X-575426Y-165487D01*
X-573374Y-164302D01*
X-571698Y-162626D01*
X-570513Y-160574D01*
X-569900Y-158285D01*
Y-155915D01*
X-570513Y-153626D01*
X-571698Y-151574D01*
X-573374Y-149898D01*
X-575426Y-148713D01*
X-577715Y-148100D01*
D02*
G37*
G36*
X-556315Y-173500D02*
X-558685D01*
X-560974Y-174113D01*
X-563026Y-175298D01*
X-564702Y-176974D01*
X-565887Y-179026D01*
X-566500Y-181315D01*
Y-183685D01*
X-565887Y-185974D01*
X-564702Y-188026D01*
X-563026Y-189702D01*
X-560974Y-190887D01*
X-558685Y-191500D01*
X-556315D01*
X-554026Y-190887D01*
X-551974Y-189702D01*
X-550298Y-188026D01*
X-549113Y-185974D01*
X-548500Y-183685D01*
Y-181315D01*
X-549113Y-179026D01*
X-550298Y-176974D01*
X-551974Y-175298D01*
X-554026Y-174113D01*
X-556315Y-173500D01*
D02*
G37*
G36*
X-581715D02*
X-584085D01*
X-586374Y-174113D01*
X-588426Y-175298D01*
X-590102Y-176974D01*
X-591287Y-179026D01*
X-591900Y-181315D01*
Y-183685D01*
X-591287Y-185974D01*
X-590102Y-188026D01*
X-588426Y-189702D01*
X-586374Y-190887D01*
X-584085Y-191500D01*
X-581715D01*
X-579426Y-190887D01*
X-577374Y-189702D01*
X-575698Y-188026D01*
X-574513Y-185974D01*
X-573900Y-183685D01*
Y-181315D01*
X-574513Y-179026D01*
X-575698Y-176974D01*
X-577374Y-175298D01*
X-579426Y-174113D01*
X-581715Y-173500D01*
D02*
G37*
G36*
X-624500Y-186500D02*
X-637500D01*
Y-206500D01*
X-624500D01*
Y-186500D01*
D02*
G37*
G36*
X-662500D02*
X-675500D01*
Y-206500D01*
X-662500D01*
Y-186500D01*
D02*
G37*
%LPD*%
D12*
X-666500Y131000D02*
X-654000D01*
X-669000Y133500D02*
X-666500Y131000D01*
X-401000Y-1000D02*
Y11000D01*
X-410000Y20000D02*
X-401000Y11000D01*
X-449000Y20000D02*
X-410000D01*
X-457000Y26000D02*
X-408050D01*
X-392000Y9950D01*
Y-1000D02*
Y9950D01*
X-529000Y98000D02*
Y115000D01*
X-529500Y97500D02*
X-529000Y98000D01*
X-592000Y97500D02*
X-592000Y97500D01*
X-592000Y97500D02*
Y115000D01*
X-652000Y97500D02*
Y115000D01*
X-631000Y-133500D02*
Y-118000D01*
X-631000Y-133500D02*
X-631000Y-133500D01*
X-225000Y-155000D02*
Y-129000D01*
X-230000Y-160000D02*
X-225000Y-155000D01*
X-210444Y-123444D02*
X-207000Y-120000D01*
X-219444Y-123444D02*
X-210444D01*
X-225000Y-129000D02*
X-219444Y-123444D01*
X-570200Y-119000D02*
X-496000D01*
X-582900Y-131700D02*
X-570200Y-119000D01*
X-496000D02*
X-488000Y-111000D01*
X-198000Y-93000D02*
X-194500Y-96500D01*
Y-132900D02*
Y-96500D01*
X-207000Y-145400D02*
X-194500Y-132900D01*
X-207000Y-120000D02*
Y-93000D01*
X-599000Y-22000D02*
X-578000D01*
X-621400Y-17500D02*
X-603500D01*
X-599000Y-22000D01*
X-595000Y25000D02*
X-578000D01*
X-621400Y12500D02*
X-607500D01*
X-595000Y25000D01*
X-610000Y2500D02*
X-605000Y-2500D01*
X-607500Y7500D02*
X-605000Y5000D01*
X-621400Y7500D02*
X-607500D01*
X-634000Y-1000D02*
Y6328D01*
X-632828Y7500D02*
X-621400D01*
X-634000Y6328D02*
X-632828Y7500D01*
X-632500Y-2500D02*
X-621400D01*
X-634000Y-1000D02*
X-632500Y-2500D01*
X-621400Y2500D02*
X-610000D01*
X-621400Y-7500D02*
X-610000D01*
X-605000Y-2500D01*
D16*
X-529500Y97500D02*
D03*
X-550500D02*
D03*
X-592000D02*
D03*
X-613000D02*
D03*
X-652000D02*
D03*
X-673000D02*
D03*
D22*
X-175000Y334000D02*
D03*
X-190000D02*
D03*
X-110000D02*
D03*
X-125000D02*
D03*
D23*
X-121000Y254000D02*
D03*
X-179000D02*
D03*
D24*
X-150000Y233000D02*
D03*
D25*
X-230000Y99400D02*
D03*
Y157400D02*
D03*
X-280000D02*
D03*
Y99400D02*
D03*
D30*
X-473000Y-193400D02*
D03*
X-489000Y193400D02*
D03*
X-30000Y0D02*
D03*
D36*
X-621400Y33500D02*
D03*
Y30500D02*
D03*
Y25500D02*
D03*
Y22500D02*
D03*
Y17500D02*
D03*
Y12500D02*
D03*
Y7500D02*
D03*
Y2500D02*
D03*
Y-2500D02*
D03*
Y-7500D02*
D03*
Y-12500D02*
D03*
Y-17500D02*
D03*
Y-22500D02*
D03*
Y-25500D02*
D03*
Y-30500D02*
D03*
Y-33500D02*
D03*
D37*
X-669000Y-133500D02*
D03*
Y-196500D02*
D03*
X-631000Y-133500D02*
D03*
Y-196500D02*
D03*
X-631000Y133500D02*
D03*
Y196500D02*
D03*
X-669000Y133500D02*
D03*
Y196500D02*
D03*
D38*
X-277029Y196213D02*
X-268242Y205000D01*
X-277029Y156971D02*
Y196213D01*
X-268242Y205000D02*
X-242397D01*
X-233610Y157610D02*
Y196213D01*
X-280000Y154000D02*
X-277029Y156971D01*
X-242397Y205000D02*
X-233610Y196213D01*
X-361000Y154000D02*
X-280000D01*
X-233610Y157610D02*
X-230000Y154000D01*
D39*
X-190000Y259000D02*
Y309000D01*
Y259000D02*
X-185000Y254000D01*
X-179000D01*
X-175000Y258000D02*
Y309000D01*
X-179000Y254000D02*
X-175000Y258000D01*
X-115000Y254000D02*
X-110000Y259000D01*
Y309000D01*
X-121000Y254000D02*
X-115000D01*
X-125000Y258000D02*
Y309000D01*
Y258000D02*
X-121000Y254000D01*
D40*
X-443000Y9000D02*
X-416000D01*
D41*
X-607000Y24000D02*
X-597000Y34000D01*
X-611000Y24000D02*
X-607000D01*
X-643000Y-14000D02*
Y14650D01*
D42*
X-621400Y25500D02*
X-621300Y25400D01*
X-612400D01*
X-611000Y24000D01*
X-621300Y22600D02*
X-612400D01*
X-611000Y24000D01*
X-621400Y22500D02*
X-621300Y22600D01*
X-630347Y22400D02*
X-621500D01*
X-631097Y21650D02*
X-630347Y22400D01*
X-636000Y21650D02*
X-631097D01*
X-621500Y22400D02*
X-621400Y22500D01*
X-643000Y14650D02*
X-636000Y21650D01*
X-631097Y-21650D02*
X-630347Y-22400D01*
X-635350Y-21650D02*
X-631097D01*
X-643000Y-14000D02*
X-635350Y-21650D01*
X-621500Y-22400D02*
X-621400Y-22500D01*
X-630347Y-22400D02*
X-621500D01*
D43*
X-550000Y197500D02*
D03*
Y146700D02*
D03*
Y172100D02*
D03*
D44*
X-156200Y-94600D02*
D03*
X-130800D02*
D03*
X-105400Y-145400D02*
D03*
X-80000Y-120000D02*
D03*
X-207000Y-145400D02*
D03*
X-130800D02*
D03*
X-156200Y-120000D02*
D03*
Y-145400D02*
D03*
X-130800Y-120000D02*
D03*
X-207000D02*
D03*
X-181600Y-145400D02*
D03*
Y-120000D02*
D03*
X-80000Y-145400D02*
D03*
X-105400Y-120000D02*
D03*
D45*
X-673400Y-43000D02*
D03*
Y43000D02*
D03*
D46*
X-629100Y-43000D02*
D03*
Y43000D02*
D03*
D47*
X-557500Y-80900D02*
D03*
X-582900D02*
D03*
X-578900Y-106300D02*
D03*
X-582900Y-131700D02*
D03*
X-553500Y-106300D02*
D03*
X-582900Y-182500D02*
D03*
X-557500D02*
D03*
X-578900Y-157100D02*
D03*
X-557500Y-131700D02*
D03*
X-553500Y-157100D02*
D03*
D48*
X-383000Y-39000D02*
D03*
X-311000Y-14000D02*
D03*
X-307000Y-86000D02*
D03*
X-384000Y-88000D02*
D03*
X-277000Y-85000D02*
D03*
X-609000Y43000D02*
D03*
X-606000Y-43000D02*
D03*
Y-32000D02*
D03*
X-609000Y34000D02*
D03*
X-650000Y-199000D02*
D03*
X-612000Y-135000D02*
D03*
X-143000Y-133000D02*
D03*
Y-174000D02*
D03*
X-230000Y-115000D02*
D03*
X-368000Y75000D02*
D03*
Y127000D02*
D03*
X-629000Y94000D02*
D03*
X-647000Y194000D02*
D03*
X-534846Y57864D02*
D03*
X-522000Y205000D02*
D03*
X-451000Y59000D02*
D03*
X-447892Y153008D02*
D03*
X-277397Y47763D02*
D03*
X-321000Y209000D02*
D03*
X-208000Y189000D02*
D03*
X-174336Y89670D02*
D03*
X-120000Y179000D02*
D03*
X-36000Y123000D02*
D03*
X-39000Y201000D02*
D03*
X-286000Y-3000D02*
D03*
X-186000Y-12000D02*
D03*
X-126000Y-64000D02*
D03*
X-90000Y-93000D02*
D03*
X-43363Y-80824D02*
D03*
X-46000Y-188000D02*
D03*
X-183000Y-203000D02*
D03*
X-246000Y-145000D02*
D03*
X-305000Y-207000D02*
D03*
X-300000Y-139000D02*
D03*
X-410000Y-120000D02*
D03*
X-444000Y-155000D02*
D03*
X-513000Y-148000D02*
D03*
X-530000Y-202000D02*
D03*
X-473000Y10000D02*
D03*
X-458000Y-53000D02*
D03*
X-456000Y-85000D02*
D03*
X-501000Y-67000D02*
D03*
X-526000Y-43000D02*
D03*
X-492000Y-22000D02*
D03*
X-521000Y7000D02*
D03*
X-546000Y25000D02*
D03*
X-545000Y-22000D02*
D03*
X-358000Y-75000D02*
D03*
X-410000Y-65000D02*
D03*
X-413000Y-29000D02*
D03*
X-447000Y-20000D02*
D03*
X-654000Y131000D02*
D03*
X-457000Y26000D02*
D03*
X-392000Y-1000D02*
D03*
X-401000D02*
D03*
X-449000Y20000D02*
D03*
X-529000Y115000D02*
D03*
X-592000D02*
D03*
X-652000D02*
D03*
X-631000Y-118000D02*
D03*
X-230000Y-160000D02*
D03*
X-488000Y-111000D02*
D03*
X-416000Y9000D02*
D03*
X-443000D02*
D03*
X-198000Y-93000D02*
D03*
X-207000D02*
D03*
X-578000Y-22000D02*
D03*
Y25000D02*
D03*
X-361000Y154000D02*
D03*
X-597000Y34000D02*
D03*
Y11000D02*
D03*
Y-9000D02*
D03*
X-605000Y-2500D02*
D03*
Y5000D02*
D03*
D49*
X-121000Y254000D02*
D03*
X-179000D02*
D03*
M02*
