G04*
G04 #@! TF.GenerationSoftware,Altium Limited,Altium Designer,23.2.1 (34)*
G04*
G04 Layer_Color=16711935*
%FSLAX44Y44*%
%MOMM*%
G71*
G04*
G04 #@! TF.SameCoordinates,D71E7737-13ED-4BDA-A6DE-6AB0D4F083BE*
G04*
G04*
G04 #@! TF.FilePolarity,Negative*
G04*
G01*
G75*
%ADD23R,4.0000X2.0000*%
%ADD24R,8.0000X1.2000*%
%ADD28O,3.0032X1.9032*%
%ADD29C,2.2032*%
%ADD30C,5.4000*%
%ADD31C,0.2032*%
%ADD32O,2.2000X1.4000*%
%ADD33O,2.0000X1.2000*%
%ADD34C,0.1000*%
%ADD35C,1.7032*%
%ADD51R,0.9581X0.9121*%
%ADD52R,0.9121X0.9581*%
%ADD56R,2.7000X2.7000*%
G04:AMPARAMS|DCode=57|XSize=0.2393mm|YSize=0.9791mm|CornerRadius=0.1196mm|HoleSize=0mm|Usage=FLASHONLY|Rotation=0.000|XOffset=0mm|YOffset=0mm|HoleType=Round|Shape=RoundedRectangle|*
%AMROUNDEDRECTD57*
21,1,0.2393,0.7398,0,0,0.0*
21,1,0.0000,0.9791,0,0,0.0*
1,1,0.2393,0.0000,-0.3699*
1,1,0.2393,0.0000,-0.3699*
1,1,0.2393,0.0000,0.3699*
1,1,0.2393,0.0000,0.3699*
%
%ADD57ROUNDEDRECTD57*%
G04:AMPARAMS|DCode=58|XSize=0.9791mm|YSize=0.2393mm|CornerRadius=0.1196mm|HoleSize=0mm|Usage=FLASHONLY|Rotation=0.000|XOffset=0mm|YOffset=0mm|HoleType=Round|Shape=RoundedRectangle|*
%AMROUNDEDRECTD58*
21,1,0.9791,0.0000,0,0,0.0*
21,1,0.7398,0.2393,0,0,0.0*
1,1,0.2393,0.3699,0.0000*
1,1,0.2393,-0.3699,0.0000*
1,1,0.2393,-0.3699,0.0000*
1,1,0.2393,0.3699,0.0000*
%
%ADD58ROUNDEDRECTD58*%
%ADD59R,0.9791X0.2393*%
%ADD61R,1.8526X2.9042*%
%ADD62R,2.9042X1.8526*%
%ADD63R,3.0000X8.0000*%
%ADD66R,1.2032X1.2032*%
%ADD67R,2.3032X1.1032*%
%ADD68R,2.3032X3.4032*%
%ADD69R,1.0032X1.1532*%
%ADD70R,1.1532X1.0032*%
D23*
X-121000Y254000D02*
D03*
X-179000D02*
D03*
D24*
X-150000Y233000D02*
D03*
D28*
X-550000Y197500D02*
D03*
Y146700D02*
D03*
Y172100D02*
D03*
D29*
X-156200Y-94600D02*
D03*
X-130800D02*
D03*
X-105400Y-145400D02*
D03*
X-80000Y-120000D02*
D03*
X-207000Y-145400D02*
D03*
X-130800D02*
D03*
X-156200Y-120000D02*
D03*
Y-145400D02*
D03*
X-130800Y-120000D02*
D03*
X-207000D02*
D03*
X-181600Y-145400D02*
D03*
Y-120000D02*
D03*
X-80000Y-145400D02*
D03*
X-105400Y-120000D02*
D03*
D30*
X-473000Y-193400D02*
D03*
X-489000Y193400D02*
D03*
X-30000Y0D02*
D03*
D31*
X-255000Y128400D02*
D03*
D32*
X-673400Y-43000D02*
D03*
Y43000D02*
D03*
D33*
X-629100Y-43000D02*
D03*
Y43000D02*
D03*
D34*
X-634100Y28900D02*
D03*
Y-28900D02*
D03*
D35*
X-557500Y-80900D02*
D03*
X-582900D02*
D03*
X-578900Y-106300D02*
D03*
X-582900Y-131700D02*
D03*
X-553500Y-106300D02*
D03*
X-582900Y-182500D02*
D03*
X-557500D02*
D03*
X-578900Y-157100D02*
D03*
X-557500Y-131700D02*
D03*
X-553500Y-157100D02*
D03*
D51*
X-412730Y-21000D02*
D03*
X-427270D02*
D03*
X-357730Y-67000D02*
D03*
X-372270D02*
D03*
D52*
X-447000Y-28460D02*
D03*
Y-43000D02*
D03*
D56*
X-410000Y-65000D02*
D03*
D57*
X-422500Y-84895D02*
D03*
X-417500D02*
D03*
X-412500D02*
D03*
X-407500D02*
D03*
X-402500D02*
D03*
X-397500D02*
D03*
Y-45104D02*
D03*
X-402500D02*
D03*
X-407500D02*
D03*
X-412500D02*
D03*
X-417500D02*
D03*
X-422500D02*
D03*
D58*
X-390104Y-77500D02*
D03*
X-390104Y-72500D02*
D03*
Y-67500D02*
D03*
Y-62500D02*
D03*
X-390104Y-57500D02*
D03*
Y-52500D02*
D03*
X-429896D02*
D03*
Y-57500D02*
D03*
Y-62500D02*
D03*
Y-67500D02*
D03*
Y-72500D02*
D03*
D59*
Y-77500D02*
D03*
D61*
X-414252Y50000D02*
D03*
X-385747Y50000D02*
D03*
X-414253Y190000D02*
D03*
X-385748D02*
D03*
X-414252Y155000D02*
D03*
X-385748D02*
D03*
D62*
X-477500Y88248D02*
D03*
Y116753D02*
D03*
D63*
X-230000Y128400D02*
D03*
X-280000D02*
D03*
D66*
X-631000Y-137000D02*
D03*
Y-148700D02*
D03*
X-105000Y-54800D02*
D03*
Y-43100D02*
D03*
X-85000Y-55100D02*
D03*
Y-43400D02*
D03*
D67*
X-443500Y79500D02*
D03*
Y102500D02*
D03*
Y125500D02*
D03*
D68*
X-386500Y102500D02*
D03*
D69*
X-332750Y-58000D02*
D03*
X-319250D02*
D03*
X-332750Y-38000D02*
D03*
X-319250D02*
D03*
X-543250Y115000D02*
D03*
X-556750D02*
D03*
X-603250D02*
D03*
X-616750D02*
D03*
X-579250Y197000D02*
D03*
X-592750D02*
D03*
X-556250Y25000D02*
D03*
X-569750D02*
D03*
X-556250Y-22000D02*
D03*
X-569750D02*
D03*
X-663250Y115000D02*
D03*
X-676750D02*
D03*
D70*
X-362000Y60750D02*
D03*
Y47250D02*
D03*
M02*
