G04*
G04 #@! TF.GenerationSoftware,Altium Limited,Altium Designer,23.2.1 (34)*
G04*
G04 Layer_Color=8421504*
%FSLAX44Y44*%
%MOMM*%
G71*
G04*
G04 #@! TF.SameCoordinates,D71E7737-13ED-4BDA-A6DE-6AB0D4F083BE*
G04*
G04*
G04 #@! TF.FilePolarity,Positive*
G04*
G01*
G75*
%ADD15R,1.1868X7.8868*%
%ADD16R,1.1000X1.2000*%
%ADD17R,3.8636X1.8636*%
%ADD18R,7.8944X1.0944*%
%ADD19R,2.8242X3.8242*%
%ADD20R,1.4732X0.2932*%
%ADD21R,0.9355X1.6355*%
D15*
X-175000Y334000D02*
D03*
X-190000D02*
D03*
X-110000D02*
D03*
X-125000D02*
D03*
D16*
X-529500Y97500D02*
D03*
X-550500D02*
D03*
X-592000D02*
D03*
X-613000D02*
D03*
X-652000D02*
D03*
X-673000D02*
D03*
D17*
X-121000Y254000D02*
D03*
X-179000D02*
D03*
D18*
X-150000Y233000D02*
D03*
D19*
X-230000Y99400D02*
D03*
Y157400D02*
D03*
X-280000D02*
D03*
Y99400D02*
D03*
D20*
X-621400Y33500D02*
D03*
Y30500D02*
D03*
Y25500D02*
D03*
Y22500D02*
D03*
Y17500D02*
D03*
Y12500D02*
D03*
Y7500D02*
D03*
Y2500D02*
D03*
Y-2500D02*
D03*
Y-7500D02*
D03*
Y-12500D02*
D03*
Y-17500D02*
D03*
Y-22500D02*
D03*
Y-25500D02*
D03*
Y-30500D02*
D03*
Y-33500D02*
D03*
D21*
X-669000Y-133500D02*
D03*
Y-196500D02*
D03*
X-631000Y-133500D02*
D03*
Y-196500D02*
D03*
X-631000Y133500D02*
D03*
Y196500D02*
D03*
X-669000Y133500D02*
D03*
Y196500D02*
D03*
M02*
