G04*
G04 #@! TF.GenerationSoftware,Altium Limited,Altium Designer,23.2.1 (34)*
G04*
G04 Layer_Color=32896*
%FSLAX44Y44*%
%MOMM*%
G71*
G04*
G04 #@! TF.SameCoordinates,D71E7737-13ED-4BDA-A6DE-6AB0D4F083BE*
G04*
G04*
G04 #@! TF.FilePolarity,Positive*
G04*
G01*
G75*
%ADD10C,0.2540*%
%ADD11C,0.2500*%
%ADD12C,0.2000*%
%ADD13C,0.1500*%
G36*
X-644702Y-180000D02*
X-661000D01*
Y-100555D01*
X-644702D01*
Y-180000D01*
D02*
G37*
G36*
X-77702Y-30000D02*
X-94000D01*
Y96541D01*
X-77702D01*
Y-30000D01*
D02*
G37*
G36*
X-97702D02*
X-114000D01*
Y89751D01*
X-97702D01*
Y-30000D01*
D02*
G37*
%LPC*%
G36*
X-649806Y-105555D02*
X-655896D01*
X-651739D01*
X-651764Y-105560D01*
X-651826Y-105564D01*
X-651905Y-105572D01*
X-651993Y-105584D01*
X-652093Y-105601D01*
X-652201Y-105626D01*
X-652314Y-105655D01*
X-652434Y-105689D01*
X-652551Y-105735D01*
X-652672Y-105789D01*
X-652793Y-105851D01*
X-652905Y-105926D01*
X-653013Y-106014D01*
X-653117Y-106109D01*
X-653122Y-106118D01*
X-653138Y-106134D01*
X-653163Y-106168D01*
X-653197Y-106214D01*
X-653238Y-106272D01*
X-653280Y-106343D01*
X-653326Y-106430D01*
X-653376Y-106530D01*
X-653426Y-106638D01*
X-653472Y-106768D01*
X-653513Y-106905D01*
X-653555Y-107055D01*
X-653588Y-107222D01*
X-653613Y-107401D01*
X-653630Y-107592D01*
X-653634Y-107801D01*
Y-108829D01*
X-655896D01*
Y-110721D01*
X-649806D01*
Y-107459D01*
Y-107526D01*
X-649810Y-107501D01*
Y-107467D01*
X-649814Y-107430D01*
X-649822Y-107342D01*
X-649831Y-107247D01*
X-649847Y-107138D01*
X-649868Y-107022D01*
X-649893Y-106901D01*
X-649927Y-106776D01*
X-649964Y-106647D01*
X-650010Y-106522D01*
X-650068Y-106397D01*
X-650131Y-106280D01*
X-650206Y-106168D01*
X-650293Y-106068D01*
X-650297Y-106063D01*
X-650314Y-106047D01*
X-650343Y-106022D01*
X-650385Y-105989D01*
X-650435Y-105947D01*
X-650493Y-105905D01*
X-650568Y-105859D01*
X-650647Y-105809D01*
X-650743Y-105764D01*
X-650843Y-105718D01*
X-650960Y-105672D01*
X-651080Y-105634D01*
X-651214Y-105601D01*
X-651359Y-105576D01*
X-651514Y-105560D01*
X-651676Y-105555D01*
X-649806D01*
D02*
G37*
G36*
Y-111920D02*
X-655896D01*
Y-113462D01*
X-651255D01*
X-655896Y-114649D01*
Y-116044D01*
X-651255Y-117223D01*
X-655896D01*
Y-118764D01*
X-649806D01*
Y-111920D01*
D02*
G37*
G36*
Y-120002D02*
X-656000D01*
X-653251D01*
X-653288Y-120006D01*
X-653376D01*
X-653476Y-120010D01*
X-653588Y-120018D01*
X-653705Y-120027D01*
X-653834Y-120035D01*
X-653963Y-120048D01*
X-654225Y-120081D01*
X-654355Y-120102D01*
X-654480Y-120127D01*
X-654596Y-120156D01*
X-654705Y-120189D01*
X-654709D01*
X-654730Y-120197D01*
X-654759Y-120210D01*
X-654796Y-120227D01*
X-654842Y-120247D01*
X-654896Y-120277D01*
X-654954Y-120310D01*
X-655021Y-120351D01*
X-655092Y-120397D01*
X-655167Y-120451D01*
X-655242Y-120510D01*
X-655321Y-120581D01*
X-655400Y-120656D01*
X-655475Y-120739D01*
X-655550Y-120831D01*
X-655625Y-120931D01*
X-655629Y-120939D01*
X-655642Y-120956D01*
X-655658Y-120989D01*
X-655683Y-121031D01*
X-655713Y-121085D01*
X-655742Y-121151D01*
X-655779Y-121230D01*
X-655813Y-121318D01*
X-655846Y-121418D01*
X-655879Y-121526D01*
X-655912Y-121643D01*
X-655942Y-121772D01*
X-655967Y-121905D01*
X-655983Y-122051D01*
X-655996Y-122201D01*
X-656000Y-122364D01*
Y-122451D01*
X-655996Y-122514D01*
X-655992Y-122593D01*
X-655987Y-122680D01*
X-655979Y-122780D01*
X-655971Y-122888D01*
X-655954Y-123001D01*
X-655942Y-123118D01*
X-655921Y-123234D01*
X-655896Y-123355D01*
X-655867Y-123472D01*
X-655833Y-123584D01*
X-655796Y-123692D01*
X-655754Y-123792D01*
X-655750Y-123797D01*
X-655742Y-123813D01*
X-655729Y-123842D01*
X-655708Y-123876D01*
X-655683Y-123917D01*
X-655650Y-123967D01*
X-655613Y-124021D01*
X-655571Y-124080D01*
X-655521Y-124142D01*
X-655467Y-124205D01*
X-655408Y-124271D01*
X-655342Y-124334D01*
X-655271Y-124401D01*
X-655196Y-124463D01*
X-655113Y-124521D01*
X-655025Y-124576D01*
X-655021Y-124580D01*
X-655004Y-124588D01*
X-654975Y-124600D01*
X-654938Y-124617D01*
X-654892Y-124642D01*
X-654838Y-124663D01*
X-654771Y-124692D01*
X-654696Y-124717D01*
X-654613Y-124746D01*
X-654525Y-124775D01*
X-654425Y-124800D01*
X-654321Y-124825D01*
X-654209Y-124850D01*
X-654092Y-124871D01*
X-653967Y-124884D01*
X-653838Y-124896D01*
X-653592Y-123097D01*
X-653596D01*
X-653609D01*
X-653630D01*
X-653659D01*
X-653692Y-123092D01*
X-653730D01*
X-653817Y-123088D01*
X-653917Y-123080D01*
X-654017Y-123068D01*
X-654109Y-123051D01*
X-654155Y-123042D01*
X-654192Y-123030D01*
X-654196D01*
X-654201Y-123026D01*
X-654225Y-123018D01*
X-654259Y-123001D01*
X-654305Y-122976D01*
X-654355Y-122947D01*
X-654409Y-122905D01*
X-654459Y-122859D01*
X-654509Y-122805D01*
X-654513Y-122801D01*
X-654521Y-122784D01*
X-654534Y-122759D01*
X-654546Y-122726D01*
X-654559Y-122680D01*
X-654571Y-122630D01*
X-654579Y-122568D01*
X-654584Y-122497D01*
Y-122468D01*
X-654579Y-122447D01*
X-654575Y-122422D01*
X-654571Y-122388D01*
X-654555Y-122322D01*
X-654525Y-122247D01*
X-654484Y-122172D01*
X-654459Y-122134D01*
X-654425Y-122101D01*
X-654392Y-122068D01*
X-654350Y-122039D01*
X-654346D01*
X-654338Y-122030D01*
X-654325Y-122026D01*
X-654305Y-122014D01*
X-654280Y-122005D01*
X-654246Y-121993D01*
X-654209Y-121976D01*
X-654163Y-121964D01*
X-654113Y-121951D01*
X-654055Y-121934D01*
X-653988Y-121922D01*
X-653917Y-121914D01*
X-653838Y-121901D01*
X-653755Y-121897D01*
X-653659Y-121889D01*
X-653559D01*
X-649806D01*
Y-120002D01*
D02*
G37*
G36*
Y-128104D02*
X-655896D01*
X-651310D01*
Y-130024D01*
X-655896D01*
Y-131907D01*
X-651310D01*
Y-133827D01*
X-649806D01*
Y-128104D01*
D02*
G37*
G36*
X-649702Y-134348D02*
D01*
Y-136981D01*
X-649706Y-136947D01*
Y-136910D01*
X-649710Y-136868D01*
Y-136822D01*
X-649714Y-136768D01*
X-649727Y-136656D01*
X-649739Y-136531D01*
X-649756Y-136397D01*
X-649781Y-136256D01*
X-649810Y-136110D01*
X-649843Y-135960D01*
X-649885Y-135814D01*
X-649935Y-135668D01*
X-649993Y-135531D01*
X-650060Y-135398D01*
X-650139Y-135277D01*
X-650143Y-135269D01*
X-650160Y-135252D01*
X-650185Y-135219D01*
X-650222Y-135181D01*
X-650268Y-135131D01*
X-650327Y-135077D01*
X-650393Y-135019D01*
X-650472Y-134956D01*
X-650564Y-134894D01*
X-650664Y-134831D01*
X-650780Y-134769D01*
X-650901Y-134710D01*
X-651039Y-134660D01*
X-651189Y-134615D01*
X-651347Y-134577D01*
X-651518Y-134548D01*
X-651622Y-136322D01*
X-651618D01*
X-651605Y-136327D01*
X-651584Y-136331D01*
X-651555Y-136335D01*
X-651522Y-136348D01*
X-651480Y-136356D01*
X-651393Y-136385D01*
X-651293Y-136427D01*
X-651193Y-136481D01*
X-651101Y-136543D01*
X-651060Y-136581D01*
X-651022Y-136622D01*
X-651018Y-136627D01*
X-651014Y-136631D01*
X-651005Y-136647D01*
X-650993Y-136664D01*
X-650981Y-136685D01*
X-650964Y-136714D01*
X-650947Y-136747D01*
X-650926Y-136785D01*
X-650910Y-136826D01*
X-650893Y-136872D01*
X-650876Y-136922D01*
X-650864Y-136981D01*
X-650851Y-137039D01*
X-650843Y-137101D01*
X-650835Y-137172D01*
Y-137297D01*
X-650839Y-137326D01*
X-650843Y-137355D01*
X-650851Y-137426D01*
X-650868Y-137510D01*
X-650893Y-137589D01*
X-650930Y-137668D01*
X-650976Y-137739D01*
X-650981Y-137747D01*
X-651001Y-137764D01*
X-651030Y-137789D01*
X-651068Y-137818D01*
X-651118Y-137851D01*
X-651176Y-137876D01*
X-651243Y-137893D01*
X-651314Y-137901D01*
X-651322D01*
X-651339Y-137897D01*
X-651368Y-137893D01*
X-651401Y-137885D01*
X-651443Y-137868D01*
X-651485Y-137843D01*
X-651530Y-137814D01*
X-651576Y-137768D01*
X-651580Y-137760D01*
X-651589Y-137751D01*
X-651597Y-137739D01*
X-651605Y-137722D01*
X-651618Y-137701D01*
X-651635Y-137672D01*
X-651651Y-137639D01*
X-651668Y-137601D01*
X-651684Y-137556D01*
X-651701Y-137501D01*
X-651722Y-137443D01*
X-651743Y-137381D01*
X-651759Y-137305D01*
X-651780Y-137222D01*
X-651801Y-137135D01*
Y-137131D01*
X-651805Y-137122D01*
X-651809Y-137106D01*
X-651814Y-137081D01*
X-651818Y-137051D01*
X-651826Y-137018D01*
X-651839Y-136976D01*
X-651847Y-136935D01*
X-651859Y-136885D01*
X-651872Y-136831D01*
X-651901Y-136718D01*
X-651934Y-136589D01*
X-651968Y-136452D01*
X-652009Y-136310D01*
X-652051Y-136160D01*
X-652097Y-136014D01*
X-652143Y-135868D01*
X-652188Y-135731D01*
X-652238Y-135598D01*
X-652293Y-135477D01*
X-652343Y-135368D01*
X-652347Y-135364D01*
X-652355Y-135344D01*
X-652372Y-135319D01*
X-652393Y-135281D01*
X-652418Y-135239D01*
X-652451Y-135185D01*
X-652488Y-135131D01*
X-652530Y-135073D01*
X-652576Y-135010D01*
X-652626Y-134944D01*
X-652680Y-134881D01*
X-652742Y-134815D01*
X-652805Y-134756D01*
X-652872Y-134698D01*
X-652943Y-134644D01*
X-653017Y-134594D01*
X-653022Y-134590D01*
X-653034Y-134581D01*
X-653059Y-134573D01*
X-653088Y-134556D01*
X-653126Y-134535D01*
X-653172Y-134515D01*
X-653222Y-134494D01*
X-653280Y-134469D01*
X-653342Y-134448D01*
X-653413Y-134427D01*
X-653488Y-134406D01*
X-653567Y-134385D01*
X-653646Y-134369D01*
X-653734Y-134361D01*
X-653826Y-134352D01*
X-653917Y-134348D01*
X-649702D01*
X-656000D01*
X-653976D01*
X-654017Y-134352D01*
X-654067Y-134356D01*
X-654130Y-134365D01*
X-654196Y-134377D01*
X-654271Y-134390D01*
X-654350Y-134406D01*
X-654438Y-134427D01*
X-654525Y-134452D01*
X-654617Y-134485D01*
X-654713Y-134523D01*
X-654809Y-134565D01*
X-654900Y-134615D01*
X-654996Y-134673D01*
X-655000Y-134677D01*
X-655017Y-134690D01*
X-655042Y-134706D01*
X-655079Y-134731D01*
X-655117Y-134764D01*
X-655167Y-134806D01*
X-655217Y-134852D01*
X-655275Y-134906D01*
X-655333Y-134969D01*
X-655396Y-135035D01*
X-655459Y-135110D01*
X-655521Y-135194D01*
X-655583Y-135281D01*
X-655642Y-135373D01*
X-655696Y-135473D01*
X-655746Y-135581D01*
X-655750Y-135589D01*
X-655758Y-135606D01*
X-655771Y-135639D01*
X-655783Y-135685D01*
X-655804Y-135743D01*
X-655825Y-135810D01*
X-655850Y-135889D01*
X-655871Y-135981D01*
X-655896Y-136081D01*
X-655921Y-136193D01*
X-655942Y-136314D01*
X-655958Y-136443D01*
X-655975Y-136581D01*
X-655987Y-136731D01*
X-655996Y-136885D01*
X-656000Y-137047D01*
Y-137114D01*
X-655996Y-137151D01*
Y-137193D01*
X-655992Y-137243D01*
Y-137297D01*
X-655987Y-137360D01*
X-655983Y-137426D01*
X-655975Y-137493D01*
X-655967Y-137568D01*
X-655950Y-137726D01*
X-655925Y-137897D01*
X-655896Y-138072D01*
X-655854Y-138251D01*
X-655808Y-138430D01*
X-655750Y-138609D01*
X-655679Y-138776D01*
X-655600Y-138930D01*
X-655558Y-139005D01*
X-655508Y-139072D01*
X-655459Y-139138D01*
X-655404Y-139197D01*
X-655396Y-139205D01*
X-655375Y-139222D01*
X-655342Y-139251D01*
X-655296Y-139292D01*
X-655238Y-139338D01*
X-655167Y-139388D01*
X-655084Y-139447D01*
X-654992Y-139505D01*
X-654888Y-139567D01*
X-654771Y-139626D01*
X-654646Y-139680D01*
X-654513Y-139734D01*
X-654367Y-139780D01*
X-654213Y-139822D01*
X-654055Y-139851D01*
X-653884Y-139872D01*
D01*
X-653771Y-138080D01*
X-653776D01*
X-653792Y-138076D01*
X-653813Y-138072D01*
X-653842Y-138068D01*
X-653880Y-138064D01*
X-653921Y-138055D01*
X-653967Y-138043D01*
X-654017Y-138030D01*
X-654126Y-138001D01*
X-654238Y-137959D01*
X-654342Y-137910D01*
X-654392Y-137880D01*
X-654438Y-137847D01*
X-654442Y-137843D01*
X-654455Y-137835D01*
X-654471Y-137818D01*
X-654496Y-137793D01*
X-654521Y-137764D01*
X-654555Y-137726D01*
X-654588Y-137685D01*
X-654621Y-137635D01*
X-654654Y-137576D01*
X-654688Y-137518D01*
X-654721Y-137447D01*
X-654746Y-137372D01*
X-654771Y-137293D01*
X-654788Y-137210D01*
X-654800Y-137114D01*
X-654805Y-137018D01*
Y-136981D01*
X-654800Y-136952D01*
Y-136918D01*
X-654796Y-136881D01*
X-654788Y-136835D01*
X-654780Y-136789D01*
X-654759Y-136689D01*
X-654725Y-136585D01*
X-654679Y-136485D01*
X-654650Y-136439D01*
X-654617Y-136397D01*
X-654613Y-136393D01*
X-654609Y-136389D01*
X-654584Y-136364D01*
X-654546Y-136327D01*
X-654492Y-136285D01*
X-654430Y-136248D01*
X-654355Y-136210D01*
X-654271Y-136185D01*
X-654225Y-136181D01*
X-654180Y-136177D01*
X-654175D01*
X-654167D01*
X-654155D01*
X-654138Y-136181D01*
X-654096Y-136189D01*
X-654038Y-136202D01*
X-653971Y-136227D01*
X-653901Y-136264D01*
X-653863Y-136289D01*
X-653826Y-136314D01*
X-653792Y-136348D01*
X-653755Y-136385D01*
X-653751Y-136389D01*
X-653746Y-136393D01*
X-653738Y-136410D01*
X-653721Y-136431D01*
X-653705Y-136456D01*
X-653688Y-136489D01*
X-653663Y-136531D01*
X-653638Y-136585D01*
X-653613Y-136643D01*
X-653584Y-136710D01*
X-653555Y-136789D01*
X-653526Y-136881D01*
X-653496Y-136976D01*
X-653463Y-137089D01*
X-653434Y-137214D01*
X-653401Y-137347D01*
Y-137351D01*
X-653397Y-137360D01*
X-653392Y-137376D01*
X-653388Y-137401D01*
X-653380Y-137430D01*
X-653372Y-137464D01*
X-653363Y-137506D01*
X-653351Y-137547D01*
X-653338Y-137597D01*
X-653322Y-137651D01*
X-653288Y-137768D01*
X-653251Y-137893D01*
X-653205Y-138030D01*
X-653155Y-138176D01*
X-653097Y-138322D01*
X-653038Y-138468D01*
X-652972Y-138614D01*
X-652901Y-138755D01*
X-652826Y-138884D01*
X-652747Y-139005D01*
X-652663Y-139113D01*
X-652659Y-139118D01*
X-652643Y-139134D01*
X-652617Y-139163D01*
X-652580Y-139197D01*
X-652534Y-139234D01*
X-652480Y-139280D01*
X-652413Y-139330D01*
X-652343Y-139376D01*
X-652263Y-139426D01*
X-652172Y-139476D01*
X-652076Y-139522D01*
X-651972Y-139559D01*
X-651859Y-139593D01*
X-651743Y-139622D01*
X-651614Y-139638D01*
X-651485Y-139642D01*
X-651480D01*
X-651464D01*
X-651439D01*
X-651405Y-139638D01*
X-651364Y-139634D01*
X-651314Y-139630D01*
X-651260Y-139622D01*
X-651197Y-139609D01*
X-651135Y-139593D01*
X-651064Y-139576D01*
X-650989Y-139555D01*
X-650914Y-139530D01*
X-650839Y-139497D01*
X-650760Y-139459D01*
X-650680Y-139417D01*
X-650601Y-139372D01*
X-650597Y-139368D01*
X-650585Y-139359D01*
X-650560Y-139342D01*
X-650531Y-139322D01*
X-650497Y-139292D01*
X-650456Y-139255D01*
X-650410Y-139218D01*
X-650360Y-139168D01*
X-650310Y-139113D01*
X-650256Y-139055D01*
X-650201Y-138984D01*
X-650147Y-138913D01*
X-650093Y-138834D01*
X-650039Y-138747D01*
X-649989Y-138655D01*
X-649943Y-138555D01*
X-649939Y-138547D01*
X-649931Y-138530D01*
X-649922Y-138497D01*
X-649906Y-138455D01*
X-649889Y-138401D01*
X-649868Y-138330D01*
X-649843Y-138255D01*
X-649822Y-138164D01*
X-649802Y-138064D01*
X-649777Y-137951D01*
X-649756Y-137826D01*
X-649739Y-137693D01*
X-649722Y-137551D01*
X-649710Y-137397D01*
X-649706Y-137235D01*
X-649702Y-137060D01*
Y-139872D01*
X-653884D01*
X-649702D01*
Y-134348D01*
D02*
G37*
G36*
X-649806Y-140151D02*
D01*
Y-142921D01*
X-649810Y-142863D01*
Y-142788D01*
X-649814Y-142704D01*
X-649818Y-142612D01*
X-649822Y-142513D01*
X-649831Y-142404D01*
X-649843Y-142296D01*
X-649868Y-142075D01*
X-649885Y-141967D01*
X-649906Y-141863D01*
X-649931Y-141767D01*
X-649956Y-141675D01*
Y-141671D01*
X-649964Y-141654D01*
X-649972Y-141629D01*
X-649985Y-141600D01*
X-650002Y-141559D01*
X-650026Y-141513D01*
X-650051Y-141463D01*
X-650081Y-141409D01*
X-650118Y-141350D01*
X-650160Y-141288D01*
X-650201Y-141229D01*
X-650256Y-141167D01*
X-650310Y-141105D01*
X-650372Y-141042D01*
X-650439Y-140984D01*
X-650514Y-140930D01*
X-650518Y-140925D01*
X-650531Y-140917D01*
X-650556Y-140905D01*
X-650585Y-140884D01*
X-650626Y-140863D01*
X-650672Y-140838D01*
X-650726Y-140813D01*
X-650789Y-140788D01*
X-650855Y-140763D01*
X-650930Y-140734D01*
X-651014Y-140713D01*
X-651101Y-140692D01*
X-651193Y-140671D01*
X-651293Y-140659D01*
X-651393Y-140651D01*
X-651501Y-140646D01*
X-651505D01*
X-651522D01*
X-651551D01*
X-651584Y-140651D01*
X-651630Y-140655D01*
X-651680Y-140659D01*
X-651739Y-140663D01*
X-651801Y-140671D01*
X-651868Y-140684D01*
X-651934Y-140701D01*
X-652084Y-140738D01*
X-652159Y-140763D01*
X-652230Y-140792D01*
X-652305Y-140826D01*
X-652376Y-140863D01*
X-652380Y-140867D01*
X-652393Y-140871D01*
X-652409Y-140884D01*
X-652438Y-140905D01*
X-652468Y-140925D01*
X-652505Y-140950D01*
X-652543Y-140984D01*
X-652588Y-141017D01*
X-652634Y-141059D01*
X-652684Y-141105D01*
X-652730Y-141150D01*
X-652780Y-141205D01*
X-652880Y-141325D01*
X-652972Y-141459D01*
Y-141463D01*
X-652980Y-141471D01*
X-652984Y-141484D01*
X-652997Y-141504D01*
X-653009Y-141525D01*
X-653022Y-141559D01*
X-653038Y-141592D01*
X-653055Y-141629D01*
X-653076Y-141675D01*
X-653097Y-141725D01*
X-653113Y-141779D01*
X-653134Y-141838D01*
X-653155Y-141900D01*
X-653176Y-141967D01*
X-653197Y-142042D01*
X-653213Y-142117D01*
Y-142113D01*
X-653217Y-142100D01*
X-653226Y-142084D01*
X-653234Y-142063D01*
X-653242Y-142034D01*
X-653255Y-142004D01*
X-653284Y-141929D01*
X-653317Y-141850D01*
X-653355Y-141771D01*
X-653397Y-141696D01*
X-653417Y-141659D01*
X-653438Y-141629D01*
X-653442Y-141625D01*
X-653455Y-141609D01*
X-653476Y-141588D01*
X-653505Y-141554D01*
X-653551Y-141509D01*
X-653605Y-141459D01*
X-653676Y-141400D01*
X-653759Y-141329D01*
X-653763Y-141325D01*
X-653771Y-141321D01*
X-653784Y-141313D01*
X-653801Y-141296D01*
X-653842Y-141263D01*
X-653896Y-141221D01*
X-653955Y-141180D01*
X-654017Y-141138D01*
X-654080Y-141096D01*
X-654134Y-141067D01*
X-655896Y-140151D01*
Y-142279D01*
X-654038Y-143283D01*
X-654034D01*
X-654021Y-143292D01*
X-654005Y-143300D01*
X-653980Y-143316D01*
X-653951Y-143333D01*
X-653917Y-143350D01*
X-653842Y-143396D01*
X-653763Y-143450D01*
X-653688Y-143508D01*
X-653617Y-143562D01*
X-653592Y-143591D01*
X-653567Y-143621D01*
Y-143625D01*
X-653563Y-143629D01*
X-653555Y-143641D01*
X-653547Y-143658D01*
X-653521Y-143700D01*
X-653496Y-143754D01*
X-653472Y-143825D01*
X-653447Y-143900D01*
X-653430Y-143987D01*
X-653426Y-144083D01*
Y-144245D01*
X-655896D01*
Y-146137D01*
X-649806D01*
Y-140151D01*
D02*
G37*
G36*
X-652426Y-150119D02*
X-656000D01*
X-655021D01*
Y-150123D01*
X-655029Y-150127D01*
X-655034Y-150140D01*
X-655046Y-150156D01*
X-655075Y-150202D01*
X-655113Y-150261D01*
X-655159Y-150331D01*
X-655213Y-150419D01*
X-655271Y-150515D01*
X-655333Y-150619D01*
X-655396Y-150731D01*
X-655463Y-150848D01*
X-655525Y-150969D01*
X-655588Y-151098D01*
X-655650Y-151223D01*
X-655704Y-151348D01*
X-655754Y-151477D01*
X-655796Y-151598D01*
X-655800Y-151606D01*
X-655804Y-151627D01*
X-655813Y-151664D01*
X-655829Y-151710D01*
X-655842Y-151773D01*
X-655858Y-151848D01*
X-655879Y-151931D01*
X-655896Y-152027D01*
X-655917Y-152135D01*
X-655933Y-152252D01*
X-655954Y-152377D01*
X-655967Y-152510D01*
X-655979Y-152652D01*
X-655992Y-152802D01*
X-655996Y-152956D01*
X-656000Y-153118D01*
Y-153193D01*
X-655996Y-153222D01*
Y-153297D01*
X-655992Y-153343D01*
X-655987Y-153389D01*
X-655979Y-153497D01*
X-655971Y-153614D01*
X-655954Y-153743D01*
X-655933Y-153881D01*
X-655908Y-154026D01*
X-655879Y-154172D01*
X-655846Y-154322D01*
X-655804Y-154468D01*
X-655754Y-154614D01*
X-655696Y-154751D01*
X-655633Y-154884D01*
X-655629Y-154893D01*
X-655617Y-154914D01*
X-655596Y-154951D01*
X-655563Y-154997D01*
X-655525Y-155055D01*
X-655479Y-155122D01*
X-655421Y-155193D01*
X-655359Y-155272D01*
X-655284Y-155355D01*
X-655200Y-155443D01*
X-655113Y-155530D01*
X-655013Y-155618D01*
X-654904Y-155705D01*
X-654792Y-155788D01*
X-654667Y-155868D01*
X-654534Y-155942D01*
X-654530D01*
X-654525Y-155947D01*
X-654500Y-155959D01*
X-654459Y-155976D01*
X-654405Y-156001D01*
X-654334Y-156030D01*
X-654250Y-156059D01*
X-654155Y-156097D01*
X-654046Y-156130D01*
X-653930Y-156163D01*
X-653801Y-156196D01*
X-653663Y-156230D01*
X-653513Y-156259D01*
X-653359Y-156284D01*
X-653197Y-156301D01*
X-653026Y-156313D01*
X-652851Y-156317D01*
X-656000D01*
X-649702D01*
Y-153139D01*
Y-156317D01*
X-652784D01*
X-652755Y-156313D01*
X-652722D01*
X-652684Y-156309D01*
X-652597Y-156305D01*
X-652497Y-156297D01*
X-652384Y-156284D01*
X-652259Y-156267D01*
X-652130Y-156247D01*
X-651989Y-156217D01*
X-651847Y-156184D01*
X-651701Y-156147D01*
X-651551Y-156097D01*
X-651405Y-156042D01*
X-651260Y-155980D01*
X-651118Y-155909D01*
X-651114D01*
X-651110Y-155905D01*
X-651085Y-155888D01*
X-651047Y-155868D01*
X-650997Y-155834D01*
X-650935Y-155788D01*
X-650864Y-155738D01*
X-650785Y-155676D01*
X-650701Y-155605D01*
X-650614Y-155522D01*
X-650522Y-155434D01*
X-650426Y-155334D01*
X-650335Y-155226D01*
X-650243Y-155109D01*
X-650156Y-154984D01*
X-650072Y-154851D01*
X-649997Y-154705D01*
X-649993Y-154697D01*
X-649985Y-154676D01*
X-649968Y-154643D01*
X-649952Y-154593D01*
X-649931Y-154530D01*
X-649906Y-154455D01*
X-649877Y-154364D01*
X-649847Y-154264D01*
X-649822Y-154151D01*
X-649793Y-154026D01*
X-649768Y-153889D01*
X-649747Y-153739D01*
X-649731Y-153581D01*
X-649714Y-153410D01*
X-649706Y-153231D01*
X-649702Y-153039D01*
Y-153139D01*
Y-153039D01*
Y-152802D01*
Y-152910D01*
X-649706Y-152872D01*
Y-152789D01*
X-649710Y-152693D01*
X-649718Y-152585D01*
X-649722Y-152472D01*
X-649735Y-152352D01*
X-649747Y-152227D01*
X-649781Y-151977D01*
X-649802Y-151856D01*
X-649822Y-151739D01*
X-649852Y-151631D01*
X-649885Y-151531D01*
Y-151527D01*
X-649893Y-151510D01*
X-649906Y-151481D01*
X-649918Y-151448D01*
X-649939Y-151406D01*
X-649964Y-151356D01*
X-649993Y-151302D01*
X-650026Y-151240D01*
X-650064Y-151177D01*
X-650106Y-151110D01*
X-650152Y-151039D01*
X-650201Y-150969D01*
X-650260Y-150902D01*
X-650318Y-150831D01*
X-650385Y-150765D01*
X-650456Y-150702D01*
X-650460Y-150698D01*
X-650472Y-150685D01*
X-650493Y-150669D01*
X-650526Y-150648D01*
X-650564Y-150619D01*
X-650610Y-150590D01*
X-650660Y-150552D01*
X-650722Y-150515D01*
X-650789Y-150473D01*
X-650860Y-150435D01*
X-650939Y-150394D01*
X-651026Y-150352D01*
X-651118Y-150310D01*
X-651214Y-150273D01*
X-651318Y-150236D01*
X-651426Y-150202D01*
X-651751Y-152018D01*
X-651747D01*
X-651734Y-152023D01*
X-651718Y-152031D01*
X-651693Y-152039D01*
X-651664Y-152052D01*
X-651630Y-152068D01*
X-651555Y-152110D01*
X-651468Y-152160D01*
X-651380Y-152227D01*
X-651297Y-152306D01*
X-651222Y-152402D01*
X-651218Y-152406D01*
X-651214Y-152414D01*
X-651205Y-152431D01*
X-651193Y-152452D01*
X-651180Y-152477D01*
X-651164Y-152506D01*
X-651147Y-152543D01*
X-651130Y-152585D01*
X-651114Y-152635D01*
X-651097Y-152685D01*
X-651080Y-152739D01*
X-651068Y-152802D01*
X-651047Y-152935D01*
X-651039Y-153006D01*
Y-153106D01*
X-651043Y-153139D01*
X-651047Y-153181D01*
X-651051Y-153235D01*
X-651060Y-153293D01*
X-651076Y-153364D01*
X-651093Y-153435D01*
X-651114Y-153510D01*
X-651143Y-153593D01*
X-651180Y-153672D01*
X-651222Y-153756D01*
X-651272Y-153839D01*
X-651330Y-153918D01*
X-651397Y-153993D01*
X-651472Y-154064D01*
X-651476Y-154068D01*
X-651493Y-154080D01*
X-651518Y-154097D01*
X-651555Y-154122D01*
X-651601Y-154147D01*
X-651655Y-154180D01*
X-651726Y-154214D01*
X-651801Y-154247D01*
X-651893Y-154280D01*
X-651993Y-154314D01*
X-652105Y-154347D01*
X-652226Y-154372D01*
X-652363Y-154397D01*
X-652509Y-154414D01*
X-652663Y-154426D01*
X-652834Y-154430D01*
X-652838D01*
X-652847D01*
X-652859D01*
X-652876D01*
X-652901D01*
X-652930Y-154426D01*
X-652997D01*
X-653076Y-154418D01*
X-653167Y-154410D01*
X-653271Y-154401D01*
X-653380Y-154384D01*
X-653496Y-154364D01*
X-653613Y-154339D01*
X-653730Y-154310D01*
X-653846Y-154272D01*
X-653959Y-154230D01*
X-654063Y-154180D01*
X-654159Y-154126D01*
X-654246Y-154060D01*
X-654250Y-154055D01*
X-654263Y-154043D01*
X-654284Y-154022D01*
X-654313Y-153993D01*
X-654342Y-153951D01*
X-654380Y-153905D01*
X-654417Y-153851D01*
X-654455Y-153793D01*
X-654496Y-153722D01*
X-654534Y-153643D01*
X-654571Y-153560D01*
X-654600Y-153468D01*
X-654630Y-153368D01*
X-654650Y-153260D01*
X-654663Y-153147D01*
X-654667Y-153027D01*
Y-152972D01*
X-654663Y-152943D01*
Y-152910D01*
X-654659Y-152872D01*
X-654654Y-152831D01*
X-654646Y-152739D01*
X-654630Y-152639D01*
X-654609Y-152535D01*
X-654579Y-152427D01*
Y-152423D01*
X-654575Y-152414D01*
X-654571Y-152397D01*
X-654563Y-152377D01*
X-654550Y-152347D01*
X-654538Y-152314D01*
X-654525Y-152277D01*
X-654505Y-152235D01*
X-654484Y-152189D01*
X-654463Y-152139D01*
X-654409Y-152027D01*
X-654342Y-151902D01*
X-654267Y-151769D01*
X-653692D01*
Y-153027D01*
X-652426D01*
Y-150119D01*
D02*
G37*
G36*
X-649806Y-156692D02*
Y-158975D01*
X-655896Y-156692D01*
Y-163320D01*
X-649806Y-161033D01*
Y-163320D01*
Y-156692D01*
D02*
G37*
G36*
Y-163553D02*
X-655896D01*
X-651310D01*
Y-165473D01*
X-655896D01*
Y-167356D01*
X-651310D01*
Y-169277D01*
X-649806D01*
Y-163553D01*
D02*
G37*
G36*
Y-170105D02*
X-656000D01*
Y-172426D01*
Y-170105D01*
X-653251D01*
X-653288Y-170110D01*
X-653376D01*
X-653476Y-170114D01*
X-653588Y-170122D01*
X-653705Y-170131D01*
X-653834Y-170139D01*
X-653963Y-170151D01*
X-654225Y-170185D01*
X-654355Y-170205D01*
X-654480Y-170230D01*
X-654596Y-170260D01*
X-654705Y-170293D01*
X-654709D01*
X-654730Y-170301D01*
X-654759Y-170314D01*
X-654796Y-170330D01*
X-654842Y-170351D01*
X-654896Y-170380D01*
X-654954Y-170414D01*
X-655021Y-170455D01*
X-655092Y-170501D01*
X-655167Y-170555D01*
X-655242Y-170614D01*
X-655321Y-170685D01*
X-655400Y-170760D01*
X-655475Y-170843D01*
X-655550Y-170934D01*
X-655625Y-171034D01*
X-655629Y-171043D01*
X-655642Y-171059D01*
X-655658Y-171093D01*
X-655683Y-171134D01*
X-655713Y-171189D01*
X-655742Y-171255D01*
X-655779Y-171334D01*
X-655813Y-171422D01*
X-655846Y-171522D01*
X-655879Y-171630D01*
X-655912Y-171747D01*
X-655942Y-171876D01*
X-655967Y-172009D01*
X-655983Y-172155D01*
X-655996Y-172305D01*
X-656000Y-172467D01*
Y-172426D01*
Y-172467D01*
Y-172555D01*
X-655996Y-172617D01*
X-655992Y-172696D01*
X-655987Y-172784D01*
X-655979Y-172884D01*
X-655971Y-172992D01*
X-655954Y-173105D01*
X-655942Y-173221D01*
X-655921Y-173338D01*
X-655896Y-173459D01*
X-655867Y-173575D01*
X-655833Y-173688D01*
X-655796Y-173796D01*
X-655754Y-173896D01*
X-655750Y-173900D01*
X-655742Y-173917D01*
X-655729Y-173946D01*
X-655708Y-173979D01*
X-655683Y-174021D01*
X-655650Y-174071D01*
X-655613Y-174125D01*
X-655571Y-174184D01*
X-655521Y-174246D01*
X-655467Y-174309D01*
X-655408Y-174375D01*
X-655342Y-174438D01*
X-655271Y-174504D01*
X-655196Y-174567D01*
X-655113Y-174625D01*
X-655025Y-174679D01*
X-655021Y-174683D01*
X-655004Y-174692D01*
X-654975Y-174704D01*
X-654938Y-174721D01*
X-654892Y-174746D01*
X-654838Y-174767D01*
X-654771Y-174796D01*
X-654696Y-174821D01*
X-654613Y-174850D01*
X-654525Y-174879D01*
X-654425Y-174904D01*
X-654321Y-174929D01*
X-654209Y-174954D01*
X-654092Y-174975D01*
X-653967Y-174988D01*
X-653838Y-175000D01*
D01*
X-653592Y-173200D01*
X-653596D01*
X-653609D01*
X-653630D01*
X-653659D01*
X-653692Y-173196D01*
X-653730D01*
X-653817Y-173192D01*
X-653917Y-173184D01*
X-654017Y-173171D01*
X-654109Y-173155D01*
X-654155Y-173146D01*
X-654192Y-173134D01*
X-654196D01*
X-654201Y-173130D01*
X-654225Y-173121D01*
X-654259Y-173105D01*
X-654305Y-173080D01*
X-654355Y-173051D01*
X-654409Y-173009D01*
X-654459Y-172963D01*
X-654509Y-172909D01*
X-654513Y-172905D01*
X-654521Y-172888D01*
X-654534Y-172863D01*
X-654546Y-172830D01*
X-654559Y-172784D01*
X-654571Y-172734D01*
X-654579Y-172672D01*
X-654584Y-172601D01*
Y-172572D01*
X-654579Y-172551D01*
X-654575Y-172526D01*
X-654571Y-172492D01*
X-654555Y-172426D01*
X-654525Y-172351D01*
X-654484Y-172276D01*
X-654459Y-172238D01*
X-654425Y-172205D01*
X-654392Y-172172D01*
X-654350Y-172143D01*
X-654346D01*
X-654338Y-172134D01*
X-654325Y-172130D01*
X-654305Y-172118D01*
X-654280Y-172109D01*
X-654246Y-172097D01*
X-654209Y-172080D01*
X-654163Y-172068D01*
X-654113Y-172055D01*
X-654055Y-172038D01*
X-653988Y-172026D01*
X-653917Y-172017D01*
X-653838Y-172005D01*
X-653755Y-172001D01*
X-653659Y-171992D01*
X-653559D01*
X-649806D01*
Y-175000D01*
Y-170105D01*
D02*
G37*
%LPD*%
G36*
X-651680Y-107392D02*
X-651659D01*
X-651630Y-107396D01*
X-651560Y-107413D01*
X-651485Y-107434D01*
X-651401Y-107467D01*
X-651322Y-107517D01*
X-651280Y-107547D01*
X-651243Y-107580D01*
X-651239Y-107584D01*
X-651235Y-107588D01*
X-651226Y-107601D01*
X-651210Y-107617D01*
X-651197Y-107638D01*
X-651180Y-107667D01*
X-651160Y-107701D01*
X-651143Y-107742D01*
X-651122Y-107788D01*
X-651105Y-107838D01*
X-651089Y-107896D01*
X-651072Y-107963D01*
X-651060Y-108034D01*
X-651051Y-108113D01*
X-651047Y-108201D01*
X-651043Y-108296D01*
Y-108829D01*
X-652401D01*
Y-108321D01*
X-652397Y-108284D01*
Y-108238D01*
X-652393Y-108188D01*
X-652384Y-108134D01*
X-652376Y-108071D01*
X-652355Y-107946D01*
X-652322Y-107821D01*
X-652301Y-107763D01*
X-652276Y-107705D01*
X-652247Y-107655D01*
X-652214Y-107609D01*
X-652209Y-107605D01*
X-652205Y-107601D01*
X-652180Y-107576D01*
X-652139Y-107538D01*
X-652084Y-107497D01*
X-652013Y-107459D01*
X-651930Y-107422D01*
X-651834Y-107396D01*
X-651784Y-107392D01*
X-651730Y-107388D01*
X-651726D01*
X-651718D01*
X-651701D01*
X-651680Y-107392D01*
D02*
G37*
G36*
X-649806Y-116290D02*
X-653513Y-115340D01*
X-649806Y-114395D01*
Y-116290D01*
D02*
G37*
G36*
X-651597Y-142542D02*
X-651572D01*
X-651543Y-142546D01*
X-651480Y-142563D01*
X-651405Y-142583D01*
X-651330Y-142617D01*
X-651260Y-142662D01*
X-651222Y-142692D01*
X-651193Y-142725D01*
Y-142729D01*
X-651185Y-142733D01*
X-651176Y-142746D01*
X-651168Y-142762D01*
X-651155Y-142783D01*
X-651143Y-142812D01*
X-651130Y-142846D01*
X-651114Y-142883D01*
X-651097Y-142929D01*
X-651085Y-142979D01*
X-651072Y-143037D01*
X-651060Y-143100D01*
X-651047Y-143171D01*
X-651043Y-143246D01*
X-651035Y-143333D01*
Y-144245D01*
X-652276D01*
Y-143433D01*
X-652272Y-143400D01*
X-652268Y-143375D01*
X-652263Y-143346D01*
X-652259Y-143316D01*
X-652255Y-143279D01*
X-652247Y-143242D01*
X-652243Y-143196D01*
X-652230Y-143146D01*
X-652222Y-143087D01*
X-652205Y-143029D01*
X-652193Y-142962D01*
Y-142954D01*
X-652184Y-142929D01*
X-652172Y-142896D01*
X-652155Y-142854D01*
X-652130Y-142804D01*
X-652097Y-142754D01*
X-652055Y-142704D01*
X-652001Y-142658D01*
X-651993Y-142654D01*
X-651972Y-142638D01*
X-651943Y-142621D01*
X-651897Y-142596D01*
X-651847Y-142575D01*
X-651784Y-142554D01*
X-651718Y-142542D01*
X-651647Y-142537D01*
X-651643D01*
X-651635D01*
X-651618D01*
X-651597Y-142542D01*
D02*
G37*
G36*
X-651389Y-160029D02*
X-653576Y-160695D01*
Y-159358D01*
X-651389Y-160029D01*
D02*
G37*
G36*
X-654892Y-158967D02*
Y-161104D01*
X-655896Y-161399D01*
Y-158663D01*
X-654892Y-158967D01*
D02*
G37*
%LPC*%
G36*
X-88896Y91541D02*
Y85555D01*
X-82806D01*
Y88771D01*
X-82810Y88829D01*
Y88904D01*
X-82814Y88988D01*
X-82818Y89079D01*
X-82822Y89179D01*
X-82831Y89287D01*
X-82843Y89396D01*
X-82868Y89616D01*
X-82885Y89725D01*
X-82906Y89829D01*
X-82931Y89925D01*
X-82956Y90016D01*
Y90021D01*
X-82964Y90037D01*
X-82972Y90062D01*
X-82985Y90091D01*
X-83002Y90133D01*
X-83027Y90179D01*
X-83052Y90229D01*
X-83081Y90283D01*
X-83118Y90341D01*
X-83160Y90404D01*
X-83202Y90462D01*
X-83256Y90525D01*
X-83310Y90587D01*
X-83372Y90649D01*
X-83439Y90708D01*
X-83514Y90762D01*
X-83518Y90766D01*
X-83531Y90774D01*
X-83556Y90787D01*
X-83585Y90808D01*
X-83626Y90829D01*
X-83672Y90854D01*
X-83726Y90879D01*
X-83789Y90904D01*
X-83855Y90929D01*
X-83931Y90958D01*
X-84014Y90979D01*
X-84101Y90999D01*
X-84193Y91020D01*
X-84293Y91033D01*
X-84393Y91041D01*
X-84501Y91045D01*
X-84505D01*
X-84522D01*
X-84551D01*
X-84585Y91041D01*
X-84630Y91037D01*
X-84680Y91033D01*
X-84739Y91029D01*
X-84801Y91020D01*
X-84868Y91008D01*
X-84934Y90991D01*
X-85084Y90954D01*
X-85159Y90929D01*
X-85230Y90899D01*
X-85305Y90866D01*
X-85376Y90829D01*
X-85380Y90824D01*
X-85393Y90820D01*
X-85409Y90808D01*
X-85438Y90787D01*
X-85468Y90766D01*
X-85505Y90741D01*
X-85543Y90708D01*
X-85588Y90674D01*
X-85634Y90633D01*
X-85684Y90587D01*
X-85730Y90541D01*
X-85780Y90487D01*
X-85880Y90366D01*
X-85972Y90233D01*
Y90229D01*
X-85980Y90220D01*
X-85984Y90208D01*
X-85997Y90187D01*
X-86009Y90166D01*
X-86022Y90133D01*
X-86038Y90100D01*
X-86055Y90062D01*
X-86076Y90016D01*
X-86097Y89966D01*
X-86113Y89912D01*
X-86134Y89854D01*
X-86155Y89791D01*
X-86176Y89725D01*
X-86197Y89650D01*
X-86213Y89575D01*
Y89579D01*
X-86217Y89592D01*
X-86226Y89608D01*
X-86234Y89629D01*
X-86242Y89658D01*
X-86255Y89687D01*
X-86284Y89762D01*
X-86317Y89841D01*
X-86355Y89921D01*
X-86397Y89995D01*
X-86417Y90033D01*
X-86438Y90062D01*
X-86442Y90066D01*
X-86455Y90083D01*
X-86476Y90104D01*
X-86505Y90137D01*
X-86551Y90183D01*
X-86605Y90233D01*
X-86676Y90291D01*
X-86759Y90362D01*
X-86763Y90366D01*
X-86771Y90370D01*
X-86784Y90379D01*
X-86801Y90395D01*
X-86842Y90429D01*
X-86896Y90470D01*
X-86955Y90512D01*
X-87017Y90554D01*
X-87080Y90595D01*
X-87134Y90625D01*
X-88896Y91541D01*
D02*
G37*
G36*
X-82806Y84914D02*
X-88896Y83568D01*
Y84914D01*
X-82806D01*
X-88896D01*
Y76395D01*
Y77749D01*
X-82806Y76395D01*
Y78182D01*
X-86209Y78823D01*
X-82806Y79765D01*
Y81548D01*
X-86205Y82489D01*
X-82806Y83135D01*
Y84914D01*
D02*
G37*
G36*
Y76037D02*
X-88896D01*
X-84739D01*
X-84764Y76032D01*
X-84826Y76028D01*
X-84905Y76020D01*
X-84993Y76007D01*
X-85093Y75991D01*
X-85201Y75966D01*
X-85314Y75937D01*
X-85434Y75903D01*
X-85551Y75858D01*
X-85672Y75803D01*
X-85793Y75741D01*
X-85905Y75666D01*
X-86013Y75578D01*
X-86117Y75483D01*
X-86122Y75474D01*
X-86138Y75458D01*
X-86163Y75424D01*
X-86197Y75378D01*
X-86238Y75320D01*
X-86280Y75249D01*
X-86326Y75162D01*
X-86376Y75062D01*
X-86426Y74953D01*
X-86472Y74824D01*
X-86513Y74687D01*
X-86555Y74537D01*
X-86588Y74370D01*
X-86613Y74191D01*
X-86630Y74000D01*
X-86634Y73791D01*
Y72762D01*
X-88896D01*
Y70871D01*
X-82806D01*
Y74066D01*
X-82810Y74091D01*
Y74125D01*
X-82814Y74162D01*
X-82822Y74250D01*
X-82831Y74345D01*
X-82847Y74454D01*
X-82868Y74570D01*
X-82893Y74691D01*
X-82927Y74816D01*
X-82964Y74945D01*
X-83010Y75070D01*
X-83068Y75195D01*
X-83131Y75312D01*
X-83206Y75424D01*
X-83293Y75524D01*
X-83297Y75528D01*
X-83314Y75545D01*
X-83343Y75570D01*
X-83385Y75603D01*
X-83435Y75645D01*
X-83493Y75687D01*
X-83568Y75732D01*
X-83647Y75782D01*
X-83743Y75828D01*
X-83843Y75874D01*
X-83960Y75920D01*
X-84080Y75957D01*
X-84214Y75991D01*
X-84360Y76016D01*
X-84514Y76032D01*
X-84676Y76037D01*
X-82806D01*
D02*
G37*
G36*
X-85426Y66922D02*
X-89000D01*
X-88021D01*
Y66918D01*
X-88029Y66914D01*
X-88034Y66901D01*
X-88046Y66885D01*
X-88075Y66839D01*
X-88113Y66781D01*
X-88159Y66710D01*
X-88213Y66622D01*
X-88271Y66526D01*
X-88334Y66422D01*
X-88396Y66310D01*
X-88463Y66193D01*
X-88525Y66073D01*
X-88588Y65943D01*
X-88650Y65818D01*
X-88704Y65693D01*
X-88754Y65564D01*
X-88796Y65444D01*
X-88800Y65435D01*
X-88804Y65414D01*
X-88813Y65377D01*
X-88829Y65331D01*
X-88842Y65269D01*
X-88858Y65194D01*
X-88879Y65110D01*
X-88896Y65014D01*
X-88917Y64906D01*
X-88933Y64790D01*
X-88954Y64665D01*
X-88967Y64531D01*
X-88979Y64390D01*
X-88992Y64240D01*
X-88996Y64085D01*
X-89000Y63923D01*
Y64002D01*
Y63848D01*
X-88996Y63819D01*
Y63744D01*
X-88992Y63698D01*
X-88988Y63652D01*
X-88979Y63544D01*
X-88971Y63427D01*
X-88954Y63298D01*
X-88933Y63161D01*
X-88908Y63015D01*
X-88879Y62869D01*
X-88846Y62719D01*
X-88804Y62573D01*
X-88754Y62428D01*
X-88696Y62290D01*
X-88633Y62157D01*
X-88629Y62148D01*
X-88617Y62128D01*
X-88596Y62090D01*
X-88563Y62044D01*
X-88525Y61986D01*
X-88479Y61919D01*
X-88421Y61849D01*
X-88358Y61769D01*
X-88284Y61686D01*
X-88200Y61599D01*
X-88113Y61511D01*
X-88013Y61424D01*
X-87905Y61336D01*
X-87792Y61253D01*
X-87667Y61174D01*
X-87534Y61099D01*
X-87530D01*
X-87525Y61095D01*
X-87500Y61082D01*
X-87459Y61065D01*
X-87405Y61040D01*
X-87334Y61011D01*
X-87250Y60982D01*
X-87155Y60945D01*
X-87046Y60911D01*
X-86930Y60878D01*
X-86801Y60845D01*
X-86663Y60811D01*
X-86513Y60782D01*
X-86359Y60757D01*
X-86197Y60740D01*
X-86026Y60728D01*
X-85851Y60724D01*
X-82702D01*
Y64131D01*
X-82706Y64169D01*
Y64252D01*
X-82710Y64348D01*
X-82718Y64456D01*
X-82723Y64569D01*
X-82735Y64689D01*
X-82747Y64815D01*
X-82781Y65064D01*
X-82802Y65185D01*
X-82822Y65302D01*
X-82852Y65410D01*
X-82885Y65510D01*
Y65514D01*
X-82893Y65531D01*
X-82906Y65560D01*
X-82918Y65593D01*
X-82939Y65635D01*
X-82964Y65685D01*
X-82993Y65739D01*
X-83027Y65802D01*
X-83064Y65864D01*
X-83106Y65931D01*
X-83152Y66002D01*
X-83202Y66073D01*
X-83260Y66139D01*
X-83318Y66210D01*
X-83385Y66277D01*
X-83456Y66339D01*
X-83460Y66343D01*
X-83472Y66356D01*
X-83493Y66372D01*
X-83526Y66393D01*
X-83564Y66422D01*
X-83610Y66452D01*
X-83660Y66489D01*
X-83722Y66526D01*
X-83789Y66568D01*
X-83860Y66606D01*
X-83939Y66647D01*
X-84026Y66689D01*
X-84118Y66731D01*
X-84214Y66768D01*
X-84318Y66806D01*
X-84426Y66839D01*
X-84751Y65023D01*
X-84747D01*
X-84734Y65019D01*
X-84718Y65010D01*
X-84693Y65002D01*
X-84664Y64989D01*
X-84630Y64973D01*
X-84555Y64931D01*
X-84468Y64881D01*
X-84380Y64815D01*
X-84297Y64735D01*
X-84222Y64640D01*
X-84218Y64635D01*
X-84214Y64627D01*
X-84205Y64610D01*
X-84193Y64590D01*
X-84180Y64564D01*
X-84164Y64535D01*
X-84147Y64498D01*
X-84130Y64456D01*
X-84114Y64406D01*
X-84097Y64356D01*
X-84080Y64302D01*
X-84068Y64240D01*
X-84047Y64106D01*
X-84039Y64036D01*
Y63935D01*
X-84043Y63902D01*
X-84047Y63861D01*
X-84051Y63806D01*
X-84060Y63748D01*
X-84076Y63677D01*
X-84093Y63607D01*
X-84114Y63531D01*
X-84143Y63448D01*
X-84180Y63369D01*
X-84222Y63286D01*
X-84272Y63202D01*
X-84330Y63123D01*
X-84397Y63048D01*
X-84472Y62977D01*
X-84476Y62973D01*
X-84493Y62961D01*
X-84518Y62944D01*
X-84555Y62919D01*
X-84601Y62894D01*
X-84655Y62861D01*
X-84726Y62828D01*
X-84801Y62794D01*
X-84893Y62761D01*
X-84993Y62727D01*
X-85105Y62694D01*
X-85226Y62669D01*
X-85364Y62644D01*
X-85509Y62628D01*
X-85663Y62615D01*
X-85834Y62611D01*
X-85838D01*
X-85847D01*
X-85859D01*
X-85876D01*
X-85901D01*
X-85930Y62615D01*
X-85997D01*
X-86076Y62623D01*
X-86167Y62632D01*
X-86272Y62640D01*
X-86380Y62657D01*
X-86496Y62677D01*
X-86613Y62702D01*
X-86730Y62732D01*
X-86846Y62769D01*
X-86959Y62811D01*
X-87063Y62861D01*
X-87159Y62915D01*
X-87246Y62982D01*
X-87250Y62986D01*
X-87263Y62998D01*
X-87284Y63019D01*
X-87313Y63048D01*
X-87342Y63090D01*
X-87380Y63136D01*
X-87417Y63190D01*
X-87455Y63248D01*
X-87496Y63319D01*
X-87534Y63398D01*
X-87571Y63481D01*
X-87600Y63573D01*
X-87629Y63673D01*
X-87650Y63781D01*
X-87663Y63894D01*
X-87667Y64015D01*
Y64069D01*
X-87663Y64098D01*
Y64131D01*
X-87659Y64169D01*
X-87654Y64211D01*
X-87646Y64302D01*
X-87629Y64402D01*
X-87609Y64506D01*
X-87580Y64615D01*
Y64619D01*
X-87575Y64627D01*
X-87571Y64644D01*
X-87563Y64665D01*
X-87550Y64694D01*
X-87538Y64727D01*
X-87525Y64764D01*
X-87505Y64806D01*
X-87484Y64852D01*
X-87463Y64902D01*
X-87409Y65014D01*
X-87342Y65139D01*
X-87267Y65273D01*
X-86692D01*
Y64015D01*
X-85426D01*
Y66922D01*
D02*
G37*
G36*
X-85809Y59941D02*
X-85880D01*
X-85913Y59937D01*
X-85947D01*
X-85988D01*
X-86076Y59928D01*
X-86184Y59920D01*
X-86301Y59912D01*
X-86426Y59895D01*
X-86563Y59878D01*
X-86705Y59853D01*
X-86851Y59824D01*
X-86996Y59787D01*
X-87142Y59745D01*
X-87288Y59699D01*
X-87425Y59641D01*
X-87559Y59578D01*
X-87567Y59574D01*
X-87588Y59562D01*
X-87625Y59541D01*
X-87671Y59512D01*
X-87730Y59474D01*
X-87796Y59428D01*
X-87867Y59374D01*
X-87946Y59316D01*
X-88029Y59245D01*
X-88117Y59166D01*
X-88209Y59083D01*
X-88296Y58991D01*
X-88384Y58891D01*
X-88467Y58783D01*
X-88546Y58666D01*
X-88621Y58541D01*
X-88625Y58533D01*
X-88638Y58512D01*
X-88654Y58470D01*
X-88679Y58420D01*
X-88708Y58354D01*
X-88742Y58274D01*
X-88775Y58179D01*
X-88808Y58074D01*
X-88846Y57958D01*
X-88879Y57829D01*
X-88912Y57691D01*
X-88942Y57541D01*
X-88967Y57383D01*
X-88983Y57212D01*
X-88996Y57037D01*
X-89000Y56850D01*
Y59941D01*
Y53634D01*
D01*
Y56779D01*
X-88996Y56750D01*
Y56679D01*
X-88992Y56592D01*
X-88983Y56487D01*
X-88971Y56375D01*
X-88958Y56250D01*
X-88942Y56121D01*
X-88921Y55983D01*
X-88896Y55842D01*
X-88863Y55696D01*
X-88825Y55554D01*
X-88783Y55413D01*
X-88733Y55275D01*
X-88675Y55146D01*
X-88671Y55138D01*
X-88658Y55117D01*
X-88642Y55079D01*
X-88613Y55034D01*
X-88575Y54975D01*
X-88533Y54909D01*
X-88483Y54838D01*
X-88421Y54755D01*
X-88354Y54671D01*
X-88275Y54584D01*
X-88192Y54492D01*
X-88100Y54401D01*
X-87996Y54309D01*
X-87884Y54217D01*
X-87767Y54134D01*
X-87638Y54051D01*
X-87634D01*
X-87629Y54046D01*
X-87605Y54034D01*
X-87563Y54013D01*
X-87509Y53984D01*
X-87438Y53955D01*
X-87355Y53917D01*
X-87259Y53880D01*
X-87146Y53842D01*
X-87025Y53805D01*
X-86888Y53767D01*
X-86742Y53730D01*
X-86584Y53701D01*
X-86417Y53671D01*
X-86238Y53651D01*
X-86051Y53638D01*
X-85855Y53634D01*
X-85788D01*
X-85755Y53638D01*
X-85713D01*
X-85663Y53642D01*
X-85609Y53646D01*
X-85551Y53651D01*
X-85484Y53659D01*
X-85413Y53667D01*
X-85338Y53680D01*
X-85180Y53705D01*
X-85005Y53738D01*
X-84822Y53780D01*
X-84635Y53838D01*
X-84439Y53905D01*
X-84247Y53984D01*
X-84056Y54080D01*
X-83964Y54134D01*
X-83872Y54188D01*
X-83785Y54250D01*
X-83697Y54317D01*
X-83614Y54388D01*
X-83535Y54463D01*
X-83531Y54467D01*
X-83526Y54471D01*
X-83514Y54484D01*
X-83497Y54500D01*
X-83481Y54521D01*
X-83460Y54550D01*
X-83431Y54580D01*
X-83406Y54617D01*
X-83372Y54655D01*
X-83343Y54700D01*
X-83306Y54750D01*
X-83272Y54805D01*
X-83235Y54863D01*
X-83197Y54925D01*
X-83156Y54992D01*
X-83118Y55063D01*
X-83081Y55138D01*
X-83039Y55217D01*
X-83002Y55304D01*
X-82964Y55392D01*
X-82931Y55483D01*
X-82893Y55584D01*
X-82831Y55788D01*
X-82777Y56013D01*
X-82739Y56250D01*
X-82723Y56375D01*
X-82710Y56504D01*
X-82706Y56637D01*
X-82702Y56775D01*
Y56842D01*
X-82706Y56879D01*
Y56921D01*
X-82710Y56971D01*
X-82714Y57025D01*
X-82718Y57087D01*
X-82727Y57154D01*
X-82735Y57225D01*
X-82743Y57300D01*
X-82768Y57462D01*
X-82802Y57637D01*
X-82847Y57825D01*
X-82902Y58016D01*
X-82968Y58208D01*
X-83047Y58404D01*
X-83139Y58595D01*
X-83193Y58687D01*
X-83247Y58779D01*
X-83310Y58870D01*
X-83372Y58953D01*
X-83443Y59037D01*
X-83518Y59116D01*
X-83522Y59120D01*
X-83526Y59124D01*
X-83539Y59137D01*
X-83556Y59153D01*
X-83576Y59170D01*
X-83601Y59191D01*
X-83635Y59216D01*
X-83668Y59245D01*
X-83710Y59274D01*
X-83751Y59308D01*
X-83801Y59341D01*
X-83855Y59378D01*
X-83910Y59416D01*
X-83972Y59453D01*
X-84039Y59491D01*
X-84110Y59528D01*
X-84185Y59566D01*
X-84264Y59603D01*
X-84347Y59645D01*
X-84434Y59678D01*
X-84526Y59716D01*
X-84626Y59749D01*
X-84830Y59812D01*
X-85051Y59866D01*
X-85288Y59907D01*
X-85413Y59920D01*
X-85538Y59932D01*
X-85672Y59937D01*
X-85809Y59941D01*
D02*
G37*
G36*
X-88896Y53263D02*
Y47277D01*
X-82806D01*
Y50493D01*
X-82810Y50552D01*
Y50626D01*
X-82814Y50710D01*
X-82818Y50801D01*
X-82822Y50901D01*
X-82831Y51010D01*
X-82843Y51118D01*
X-82868Y51339D01*
X-82885Y51447D01*
X-82906Y51551D01*
X-82931Y51647D01*
X-82956Y51739D01*
Y51743D01*
X-82964Y51760D01*
X-82972Y51785D01*
X-82985Y51814D01*
X-83002Y51855D01*
X-83027Y51901D01*
X-83052Y51951D01*
X-83081Y52005D01*
X-83118Y52064D01*
X-83160Y52126D01*
X-83202Y52184D01*
X-83256Y52247D01*
X-83310Y52309D01*
X-83372Y52372D01*
X-83439Y52430D01*
X-83514Y52484D01*
X-83518Y52488D01*
X-83531Y52497D01*
X-83556Y52509D01*
X-83585Y52530D01*
X-83626Y52551D01*
X-83672Y52576D01*
X-83726Y52601D01*
X-83789Y52626D01*
X-83855Y52651D01*
X-83931Y52680D01*
X-84014Y52701D01*
X-84101Y52722D01*
X-84193Y52743D01*
X-84293Y52755D01*
X-84393Y52763D01*
X-84501Y52768D01*
X-84505D01*
X-84522D01*
X-84551D01*
X-84585Y52763D01*
X-84630Y52759D01*
X-84680Y52755D01*
X-84739Y52751D01*
X-84801Y52743D01*
X-84868Y52730D01*
X-84934Y52713D01*
X-85084Y52676D01*
X-85159Y52651D01*
X-85230Y52622D01*
X-85305Y52588D01*
X-85376Y52551D01*
X-85380Y52547D01*
X-85393Y52543D01*
X-85409Y52530D01*
X-85438Y52509D01*
X-85468Y52488D01*
X-85505Y52463D01*
X-85543Y52430D01*
X-85588Y52397D01*
X-85634Y52355D01*
X-85684Y52309D01*
X-85730Y52263D01*
X-85780Y52209D01*
X-85880Y52089D01*
X-85972Y51955D01*
Y51951D01*
X-85980Y51943D01*
X-85984Y51930D01*
X-85997Y51909D01*
X-86009Y51889D01*
X-86022Y51855D01*
X-86038Y51822D01*
X-86055Y51785D01*
X-86076Y51739D01*
X-86097Y51689D01*
X-86113Y51634D01*
X-86134Y51576D01*
X-86155Y51514D01*
X-86176Y51447D01*
X-86197Y51372D01*
X-86213Y51297D01*
Y51301D01*
X-86217Y51314D01*
X-86226Y51330D01*
X-86234Y51351D01*
X-86242Y51380D01*
X-86255Y51410D01*
X-86284Y51485D01*
X-86317Y51564D01*
X-86355Y51643D01*
X-86397Y51718D01*
X-86417Y51755D01*
X-86438Y51785D01*
X-86442Y51789D01*
X-86455Y51805D01*
X-86476Y51826D01*
X-86505Y51859D01*
X-86551Y51905D01*
X-86605Y51955D01*
X-86676Y52014D01*
X-86759Y52084D01*
X-86763Y52089D01*
X-86771Y52093D01*
X-86784Y52101D01*
X-86801Y52118D01*
X-86842Y52151D01*
X-86896Y52193D01*
X-86955Y52234D01*
X-87017Y52276D01*
X-87080Y52318D01*
X-87134Y52347D01*
X-88896Y53263D01*
D02*
G37*
G36*
X-82806Y46265D02*
X-88896D01*
X-84739D01*
X-84764Y46261D01*
X-84826Y46257D01*
X-84905Y46248D01*
X-84993Y46236D01*
X-85093Y46219D01*
X-85201Y46194D01*
X-85314Y46165D01*
X-85434Y46132D01*
X-85551Y46086D01*
X-85672Y46032D01*
X-85793Y45969D01*
X-85905Y45894D01*
X-86013Y45807D01*
X-86117Y45711D01*
X-86122Y45703D01*
X-86138Y45686D01*
X-86163Y45653D01*
X-86197Y45607D01*
X-86238Y45549D01*
X-86280Y45478D01*
X-86326Y45390D01*
X-86376Y45290D01*
X-86426Y45182D01*
X-86472Y45053D01*
X-86513Y44915D01*
X-86555Y44765D01*
X-86588Y44599D01*
X-86613Y44420D01*
X-86630Y44228D01*
X-86634Y44020D01*
Y42991D01*
X-88896D01*
Y41100D01*
X-82806D01*
Y44295D01*
X-82810Y44320D01*
Y44353D01*
X-82814Y44391D01*
X-82822Y44478D01*
X-82831Y44574D01*
X-82847Y44682D01*
X-82868Y44799D01*
X-82893Y44920D01*
X-82927Y45044D01*
X-82964Y45174D01*
X-83010Y45299D01*
X-83068Y45424D01*
X-83131Y45540D01*
X-83206Y45653D01*
X-83293Y45753D01*
X-83297Y45757D01*
X-83314Y45774D01*
X-83343Y45799D01*
X-83385Y45832D01*
X-83435Y45873D01*
X-83493Y45915D01*
X-83568Y45961D01*
X-83647Y46011D01*
X-83743Y46057D01*
X-83843Y46103D01*
X-83960Y46148D01*
X-84080Y46186D01*
X-84214Y46219D01*
X-84360Y46244D01*
X-84514Y46261D01*
X-84676Y46265D01*
X-82806D01*
D02*
G37*
G36*
Y37422D02*
X-88896D01*
Y31698D01*
Y33618D01*
X-84310D01*
Y31698D01*
X-82806D01*
Y37422D01*
D02*
G37*
G36*
Y31519D02*
Y29236D01*
X-88896Y31519D01*
Y24891D01*
D01*
X-82806Y27178D01*
Y31519D01*
D02*
G37*
G36*
Y24516D02*
X-87213D01*
X-87246Y24512D01*
X-87288Y24508D01*
X-87338Y24504D01*
X-87392Y24500D01*
X-87450Y24487D01*
X-87517Y24479D01*
X-87584Y24462D01*
X-87730Y24425D01*
X-87800Y24400D01*
X-87875Y24371D01*
X-87950Y24333D01*
X-88021Y24296D01*
X-88025Y24292D01*
X-88038Y24287D01*
X-88059Y24275D01*
X-88084Y24254D01*
X-88113Y24233D01*
X-88150Y24204D01*
X-88192Y24175D01*
X-88238Y24137D01*
X-88284Y24096D01*
X-88329Y24050D01*
X-88379Y24000D01*
X-88429Y23950D01*
X-88529Y23829D01*
X-88617Y23692D01*
Y23688D01*
X-88621Y23679D01*
X-88629Y23667D01*
X-88638Y23646D01*
X-88650Y23621D01*
X-88663Y23592D01*
X-88679Y23554D01*
X-88692Y23513D01*
X-88708Y23467D01*
X-88725Y23413D01*
X-88742Y23354D01*
X-88758Y23292D01*
X-88775Y23221D01*
X-88792Y23146D01*
X-88804Y23067D01*
X-88817Y22979D01*
Y22971D01*
X-88821Y22950D01*
X-88825Y22921D01*
X-88829Y22875D01*
X-88833Y22825D01*
X-88842Y22767D01*
X-88850Y22704D01*
X-88854Y22634D01*
X-88871Y22492D01*
X-88883Y22355D01*
X-88888Y22292D01*
X-88892Y22234D01*
X-88896Y22180D01*
Y22196D01*
Y22180D01*
Y18893D01*
X-82806D01*
Y22492D01*
Y22467D01*
X-82810Y22492D01*
X-82814Y22555D01*
X-82818Y22625D01*
X-82831Y22713D01*
X-82843Y22804D01*
X-82860Y22908D01*
X-82885Y23013D01*
X-82914Y23125D01*
X-82947Y23238D01*
X-82989Y23350D01*
X-83039Y23458D01*
X-83097Y23567D01*
X-83164Y23667D01*
X-83243Y23758D01*
X-83247Y23763D01*
X-83264Y23779D01*
X-83289Y23804D01*
X-83322Y23833D01*
X-83364Y23867D01*
X-83414Y23908D01*
X-83476Y23950D01*
X-83543Y23996D01*
X-83618Y24042D01*
X-83701Y24083D01*
X-83789Y24125D01*
X-83885Y24158D01*
X-83985Y24192D01*
X-84093Y24212D01*
X-84210Y24229D01*
X-84326Y24233D01*
X-84330D01*
X-84351D01*
X-84376Y24229D01*
X-84418D01*
X-84464Y24225D01*
X-84518Y24216D01*
X-84576Y24204D01*
X-84643Y24192D01*
X-84714Y24175D01*
X-84789Y24150D01*
X-84864Y24125D01*
X-84943Y24092D01*
X-85022Y24054D01*
X-85101Y24008D01*
X-85176Y23954D01*
X-85251Y23896D01*
X-85255Y23892D01*
X-85264Y23888D01*
X-85276Y23871D01*
X-85293Y23854D01*
X-85314Y23829D01*
X-85338Y23800D01*
X-85368Y23767D01*
X-85397Y23729D01*
X-85430Y23683D01*
X-85463Y23637D01*
X-85497Y23583D01*
X-85530Y23525D01*
X-85568Y23458D01*
X-85597Y23392D01*
X-85630Y23317D01*
X-85659Y23238D01*
Y23246D01*
X-85667Y23267D01*
X-85676Y23300D01*
X-85688Y23346D01*
X-85709Y23400D01*
X-85730Y23463D01*
X-85755Y23529D01*
X-85784Y23604D01*
X-85822Y23683D01*
X-85859Y23763D01*
X-85905Y23842D01*
X-85955Y23925D01*
X-86009Y24000D01*
X-86067Y24075D01*
X-86130Y24142D01*
X-86201Y24204D01*
X-86205Y24208D01*
X-86217Y24216D01*
X-86238Y24233D01*
X-86272Y24254D01*
X-86309Y24275D01*
X-86351Y24304D01*
X-86405Y24333D01*
X-86463Y24362D01*
X-86530Y24392D01*
X-86605Y24416D01*
X-86684Y24446D01*
X-86771Y24467D01*
X-86863Y24487D01*
X-86959Y24504D01*
X-87059Y24512D01*
X-87167Y24516D01*
X-82806D01*
D02*
G37*
G36*
Y18264D02*
X-88896Y16002D01*
Y13965D01*
X-82806Y11666D01*
Y13632D01*
X-87192Y15002D01*
X-82806Y16352D01*
Y18264D01*
D02*
G37*
G36*
X-85809Y8416D02*
X-85880D01*
X-85913Y8412D01*
X-85947D01*
X-85988D01*
X-86076Y8404D01*
X-86184Y8396D01*
X-86301Y8387D01*
X-86426Y8371D01*
X-86563Y8354D01*
X-86705Y8329D01*
X-86851Y8300D01*
X-86996Y8262D01*
X-87142Y8221D01*
X-87288Y8175D01*
X-87425Y8116D01*
X-87559Y8054D01*
X-87567Y8050D01*
X-87588Y8037D01*
X-87625Y8016D01*
X-87671Y7987D01*
X-87730Y7950D01*
X-87796Y7904D01*
X-87867Y7850D01*
X-87946Y7792D01*
X-88029Y7721D01*
X-88117Y7642D01*
X-88209Y7558D01*
X-88296Y7467D01*
X-88384Y7367D01*
X-88467Y7258D01*
X-88546Y7142D01*
X-88621Y7017D01*
X-88625Y7008D01*
X-88638Y6988D01*
X-88654Y6946D01*
X-88679Y6896D01*
X-88708Y6829D01*
X-88742Y6750D01*
X-88775Y6654D01*
X-88808Y6550D01*
X-88846Y6434D01*
X-88879Y6305D01*
X-88912Y6167D01*
X-88942Y6017D01*
X-88967Y5859D01*
X-88983Y5688D01*
X-88996Y5513D01*
X-89000Y5325D01*
Y5255D01*
X-88996Y5226D01*
Y5155D01*
X-88992Y5067D01*
X-88983Y4963D01*
X-88971Y4851D01*
X-88958Y4726D01*
X-88942Y4597D01*
X-88921Y4459D01*
X-88896Y4317D01*
X-88863Y4172D01*
X-88825Y4030D01*
X-88783Y3888D01*
X-88733Y3751D01*
X-88675Y3622D01*
X-88671Y3613D01*
X-88658Y3593D01*
X-88642Y3555D01*
X-88613Y3509D01*
X-88575Y3451D01*
X-88533Y3384D01*
X-88483Y3314D01*
X-88421Y3230D01*
X-88354Y3147D01*
X-88275Y3059D01*
X-88192Y2968D01*
X-88100Y2876D01*
X-87996Y2785D01*
X-87884Y2693D01*
X-87767Y2610D01*
X-87638Y2526D01*
X-87634D01*
X-87629Y2522D01*
X-87605Y2510D01*
X-87563Y2489D01*
X-87509Y2460D01*
X-87438Y2430D01*
X-87355Y2393D01*
X-87259Y2356D01*
X-87146Y2318D01*
X-87025Y2280D01*
X-86888Y2243D01*
X-86742Y2206D01*
X-86584Y2176D01*
X-86417Y2147D01*
X-86238Y2126D01*
X-86051Y2114D01*
X-85855Y2110D01*
X-85788D01*
X-85755Y2114D01*
X-85713D01*
X-85663Y2118D01*
X-85609Y2122D01*
X-85551Y2126D01*
X-85484Y2135D01*
X-85413Y2143D01*
X-85338Y2156D01*
X-85180Y2181D01*
X-85005Y2214D01*
X-84822Y2255D01*
X-84635Y2314D01*
X-84439Y2380D01*
X-84247Y2460D01*
X-84056Y2555D01*
X-83964Y2610D01*
X-83872Y2664D01*
X-83785Y2726D01*
X-83697Y2793D01*
X-83614Y2864D01*
X-83535Y2939D01*
X-83531Y2943D01*
X-83526Y2947D01*
X-83514Y2959D01*
X-83497Y2976D01*
X-83481Y2997D01*
X-83460Y3026D01*
X-83431Y3055D01*
X-83406Y3093D01*
X-83372Y3130D01*
X-83343Y3176D01*
X-83306Y3226D01*
X-83272Y3280D01*
X-83235Y3339D01*
X-83197Y3401D01*
X-83156Y3468D01*
X-83118Y3539D01*
X-83081Y3613D01*
X-83039Y3693D01*
X-83002Y3780D01*
X-82964Y3868D01*
X-82931Y3959D01*
X-82893Y4059D01*
X-82831Y4263D01*
X-82777Y4488D01*
X-82739Y4726D01*
X-82723Y4851D01*
X-82710Y4980D01*
X-82706Y5113D01*
X-82702Y5251D01*
Y5317D01*
X-82706Y5355D01*
Y5396D01*
X-82710Y5446D01*
X-82714Y5501D01*
X-82718Y5563D01*
X-82727Y5630D01*
X-82735Y5700D01*
X-82743Y5775D01*
X-82768Y5938D01*
X-82802Y6113D01*
X-82847Y6300D01*
X-82902Y6492D01*
X-82968Y6683D01*
X-83047Y6879D01*
X-83139Y7071D01*
X-83193Y7163D01*
X-83247Y7254D01*
X-83310Y7346D01*
X-83372Y7429D01*
X-83443Y7513D01*
X-83518Y7592D01*
X-83522Y7596D01*
X-83526Y7600D01*
X-83539Y7613D01*
X-83556Y7629D01*
X-83576Y7646D01*
X-83601Y7667D01*
X-83635Y7692D01*
X-83668Y7721D01*
X-83710Y7750D01*
X-83751Y7783D01*
X-83801Y7817D01*
X-83855Y7854D01*
X-83910Y7892D01*
X-83972Y7929D01*
X-84039Y7966D01*
X-84110Y8004D01*
X-84185Y8041D01*
X-84264Y8079D01*
X-84347Y8121D01*
X-84434Y8154D01*
X-84526Y8191D01*
X-84626Y8225D01*
X-84830Y8287D01*
X-85051Y8341D01*
X-85288Y8383D01*
X-85413Y8396D01*
X-85538Y8408D01*
X-85672Y8412D01*
X-85809Y8416D01*
D02*
G37*
G36*
X-82806Y1497D02*
X-88896D01*
Y-4226D01*
D01*
Y-2306D01*
X-84310D01*
Y-4226D01*
X-82806D01*
Y1497D01*
D02*
G37*
G36*
Y-7592D02*
Y-7884D01*
X-84155D01*
Y-10599D01*
X-85072Y-10749D01*
Y-10745D01*
X-85068Y-10737D01*
X-85059Y-10720D01*
X-85051Y-10699D01*
X-85038Y-10675D01*
X-85026Y-10645D01*
X-84997Y-10575D01*
X-84964Y-10487D01*
X-84930Y-10395D01*
X-84901Y-10295D01*
X-84872Y-10191D01*
Y-10187D01*
X-84868Y-10179D01*
X-84864Y-10162D01*
X-84859Y-10141D01*
X-84855Y-10116D01*
X-84851Y-10087D01*
X-84839Y-10016D01*
X-84826Y-9937D01*
X-84814Y-9841D01*
X-84809Y-9746D01*
X-84805Y-9646D01*
Y-9583D01*
X-84809Y-9558D01*
X-84814Y-9492D01*
X-84822Y-9416D01*
X-84834Y-9325D01*
X-84851Y-9225D01*
X-84876Y-9117D01*
X-84905Y-9000D01*
X-84939Y-8879D01*
X-84984Y-8758D01*
X-85038Y-8633D01*
X-85101Y-8508D01*
X-85176Y-8388D01*
X-85264Y-8271D01*
X-85359Y-8163D01*
X-85368Y-8154D01*
X-85384Y-8138D01*
X-85418Y-8109D01*
X-85459Y-8075D01*
X-85513Y-8029D01*
X-85580Y-7984D01*
X-85655Y-7929D01*
X-85743Y-7875D01*
X-85838Y-7825D01*
X-85942Y-7771D01*
X-86055Y-7725D01*
X-86180Y-7679D01*
X-86313Y-7646D01*
X-86451Y-7617D01*
X-86596Y-7600D01*
X-86751Y-7592D01*
X-89000D01*
X-86809D01*
X-86851Y-7596D01*
X-86905Y-7600D01*
X-86967Y-7609D01*
X-87038Y-7617D01*
X-87113Y-7630D01*
X-87200Y-7646D01*
X-87288Y-7663D01*
X-87384Y-7688D01*
X-87480Y-7717D01*
X-87580Y-7750D01*
X-87684Y-7792D01*
X-87784Y-7834D01*
X-87888Y-7888D01*
X-87892Y-7892D01*
X-87913Y-7900D01*
X-87938Y-7917D01*
X-87975Y-7942D01*
X-88021Y-7971D01*
X-88075Y-8008D01*
X-88134Y-8050D01*
X-88196Y-8100D01*
X-88258Y-8154D01*
X-88329Y-8217D01*
X-88396Y-8288D01*
X-88467Y-8359D01*
X-88533Y-8442D01*
X-88600Y-8525D01*
X-88658Y-8617D01*
X-88717Y-8717D01*
X-88721Y-8721D01*
X-88729Y-8742D01*
X-88742Y-8771D01*
X-88763Y-8813D01*
X-88783Y-8867D01*
X-88804Y-8929D01*
X-88833Y-9004D01*
X-88858Y-9092D01*
X-88883Y-9183D01*
X-88908Y-9287D01*
X-88933Y-9404D01*
X-88954Y-9525D01*
X-88975Y-9654D01*
X-88988Y-9796D01*
X-88996Y-9941D01*
X-89000Y-10095D01*
Y-10195D01*
X-88996Y-10250D01*
Y-10308D01*
X-88992Y-10375D01*
X-88988Y-10450D01*
X-88979Y-10529D01*
X-88971Y-10612D01*
X-88954Y-10783D01*
X-88925Y-10958D01*
X-88888Y-11124D01*
Y-11129D01*
X-88883Y-11145D01*
X-88875Y-11166D01*
X-88867Y-11195D01*
X-88854Y-11233D01*
X-88842Y-11274D01*
X-88821Y-11324D01*
X-88804Y-11379D01*
X-88754Y-11491D01*
X-88696Y-11616D01*
X-88629Y-11737D01*
X-88550Y-11858D01*
X-88546Y-11862D01*
X-88538Y-11870D01*
X-88525Y-11887D01*
X-88509Y-11908D01*
X-88488Y-11932D01*
X-88463Y-11962D01*
X-88400Y-12033D01*
X-88325Y-12107D01*
X-88234Y-12191D01*
X-88138Y-12270D01*
X-88034Y-12345D01*
X-88029D01*
X-88021Y-12353D01*
X-88004Y-12362D01*
X-87984Y-12374D01*
X-87955Y-12391D01*
X-87921Y-12412D01*
X-87879Y-12432D01*
X-87838Y-12453D01*
X-87788Y-12478D01*
X-87734Y-12503D01*
X-87675Y-12528D01*
X-87609Y-12553D01*
X-87542Y-12578D01*
X-87471Y-12603D01*
X-87317Y-12653D01*
X-87130Y-10941D01*
X-87134D01*
X-87146Y-10937D01*
X-87167Y-10933D01*
X-87196Y-10929D01*
X-87234Y-10920D01*
X-87271Y-10912D01*
X-87317Y-10899D01*
X-87363Y-10883D01*
X-87463Y-10845D01*
X-87567Y-10795D01*
X-87671Y-10733D01*
X-87717Y-10695D01*
X-87759Y-10654D01*
X-87763Y-10649D01*
X-87767Y-10641D01*
X-87780Y-10629D01*
X-87792Y-10612D01*
X-87809Y-10591D01*
X-87825Y-10566D01*
X-87863Y-10500D01*
X-87905Y-10420D01*
X-87938Y-10329D01*
X-87963Y-10225D01*
X-87967Y-10171D01*
X-87971Y-10112D01*
Y-10079D01*
X-87967Y-10054D01*
X-87963Y-10025D01*
X-87959Y-9987D01*
X-87938Y-9908D01*
X-87905Y-9812D01*
X-87884Y-9766D01*
X-87859Y-9716D01*
X-87830Y-9667D01*
X-87792Y-9621D01*
X-87750Y-9575D01*
X-87704Y-9529D01*
X-87700Y-9525D01*
X-87692Y-9521D01*
X-87675Y-9508D01*
X-87654Y-9492D01*
X-87625Y-9475D01*
X-87592Y-9454D01*
X-87550Y-9433D01*
X-87505Y-9412D01*
X-87450Y-9391D01*
X-87392Y-9371D01*
X-87325Y-9350D01*
X-87255Y-9333D01*
X-87176Y-9316D01*
X-87092Y-9304D01*
X-87001Y-9300D01*
X-86905Y-9296D01*
X-86896D01*
X-86880D01*
X-86851D01*
X-86817Y-9300D01*
X-86771Y-9304D01*
X-86717Y-9308D01*
X-86663Y-9316D01*
X-86601Y-9325D01*
X-86472Y-9354D01*
X-86338Y-9396D01*
X-86272Y-9421D01*
X-86213Y-9450D01*
X-86155Y-9487D01*
X-86105Y-9529D01*
X-86101Y-9533D01*
X-86092Y-9542D01*
X-86080Y-9554D01*
X-86063Y-9571D01*
X-86047Y-9596D01*
X-86026Y-9625D01*
X-86001Y-9658D01*
X-85976Y-9696D01*
X-85955Y-9737D01*
X-85930Y-9783D01*
X-85909Y-9833D01*
X-85888Y-9887D01*
X-85876Y-9950D01*
X-85863Y-10012D01*
X-85855Y-10079D01*
X-85851Y-10150D01*
Y-10191D01*
X-85855Y-10212D01*
Y-10237D01*
X-85868Y-10300D01*
X-85880Y-10370D01*
X-85901Y-10450D01*
X-85930Y-10533D01*
X-85972Y-10620D01*
X-85976Y-10629D01*
X-85988Y-10649D01*
X-86013Y-10687D01*
X-86042Y-10733D01*
X-86088Y-10787D01*
X-86142Y-10849D01*
X-86209Y-10920D01*
X-86288Y-10995D01*
X-86080Y-12432D01*
X-82806Y-11895D01*
Y-12653D01*
D01*
Y-7592D01*
D02*
G37*
G36*
Y-12932D02*
X-88896Y-15194D01*
Y-17231D01*
X-82806Y-19531D01*
Y-17564D01*
X-87192Y-16194D01*
X-82806Y-14844D01*
Y-12932D01*
D02*
G37*
G36*
X-82702Y-19926D02*
X-88896D01*
Y-25000D01*
X-82702D01*
X-88888D01*
X-88863Y-24996D01*
X-88821Y-24987D01*
X-88767Y-24979D01*
X-88700Y-24967D01*
X-88625Y-24950D01*
X-88533Y-24929D01*
X-88438Y-24904D01*
X-88334Y-24871D01*
X-88221Y-24833D01*
X-88104Y-24792D01*
X-87984Y-24742D01*
X-87859Y-24688D01*
X-87734Y-24625D01*
X-87609Y-24554D01*
X-87484Y-24475D01*
X-87475Y-24471D01*
X-87455Y-24454D01*
X-87417Y-24425D01*
X-87367Y-24388D01*
X-87301Y-24334D01*
X-87226Y-24271D01*
X-87138Y-24192D01*
X-87038Y-24100D01*
X-86930Y-23996D01*
X-86809Y-23875D01*
X-86680Y-23738D01*
X-86542Y-23584D01*
X-86397Y-23417D01*
X-86321Y-23330D01*
X-86242Y-23234D01*
X-86163Y-23134D01*
X-86084Y-23034D01*
X-86001Y-22926D01*
X-85918Y-22813D01*
Y-22809D01*
X-85909Y-22805D01*
X-85892Y-22780D01*
X-85863Y-22742D01*
X-85826Y-22692D01*
X-85780Y-22634D01*
X-85730Y-22567D01*
X-85672Y-22492D01*
X-85605Y-22417D01*
X-85472Y-22255D01*
X-85401Y-22176D01*
X-85330Y-22101D01*
X-85264Y-22030D01*
X-85197Y-21963D01*
X-85139Y-21909D01*
X-85080Y-21863D01*
X-85076Y-21859D01*
X-85068Y-21855D01*
X-85051Y-21843D01*
X-85030Y-21830D01*
X-85005Y-21813D01*
X-84976Y-21797D01*
X-84905Y-21759D01*
X-84822Y-21722D01*
X-84730Y-21688D01*
X-84630Y-21663D01*
X-84585Y-21659D01*
X-84535Y-21655D01*
X-84530D01*
X-84522D01*
X-84505D01*
X-84489Y-21659D01*
X-84464D01*
X-84434Y-21667D01*
X-84372Y-21680D01*
X-84297Y-21705D01*
X-84218Y-21742D01*
X-84176Y-21767D01*
X-84135Y-21793D01*
X-84097Y-21826D01*
X-84060Y-21863D01*
X-84056Y-21867D01*
X-84051Y-21872D01*
X-84043Y-21884D01*
X-84026Y-21901D01*
X-84014Y-21922D01*
X-83997Y-21943D01*
X-83960Y-22005D01*
X-83922Y-22080D01*
X-83889Y-22167D01*
X-83868Y-22267D01*
X-83864Y-22322D01*
X-83860Y-22380D01*
Y-22409D01*
X-83864Y-22434D01*
Y-22459D01*
X-83872Y-22492D01*
X-83885Y-22567D01*
X-83910Y-22651D01*
X-83947Y-22738D01*
X-83968Y-22784D01*
X-83997Y-22826D01*
X-84026Y-22867D01*
X-84064Y-22909D01*
X-84068Y-22913D01*
X-84072Y-22917D01*
X-84085Y-22930D01*
X-84105Y-22942D01*
X-84126Y-22959D01*
X-84155Y-22975D01*
X-84189Y-22996D01*
X-84230Y-23017D01*
X-84276Y-23042D01*
X-84330Y-23063D01*
X-84389Y-23088D01*
X-84455Y-23109D01*
X-84526Y-23130D01*
X-84605Y-23150D01*
X-84693Y-23167D01*
X-84784Y-23180D01*
X-84647Y-24875D01*
X-84643D01*
X-84639D01*
X-84614Y-24871D01*
X-84580Y-24863D01*
X-84530Y-24854D01*
X-84468Y-24846D01*
X-84401Y-24829D01*
X-84322Y-24813D01*
X-84239Y-24792D01*
X-84151Y-24771D01*
X-84064Y-24746D01*
X-83876Y-24683D01*
X-83785Y-24646D01*
X-83697Y-24604D01*
X-83614Y-24558D01*
X-83535Y-24513D01*
X-83531Y-24509D01*
X-83518Y-24500D01*
X-83497Y-24483D01*
X-83468Y-24463D01*
X-83435Y-24438D01*
X-83397Y-24404D01*
X-83351Y-24363D01*
X-83306Y-24317D01*
X-83256Y-24267D01*
X-83206Y-24213D01*
X-83156Y-24150D01*
X-83106Y-24084D01*
X-83056Y-24013D01*
X-83006Y-23934D01*
X-82960Y-23850D01*
X-82918Y-23763D01*
X-82914Y-23759D01*
X-82910Y-23742D01*
X-82897Y-23713D01*
X-82885Y-23675D01*
X-82868Y-23625D01*
X-82852Y-23563D01*
X-82831Y-23496D01*
X-82810Y-23413D01*
X-82789Y-23321D01*
X-82768Y-23221D01*
X-82752Y-23113D01*
X-82735Y-22992D01*
X-82723Y-22863D01*
X-82710Y-22726D01*
X-82706Y-22580D01*
X-82702Y-22422D01*
Y-22334D01*
X-82706Y-22276D01*
Y-22201D01*
X-82714Y-22113D01*
X-82718Y-22018D01*
X-82727Y-21913D01*
X-82739Y-21805D01*
X-82752Y-21693D01*
X-82789Y-21459D01*
X-82810Y-21347D01*
X-82839Y-21234D01*
X-82868Y-21130D01*
X-82906Y-21034D01*
X-82910Y-21030D01*
X-82914Y-21014D01*
X-82927Y-20989D01*
X-82943Y-20951D01*
X-82964Y-20909D01*
X-82993Y-20864D01*
X-83022Y-20809D01*
X-83060Y-20751D01*
X-83102Y-20689D01*
X-83147Y-20626D01*
X-83202Y-20559D01*
X-83256Y-20497D01*
X-83318Y-20430D01*
X-83385Y-20372D01*
X-83456Y-20310D01*
X-83535Y-20255D01*
X-83539Y-20251D01*
X-83556Y-20243D01*
X-83576Y-20230D01*
X-83610Y-20210D01*
X-83647Y-20189D01*
X-83697Y-20164D01*
X-83751Y-20139D01*
X-83810Y-20110D01*
X-83876Y-20085D01*
X-83951Y-20060D01*
X-84026Y-20035D01*
X-84110Y-20014D01*
X-84197Y-19993D01*
X-84285Y-19980D01*
X-84380Y-19972D01*
X-84476Y-19968D01*
X-84485D01*
X-84501D01*
X-84530D01*
X-84572Y-19972D01*
X-84622Y-19976D01*
X-84680Y-19985D01*
X-84747Y-19997D01*
X-84818Y-20010D01*
X-84897Y-20026D01*
X-84980Y-20047D01*
X-85072Y-20076D01*
X-85159Y-20105D01*
X-85255Y-20143D01*
X-85351Y-20189D01*
X-85447Y-20239D01*
X-85543Y-20297D01*
X-85547Y-20301D01*
X-85563Y-20314D01*
X-85593Y-20335D01*
X-85630Y-20359D01*
X-85676Y-20397D01*
X-85734Y-20447D01*
X-85797Y-20501D01*
X-85872Y-20568D01*
X-85951Y-20643D01*
X-86034Y-20730D01*
X-86126Y-20826D01*
X-86226Y-20934D01*
X-86326Y-21051D01*
X-86434Y-21184D01*
X-86542Y-21326D01*
X-86655Y-21480D01*
X-86659Y-21484D01*
X-86671Y-21501D01*
X-86688Y-21530D01*
X-86713Y-21563D01*
X-86742Y-21605D01*
X-86776Y-21651D01*
X-86809Y-21705D01*
X-86851Y-21759D01*
X-86930Y-21872D01*
X-87013Y-21984D01*
X-87051Y-22038D01*
X-87088Y-22088D01*
X-87121Y-22130D01*
X-87150Y-22167D01*
X-87159Y-22176D01*
X-87176Y-22197D01*
X-87209Y-22234D01*
X-87250Y-22280D01*
X-87301Y-22338D01*
X-87363Y-22409D01*
X-87438Y-22484D01*
X-87517Y-22567D01*
Y-19926D01*
X-82702D01*
D02*
G37*
%LPD*%
G36*
X-84597Y89150D02*
X-84572D01*
X-84543Y89146D01*
X-84480Y89129D01*
X-84405Y89108D01*
X-84330Y89075D01*
X-84260Y89029D01*
X-84222Y89000D01*
X-84193Y88967D01*
Y88962D01*
X-84185Y88958D01*
X-84176Y88946D01*
X-84168Y88929D01*
X-84155Y88908D01*
X-84143Y88879D01*
X-84130Y88846D01*
X-84114Y88808D01*
X-84097Y88763D01*
X-84085Y88713D01*
X-84072Y88654D01*
X-84060Y88592D01*
X-84047Y88521D01*
X-84043Y88446D01*
X-84035Y88358D01*
Y87446D01*
X-85276D01*
Y88258D01*
X-85272Y88292D01*
X-85268Y88317D01*
X-85264Y88346D01*
X-85259Y88375D01*
X-85255Y88413D01*
X-85247Y88450D01*
X-85243Y88496D01*
X-85230Y88546D01*
X-85222Y88604D01*
X-85205Y88663D01*
X-85193Y88729D01*
Y88737D01*
X-85184Y88763D01*
X-85172Y88796D01*
X-85155Y88837D01*
X-85130Y88888D01*
X-85097Y88938D01*
X-85055Y88988D01*
X-85001Y89033D01*
X-84993Y89037D01*
X-84972Y89054D01*
X-84943Y89071D01*
X-84897Y89096D01*
X-84847Y89117D01*
X-84784Y89137D01*
X-84718Y89150D01*
X-84647Y89154D01*
X-84643D01*
X-84635D01*
X-84618D01*
X-84597Y89150D01*
D02*
G37*
G36*
X-87038Y88408D02*
X-87034D01*
X-87021Y88400D01*
X-87005Y88392D01*
X-86980Y88375D01*
X-86951Y88358D01*
X-86917Y88342D01*
X-86842Y88296D01*
X-86763Y88242D01*
X-86688Y88183D01*
X-86617Y88129D01*
X-86592Y88100D01*
X-86567Y88071D01*
Y88067D01*
X-86563Y88063D01*
X-86555Y88050D01*
X-86546Y88034D01*
X-86522Y87992D01*
X-86496Y87938D01*
X-86472Y87867D01*
X-86447Y87792D01*
X-86430Y87704D01*
X-86426Y87609D01*
Y87446D01*
X-88896D01*
Y89412D01*
X-87038Y88408D01*
D02*
G37*
G36*
X-85063Y80656D02*
X-88896Y79594D01*
Y81723D01*
X-85063Y80656D01*
D02*
G37*
G36*
X-84680Y74200D02*
X-84660D01*
X-84630Y74195D01*
X-84559Y74179D01*
X-84485Y74158D01*
X-84401Y74125D01*
X-84322Y74075D01*
X-84280Y74045D01*
X-84243Y74012D01*
X-84239Y74008D01*
X-84235Y74004D01*
X-84226Y73991D01*
X-84210Y73975D01*
X-84197Y73954D01*
X-84180Y73925D01*
X-84160Y73891D01*
X-84143Y73850D01*
X-84122Y73804D01*
X-84105Y73754D01*
X-84089Y73696D01*
X-84072Y73629D01*
X-84060Y73558D01*
X-84051Y73479D01*
X-84047Y73391D01*
X-84043Y73296D01*
Y72762D01*
X-85401D01*
Y73271D01*
X-85397Y73308D01*
Y73354D01*
X-85393Y73404D01*
X-85384Y73458D01*
X-85376Y73521D01*
X-85355Y73646D01*
X-85322Y73770D01*
X-85301Y73829D01*
X-85276Y73887D01*
X-85247Y73937D01*
X-85213Y73983D01*
X-85209Y73987D01*
X-85205Y73991D01*
X-85180Y74016D01*
X-85139Y74054D01*
X-85084Y74095D01*
X-85014Y74133D01*
X-84930Y74170D01*
X-84834Y74195D01*
X-84784Y74200D01*
X-84730Y74204D01*
X-84726D01*
X-84718D01*
X-84701D01*
X-84680Y74200D01*
D02*
G37*
G36*
X-82702Y60724D02*
X-85784D01*
X-85755Y60728D01*
X-85722D01*
X-85684Y60732D01*
X-85597Y60736D01*
X-85497Y60745D01*
X-85384Y60757D01*
X-85259Y60774D01*
X-85130Y60795D01*
X-84989Y60824D01*
X-84847Y60857D01*
X-84701Y60895D01*
X-84551Y60945D01*
X-84405Y60999D01*
X-84260Y61061D01*
X-84118Y61132D01*
X-84114D01*
X-84110Y61136D01*
X-84085Y61153D01*
X-84047Y61174D01*
X-83997Y61207D01*
X-83935Y61253D01*
X-83864Y61303D01*
X-83785Y61365D01*
X-83701Y61436D01*
X-83614Y61519D01*
X-83522Y61607D01*
X-83427Y61707D01*
X-83335Y61815D01*
X-83243Y61932D01*
X-83156Y62057D01*
X-83072Y62190D01*
X-82997Y62336D01*
X-82993Y62344D01*
X-82985Y62365D01*
X-82968Y62398D01*
X-82952Y62448D01*
X-82931Y62511D01*
X-82906Y62586D01*
X-82877Y62677D01*
X-82847Y62778D01*
X-82822Y62890D01*
X-82793Y63015D01*
X-82768Y63152D01*
X-82747Y63302D01*
X-82731Y63461D01*
X-82714Y63631D01*
X-82706Y63811D01*
X-82702Y64002D01*
Y60724D01*
D02*
G37*
G36*
X-85701Y58054D02*
X-85643D01*
X-85572Y58045D01*
X-85488Y58041D01*
X-85401Y58029D01*
X-85305Y58016D01*
X-85201Y57995D01*
X-85097Y57975D01*
X-84993Y57945D01*
X-84889Y57912D01*
X-84789Y57870D01*
X-84693Y57825D01*
X-84605Y57770D01*
X-84526Y57708D01*
X-84522Y57704D01*
X-84509Y57691D01*
X-84489Y57670D01*
X-84464Y57646D01*
X-84434Y57608D01*
X-84401Y57566D01*
X-84364Y57516D01*
X-84326Y57462D01*
X-84289Y57400D01*
X-84251Y57329D01*
X-84218Y57250D01*
X-84189Y57166D01*
X-84164Y57079D01*
X-84143Y56979D01*
X-84130Y56879D01*
X-84126Y56771D01*
Y56746D01*
X-84130Y56716D01*
Y56675D01*
X-84139Y56629D01*
X-84147Y56575D01*
X-84160Y56512D01*
X-84176Y56446D01*
X-84197Y56375D01*
X-84226Y56300D01*
X-84255Y56225D01*
X-84297Y56146D01*
X-84343Y56071D01*
X-84397Y55996D01*
X-84459Y55925D01*
X-84530Y55858D01*
X-84535Y55854D01*
X-84551Y55846D01*
X-84572Y55825D01*
X-84609Y55804D01*
X-84651Y55779D01*
X-84705Y55750D01*
X-84772Y55721D01*
X-84847Y55688D01*
X-84934Y55654D01*
X-85034Y55625D01*
X-85143Y55596D01*
X-85264Y55571D01*
X-85397Y55550D01*
X-85538Y55533D01*
X-85697Y55521D01*
X-85863Y55517D01*
X-85868D01*
X-85872D01*
X-85888D01*
X-85905D01*
X-85926D01*
X-85951Y55521D01*
X-86013D01*
X-86088Y55529D01*
X-86176Y55533D01*
X-86272Y55546D01*
X-86376Y55559D01*
X-86484Y55579D01*
X-86592Y55600D01*
X-86705Y55629D01*
X-86813Y55663D01*
X-86921Y55700D01*
X-87017Y55746D01*
X-87109Y55800D01*
X-87192Y55858D01*
X-87196Y55863D01*
X-87209Y55875D01*
X-87230Y55896D01*
X-87255Y55921D01*
X-87284Y55954D01*
X-87317Y55996D01*
X-87355Y56046D01*
X-87392Y56104D01*
X-87430Y56167D01*
X-87467Y56238D01*
X-87500Y56312D01*
X-87530Y56396D01*
X-87555Y56483D01*
X-87575Y56579D01*
X-87588Y56679D01*
X-87592Y56787D01*
Y56812D01*
X-87588Y56846D01*
X-87584Y56887D01*
X-87580Y56937D01*
X-87571Y56996D01*
X-87559Y57062D01*
X-87542Y57133D01*
X-87521Y57204D01*
X-87496Y57283D01*
X-87463Y57358D01*
X-87425Y57437D01*
X-87384Y57516D01*
X-87330Y57587D01*
X-87271Y57658D01*
X-87200Y57725D01*
X-87196Y57729D01*
X-87180Y57737D01*
X-87159Y57754D01*
X-87121Y57779D01*
X-87076Y57804D01*
X-87021Y57829D01*
X-86955Y57862D01*
X-86876Y57891D01*
X-86784Y57920D01*
X-86680Y57954D01*
X-86563Y57979D01*
X-86434Y58008D01*
X-86292Y58029D01*
X-86138Y58045D01*
X-85968Y58054D01*
X-85784Y58058D01*
X-85780D01*
X-85776D01*
X-85763D01*
X-85747D01*
X-85701Y58054D01*
D02*
G37*
G36*
X-84597Y50872D02*
X-84572D01*
X-84543Y50868D01*
X-84480Y50851D01*
X-84405Y50831D01*
X-84330Y50797D01*
X-84260Y50751D01*
X-84222Y50722D01*
X-84193Y50689D01*
Y50685D01*
X-84185Y50681D01*
X-84176Y50668D01*
X-84168Y50651D01*
X-84155Y50631D01*
X-84143Y50601D01*
X-84130Y50568D01*
X-84114Y50531D01*
X-84097Y50485D01*
X-84085Y50435D01*
X-84072Y50377D01*
X-84060Y50314D01*
X-84047Y50243D01*
X-84043Y50168D01*
X-84035Y50081D01*
Y49169D01*
X-85276D01*
Y49981D01*
X-85272Y50014D01*
X-85268Y50039D01*
X-85264Y50068D01*
X-85259Y50097D01*
X-85255Y50135D01*
X-85247Y50172D01*
X-85243Y50218D01*
X-85230Y50268D01*
X-85222Y50326D01*
X-85205Y50385D01*
X-85193Y50451D01*
Y50460D01*
X-85184Y50485D01*
X-85172Y50518D01*
X-85155Y50560D01*
X-85130Y50610D01*
X-85097Y50660D01*
X-85055Y50710D01*
X-85001Y50756D01*
X-84993Y50760D01*
X-84972Y50776D01*
X-84943Y50793D01*
X-84897Y50818D01*
X-84847Y50839D01*
X-84784Y50860D01*
X-84718Y50872D01*
X-84647Y50876D01*
X-84643D01*
X-84635D01*
X-84618D01*
X-84597Y50872D01*
D02*
G37*
G36*
X-87038Y50131D02*
X-87034D01*
X-87021Y50122D01*
X-87005Y50114D01*
X-86980Y50097D01*
X-86951Y50081D01*
X-86917Y50064D01*
X-86842Y50018D01*
X-86763Y49964D01*
X-86688Y49906D01*
X-86617Y49852D01*
X-86592Y49823D01*
X-86567Y49793D01*
Y49789D01*
X-86563Y49785D01*
X-86555Y49773D01*
X-86546Y49756D01*
X-86522Y49714D01*
X-86496Y49660D01*
X-86472Y49589D01*
X-86447Y49514D01*
X-86430Y49427D01*
X-86426Y49331D01*
Y49169D01*
X-88896D01*
Y51135D01*
X-87038Y50131D01*
D02*
G37*
G36*
X-84680Y44428D02*
X-84660D01*
X-84630Y44424D01*
X-84559Y44407D01*
X-84485Y44386D01*
X-84401Y44353D01*
X-84322Y44303D01*
X-84280Y44274D01*
X-84243Y44241D01*
X-84239Y44236D01*
X-84235Y44232D01*
X-84226Y44220D01*
X-84210Y44203D01*
X-84197Y44182D01*
X-84180Y44153D01*
X-84160Y44120D01*
X-84143Y44078D01*
X-84122Y44032D01*
X-84105Y43982D01*
X-84089Y43924D01*
X-84072Y43857D01*
X-84060Y43787D01*
X-84051Y43707D01*
X-84047Y43620D01*
X-84043Y43524D01*
Y42991D01*
X-85401D01*
Y43499D01*
X-85397Y43537D01*
Y43582D01*
X-85393Y43632D01*
X-85384Y43687D01*
X-85376Y43749D01*
X-85355Y43874D01*
X-85322Y43999D01*
X-85301Y44057D01*
X-85276Y44116D01*
X-85247Y44166D01*
X-85213Y44211D01*
X-85209Y44216D01*
X-85205Y44220D01*
X-85180Y44245D01*
X-85139Y44282D01*
X-85084Y44324D01*
X-85014Y44361D01*
X-84930Y44399D01*
X-84834Y44424D01*
X-84784Y44428D01*
X-84730Y44432D01*
X-84726D01*
X-84718D01*
X-84701D01*
X-84680Y44428D01*
D02*
G37*
G36*
X-84310Y35501D02*
X-88896D01*
Y37422D01*
X-84310D01*
Y35501D01*
D02*
G37*
G36*
X-84389Y28182D02*
X-86576Y27516D01*
Y28853D01*
X-84389Y28182D01*
D02*
G37*
G36*
X-87892Y29244D02*
Y27108D01*
X-88896Y26812D01*
Y29548D01*
X-87892Y29244D01*
D02*
G37*
G36*
X-84559Y22384D02*
X-84514Y22380D01*
X-84451Y22367D01*
X-84384Y22346D01*
X-84318Y22313D01*
X-84251Y22271D01*
X-84189Y22213D01*
X-84180Y22205D01*
X-84176Y22196D01*
X-84164Y22180D01*
X-84155Y22159D01*
X-84143Y22138D01*
X-84126Y22109D01*
X-84114Y22075D01*
X-84101Y22038D01*
X-84085Y21992D01*
X-84072Y21942D01*
X-84064Y21888D01*
X-84051Y21830D01*
X-84047Y21763D01*
X-84039Y21692D01*
Y20792D01*
X-85197D01*
Y21646D01*
X-85193Y21676D01*
Y21713D01*
X-85189Y21751D01*
X-85176Y21846D01*
X-85159Y21946D01*
X-85134Y22046D01*
X-85118Y22092D01*
X-85097Y22138D01*
X-85072Y22180D01*
X-85047Y22213D01*
X-85038Y22221D01*
X-85018Y22242D01*
X-84984Y22267D01*
X-84934Y22300D01*
X-84872Y22334D01*
X-84797Y22359D01*
X-84705Y22380D01*
X-84605Y22388D01*
X-84601D01*
X-84593D01*
X-84580D01*
X-84559Y22384D01*
D02*
G37*
G36*
X-86909Y22625D02*
X-86859Y22621D01*
X-86801Y22604D01*
X-86730Y22580D01*
X-86659Y22546D01*
X-86588Y22496D01*
X-86555Y22463D01*
X-86522Y22429D01*
Y22425D01*
X-86513Y22421D01*
X-86505Y22409D01*
X-86496Y22392D01*
X-86484Y22371D01*
X-86467Y22342D01*
X-86455Y22309D01*
X-86438Y22271D01*
X-86421Y22225D01*
X-86409Y22175D01*
X-86392Y22121D01*
X-86380Y22059D01*
X-86371Y21988D01*
X-86363Y21913D01*
X-86355Y21830D01*
Y20792D01*
X-87588D01*
Y21792D01*
X-87584Y21825D01*
Y21863D01*
X-87580Y21909D01*
X-87575Y21959D01*
X-87567Y22013D01*
X-87546Y22125D01*
X-87517Y22238D01*
X-87496Y22292D01*
X-87475Y22342D01*
X-87446Y22388D01*
X-87417Y22429D01*
X-87413Y22434D01*
X-87409Y22438D01*
X-87384Y22463D01*
X-87346Y22492D01*
X-87296Y22529D01*
X-87230Y22567D01*
X-87150Y22600D01*
X-87059Y22621D01*
X-87009Y22625D01*
X-86955Y22629D01*
X-86951D01*
X-86942D01*
X-86930D01*
X-86909Y22625D01*
D02*
G37*
G36*
X-85701Y6529D02*
X-85643D01*
X-85572Y6521D01*
X-85488Y6517D01*
X-85401Y6504D01*
X-85305Y6492D01*
X-85201Y6471D01*
X-85097Y6450D01*
X-84993Y6421D01*
X-84889Y6388D01*
X-84789Y6346D01*
X-84693Y6300D01*
X-84605Y6246D01*
X-84526Y6184D01*
X-84522Y6180D01*
X-84509Y6167D01*
X-84489Y6146D01*
X-84464Y6121D01*
X-84434Y6084D01*
X-84401Y6042D01*
X-84364Y5992D01*
X-84326Y5938D01*
X-84289Y5875D01*
X-84251Y5805D01*
X-84218Y5725D01*
X-84189Y5642D01*
X-84164Y5555D01*
X-84143Y5455D01*
X-84130Y5355D01*
X-84126Y5246D01*
Y5221D01*
X-84130Y5192D01*
Y5151D01*
X-84139Y5105D01*
X-84147Y5051D01*
X-84160Y4988D01*
X-84176Y4922D01*
X-84197Y4851D01*
X-84226Y4776D01*
X-84255Y4701D01*
X-84297Y4622D01*
X-84343Y4547D01*
X-84397Y4472D01*
X-84459Y4401D01*
X-84530Y4334D01*
X-84535Y4330D01*
X-84551Y4322D01*
X-84572Y4301D01*
X-84609Y4280D01*
X-84651Y4255D01*
X-84705Y4226D01*
X-84772Y4197D01*
X-84847Y4163D01*
X-84934Y4130D01*
X-85034Y4101D01*
X-85143Y4072D01*
X-85264Y4047D01*
X-85397Y4026D01*
X-85538Y4009D01*
X-85697Y3997D01*
X-85863Y3993D01*
X-85868D01*
X-85872D01*
X-85888D01*
X-85905D01*
X-85926D01*
X-85951Y3997D01*
X-86013D01*
X-86088Y4005D01*
X-86176Y4009D01*
X-86272Y4022D01*
X-86376Y4034D01*
X-86484Y4055D01*
X-86592Y4076D01*
X-86705Y4105D01*
X-86813Y4138D01*
X-86921Y4176D01*
X-87017Y4222D01*
X-87109Y4276D01*
X-87192Y4334D01*
X-87196Y4338D01*
X-87209Y4351D01*
X-87230Y4372D01*
X-87255Y4397D01*
X-87284Y4430D01*
X-87317Y4472D01*
X-87355Y4522D01*
X-87392Y4580D01*
X-87430Y4642D01*
X-87467Y4713D01*
X-87500Y4788D01*
X-87530Y4872D01*
X-87555Y4959D01*
X-87575Y5055D01*
X-87588Y5155D01*
X-87592Y5263D01*
Y5288D01*
X-87588Y5321D01*
X-87584Y5363D01*
X-87580Y5413D01*
X-87571Y5471D01*
X-87559Y5538D01*
X-87542Y5609D01*
X-87521Y5680D01*
X-87496Y5759D01*
X-87463Y5834D01*
X-87425Y5913D01*
X-87384Y5992D01*
X-87330Y6063D01*
X-87271Y6134D01*
X-87200Y6200D01*
X-87196Y6205D01*
X-87180Y6213D01*
X-87159Y6230D01*
X-87121Y6255D01*
X-87076Y6280D01*
X-87021Y6305D01*
X-86955Y6338D01*
X-86876Y6367D01*
X-86784Y6396D01*
X-86680Y6429D01*
X-86563Y6454D01*
X-86434Y6484D01*
X-86292Y6504D01*
X-86138Y6521D01*
X-85968Y6529D01*
X-85784Y6534D01*
X-85780D01*
X-85776D01*
X-85763D01*
X-85747D01*
X-85701Y6529D01*
D02*
G37*
G36*
X-84310Y-423D02*
X-88896D01*
Y1497D01*
X-84310D01*
Y-423D01*
D02*
G37*
%LPC*%
G36*
X-108896Y84751D02*
Y82622D01*
X-107038Y81618D01*
X-107034D01*
X-107021Y81610D01*
X-107005Y81602D01*
X-106980Y81585D01*
X-106951Y81568D01*
X-106917Y81552D01*
X-106842Y81506D01*
X-106763Y81452D01*
X-106688Y81394D01*
X-106617Y81339D01*
X-106592Y81310D01*
X-106567Y81281D01*
Y81277D01*
X-106563Y81273D01*
X-106555Y81260D01*
X-106546Y81244D01*
X-106522Y81202D01*
X-106496Y81148D01*
X-106472Y81077D01*
X-106447Y81002D01*
X-106430Y80914D01*
X-106426Y80819D01*
Y80656D01*
X-108896D01*
Y78765D01*
X-102806D01*
Y82006D01*
Y81981D01*
X-102810Y82039D01*
Y82114D01*
X-102814Y82198D01*
X-102818Y82289D01*
X-102823Y82389D01*
X-102831Y82497D01*
X-102843Y82606D01*
X-102868Y82826D01*
X-102885Y82935D01*
X-102906Y83039D01*
X-102931Y83135D01*
X-102956Y83226D01*
Y83231D01*
X-102964Y83247D01*
X-102972Y83272D01*
X-102985Y83301D01*
X-103002Y83343D01*
X-103027Y83389D01*
X-103052Y83439D01*
X-103081Y83493D01*
X-103118Y83551D01*
X-103160Y83614D01*
X-103202Y83672D01*
X-103256Y83735D01*
X-103310Y83797D01*
X-103372Y83860D01*
X-103439Y83918D01*
X-103514Y83972D01*
X-103518Y83976D01*
X-103531Y83985D01*
X-103556Y83997D01*
X-103585Y84018D01*
X-103626Y84039D01*
X-103672Y84064D01*
X-103726Y84089D01*
X-103789Y84114D01*
X-103855Y84139D01*
X-103931Y84168D01*
X-104014Y84189D01*
X-104101Y84209D01*
X-104193Y84230D01*
X-104293Y84243D01*
X-104393Y84251D01*
X-104501Y84255D01*
X-104505D01*
X-104522D01*
X-104551D01*
X-104585Y84251D01*
X-104630Y84247D01*
X-104680Y84243D01*
X-104739Y84239D01*
X-104801Y84230D01*
X-104868Y84218D01*
X-104934Y84201D01*
X-105084Y84164D01*
X-105159Y84139D01*
X-105230Y84109D01*
X-105305Y84076D01*
X-105376Y84039D01*
X-105380Y84035D01*
X-105393Y84030D01*
X-105409Y84018D01*
X-105438Y83997D01*
X-105468Y83976D01*
X-105505Y83951D01*
X-105543Y83918D01*
X-105588Y83885D01*
X-105634Y83843D01*
X-105684Y83797D01*
X-105730Y83751D01*
X-105780Y83697D01*
X-105880Y83576D01*
X-105972Y83443D01*
Y83439D01*
X-105980Y83431D01*
X-105984Y83418D01*
X-105997Y83397D01*
X-106009Y83376D01*
X-106022Y83343D01*
X-106038Y83310D01*
X-106055Y83272D01*
X-106076Y83226D01*
X-106097Y83176D01*
X-106113Y83122D01*
X-106134Y83064D01*
X-106155Y83001D01*
X-106176Y82935D01*
X-106197Y82860D01*
X-106213Y82785D01*
Y82789D01*
X-106217Y82802D01*
X-106226Y82818D01*
X-106234Y82839D01*
X-106242Y82868D01*
X-106255Y82897D01*
X-106284Y82972D01*
X-106317Y83052D01*
X-106355Y83131D01*
X-106397Y83206D01*
X-106417Y83243D01*
X-106438Y83272D01*
X-106442Y83276D01*
X-106455Y83293D01*
X-106476Y83314D01*
X-106505Y83347D01*
X-106551Y83393D01*
X-106605Y83443D01*
X-106676Y83501D01*
X-106759Y83572D01*
X-106763Y83576D01*
X-106771Y83581D01*
X-106784Y83589D01*
X-106801Y83605D01*
X-106842Y83639D01*
X-106896Y83680D01*
X-106955Y83722D01*
X-107017Y83764D01*
X-107080Y83805D01*
X-107134Y83835D01*
X-108896Y84751D01*
D02*
G37*
G36*
X-102806Y78124D02*
X-108896Y76778D01*
Y78124D01*
X-102806D01*
X-108896D01*
Y69605D01*
Y70959D01*
X-102806Y69605D01*
Y71392D01*
X-106209Y72034D01*
X-102806Y72975D01*
Y74758D01*
X-106205Y75699D01*
X-102806Y76345D01*
Y78124D01*
D02*
G37*
G36*
Y69247D02*
X-108896D01*
X-104739D01*
X-104764Y69243D01*
X-104826Y69238D01*
X-104905Y69230D01*
X-104993Y69218D01*
X-105093Y69201D01*
X-105201Y69176D01*
X-105314Y69147D01*
X-105434Y69113D01*
X-105551Y69068D01*
X-105672Y69013D01*
X-105793Y68951D01*
X-105905Y68876D01*
X-106013Y68788D01*
X-106117Y68693D01*
X-106122Y68684D01*
X-106138Y68668D01*
X-106163Y68634D01*
X-106197Y68589D01*
X-106238Y68530D01*
X-106280Y68459D01*
X-106326Y68372D01*
X-106376Y68272D01*
X-106426Y68164D01*
X-106472Y68035D01*
X-106513Y67897D01*
X-106555Y67747D01*
X-106588Y67580D01*
X-106613Y67401D01*
X-106630Y67210D01*
X-106634Y67001D01*
Y65972D01*
X-108896D01*
Y64081D01*
X-102806D01*
Y67276D01*
X-102810Y67301D01*
Y67335D01*
X-102814Y67372D01*
X-102823Y67460D01*
X-102831Y67555D01*
X-102847Y67664D01*
X-102868Y67780D01*
X-102893Y67901D01*
X-102927Y68026D01*
X-102964Y68155D01*
X-103010Y68280D01*
X-103068Y68405D01*
X-103131Y68522D01*
X-103206Y68634D01*
X-103293Y68734D01*
X-103297Y68738D01*
X-103314Y68755D01*
X-103343Y68780D01*
X-103385Y68814D01*
X-103435Y68855D01*
X-103493Y68897D01*
X-103568Y68943D01*
X-103647Y68993D01*
X-103743Y69038D01*
X-103843Y69084D01*
X-103960Y69130D01*
X-104080Y69167D01*
X-104214Y69201D01*
X-104360Y69226D01*
X-104514Y69243D01*
X-104676Y69247D01*
X-102806D01*
D02*
G37*
G36*
X-105426Y60132D02*
X-109000D01*
X-108021D01*
Y60128D01*
X-108029Y60124D01*
X-108034Y60111D01*
X-108046Y60095D01*
X-108075Y60049D01*
X-108113Y59991D01*
X-108159Y59920D01*
X-108213Y59832D01*
X-108271Y59737D01*
X-108334Y59633D01*
X-108396Y59520D01*
X-108463Y59403D01*
X-108525Y59283D01*
X-108588Y59153D01*
X-108650Y59029D01*
X-108704Y58903D01*
X-108754Y58774D01*
X-108796Y58654D01*
X-108800Y58645D01*
X-108804Y58624D01*
X-108813Y58587D01*
X-108829Y58541D01*
X-108842Y58479D01*
X-108858Y58404D01*
X-108879Y58320D01*
X-108896Y58225D01*
X-108917Y58116D01*
X-108933Y58000D01*
X-108954Y57875D01*
X-108967Y57741D01*
X-108979Y57600D01*
X-108992Y57450D01*
X-108996Y57296D01*
X-109000Y57133D01*
Y57212D01*
Y57058D01*
X-108996Y57029D01*
Y56954D01*
X-108992Y56908D01*
X-108988Y56862D01*
X-108979Y56754D01*
X-108971Y56637D01*
X-108954Y56508D01*
X-108933Y56371D01*
X-108908Y56225D01*
X-108879Y56079D01*
X-108846Y55929D01*
X-108804Y55784D01*
X-108754Y55638D01*
X-108696Y55500D01*
X-108633Y55367D01*
X-108629Y55359D01*
X-108617Y55338D01*
X-108596Y55300D01*
X-108563Y55254D01*
X-108525Y55196D01*
X-108479Y55129D01*
X-108421Y55059D01*
X-108358Y54980D01*
X-108284Y54896D01*
X-108200Y54809D01*
X-108113Y54721D01*
X-108013Y54634D01*
X-107905Y54546D01*
X-107792Y54463D01*
X-107667Y54384D01*
X-107534Y54309D01*
X-107530D01*
X-107525Y54305D01*
X-107500Y54292D01*
X-107459Y54275D01*
X-107405Y54250D01*
X-107334Y54221D01*
X-107250Y54192D01*
X-107155Y54155D01*
X-107046Y54121D01*
X-106930Y54088D01*
X-106801Y54055D01*
X-106663Y54021D01*
X-106513Y53992D01*
X-106359Y53967D01*
X-106197Y53951D01*
X-106026Y53938D01*
X-105851Y53934D01*
X-102702D01*
Y57341D01*
X-102706Y57379D01*
Y57462D01*
X-102710Y57558D01*
X-102718Y57666D01*
X-102723Y57779D01*
X-102735Y57900D01*
X-102747Y58025D01*
X-102781Y58274D01*
X-102802Y58395D01*
X-102823Y58512D01*
X-102852Y58620D01*
X-102885Y58720D01*
Y58724D01*
X-102893Y58741D01*
X-102906Y58770D01*
X-102918Y58804D01*
X-102939Y58845D01*
X-102964Y58895D01*
X-102993Y58949D01*
X-103027Y59012D01*
X-103064Y59074D01*
X-103106Y59141D01*
X-103152Y59212D01*
X-103202Y59283D01*
X-103260Y59349D01*
X-103318Y59420D01*
X-103385Y59487D01*
X-103456Y59549D01*
X-103460Y59553D01*
X-103472Y59566D01*
X-103493Y59583D01*
X-103526Y59603D01*
X-103564Y59633D01*
X-103610Y59662D01*
X-103660Y59699D01*
X-103722Y59737D01*
X-103789Y59778D01*
X-103860Y59816D01*
X-103939Y59857D01*
X-104026Y59899D01*
X-104118Y59941D01*
X-104214Y59978D01*
X-104318Y60016D01*
X-104426Y60049D01*
X-104751Y58233D01*
X-104747D01*
X-104734Y58229D01*
X-104718Y58220D01*
X-104693Y58212D01*
X-104664Y58200D01*
X-104630Y58183D01*
X-104555Y58141D01*
X-104468Y58091D01*
X-104380Y58025D01*
X-104297Y57945D01*
X-104222Y57850D01*
X-104218Y57845D01*
X-104214Y57837D01*
X-104205Y57820D01*
X-104193Y57800D01*
X-104180Y57775D01*
X-104164Y57745D01*
X-104147Y57708D01*
X-104130Y57666D01*
X-104114Y57616D01*
X-104097Y57566D01*
X-104080Y57512D01*
X-104068Y57450D01*
X-104047Y57316D01*
X-104039Y57246D01*
Y57146D01*
X-104043Y57112D01*
X-104047Y57071D01*
X-104051Y57017D01*
X-104060Y56958D01*
X-104076Y56887D01*
X-104093Y56817D01*
X-104114Y56741D01*
X-104143Y56658D01*
X-104180Y56579D01*
X-104222Y56496D01*
X-104272Y56413D01*
X-104330Y56333D01*
X-104397Y56258D01*
X-104472Y56188D01*
X-104476Y56183D01*
X-104493Y56171D01*
X-104518Y56154D01*
X-104555Y56129D01*
X-104601Y56104D01*
X-104655Y56071D01*
X-104726Y56038D01*
X-104801Y56004D01*
X-104893Y55971D01*
X-104993Y55938D01*
X-105105Y55904D01*
X-105226Y55879D01*
X-105364Y55854D01*
X-105509Y55838D01*
X-105663Y55825D01*
X-105834Y55821D01*
X-105838D01*
X-105847D01*
X-105859D01*
X-105876D01*
X-105901D01*
X-105930Y55825D01*
X-105997D01*
X-106076Y55833D01*
X-106167Y55842D01*
X-106272Y55850D01*
X-106380Y55867D01*
X-106496Y55888D01*
X-106613Y55913D01*
X-106730Y55942D01*
X-106846Y55979D01*
X-106959Y56021D01*
X-107063Y56071D01*
X-107159Y56125D01*
X-107246Y56192D01*
X-107250Y56196D01*
X-107263Y56208D01*
X-107284Y56229D01*
X-107313Y56258D01*
X-107342Y56300D01*
X-107380Y56346D01*
X-107417Y56400D01*
X-107455Y56458D01*
X-107496Y56529D01*
X-107534Y56608D01*
X-107571Y56692D01*
X-107600Y56783D01*
X-107630Y56883D01*
X-107650Y56992D01*
X-107663Y57104D01*
X-107667Y57225D01*
Y57279D01*
X-107663Y57308D01*
Y57341D01*
X-107659Y57379D01*
X-107654Y57421D01*
X-107646Y57512D01*
X-107630Y57612D01*
X-107609Y57716D01*
X-107580Y57825D01*
Y57829D01*
X-107575Y57837D01*
X-107571Y57854D01*
X-107563Y57875D01*
X-107550Y57904D01*
X-107538Y57937D01*
X-107525Y57975D01*
X-107505Y58016D01*
X-107484Y58062D01*
X-107463Y58112D01*
X-107409Y58225D01*
X-107342Y58349D01*
X-107267Y58483D01*
X-106692D01*
Y57225D01*
X-105426D01*
Y60132D01*
D02*
G37*
G36*
X-102702Y53151D02*
D01*
Y50052D01*
X-102706Y50089D01*
Y50131D01*
X-102710Y50181D01*
X-102714Y50235D01*
X-102718Y50297D01*
X-102727Y50364D01*
X-102735Y50435D01*
X-102743Y50510D01*
X-102768Y50672D01*
X-102802Y50847D01*
X-102847Y51035D01*
X-102902Y51226D01*
X-102968Y51418D01*
X-103047Y51614D01*
X-103139Y51805D01*
X-103193Y51897D01*
X-103247Y51989D01*
X-103310Y52080D01*
X-103372Y52164D01*
X-103443Y52247D01*
X-103518Y52326D01*
X-103522Y52330D01*
X-103526Y52334D01*
X-103539Y52347D01*
X-103556Y52364D01*
X-103576Y52380D01*
X-103601Y52401D01*
X-103635Y52426D01*
X-103668Y52455D01*
X-103710Y52484D01*
X-103751Y52518D01*
X-103801Y52551D01*
X-103855Y52588D01*
X-103910Y52626D01*
X-103972Y52663D01*
X-104039Y52701D01*
X-104110Y52738D01*
X-104185Y52776D01*
X-104264Y52813D01*
X-104347Y52855D01*
X-104434Y52888D01*
X-104526Y52926D01*
X-104626Y52959D01*
X-104830Y53022D01*
X-105051Y53076D01*
X-105288Y53117D01*
X-105414Y53130D01*
X-105538Y53142D01*
X-105672Y53147D01*
X-105809Y53151D01*
X-105880D01*
X-105913Y53147D01*
X-105947D01*
X-105988D01*
X-106076Y53138D01*
X-106184Y53130D01*
X-106301Y53122D01*
X-106426Y53105D01*
X-106563Y53088D01*
X-106705Y53063D01*
X-106851Y53034D01*
X-106996Y52997D01*
X-107142Y52955D01*
X-107288Y52909D01*
X-107425Y52851D01*
X-107559Y52788D01*
X-107567Y52784D01*
X-107588Y52772D01*
X-107625Y52751D01*
X-107671Y52722D01*
X-107730Y52684D01*
X-107796Y52638D01*
X-107867Y52584D01*
X-107946Y52526D01*
X-108029Y52455D01*
X-108117Y52376D01*
X-108209Y52293D01*
X-108296Y52201D01*
X-108384Y52101D01*
X-108467Y51993D01*
X-108546Y51876D01*
X-108621Y51751D01*
X-108625Y51743D01*
X-108638Y51722D01*
X-108654Y51680D01*
X-108679Y51630D01*
X-108708Y51564D01*
X-108742Y51485D01*
X-108775Y51389D01*
X-108808Y51285D01*
X-108846Y51168D01*
X-108879Y51039D01*
X-108913Y50901D01*
X-108942Y50751D01*
X-108967Y50593D01*
X-108983Y50422D01*
X-108996Y50247D01*
X-109000Y50060D01*
Y49989D01*
X-108996Y49960D01*
Y49889D01*
X-108992Y49802D01*
X-108983Y49697D01*
X-108971Y49585D01*
X-108958Y49460D01*
X-108942Y49331D01*
X-108921Y49194D01*
X-108896Y49052D01*
X-108863Y48906D01*
X-108825Y48764D01*
X-108783Y48623D01*
X-108733Y48485D01*
X-108675Y48356D01*
X-108671Y48348D01*
X-108659Y48327D01*
X-108642Y48289D01*
X-108613Y48244D01*
X-108575Y48185D01*
X-108533Y48119D01*
X-108483Y48048D01*
X-108421Y47965D01*
X-108354Y47881D01*
X-108275Y47794D01*
X-108192Y47702D01*
X-108100Y47611D01*
X-107996Y47519D01*
X-107884Y47427D01*
X-107767Y47344D01*
X-107638Y47261D01*
X-107634D01*
X-107630Y47256D01*
X-107605Y47244D01*
X-107563Y47223D01*
X-107509Y47194D01*
X-107438Y47165D01*
X-107355Y47127D01*
X-107259Y47090D01*
X-107146Y47052D01*
X-107025Y47015D01*
X-106888Y46977D01*
X-106742Y46940D01*
X-106584Y46911D01*
X-106417Y46882D01*
X-106238Y46861D01*
X-106051Y46848D01*
X-105855Y46844D01*
X-105788D01*
X-105755Y46848D01*
X-105713D01*
X-105663Y46852D01*
X-105609Y46857D01*
X-105551Y46861D01*
X-105484Y46869D01*
X-105414Y46877D01*
X-105338Y46890D01*
X-105180Y46915D01*
X-105005Y46948D01*
X-104822Y46990D01*
X-104635Y47048D01*
X-104439Y47115D01*
X-104247Y47194D01*
X-104056Y47290D01*
X-103964Y47344D01*
X-103872Y47398D01*
X-103785Y47461D01*
X-103697Y47527D01*
X-103614Y47598D01*
X-103535Y47673D01*
X-103531Y47677D01*
X-103526Y47681D01*
X-103514Y47694D01*
X-103497Y47710D01*
X-103481Y47731D01*
X-103460Y47761D01*
X-103431Y47790D01*
X-103406Y47827D01*
X-103372Y47865D01*
X-103343Y47910D01*
X-103306Y47961D01*
X-103272Y48015D01*
X-103235Y48073D01*
X-103197Y48135D01*
X-103156Y48202D01*
X-103118Y48273D01*
X-103081Y48348D01*
X-103039Y48427D01*
X-103002Y48514D01*
X-102964Y48602D01*
X-102931Y48694D01*
X-102893Y48794D01*
X-102831Y48998D01*
X-102777Y49223D01*
X-102739Y49460D01*
X-102723Y49585D01*
X-102710Y49714D01*
X-102706Y49847D01*
X-102702Y49985D01*
Y53151D01*
D02*
G37*
G36*
X-108896Y46473D02*
Y44345D01*
X-107038Y43341D01*
X-107034D01*
X-107021Y43333D01*
X-107005Y43324D01*
X-106980Y43307D01*
X-106951Y43291D01*
X-106917Y43274D01*
X-106842Y43228D01*
X-106763Y43174D01*
X-106688Y43116D01*
X-106617Y43062D01*
X-106592Y43033D01*
X-106567Y43003D01*
Y42999D01*
X-106563Y42995D01*
X-106555Y42983D01*
X-106546Y42966D01*
X-106522Y42924D01*
X-106496Y42870D01*
X-106472Y42799D01*
X-106447Y42724D01*
X-106430Y42637D01*
X-106426Y42541D01*
Y42379D01*
X-108896D01*
Y40487D01*
X-102806D01*
Y43728D01*
Y43703D01*
X-102810Y43762D01*
Y43836D01*
X-102814Y43920D01*
X-102818Y44012D01*
X-102823Y44111D01*
X-102831Y44220D01*
X-102843Y44328D01*
X-102868Y44549D01*
X-102885Y44657D01*
X-102906Y44761D01*
X-102931Y44857D01*
X-102956Y44949D01*
Y44953D01*
X-102964Y44970D01*
X-102972Y44995D01*
X-102985Y45024D01*
X-103002Y45065D01*
X-103027Y45111D01*
X-103052Y45161D01*
X-103081Y45215D01*
X-103118Y45274D01*
X-103160Y45336D01*
X-103202Y45394D01*
X-103256Y45457D01*
X-103310Y45519D01*
X-103372Y45582D01*
X-103439Y45640D01*
X-103514Y45694D01*
X-103518Y45698D01*
X-103531Y45707D01*
X-103556Y45719D01*
X-103585Y45740D01*
X-103626Y45761D01*
X-103672Y45786D01*
X-103726Y45811D01*
X-103789Y45836D01*
X-103855Y45861D01*
X-103931Y45890D01*
X-104014Y45911D01*
X-104101Y45932D01*
X-104193Y45953D01*
X-104293Y45965D01*
X-104393Y45974D01*
X-104501Y45978D01*
X-104505D01*
X-104522D01*
X-104551D01*
X-104585Y45974D01*
X-104630Y45969D01*
X-104680Y45965D01*
X-104739Y45961D01*
X-104801Y45953D01*
X-104868Y45940D01*
X-104934Y45924D01*
X-105084Y45886D01*
X-105159Y45861D01*
X-105230Y45832D01*
X-105305Y45799D01*
X-105376Y45761D01*
X-105380Y45757D01*
X-105393Y45753D01*
X-105409Y45740D01*
X-105438Y45719D01*
X-105468Y45698D01*
X-105505Y45673D01*
X-105543Y45640D01*
X-105588Y45607D01*
X-105634Y45565D01*
X-105684Y45519D01*
X-105730Y45474D01*
X-105780Y45419D01*
X-105880Y45299D01*
X-105972Y45165D01*
Y45161D01*
X-105980Y45153D01*
X-105984Y45140D01*
X-105997Y45120D01*
X-106009Y45099D01*
X-106022Y45065D01*
X-106038Y45032D01*
X-106055Y44995D01*
X-106076Y44949D01*
X-106097Y44899D01*
X-106113Y44845D01*
X-106134Y44786D01*
X-106155Y44724D01*
X-106176Y44657D01*
X-106197Y44582D01*
X-106213Y44507D01*
Y44511D01*
X-106217Y44524D01*
X-106226Y44541D01*
X-106234Y44561D01*
X-106242Y44591D01*
X-106255Y44620D01*
X-106284Y44695D01*
X-106317Y44774D01*
X-106355Y44853D01*
X-106397Y44928D01*
X-106417Y44965D01*
X-106438Y44995D01*
X-106442Y44999D01*
X-106455Y45015D01*
X-106476Y45036D01*
X-106505Y45069D01*
X-106551Y45115D01*
X-106605Y45165D01*
X-106676Y45224D01*
X-106759Y45294D01*
X-106763Y45299D01*
X-106771Y45303D01*
X-106784Y45311D01*
X-106801Y45328D01*
X-106842Y45361D01*
X-106896Y45403D01*
X-106955Y45444D01*
X-107017Y45486D01*
X-107080Y45528D01*
X-107134Y45557D01*
X-108896Y46473D01*
D02*
G37*
G36*
X-102806Y39475D02*
X-108896D01*
X-104739D01*
X-104764Y39471D01*
X-104826Y39467D01*
X-104905Y39458D01*
X-104993Y39446D01*
X-105093Y39429D01*
X-105201Y39404D01*
X-105314Y39375D01*
X-105434Y39342D01*
X-105551Y39296D01*
X-105672Y39242D01*
X-105793Y39179D01*
X-105905Y39104D01*
X-106013Y39017D01*
X-106117Y38921D01*
X-106122Y38913D01*
X-106138Y38896D01*
X-106163Y38863D01*
X-106197Y38817D01*
X-106238Y38759D01*
X-106280Y38688D01*
X-106326Y38600D01*
X-106376Y38500D01*
X-106426Y38392D01*
X-106472Y38263D01*
X-106513Y38126D01*
X-106555Y37975D01*
X-106588Y37809D01*
X-106613Y37630D01*
X-106630Y37438D01*
X-106634Y37230D01*
Y36201D01*
X-108896D01*
Y34310D01*
X-102806D01*
Y37505D01*
X-102810Y37530D01*
Y37563D01*
X-102814Y37601D01*
X-102823Y37688D01*
X-102831Y37784D01*
X-102847Y37892D01*
X-102868Y38009D01*
X-102893Y38130D01*
X-102927Y38255D01*
X-102964Y38384D01*
X-103010Y38509D01*
X-103068Y38634D01*
X-103131Y38750D01*
X-103206Y38863D01*
X-103293Y38963D01*
X-103297Y38967D01*
X-103314Y38984D01*
X-103343Y39009D01*
X-103385Y39042D01*
X-103435Y39084D01*
X-103493Y39125D01*
X-103568Y39171D01*
X-103647Y39221D01*
X-103743Y39267D01*
X-103843Y39313D01*
X-103960Y39358D01*
X-104080Y39396D01*
X-104214Y39429D01*
X-104360Y39454D01*
X-104514Y39471D01*
X-104676Y39475D01*
X-102806D01*
D02*
G37*
G36*
X-102702Y30511D02*
X-109000D01*
X-107021D01*
X-107059Y30507D01*
X-107105Y30502D01*
X-107163Y30494D01*
X-107226Y30486D01*
X-107296Y30477D01*
X-107371Y30461D01*
X-107450Y30444D01*
X-107534Y30419D01*
X-107621Y30394D01*
X-107713Y30361D01*
X-107804Y30323D01*
X-107896Y30282D01*
X-107988Y30232D01*
X-107992Y30227D01*
X-108009Y30219D01*
X-108034Y30203D01*
X-108067Y30182D01*
X-108109Y30152D01*
X-108154Y30115D01*
X-108209Y30073D01*
X-108263Y30027D01*
X-108325Y29973D01*
X-108384Y29911D01*
X-108446Y29848D01*
X-108509Y29773D01*
X-108571Y29699D01*
X-108629Y29615D01*
X-108688Y29523D01*
X-108738Y29428D01*
X-108742Y29423D01*
X-108750Y29403D01*
X-108763Y29374D01*
X-108779Y29332D01*
X-108800Y29282D01*
X-108821Y29219D01*
X-108846Y29144D01*
X-108867Y29061D01*
X-108892Y28965D01*
X-108917Y28865D01*
X-108938Y28749D01*
X-108958Y28628D01*
X-108975Y28499D01*
X-108988Y28357D01*
X-108996Y28211D01*
X-109000Y28053D01*
Y28099D01*
Y25483D01*
Y27974D01*
X-108996Y27916D01*
Y27845D01*
X-108992Y27766D01*
X-108983Y27674D01*
X-108975Y27578D01*
X-108967Y27478D01*
X-108954Y27370D01*
X-108921Y27153D01*
X-108896Y27045D01*
X-108871Y26941D01*
X-108842Y26841D01*
X-108808Y26745D01*
X-108804Y26741D01*
X-108800Y26724D01*
X-108788Y26699D01*
X-108771Y26666D01*
X-108750Y26624D01*
X-108725Y26578D01*
X-108696Y26524D01*
X-108663Y26466D01*
X-108625Y26404D01*
X-108583Y26341D01*
X-108538Y26274D01*
X-108483Y26208D01*
X-108429Y26141D01*
X-108371Y26079D01*
X-108304Y26016D01*
X-108238Y25954D01*
X-108234Y25949D01*
X-108221Y25941D01*
X-108200Y25924D01*
X-108171Y25904D01*
X-108134Y25879D01*
X-108088Y25849D01*
X-108034Y25816D01*
X-107975Y25779D01*
X-107913Y25741D01*
X-107838Y25704D01*
X-107763Y25666D01*
X-107675Y25624D01*
X-107588Y25587D01*
X-107492Y25549D01*
X-107392Y25516D01*
X-107288Y25483D01*
X-107063Y27174D01*
X-107067D01*
X-107084Y27178D01*
X-107113Y27182D01*
X-107146Y27191D01*
X-107188Y27203D01*
X-107234Y27216D01*
X-107288Y27232D01*
X-107342Y27249D01*
X-107463Y27291D01*
X-107580Y27345D01*
X-107634Y27374D01*
X-107688Y27407D01*
X-107734Y27441D01*
X-107775Y27478D01*
Y27482D01*
X-107784Y27487D01*
X-107792Y27499D01*
X-107804Y27516D01*
X-107821Y27536D01*
X-107838Y27562D01*
X-107871Y27624D01*
X-107909Y27703D01*
X-107942Y27795D01*
X-107963Y27895D01*
X-107967Y27953D01*
X-107971Y28011D01*
Y28045D01*
X-107967Y28070D01*
X-107963Y28099D01*
X-107959Y28132D01*
X-107942Y28211D01*
X-107913Y28299D01*
X-107892Y28349D01*
X-107867Y28395D01*
X-107838Y28440D01*
X-107804Y28490D01*
X-107767Y28536D01*
X-107725Y28578D01*
X-107721Y28582D01*
X-107713Y28586D01*
X-107700Y28599D01*
X-107680Y28615D01*
X-107654Y28632D01*
X-107625Y28649D01*
X-107588Y28670D01*
X-107546Y28695D01*
X-107505Y28715D01*
X-107455Y28736D01*
X-107396Y28753D01*
X-107338Y28770D01*
X-107275Y28786D01*
X-107209Y28799D01*
X-107134Y28803D01*
X-107059Y28807D01*
X-107055D01*
X-107038D01*
X-107017D01*
X-106988Y28803D01*
X-106955Y28799D01*
X-106913Y28795D01*
X-106867Y28790D01*
X-106817Y28778D01*
X-106713Y28753D01*
X-106601Y28715D01*
X-106546Y28690D01*
X-106496Y28661D01*
X-106447Y28624D01*
X-106401Y28586D01*
X-106397Y28582D01*
X-106392Y28578D01*
X-106380Y28565D01*
X-106363Y28549D01*
X-106347Y28524D01*
X-106326Y28499D01*
X-106305Y28465D01*
X-106284Y28432D01*
X-106263Y28391D01*
X-106242Y28349D01*
X-106205Y28249D01*
X-106176Y28132D01*
X-106172Y28066D01*
X-106167Y27999D01*
Y27961D01*
X-106172Y27941D01*
Y27916D01*
X-106176Y27891D01*
X-106180Y27857D01*
X-106192Y27778D01*
X-106209Y27687D01*
X-106234Y27574D01*
X-106267Y27453D01*
X-105059Y27536D01*
Y27545D01*
X-105063Y27562D01*
X-105068Y27587D01*
Y27616D01*
X-105076Y27691D01*
X-105080Y27724D01*
Y27791D01*
X-105076Y27812D01*
X-105072Y27841D01*
X-105068Y27874D01*
X-105055Y27949D01*
X-105030Y28036D01*
X-104989Y28128D01*
X-104968Y28174D01*
X-104939Y28220D01*
X-104905Y28266D01*
X-104868Y28307D01*
X-104864Y28311D01*
X-104859Y28315D01*
X-104847Y28328D01*
X-104830Y28340D01*
X-104809Y28361D01*
X-104784Y28378D01*
X-104726Y28420D01*
X-104651Y28461D01*
X-104564Y28499D01*
X-104468Y28524D01*
X-104418Y28528D01*
X-104364Y28532D01*
X-104360D01*
X-104351D01*
X-104339D01*
X-104318Y28528D01*
X-104293D01*
X-104268Y28524D01*
X-104201Y28511D01*
X-104130Y28490D01*
X-104060Y28461D01*
X-103985Y28420D01*
X-103918Y28365D01*
X-103910Y28357D01*
X-103893Y28336D01*
X-103864Y28299D01*
X-103835Y28245D01*
X-103806Y28182D01*
X-103776Y28103D01*
X-103760Y28011D01*
X-103751Y27907D01*
Y27878D01*
X-103756Y27857D01*
Y27832D01*
X-103760Y27803D01*
X-103772Y27736D01*
X-103797Y27661D01*
X-103830Y27578D01*
X-103872Y27499D01*
X-103901Y27462D01*
X-103935Y27424D01*
X-103943Y27416D01*
X-103955Y27407D01*
X-103968Y27395D01*
X-103989Y27378D01*
X-104014Y27362D01*
X-104047Y27341D01*
X-104080Y27324D01*
X-104122Y27303D01*
X-104168Y27282D01*
X-104218Y27262D01*
X-104276Y27241D01*
X-104339Y27220D01*
X-104410Y27203D01*
X-104485Y27187D01*
X-104568Y27174D01*
X-104280Y25575D01*
X-104276D01*
X-104272Y25579D01*
X-104247Y25583D01*
X-104205Y25595D01*
X-104155Y25616D01*
X-104093Y25637D01*
X-104018Y25666D01*
X-103935Y25704D01*
X-103847Y25745D01*
X-103756Y25791D01*
X-103660Y25845D01*
X-103564Y25908D01*
X-103464Y25979D01*
X-103368Y26058D01*
X-103277Y26141D01*
X-103189Y26237D01*
X-103110Y26337D01*
X-103106Y26345D01*
X-103093Y26362D01*
X-103072Y26395D01*
X-103047Y26441D01*
X-103014Y26499D01*
X-102981Y26570D01*
X-102943Y26653D01*
X-102906Y26749D01*
X-102868Y26858D01*
X-102831Y26978D01*
X-102797Y27108D01*
X-102764Y27253D01*
X-102739Y27407D01*
X-102718Y27574D01*
X-102706Y27753D01*
X-102702Y27941D01*
Y28020D01*
X-102706Y28053D01*
Y28091D01*
X-102710Y28136D01*
Y28182D01*
X-102714Y28232D01*
X-102727Y28345D01*
X-102739Y28470D01*
X-102756Y28603D01*
X-102781Y28740D01*
X-102810Y28886D01*
X-102847Y29028D01*
X-102889Y29169D01*
X-102939Y29307D01*
X-103002Y29436D01*
X-103068Y29557D01*
X-103147Y29665D01*
X-103152Y29669D01*
X-103168Y29690D01*
X-103193Y29715D01*
X-103226Y29748D01*
X-103272Y29790D01*
X-103322Y29836D01*
X-103385Y29882D01*
X-103456Y29932D01*
X-103531Y29982D01*
X-103618Y30032D01*
X-103710Y30073D01*
X-103810Y30115D01*
X-103914Y30148D01*
X-104026Y30178D01*
X-104143Y30194D01*
X-104268Y30198D01*
X-104272D01*
X-104285D01*
X-104305D01*
X-104335Y30194D01*
X-104368Y30190D01*
X-104410Y30186D01*
X-104455Y30182D01*
X-104505Y30173D01*
X-104618Y30144D01*
X-104739Y30107D01*
X-104801Y30082D01*
X-104859Y30052D01*
X-104922Y30019D01*
X-104984Y29982D01*
X-104989Y29978D01*
X-104997Y29973D01*
X-105014Y29961D01*
X-105039Y29940D01*
X-105063Y29919D01*
X-105097Y29890D01*
X-105134Y29857D01*
X-105172Y29819D01*
X-105213Y29773D01*
X-105259Y29728D01*
X-105305Y29674D01*
X-105355Y29615D01*
X-105401Y29553D01*
X-105451Y29482D01*
X-105497Y29407D01*
X-105543Y29328D01*
Y29332D01*
X-105547Y29344D01*
X-105551Y29361D01*
X-105559Y29386D01*
X-105568Y29415D01*
X-105576Y29448D01*
X-105601Y29528D01*
X-105630Y29615D01*
X-105663Y29707D01*
X-105705Y29794D01*
X-105747Y29869D01*
Y29873D01*
X-105755Y29882D01*
X-105767Y29898D01*
X-105780Y29919D01*
X-105801Y29944D01*
X-105822Y29973D01*
X-105880Y30044D01*
X-105951Y30119D01*
X-106034Y30198D01*
X-106130Y30273D01*
X-106238Y30340D01*
X-106242D01*
X-106251Y30348D01*
X-106267Y30357D01*
X-106292Y30365D01*
X-106322Y30382D01*
X-106355Y30394D01*
X-106397Y30411D01*
X-106442Y30427D01*
X-106492Y30440D01*
X-106551Y30457D01*
X-106609Y30473D01*
X-106676Y30486D01*
X-106813Y30502D01*
X-106967Y30511D01*
X-102702D01*
D02*
G37*
G36*
X-102806Y25183D02*
X-108896Y22921D01*
Y20884D01*
X-102806Y18585D01*
Y20551D01*
X-107192Y21921D01*
X-102806Y23271D01*
Y25183D01*
D02*
G37*
G36*
X-102702Y18218D02*
D01*
Y15727D01*
X-102706Y15760D01*
Y15798D01*
X-102710Y15844D01*
Y15890D01*
X-102714Y15940D01*
X-102727Y16052D01*
X-102739Y16177D01*
X-102756Y16310D01*
X-102781Y16448D01*
X-102810Y16594D01*
X-102847Y16735D01*
X-102889Y16877D01*
X-102939Y17014D01*
X-103002Y17143D01*
X-103068Y17264D01*
X-103147Y17372D01*
X-103152Y17377D01*
X-103168Y17398D01*
X-103193Y17422D01*
X-103226Y17456D01*
X-103272Y17497D01*
X-103322Y17543D01*
X-103385Y17589D01*
X-103456Y17639D01*
X-103531Y17689D01*
X-103618Y17739D01*
X-103710Y17781D01*
X-103810Y17822D01*
X-103914Y17856D01*
X-104026Y17885D01*
X-104143Y17902D01*
X-104268Y17906D01*
X-104272D01*
X-104285D01*
X-104305D01*
X-104335Y17902D01*
X-104368Y17897D01*
X-104410Y17893D01*
X-104455Y17889D01*
X-104505Y17881D01*
X-104618Y17852D01*
X-104739Y17814D01*
X-104801Y17789D01*
X-104859Y17760D01*
X-104922Y17727D01*
X-104984Y17689D01*
X-104989Y17685D01*
X-104997Y17681D01*
X-105014Y17668D01*
X-105039Y17647D01*
X-105063Y17627D01*
X-105097Y17597D01*
X-105134Y17564D01*
X-105172Y17527D01*
X-105213Y17481D01*
X-105259Y17435D01*
X-105305Y17381D01*
X-105355Y17322D01*
X-105401Y17260D01*
X-105451Y17189D01*
X-105497Y17114D01*
X-105543Y17035D01*
Y17039D01*
X-105547Y17052D01*
X-105551Y17068D01*
X-105559Y17093D01*
X-105568Y17122D01*
X-105576Y17156D01*
X-105601Y17235D01*
X-105630Y17322D01*
X-105663Y17414D01*
X-105705Y17502D01*
X-105747Y17577D01*
Y17581D01*
X-105755Y17589D01*
X-105767Y17606D01*
X-105780Y17627D01*
X-105801Y17652D01*
X-105822Y17681D01*
X-105880Y17751D01*
X-105951Y17826D01*
X-106034Y17906D01*
X-106130Y17981D01*
X-106238Y18047D01*
X-106242D01*
X-106251Y18056D01*
X-106267Y18064D01*
X-106292Y18072D01*
X-106322Y18089D01*
X-106355Y18101D01*
X-106397Y18118D01*
X-106442Y18135D01*
X-106492Y18147D01*
X-106551Y18164D01*
X-106609Y18181D01*
X-106676Y18193D01*
X-106813Y18210D01*
X-106967Y18218D01*
X-102702D01*
X-109000D01*
X-107021D01*
X-107059Y18214D01*
X-107105Y18210D01*
X-107163Y18201D01*
X-107226Y18193D01*
X-107296Y18185D01*
X-107371Y18168D01*
X-107450Y18151D01*
X-107534Y18126D01*
X-107621Y18101D01*
X-107713Y18068D01*
X-107804Y18031D01*
X-107896Y17989D01*
X-107988Y17939D01*
X-107992Y17935D01*
X-108009Y17926D01*
X-108034Y17910D01*
X-108067Y17889D01*
X-108109Y17860D01*
X-108154Y17822D01*
X-108209Y17781D01*
X-108263Y17735D01*
X-108325Y17681D01*
X-108384Y17618D01*
X-108446Y17556D01*
X-108509Y17481D01*
X-108571Y17406D01*
X-108629Y17322D01*
X-108688Y17231D01*
X-108738Y17135D01*
X-108742Y17131D01*
X-108750Y17110D01*
X-108763Y17081D01*
X-108779Y17039D01*
X-108800Y16989D01*
X-108821Y16927D01*
X-108846Y16852D01*
X-108867Y16768D01*
X-108892Y16673D01*
X-108917Y16573D01*
X-108938Y16456D01*
X-108958Y16335D01*
X-108975Y16206D01*
X-108988Y16064D01*
X-108996Y15919D01*
X-109000Y15760D01*
Y15681D01*
X-108996Y15623D01*
Y15552D01*
X-108992Y15473D01*
X-108983Y15381D01*
X-108975Y15286D01*
X-108967Y15186D01*
X-108954Y15077D01*
X-108921Y14861D01*
X-108896Y14752D01*
X-108871Y14648D01*
X-108842Y14548D01*
X-108808Y14452D01*
X-108804Y14448D01*
X-108800Y14432D01*
X-108788Y14406D01*
X-108771Y14373D01*
X-108750Y14332D01*
X-108725Y14286D01*
X-108696Y14232D01*
X-108663Y14173D01*
X-108625Y14111D01*
X-108583Y14048D01*
X-108538Y13982D01*
X-108483Y13915D01*
X-108429Y13848D01*
X-108371Y13786D01*
X-108304Y13723D01*
X-108238Y13661D01*
X-108234Y13657D01*
X-108221Y13648D01*
X-108200Y13632D01*
X-108171Y13611D01*
X-108134Y13586D01*
X-108088Y13557D01*
X-108034Y13523D01*
X-107975Y13486D01*
X-107913Y13448D01*
X-107838Y13411D01*
X-107763Y13374D01*
X-107675Y13332D01*
X-107588Y13294D01*
X-107492Y13257D01*
X-107392Y13224D01*
X-107288Y13190D01*
X-107063Y14881D01*
X-107067D01*
X-107084Y14886D01*
X-107113Y14890D01*
X-107146Y14898D01*
X-107188Y14911D01*
X-107234Y14923D01*
X-107288Y14940D01*
X-107342Y14956D01*
X-107463Y14998D01*
X-107580Y15052D01*
X-107634Y15081D01*
X-107688Y15115D01*
X-107734Y15148D01*
X-107775Y15186D01*
Y15190D01*
X-107784Y15194D01*
X-107792Y15206D01*
X-107804Y15223D01*
X-107821Y15244D01*
X-107838Y15269D01*
X-107871Y15331D01*
X-107909Y15410D01*
X-107942Y15502D01*
X-107963Y15602D01*
X-107967Y15660D01*
X-107971Y15719D01*
Y15752D01*
X-107967Y15777D01*
X-107963Y15806D01*
X-107959Y15840D01*
X-107942Y15919D01*
X-107913Y16006D01*
X-107892Y16056D01*
X-107867Y16102D01*
X-107838Y16148D01*
X-107804Y16198D01*
X-107767Y16244D01*
X-107725Y16285D01*
X-107721Y16289D01*
X-107713Y16294D01*
X-107700Y16306D01*
X-107680Y16323D01*
X-107654Y16339D01*
X-107625Y16356D01*
X-107588Y16377D01*
X-107546Y16402D01*
X-107505Y16423D01*
X-107455Y16444D01*
X-107396Y16460D01*
X-107338Y16477D01*
X-107275Y16494D01*
X-107209Y16506D01*
X-107134Y16510D01*
X-107059Y16514D01*
X-107055D01*
X-107038D01*
X-107017D01*
X-106988Y16510D01*
X-106955Y16506D01*
X-106913Y16502D01*
X-106867Y16498D01*
X-106817Y16485D01*
X-106713Y16460D01*
X-106601Y16423D01*
X-106546Y16398D01*
X-106496Y16368D01*
X-106447Y16331D01*
X-106401Y16294D01*
X-106397Y16289D01*
X-106392Y16285D01*
X-106380Y16273D01*
X-106363Y16256D01*
X-106347Y16231D01*
X-106326Y16206D01*
X-106305Y16173D01*
X-106284Y16139D01*
X-106263Y16098D01*
X-106242Y16056D01*
X-106205Y15956D01*
X-106176Y15840D01*
X-106172Y15773D01*
X-106167Y15706D01*
Y15669D01*
X-106172Y15648D01*
Y15623D01*
X-106176Y15598D01*
X-106180Y15565D01*
X-106192Y15485D01*
X-106209Y15394D01*
X-106234Y15281D01*
X-106267Y15160D01*
X-105059Y15244D01*
Y15252D01*
X-105063Y15269D01*
X-105068Y15294D01*
Y15323D01*
X-105076Y15398D01*
X-105080Y15431D01*
Y15498D01*
X-105076Y15519D01*
X-105072Y15548D01*
X-105068Y15581D01*
X-105055Y15656D01*
X-105030Y15744D01*
X-104989Y15835D01*
X-104968Y15881D01*
X-104939Y15927D01*
X-104905Y15973D01*
X-104868Y16014D01*
X-104864Y16019D01*
X-104859Y16023D01*
X-104847Y16035D01*
X-104830Y16048D01*
X-104809Y16069D01*
X-104784Y16085D01*
X-104726Y16127D01*
X-104651Y16169D01*
X-104564Y16206D01*
X-104468Y16231D01*
X-104418Y16235D01*
X-104364Y16239D01*
X-104360D01*
X-104351D01*
X-104339D01*
X-104318Y16235D01*
X-104293D01*
X-104268Y16231D01*
X-104201Y16219D01*
X-104130Y16198D01*
X-104060Y16169D01*
X-103985Y16127D01*
X-103918Y16073D01*
X-103910Y16064D01*
X-103893Y16044D01*
X-103864Y16006D01*
X-103835Y15952D01*
X-103806Y15890D01*
X-103776Y15810D01*
X-103760Y15719D01*
X-103751Y15615D01*
Y15585D01*
X-103756Y15565D01*
Y15540D01*
X-103760Y15510D01*
X-103772Y15444D01*
X-103797Y15369D01*
X-103830Y15286D01*
X-103872Y15206D01*
X-103901Y15169D01*
X-103935Y15131D01*
X-103943Y15123D01*
X-103955Y15115D01*
X-103968Y15102D01*
X-103989Y15086D01*
X-104014Y15069D01*
X-104047Y15048D01*
X-104080Y15031D01*
X-104122Y15011D01*
X-104168Y14990D01*
X-104218Y14969D01*
X-104276Y14948D01*
X-104339Y14927D01*
X-104410Y14911D01*
X-104485Y14894D01*
X-104568Y14881D01*
X-104280Y13282D01*
X-104276D01*
X-104272Y13286D01*
X-104247Y13290D01*
X-104205Y13303D01*
X-104155Y13324D01*
X-104093Y13344D01*
X-104018Y13374D01*
X-103935Y13411D01*
X-103847Y13453D01*
X-103756Y13498D01*
X-103660Y13553D01*
X-103564Y13615D01*
X-103464Y13686D01*
X-103368Y13765D01*
X-103277Y13848D01*
X-103189Y13944D01*
X-103110Y14044D01*
X-103106Y14052D01*
X-103093Y14069D01*
X-103072Y14102D01*
X-103047Y14148D01*
X-103014Y14207D01*
X-102981Y14277D01*
X-102943Y14361D01*
X-102906Y14456D01*
X-102868Y14565D01*
X-102831Y14686D01*
X-102797Y14815D01*
X-102764Y14961D01*
X-102739Y15115D01*
X-102718Y15281D01*
X-102706Y15460D01*
X-102702Y15648D01*
Y13190D01*
Y18218D01*
D02*
G37*
G36*
Y9874D02*
Y9112D01*
X-106447D01*
Y9874D01*
X-102702D01*
X-107759D01*
Y9112D01*
X-108896D01*
Y9874D01*
Y7637D01*
X-107759D01*
Y4555D01*
X-108896D01*
X-102702D01*
Y9874D01*
D02*
G37*
G36*
X-105809Y4030D02*
X-105922D01*
X-105968Y4026D01*
X-106022D01*
X-106080Y4022D01*
X-106147Y4017D01*
X-106217Y4013D01*
X-106292Y4009D01*
X-106371Y4001D01*
X-106546Y3984D01*
X-106734Y3959D01*
X-106926Y3930D01*
X-107130Y3893D01*
X-107330Y3847D01*
X-107530Y3793D01*
X-107725Y3730D01*
X-107909Y3655D01*
X-107996Y3613D01*
X-108079Y3568D01*
X-108159Y3518D01*
X-108234Y3468D01*
X-108242Y3459D01*
X-108267Y3443D01*
X-108304Y3405D01*
X-108354Y3359D01*
X-108413Y3297D01*
X-108475Y3218D01*
X-108546Y3126D01*
X-108617Y3018D01*
X-108688Y2893D01*
X-108725Y2822D01*
X-108758Y2751D01*
X-108792Y2672D01*
X-108821Y2593D01*
X-108850Y2505D01*
X-108879Y2418D01*
X-108904Y2322D01*
X-108929Y2226D01*
X-108950Y2122D01*
X-108967Y2014D01*
X-108979Y1901D01*
X-108992Y1785D01*
X-108996Y1664D01*
X-109000Y1539D01*
Y4030D01*
D01*
Y-944D01*
Y1464D01*
X-108996Y1410D01*
X-108992Y1347D01*
X-108988Y1268D01*
X-108979Y1185D01*
X-108971Y1093D01*
X-108958Y997D01*
X-108942Y897D01*
X-108921Y793D01*
X-108896Y689D01*
X-108871Y585D01*
X-108838Y485D01*
X-108800Y385D01*
X-108758Y293D01*
X-108754Y289D01*
X-108746Y273D01*
X-108733Y248D01*
X-108713Y214D01*
X-108688Y177D01*
X-108654Y127D01*
X-108617Y77D01*
X-108575Y19D01*
X-108529Y-40D01*
X-108475Y-102D01*
X-108417Y-165D01*
X-108350Y-231D01*
X-108279Y-298D01*
X-108204Y-360D01*
X-108125Y-423D01*
X-108038Y-481D01*
X-108034Y-485D01*
X-108021Y-490D01*
X-108005Y-502D01*
X-107975Y-519D01*
X-107942Y-536D01*
X-107900Y-556D01*
X-107850Y-581D01*
X-107796Y-606D01*
X-107734Y-635D01*
X-107663Y-660D01*
X-107588Y-690D01*
X-107509Y-719D01*
X-107417Y-748D01*
X-107325Y-773D01*
X-107226Y-798D01*
X-107117Y-823D01*
X-107109D01*
X-107092Y-827D01*
X-107059Y-835D01*
X-107013Y-839D01*
X-106959Y-852D01*
X-106896Y-860D01*
X-106821Y-873D01*
X-106738Y-881D01*
X-106646Y-894D01*
X-106546Y-906D01*
X-106442Y-914D01*
X-106330Y-923D01*
X-106209Y-931D01*
X-106088Y-940D01*
X-105959Y-944D01*
X-105755D01*
X-105713Y-940D01*
X-105663D01*
X-105609Y-935D01*
X-105547D01*
X-105480Y-931D01*
X-105405Y-923D01*
X-105326Y-919D01*
X-105243Y-910D01*
X-105063Y-890D01*
X-104876Y-865D01*
X-104676Y-831D01*
X-104472Y-790D01*
X-104268Y-740D01*
X-104072Y-681D01*
X-103881Y-610D01*
X-103701Y-523D01*
X-103618Y-477D01*
X-103539Y-427D01*
X-103464Y-377D01*
X-103397Y-319D01*
X-103389Y-311D01*
X-103368Y-290D01*
X-103335Y-252D01*
X-103289Y-202D01*
X-103235Y-136D01*
X-103176Y-52D01*
X-103114Y44D01*
X-103047Y152D01*
X-102985Y277D01*
X-102922Y419D01*
X-102864Y577D01*
X-102810Y747D01*
X-102764Y931D01*
X-102731Y1135D01*
X-102710Y1347D01*
X-102702Y1581D01*
Y1639D01*
X-102706Y1685D01*
Y1735D01*
X-102710Y1797D01*
X-102714Y1864D01*
X-102723Y1939D01*
X-102731Y2018D01*
X-102739Y2097D01*
X-102768Y2268D01*
X-102806Y2435D01*
X-102827Y2514D01*
X-102856Y2589D01*
Y2593D01*
X-102864Y2605D01*
X-102872Y2626D01*
X-102885Y2655D01*
X-102897Y2689D01*
X-102914Y2726D01*
X-102939Y2772D01*
X-102960Y2818D01*
X-103018Y2922D01*
X-103085Y3030D01*
X-103164Y3134D01*
X-103251Y3234D01*
X-103256Y3239D01*
X-103264Y3247D01*
X-103277Y3259D01*
X-103293Y3276D01*
X-103314Y3297D01*
X-103343Y3322D01*
X-103406Y3376D01*
X-103481Y3438D01*
X-103568Y3505D01*
X-103664Y3568D01*
X-103764Y3626D01*
X-103768D01*
X-103776Y3634D01*
X-103789Y3638D01*
X-103810Y3651D01*
X-103835Y3663D01*
X-103868Y3676D01*
X-103901Y3693D01*
X-103943Y3709D01*
X-104031Y3747D01*
X-104139Y3784D01*
X-104255Y3826D01*
X-104385Y3859D01*
X-104393D01*
X-104414Y3868D01*
X-104451Y3876D01*
X-104501Y3884D01*
X-104564Y3901D01*
X-104639Y3913D01*
X-104726Y3930D01*
X-104818Y3947D01*
X-104922Y3959D01*
X-105034Y3976D01*
X-105151Y3993D01*
X-105272Y4005D01*
X-105401Y4013D01*
X-105534Y4022D01*
X-105809Y4030D01*
D02*
G37*
G36*
X-102702Y-2785D02*
X-108896D01*
Y-4497D01*
X-104839D01*
X-104843Y-4501D01*
X-104851Y-4514D01*
X-104868Y-4539D01*
X-104893Y-4568D01*
X-104918Y-4605D01*
X-104947Y-4651D01*
X-104984Y-4701D01*
X-105022Y-4755D01*
X-105059Y-4814D01*
X-105101Y-4876D01*
X-105189Y-5013D01*
X-105272Y-5159D01*
X-105351Y-5305D01*
X-105355Y-5309D01*
X-105359Y-5322D01*
X-105372Y-5343D01*
X-105384Y-5376D01*
X-105401Y-5413D01*
X-105422Y-5459D01*
X-105447Y-5513D01*
X-105472Y-5572D01*
X-105497Y-5638D01*
X-105526Y-5713D01*
X-105559Y-5792D01*
X-105588Y-5876D01*
X-105622Y-5967D01*
X-105655Y-6067D01*
X-105688Y-6167D01*
X-105722Y-6276D01*
X-104335D01*
Y-6271D01*
X-104330Y-6267D01*
X-104326Y-6255D01*
X-104322Y-6238D01*
X-104305Y-6192D01*
X-104285Y-6134D01*
X-104260Y-6059D01*
X-104226Y-5976D01*
X-104189Y-5884D01*
X-104147Y-5784D01*
X-104101Y-5680D01*
X-104051Y-5572D01*
X-103939Y-5347D01*
X-103876Y-5238D01*
X-103810Y-5130D01*
X-103739Y-5030D01*
X-103668Y-4938D01*
X-103664Y-4934D01*
X-103651Y-4918D01*
X-103626Y-4893D01*
X-103597Y-4859D01*
X-103560Y-4818D01*
X-103514Y-4772D01*
X-103460Y-4722D01*
X-103401Y-4664D01*
X-103335Y-4605D01*
X-103260Y-4543D01*
X-103181Y-4484D01*
X-103093Y-4422D01*
X-103006Y-4360D01*
X-102910Y-4297D01*
X-102806Y-4243D01*
X-102702Y-4189D01*
Y-5680D01*
Y-4189D01*
Y-2785D01*
D02*
G37*
G36*
Y-7342D02*
X-108896D01*
Y-12416D01*
X-102702D01*
Y-9750D01*
X-102706Y-9691D01*
Y-9617D01*
X-102714Y-9529D01*
X-102718Y-9433D01*
X-102727Y-9329D01*
X-102739Y-9221D01*
X-102752Y-9108D01*
X-102789Y-8875D01*
X-102810Y-8763D01*
X-102839Y-8650D01*
X-102868Y-8546D01*
X-102906Y-8450D01*
X-102910Y-8446D01*
X-102914Y-8429D01*
X-102927Y-8404D01*
X-102943Y-8367D01*
X-102964Y-8325D01*
X-102993Y-8279D01*
X-103022Y-8225D01*
X-103060Y-8167D01*
X-103102Y-8104D01*
X-103147Y-8042D01*
X-103202Y-7975D01*
X-103256Y-7913D01*
X-103318Y-7846D01*
X-103385Y-7788D01*
X-103456Y-7725D01*
X-103535Y-7671D01*
X-103539Y-7667D01*
X-103556Y-7659D01*
X-103576Y-7646D01*
X-103610Y-7625D01*
X-103647Y-7605D01*
X-103697Y-7580D01*
X-103751Y-7555D01*
X-103810Y-7525D01*
X-103876Y-7500D01*
X-103951Y-7475D01*
X-104026Y-7450D01*
X-104110Y-7430D01*
X-104197Y-7409D01*
X-104285Y-7396D01*
X-104380Y-7388D01*
X-104476Y-7384D01*
X-104485D01*
X-104501D01*
X-104530D01*
X-104572Y-7388D01*
X-104622Y-7392D01*
X-104680Y-7400D01*
X-104747Y-7413D01*
X-104818Y-7425D01*
X-104897Y-7442D01*
X-104980Y-7463D01*
X-105072Y-7492D01*
X-105159Y-7521D01*
X-105255Y-7559D01*
X-105351Y-7605D01*
X-105447Y-7655D01*
X-105543Y-7713D01*
X-105547Y-7717D01*
X-105563Y-7729D01*
X-105593Y-7750D01*
X-105630Y-7775D01*
X-105676Y-7813D01*
X-105734Y-7863D01*
X-105797Y-7917D01*
X-105872Y-7984D01*
X-105951Y-8059D01*
X-106034Y-8146D01*
X-106126Y-8242D01*
X-106226Y-8350D01*
X-106326Y-8467D01*
X-106434Y-8600D01*
X-106542Y-8742D01*
X-106655Y-8896D01*
X-106659Y-8900D01*
X-106671Y-8917D01*
X-106688Y-8946D01*
X-106713Y-8979D01*
X-106742Y-9021D01*
X-106776Y-9067D01*
X-106809Y-9121D01*
X-106851Y-9175D01*
X-106930Y-9287D01*
X-107013Y-9400D01*
X-107051Y-9454D01*
X-107088Y-9504D01*
X-107121Y-9546D01*
X-107150Y-9583D01*
X-107159Y-9592D01*
X-107176Y-9612D01*
X-107209Y-9650D01*
X-107250Y-9696D01*
X-107301Y-9754D01*
X-107363Y-9825D01*
X-107438Y-9900D01*
X-107517Y-9983D01*
Y-7342D01*
X-102702D01*
D02*
G37*
G36*
X-102806Y-13003D02*
X-108896D01*
Y-18168D01*
X-102806D01*
Y-14973D01*
X-102810Y-14948D01*
Y-14915D01*
X-102814Y-14878D01*
X-102823Y-14790D01*
X-102831Y-14694D01*
X-102847Y-14586D01*
X-102868Y-14469D01*
X-102893Y-14349D01*
X-102927Y-14224D01*
X-102964Y-14095D01*
X-103010Y-13970D01*
X-103068Y-13844D01*
X-103131Y-13728D01*
X-103206Y-13615D01*
X-103293Y-13515D01*
X-103297Y-13511D01*
X-103314Y-13495D01*
X-103343Y-13470D01*
X-103385Y-13436D01*
X-103435Y-13395D01*
X-103493Y-13353D01*
X-103568Y-13307D01*
X-103647Y-13257D01*
X-103743Y-13211D01*
X-103843Y-13166D01*
X-103960Y-13120D01*
X-104080Y-13082D01*
X-104214Y-13049D01*
X-104360Y-13024D01*
X-104514Y-13007D01*
X-104676Y-13003D01*
X-102806D01*
D02*
G37*
G36*
X-106905Y-19081D02*
X-106913D01*
X-106934Y-19089D01*
X-106971Y-19097D01*
X-107021Y-19114D01*
X-107080Y-19131D01*
X-107150Y-19152D01*
X-107226Y-19176D01*
X-107309Y-19210D01*
X-107400Y-19243D01*
X-107492Y-19281D01*
X-107592Y-19326D01*
X-107688Y-19372D01*
X-107788Y-19422D01*
X-107884Y-19481D01*
X-107975Y-19539D01*
X-108067Y-19606D01*
X-108071Y-19610D01*
X-108088Y-19622D01*
X-108113Y-19643D01*
X-108142Y-19668D01*
X-108179Y-19705D01*
X-108225Y-19747D01*
X-108275Y-19797D01*
X-108329Y-19851D01*
X-108384Y-19914D01*
X-108442Y-19980D01*
X-108500Y-20051D01*
X-108559Y-20130D01*
X-108613Y-20214D01*
X-108667Y-20301D01*
X-108721Y-20397D01*
X-108767Y-20493D01*
X-108771Y-20497D01*
X-108775Y-20518D01*
X-108788Y-20547D01*
X-108804Y-20589D01*
X-108821Y-20639D01*
X-108842Y-20701D01*
X-108863Y-20776D01*
X-108883Y-20859D01*
X-108904Y-20951D01*
X-108925Y-21055D01*
X-108946Y-21163D01*
X-108962Y-21284D01*
X-108979Y-21409D01*
X-108992Y-21547D01*
X-108996Y-21688D01*
X-109000Y-21838D01*
Y-21776D01*
Y-21838D01*
D01*
Y-21934D01*
X-108996Y-21967D01*
Y-22005D01*
X-108992Y-22088D01*
X-108983Y-22184D01*
X-108975Y-22292D01*
X-108962Y-22413D01*
X-108950Y-22538D01*
X-108929Y-22671D01*
X-108908Y-22805D01*
X-108879Y-22938D01*
X-108846Y-23075D01*
X-108808Y-23209D01*
X-108763Y-23338D01*
X-108713Y-23459D01*
X-108708Y-23467D01*
X-108700Y-23488D01*
X-108679Y-23521D01*
X-108654Y-23563D01*
X-108625Y-23617D01*
X-108583Y-23684D01*
X-108533Y-23754D01*
X-108479Y-23830D01*
X-108413Y-23913D01*
X-108338Y-24000D01*
X-108254Y-24092D01*
X-108163Y-24184D01*
X-108063Y-24275D01*
X-107950Y-24367D01*
X-107830Y-24458D01*
X-107700Y-24546D01*
X-107696D01*
X-107692Y-24550D01*
X-107667Y-24567D01*
X-107625Y-24588D01*
X-107567Y-24617D01*
X-107496Y-24650D01*
X-107409Y-24688D01*
X-107309Y-24729D01*
X-107192Y-24771D01*
X-107067Y-24817D01*
X-106926Y-24854D01*
X-106771Y-24896D01*
X-106609Y-24929D01*
X-106430Y-24958D01*
X-106242Y-24979D01*
X-106047Y-24996D01*
X-105838Y-25000D01*
X-105772D01*
X-105734Y-24996D01*
X-105693D01*
X-105643Y-24992D01*
X-105588Y-24987D01*
X-105530Y-24983D01*
X-105463Y-24975D01*
X-105393Y-24967D01*
X-105318Y-24958D01*
X-105155Y-24933D01*
X-104980Y-24900D01*
X-104797Y-24858D01*
X-104605Y-24804D01*
X-104414Y-24742D01*
X-104218Y-24663D01*
X-104031Y-24571D01*
X-103847Y-24463D01*
X-103760Y-24404D01*
X-103672Y-24342D01*
X-103593Y-24271D01*
X-103514Y-24200D01*
X-103510Y-24196D01*
X-103506Y-24192D01*
X-103493Y-24179D01*
X-103481Y-24163D01*
X-103460Y-24142D01*
X-103439Y-24117D01*
X-103414Y-24088D01*
X-103385Y-24050D01*
X-103356Y-24013D01*
X-103327Y-23967D01*
X-103293Y-23921D01*
X-103256Y-23867D01*
X-103222Y-23813D01*
X-103185Y-23750D01*
X-103147Y-23684D01*
X-103106Y-23613D01*
X-103068Y-23542D01*
X-103031Y-23463D01*
X-102993Y-23380D01*
X-102960Y-23292D01*
X-102922Y-23201D01*
X-102889Y-23105D01*
X-102827Y-22901D01*
X-102777Y-22680D01*
X-102735Y-22446D01*
X-102723Y-22322D01*
X-102710Y-22192D01*
X-102706Y-22063D01*
X-102702Y-21926D01*
Y-24688D01*
Y-21847D01*
X-102706Y-21813D01*
Y-21776D01*
X-102710Y-21734D01*
Y-21688D01*
X-102714Y-21638D01*
X-102727Y-21526D01*
X-102739Y-21401D01*
X-102760Y-21268D01*
X-102785Y-21126D01*
X-102814Y-20980D01*
X-102852Y-20830D01*
X-102897Y-20676D01*
X-102952Y-20530D01*
X-103014Y-20385D01*
X-103085Y-20247D01*
X-103168Y-20118D01*
X-103172Y-20110D01*
X-103189Y-20089D01*
X-103218Y-20055D01*
X-103256Y-20010D01*
X-103306Y-19956D01*
X-103368Y-19893D01*
X-103439Y-19822D01*
X-103522Y-19747D01*
X-103618Y-19672D01*
X-103722Y-19589D01*
X-103839Y-19510D01*
X-103968Y-19426D01*
X-104110Y-19347D01*
X-104260Y-19272D01*
X-104422Y-19202D01*
X-104597Y-19139D01*
X-104964Y-20801D01*
X-104959D01*
X-104951Y-20805D01*
X-104939Y-20809D01*
X-104918Y-20818D01*
X-104868Y-20834D01*
X-104809Y-20855D01*
X-104743Y-20884D01*
X-104676Y-20914D01*
X-104614Y-20947D01*
X-104559Y-20984D01*
X-104555D01*
X-104551Y-20993D01*
X-104522Y-21014D01*
X-104485Y-21047D01*
X-104434Y-21093D01*
X-104385Y-21147D01*
X-104326Y-21214D01*
X-104272Y-21288D01*
X-104226Y-21372D01*
Y-21376D01*
X-104222Y-21380D01*
X-104214Y-21393D01*
X-104210Y-21409D01*
X-104197Y-21434D01*
X-104189Y-21459D01*
X-104168Y-21518D01*
X-104147Y-21593D01*
X-104126Y-21680D01*
X-104114Y-21776D01*
X-104110Y-21880D01*
Y-21909D01*
X-104114Y-21943D01*
X-104118Y-21984D01*
X-104126Y-22038D01*
X-104139Y-22101D01*
X-104151Y-22167D01*
X-104172Y-22242D01*
X-104201Y-22317D01*
X-104235Y-22401D01*
X-104276Y-22480D01*
X-104326Y-22563D01*
X-104385Y-22642D01*
X-104455Y-22717D01*
X-104535Y-22792D01*
X-104626Y-22859D01*
X-104630Y-22863D01*
X-104643Y-22871D01*
X-104668Y-22884D01*
X-104697Y-22896D01*
X-104739Y-22917D01*
X-104789Y-22938D01*
X-104851Y-22963D01*
X-104918Y-22984D01*
X-104997Y-23009D01*
X-105089Y-23034D01*
X-105184Y-23055D01*
X-105293Y-23071D01*
X-105414Y-23088D01*
X-105538Y-23101D01*
X-105676Y-23109D01*
X-105826Y-23113D01*
X-105830D01*
X-105838D01*
X-105851D01*
X-105872D01*
X-105892D01*
X-105922Y-23109D01*
X-105988D01*
X-106072Y-23105D01*
X-106167Y-23096D01*
X-106267Y-23088D01*
X-106380Y-23075D01*
X-106492Y-23059D01*
X-106609Y-23038D01*
X-106726Y-23013D01*
X-106838Y-22984D01*
X-106946Y-22951D01*
X-107046Y-22909D01*
X-107134Y-22863D01*
X-107213Y-22809D01*
X-107217Y-22805D01*
X-107230Y-22796D01*
X-107246Y-22776D01*
X-107271Y-22751D01*
X-107301Y-22721D01*
X-107330Y-22684D01*
X-107367Y-22638D01*
X-107400Y-22584D01*
X-107434Y-22526D01*
X-107467Y-22463D01*
X-107500Y-22392D01*
X-107530Y-22313D01*
X-107555Y-22230D01*
X-107571Y-22142D01*
X-107584Y-22047D01*
X-107588Y-21947D01*
Y-21922D01*
X-107584Y-21897D01*
Y-21859D01*
X-107580Y-21813D01*
X-107571Y-21763D01*
X-107563Y-21705D01*
X-107550Y-21643D01*
X-107534Y-21580D01*
X-107513Y-21513D01*
X-107492Y-21443D01*
X-107463Y-21376D01*
X-107425Y-21309D01*
X-107388Y-21247D01*
X-107342Y-21188D01*
X-107288Y-21134D01*
X-107284Y-21130D01*
X-107275Y-21122D01*
X-107255Y-21109D01*
X-107230Y-21089D01*
X-107200Y-21068D01*
X-107163Y-21038D01*
X-107117Y-21009D01*
X-107063Y-20980D01*
X-107005Y-20947D01*
X-106938Y-20914D01*
X-106867Y-20880D01*
X-106788Y-20847D01*
X-106701Y-20814D01*
X-106609Y-20784D01*
X-106509Y-20755D01*
X-106405Y-20730D01*
X-106905Y-19081D01*
D02*
G37*
%LPD*%
G36*
X-104597Y82360D02*
X-104572D01*
X-104543Y82356D01*
X-104480Y82339D01*
X-104405Y82318D01*
X-104330Y82285D01*
X-104260Y82239D01*
X-104222Y82210D01*
X-104193Y82177D01*
Y82172D01*
X-104185Y82168D01*
X-104176Y82156D01*
X-104168Y82139D01*
X-104155Y82118D01*
X-104143Y82089D01*
X-104130Y82056D01*
X-104114Y82018D01*
X-104097Y81973D01*
X-104085Y81923D01*
X-104072Y81864D01*
X-104060Y81802D01*
X-104047Y81731D01*
X-104043Y81656D01*
X-104035Y81568D01*
Y80656D01*
X-105276D01*
Y81468D01*
X-105272Y81502D01*
X-105268Y81527D01*
X-105264Y81556D01*
X-105259Y81585D01*
X-105255Y81623D01*
X-105247Y81660D01*
X-105243Y81706D01*
X-105230Y81756D01*
X-105222Y81814D01*
X-105205Y81873D01*
X-105193Y81939D01*
Y81948D01*
X-105184Y81973D01*
X-105172Y82006D01*
X-105155Y82048D01*
X-105130Y82098D01*
X-105097Y82148D01*
X-105055Y82198D01*
X-105001Y82243D01*
X-104993Y82247D01*
X-104972Y82264D01*
X-104943Y82281D01*
X-104897Y82306D01*
X-104847Y82327D01*
X-104784Y82347D01*
X-104718Y82360D01*
X-104647Y82364D01*
X-104643D01*
X-104635D01*
X-104618D01*
X-104597Y82360D01*
D02*
G37*
G36*
X-105063Y73866D02*
X-108896Y72804D01*
Y74933D01*
X-105063Y73866D01*
D02*
G37*
G36*
X-104680Y67410D02*
X-104660D01*
X-104630Y67406D01*
X-104559Y67389D01*
X-104485Y67368D01*
X-104401Y67335D01*
X-104322Y67285D01*
X-104280Y67256D01*
X-104243Y67222D01*
X-104239Y67218D01*
X-104235Y67214D01*
X-104226Y67201D01*
X-104210Y67185D01*
X-104197Y67164D01*
X-104180Y67135D01*
X-104160Y67101D01*
X-104143Y67060D01*
X-104122Y67014D01*
X-104106Y66964D01*
X-104089Y66906D01*
X-104072Y66839D01*
X-104060Y66768D01*
X-104051Y66689D01*
X-104047Y66602D01*
X-104043Y66506D01*
Y65972D01*
X-105401D01*
Y66481D01*
X-105397Y66518D01*
Y66564D01*
X-105393Y66614D01*
X-105384Y66668D01*
X-105376Y66731D01*
X-105355Y66856D01*
X-105322Y66981D01*
X-105301Y67039D01*
X-105276Y67097D01*
X-105247Y67147D01*
X-105213Y67193D01*
X-105209Y67197D01*
X-105205Y67201D01*
X-105180Y67226D01*
X-105139Y67264D01*
X-105084Y67305D01*
X-105014Y67343D01*
X-104930Y67380D01*
X-104834Y67406D01*
X-104784Y67410D01*
X-104730Y67414D01*
X-104726D01*
X-104718D01*
X-104701D01*
X-104680Y67410D01*
D02*
G37*
G36*
X-102702Y53934D02*
X-105784D01*
X-105755Y53938D01*
X-105722D01*
X-105684Y53942D01*
X-105597Y53946D01*
X-105497Y53955D01*
X-105384Y53967D01*
X-105259Y53984D01*
X-105130Y54005D01*
X-104989Y54034D01*
X-104847Y54067D01*
X-104701Y54105D01*
X-104551Y54155D01*
X-104405Y54209D01*
X-104260Y54271D01*
X-104118Y54342D01*
X-104114D01*
X-104110Y54346D01*
X-104085Y54363D01*
X-104047Y54384D01*
X-103997Y54417D01*
X-103935Y54463D01*
X-103864Y54513D01*
X-103785Y54575D01*
X-103701Y54646D01*
X-103614Y54730D01*
X-103522Y54817D01*
X-103427Y54917D01*
X-103335Y55025D01*
X-103243Y55142D01*
X-103156Y55267D01*
X-103072Y55400D01*
X-102997Y55546D01*
X-102993Y55554D01*
X-102985Y55575D01*
X-102968Y55609D01*
X-102952Y55658D01*
X-102931Y55721D01*
X-102906Y55796D01*
X-102877Y55888D01*
X-102847Y55988D01*
X-102823Y56100D01*
X-102793Y56225D01*
X-102768Y56363D01*
X-102747Y56512D01*
X-102731Y56671D01*
X-102714Y56842D01*
X-102706Y57021D01*
X-102702Y57212D01*
Y53934D01*
D02*
G37*
G36*
X-105701Y51264D02*
X-105643D01*
X-105572Y51255D01*
X-105488Y51251D01*
X-105401Y51239D01*
X-105305Y51226D01*
X-105201Y51206D01*
X-105097Y51185D01*
X-104993Y51156D01*
X-104889Y51122D01*
X-104789Y51080D01*
X-104693Y51035D01*
X-104605Y50981D01*
X-104526Y50918D01*
X-104522Y50914D01*
X-104509Y50901D01*
X-104489Y50880D01*
X-104464Y50855D01*
X-104434Y50818D01*
X-104401Y50776D01*
X-104364Y50726D01*
X-104326Y50672D01*
X-104289Y50610D01*
X-104251Y50539D01*
X-104218Y50460D01*
X-104189Y50377D01*
X-104164Y50289D01*
X-104143Y50189D01*
X-104130Y50089D01*
X-104126Y49981D01*
Y49956D01*
X-104130Y49927D01*
Y49885D01*
X-104139Y49839D01*
X-104147Y49785D01*
X-104160Y49722D01*
X-104176Y49656D01*
X-104197Y49585D01*
X-104226Y49510D01*
X-104255Y49435D01*
X-104297Y49356D01*
X-104343Y49281D01*
X-104397Y49206D01*
X-104459Y49135D01*
X-104530Y49068D01*
X-104535Y49064D01*
X-104551Y49056D01*
X-104572Y49035D01*
X-104609Y49014D01*
X-104651Y48989D01*
X-104705Y48960D01*
X-104772Y48931D01*
X-104847Y48898D01*
X-104934Y48864D01*
X-105034Y48835D01*
X-105143Y48806D01*
X-105264Y48781D01*
X-105397Y48760D01*
X-105538Y48744D01*
X-105697Y48731D01*
X-105863Y48727D01*
X-105868D01*
X-105872D01*
X-105888D01*
X-105905D01*
X-105926D01*
X-105951Y48731D01*
X-106013D01*
X-106088Y48739D01*
X-106176Y48744D01*
X-106272Y48756D01*
X-106376Y48769D01*
X-106484Y48789D01*
X-106592Y48810D01*
X-106705Y48839D01*
X-106813Y48873D01*
X-106921Y48910D01*
X-107017Y48956D01*
X-107109Y49010D01*
X-107192Y49068D01*
X-107196Y49073D01*
X-107209Y49085D01*
X-107230Y49106D01*
X-107255Y49131D01*
X-107284Y49164D01*
X-107317Y49206D01*
X-107355Y49256D01*
X-107392Y49314D01*
X-107430Y49377D01*
X-107467Y49448D01*
X-107500Y49523D01*
X-107530Y49606D01*
X-107555Y49693D01*
X-107575Y49789D01*
X-107588Y49889D01*
X-107592Y49997D01*
Y50022D01*
X-107588Y50056D01*
X-107584Y50097D01*
X-107580Y50147D01*
X-107571Y50206D01*
X-107559Y50272D01*
X-107542Y50343D01*
X-107521Y50414D01*
X-107496Y50493D01*
X-107463Y50568D01*
X-107425Y50647D01*
X-107384Y50726D01*
X-107330Y50797D01*
X-107271Y50868D01*
X-107200Y50935D01*
X-107196Y50939D01*
X-107180Y50947D01*
X-107159Y50964D01*
X-107121Y50989D01*
X-107076Y51014D01*
X-107021Y51039D01*
X-106955Y51072D01*
X-106876Y51101D01*
X-106784Y51130D01*
X-106680Y51164D01*
X-106563Y51189D01*
X-106434Y51218D01*
X-106292Y51239D01*
X-106138Y51255D01*
X-105968Y51264D01*
X-105784Y51268D01*
X-105780D01*
X-105776D01*
X-105763D01*
X-105747D01*
X-105701Y51264D01*
D02*
G37*
G36*
X-104597Y44082D02*
X-104572D01*
X-104543Y44078D01*
X-104480Y44061D01*
X-104405Y44041D01*
X-104330Y44007D01*
X-104260Y43962D01*
X-104222Y43932D01*
X-104193Y43899D01*
Y43895D01*
X-104185Y43891D01*
X-104176Y43878D01*
X-104168Y43861D01*
X-104155Y43841D01*
X-104143Y43811D01*
X-104130Y43778D01*
X-104114Y43741D01*
X-104097Y43695D01*
X-104085Y43645D01*
X-104072Y43587D01*
X-104060Y43524D01*
X-104047Y43453D01*
X-104043Y43378D01*
X-104035Y43291D01*
Y42379D01*
X-105276D01*
Y43191D01*
X-105272Y43224D01*
X-105268Y43249D01*
X-105264Y43278D01*
X-105259Y43307D01*
X-105255Y43345D01*
X-105247Y43383D01*
X-105243Y43428D01*
X-105230Y43478D01*
X-105222Y43537D01*
X-105205Y43595D01*
X-105193Y43662D01*
Y43670D01*
X-105184Y43695D01*
X-105172Y43728D01*
X-105155Y43770D01*
X-105130Y43820D01*
X-105097Y43870D01*
X-105055Y43920D01*
X-105001Y43966D01*
X-104993Y43970D01*
X-104972Y43987D01*
X-104943Y44003D01*
X-104897Y44028D01*
X-104847Y44049D01*
X-104784Y44070D01*
X-104718Y44082D01*
X-104647Y44086D01*
X-104643D01*
X-104635D01*
X-104618D01*
X-104597Y44082D01*
D02*
G37*
G36*
X-104680Y37638D02*
X-104660D01*
X-104630Y37634D01*
X-104559Y37617D01*
X-104485Y37596D01*
X-104401Y37563D01*
X-104322Y37513D01*
X-104280Y37484D01*
X-104243Y37451D01*
X-104239Y37446D01*
X-104235Y37442D01*
X-104226Y37430D01*
X-104210Y37413D01*
X-104197Y37392D01*
X-104180Y37363D01*
X-104160Y37330D01*
X-104143Y37288D01*
X-104122Y37242D01*
X-104106Y37192D01*
X-104089Y37134D01*
X-104072Y37067D01*
X-104060Y36997D01*
X-104051Y36918D01*
X-104047Y36830D01*
X-104043Y36734D01*
Y36201D01*
X-105401D01*
Y36709D01*
X-105397Y36747D01*
Y36793D01*
X-105393Y36843D01*
X-105384Y36897D01*
X-105376Y36959D01*
X-105355Y37084D01*
X-105322Y37209D01*
X-105301Y37267D01*
X-105276Y37326D01*
X-105247Y37376D01*
X-105213Y37422D01*
X-105209Y37426D01*
X-105205Y37430D01*
X-105180Y37455D01*
X-105139Y37492D01*
X-105084Y37534D01*
X-105014Y37571D01*
X-104930Y37609D01*
X-104834Y37634D01*
X-104784Y37638D01*
X-104730Y37642D01*
X-104726D01*
X-104718D01*
X-104701D01*
X-104680Y37638D01*
D02*
G37*
G36*
X-106447Y6004D02*
Y7637D01*
X-104522D01*
X-106447Y6004D01*
D02*
G37*
G36*
X-102702Y4555D02*
X-106367D01*
X-102702Y7637D01*
Y4555D01*
D02*
G37*
G36*
X-105680Y2343D02*
X-105580D01*
X-105472Y2335D01*
X-105347Y2331D01*
X-105218Y2322D01*
X-105084Y2310D01*
X-104947Y2297D01*
X-104809Y2280D01*
X-104676Y2260D01*
X-104551Y2235D01*
X-104434Y2210D01*
X-104335Y2176D01*
X-104289Y2160D01*
X-104247Y2139D01*
X-104243Y2135D01*
X-104230Y2130D01*
X-104210Y2118D01*
X-104180Y2101D01*
X-104151Y2080D01*
X-104114Y2051D01*
X-104076Y2022D01*
X-104035Y1985D01*
X-103997Y1947D01*
X-103960Y1901D01*
X-103922Y1851D01*
X-103893Y1793D01*
X-103864Y1735D01*
X-103843Y1668D01*
X-103830Y1602D01*
X-103826Y1526D01*
Y1510D01*
X-103830Y1485D01*
X-103835Y1460D01*
X-103839Y1422D01*
X-103847Y1385D01*
X-103864Y1339D01*
X-103881Y1293D01*
X-103901Y1243D01*
X-103931Y1193D01*
X-103964Y1143D01*
X-104005Y1093D01*
X-104056Y1043D01*
X-104114Y997D01*
X-104180Y956D01*
X-104255Y918D01*
X-104260D01*
X-104276Y910D01*
X-104301Y902D01*
X-104339Y889D01*
X-104389Y877D01*
X-104451Y860D01*
X-104526Y843D01*
X-104609Y827D01*
X-104714Y810D01*
X-104826Y793D01*
X-104955Y777D01*
X-105097Y764D01*
X-105259Y752D01*
X-105430Y743D01*
X-105622Y739D01*
X-105726Y735D01*
X-105830D01*
X-105834D01*
X-105843D01*
X-105859D01*
X-105880D01*
X-105909D01*
X-105938D01*
X-105976Y739D01*
X-106018D01*
X-106113Y743D01*
X-106222Y747D01*
X-106338Y752D01*
X-106467Y760D01*
X-106596Y772D01*
X-106730Y785D01*
X-106863Y802D01*
X-106992Y822D01*
X-107117Y843D01*
X-107230Y873D01*
X-107334Y902D01*
X-107380Y922D01*
X-107421Y939D01*
X-107425Y943D01*
X-107438Y948D01*
X-107459Y960D01*
X-107488Y977D01*
X-107521Y997D01*
X-107555Y1023D01*
X-107592Y1056D01*
X-107634Y1089D01*
X-107671Y1131D01*
X-107713Y1172D01*
X-107746Y1222D01*
X-107780Y1277D01*
X-107809Y1335D01*
X-107830Y1397D01*
X-107842Y1464D01*
X-107846Y1535D01*
Y1560D01*
X-107842Y1576D01*
X-107838Y1627D01*
X-107825Y1685D01*
X-107800Y1756D01*
X-107771Y1826D01*
X-107725Y1906D01*
X-107700Y1939D01*
X-107667Y1976D01*
X-107663Y1981D01*
X-107659Y1985D01*
X-107646Y1993D01*
X-107634Y2010D01*
X-107613Y2022D01*
X-107588Y2043D01*
X-107563Y2060D01*
X-107530Y2085D01*
X-107492Y2105D01*
X-107450Y2130D01*
X-107400Y2151D01*
X-107351Y2176D01*
X-107296Y2197D01*
X-107234Y2218D01*
X-107167Y2239D01*
X-107096Y2255D01*
X-107092D01*
X-107080Y2260D01*
X-107055Y2264D01*
X-107021Y2268D01*
X-106980Y2276D01*
X-106930Y2285D01*
X-106867Y2293D01*
X-106796Y2301D01*
X-106717Y2310D01*
X-106626Y2318D01*
X-106526Y2326D01*
X-106417Y2335D01*
X-106297Y2339D01*
X-106167Y2343D01*
X-106026Y2347D01*
X-105876D01*
X-105872D01*
X-105863D01*
X-105847D01*
X-105822D01*
X-105793D01*
X-105759D01*
X-105722D01*
X-105680Y2343D01*
D02*
G37*
G36*
X-104489Y-9075D02*
X-104464D01*
X-104434Y-9083D01*
X-104372Y-9096D01*
X-104297Y-9121D01*
X-104218Y-9158D01*
X-104176Y-9183D01*
X-104135Y-9208D01*
X-104097Y-9242D01*
X-104060Y-9279D01*
X-104056Y-9283D01*
X-104051Y-9287D01*
X-104043Y-9300D01*
X-104026Y-9316D01*
X-104014Y-9337D01*
X-103997Y-9358D01*
X-103960Y-9421D01*
X-103922Y-9496D01*
X-103889Y-9583D01*
X-103868Y-9683D01*
X-103864Y-9737D01*
X-103860Y-9796D01*
Y-9825D01*
X-103864Y-9850D01*
Y-9875D01*
X-103872Y-9908D01*
X-103885Y-9983D01*
X-103910Y-10066D01*
X-103947Y-10154D01*
X-103968Y-10200D01*
X-103997Y-10241D01*
X-104026Y-10283D01*
X-104064Y-10325D01*
X-104068Y-10329D01*
X-104072Y-10333D01*
X-104085Y-10345D01*
X-104106Y-10358D01*
X-104126Y-10375D01*
X-104155Y-10391D01*
X-104189Y-10412D01*
X-104230Y-10433D01*
X-104276Y-10458D01*
X-104330Y-10479D01*
X-104389Y-10504D01*
X-104455Y-10525D01*
X-104526Y-10545D01*
X-104605Y-10566D01*
X-104693Y-10583D01*
X-104784Y-10595D01*
X-104647Y-12291D01*
X-104643D01*
X-104639D01*
X-104614Y-12287D01*
X-104580Y-12278D01*
X-104530Y-12270D01*
X-104468Y-12262D01*
X-104401Y-12245D01*
X-104322Y-12228D01*
X-104239Y-12207D01*
X-104151Y-12187D01*
X-104064Y-12162D01*
X-103876Y-12099D01*
X-103785Y-12062D01*
X-103697Y-12020D01*
X-103614Y-11974D01*
X-103535Y-11928D01*
X-103531Y-11924D01*
X-103518Y-11916D01*
X-103497Y-11899D01*
X-103468Y-11878D01*
X-103435Y-11853D01*
X-103397Y-11820D01*
X-103351Y-11778D01*
X-103306Y-11733D01*
X-103256Y-11683D01*
X-103206Y-11629D01*
X-103156Y-11566D01*
X-103106Y-11499D01*
X-103056Y-11429D01*
X-103006Y-11349D01*
X-102960Y-11266D01*
X-102918Y-11179D01*
X-102914Y-11174D01*
X-102910Y-11158D01*
X-102897Y-11129D01*
X-102885Y-11091D01*
X-102868Y-11041D01*
X-102852Y-10979D01*
X-102831Y-10912D01*
X-102810Y-10829D01*
X-102789Y-10737D01*
X-102768Y-10637D01*
X-102752Y-10529D01*
X-102735Y-10408D01*
X-102723Y-10279D01*
X-102710Y-10141D01*
X-102706Y-9995D01*
X-102702Y-9837D01*
Y-12416D01*
X-108888D01*
X-108863Y-12412D01*
X-108821Y-12403D01*
X-108767Y-12395D01*
X-108700Y-12382D01*
X-108625Y-12366D01*
X-108533Y-12345D01*
X-108438Y-12320D01*
X-108334Y-12287D01*
X-108221Y-12249D01*
X-108104Y-12207D01*
X-107984Y-12157D01*
X-107859Y-12103D01*
X-107734Y-12041D01*
X-107609Y-11970D01*
X-107484Y-11891D01*
X-107475Y-11887D01*
X-107455Y-11870D01*
X-107417Y-11841D01*
X-107367Y-11803D01*
X-107301Y-11749D01*
X-107226Y-11687D01*
X-107138Y-11608D01*
X-107038Y-11516D01*
X-106930Y-11412D01*
X-106809Y-11291D01*
X-106680Y-11154D01*
X-106542Y-10999D01*
X-106397Y-10833D01*
X-106322Y-10745D01*
X-106242Y-10649D01*
X-106163Y-10550D01*
X-106084Y-10450D01*
X-106001Y-10341D01*
X-105918Y-10229D01*
Y-10225D01*
X-105909Y-10221D01*
X-105892Y-10195D01*
X-105863Y-10158D01*
X-105826Y-10108D01*
X-105780Y-10050D01*
X-105730Y-9983D01*
X-105672Y-9908D01*
X-105605Y-9833D01*
X-105472Y-9671D01*
X-105401Y-9592D01*
X-105330Y-9517D01*
X-105264Y-9446D01*
X-105197Y-9379D01*
X-105139Y-9325D01*
X-105080Y-9279D01*
X-105076Y-9275D01*
X-105068Y-9271D01*
X-105051Y-9258D01*
X-105030Y-9246D01*
X-105005Y-9229D01*
X-104976Y-9212D01*
X-104905Y-9175D01*
X-104822Y-9137D01*
X-104730Y-9104D01*
X-104630Y-9079D01*
X-104585Y-9075D01*
X-104535Y-9071D01*
X-104530D01*
X-104522D01*
X-104505D01*
X-104489Y-9075D01*
D02*
G37*
G36*
X-104680Y-14840D02*
X-104660D01*
X-104630Y-14844D01*
X-104559Y-14861D01*
X-104485Y-14882D01*
X-104401Y-14915D01*
X-104322Y-14965D01*
X-104280Y-14994D01*
X-104243Y-15028D01*
X-104239Y-15032D01*
X-104235Y-15036D01*
X-104226Y-15048D01*
X-104210Y-15065D01*
X-104197Y-15086D01*
X-104180Y-15115D01*
X-104160Y-15148D01*
X-104143Y-15190D01*
X-104122Y-15236D01*
X-104106Y-15286D01*
X-104089Y-15344D01*
X-104072Y-15411D01*
X-104060Y-15482D01*
X-104051Y-15561D01*
X-104047Y-15648D01*
X-104043Y-15744D01*
Y-16277D01*
X-105401D01*
Y-15769D01*
X-105397Y-15732D01*
Y-15686D01*
X-105393Y-15636D01*
X-105384Y-15582D01*
X-105376Y-15519D01*
X-105355Y-15394D01*
X-105322Y-15269D01*
X-105301Y-15211D01*
X-105276Y-15152D01*
X-105247Y-15103D01*
X-105213Y-15057D01*
X-105209Y-15053D01*
X-105205Y-15048D01*
X-105180Y-15023D01*
X-105139Y-14986D01*
X-105084Y-14944D01*
X-105014Y-14907D01*
X-104930Y-14869D01*
X-104834Y-14844D01*
X-104784Y-14840D01*
X-104730Y-14836D01*
X-104726D01*
X-104718D01*
X-104701D01*
X-104680Y-14840D01*
D02*
G37*
G36*
X-104764Y-13007D02*
X-104826Y-13011D01*
X-104905Y-13020D01*
X-104993Y-13032D01*
X-105093Y-13049D01*
X-105201Y-13074D01*
X-105314Y-13103D01*
X-105434Y-13136D01*
X-105551Y-13182D01*
X-105672Y-13236D01*
X-105793Y-13299D01*
X-105905Y-13374D01*
X-106013Y-13461D01*
X-106117Y-13557D01*
X-106122Y-13565D01*
X-106138Y-13582D01*
X-106163Y-13615D01*
X-106197Y-13661D01*
X-106238Y-13720D01*
X-106280Y-13790D01*
X-106326Y-13878D01*
X-106376Y-13978D01*
X-106426Y-14086D01*
X-106472Y-14215D01*
X-106513Y-14353D01*
X-106555Y-14503D01*
X-106588Y-14669D01*
X-106613Y-14849D01*
X-106630Y-15040D01*
X-106634Y-15248D01*
Y-16277D01*
X-108896D01*
Y-13003D01*
X-104739D01*
X-104764Y-13007D01*
D02*
G37*
D10*
X-348304Y109618D02*
Y96922D01*
X-350843Y94382D01*
X-355922D01*
X-358461Y96922D01*
Y109618D01*
X-373696Y94382D02*
X-363539D01*
X-373696Y104539D01*
Y107078D01*
X-371157Y109618D01*
X-366078D01*
X-363539Y107078D01*
X-411843Y-100382D02*
Y-113078D01*
X-414383Y-115618D01*
X-419461D01*
X-422000Y-113078D01*
Y-100382D01*
X-427078Y-115618D02*
X-432157D01*
X-429618D01*
Y-100382D01*
X-427078Y-102922D01*
X-335382Y65696D02*
X-350618D01*
Y58078D01*
X-348078Y55539D01*
X-343000D01*
X-340461Y58078D01*
Y65696D01*
Y60617D02*
X-335382Y55539D01*
X-337922Y50461D02*
X-335382Y47922D01*
Y42843D01*
X-337922Y40304D01*
X-348078D01*
X-350618Y42843D01*
Y47922D01*
X-348078Y50461D01*
X-345539D01*
X-343000Y47922D01*
Y40304D01*
X-551697Y40367D02*
Y55602D01*
X-559314D01*
X-561854Y53063D01*
Y47984D01*
X-559314Y45445D01*
X-551697D01*
X-556775D02*
X-561854Y40367D01*
X-566932Y53063D02*
X-569471Y55602D01*
X-574550D01*
X-577089Y53063D01*
Y50524D01*
X-574550Y47984D01*
X-577089Y45445D01*
Y42906D01*
X-574550Y40367D01*
X-569471D01*
X-566932Y42906D01*
Y45445D01*
X-569471Y47984D01*
X-566932Y50524D01*
Y53063D01*
X-569471Y47984D02*
X-574550D01*
X-551697Y-6633D02*
Y8602D01*
X-559314D01*
X-561854Y6063D01*
Y984D01*
X-559314Y-1555D01*
X-551697D01*
X-556775D02*
X-561854Y-6633D01*
X-566932Y8602D02*
X-577089D01*
Y6063D01*
X-566932Y-4094D01*
Y-6633D01*
X-604304Y190382D02*
Y205618D01*
X-611922D01*
X-614461Y203078D01*
Y198000D01*
X-611922Y195461D01*
X-604304D01*
X-609383D02*
X-614461Y190382D01*
X-629696Y205618D02*
X-624618Y203078D01*
X-619539Y198000D01*
Y192922D01*
X-622078Y190382D01*
X-627157D01*
X-629696Y192922D01*
Y195461D01*
X-627157Y198000D01*
X-619539D01*
X-536304Y86383D02*
Y101617D01*
X-543922D01*
X-546461Y99078D01*
Y94000D01*
X-543922Y91461D01*
X-536304D01*
X-541382D02*
X-546461Y86383D01*
X-561696Y101617D02*
X-551539D01*
Y94000D01*
X-556618Y96539D01*
X-559157D01*
X-561696Y94000D01*
Y88922D01*
X-559157Y86383D01*
X-554078D01*
X-551539Y88922D01*
X-598304Y85382D02*
Y100618D01*
X-605922D01*
X-608461Y98078D01*
Y93000D01*
X-605922Y90461D01*
X-598304D01*
X-603382D02*
X-608461Y85382D01*
X-621157D02*
Y100618D01*
X-613539Y93000D01*
X-623696D01*
X-656304Y86383D02*
Y101617D01*
X-663922D01*
X-666461Y99078D01*
Y94000D01*
X-663922Y91461D01*
X-656304D01*
X-661383D02*
X-666461Y86383D01*
X-671539Y99078D02*
X-674078Y101617D01*
X-679157D01*
X-681696Y99078D01*
Y96539D01*
X-679157Y94000D01*
X-676618D01*
X-679157D01*
X-681696Y91461D01*
Y88922D01*
X-679157Y86383D01*
X-674078D01*
X-671539Y88922D01*
X-280304Y-46617D02*
Y-31383D01*
X-287922D01*
X-290461Y-33922D01*
Y-39000D01*
X-287922Y-41539D01*
X-280304D01*
X-285382D02*
X-290461Y-46617D01*
X-305696D02*
X-295539D01*
X-305696Y-36461D01*
Y-33922D01*
X-303157Y-31383D01*
X-298078D01*
X-295539Y-33922D01*
X-285843Y-70617D02*
Y-55382D01*
X-293461D01*
X-296000Y-57922D01*
Y-63000D01*
X-293461Y-65539D01*
X-285843D01*
X-290922D02*
X-296000Y-70617D01*
X-301078D02*
X-306157D01*
X-303618D01*
Y-55382D01*
X-301078Y-57922D01*
X-637618Y-171461D02*
Y-166383D01*
Y-168922D01*
X-624922D01*
X-622383Y-166383D01*
Y-163843D01*
X-624922Y-161304D01*
X-635078Y-176539D02*
X-637618Y-179078D01*
Y-184157D01*
X-635078Y-186696D01*
X-632539D01*
X-630000Y-184157D01*
Y-181618D01*
Y-184157D01*
X-627461Y-186696D01*
X-624922D01*
X-622383Y-184157D01*
Y-179078D01*
X-624922Y-176539D01*
X-70618Y-45461D02*
Y-40382D01*
Y-42922D01*
X-57922D01*
X-55382Y-40382D01*
Y-37843D01*
X-57922Y-35304D01*
X-55382Y-60696D02*
Y-50539D01*
X-65539Y-60696D01*
X-68078D01*
X-70618Y-58157D01*
Y-53078D01*
X-68078Y-50539D01*
X-132618Y-46000D02*
Y-40922D01*
Y-43461D01*
X-119922D01*
X-117382Y-40922D01*
Y-38382D01*
X-119922Y-35843D01*
X-117382Y-51078D02*
Y-56157D01*
Y-53618D01*
X-132618D01*
X-130078Y-51078D01*
X-352461Y196078D02*
X-349922Y198617D01*
X-344843D01*
X-342304Y196078D01*
Y185922D01*
X-344843Y183382D01*
X-349922D01*
X-352461Y185922D01*
X-357539Y198617D02*
X-367696D01*
Y196078D01*
X-357539Y185922D01*
Y183382D01*
X-350461Y163078D02*
X-347922Y165618D01*
X-342843D01*
X-340304Y163078D01*
Y152922D01*
X-342843Y150382D01*
X-347922D01*
X-350461Y152922D01*
X-365696Y165618D02*
X-360617Y163078D01*
X-355539Y158000D01*
Y152922D01*
X-358078Y150382D01*
X-363157D01*
X-365696Y152922D01*
Y155461D01*
X-363157Y158000D01*
X-355539D01*
X-395461Y24078D02*
X-392922Y26618D01*
X-387843D01*
X-385304Y24078D01*
Y13922D01*
X-387843Y11382D01*
X-392922D01*
X-395461Y13922D01*
X-410696Y26618D02*
X-400539D01*
Y19000D01*
X-405617Y21539D01*
X-408157D01*
X-410696Y19000D01*
Y13922D01*
X-408157Y11382D01*
X-403078D01*
X-400539Y13922D01*
X-513078Y101539D02*
X-515617Y104078D01*
Y109157D01*
X-513078Y111696D01*
X-502922D01*
X-500382Y109157D01*
Y104078D01*
X-502922Y101539D01*
X-500382Y88843D02*
X-515617D01*
X-508000Y96461D01*
Y86304D01*
X-359461Y-87922D02*
X-356922Y-85382D01*
X-351843D01*
X-349304Y-87922D01*
Y-98078D01*
X-351843Y-100618D01*
X-356922D01*
X-359461Y-98078D01*
X-364539Y-87922D02*
X-367078Y-85382D01*
X-372157D01*
X-374696Y-87922D01*
Y-90461D01*
X-372157Y-93000D01*
X-369618D01*
X-372157D01*
X-374696Y-95539D01*
Y-98078D01*
X-372157Y-100618D01*
X-367078D01*
X-364539Y-98078D01*
X-380461Y-15922D02*
X-377922Y-13383D01*
X-372843D01*
X-370304Y-15922D01*
Y-26078D01*
X-372843Y-28617D01*
X-377922D01*
X-380461Y-26078D01*
X-395696Y-28617D02*
X-385539D01*
X-395696Y-18461D01*
Y-15922D01*
X-393157Y-13383D01*
X-388078D01*
X-385539Y-15922D01*
X-472000Y-30922D02*
X-469461Y-28382D01*
X-464383D01*
X-461843Y-30922D01*
Y-41078D01*
X-464383Y-43618D01*
X-469461D01*
X-472000Y-41078D01*
X-477078Y-43618D02*
X-482157D01*
X-479618D01*
Y-28382D01*
X-477078Y-30922D01*
D11*
X-442250Y69500D02*
G03*
X-442250Y69500I-1250J0D01*
G01*
X-441541Y-77500D02*
G03*
X-441541Y-77500I-1250J0D01*
G01*
D12*
X-155000Y254000D02*
X-145000D01*
X-432061Y-29561D02*
X-407939D01*
X-432061Y-12439D02*
X-407939D01*
X-377061Y-75561D02*
X-352939D01*
X-377061Y-58439D02*
X-352939D01*
X-438439Y-47791D02*
Y-23669D01*
X-455561Y-47791D02*
Y-23669D01*
X-430000Y69000D02*
Y136000D01*
X-400000Y69000D02*
Y136000D01*
X-430000Y69000D02*
X-400000D01*
X-430000Y136000D02*
X-400000Y136000D01*
X-430000Y-85000D02*
Y-82500D01*
Y-85000D02*
X-427500D01*
X-430000Y-47500D02*
Y-45000D01*
X-427500D01*
X-390000Y-85000D02*
Y-82500D01*
X-392500Y-85000D02*
X-390000D01*
Y-47500D02*
Y-45000D01*
X-392500D02*
X-390000D01*
X-401989Y64521D02*
X-398011D01*
X-401989Y35479D02*
X-398011Y35479D01*
X-492021Y100511D02*
Y104489D01*
X-462979Y100511D02*
Y104489D01*
X-401989Y204521D02*
X-398011Y204521D01*
X-401989Y175479D02*
X-398011Y175479D01*
X-401989Y169521D02*
X-398011Y169521D01*
X-401989Y140479D02*
X-398011Y140479D01*
D13*
X-639000Y-129600D02*
X-623000D01*
Y-155850D02*
Y-129600D01*
X-639000Y-155850D02*
X-623000D01*
X-639000D02*
Y-129600D01*
X-113000Y-61950D02*
Y-35700D01*
Y-61950D02*
X-97000D01*
Y-35700D01*
X-113000D02*
X-97000D01*
X-93000Y-62250D02*
Y-36000D01*
Y-62250D02*
X-77000D01*
Y-36000D01*
X-93000D02*
X-77000D01*
M02*
