G04*
G04 #@! TF.GenerationSoftware,Altium Limited,Altium Designer,23.2.1 (34)*
G04*
G04 Layer_Color=8242323*
%FSLAX44Y44*%
%MOMM*%
G71*
G04*
G04 #@! TF.SameCoordinates,4D038F4D-AB9E-478B-8716-A6F2BEF9763F*
G04*
G04*
G04 #@! TF.FilePolarity,Positive*
G04*
G01*
G75*
%ADD55C,1.0000*%
D55*
X302000Y198016D02*
G03*
X198016Y302000I-104000J-16D01*
G01*
D02*
G03*
X198000Y302000I-16J-104000D01*
G01*
X302000Y198000D02*
G03*
X302000Y198016I-104000J0D01*
G01*
X198016Y302000D02*
G03*
X198000Y302000I-16J-5000D01*
G01*
X80484Y-247000D02*
G03*
X80500Y-247000I16J5000D01*
G01*
X85500Y-252000D02*
G03*
X80500Y-247000I-5000J0D01*
G01*
X302000Y-198016D02*
G03*
X302000Y-198000I-104000J16D01*
G01*
X198000Y-302000D02*
G03*
X302000Y-198016I-0J104000D01*
G01*
X85500Y-252000D02*
G03*
X85500Y-252016I5000J0D01*
G01*
Y-287000D02*
G03*
X100500Y-302000I15000J0D01*
G01*
X-60500Y-247000D02*
G03*
X-60484Y-247000I0J5000D01*
G01*
X-60500Y-247000D02*
G03*
X-65500Y-252000I0J-5000D01*
G01*
X-198000Y302000D02*
G03*
X-198016Y302000I0J-5000D01*
G01*
D02*
G03*
X-302000Y198000I16J-104000D01*
G01*
X-198000Y302000D02*
G03*
X-198016Y302000I-0J-104000D01*
G01*
X-65500Y-252016D02*
G03*
X-65500Y-252000I-5000J16D01*
G01*
X-65500Y-287020D02*
G03*
X-65500Y-287000I-5000J19D01*
G01*
X-65500Y-287020D02*
G03*
X-65500Y-287000I-15000J19D01*
G01*
X-80500Y-302000D02*
G03*
X-65500Y-287020I0J15000D01*
G01*
X-302000Y-198000D02*
G03*
X-198000Y-302000I104000J0D01*
G01*
X302000Y198016D02*
Y372217D01*
X302000Y198016D02*
X302000D01*
X-302000Y198073D02*
Y372217D01*
X302000Y-395330D02*
Y-198000D01*
X-302000Y-394495D02*
Y-198000D01*
X80484Y-247000D02*
X80500D01*
X-60484D02*
X80484D01*
X-60500D02*
X-60484D01*
X198000Y-302000D02*
X198000D01*
X100500Y-302000D02*
X198000Y-302000D01*
X85500Y-252016D02*
Y-252000D01*
Y-287000D02*
Y-252016D01*
X-198000Y302000D02*
X198000Y302000D01*
X-65500Y-252016D02*
Y-252000D01*
Y-252016D02*
X-65500Y-287000D01*
X-198000Y-302000D02*
X-80500Y-302000D01*
X-198000Y-302000D02*
X-198000D01*
X-198000D02*
X-198000D01*
X-940000Y-570000D02*
Y-510019D01*
X-910010D01*
X-900013Y-520016D01*
Y-540010D01*
X-910010Y-550006D01*
X-940000D01*
X-920006D02*
X-900013Y-570000D01*
X-850029Y-510019D02*
X-870023D01*
X-880019Y-520016D01*
Y-560003D01*
X-870023Y-570000D01*
X-850029D01*
X-840032Y-560003D01*
Y-520016D01*
X-850029Y-510019D01*
X-820039D02*
Y-560003D01*
X-810042Y-570000D01*
X-790049D01*
X-780052Y-560003D01*
Y-510019D01*
X-760058D02*
X-720071D01*
X-740065D01*
Y-570000D01*
X-660091Y-510019D02*
X-700078D01*
Y-570000D01*
X-660091D01*
X-700078Y-540010D02*
X-680084D01*
X-580116Y-510019D02*
X-540129D01*
X-560123D01*
Y-570000D01*
X-490145Y-510019D02*
X-510139D01*
X-520136Y-520016D01*
Y-560003D01*
X-510139Y-570000D01*
X-490145D01*
X-480149Y-560003D01*
Y-520016D01*
X-490145Y-510019D01*
X-430165D02*
X-450158D01*
X-460155Y-520016D01*
Y-560003D01*
X-450158Y-570000D01*
X-430165D01*
X-420168Y-560003D01*
Y-520016D01*
X-430165Y-510019D01*
X-400175D02*
Y-570000D01*
X-360187D01*
X-280213D02*
Y-510019D01*
X-250223D01*
X-240226Y-520016D01*
Y-540010D01*
X-250223Y-550006D01*
X-280213D01*
X-220233Y-570000D02*
Y-530013D01*
X-200239Y-510019D01*
X-180246Y-530013D01*
Y-570000D01*
Y-540010D01*
X-220233D01*
X-160252Y-510019D02*
X-120265D01*
X-140259D01*
Y-570000D01*
X-100272Y-510019D02*
Y-570000D01*
Y-540010D01*
X-60285D01*
Y-510019D01*
Y-570000D01*
M02*
