G04*
G04 #@! TF.GenerationSoftware,Altium Limited,Altium Designer,23.2.1 (34)*
G04*
G04 Layer_Color=8388736*
%FSLAX44Y44*%
%MOMM*%
G71*
G04*
G04 #@! TF.SameCoordinates,4D038F4D-AB9E-478B-8716-A6F2BEF9763F*
G04*
G04*
G04 #@! TF.FilePolarity,Negative*
G04*
G01*
G75*
%ADD10C,1.0000*%
%ADD11O,4.0000X4.5000*%
G04:AMPARAMS|DCode=12|XSize=1.1mm|YSize=1.7mm|CornerRadius=0mm|HoleSize=0mm|Usage=FLASHONLY|Rotation=135.000|XOffset=0mm|YOffset=0mm|HoleType=Round|Shape=Rectangle|*
%AMROTATEDRECTD12*
4,1,4,0.9900,0.2121,-0.2121,-0.9900,-0.9900,-0.2121,0.2121,0.9900,0.9900,0.2121,0.0*
%
%ADD12ROTATEDRECTD12*%

G04:AMPARAMS|DCode=13|XSize=1.1mm|YSize=1.7mm|CornerRadius=0mm|HoleSize=0mm|Usage=FLASHONLY|Rotation=45.000|XOffset=0mm|YOffset=0mm|HoleType=Round|Shape=Rectangle|*
%AMROTATEDRECTD13*
4,1,4,0.2121,-0.9900,-0.9900,0.2121,-0.2121,0.9900,0.9900,-0.2121,0.2121,-0.9900,0.0*
%
%ADD13ROTATEDRECTD13*%

%ADD14R,3.9600X5.3000*%
%ADD15R,3.9600X2.4500*%
%ADD16R,0.8000X0.9500*%
%ADD17R,0.9581X0.9121*%
%ADD18R,2.5000X1.9000*%
%ADD19R,2.7062X1.4544*%
%ADD20R,0.9121X0.9581*%
G04:AMPARAMS|DCode=21|XSize=0.95mm|YSize=0.8mm|CornerRadius=0mm|HoleSize=0mm|Usage=FLASHONLY|Rotation=45.000|XOffset=0mm|YOffset=0mm|HoleType=Round|Shape=Rectangle|*
%AMROTATEDRECTD21*
4,1,4,-0.0530,-0.6187,-0.6187,-0.0530,0.0530,0.6187,0.6187,0.0530,-0.0530,-0.6187,0.0*
%
%ADD21ROTATEDRECTD21*%

%ADD22R,0.4000X0.8000*%
%ADD23R,0.8000X0.8000*%
%ADD24R,0.8000X0.4000*%
%ADD25R,1.2000X1.2000*%
%ADD27R,0.9500X0.8000*%
%ADD28R,1.0000X1.0000*%
%ADD29R,1.1082X0.7821*%
G04:AMPARAMS|DCode=30|XSize=1.1082mm|YSize=0.7821mm|CornerRadius=0.3911mm|HoleSize=0mm|Usage=FLASHONLY|Rotation=180.000|XOffset=0mm|YOffset=0mm|HoleType=Round|Shape=RoundedRectangle|*
%AMROUNDEDRECTD30*
21,1,1.1082,0.0000,0,0,180.0*
21,1,0.3261,0.7821,0,0,180.0*
1,1,0.7821,-0.1631,0.0000*
1,1,0.7821,0.1631,0.0000*
1,1,0.7821,0.1631,0.0000*
1,1,0.7821,-0.1631,0.0000*
%
%ADD30ROUNDEDRECTD30*%
%ADD31R,1.4546X1.5562*%
%ADD32R,1.0000X1.0000*%
%ADD33R,1.3055X1.7582*%
G04:AMPARAMS|DCode=34|XSize=1.7mm|YSize=1mm|CornerRadius=0mm|HoleSize=0mm|Usage=FLASHONLY|Rotation=135.000|XOffset=0mm|YOffset=0mm|HoleType=Round|Shape=Rectangle|*
%AMROTATEDRECTD34*
4,1,4,0.9546,-0.2475,0.2475,-0.9546,-0.9546,0.2475,-0.2475,0.9546,0.9546,-0.2475,0.0*
%
%ADD34ROTATEDRECTD34*%

%ADD35R,1.5052X0.5721*%
G04:AMPARAMS|DCode=36|XSize=1.5052mm|YSize=0.5721mm|CornerRadius=0.2861mm|HoleSize=0mm|Usage=FLASHONLY|Rotation=180.000|XOffset=0mm|YOffset=0mm|HoleType=Round|Shape=RoundedRectangle|*
%AMROUNDEDRECTD36*
21,1,1.5052,0.0000,0,0,180.0*
21,1,0.9331,0.5721,0,0,180.0*
1,1,0.5721,-0.4666,0.0000*
1,1,0.5721,0.4666,0.0000*
1,1,0.5721,0.4666,0.0000*
1,1,0.5721,-0.4666,0.0000*
%
%ADD36ROUNDEDRECTD36*%
G04:AMPARAMS|DCode=37|XSize=0.95mm|YSize=0.8mm|CornerRadius=0mm|HoleSize=0mm|Usage=FLASHONLY|Rotation=315.000|XOffset=0mm|YOffset=0mm|HoleType=Round|Shape=Rectangle|*
%AMROTATEDRECTD37*
4,1,4,-0.6187,0.0530,-0.0530,0.6187,0.6187,-0.0530,0.0530,-0.6187,-0.6187,0.0530,0.0*
%
%ADD37ROTATEDRECTD37*%

%ADD38R,2.0000X3.0000*%
G04:AMPARAMS|DCode=40|XSize=1.05mm|YSize=0.9mm|CornerRadius=0mm|HoleSize=0mm|Usage=FLASHONLY|Rotation=225.000|XOffset=0mm|YOffset=0mm|HoleType=Round|Shape=Rectangle|*
%AMROTATEDRECTD40*
4,1,4,0.0530,0.6894,0.6894,0.0530,-0.0530,-0.6894,-0.6894,-0.0530,0.0530,0.6894,0.0*
%
%ADD40ROTATEDRECTD40*%

%ADD41R,1.5562X1.4546*%
%ADD42R,0.7821X1.1082*%
G04:AMPARAMS|DCode=43|XSize=1.1082mm|YSize=0.7821mm|CornerRadius=0.3911mm|HoleSize=0mm|Usage=FLASHONLY|Rotation=270.000|XOffset=0mm|YOffset=0mm|HoleType=Round|Shape=RoundedRectangle|*
%AMROUNDEDRECTD43*
21,1,1.1082,0.0000,0,0,270.0*
21,1,0.3261,0.7821,0,0,270.0*
1,1,0.7821,0.0000,-0.1631*
1,1,0.7821,0.0000,0.1631*
1,1,0.7821,0.0000,0.1631*
1,1,0.7821,0.0000,-0.1631*
%
%ADD43ROUNDEDRECTD43*%
G04:AMPARAMS|DCode=44|XSize=1.7mm|YSize=1mm|CornerRadius=0mm|HoleSize=0mm|Usage=FLASHONLY|Rotation=45.000|XOffset=0mm|YOffset=0mm|HoleType=Round|Shape=Rectangle|*
%AMROTATEDRECTD44*
4,1,4,-0.2475,-0.9546,-0.9546,-0.2475,0.2475,0.9546,0.9546,0.2475,-0.2475,-0.9546,0.0*
%
%ADD44ROTATEDRECTD44*%

%ADD45R,1.6000X0.7000*%
%ADD47R,1.7582X1.3055*%
%ADD48R,0.6000X2.4900*%
%ADD49R,0.6000X0.2700*%
G04:AMPARAMS|DCode=50|XSize=0.9581mm|YSize=0.9121mm|CornerRadius=0mm|HoleSize=0mm|Usage=FLASHONLY|Rotation=315.000|XOffset=0mm|YOffset=0mm|HoleType=Round|Shape=Rectangle|*
%AMROTATEDRECTD50*
4,1,4,-0.6612,0.0163,-0.0163,0.6612,0.6612,-0.0163,0.0163,-0.6612,-0.6612,0.0163,0.0*
%
%ADD50ROTATEDRECTD50*%

%ADD63C,1.5000*%
%ADD94R,0.3500X0.6500*%
%ADD95R,0.3500X0.6500*%
%ADD96R,0.3500X0.6500*%
%ADD97C,2.0000*%
%ADD98R,0.4000X1.6000*%
G36*
X-22000Y196000D02*
Y182000D01*
X-29500D01*
X-36000Y188500D01*
Y196000D01*
X-22000Y196000D01*
D02*
G37*
D10*
X234000Y183000D02*
D03*
X8000Y-93000D02*
D03*
X32000D02*
D03*
X20000Y-104000D02*
D03*
X-5000Y-103000D02*
D03*
X-18000Y-93000D02*
D03*
X-31000Y-103000D02*
D03*
X-72000Y-106250D02*
D03*
Y-124500D02*
D03*
X-224000Y-37000D02*
D03*
Y19000D02*
D03*
D11*
X125000Y-255000D02*
D03*
Y-190000D02*
D03*
D12*
X-188686Y-211314D02*
D03*
X-211314Y-188686D02*
D03*
X211314Y188686D02*
D03*
X188686Y211314D02*
D03*
D13*
Y-211314D02*
D03*
X211314Y-188686D02*
D03*
X-211314Y188686D02*
D03*
X-188686Y211314D02*
D03*
D14*
X146600Y-105000D02*
D03*
X-146600Y85000D02*
D03*
X146600D02*
D03*
X-146600Y-105000D02*
D03*
D15*
X275100D02*
D03*
X-275100Y85000D02*
D03*
X275100D02*
D03*
X-275100Y-105000D02*
D03*
D16*
X268229Y168423D02*
D03*
X254729Y168423D02*
D03*
Y154423D02*
D03*
X268229D02*
D03*
X254729Y140423D02*
D03*
X268229Y140423D02*
D03*
X181250Y145000D02*
D03*
X194750D02*
D03*
X-249250Y-166750D02*
D03*
X-262750Y-166750D02*
D03*
D17*
X268749Y184423D02*
D03*
X254209D02*
D03*
X-163750Y-268250D02*
D03*
X-178290D02*
D03*
X-55730Y117000D02*
D03*
X-70270D02*
D03*
D18*
X111000Y194500D02*
D03*
Y153500D02*
D03*
D19*
X-112500Y-190259D02*
D03*
Y-163741D02*
D03*
D20*
X-221000Y-1730D02*
D03*
Y-16270D02*
D03*
X-181000Y182000D02*
D03*
Y167460D02*
D03*
X-108500Y-224730D02*
D03*
Y-239270D02*
D03*
X74750Y-217730D02*
D03*
Y-232270D02*
D03*
X57500Y-217730D02*
D03*
Y-232270D02*
D03*
X8250Y-218230D02*
D03*
Y-232770D02*
D03*
X-9000Y-218230D02*
D03*
Y-232770D02*
D03*
X-26250Y-218230D02*
D03*
Y-232770D02*
D03*
X-43500Y-218230D02*
D03*
Y-232770D02*
D03*
X-60750Y-218230D02*
D03*
Y-232770D02*
D03*
X-78000Y-218230D02*
D03*
Y-232770D02*
D03*
D21*
X-189773Y-160227D02*
D03*
X-180227Y-169773D02*
D03*
X250477Y228523D02*
D03*
X260023Y218977D02*
D03*
X-179523Y228523D02*
D03*
X-169977Y218977D02*
D03*
X233250Y226000D02*
D03*
X242796Y216454D02*
D03*
X212049Y-232049D02*
D03*
X221595Y-241595D02*
D03*
X231773Y-233023D02*
D03*
X222227Y-223477D02*
D03*
X223023Y-176523D02*
D03*
X213477Y-166977D02*
D03*
D22*
X47000Y135500D02*
D03*
X38500D02*
D03*
X30000D02*
D03*
X21500D02*
D03*
X13000Y135500D02*
D03*
X4500Y135500D02*
D03*
X-4000D02*
D03*
X-12500D02*
D03*
X-21000D02*
D03*
X-29500D02*
D03*
X-38000D02*
D03*
X-46500D02*
D03*
X-55000D02*
D03*
X-63500Y135500D02*
D03*
X-72000Y135500D02*
D03*
X47000Y275500D02*
D03*
X38500D02*
D03*
X30000D02*
D03*
X21500D02*
D03*
X13000D02*
D03*
X4500D02*
D03*
X-4000D02*
D03*
X-12500D02*
D03*
X-21000D02*
D03*
X-29500D02*
D03*
X-38000D02*
D03*
X-46500D02*
D03*
X-55000D02*
D03*
X-63500D02*
D03*
X-72000D02*
D03*
D23*
X57500Y135500D02*
D03*
X-82500D02*
D03*
X57500Y275500D02*
D03*
X-82500D02*
D03*
D24*
X57500Y146000D02*
D03*
X57500Y154500D02*
D03*
X57500Y163000D02*
D03*
Y171500D02*
D03*
X57500Y180000D02*
D03*
X57500Y188500D02*
D03*
Y197000D02*
D03*
X57500Y205500D02*
D03*
Y214000D02*
D03*
Y222500D02*
D03*
X57500Y231000D02*
D03*
X57500Y239500D02*
D03*
Y248000D02*
D03*
X57500Y256500D02*
D03*
X57500Y265000D02*
D03*
X-82500Y265000D02*
D03*
X-82500Y256500D02*
D03*
X-82500Y248000D02*
D03*
X-82500Y239500D02*
D03*
Y231000D02*
D03*
X-82500Y222500D02*
D03*
X-82500Y214000D02*
D03*
X-82500Y205500D02*
D03*
X-82500Y197000D02*
D03*
X-82500Y188500D02*
D03*
X-82500Y180000D02*
D03*
X-82500Y171500D02*
D03*
X-82500Y163000D02*
D03*
Y154500D02*
D03*
X-82500Y146000D02*
D03*
D25*
X-12500Y205500D02*
D03*
X4000Y189000D02*
D03*
X-12500D02*
D03*
X4000Y205500D02*
D03*
Y222000D02*
D03*
X-12500D02*
D03*
X-29000D02*
D03*
Y205500D02*
D03*
D27*
X-194000Y1750D02*
D03*
Y-11750D02*
D03*
X-206000Y-19750D02*
D03*
Y-6250D02*
D03*
X-165000Y169000D02*
D03*
Y182500D02*
D03*
X-264000Y183000D02*
D03*
Y196500D02*
D03*
X-277750D02*
D03*
Y183000D02*
D03*
X25500Y-218750D02*
D03*
Y-232250D02*
D03*
X39750Y-218500D02*
D03*
Y-232000D02*
D03*
X-201500Y-264250D02*
D03*
Y-250750D02*
D03*
D28*
X-282200Y140250D02*
D03*
X-270500D02*
D03*
D29*
X-143200Y-248500D02*
D03*
X-103200Y-207000D02*
D03*
D30*
X-177800Y-248500D02*
D03*
X-137800Y-207000D02*
D03*
D31*
X-137742Y-155000D02*
D03*
X-156258D02*
D03*
D32*
X-150000Y182100D02*
D03*
Y170400D02*
D03*
X147000Y121900D02*
D03*
Y133600D02*
D03*
D33*
X-150737Y150750D02*
D03*
X-178264D02*
D03*
X172264Y162500D02*
D03*
X144736D02*
D03*
D34*
X-266709Y-217161D02*
D03*
X-222161Y-261709D02*
D03*
X-239839Y-190291D02*
D03*
X-195291Y-234839D02*
D03*
D35*
X223255Y147750D02*
D03*
X-165510Y-174250D02*
D03*
D36*
X223255Y166750D02*
D03*
X201245Y157250D02*
D03*
X-165510Y-193250D02*
D03*
X-143500Y-183750D02*
D03*
D37*
X177477Y224227D02*
D03*
X187023Y233773D02*
D03*
X-225273Y-180523D02*
D03*
X-215727Y-170977D02*
D03*
D38*
X72650Y-171694D02*
D03*
X-72650Y-171694D02*
D03*
D40*
X-191627Y-176373D02*
D03*
X-181374Y-186626D02*
D03*
D41*
X-156250Y-229008D02*
D03*
Y-210492D02*
D03*
D42*
X-127500Y-222700D02*
D03*
D43*
Y-257300D02*
D03*
D44*
X-225161Y265709D02*
D03*
X-269709Y221161D02*
D03*
X-198291Y238839D02*
D03*
X-242839Y194291D02*
D03*
D45*
X-244000Y-9000D02*
D03*
D47*
X128000Y242014D02*
D03*
Y214486D02*
D03*
D48*
X152000Y200000D02*
D03*
D49*
X160000Y190000D02*
D03*
Y195000D02*
D03*
Y200000D02*
D03*
Y205000D02*
D03*
Y210000D02*
D03*
X144000D02*
D03*
Y205000D02*
D03*
Y200000D02*
D03*
Y195000D02*
D03*
Y190000D02*
D03*
D50*
X184641Y179359D02*
D03*
X174359Y189641D02*
D03*
D63*
X-283000Y53200D02*
D03*
X-279000Y27800D02*
D03*
X-283000Y2400D02*
D03*
X-279000Y-23000D02*
D03*
X-283000Y-48400D02*
D03*
X-279000Y-73800D02*
D03*
D94*
X-239000Y750D02*
D03*
D95*
X-249000Y750D02*
D03*
X-239000Y-18750D02*
D03*
D96*
X-249000Y-18750D02*
D03*
D97*
X310000Y170000D02*
D03*
Y-170000D02*
D03*
X-310000Y170000D02*
D03*
Y-170000D02*
D03*
D98*
X-57500Y-148194D02*
D03*
X-52500D02*
D03*
X-47500D02*
D03*
X-42500Y-148194D02*
D03*
X-37500Y-148194D02*
D03*
X-32500D02*
D03*
X-27500D02*
D03*
X-22500Y-148194D02*
D03*
X-17500Y-148194D02*
D03*
X-12500Y-148194D02*
D03*
X-7500D02*
D03*
X-2500Y-148194D02*
D03*
X2500D02*
D03*
X7500D02*
D03*
X12500D02*
D03*
X17500D02*
D03*
X22500Y-148194D02*
D03*
X27500Y-148194D02*
D03*
X32500D02*
D03*
X37500D02*
D03*
X42500D02*
D03*
X47500D02*
D03*
X52500D02*
D03*
X57500D02*
D03*
M02*
