G04*
G04 #@! TF.GenerationSoftware,Altium Limited,Altium Designer,23.2.1 (34)*
G04*
G04 Layer_Color=32896*
%FSLAX44Y44*%
%MOMM*%
G71*
G04*
G04 #@! TF.SameCoordinates,4D038F4D-AB9E-478B-8716-A6F2BEF9763F*
G04*
G04*
G04 #@! TF.FilePolarity,Positive*
G04*
G01*
G75*
%ADD51C,0.2000*%
%ADD54C,0.3000*%
%ADD59C,0.4000*%
%ADD62C,0.2500*%
%ADD67C,0.1500*%
%ADD68C,0.1800*%
%ADD101R,5.8250X18.4250*%
G36*
X-50250Y225406D02*
X-53087D01*
Y229111D01*
X-53330D01*
X-53474Y229105D01*
X-53605Y229080D01*
X-53718Y229043D01*
X-53824Y229005D01*
X-53905Y228968D01*
X-53968Y228930D01*
X-53993Y228918D01*
X-54012Y228905D01*
X-54018Y228899D01*
X-54024D01*
X-54068Y228862D01*
X-54112Y228824D01*
X-54193Y228718D01*
X-54280Y228605D01*
X-54362Y228487D01*
X-54430Y228374D01*
X-54455Y228324D01*
X-54480Y228281D01*
X-54505Y228243D01*
X-54518Y228218D01*
X-54530Y228199D01*
Y228193D01*
X-56036Y225406D01*
X-59229D01*
X-57854Y228049D01*
X-57811Y228130D01*
X-57748Y228224D01*
X-57686Y228318D01*
X-57623Y228405D01*
X-57561Y228487D01*
X-57511Y228549D01*
X-57486Y228574D01*
X-57473Y228593D01*
X-57467Y228605D01*
X-57461Y228612D01*
X-57354Y228737D01*
X-57267Y228843D01*
X-57192Y228924D01*
X-57123Y228993D01*
X-57073Y229037D01*
X-57042Y229068D01*
X-57017Y229086D01*
X-57011Y229093D01*
X-56967Y229124D01*
X-56911Y229155D01*
X-56798Y229218D01*
X-56680Y229274D01*
X-56561Y229324D01*
X-56448Y229368D01*
X-56405Y229387D01*
X-56361Y229399D01*
X-56330Y229412D01*
X-56305Y229424D01*
X-56286Y229430D01*
X-56280D01*
X-56392Y229455D01*
X-56505Y229486D01*
X-56605Y229518D01*
X-56698Y229549D01*
X-56786Y229580D01*
X-56867Y229605D01*
X-56942Y229636D01*
X-57011Y229668D01*
X-57067Y229693D01*
X-57117Y229718D01*
X-57167Y229736D01*
X-57198Y229755D01*
X-57229Y229774D01*
X-57248Y229780D01*
X-57261Y229793D01*
X-57267D01*
X-57467Y229930D01*
X-57648Y230080D01*
X-57729Y230155D01*
X-57798Y230224D01*
X-57867Y230299D01*
X-57929Y230368D01*
X-57979Y230436D01*
X-58029Y230492D01*
X-58067Y230549D01*
X-58098Y230592D01*
X-58129Y230636D01*
X-58148Y230661D01*
X-58154Y230680D01*
X-58161Y230686D01*
X-58217Y230792D01*
X-58267Y230905D01*
X-58310Y231011D01*
X-58348Y231124D01*
X-58404Y231348D01*
X-58429Y231448D01*
X-58448Y231548D01*
X-58460Y231642D01*
X-58467Y231730D01*
X-58473Y231805D01*
X-58479Y231873D01*
X-58485Y231923D01*
Y231967D01*
Y231992D01*
Y231998D01*
X-58479Y232161D01*
X-58467Y232311D01*
X-58448Y232461D01*
X-58417Y232598D01*
X-58386Y232729D01*
X-58354Y232854D01*
X-58310Y232967D01*
X-58273Y233067D01*
X-58236Y233160D01*
X-58198Y233242D01*
X-58161Y233311D01*
X-58129Y233373D01*
X-58098Y233417D01*
X-58079Y233454D01*
X-58067Y233473D01*
X-58060Y233479D01*
X-57979Y233592D01*
X-57892Y233692D01*
X-57798Y233785D01*
X-57704Y233867D01*
X-57611Y233948D01*
X-57523Y234010D01*
X-57429Y234073D01*
X-57342Y234129D01*
X-57261Y234173D01*
X-57186Y234210D01*
X-57117Y234248D01*
X-57055Y234273D01*
X-57011Y234291D01*
X-56973Y234304D01*
X-56948Y234316D01*
X-56942D01*
X-56805Y234354D01*
X-56661Y234391D01*
X-56505Y234423D01*
X-56342Y234448D01*
X-56011Y234485D01*
X-55849Y234504D01*
X-55686Y234516D01*
X-55536Y234523D01*
X-55399Y234529D01*
X-55274Y234535D01*
X-55161D01*
X-55074Y234541D01*
X-50250D01*
Y225406D01*
D02*
G37*
G36*
X-68714Y232286D02*
X-71595D01*
Y225406D01*
X-74419D01*
Y232286D01*
X-77299D01*
Y234541D01*
X-68714D01*
Y232286D01*
D02*
G37*
G36*
X-63603Y234691D02*
X-63359Y234685D01*
X-63128Y234666D01*
X-62916Y234641D01*
X-62716Y234616D01*
X-62528Y234585D01*
X-62359Y234548D01*
X-62210Y234516D01*
X-62072Y234485D01*
X-61960Y234448D01*
X-61853Y234416D01*
X-61772Y234391D01*
X-61710Y234366D01*
X-61660Y234354D01*
X-61635Y234341D01*
X-61622Y234335D01*
X-61472Y234266D01*
X-61335Y234191D01*
X-61203Y234110D01*
X-61085Y234029D01*
X-60978Y233948D01*
X-60872Y233867D01*
X-60785Y233785D01*
X-60704Y233710D01*
X-60629Y233635D01*
X-60572Y233567D01*
X-60516Y233504D01*
X-60472Y233454D01*
X-60441Y233410D01*
X-60416Y233373D01*
X-60404Y233354D01*
X-60397Y233348D01*
X-60329Y233229D01*
X-60266Y233111D01*
X-60210Y232992D01*
X-60160Y232879D01*
X-60122Y232767D01*
X-60091Y232654D01*
X-60066Y232548D01*
X-60041Y232454D01*
X-60023Y232361D01*
X-60010Y232279D01*
X-60004Y232204D01*
X-59998Y232142D01*
X-59991Y232092D01*
Y232055D01*
Y232029D01*
Y232023D01*
X-59998Y231830D01*
X-60023Y231636D01*
X-60066Y231461D01*
X-60116Y231292D01*
X-60173Y231136D01*
X-60241Y230992D01*
X-60316Y230855D01*
X-60391Y230736D01*
X-60460Y230630D01*
X-60535Y230530D01*
X-60604Y230449D01*
X-60660Y230380D01*
X-60710Y230324D01*
X-60754Y230286D01*
X-60779Y230261D01*
X-60785Y230255D01*
X-60947Y230130D01*
X-61129Y230011D01*
X-61322Y229899D01*
X-61535Y229793D01*
X-61753Y229693D01*
X-61972Y229605D01*
X-62191Y229518D01*
X-62409Y229443D01*
X-62616Y229374D01*
X-62803Y229318D01*
X-62978Y229268D01*
X-63059Y229243D01*
X-63134Y229224D01*
X-63197Y229205D01*
X-63259Y229193D01*
X-63309Y229180D01*
X-63353Y229168D01*
X-63390Y229161D01*
X-63415Y229155D01*
X-63428Y229149D01*
X-63434D01*
X-63634Y229099D01*
X-63822Y229055D01*
X-63990Y229005D01*
X-64134Y228962D01*
X-64271Y228918D01*
X-64390Y228874D01*
X-64490Y228830D01*
X-64578Y228793D01*
X-64659Y228755D01*
X-64721Y228718D01*
X-64771Y228693D01*
X-64809Y228668D01*
X-64840Y228643D01*
X-64865Y228630D01*
X-64871Y228624D01*
X-64878Y228618D01*
X-64934Y228562D01*
X-64984Y228512D01*
X-65021Y228455D01*
X-65059Y228399D01*
X-65115Y228293D01*
X-65153Y228193D01*
X-65171Y228106D01*
X-65184Y228043D01*
X-65190Y228018D01*
Y227999D01*
Y227987D01*
Y227981D01*
X-65184Y227912D01*
X-65177Y227843D01*
X-65140Y227718D01*
X-65084Y227606D01*
X-65027Y227512D01*
X-64965Y227431D01*
X-64909Y227374D01*
X-64871Y227337D01*
X-64865Y227331D01*
X-64859Y227325D01*
X-64796Y227274D01*
X-64728Y227231D01*
X-64578Y227162D01*
X-64421Y227112D01*
X-64271Y227081D01*
X-64203Y227068D01*
X-64134Y227056D01*
X-64078Y227050D01*
X-64028D01*
X-63984Y227043D01*
X-63928D01*
X-63784Y227050D01*
X-63640Y227068D01*
X-63515Y227093D01*
X-63397Y227131D01*
X-63284Y227168D01*
X-63178Y227218D01*
X-63091Y227268D01*
X-63003Y227318D01*
X-62928Y227368D01*
X-62866Y227418D01*
X-62809Y227468D01*
X-62766Y227506D01*
X-62728Y227543D01*
X-62703Y227568D01*
X-62691Y227587D01*
X-62684Y227593D01*
X-62634Y227662D01*
X-62591Y227737D01*
X-62516Y227893D01*
X-62453Y228062D01*
X-62409Y228224D01*
X-62391Y228299D01*
X-62372Y228368D01*
X-62359Y228431D01*
X-62353Y228487D01*
X-62347Y228530D01*
X-62341Y228562D01*
X-62334Y228587D01*
Y228593D01*
X-59648Y228424D01*
X-59679Y228168D01*
X-59723Y227931D01*
X-59785Y227699D01*
X-59854Y227481D01*
X-59935Y227281D01*
X-60016Y227093D01*
X-60104Y226918D01*
X-60198Y226762D01*
X-60285Y226625D01*
X-60372Y226500D01*
X-60447Y226394D01*
X-60516Y226306D01*
X-60579Y226237D01*
X-60622Y226187D01*
X-60647Y226156D01*
X-60660Y226143D01*
X-60747Y226062D01*
X-60847Y225987D01*
X-60947Y225912D01*
X-61060Y225850D01*
X-61291Y225731D01*
X-61541Y225625D01*
X-61810Y225537D01*
X-62078Y225469D01*
X-62347Y225406D01*
X-62609Y225362D01*
X-62866Y225325D01*
X-63103Y225300D01*
X-63215Y225287D01*
X-63315Y225275D01*
X-63415Y225269D01*
X-63509Y225263D01*
X-63590D01*
X-63665Y225256D01*
X-63728D01*
X-63784Y225250D01*
X-63884D01*
X-64128Y225256D01*
X-64359Y225269D01*
X-64584Y225287D01*
X-64790Y225312D01*
X-64984Y225338D01*
X-65165Y225369D01*
X-65334Y225406D01*
X-65484Y225444D01*
X-65621Y225475D01*
X-65740Y225513D01*
X-65840Y225544D01*
X-65927Y225575D01*
X-65996Y225594D01*
X-66046Y225612D01*
X-66071Y225625D01*
X-66083Y225631D01*
X-66246Y225706D01*
X-66396Y225787D01*
X-66533Y225875D01*
X-66665Y225969D01*
X-66790Y226062D01*
X-66902Y226156D01*
X-67002Y226250D01*
X-67096Y226337D01*
X-67177Y226425D01*
X-67246Y226500D01*
X-67308Y226575D01*
X-67358Y226631D01*
X-67396Y226687D01*
X-67421Y226725D01*
X-67439Y226750D01*
X-67446Y226756D01*
X-67533Y226900D01*
X-67608Y227037D01*
X-67671Y227181D01*
X-67727Y227325D01*
X-67777Y227462D01*
X-67814Y227593D01*
X-67846Y227724D01*
X-67870Y227843D01*
X-67889Y227956D01*
X-67908Y228056D01*
X-67920Y228149D01*
X-67927Y228224D01*
X-67933Y228287D01*
Y228337D01*
Y228362D01*
Y228374D01*
X-67927Y228512D01*
X-67914Y228649D01*
X-67902Y228780D01*
X-67877Y228899D01*
X-67846Y229018D01*
X-67814Y229130D01*
X-67783Y229237D01*
X-67752Y229330D01*
X-67714Y229418D01*
X-67683Y229493D01*
X-67652Y229561D01*
X-67621Y229618D01*
X-67596Y229661D01*
X-67583Y229699D01*
X-67571Y229718D01*
X-67564Y229724D01*
X-67489Y229836D01*
X-67408Y229943D01*
X-67321Y230042D01*
X-67233Y230136D01*
X-67133Y230230D01*
X-67039Y230311D01*
X-66940Y230386D01*
X-66846Y230455D01*
X-66758Y230517D01*
X-66677Y230574D01*
X-66596Y230624D01*
X-66533Y230661D01*
X-66477Y230692D01*
X-66440Y230717D01*
X-66408Y230730D01*
X-66402Y230736D01*
X-66240Y230811D01*
X-66059Y230892D01*
X-65858Y230967D01*
X-65652Y231036D01*
X-65434Y231105D01*
X-65215Y231173D01*
X-64990Y231236D01*
X-64778Y231299D01*
X-64571Y231348D01*
X-64378Y231398D01*
X-64209Y231442D01*
X-64128Y231461D01*
X-64053Y231480D01*
X-63990Y231492D01*
X-63928Y231511D01*
X-63878Y231523D01*
X-63834Y231530D01*
X-63797Y231536D01*
X-63772Y231542D01*
X-63759Y231548D01*
X-63753D01*
X-63622Y231580D01*
X-63497Y231611D01*
X-63384Y231636D01*
X-63290Y231667D01*
X-63203Y231698D01*
X-63122Y231723D01*
X-63053Y231748D01*
X-62997Y231773D01*
X-62947Y231798D01*
X-62903Y231823D01*
X-62872Y231842D01*
X-62847Y231855D01*
X-62828Y231867D01*
X-62816Y231880D01*
X-62803Y231886D01*
X-62734Y231955D01*
X-62691Y232023D01*
X-62653Y232086D01*
X-62628Y232148D01*
X-62616Y232198D01*
X-62609Y232242D01*
X-62603Y232267D01*
Y232279D01*
X-62616Y232386D01*
X-62641Y232486D01*
X-62678Y232573D01*
X-62728Y232648D01*
X-62772Y232704D01*
X-62809Y232748D01*
X-62834Y232779D01*
X-62847Y232786D01*
X-62953Y232854D01*
X-63072Y232911D01*
X-63190Y232948D01*
X-63315Y232973D01*
X-63422Y232985D01*
X-63465Y232992D01*
X-63509Y232998D01*
X-63697D01*
X-63803Y232985D01*
X-63896Y232973D01*
X-63984Y232954D01*
X-64071Y232936D01*
X-64146Y232911D01*
X-64215Y232886D01*
X-64278Y232861D01*
X-64334Y232829D01*
X-64384Y232804D01*
X-64428Y232779D01*
X-64459Y232761D01*
X-64484Y232742D01*
X-64509Y232729D01*
X-64515Y232723D01*
X-64521Y232717D01*
X-64584Y232661D01*
X-64640Y232598D01*
X-64734Y232461D01*
X-64815Y232311D01*
X-64878Y232161D01*
X-64921Y232029D01*
X-64934Y231967D01*
X-64953Y231917D01*
X-64959Y231873D01*
X-64965Y231842D01*
X-64971Y231823D01*
Y231817D01*
X-67633Y231973D01*
X-67589Y232229D01*
X-67533Y232467D01*
X-67464Y232692D01*
X-67389Y232898D01*
X-67302Y233079D01*
X-67208Y233254D01*
X-67115Y233404D01*
X-67021Y233542D01*
X-66927Y233660D01*
X-66839Y233760D01*
X-66758Y233848D01*
X-66683Y233917D01*
X-66627Y233973D01*
X-66577Y234010D01*
X-66552Y234035D01*
X-66540Y234042D01*
X-66358Y234160D01*
X-66158Y234260D01*
X-65952Y234348D01*
X-65734Y234423D01*
X-65515Y234485D01*
X-65290Y234535D01*
X-65071Y234579D01*
X-64859Y234616D01*
X-64659Y234641D01*
X-64471Y234660D01*
X-64303Y234679D01*
X-64222Y234685D01*
X-64153D01*
X-64090Y234691D01*
X-64034D01*
X-63984Y234698D01*
X-63865D01*
X-63603Y234691D01*
D02*
G37*
G36*
X-28500Y170000D02*
X-31337D01*
Y173705D01*
X-31581D01*
X-31724Y173699D01*
X-31855Y173674D01*
X-31968Y173637D01*
X-32074Y173599D01*
X-32155Y173562D01*
X-32218Y173524D01*
X-32243Y173512D01*
X-32262Y173499D01*
X-32268Y173493D01*
X-32274D01*
X-32318Y173455D01*
X-32362Y173418D01*
X-32443Y173312D01*
X-32530Y173199D01*
X-32611Y173081D01*
X-32680Y172968D01*
X-32705Y172918D01*
X-32730Y172874D01*
X-32755Y172837D01*
X-32768Y172812D01*
X-32780Y172793D01*
Y172787D01*
X-34286Y170000D01*
X-37473D01*
D01*
X-40628D01*
X-42428Y172931D01*
X-44227Y170000D01*
X-47401D01*
X-44290Y174705D01*
X-47133Y179135D01*
X-44052D01*
X-42484Y176323D01*
X-40872Y179135D01*
X-37760D01*
X-40622Y174755D01*
X-37476Y170005D01*
X-36104Y172643D01*
X-36061Y172724D01*
X-35998Y172818D01*
X-35936Y172912D01*
X-35873Y172999D01*
X-35811Y173081D01*
X-35761Y173143D01*
X-35736Y173168D01*
X-35723Y173187D01*
X-35717Y173199D01*
X-35711Y173205D01*
X-35605Y173330D01*
X-35517Y173437D01*
X-35442Y173518D01*
X-35373Y173587D01*
X-35323Y173630D01*
X-35292Y173662D01*
X-35267Y173680D01*
X-35261Y173687D01*
X-35217Y173718D01*
X-35161Y173749D01*
X-35048Y173811D01*
X-34930Y173868D01*
X-34811Y173918D01*
X-34699Y173962D01*
X-34655Y173980D01*
X-34611Y173993D01*
X-34580Y174005D01*
X-34555Y174018D01*
X-34536Y174024D01*
X-34530D01*
X-34642Y174049D01*
X-34755Y174080D01*
X-34855Y174111D01*
X-34948Y174143D01*
X-35036Y174174D01*
X-35117Y174199D01*
X-35192Y174230D01*
X-35261Y174261D01*
X-35317Y174286D01*
X-35367Y174311D01*
X-35417Y174330D01*
X-35448Y174349D01*
X-35480Y174368D01*
X-35498Y174374D01*
X-35511Y174386D01*
X-35517D01*
X-35717Y174524D01*
X-35898Y174674D01*
X-35979Y174749D01*
X-36048Y174818D01*
X-36117Y174893D01*
X-36179Y174961D01*
X-36229Y175030D01*
X-36279Y175086D01*
X-36317Y175142D01*
X-36348Y175186D01*
X-36379Y175230D01*
X-36398Y175255D01*
X-36404Y175274D01*
X-36411Y175280D01*
X-36467Y175386D01*
X-36517Y175499D01*
X-36560Y175605D01*
X-36598Y175717D01*
X-36654Y175942D01*
X-36679Y176042D01*
X-36698Y176142D01*
X-36710Y176236D01*
X-36717Y176323D01*
X-36723Y176398D01*
X-36729Y176467D01*
X-36735Y176517D01*
Y176561D01*
Y176586D01*
Y176592D01*
X-36729Y176754D01*
X-36717Y176905D01*
X-36698Y177055D01*
X-36667Y177192D01*
X-36635Y177323D01*
X-36604Y177448D01*
X-36560Y177561D01*
X-36523Y177661D01*
X-36486Y177754D01*
X-36448Y177836D01*
X-36411Y177904D01*
X-36379Y177967D01*
X-36348Y178011D01*
X-36329Y178048D01*
X-36317Y178067D01*
X-36311Y178073D01*
X-36229Y178185D01*
X-36142Y178285D01*
X-36048Y178379D01*
X-35954Y178460D01*
X-35861Y178542D01*
X-35773Y178604D01*
X-35680Y178666D01*
X-35592Y178723D01*
X-35511Y178766D01*
X-35436Y178804D01*
X-35367Y178841D01*
X-35305Y178867D01*
X-35261Y178885D01*
X-35223Y178898D01*
X-35198Y178910D01*
X-35192D01*
X-35055Y178948D01*
X-34911Y178985D01*
X-34755Y179016D01*
X-34592Y179042D01*
X-34261Y179079D01*
X-34099Y179098D01*
X-33936Y179110D01*
X-33786Y179116D01*
X-33649Y179123D01*
X-33524Y179129D01*
X-33411D01*
X-33324Y179135D01*
X-28500D01*
Y170000D01*
D02*
G37*
G36*
X-54500Y163406D02*
X-57331D01*
Y172541D01*
X-54500D01*
Y163406D01*
D02*
G37*
G36*
X-63504Y172691D02*
X-63304Y172685D01*
X-63110Y172666D01*
X-62923Y172641D01*
X-62567Y172585D01*
X-62229Y172504D01*
X-61923Y172410D01*
X-61773Y172354D01*
X-61636Y172304D01*
X-61505Y172248D01*
X-61373Y172192D01*
X-61255Y172129D01*
X-61142Y172073D01*
X-61036Y172017D01*
X-60936Y171954D01*
X-60842Y171898D01*
X-60755Y171842D01*
X-60673Y171792D01*
X-60599Y171735D01*
X-60530Y171692D01*
X-60473Y171642D01*
X-60417Y171604D01*
X-60374Y171560D01*
X-60330Y171529D01*
X-60299Y171504D01*
X-60274Y171479D01*
X-60255Y171460D01*
X-60249Y171454D01*
X-60242Y171448D01*
X-60130Y171329D01*
X-60024Y171204D01*
X-59924Y171073D01*
X-59830Y170942D01*
X-59749Y170804D01*
X-59668Y170667D01*
X-59524Y170379D01*
X-59405Y170092D01*
X-59305Y169798D01*
X-59218Y169517D01*
X-59155Y169242D01*
X-59105Y168980D01*
X-59068Y168742D01*
X-59049Y168630D01*
X-59036Y168524D01*
X-59024Y168424D01*
X-59018Y168336D01*
X-59011Y168255D01*
X-59005Y168180D01*
Y168118D01*
X-58999Y168067D01*
Y168024D01*
Y167993D01*
Y167974D01*
Y167968D01*
X-59005Y167674D01*
X-59024Y167393D01*
X-59055Y167124D01*
X-59099Y166874D01*
X-59143Y166637D01*
X-59199Y166418D01*
X-59255Y166212D01*
X-59311Y166031D01*
X-59367Y165862D01*
X-59424Y165718D01*
X-59480Y165593D01*
X-59524Y165487D01*
X-59567Y165406D01*
X-59599Y165343D01*
X-59618Y165306D01*
X-59624Y165299D01*
Y165293D01*
X-59749Y165100D01*
X-59874Y164925D01*
X-60011Y164756D01*
X-60149Y164600D01*
X-60286Y164462D01*
X-60423Y164337D01*
X-60555Y164219D01*
X-60680Y164118D01*
X-60805Y164025D01*
X-60911Y163950D01*
X-61011Y163887D01*
X-61098Y163831D01*
X-61167Y163787D01*
X-61223Y163762D01*
X-61255Y163744D01*
X-61267Y163737D01*
X-61461Y163650D01*
X-61667Y163575D01*
X-61879Y163512D01*
X-62092Y163456D01*
X-62311Y163406D01*
X-62523Y163369D01*
X-62729Y163337D01*
X-62923Y163312D01*
X-63110Y163294D01*
X-63279Y163275D01*
X-63435Y163263D01*
X-63566Y163256D01*
X-63673D01*
X-63716Y163250D01*
X-63823D01*
X-64104Y163256D01*
X-64366Y163275D01*
X-64623Y163300D01*
X-64860Y163337D01*
X-65085Y163381D01*
X-65291Y163431D01*
X-65485Y163481D01*
X-65660Y163537D01*
X-65816Y163587D01*
X-65960Y163637D01*
X-66078Y163687D01*
X-66178Y163731D01*
X-66253Y163769D01*
X-66316Y163794D01*
X-66347Y163812D01*
X-66360Y163819D01*
X-66547Y163931D01*
X-66722Y164050D01*
X-66884Y164175D01*
X-67034Y164306D01*
X-67172Y164437D01*
X-67297Y164575D01*
X-67415Y164706D01*
X-67522Y164831D01*
X-67609Y164950D01*
X-67690Y165056D01*
X-67759Y165156D01*
X-67815Y165243D01*
X-67859Y165312D01*
X-67890Y165368D01*
X-67909Y165399D01*
X-67915Y165412D01*
X-68009Y165612D01*
X-68097Y165818D01*
X-68165Y166037D01*
X-68228Y166255D01*
X-68284Y166474D01*
X-68328Y166693D01*
X-68365Y166905D01*
X-68390Y167111D01*
X-68415Y167299D01*
X-68428Y167474D01*
X-68440Y167636D01*
X-68453Y167768D01*
Y167830D01*
Y167880D01*
X-68459Y167930D01*
Y167968D01*
Y167999D01*
Y168018D01*
Y168030D01*
Y168036D01*
X-68453Y168242D01*
X-68446Y168442D01*
X-68428Y168630D01*
X-68409Y168817D01*
X-68347Y169174D01*
X-68265Y169505D01*
X-68172Y169811D01*
X-68122Y169961D01*
X-68065Y170098D01*
X-68015Y170229D01*
X-67953Y170354D01*
X-67897Y170473D01*
X-67840Y170586D01*
X-67784Y170692D01*
X-67728Y170792D01*
X-67672Y170886D01*
X-67615Y170967D01*
X-67559Y171048D01*
X-67509Y171123D01*
X-67459Y171185D01*
X-67415Y171248D01*
X-67372Y171298D01*
X-67334Y171348D01*
X-67303Y171385D01*
X-67278Y171417D01*
X-67253Y171442D01*
X-67234Y171460D01*
X-67228Y171467D01*
X-67222Y171473D01*
X-67103Y171585D01*
X-66978Y171692D01*
X-66853Y171785D01*
X-66716Y171879D01*
X-66578Y171960D01*
X-66441Y172041D01*
X-66153Y172179D01*
X-65860Y172298D01*
X-65572Y172398D01*
X-65285Y172479D01*
X-65004Y172548D01*
X-64741Y172598D01*
X-64497Y172635D01*
X-64385Y172648D01*
X-64279Y172660D01*
X-64179Y172673D01*
X-64085Y172679D01*
X-64004Y172685D01*
X-63929Y172691D01*
X-63866D01*
X-63810Y172698D01*
X-63710D01*
X-63504Y172691D01*
D02*
G37*
G36*
X-73008Y172685D02*
X-72689Y172654D01*
X-72383Y172604D01*
X-72108Y172535D01*
X-71852Y172454D01*
X-71614Y172366D01*
X-71402Y172273D01*
X-71214Y172179D01*
X-71052Y172079D01*
X-70908Y171985D01*
X-70783Y171898D01*
X-70683Y171817D01*
X-70608Y171748D01*
X-70552Y171698D01*
X-70521Y171667D01*
X-70508Y171654D01*
X-70421Y171554D01*
X-70346Y171442D01*
X-70271Y171323D01*
X-70202Y171198D01*
X-70071Y170929D01*
X-69965Y170642D01*
X-69877Y170348D01*
X-69802Y170042D01*
X-69740Y169736D01*
X-69690Y169436D01*
X-69652Y169155D01*
X-69621Y168886D01*
X-69609Y168761D01*
X-69602Y168642D01*
X-69590Y168530D01*
X-69584Y168430D01*
Y168336D01*
X-69577Y168255D01*
Y168180D01*
X-69571Y168118D01*
Y168067D01*
Y168036D01*
Y168011D01*
Y168005D01*
Y167811D01*
X-69577Y167618D01*
X-69590Y167436D01*
X-69602Y167255D01*
X-69615Y167087D01*
X-69627Y166930D01*
X-69646Y166780D01*
X-69665Y166643D01*
X-69677Y166518D01*
X-69696Y166406D01*
X-69709Y166312D01*
X-69727Y166231D01*
X-69734Y166162D01*
X-69746Y166112D01*
X-69752Y166087D01*
Y166074D01*
X-69790Y165912D01*
X-69827Y165762D01*
X-69865Y165624D01*
X-69909Y165487D01*
X-69952Y165368D01*
X-69996Y165256D01*
X-70034Y165149D01*
X-70077Y165056D01*
X-70115Y164975D01*
X-70152Y164900D01*
X-70184Y164837D01*
X-70209Y164787D01*
X-70233Y164743D01*
X-70252Y164718D01*
X-70258Y164700D01*
X-70265Y164693D01*
X-70352Y164562D01*
X-70446Y164443D01*
X-70540Y164331D01*
X-70640Y164225D01*
X-70740Y164125D01*
X-70833Y164037D01*
X-70927Y163956D01*
X-71015Y163887D01*
X-71102Y163825D01*
X-71177Y163769D01*
X-71252Y163719D01*
X-71308Y163681D01*
X-71358Y163650D01*
X-71396Y163631D01*
X-71421Y163619D01*
X-71427Y163612D01*
X-71564Y163550D01*
X-71714Y163494D01*
X-71864Y163444D01*
X-72021Y163406D01*
X-72177Y163369D01*
X-72333Y163337D01*
X-72483Y163312D01*
X-72627Y163294D01*
X-72764Y163281D01*
X-72889Y163269D01*
X-73008Y163263D01*
X-73102Y163256D01*
X-73183Y163250D01*
X-73295D01*
X-73483Y163256D01*
X-73664Y163263D01*
X-73839Y163281D01*
X-74008Y163300D01*
X-74170Y163325D01*
X-74326Y163356D01*
X-74470Y163394D01*
X-74614Y163431D01*
X-74745Y163475D01*
X-74876Y163519D01*
X-74995Y163562D01*
X-75114Y163612D01*
X-75220Y163662D01*
X-75326Y163719D01*
X-75513Y163825D01*
X-75676Y163931D01*
X-75813Y164037D01*
X-75932Y164131D01*
X-76026Y164219D01*
X-76094Y164293D01*
X-76151Y164350D01*
X-76176Y164387D01*
X-76188Y164400D01*
X-76263Y164512D01*
X-76338Y164631D01*
X-76407Y164756D01*
X-76469Y164887D01*
X-76582Y165162D01*
X-76676Y165456D01*
X-76757Y165756D01*
X-76826Y166056D01*
X-76882Y166362D01*
X-76926Y166649D01*
X-76963Y166930D01*
X-76988Y167193D01*
X-77000Y167311D01*
X-77007Y167424D01*
X-77013Y167530D01*
X-77019Y167630D01*
X-77025Y167718D01*
Y167799D01*
X-77032Y167868D01*
Y167930D01*
Y167974D01*
Y168011D01*
Y168030D01*
Y168036D01*
X-77019Y168449D01*
X-77007Y168649D01*
X-76994Y168842D01*
X-76975Y169023D01*
X-76950Y169198D01*
X-76926Y169367D01*
X-76907Y169523D01*
X-76882Y169661D01*
X-76857Y169792D01*
X-76838Y169905D01*
X-76813Y169998D01*
X-76801Y170073D01*
X-76788Y170130D01*
X-76776Y170161D01*
Y170173D01*
X-76726Y170367D01*
X-76663Y170542D01*
X-76607Y170704D01*
X-76551Y170836D01*
X-76526Y170898D01*
X-76501Y170948D01*
X-76482Y170998D01*
X-76463Y171035D01*
X-76444Y171067D01*
X-76438Y171085D01*
X-76426Y171098D01*
Y171104D01*
X-76338Y171254D01*
X-76245Y171398D01*
X-76144Y171529D01*
X-76051Y171642D01*
X-75970Y171735D01*
X-75932Y171779D01*
X-75901Y171810D01*
X-75876Y171835D01*
X-75857Y171854D01*
X-75845Y171867D01*
X-75838Y171873D01*
X-75688Y172004D01*
X-75532Y172123D01*
X-75370Y172223D01*
X-75213Y172310D01*
X-75145Y172341D01*
X-75076Y172379D01*
X-75020Y172404D01*
X-74970Y172423D01*
X-74926Y172441D01*
X-74895Y172454D01*
X-74876Y172466D01*
X-74870D01*
X-74757Y172510D01*
X-74639Y172541D01*
X-74389Y172598D01*
X-74132Y172641D01*
X-74014Y172654D01*
X-73895Y172666D01*
X-73783Y172679D01*
X-73683Y172685D01*
X-73589Y172691D01*
X-73514D01*
X-73445Y172698D01*
X-73358D01*
X-73008Y172685D01*
D02*
G37*
G36*
X-246497Y22906D02*
X-249153D01*
Y27911D01*
X-252564Y22906D01*
X-255226D01*
Y32041D01*
X-252564D01*
Y26993D01*
X-249134Y32041D01*
X-246497D01*
Y22906D01*
D02*
G37*
G36*
X-240130Y32191D02*
X-239861Y32179D01*
X-239605Y32154D01*
X-239368Y32129D01*
X-239143Y32098D01*
X-238937Y32060D01*
X-238749Y32016D01*
X-238580Y31979D01*
X-238431Y31935D01*
X-238293Y31891D01*
X-238181Y31854D01*
X-238087Y31823D01*
X-238012Y31798D01*
X-237962Y31773D01*
X-237931Y31760D01*
X-237918Y31754D01*
X-237700Y31641D01*
X-237500Y31516D01*
X-237312Y31385D01*
X-237137Y31248D01*
X-236975Y31110D01*
X-236825Y30967D01*
X-236693Y30829D01*
X-236569Y30698D01*
X-236462Y30573D01*
X-236369Y30454D01*
X-236294Y30348D01*
X-236225Y30254D01*
X-236175Y30179D01*
X-236144Y30123D01*
X-236119Y30086D01*
X-236112Y30079D01*
Y30073D01*
X-236006Y29861D01*
X-235912Y29642D01*
X-235831Y29423D01*
X-235756Y29198D01*
X-235700Y28980D01*
X-235650Y28767D01*
X-235606Y28555D01*
X-235575Y28361D01*
X-235550Y28174D01*
X-235531Y28005D01*
X-235519Y27855D01*
X-235513Y27724D01*
X-235506Y27668D01*
Y27617D01*
X-235500Y27574D01*
Y27543D01*
Y27511D01*
Y27493D01*
Y27480D01*
Y27474D01*
X-235506Y27211D01*
X-235525Y26955D01*
X-235550Y26711D01*
X-235588Y26480D01*
X-235631Y26255D01*
X-235681Y26049D01*
X-235731Y25856D01*
X-235781Y25680D01*
X-235831Y25518D01*
X-235887Y25374D01*
X-235931Y25249D01*
X-235975Y25143D01*
X-236012Y25062D01*
X-236037Y24999D01*
X-236056Y24962D01*
X-236062Y24956D01*
Y24950D01*
X-236175Y24750D01*
X-236294Y24562D01*
X-236419Y24393D01*
X-236550Y24231D01*
X-236681Y24081D01*
X-236812Y23950D01*
X-236943Y23825D01*
X-237068Y23712D01*
X-237187Y23619D01*
X-237293Y23531D01*
X-237393Y23462D01*
X-237481Y23406D01*
X-237549Y23356D01*
X-237606Y23325D01*
X-237637Y23306D01*
X-237649Y23300D01*
X-237849Y23206D01*
X-238056Y23119D01*
X-238274Y23044D01*
X-238493Y22981D01*
X-238718Y22931D01*
X-238937Y22887D01*
X-239155Y22850D01*
X-239361Y22819D01*
X-239555Y22794D01*
X-239730Y22781D01*
X-239893Y22769D01*
X-239961Y22762D01*
X-240030Y22756D01*
X-240143D01*
X-240186Y22750D01*
X-240299D01*
X-240543Y22756D01*
X-240774Y22762D01*
X-240999Y22781D01*
X-241211Y22800D01*
X-241411Y22819D01*
X-241598Y22850D01*
X-241773Y22875D01*
X-241936Y22906D01*
X-242080Y22931D01*
X-242205Y22963D01*
X-242317Y22987D01*
X-242411Y23006D01*
X-242479Y23031D01*
X-242536Y23044D01*
X-242567Y23050D01*
X-242579Y23056D01*
X-242761Y23119D01*
X-242954Y23194D01*
X-243142Y23275D01*
X-243329Y23369D01*
X-243523Y23462D01*
X-243704Y23556D01*
X-243879Y23656D01*
X-244048Y23750D01*
X-244204Y23844D01*
X-244348Y23931D01*
X-244479Y24012D01*
X-244585Y24081D01*
X-244673Y24137D01*
X-244741Y24181D01*
X-244766Y24200D01*
X-244785Y24206D01*
X-244791Y24218D01*
X-244798D01*
Y28111D01*
X-240436D01*
Y26212D01*
X-242323D01*
Y25349D01*
X-242123Y25237D01*
X-241936Y25137D01*
X-241767Y25056D01*
X-241692Y25024D01*
X-241623Y24993D01*
X-241561Y24962D01*
X-241505Y24943D01*
X-241455Y24924D01*
X-241411Y24906D01*
X-241380Y24893D01*
X-241355Y24887D01*
X-241342Y24881D01*
X-241336D01*
X-241174Y24837D01*
X-241017Y24806D01*
X-240867Y24781D01*
X-240730Y24768D01*
X-240667Y24762D01*
X-240611Y24756D01*
X-240561D01*
X-240518Y24750D01*
X-240436D01*
X-240255Y24756D01*
X-240086Y24774D01*
X-239924Y24806D01*
X-239774Y24850D01*
X-239636Y24893D01*
X-239512Y24950D01*
X-239393Y25006D01*
X-239287Y25068D01*
X-239199Y25124D01*
X-239118Y25181D01*
X-239049Y25237D01*
X-238987Y25281D01*
X-238943Y25324D01*
X-238912Y25356D01*
X-238893Y25374D01*
X-238887Y25381D01*
X-238787Y25512D01*
X-238706Y25656D01*
X-238631Y25812D01*
X-238568Y25980D01*
X-238512Y26155D01*
X-238468Y26330D01*
X-238431Y26505D01*
X-238399Y26680D01*
X-238374Y26843D01*
X-238362Y26999D01*
X-238349Y27136D01*
X-238337Y27255D01*
Y27355D01*
X-238331Y27399D01*
Y27436D01*
Y27461D01*
Y27480D01*
Y27493D01*
Y27499D01*
X-238337Y27755D01*
X-238356Y27986D01*
X-238381Y28205D01*
X-238418Y28411D01*
X-238456Y28592D01*
X-238505Y28761D01*
X-238556Y28911D01*
X-238605Y29048D01*
X-238655Y29161D01*
X-238706Y29267D01*
X-238755Y29348D01*
X-238793Y29417D01*
X-238830Y29473D01*
X-238855Y29511D01*
X-238874Y29536D01*
X-238880Y29542D01*
X-238987Y29655D01*
X-239099Y29755D01*
X-239218Y29842D01*
X-239343Y29917D01*
X-239468Y29979D01*
X-239587Y30036D01*
X-239711Y30079D01*
X-239824Y30111D01*
X-239930Y30136D01*
X-240036Y30161D01*
X-240124Y30173D01*
X-240205Y30179D01*
X-240268Y30186D01*
X-240318Y30192D01*
X-240467D01*
X-240574Y30179D01*
X-240774Y30148D01*
X-240867Y30129D01*
X-240949Y30104D01*
X-241024Y30079D01*
X-241099Y30054D01*
X-241161Y30029D01*
X-241217Y30004D01*
X-241261Y29979D01*
X-241299Y29961D01*
X-241330Y29942D01*
X-241355Y29929D01*
X-241367Y29923D01*
X-241374Y29917D01*
X-241517Y29804D01*
X-241636Y29680D01*
X-241736Y29548D01*
X-241811Y29417D01*
X-241873Y29305D01*
X-241898Y29255D01*
X-241917Y29211D01*
X-241930Y29173D01*
X-241942Y29148D01*
X-241948Y29130D01*
Y29123D01*
X-244673Y29611D01*
X-244623Y29773D01*
X-244566Y29929D01*
X-244510Y30073D01*
X-244448Y30211D01*
X-244385Y30342D01*
X-244323Y30461D01*
X-244266Y30567D01*
X-244204Y30667D01*
X-244148Y30761D01*
X-244092Y30835D01*
X-244048Y30904D01*
X-244004Y30960D01*
X-243973Y31010D01*
X-243948Y31042D01*
X-243929Y31060D01*
X-243923Y31067D01*
X-243829Y31173D01*
X-243729Y31273D01*
X-243623Y31360D01*
X-243523Y31448D01*
X-243417Y31523D01*
X-243311Y31591D01*
X-243211Y31654D01*
X-243117Y31710D01*
X-243023Y31760D01*
X-242942Y31804D01*
X-242867Y31841D01*
X-242804Y31873D01*
X-242754Y31891D01*
X-242711Y31910D01*
X-242686Y31923D01*
X-242679D01*
X-242530Y31973D01*
X-242367Y32016D01*
X-242192Y32048D01*
X-242011Y32079D01*
X-241636Y32129D01*
X-241448Y32148D01*
X-241267Y32166D01*
X-241099Y32173D01*
X-240936Y32185D01*
X-240792Y32191D01*
X-240667D01*
X-240611Y32198D01*
X-240417D01*
X-240130Y32191D01*
D02*
G37*
G36*
X-257145Y22906D02*
X-261331D01*
X-261618Y22919D01*
X-261912Y22944D01*
X-262193Y22981D01*
X-262331Y23006D01*
X-262456Y23031D01*
X-262574Y23050D01*
X-262681Y23075D01*
X-262774Y23094D01*
X-262855Y23112D01*
X-262924Y23125D01*
X-262968Y23137D01*
X-262999Y23150D01*
X-263012D01*
X-263137Y23187D01*
X-263262Y23231D01*
X-263499Y23337D01*
X-263605Y23400D01*
X-263712Y23456D01*
X-263811Y23519D01*
X-263899Y23581D01*
X-263986Y23637D01*
X-264062Y23693D01*
X-264124Y23744D01*
X-264180Y23787D01*
X-264224Y23825D01*
X-264255Y23850D01*
X-264274Y23869D01*
X-264280Y23875D01*
X-264386Y23981D01*
X-264493Y24093D01*
X-264586Y24206D01*
X-264674Y24318D01*
X-264755Y24431D01*
X-264836Y24543D01*
X-264905Y24656D01*
X-264967Y24762D01*
X-265024Y24856D01*
X-265068Y24950D01*
X-265111Y25024D01*
X-265142Y25099D01*
X-265174Y25156D01*
X-265192Y25193D01*
X-265199Y25224D01*
X-265205Y25231D01*
X-265267Y25387D01*
X-265317Y25562D01*
X-265361Y25737D01*
X-265399Y25924D01*
X-265461Y26305D01*
X-265480Y26487D01*
X-265499Y26668D01*
X-265517Y26837D01*
X-265524Y26993D01*
X-265530Y27136D01*
X-265536Y27255D01*
X-265542Y27361D01*
Y27399D01*
Y27436D01*
Y27461D01*
Y27480D01*
Y27493D01*
Y27499D01*
X-265530Y27843D01*
X-265524Y28011D01*
X-265505Y28174D01*
X-265492Y28324D01*
X-265474Y28467D01*
X-265449Y28605D01*
X-265430Y28736D01*
X-265411Y28849D01*
X-265386Y28955D01*
X-265367Y29048D01*
X-265355Y29123D01*
X-265336Y29186D01*
X-265330Y29230D01*
X-265317Y29261D01*
Y29267D01*
X-265274Y29423D01*
X-265224Y29573D01*
X-265167Y29711D01*
X-265111Y29848D01*
X-265049Y29979D01*
X-264993Y30098D01*
X-264930Y30211D01*
X-264874Y30317D01*
X-264818Y30411D01*
X-264761Y30492D01*
X-264718Y30567D01*
X-264674Y30623D01*
X-264643Y30673D01*
X-264618Y30704D01*
X-264599Y30729D01*
X-264593Y30735D01*
X-264499Y30848D01*
X-264393Y30960D01*
X-264293Y31060D01*
X-264186Y31154D01*
X-264080Y31242D01*
X-263974Y31317D01*
X-263874Y31392D01*
X-263774Y31454D01*
X-263680Y31516D01*
X-263599Y31567D01*
X-263524Y31604D01*
X-263455Y31641D01*
X-263405Y31667D01*
X-263362Y31692D01*
X-263337Y31698D01*
X-263330Y31704D01*
X-263180Y31767D01*
X-263024Y31816D01*
X-262862Y31860D01*
X-262699Y31898D01*
X-262362Y31960D01*
X-262199Y31979D01*
X-262043Y31998D01*
X-261900Y32016D01*
X-261762Y32023D01*
X-261643Y32029D01*
X-261537Y32035D01*
X-261450Y32041D01*
X-257145D01*
Y22906D01*
D02*
G37*
G36*
X-247155Y58191D02*
X-246887Y58173D01*
X-246637Y58141D01*
X-246406Y58104D01*
X-246187Y58054D01*
X-245993Y58004D01*
X-245812Y57948D01*
X-245650Y57891D01*
X-245506Y57835D01*
X-245381Y57779D01*
X-245275Y57729D01*
X-245187Y57679D01*
X-245118Y57642D01*
X-245068Y57610D01*
X-245044Y57592D01*
X-245031Y57585D01*
X-244881Y57467D01*
X-244737Y57335D01*
X-244612Y57198D01*
X-244494Y57054D01*
X-244387Y56904D01*
X-244294Y56761D01*
X-244212Y56617D01*
X-244144Y56479D01*
X-244081Y56348D01*
X-244025Y56223D01*
X-243981Y56111D01*
X-243950Y56017D01*
X-243919Y55942D01*
X-243900Y55879D01*
X-243894Y55842D01*
X-243888Y55836D01*
Y55830D01*
X-246287Y55398D01*
X-246306Y55523D01*
X-246331Y55636D01*
X-246356Y55742D01*
X-246387Y55836D01*
X-246418Y55923D01*
X-246449Y55998D01*
X-246481Y56067D01*
X-246512Y56129D01*
X-246537Y56179D01*
X-246568Y56229D01*
X-246593Y56267D01*
X-246618Y56298D01*
X-246637Y56317D01*
X-246649Y56336D01*
X-246662Y56348D01*
X-246718Y56398D01*
X-246774Y56442D01*
X-246893Y56504D01*
X-247018Y56554D01*
X-247130Y56592D01*
X-247230Y56610D01*
X-247274Y56617D01*
X-247312D01*
X-247343Y56623D01*
X-247387D01*
X-247543Y56610D01*
X-247680Y56585D01*
X-247799Y56542D01*
X-247893Y56498D01*
X-247974Y56454D01*
X-248030Y56411D01*
X-248061Y56386D01*
X-248074Y56373D01*
X-248155Y56273D01*
X-248218Y56161D01*
X-248261Y56054D01*
X-248293Y55948D01*
X-248311Y55848D01*
X-248318Y55811D01*
Y55773D01*
X-248324Y55742D01*
Y55723D01*
Y55711D01*
Y55704D01*
X-248318Y55623D01*
X-248311Y55548D01*
X-248274Y55405D01*
X-248218Y55273D01*
X-248155Y55161D01*
X-248093Y55073D01*
X-248068Y55036D01*
X-248036Y55005D01*
X-248018Y54980D01*
X-247999Y54961D01*
X-247993Y54955D01*
X-247986Y54948D01*
X-247924Y54892D01*
X-247855Y54842D01*
X-247787Y54798D01*
X-247718Y54767D01*
X-247580Y54705D01*
X-247449Y54667D01*
X-247337Y54648D01*
X-247287Y54642D01*
X-247243Y54636D01*
X-247212Y54630D01*
X-247112D01*
X-247062Y54636D01*
X-246949Y54648D01*
X-246905D01*
X-246868Y54655D01*
X-246843Y54661D01*
X-246831D01*
X-246705Y52849D01*
X-246887Y52899D01*
X-247055Y52936D01*
X-247193Y52961D01*
X-247312Y52980D01*
X-247362Y52986D01*
X-247399Y52993D01*
X-247437D01*
X-247468Y52999D01*
X-247524D01*
X-247624Y52993D01*
X-247724Y52986D01*
X-247899Y52943D01*
X-248049Y52887D01*
X-248111Y52855D01*
X-248174Y52824D01*
X-248224Y52793D01*
X-248274Y52762D01*
X-248311Y52730D01*
X-248349Y52705D01*
X-248374Y52680D01*
X-248393Y52661D01*
X-248399Y52655D01*
X-248405Y52649D01*
X-248461Y52580D01*
X-248518Y52505D01*
X-248561Y52430D01*
X-248599Y52349D01*
X-248655Y52180D01*
X-248692Y52024D01*
X-248711Y51949D01*
X-248717Y51880D01*
X-248724Y51818D01*
X-248730Y51768D01*
X-248736Y51724D01*
Y51693D01*
Y51668D01*
Y51662D01*
X-248730Y51549D01*
X-248724Y51437D01*
X-248705Y51337D01*
X-248680Y51243D01*
X-248655Y51156D01*
X-248630Y51068D01*
X-248599Y50993D01*
X-248568Y50931D01*
X-248530Y50868D01*
X-248499Y50812D01*
X-248474Y50768D01*
X-248449Y50731D01*
X-248424Y50700D01*
X-248405Y50681D01*
X-248399Y50668D01*
X-248393Y50662D01*
X-248330Y50599D01*
X-248261Y50543D01*
X-248186Y50493D01*
X-248118Y50450D01*
X-248049Y50412D01*
X-247974Y50381D01*
X-247843Y50337D01*
X-247724Y50312D01*
X-247674Y50306D01*
X-247630Y50300D01*
X-247593Y50293D01*
X-247543D01*
X-247455Y50300D01*
X-247368Y50306D01*
X-247218Y50337D01*
X-247080Y50387D01*
X-246962Y50443D01*
X-246868Y50493D01*
X-246831Y50518D01*
X-246799Y50543D01*
X-246774Y50562D01*
X-246756Y50574D01*
X-246749Y50587D01*
X-246743D01*
X-246687Y50649D01*
X-246637Y50718D01*
X-246587Y50799D01*
X-246543Y50881D01*
X-246462Y51056D01*
X-246399Y51237D01*
X-246374Y51318D01*
X-246349Y51399D01*
X-246331Y51468D01*
X-246312Y51531D01*
X-246299Y51581D01*
X-246293Y51624D01*
X-246287Y51649D01*
Y51656D01*
X-243750Y51318D01*
X-243800Y51162D01*
X-243850Y51012D01*
X-243906Y50868D01*
X-243962Y50737D01*
X-244025Y50606D01*
X-244081Y50493D01*
X-244137Y50381D01*
X-244194Y50287D01*
X-244250Y50200D01*
X-244300Y50118D01*
X-244344Y50050D01*
X-244381Y49993D01*
X-244412Y49950D01*
X-244437Y49918D01*
X-244450Y49900D01*
X-244456Y49893D01*
X-244550Y49794D01*
X-244644Y49693D01*
X-244737Y49606D01*
X-244837Y49525D01*
X-244937Y49444D01*
X-245037Y49375D01*
X-245131Y49312D01*
X-245225Y49256D01*
X-245312Y49206D01*
X-245393Y49162D01*
X-245462Y49125D01*
X-245525Y49094D01*
X-245575Y49069D01*
X-245612Y49050D01*
X-245637Y49044D01*
X-245643Y49037D01*
X-245787Y48987D01*
X-245937Y48944D01*
X-246093Y48906D01*
X-246256Y48869D01*
X-246581Y48819D01*
X-246743Y48800D01*
X-246893Y48787D01*
X-247037Y48775D01*
X-247174Y48762D01*
X-247293Y48756D01*
X-247399D01*
X-247487Y48750D01*
X-247605D01*
X-247843Y48756D01*
X-248061Y48769D01*
X-248274Y48787D01*
X-248468Y48812D01*
X-248649Y48844D01*
X-248824Y48875D01*
X-248974Y48913D01*
X-249117Y48950D01*
X-249242Y48981D01*
X-249355Y49019D01*
X-249449Y49050D01*
X-249524Y49081D01*
X-249586Y49106D01*
X-249630Y49125D01*
X-249661Y49137D01*
X-249667Y49144D01*
X-249811Y49219D01*
X-249948Y49306D01*
X-250073Y49394D01*
X-250186Y49487D01*
X-250298Y49581D01*
X-250392Y49675D01*
X-250486Y49762D01*
X-250567Y49856D01*
X-250636Y49937D01*
X-250698Y50018D01*
X-250755Y50087D01*
X-250798Y50150D01*
X-250830Y50200D01*
X-250854Y50237D01*
X-250867Y50262D01*
X-250873Y50268D01*
X-250948Y50406D01*
X-251011Y50543D01*
X-251067Y50681D01*
X-251117Y50818D01*
X-251154Y50950D01*
X-251192Y51074D01*
X-251217Y51193D01*
X-251242Y51306D01*
X-251254Y51412D01*
X-251267Y51506D01*
X-251279Y51593D01*
X-251286Y51662D01*
X-251292Y51718D01*
Y51762D01*
Y51793D01*
Y51799D01*
X-251279Y52030D01*
X-251254Y52237D01*
X-251236Y52337D01*
X-251211Y52424D01*
X-251186Y52512D01*
X-251167Y52586D01*
X-251142Y52655D01*
X-251117Y52718D01*
X-251098Y52768D01*
X-251073Y52811D01*
X-251061Y52849D01*
X-251048Y52874D01*
X-251036Y52887D01*
Y52893D01*
X-250936Y53055D01*
X-250823Y53199D01*
X-250704Y53324D01*
X-250592Y53430D01*
X-250486Y53517D01*
X-250442Y53549D01*
X-250405Y53580D01*
X-250373Y53599D01*
X-250348Y53618D01*
X-250336Y53630D01*
X-250330D01*
X-250217Y53692D01*
X-250086Y53755D01*
X-249948Y53805D01*
X-249817Y53849D01*
X-249699Y53886D01*
X-249648Y53899D01*
X-249605Y53911D01*
X-249567Y53924D01*
X-249542Y53930D01*
X-249524Y53936D01*
X-249517D01*
X-249636Y54005D01*
X-249748Y54074D01*
X-249855Y54149D01*
X-249948Y54217D01*
X-250036Y54292D01*
X-250117Y54361D01*
X-250186Y54430D01*
X-250255Y54492D01*
X-250311Y54549D01*
X-250361Y54605D01*
X-250405Y54655D01*
X-250436Y54692D01*
X-250467Y54730D01*
X-250486Y54755D01*
X-250492Y54767D01*
X-250498Y54774D01*
X-250555Y54867D01*
X-250604Y54961D01*
X-250648Y55048D01*
X-250686Y55142D01*
X-250742Y55323D01*
X-250786Y55492D01*
X-250798Y55567D01*
X-250805Y55636D01*
X-250811Y55698D01*
X-250817Y55748D01*
X-250823Y55792D01*
Y55823D01*
Y55842D01*
Y55848D01*
X-250817Y56036D01*
X-250792Y56211D01*
X-250748Y56379D01*
X-250698Y56536D01*
X-250636Y56686D01*
X-250573Y56823D01*
X-250498Y56954D01*
X-250423Y57067D01*
X-250348Y57173D01*
X-250280Y57267D01*
X-250211Y57342D01*
X-250148Y57410D01*
X-250098Y57460D01*
X-250061Y57498D01*
X-250030Y57523D01*
X-250023Y57529D01*
X-249861Y57648D01*
X-249680Y57748D01*
X-249486Y57841D01*
X-249280Y57916D01*
X-249067Y57979D01*
X-248855Y58035D01*
X-248636Y58079D01*
X-248430Y58116D01*
X-248230Y58141D01*
X-248043Y58160D01*
X-247874Y58179D01*
X-247799Y58185D01*
X-247730D01*
X-247661Y58191D01*
X-247605D01*
X-247555Y58198D01*
X-247437D01*
X-247155Y58191D01*
D02*
G37*
G36*
X-265594D02*
X-265326Y58173D01*
X-265076Y58141D01*
X-264845Y58104D01*
X-264626Y58054D01*
X-264432Y58004D01*
X-264251Y57948D01*
X-264089Y57891D01*
X-263945Y57835D01*
X-263820Y57779D01*
X-263714Y57729D01*
X-263626Y57679D01*
X-263557Y57642D01*
X-263507Y57610D01*
X-263482Y57592D01*
X-263470Y57585D01*
X-263320Y57467D01*
X-263176Y57335D01*
X-263051Y57198D01*
X-262933Y57054D01*
X-262826Y56904D01*
X-262733Y56761D01*
X-262651Y56617D01*
X-262583Y56479D01*
X-262520Y56348D01*
X-262464Y56223D01*
X-262420Y56111D01*
X-262389Y56017D01*
X-262358Y55942D01*
X-262339Y55879D01*
X-262333Y55842D01*
X-262327Y55836D01*
Y55830D01*
X-264726Y55398D01*
X-264745Y55523D01*
X-264770Y55636D01*
X-264795Y55742D01*
X-264826Y55836D01*
X-264857Y55923D01*
X-264888Y55998D01*
X-264920Y56067D01*
X-264951Y56129D01*
X-264976Y56179D01*
X-265007Y56229D01*
X-265032Y56267D01*
X-265057Y56298D01*
X-265076Y56317D01*
X-265088Y56336D01*
X-265101Y56348D01*
X-265157Y56398D01*
X-265213Y56442D01*
X-265332Y56504D01*
X-265457Y56554D01*
X-265569Y56592D01*
X-265669Y56610D01*
X-265713Y56617D01*
X-265751D01*
X-265782Y56623D01*
X-265826D01*
X-265982Y56610D01*
X-266119Y56585D01*
X-266238Y56542D01*
X-266332Y56498D01*
X-266413Y56454D01*
X-266469Y56411D01*
X-266500Y56386D01*
X-266513Y56373D01*
X-266594Y56273D01*
X-266657Y56161D01*
X-266700Y56054D01*
X-266732Y55948D01*
X-266750Y55848D01*
X-266757Y55811D01*
Y55773D01*
X-266763Y55742D01*
Y55723D01*
Y55711D01*
Y55704D01*
X-266757Y55623D01*
X-266750Y55548D01*
X-266713Y55405D01*
X-266657Y55273D01*
X-266594Y55161D01*
X-266532Y55073D01*
X-266507Y55036D01*
X-266476Y55005D01*
X-266457Y54980D01*
X-266438Y54961D01*
X-266432Y54955D01*
X-266425Y54948D01*
X-266363Y54892D01*
X-266294Y54842D01*
X-266225Y54798D01*
X-266157Y54767D01*
X-266019Y54705D01*
X-265888Y54667D01*
X-265776Y54648D01*
X-265726Y54642D01*
X-265682Y54636D01*
X-265651Y54630D01*
X-265551D01*
X-265501Y54636D01*
X-265388Y54648D01*
X-265345D01*
X-265307Y54655D01*
X-265282Y54661D01*
X-265270D01*
X-265145Y52849D01*
X-265326Y52899D01*
X-265494Y52936D01*
X-265632Y52961D01*
X-265751Y52980D01*
X-265801Y52986D01*
X-265838Y52993D01*
X-265876D01*
X-265907Y52999D01*
X-265963D01*
X-266063Y52993D01*
X-266163Y52986D01*
X-266338Y52943D01*
X-266488Y52887D01*
X-266550Y52855D01*
X-266613Y52824D01*
X-266663Y52793D01*
X-266713Y52762D01*
X-266750Y52730D01*
X-266788Y52705D01*
X-266813Y52680D01*
X-266832Y52661D01*
X-266838Y52655D01*
X-266844Y52649D01*
X-266900Y52580D01*
X-266957Y52505D01*
X-267000Y52430D01*
X-267038Y52349D01*
X-267094Y52180D01*
X-267132Y52024D01*
X-267150Y51949D01*
X-267157Y51880D01*
X-267163Y51818D01*
X-267169Y51768D01*
X-267175Y51724D01*
Y51693D01*
Y51668D01*
Y51662D01*
X-267169Y51549D01*
X-267163Y51437D01*
X-267144Y51337D01*
X-267119Y51243D01*
X-267094Y51156D01*
X-267069Y51068D01*
X-267038Y50993D01*
X-267007Y50931D01*
X-266969Y50868D01*
X-266938Y50812D01*
X-266913Y50768D01*
X-266888Y50731D01*
X-266863Y50700D01*
X-266844Y50681D01*
X-266838Y50668D01*
X-266832Y50662D01*
X-266769Y50599D01*
X-266700Y50543D01*
X-266625Y50493D01*
X-266557Y50450D01*
X-266488Y50412D01*
X-266413Y50381D01*
X-266282Y50337D01*
X-266163Y50312D01*
X-266113Y50306D01*
X-266069Y50300D01*
X-266032Y50293D01*
X-265982D01*
X-265894Y50300D01*
X-265807Y50306D01*
X-265657Y50337D01*
X-265520Y50387D01*
X-265401Y50443D01*
X-265307Y50493D01*
X-265270Y50518D01*
X-265238Y50543D01*
X-265213Y50562D01*
X-265194Y50574D01*
X-265188Y50587D01*
X-265182D01*
X-265126Y50649D01*
X-265076Y50718D01*
X-265026Y50799D01*
X-264982Y50881D01*
X-264901Y51056D01*
X-264838Y51237D01*
X-264813Y51318D01*
X-264788Y51399D01*
X-264770Y51468D01*
X-264751Y51531D01*
X-264738Y51581D01*
X-264732Y51624D01*
X-264726Y51649D01*
Y51656D01*
X-262189Y51318D01*
X-262239Y51162D01*
X-262289Y51012D01*
X-262345Y50868D01*
X-262402Y50737D01*
X-262464Y50606D01*
X-262520Y50493D01*
X-262577Y50381D01*
X-262633Y50287D01*
X-262689Y50200D01*
X-262739Y50118D01*
X-262783Y50050D01*
X-262820Y49993D01*
X-262851Y49950D01*
X-262876Y49918D01*
X-262889Y49900D01*
X-262895Y49893D01*
X-262989Y49794D01*
X-263083Y49693D01*
X-263176Y49606D01*
X-263276Y49525D01*
X-263376Y49444D01*
X-263476Y49375D01*
X-263570Y49312D01*
X-263664Y49256D01*
X-263751Y49206D01*
X-263832Y49162D01*
X-263901Y49125D01*
X-263964Y49094D01*
X-264014Y49069D01*
X-264051Y49050D01*
X-264076Y49044D01*
X-264082Y49037D01*
X-264226Y48987D01*
X-264376Y48944D01*
X-264532Y48906D01*
X-264695Y48869D01*
X-265020Y48819D01*
X-265182Y48800D01*
X-265332Y48787D01*
X-265476Y48775D01*
X-265613Y48762D01*
X-265732Y48756D01*
X-265838D01*
X-265926Y48750D01*
X-266044D01*
X-266282Y48756D01*
X-266500Y48769D01*
X-266713Y48787D01*
X-266907Y48812D01*
X-267088Y48844D01*
X-267263Y48875D01*
X-267413Y48913D01*
X-267556Y48950D01*
X-267681Y48981D01*
X-267794Y49019D01*
X-267888Y49050D01*
X-267963Y49081D01*
X-268025Y49106D01*
X-268069Y49125D01*
X-268100Y49137D01*
X-268106Y49144D01*
X-268250Y49219D01*
X-268388Y49306D01*
X-268512Y49394D01*
X-268625Y49487D01*
X-268737Y49581D01*
X-268831Y49675D01*
X-268925Y49762D01*
X-269006Y49856D01*
X-269075Y49937D01*
X-269137Y50018D01*
X-269193Y50087D01*
X-269237Y50150D01*
X-269268Y50200D01*
X-269293Y50237D01*
X-269306Y50262D01*
X-269312Y50268D01*
X-269387Y50406D01*
X-269450Y50543D01*
X-269506Y50681D01*
X-269556Y50818D01*
X-269593Y50950D01*
X-269631Y51074D01*
X-269656Y51193D01*
X-269681Y51306D01*
X-269693Y51412D01*
X-269706Y51506D01*
X-269718Y51593D01*
X-269725Y51662D01*
X-269731Y51718D01*
Y51762D01*
Y51793D01*
Y51799D01*
X-269718Y52030D01*
X-269693Y52237D01*
X-269675Y52337D01*
X-269650Y52424D01*
X-269625Y52512D01*
X-269606Y52586D01*
X-269581Y52655D01*
X-269556Y52718D01*
X-269537Y52768D01*
X-269512Y52811D01*
X-269500Y52849D01*
X-269487Y52874D01*
X-269475Y52887D01*
Y52893D01*
X-269375Y53055D01*
X-269262Y53199D01*
X-269144Y53324D01*
X-269031Y53430D01*
X-268925Y53517D01*
X-268881Y53549D01*
X-268844Y53580D01*
X-268812Y53599D01*
X-268787Y53618D01*
X-268775Y53630D01*
X-268769D01*
X-268656Y53692D01*
X-268525Y53755D01*
X-268388Y53805D01*
X-268256Y53849D01*
X-268137Y53886D01*
X-268088Y53899D01*
X-268044Y53911D01*
X-268006Y53924D01*
X-267981Y53930D01*
X-267963Y53936D01*
X-267956D01*
X-268075Y54005D01*
X-268188Y54074D01*
X-268294Y54149D01*
X-268388Y54217D01*
X-268475Y54292D01*
X-268556Y54361D01*
X-268625Y54430D01*
X-268694Y54492D01*
X-268750Y54549D01*
X-268800Y54605D01*
X-268844Y54655D01*
X-268875Y54692D01*
X-268906Y54730D01*
X-268925Y54755D01*
X-268931Y54767D01*
X-268937Y54774D01*
X-268994Y54867D01*
X-269044Y54961D01*
X-269087Y55048D01*
X-269125Y55142D01*
X-269181Y55323D01*
X-269225Y55492D01*
X-269237Y55567D01*
X-269244Y55636D01*
X-269250Y55698D01*
X-269256Y55748D01*
X-269262Y55792D01*
Y55823D01*
Y55842D01*
Y55848D01*
X-269256Y56036D01*
X-269231Y56211D01*
X-269187Y56379D01*
X-269137Y56536D01*
X-269075Y56686D01*
X-269012Y56823D01*
X-268937Y56954D01*
X-268862Y57067D01*
X-268787Y57173D01*
X-268719Y57267D01*
X-268650Y57342D01*
X-268587Y57410D01*
X-268537Y57460D01*
X-268500Y57498D01*
X-268469Y57523D01*
X-268463Y57529D01*
X-268300Y57648D01*
X-268119Y57748D01*
X-267925Y57841D01*
X-267719Y57916D01*
X-267507Y57979D01*
X-267294Y58035D01*
X-267075Y58079D01*
X-266869Y58116D01*
X-266669Y58141D01*
X-266482Y58160D01*
X-266313Y58179D01*
X-266238Y58185D01*
X-266169D01*
X-266101Y58191D01*
X-266044D01*
X-265994Y58198D01*
X-265876D01*
X-265594Y58191D01*
D02*
G37*
G36*
X-255291Y48906D02*
X-258346D01*
X-261739Y58041D01*
X-258871D01*
X-256847Y51462D01*
X-254791Y58041D01*
X-251842D01*
X-255291Y48906D01*
D02*
G37*
G36*
X54537Y230661D02*
X57687Y225906D01*
X54531D01*
X52731Y228837D01*
X50932Y225906D01*
X47758D01*
X50869Y230611D01*
X48026Y235041D01*
X51107D01*
X52675Y232230D01*
X54287Y235041D01*
X57399D01*
X54537Y230661D01*
D02*
G37*
G36*
X67390Y229593D02*
X67378Y229337D01*
X67353Y229068D01*
X67309Y228812D01*
X67284Y228687D01*
X67259Y228568D01*
X67240Y228462D01*
X67215Y228362D01*
X67190Y228274D01*
X67172Y228199D01*
X67159Y228137D01*
X67147Y228087D01*
X67134Y228062D01*
Y228049D01*
X67103Y227950D01*
X67059Y227850D01*
X66972Y227662D01*
X66872Y227481D01*
X66822Y227400D01*
X66772Y227325D01*
X66728Y227256D01*
X66678Y227193D01*
X66640Y227137D01*
X66603Y227087D01*
X66578Y227050D01*
X66553Y227025D01*
X66540Y227006D01*
X66534Y227000D01*
X66365Y226819D01*
X66197Y226662D01*
X66034Y226525D01*
X65884Y226412D01*
X65816Y226362D01*
X65753Y226325D01*
X65703Y226287D01*
X65653Y226256D01*
X65616Y226237D01*
X65591Y226219D01*
X65572Y226212D01*
X65566Y226206D01*
X65353Y226112D01*
X65135Y226031D01*
X64916Y225969D01*
X64710Y225925D01*
X64610Y225900D01*
X64522Y225888D01*
X64447Y225875D01*
X64378Y225863D01*
X64322Y225856D01*
X64285Y225850D01*
X64254Y225844D01*
X64247D01*
X63960Y225812D01*
X63685Y225788D01*
X63560Y225781D01*
X63441Y225775D01*
X63329Y225769D01*
X63223Y225763D01*
X63129Y225756D01*
X63041D01*
X62973Y225750D01*
X62791D01*
X62579Y225756D01*
X62379Y225763D01*
X62179Y225775D01*
X61998Y225800D01*
X61823Y225819D01*
X61660Y225844D01*
X61511Y225875D01*
X61373Y225900D01*
X61248Y225931D01*
X61136Y225956D01*
X61042Y225981D01*
X60961Y226006D01*
X60898Y226025D01*
X60854Y226037D01*
X60823Y226044D01*
X60817Y226050D01*
X60704Y226094D01*
X60598Y226144D01*
X60392Y226262D01*
X60205Y226387D01*
X60117Y226450D01*
X60036Y226512D01*
X59961Y226569D01*
X59892Y226625D01*
X59836Y226675D01*
X59786Y226719D01*
X59748Y226756D01*
X59717Y226781D01*
X59699Y226800D01*
X59692Y226806D01*
X59592Y226912D01*
X59505Y227018D01*
X59417Y227125D01*
X59336Y227231D01*
X59267Y227337D01*
X59205Y227443D01*
X59142Y227543D01*
X59092Y227643D01*
X59049Y227731D01*
X59005Y227812D01*
X58974Y227887D01*
X58949Y227950D01*
X58924Y227999D01*
X58911Y228037D01*
X58899Y228062D01*
Y228068D01*
X58811Y228343D01*
X58749Y228612D01*
X58705Y228868D01*
X58686Y228987D01*
X58674Y229099D01*
X58661Y229205D01*
X58655Y229299D01*
X58649Y229387D01*
Y229455D01*
X58643Y229512D01*
Y229555D01*
Y229587D01*
Y229593D01*
Y235041D01*
X61460D01*
Y229468D01*
X61467Y229330D01*
X61479Y229199D01*
X61498Y229074D01*
X61523Y228962D01*
X61561Y228855D01*
X61592Y228762D01*
X61629Y228674D01*
X61667Y228593D01*
X61710Y228524D01*
X61748Y228462D01*
X61779Y228412D01*
X61810Y228368D01*
X61842Y228337D01*
X61860Y228312D01*
X61873Y228299D01*
X61879Y228293D01*
X61960Y228218D01*
X62048Y228156D01*
X62135Y228099D01*
X62229Y228056D01*
X62323Y228012D01*
X62423Y227981D01*
X62604Y227931D01*
X62685Y227918D01*
X62766Y227906D01*
X62835Y227893D01*
X62898Y227887D01*
X62948Y227881D01*
X63016D01*
X63148Y227887D01*
X63273Y227899D01*
X63391Y227918D01*
X63504Y227950D01*
X63604Y227981D01*
X63697Y228012D01*
X63785Y228049D01*
X63860Y228093D01*
X63929Y228131D01*
X63991Y228168D01*
X64041Y228199D01*
X64085Y228237D01*
X64116Y228262D01*
X64141Y228281D01*
X64154Y228293D01*
X64160Y228299D01*
X64235Y228381D01*
X64297Y228468D01*
X64353Y228562D01*
X64397Y228662D01*
X64441Y228755D01*
X64472Y228855D01*
X64522Y229043D01*
X64535Y229130D01*
X64547Y229212D01*
X64560Y229280D01*
X64566Y229343D01*
X64572Y229399D01*
Y229437D01*
Y229462D01*
Y229468D01*
Y235041D01*
X67390D01*
Y229593D01*
D02*
G37*
G36*
X78250Y225906D02*
X75369D01*
X74926Y227412D01*
X71720D01*
X71264Y225906D01*
X68309D01*
X71733Y235041D01*
X74820D01*
X78250Y225906D01*
D02*
G37*
G36*
X7949Y171656D02*
X5124D01*
Y173874D01*
X3662Y175399D01*
X1750Y171656D01*
X-1730D01*
X1744Y177342D01*
X-1580Y180791D01*
X2175D01*
X5124Y177336D01*
Y180791D01*
X7949D01*
Y171656D01*
D02*
G37*
G36*
X13816Y180941D02*
X14010Y180935D01*
X14203Y180916D01*
X14391Y180898D01*
X14741Y180835D01*
X15072Y180760D01*
X15378Y180666D01*
X15522Y180616D01*
X15659Y180560D01*
X15790Y180510D01*
X15915Y180454D01*
X16034Y180398D01*
X16140Y180341D01*
X16247Y180279D01*
X16347Y180223D01*
X16440Y180166D01*
X16522Y180117D01*
X16603Y180060D01*
X16672Y180010D01*
X16740Y179967D01*
X16796Y179923D01*
X16853Y179879D01*
X16897Y179842D01*
X16934Y179810D01*
X16965Y179779D01*
X16990Y179760D01*
X17009Y179742D01*
X17015Y179735D01*
X17021Y179729D01*
X17128Y179610D01*
X17234Y179492D01*
X17328Y179361D01*
X17415Y179229D01*
X17578Y178954D01*
X17715Y178673D01*
X17834Y178379D01*
X17928Y178092D01*
X18009Y177805D01*
X18071Y177530D01*
X18121Y177267D01*
X18159Y177024D01*
X18171Y176911D01*
X18184Y176805D01*
X18196Y176705D01*
X18202Y176618D01*
X18209Y176536D01*
X18215Y176461D01*
Y176399D01*
X18221Y176343D01*
Y176299D01*
Y176268D01*
Y176249D01*
Y176243D01*
X18215Y175930D01*
X18190Y175637D01*
X18159Y175355D01*
X18115Y175087D01*
X18065Y174843D01*
X18003Y174612D01*
X17946Y174399D01*
X17878Y174212D01*
X17815Y174037D01*
X17752Y173887D01*
X17696Y173756D01*
X17646Y173650D01*
X17603Y173562D01*
X17571Y173500D01*
X17546Y173462D01*
X17540Y173456D01*
Y173449D01*
X17409Y173256D01*
X17271Y173075D01*
X17134Y172906D01*
X16997Y172756D01*
X16859Y172619D01*
X16722Y172493D01*
X16590Y172381D01*
X16465Y172281D01*
X16353Y172200D01*
X16247Y172125D01*
X16147Y172062D01*
X16065Y172019D01*
X16003Y171981D01*
X15953Y171950D01*
X15922Y171937D01*
X15909Y171931D01*
X15728Y171856D01*
X15534Y171787D01*
X15334Y171731D01*
X15128Y171681D01*
X14928Y171637D01*
X14728Y171606D01*
X14528Y171575D01*
X14341Y171556D01*
X14160Y171537D01*
X13997Y171525D01*
X13853Y171513D01*
X13728Y171506D01*
X13672D01*
X13622Y171500D01*
X13479D01*
X13254Y171506D01*
X13041Y171513D01*
X12835Y171531D01*
X12648Y171556D01*
X12466Y171581D01*
X12304Y171612D01*
X12148Y171644D01*
X12010Y171675D01*
X11885Y171706D01*
X11773Y171737D01*
X11679Y171769D01*
X11604Y171794D01*
X11542Y171819D01*
X11498Y171837D01*
X11467Y171844D01*
X11460Y171850D01*
X11317Y171919D01*
X11173Y172000D01*
X11042Y172081D01*
X10917Y172162D01*
X10798Y172250D01*
X10692Y172337D01*
X10592Y172425D01*
X10498Y172506D01*
X10417Y172587D01*
X10342Y172662D01*
X10279Y172731D01*
X10223Y172787D01*
X10186Y172831D01*
X10155Y172868D01*
X10136Y172893D01*
X10129Y172900D01*
X10029Y173037D01*
X9942Y173175D01*
X9855Y173318D01*
X9780Y173468D01*
X9711Y173612D01*
X9642Y173762D01*
X9586Y173899D01*
X9536Y174037D01*
X9486Y174162D01*
X9448Y174274D01*
X9417Y174380D01*
X9392Y174468D01*
X9367Y174543D01*
X9355Y174599D01*
X9342Y174631D01*
Y174643D01*
X11817Y175393D01*
X11854Y175237D01*
X11898Y175087D01*
X11941Y174949D01*
X11991Y174818D01*
X12041Y174699D01*
X12091Y174593D01*
X12141Y174493D01*
X12191Y174405D01*
X12235Y174324D01*
X12279Y174256D01*
X12323Y174199D01*
X12354Y174156D01*
X12385Y174118D01*
X12404Y174087D01*
X12416Y174074D01*
X12423Y174068D01*
X12504Y173987D01*
X12591Y173918D01*
X12685Y173862D01*
X12785Y173806D01*
X12885Y173762D01*
X12991Y173731D01*
X13091Y173699D01*
X13185Y173675D01*
X13279Y173656D01*
X13366Y173643D01*
X13441Y173631D01*
X13510Y173624D01*
X13566D01*
X13604Y173618D01*
X13641D01*
X13791Y173624D01*
X13935Y173643D01*
X14066Y173668D01*
X14191Y173706D01*
X14310Y173749D01*
X14416Y173799D01*
X14510Y173849D01*
X14597Y173899D01*
X14678Y173949D01*
X14747Y174006D01*
X14803Y174049D01*
X14847Y174093D01*
X14885Y174131D01*
X14916Y174156D01*
X14928Y174174D01*
X14935Y174181D01*
X15016Y174299D01*
X15085Y174431D01*
X15147Y174580D01*
X15197Y174743D01*
X15241Y174912D01*
X15278Y175087D01*
X15309Y175261D01*
X15334Y175430D01*
X15353Y175599D01*
X15366Y175749D01*
X15378Y175893D01*
X15384Y176018D01*
Y176118D01*
X15391Y176161D01*
Y176193D01*
Y176224D01*
Y176243D01*
Y176255D01*
Y176261D01*
X15384Y176486D01*
X15372Y176692D01*
X15353Y176880D01*
X15328Y177061D01*
X15303Y177223D01*
X15272Y177367D01*
X15234Y177505D01*
X15197Y177623D01*
X15166Y177723D01*
X15128Y177817D01*
X15097Y177892D01*
X15066Y177955D01*
X15047Y177998D01*
X15028Y178036D01*
X15016Y178055D01*
X15009Y178061D01*
X14909Y178198D01*
X14797Y178317D01*
X14685Y178423D01*
X14566Y178511D01*
X14441Y178586D01*
X14322Y178648D01*
X14197Y178698D01*
X14085Y178742D01*
X13972Y178773D01*
X13872Y178792D01*
X13779Y178811D01*
X13697Y178823D01*
X13635Y178829D01*
X13585Y178836D01*
X13541D01*
X13385Y178829D01*
X13241Y178811D01*
X13110Y178779D01*
X12997Y178748D01*
X12910Y178717D01*
X12873Y178704D01*
X12835Y178686D01*
X12810Y178679D01*
X12791Y178667D01*
X12785Y178661D01*
X12779D01*
X12654Y178592D01*
X12541Y178511D01*
X12441Y178423D01*
X12360Y178348D01*
X12291Y178273D01*
X12241Y178217D01*
X12210Y178173D01*
X12198Y178167D01*
Y178161D01*
X12141Y178080D01*
X12091Y177986D01*
X12048Y177886D01*
X12004Y177786D01*
X11973Y177698D01*
X11948Y177623D01*
X11935Y177592D01*
X11929Y177574D01*
X11923Y177561D01*
Y177555D01*
X9430Y178105D01*
X9523Y178367D01*
X9630Y178611D01*
X9742Y178836D01*
X9861Y179048D01*
X9986Y179242D01*
X10105Y179417D01*
X10229Y179573D01*
X10342Y179717D01*
X10454Y179842D01*
X10561Y179948D01*
X10654Y180042D01*
X10736Y180117D01*
X10804Y180173D01*
X10854Y180217D01*
X10885Y180242D01*
X10898Y180248D01*
X11092Y180373D01*
X11298Y180479D01*
X11517Y180573D01*
X11735Y180654D01*
X11967Y180723D01*
X12191Y180779D01*
X12410Y180823D01*
X12623Y180860D01*
X12823Y180891D01*
X13010Y180910D01*
X13179Y180929D01*
X13254Y180935D01*
X13322D01*
X13385Y180941D01*
X13441D01*
X13491Y180948D01*
X13610D01*
X13816Y180941D01*
D02*
G37*
G36*
X27750Y178536D02*
X24869D01*
Y171656D01*
X22045D01*
Y178536D01*
X19165D01*
Y180791D01*
X27750D01*
Y178536D01*
D02*
G37*
G36*
X-9829Y224156D02*
X-12141D01*
Y231117D01*
X-13909Y224156D01*
X-16002D01*
X-17783Y231117D01*
Y224156D01*
X-20095D01*
Y233291D01*
X-16383D01*
X-14965Y227730D01*
X-13540Y233291D01*
X-9829D01*
Y224156D01*
D02*
G37*
G36*
X-0Y231036D02*
X-2881D01*
Y224156D01*
X-5705D01*
Y231036D01*
X-8585D01*
Y233291D01*
X-0D01*
Y231036D01*
D02*
G37*
G36*
X-25369Y233441D02*
X-25125Y233435D01*
X-24894Y233416D01*
X-24681Y233391D01*
X-24481Y233366D01*
X-24294Y233335D01*
X-24125Y233298D01*
X-23975Y233266D01*
X-23838Y233235D01*
X-23725Y233198D01*
X-23619Y233166D01*
X-23538Y233141D01*
X-23475Y233116D01*
X-23425Y233104D01*
X-23400Y233091D01*
X-23388Y233085D01*
X-23238Y233016D01*
X-23100Y232941D01*
X-22969Y232860D01*
X-22850Y232779D01*
X-22744Y232698D01*
X-22638Y232617D01*
X-22550Y232535D01*
X-22469Y232460D01*
X-22394Y232385D01*
X-22338Y232317D01*
X-22282Y232254D01*
X-22238Y232204D01*
X-22207Y232160D01*
X-22182Y232123D01*
X-22169Y232104D01*
X-22163Y232098D01*
X-22094Y231979D01*
X-22032Y231861D01*
X-21976Y231742D01*
X-21926Y231629D01*
X-21888Y231517D01*
X-21857Y231404D01*
X-21832Y231298D01*
X-21807Y231204D01*
X-21788Y231111D01*
X-21776Y231029D01*
X-21769Y230954D01*
X-21763Y230892D01*
X-21757Y230842D01*
Y230805D01*
Y230779D01*
Y230773D01*
X-21763Y230580D01*
X-21788Y230386D01*
X-21832Y230211D01*
X-21882Y230042D01*
X-21938Y229886D01*
X-22007Y229742D01*
X-22082Y229605D01*
X-22157Y229486D01*
X-22226Y229380D01*
X-22301Y229280D01*
X-22369Y229199D01*
X-22426Y229130D01*
X-22476Y229074D01*
X-22519Y229036D01*
X-22544Y229011D01*
X-22550Y229005D01*
X-22713Y228880D01*
X-22894Y228761D01*
X-23088Y228649D01*
X-23300Y228543D01*
X-23519Y228443D01*
X-23738Y228355D01*
X-23956Y228268D01*
X-24175Y228193D01*
X-24381Y228124D01*
X-24569Y228068D01*
X-24744Y228018D01*
X-24825Y227993D01*
X-24900Y227974D01*
X-24962Y227955D01*
X-25025Y227943D01*
X-25075Y227930D01*
X-25119Y227918D01*
X-25156Y227911D01*
X-25181Y227905D01*
X-25194Y227899D01*
X-25200D01*
X-25400Y227849D01*
X-25587Y227805D01*
X-25756Y227755D01*
X-25900Y227712D01*
X-26037Y227668D01*
X-26156Y227624D01*
X-26256Y227580D01*
X-26343Y227543D01*
X-26425Y227505D01*
X-26487Y227468D01*
X-26537Y227443D01*
X-26574Y227418D01*
X-26606Y227393D01*
X-26631Y227380D01*
X-26637Y227374D01*
X-26643Y227368D01*
X-26700Y227312D01*
X-26749Y227262D01*
X-26787Y227205D01*
X-26824Y227149D01*
X-26881Y227043D01*
X-26918Y226943D01*
X-26937Y226856D01*
X-26949Y226793D01*
X-26956Y226768D01*
Y226749D01*
Y226737D01*
Y226731D01*
X-26949Y226662D01*
X-26943Y226593D01*
X-26906Y226468D01*
X-26849Y226356D01*
X-26793Y226262D01*
X-26731Y226181D01*
X-26674Y226124D01*
X-26637Y226087D01*
X-26631Y226081D01*
X-26625Y226075D01*
X-26562Y226024D01*
X-26493Y225981D01*
X-26343Y225912D01*
X-26187Y225862D01*
X-26037Y225831D01*
X-25968Y225818D01*
X-25900Y225806D01*
X-25843Y225800D01*
X-25793D01*
X-25750Y225793D01*
X-25694D01*
X-25550Y225800D01*
X-25406Y225818D01*
X-25281Y225843D01*
X-25162Y225881D01*
X-25050Y225918D01*
X-24944Y225968D01*
X-24856Y226018D01*
X-24769Y226068D01*
X-24694Y226118D01*
X-24631Y226168D01*
X-24575Y226218D01*
X-24531Y226256D01*
X-24494Y226293D01*
X-24469Y226318D01*
X-24456Y226337D01*
X-24450Y226343D01*
X-24400Y226412D01*
X-24356Y226487D01*
X-24281Y226643D01*
X-24219Y226812D01*
X-24175Y226974D01*
X-24156Y227049D01*
X-24138Y227118D01*
X-24125Y227180D01*
X-24119Y227237D01*
X-24113Y227280D01*
X-24106Y227312D01*
X-24100Y227337D01*
Y227343D01*
X-21413Y227174D01*
X-21445Y226918D01*
X-21488Y226681D01*
X-21551Y226449D01*
X-21620Y226231D01*
X-21701Y226031D01*
X-21782Y225843D01*
X-21869Y225668D01*
X-21963Y225512D01*
X-22051Y225375D01*
X-22138Y225250D01*
X-22213Y225144D01*
X-22282Y225056D01*
X-22344Y224987D01*
X-22388Y224937D01*
X-22413Y224906D01*
X-22426Y224893D01*
X-22513Y224812D01*
X-22613Y224737D01*
X-22713Y224662D01*
X-22826Y224600D01*
X-23057Y224481D01*
X-23307Y224375D01*
X-23575Y224287D01*
X-23844Y224219D01*
X-24113Y224156D01*
X-24375Y224112D01*
X-24631Y224075D01*
X-24869Y224050D01*
X-24981Y224037D01*
X-25081Y224025D01*
X-25181Y224019D01*
X-25275Y224013D01*
X-25356D01*
X-25431Y224006D01*
X-25494D01*
X-25550Y224000D01*
X-25650D01*
X-25893Y224006D01*
X-26125Y224019D01*
X-26350Y224037D01*
X-26556Y224062D01*
X-26749Y224088D01*
X-26931Y224119D01*
X-27099Y224156D01*
X-27249Y224194D01*
X-27387Y224225D01*
X-27506Y224262D01*
X-27606Y224294D01*
X-27693Y224325D01*
X-27762Y224344D01*
X-27812Y224362D01*
X-27837Y224375D01*
X-27849Y224381D01*
X-28012Y224456D01*
X-28162Y224537D01*
X-28299Y224625D01*
X-28430Y224719D01*
X-28555Y224812D01*
X-28668Y224906D01*
X-28768Y225000D01*
X-28861Y225087D01*
X-28943Y225175D01*
X-29011Y225250D01*
X-29074Y225325D01*
X-29124Y225381D01*
X-29161Y225437D01*
X-29186Y225475D01*
X-29205Y225500D01*
X-29211Y225506D01*
X-29299Y225650D01*
X-29374Y225787D01*
X-29436Y225931D01*
X-29492Y226075D01*
X-29543Y226212D01*
X-29580Y226343D01*
X-29611Y226474D01*
X-29636Y226593D01*
X-29655Y226706D01*
X-29674Y226805D01*
X-29686Y226899D01*
X-29692Y226974D01*
X-29699Y227037D01*
Y227087D01*
Y227112D01*
Y227124D01*
X-29692Y227262D01*
X-29680Y227399D01*
X-29667Y227530D01*
X-29643Y227649D01*
X-29611Y227768D01*
X-29580Y227880D01*
X-29549Y227987D01*
X-29518Y228080D01*
X-29480Y228168D01*
X-29449Y228243D01*
X-29418Y228311D01*
X-29386Y228368D01*
X-29361Y228411D01*
X-29349Y228449D01*
X-29336Y228468D01*
X-29330Y228474D01*
X-29255Y228586D01*
X-29174Y228693D01*
X-29086Y228792D01*
X-28999Y228886D01*
X-28899Y228980D01*
X-28805Y229061D01*
X-28705Y229136D01*
X-28612Y229205D01*
X-28524Y229267D01*
X-28443Y229324D01*
X-28361Y229374D01*
X-28299Y229411D01*
X-28243Y229442D01*
X-28205Y229467D01*
X-28174Y229480D01*
X-28168Y229486D01*
X-28005Y229561D01*
X-27824Y229642D01*
X-27624Y229717D01*
X-27418Y229786D01*
X-27199Y229855D01*
X-26981Y229923D01*
X-26756Y229986D01*
X-26543Y230049D01*
X-26337Y230098D01*
X-26143Y230148D01*
X-25975Y230192D01*
X-25893Y230211D01*
X-25818Y230230D01*
X-25756Y230242D01*
X-25694Y230261D01*
X-25643Y230273D01*
X-25600Y230280D01*
X-25562Y230286D01*
X-25537Y230292D01*
X-25525Y230298D01*
X-25519D01*
X-25387Y230330D01*
X-25262Y230361D01*
X-25150Y230386D01*
X-25056Y230417D01*
X-24969Y230448D01*
X-24887Y230473D01*
X-24819Y230498D01*
X-24762Y230523D01*
X-24713Y230548D01*
X-24669Y230573D01*
X-24637Y230592D01*
X-24613Y230605D01*
X-24594Y230617D01*
X-24581Y230630D01*
X-24569Y230636D01*
X-24500Y230704D01*
X-24456Y230773D01*
X-24419Y230836D01*
X-24394Y230898D01*
X-24381Y230948D01*
X-24375Y230992D01*
X-24369Y231017D01*
Y231029D01*
X-24381Y231136D01*
X-24406Y231236D01*
X-24444Y231323D01*
X-24494Y231398D01*
X-24537Y231454D01*
X-24575Y231498D01*
X-24600Y231529D01*
X-24613Y231536D01*
X-24719Y231604D01*
X-24837Y231660D01*
X-24956Y231698D01*
X-25081Y231723D01*
X-25187Y231735D01*
X-25231Y231742D01*
X-25275Y231748D01*
X-25462D01*
X-25568Y231735D01*
X-25662Y231723D01*
X-25750Y231704D01*
X-25837Y231686D01*
X-25912Y231660D01*
X-25981Y231636D01*
X-26043Y231611D01*
X-26100Y231579D01*
X-26150Y231554D01*
X-26193Y231529D01*
X-26225Y231511D01*
X-26250Y231492D01*
X-26275Y231479D01*
X-26281Y231473D01*
X-26287Y231467D01*
X-26350Y231411D01*
X-26406Y231348D01*
X-26500Y231211D01*
X-26581Y231061D01*
X-26643Y230911D01*
X-26687Y230779D01*
X-26700Y230717D01*
X-26718Y230667D01*
X-26725Y230623D01*
X-26731Y230592D01*
X-26737Y230573D01*
Y230567D01*
X-29399Y230723D01*
X-29355Y230979D01*
X-29299Y231217D01*
X-29230Y231442D01*
X-29155Y231648D01*
X-29068Y231829D01*
X-28974Y232004D01*
X-28880Y232154D01*
X-28786Y232292D01*
X-28693Y232410D01*
X-28605Y232510D01*
X-28524Y232598D01*
X-28449Y232666D01*
X-28393Y232723D01*
X-28343Y232760D01*
X-28318Y232785D01*
X-28305Y232792D01*
X-28124Y232910D01*
X-27924Y233010D01*
X-27718Y233098D01*
X-27499Y233173D01*
X-27281Y233235D01*
X-27056Y233285D01*
X-26837Y233329D01*
X-26625Y233366D01*
X-26425Y233391D01*
X-26237Y233410D01*
X-26068Y233429D01*
X-25987Y233435D01*
X-25918D01*
X-25856Y233441D01*
X-25800D01*
X-25750Y233448D01*
X-25631D01*
X-25369Y233441D01*
D02*
G37*
G36*
X4003Y250656D02*
X1347D01*
Y255661D01*
X-2064Y250656D01*
X-4726D01*
Y259791D01*
X-2064D01*
Y254743D01*
X1366Y259791D01*
X4003D01*
Y250656D01*
D02*
G37*
G36*
X10370Y259941D02*
X10639Y259929D01*
X10895Y259904D01*
X11132Y259879D01*
X11357Y259848D01*
X11563Y259810D01*
X11751Y259766D01*
X11919Y259729D01*
X12069Y259685D01*
X12207Y259641D01*
X12319Y259604D01*
X12413Y259573D01*
X12488Y259548D01*
X12538Y259523D01*
X12569Y259510D01*
X12582Y259504D01*
X12801Y259391D01*
X13001Y259266D01*
X13188Y259135D01*
X13363Y258998D01*
X13525Y258860D01*
X13675Y258717D01*
X13807Y258579D01*
X13931Y258448D01*
X14038Y258323D01*
X14131Y258204D01*
X14206Y258098D01*
X14275Y258004D01*
X14325Y257929D01*
X14356Y257873D01*
X14381Y257836D01*
X14388Y257829D01*
Y257823D01*
X14494Y257611D01*
X14588Y257392D01*
X14669Y257173D01*
X14744Y256948D01*
X14800Y256730D01*
X14850Y256517D01*
X14894Y256305D01*
X14925Y256111D01*
X14950Y255924D01*
X14969Y255755D01*
X14981Y255605D01*
X14987Y255474D01*
X14994Y255417D01*
Y255368D01*
X15000Y255324D01*
Y255292D01*
Y255261D01*
Y255243D01*
Y255230D01*
Y255224D01*
X14994Y254961D01*
X14975Y254705D01*
X14950Y254461D01*
X14913Y254230D01*
X14869Y254005D01*
X14819Y253799D01*
X14769Y253605D01*
X14719Y253431D01*
X14669Y253268D01*
X14612Y253124D01*
X14569Y252999D01*
X14525Y252893D01*
X14488Y252812D01*
X14463Y252749D01*
X14444Y252712D01*
X14438Y252706D01*
Y252699D01*
X14325Y252500D01*
X14206Y252312D01*
X14081Y252143D01*
X13950Y251981D01*
X13819Y251831D01*
X13688Y251700D01*
X13557Y251575D01*
X13432Y251462D01*
X13313Y251369D01*
X13207Y251281D01*
X13107Y251212D01*
X13019Y251156D01*
X12951Y251106D01*
X12894Y251075D01*
X12863Y251056D01*
X12851Y251050D01*
X12651Y250956D01*
X12444Y250869D01*
X12226Y250794D01*
X12007Y250731D01*
X11782Y250681D01*
X11563Y250637D01*
X11345Y250600D01*
X11138Y250569D01*
X10945Y250544D01*
X10770Y250531D01*
X10607Y250519D01*
X10539Y250513D01*
X10470Y250506D01*
X10357D01*
X10314Y250500D01*
X10201D01*
X9958Y250506D01*
X9726Y250513D01*
X9501Y250531D01*
X9289Y250550D01*
X9089Y250569D01*
X8902Y250600D01*
X8727Y250625D01*
X8564Y250656D01*
X8420Y250681D01*
X8295Y250713D01*
X8183Y250737D01*
X8089Y250756D01*
X8020Y250781D01*
X7964Y250794D01*
X7933Y250800D01*
X7921Y250806D01*
X7739Y250869D01*
X7546Y250944D01*
X7358Y251025D01*
X7171Y251119D01*
X6977Y251212D01*
X6796Y251306D01*
X6621Y251406D01*
X6452Y251500D01*
X6296Y251593D01*
X6152Y251681D01*
X6021Y251762D01*
X5915Y251831D01*
X5827Y251887D01*
X5759Y251931D01*
X5734Y251950D01*
X5715Y251956D01*
X5709Y251968D01*
X5702D01*
Y255861D01*
X10064D01*
Y253962D01*
X8177D01*
Y253099D01*
X8377Y252987D01*
X8564Y252887D01*
X8733Y252806D01*
X8808Y252774D01*
X8877Y252743D01*
X8939Y252712D01*
X8995Y252693D01*
X9045Y252675D01*
X9089Y252656D01*
X9120Y252643D01*
X9145Y252637D01*
X9158Y252631D01*
X9164D01*
X9326Y252587D01*
X9483Y252556D01*
X9633Y252531D01*
X9770Y252518D01*
X9833Y252512D01*
X9889Y252506D01*
X9939D01*
X9983Y252500D01*
X10064D01*
X10245Y252506D01*
X10414Y252525D01*
X10576Y252556D01*
X10726Y252600D01*
X10863Y252643D01*
X10989Y252699D01*
X11107Y252756D01*
X11213Y252818D01*
X11301Y252874D01*
X11382Y252931D01*
X11451Y252987D01*
X11513Y253031D01*
X11557Y253074D01*
X11588Y253106D01*
X11607Y253124D01*
X11613Y253131D01*
X11713Y253262D01*
X11795Y253405D01*
X11869Y253562D01*
X11932Y253730D01*
X11988Y253905D01*
X12032Y254080D01*
X12069Y254255D01*
X12101Y254430D01*
X12126Y254593D01*
X12138Y254749D01*
X12151Y254886D01*
X12163Y255005D01*
Y255105D01*
X12169Y255149D01*
Y255186D01*
Y255211D01*
Y255230D01*
Y255243D01*
Y255249D01*
X12163Y255505D01*
X12144Y255736D01*
X12119Y255955D01*
X12082Y256161D01*
X12045Y256342D01*
X11995Y256511D01*
X11945Y256661D01*
X11895Y256798D01*
X11845Y256911D01*
X11795Y257017D01*
X11745Y257098D01*
X11707Y257167D01*
X11669Y257223D01*
X11645Y257261D01*
X11626Y257286D01*
X11620Y257292D01*
X11513Y257404D01*
X11401Y257505D01*
X11282Y257592D01*
X11157Y257667D01*
X11032Y257729D01*
X10913Y257786D01*
X10789Y257829D01*
X10676Y257861D01*
X10570Y257886D01*
X10464Y257911D01*
X10376Y257923D01*
X10295Y257929D01*
X10232Y257936D01*
X10182Y257942D01*
X10033D01*
X9926Y257929D01*
X9726Y257898D01*
X9633Y257879D01*
X9551Y257854D01*
X9476Y257829D01*
X9401Y257804D01*
X9339Y257779D01*
X9283Y257754D01*
X9239Y257729D01*
X9201Y257711D01*
X9170Y257692D01*
X9145Y257679D01*
X9133Y257673D01*
X9126Y257667D01*
X8983Y257554D01*
X8864Y257430D01*
X8764Y257298D01*
X8689Y257167D01*
X8627Y257055D01*
X8602Y257005D01*
X8583Y256961D01*
X8570Y256923D01*
X8558Y256898D01*
X8552Y256880D01*
Y256873D01*
X5827Y257361D01*
X5877Y257523D01*
X5933Y257679D01*
X5990Y257823D01*
X6052Y257961D01*
X6115Y258092D01*
X6177Y258211D01*
X6233Y258317D01*
X6296Y258417D01*
X6352Y258510D01*
X6408Y258585D01*
X6452Y258654D01*
X6496Y258710D01*
X6527Y258760D01*
X6552Y258792D01*
X6571Y258810D01*
X6577Y258817D01*
X6671Y258923D01*
X6771Y259023D01*
X6877Y259110D01*
X6977Y259198D01*
X7083Y259273D01*
X7189Y259342D01*
X7289Y259404D01*
X7383Y259460D01*
X7477Y259510D01*
X7558Y259554D01*
X7633Y259591D01*
X7696Y259623D01*
X7746Y259641D01*
X7789Y259660D01*
X7814Y259673D01*
X7821D01*
X7970Y259723D01*
X8133Y259766D01*
X8308Y259798D01*
X8489Y259829D01*
X8864Y259879D01*
X9051Y259898D01*
X9233Y259916D01*
X9401Y259923D01*
X9564Y259935D01*
X9707Y259941D01*
X9833D01*
X9889Y259948D01*
X10082D01*
X10370Y259941D01*
D02*
G37*
G36*
X-6644Y250656D02*
X-10831D01*
X-11118Y250669D01*
X-11412Y250694D01*
X-11693Y250731D01*
X-11831Y250756D01*
X-11956Y250781D01*
X-12074Y250800D01*
X-12181Y250825D01*
X-12274Y250844D01*
X-12356Y250862D01*
X-12424Y250875D01*
X-12468Y250887D01*
X-12499Y250900D01*
X-12512D01*
X-12637Y250937D01*
X-12762Y250981D01*
X-12999Y251087D01*
X-13105Y251150D01*
X-13212Y251206D01*
X-13312Y251269D01*
X-13399Y251331D01*
X-13486Y251387D01*
X-13562Y251444D01*
X-13624Y251493D01*
X-13680Y251537D01*
X-13724Y251575D01*
X-13755Y251600D01*
X-13774Y251618D01*
X-13780Y251625D01*
X-13886Y251731D01*
X-13993Y251843D01*
X-14086Y251956D01*
X-14174Y252068D01*
X-14255Y252181D01*
X-14336Y252293D01*
X-14405Y252406D01*
X-14468Y252512D01*
X-14524Y252606D01*
X-14568Y252699D01*
X-14611Y252774D01*
X-14642Y252849D01*
X-14674Y252906D01*
X-14692Y252943D01*
X-14699Y252974D01*
X-14705Y252981D01*
X-14767Y253137D01*
X-14817Y253312D01*
X-14861Y253487D01*
X-14899Y253674D01*
X-14961Y254055D01*
X-14980Y254237D01*
X-14999Y254418D01*
X-15017Y254587D01*
X-15024Y254743D01*
X-15030Y254886D01*
X-15036Y255005D01*
X-15042Y255111D01*
Y255149D01*
Y255186D01*
Y255211D01*
Y255230D01*
Y255243D01*
Y255249D01*
X-15030Y255592D01*
X-15024Y255761D01*
X-15005Y255924D01*
X-14992Y256074D01*
X-14974Y256217D01*
X-14949Y256355D01*
X-14930Y256486D01*
X-14911Y256598D01*
X-14886Y256705D01*
X-14867Y256798D01*
X-14855Y256873D01*
X-14836Y256936D01*
X-14830Y256980D01*
X-14817Y257011D01*
Y257017D01*
X-14774Y257173D01*
X-14724Y257323D01*
X-14668Y257461D01*
X-14611Y257598D01*
X-14549Y257729D01*
X-14492Y257848D01*
X-14430Y257961D01*
X-14374Y258067D01*
X-14318Y258160D01*
X-14261Y258242D01*
X-14218Y258317D01*
X-14174Y258373D01*
X-14143Y258423D01*
X-14118Y258454D01*
X-14099Y258479D01*
X-14093Y258486D01*
X-13999Y258598D01*
X-13893Y258710D01*
X-13793Y258810D01*
X-13686Y258904D01*
X-13580Y258992D01*
X-13474Y259067D01*
X-13374Y259142D01*
X-13274Y259204D01*
X-13180Y259266D01*
X-13099Y259317D01*
X-13024Y259354D01*
X-12955Y259391D01*
X-12905Y259417D01*
X-12862Y259442D01*
X-12837Y259448D01*
X-12830Y259454D01*
X-12680Y259516D01*
X-12524Y259566D01*
X-12362Y259610D01*
X-12199Y259648D01*
X-11862Y259710D01*
X-11700Y259729D01*
X-11543Y259748D01*
X-11400Y259766D01*
X-11262Y259773D01*
X-11143Y259779D01*
X-11037Y259785D01*
X-10950Y259791D01*
X-6644D01*
Y250656D01*
D02*
G37*
G36*
X47095Y245691D02*
X47363Y245673D01*
X47613Y245641D01*
X47844Y245604D01*
X48063Y245554D01*
X48257Y245504D01*
X48438Y245448D01*
X48600Y245391D01*
X48744Y245335D01*
X48869Y245279D01*
X48975Y245229D01*
X49063Y245179D01*
X49132Y245142D01*
X49181Y245110D01*
X49207Y245091D01*
X49219Y245085D01*
X49369Y244967D01*
X49513Y244835D01*
X49638Y244698D01*
X49756Y244554D01*
X49863Y244404D01*
X49956Y244261D01*
X50038Y244117D01*
X50106Y243979D01*
X50169Y243848D01*
X50225Y243723D01*
X50269Y243611D01*
X50300Y243517D01*
X50331Y243442D01*
X50350Y243379D01*
X50356Y243342D01*
X50363Y243336D01*
Y243330D01*
X47963Y242898D01*
X47944Y243023D01*
X47919Y243136D01*
X47894Y243242D01*
X47863Y243336D01*
X47832Y243423D01*
X47801Y243498D01*
X47769Y243567D01*
X47738Y243629D01*
X47713Y243679D01*
X47682Y243729D01*
X47657Y243767D01*
X47632Y243798D01*
X47613Y243817D01*
X47601Y243836D01*
X47588Y243848D01*
X47532Y243898D01*
X47476Y243942D01*
X47357Y244004D01*
X47232Y244054D01*
X47120Y244092D01*
X47020Y244111D01*
X46976Y244117D01*
X46938D01*
X46907Y244123D01*
X46863D01*
X46707Y244111D01*
X46570Y244086D01*
X46451Y244042D01*
X46357Y243998D01*
X46276Y243954D01*
X46220Y243911D01*
X46189Y243886D01*
X46176Y243873D01*
X46095Y243773D01*
X46032Y243661D01*
X45989Y243554D01*
X45957Y243448D01*
X45939Y243348D01*
X45932Y243311D01*
Y243273D01*
X45926Y243242D01*
Y243223D01*
Y243211D01*
Y243204D01*
X45932Y243123D01*
X45939Y243048D01*
X45976Y242905D01*
X46032Y242773D01*
X46095Y242661D01*
X46157Y242573D01*
X46182Y242536D01*
X46213Y242505D01*
X46232Y242480D01*
X46251Y242461D01*
X46257Y242455D01*
X46263Y242448D01*
X46326Y242392D01*
X46395Y242342D01*
X46463Y242299D01*
X46532Y242267D01*
X46670Y242205D01*
X46801Y242167D01*
X46913Y242148D01*
X46963Y242142D01*
X47007Y242136D01*
X47038Y242130D01*
X47138D01*
X47188Y242136D01*
X47301Y242148D01*
X47344D01*
X47382Y242155D01*
X47407Y242161D01*
X47420D01*
X47544Y240349D01*
X47363Y240399D01*
X47194Y240436D01*
X47057Y240461D01*
X46938Y240480D01*
X46888Y240486D01*
X46851Y240493D01*
X46813D01*
X46782Y240499D01*
X46726D01*
X46626Y240493D01*
X46526Y240486D01*
X46351Y240443D01*
X46201Y240387D01*
X46139Y240355D01*
X46076Y240324D01*
X46026Y240293D01*
X45976Y240261D01*
X45939Y240230D01*
X45901Y240205D01*
X45876Y240180D01*
X45857Y240161D01*
X45851Y240155D01*
X45845Y240149D01*
X45789Y240080D01*
X45732Y240005D01*
X45689Y239930D01*
X45651Y239849D01*
X45595Y239680D01*
X45557Y239524D01*
X45539Y239449D01*
X45532Y239380D01*
X45526Y239318D01*
X45520Y239268D01*
X45514Y239224D01*
Y239193D01*
Y239168D01*
Y239162D01*
X45520Y239049D01*
X45526Y238937D01*
X45545Y238837D01*
X45570Y238743D01*
X45595Y238656D01*
X45620Y238568D01*
X45651Y238493D01*
X45682Y238431D01*
X45720Y238368D01*
X45751Y238312D01*
X45776Y238268D01*
X45801Y238231D01*
X45826Y238200D01*
X45845Y238181D01*
X45851Y238168D01*
X45857Y238162D01*
X45920Y238099D01*
X45989Y238043D01*
X46064Y237993D01*
X46132Y237950D01*
X46201Y237912D01*
X46276Y237881D01*
X46407Y237837D01*
X46526Y237812D01*
X46576Y237806D01*
X46620Y237800D01*
X46657Y237793D01*
X46707D01*
X46795Y237800D01*
X46882Y237806D01*
X47032Y237837D01*
X47170Y237887D01*
X47288Y237943D01*
X47382Y237993D01*
X47420Y238018D01*
X47451Y238043D01*
X47476Y238062D01*
X47495Y238075D01*
X47501Y238087D01*
X47507D01*
X47563Y238150D01*
X47613Y238218D01*
X47663Y238300D01*
X47707Y238381D01*
X47788Y238556D01*
X47851Y238737D01*
X47876Y238818D01*
X47901Y238899D01*
X47919Y238968D01*
X47938Y239031D01*
X47951Y239081D01*
X47957Y239124D01*
X47963Y239149D01*
Y239156D01*
X50500Y238818D01*
X50450Y238662D01*
X50400Y238512D01*
X50344Y238368D01*
X50287Y238237D01*
X50225Y238106D01*
X50169Y237993D01*
X50113Y237881D01*
X50056Y237787D01*
X50000Y237700D01*
X49950Y237618D01*
X49906Y237550D01*
X49869Y237493D01*
X49838Y237450D01*
X49813Y237418D01*
X49800Y237400D01*
X49794Y237393D01*
X49700Y237293D01*
X49606Y237194D01*
X49513Y237106D01*
X49413Y237025D01*
X49313Y236944D01*
X49213Y236875D01*
X49119Y236812D01*
X49025Y236756D01*
X48938Y236706D01*
X48857Y236662D01*
X48788Y236625D01*
X48725Y236594D01*
X48675Y236569D01*
X48638Y236550D01*
X48613Y236544D01*
X48607Y236537D01*
X48463Y236488D01*
X48313Y236444D01*
X48157Y236406D01*
X47994Y236369D01*
X47669Y236319D01*
X47507Y236300D01*
X47357Y236287D01*
X47213Y236275D01*
X47076Y236262D01*
X46957Y236256D01*
X46851D01*
X46763Y236250D01*
X46645D01*
X46407Y236256D01*
X46189Y236269D01*
X45976Y236287D01*
X45782Y236313D01*
X45601Y236344D01*
X45426Y236375D01*
X45276Y236413D01*
X45133Y236450D01*
X45008Y236481D01*
X44895Y236519D01*
X44801Y236550D01*
X44726Y236581D01*
X44664Y236606D01*
X44620Y236625D01*
X44589Y236637D01*
X44583Y236644D01*
X44439Y236719D01*
X44302Y236806D01*
X44177Y236894D01*
X44064Y236987D01*
X43952Y237081D01*
X43858Y237175D01*
X43764Y237262D01*
X43683Y237356D01*
X43614Y237437D01*
X43552Y237518D01*
X43495Y237587D01*
X43452Y237650D01*
X43421Y237700D01*
X43396Y237737D01*
X43383Y237762D01*
X43377Y237768D01*
X43302Y237906D01*
X43239Y238043D01*
X43183Y238181D01*
X43133Y238318D01*
X43096Y238449D01*
X43058Y238574D01*
X43033Y238693D01*
X43008Y238806D01*
X42996Y238912D01*
X42983Y239006D01*
X42971Y239093D01*
X42964Y239162D01*
X42958Y239218D01*
Y239262D01*
Y239293D01*
Y239299D01*
X42971Y239530D01*
X42996Y239737D01*
X43014Y239837D01*
X43039Y239924D01*
X43064Y240012D01*
X43083Y240086D01*
X43108Y240155D01*
X43133Y240218D01*
X43152Y240268D01*
X43177Y240312D01*
X43189Y240349D01*
X43202Y240374D01*
X43214Y240387D01*
Y240393D01*
X43314Y240555D01*
X43427Y240699D01*
X43545Y240824D01*
X43658Y240930D01*
X43764Y241018D01*
X43808Y241049D01*
X43845Y241080D01*
X43877Y241099D01*
X43902Y241117D01*
X43914Y241130D01*
X43920D01*
X44033Y241192D01*
X44164Y241255D01*
X44302Y241305D01*
X44433Y241349D01*
X44552Y241386D01*
X44601Y241399D01*
X44645Y241411D01*
X44683Y241424D01*
X44708Y241430D01*
X44726Y241436D01*
X44733D01*
X44614Y241505D01*
X44502Y241574D01*
X44395Y241649D01*
X44302Y241717D01*
X44214Y241792D01*
X44133Y241861D01*
X44064Y241930D01*
X43995Y241992D01*
X43939Y242048D01*
X43889Y242105D01*
X43845Y242155D01*
X43814Y242192D01*
X43783Y242230D01*
X43764Y242255D01*
X43758Y242267D01*
X43752Y242274D01*
X43695Y242367D01*
X43646Y242461D01*
X43602Y242548D01*
X43564Y242642D01*
X43508Y242823D01*
X43464Y242992D01*
X43452Y243067D01*
X43446Y243136D01*
X43439Y243198D01*
X43433Y243248D01*
X43427Y243292D01*
Y243323D01*
Y243342D01*
Y243348D01*
X43433Y243536D01*
X43458Y243711D01*
X43502Y243879D01*
X43552Y244035D01*
X43614Y244186D01*
X43677Y244323D01*
X43752Y244454D01*
X43827Y244567D01*
X43902Y244673D01*
X43970Y244767D01*
X44039Y244842D01*
X44102Y244910D01*
X44152Y244960D01*
X44189Y244998D01*
X44220Y245023D01*
X44227Y245029D01*
X44389Y245148D01*
X44570Y245248D01*
X44764Y245341D01*
X44970Y245416D01*
X45183Y245479D01*
X45395Y245535D01*
X45614Y245579D01*
X45820Y245616D01*
X46020Y245641D01*
X46207Y245660D01*
X46376Y245679D01*
X46451Y245685D01*
X46520D01*
X46589Y245691D01*
X46645D01*
X46695Y245698D01*
X46813D01*
X47095Y245691D01*
D02*
G37*
G36*
X28656D02*
X28924Y245673D01*
X29174Y245641D01*
X29405Y245604D01*
X29624Y245554D01*
X29818Y245504D01*
X29999Y245448D01*
X30161Y245391D01*
X30305Y245335D01*
X30430Y245279D01*
X30536Y245229D01*
X30624Y245179D01*
X30693Y245142D01*
X30742Y245110D01*
X30768Y245091D01*
X30780Y245085D01*
X30930Y244967D01*
X31074Y244835D01*
X31199Y244698D01*
X31317Y244554D01*
X31424Y244404D01*
X31517Y244261D01*
X31598Y244117D01*
X31667Y243979D01*
X31730Y243848D01*
X31786Y243723D01*
X31830Y243611D01*
X31861Y243517D01*
X31892Y243442D01*
X31911Y243379D01*
X31917Y243342D01*
X31923Y243336D01*
Y243330D01*
X29524Y242898D01*
X29505Y243023D01*
X29480Y243136D01*
X29455Y243242D01*
X29424Y243336D01*
X29393Y243423D01*
X29362Y243498D01*
X29330Y243567D01*
X29299Y243629D01*
X29274Y243679D01*
X29243Y243729D01*
X29218Y243767D01*
X29193Y243798D01*
X29174Y243817D01*
X29162Y243836D01*
X29149Y243848D01*
X29093Y243898D01*
X29037Y243942D01*
X28918Y244004D01*
X28793Y244054D01*
X28681Y244092D01*
X28581Y244111D01*
X28537Y244117D01*
X28499D01*
X28468Y244123D01*
X28424D01*
X28268Y244111D01*
X28131Y244086D01*
X28012Y244042D01*
X27918Y243998D01*
X27837Y243954D01*
X27781Y243911D01*
X27750Y243886D01*
X27737Y243873D01*
X27656Y243773D01*
X27593Y243661D01*
X27550Y243554D01*
X27518Y243448D01*
X27500Y243348D01*
X27493Y243311D01*
Y243273D01*
X27487Y243242D01*
Y243223D01*
Y243211D01*
Y243204D01*
X27493Y243123D01*
X27500Y243048D01*
X27537Y242905D01*
X27593Y242773D01*
X27656Y242661D01*
X27718Y242573D01*
X27743Y242536D01*
X27775Y242505D01*
X27793Y242480D01*
X27812Y242461D01*
X27818Y242455D01*
X27824Y242448D01*
X27887Y242392D01*
X27956Y242342D01*
X28024Y242299D01*
X28093Y242267D01*
X28231Y242205D01*
X28362Y242167D01*
X28474Y242148D01*
X28524Y242142D01*
X28568Y242136D01*
X28599Y242130D01*
X28699D01*
X28749Y242136D01*
X28862Y242148D01*
X28905D01*
X28943Y242155D01*
X28968Y242161D01*
X28981D01*
X29105Y240349D01*
X28924Y240399D01*
X28756Y240436D01*
X28618Y240461D01*
X28499Y240480D01*
X28449Y240486D01*
X28412Y240493D01*
X28374D01*
X28343Y240499D01*
X28287D01*
X28187Y240493D01*
X28087Y240486D01*
X27912Y240443D01*
X27762Y240387D01*
X27699Y240355D01*
X27637Y240324D01*
X27587Y240293D01*
X27537Y240261D01*
X27500Y240230D01*
X27462Y240205D01*
X27437Y240180D01*
X27418Y240161D01*
X27412Y240155D01*
X27406Y240149D01*
X27350Y240080D01*
X27293Y240005D01*
X27250Y239930D01*
X27212Y239849D01*
X27156Y239680D01*
X27118Y239524D01*
X27100Y239449D01*
X27093Y239380D01*
X27087Y239318D01*
X27081Y239268D01*
X27075Y239224D01*
Y239193D01*
Y239168D01*
Y239162D01*
X27081Y239049D01*
X27087Y238937D01*
X27106Y238837D01*
X27131Y238743D01*
X27156Y238656D01*
X27181Y238568D01*
X27212Y238493D01*
X27243Y238431D01*
X27281Y238368D01*
X27312Y238312D01*
X27337Y238268D01*
X27362Y238231D01*
X27387Y238200D01*
X27406Y238181D01*
X27412Y238168D01*
X27418Y238162D01*
X27481Y238099D01*
X27550Y238043D01*
X27625Y237993D01*
X27693Y237950D01*
X27762Y237912D01*
X27837Y237881D01*
X27968Y237837D01*
X28087Y237812D01*
X28137Y237806D01*
X28181Y237800D01*
X28218Y237793D01*
X28268D01*
X28356Y237800D01*
X28443Y237806D01*
X28593Y237837D01*
X28730Y237887D01*
X28849Y237943D01*
X28943Y237993D01*
X28981Y238018D01*
X29012Y238043D01*
X29037Y238062D01*
X29055Y238075D01*
X29062Y238087D01*
X29068D01*
X29124Y238150D01*
X29174Y238218D01*
X29224Y238300D01*
X29268Y238381D01*
X29349Y238556D01*
X29412Y238737D01*
X29437Y238818D01*
X29462Y238899D01*
X29480Y238968D01*
X29499Y239031D01*
X29512Y239081D01*
X29518Y239124D01*
X29524Y239149D01*
Y239156D01*
X32061Y238818D01*
X32011Y238662D01*
X31961Y238512D01*
X31905Y238368D01*
X31848Y238237D01*
X31786Y238106D01*
X31730Y237993D01*
X31674Y237881D01*
X31617Y237787D01*
X31561Y237700D01*
X31511Y237618D01*
X31467Y237550D01*
X31430Y237493D01*
X31399Y237450D01*
X31374Y237418D01*
X31361Y237400D01*
X31355Y237393D01*
X31261Y237293D01*
X31167Y237194D01*
X31074Y237106D01*
X30974Y237025D01*
X30874Y236944D01*
X30774Y236875D01*
X30680Y236812D01*
X30586Y236756D01*
X30499Y236706D01*
X30418Y236662D01*
X30349Y236625D01*
X30286Y236594D01*
X30236Y236569D01*
X30199Y236550D01*
X30174Y236544D01*
X30168Y236537D01*
X30024Y236488D01*
X29874Y236444D01*
X29718Y236406D01*
X29555Y236369D01*
X29230Y236319D01*
X29068Y236300D01*
X28918Y236287D01*
X28774Y236275D01*
X28637Y236262D01*
X28518Y236256D01*
X28412D01*
X28324Y236250D01*
X28206D01*
X27968Y236256D01*
X27750Y236269D01*
X27537Y236287D01*
X27343Y236313D01*
X27162Y236344D01*
X26987Y236375D01*
X26837Y236413D01*
X26693Y236450D01*
X26569Y236481D01*
X26456Y236519D01*
X26362Y236550D01*
X26287Y236581D01*
X26225Y236606D01*
X26181Y236625D01*
X26150Y236637D01*
X26144Y236644D01*
X26000Y236719D01*
X25863Y236806D01*
X25738Y236894D01*
X25625Y236987D01*
X25513Y237081D01*
X25419Y237175D01*
X25325Y237262D01*
X25244Y237356D01*
X25175Y237437D01*
X25113Y237518D01*
X25057Y237587D01*
X25013Y237650D01*
X24982Y237700D01*
X24957Y237737D01*
X24944Y237762D01*
X24938Y237768D01*
X24863Y237906D01*
X24800Y238043D01*
X24744Y238181D01*
X24694Y238318D01*
X24657Y238449D01*
X24619Y238574D01*
X24594Y238693D01*
X24569Y238806D01*
X24557Y238912D01*
X24544Y239006D01*
X24532Y239093D01*
X24525Y239162D01*
X24519Y239218D01*
Y239262D01*
Y239293D01*
Y239299D01*
X24532Y239530D01*
X24557Y239737D01*
X24575Y239837D01*
X24600Y239924D01*
X24625Y240012D01*
X24644Y240086D01*
X24669Y240155D01*
X24694Y240218D01*
X24713Y240268D01*
X24738Y240312D01*
X24750Y240349D01*
X24763Y240374D01*
X24775Y240387D01*
Y240393D01*
X24875Y240555D01*
X24988Y240699D01*
X25106Y240824D01*
X25219Y240930D01*
X25325Y241018D01*
X25369Y241049D01*
X25406Y241080D01*
X25438Y241099D01*
X25463Y241117D01*
X25475Y241130D01*
X25481D01*
X25594Y241192D01*
X25725Y241255D01*
X25863Y241305D01*
X25994Y241349D01*
X26112Y241386D01*
X26162Y241399D01*
X26206Y241411D01*
X26244Y241424D01*
X26269Y241430D01*
X26287Y241436D01*
X26294D01*
X26175Y241505D01*
X26063Y241574D01*
X25956Y241649D01*
X25863Y241717D01*
X25775Y241792D01*
X25694Y241861D01*
X25625Y241930D01*
X25556Y241992D01*
X25500Y242048D01*
X25450Y242105D01*
X25406Y242155D01*
X25375Y242192D01*
X25344Y242230D01*
X25325Y242255D01*
X25319Y242267D01*
X25313Y242274D01*
X25256Y242367D01*
X25206Y242461D01*
X25163Y242548D01*
X25125Y242642D01*
X25069Y242823D01*
X25025Y242992D01*
X25013Y243067D01*
X25006Y243136D01*
X25000Y243198D01*
X24994Y243248D01*
X24988Y243292D01*
Y243323D01*
Y243342D01*
Y243348D01*
X24994Y243536D01*
X25019Y243711D01*
X25063Y243879D01*
X25113Y244035D01*
X25175Y244186D01*
X25238Y244323D01*
X25313Y244454D01*
X25388Y244567D01*
X25463Y244673D01*
X25531Y244767D01*
X25600Y244842D01*
X25663Y244910D01*
X25712Y244960D01*
X25750Y244998D01*
X25781Y245023D01*
X25787Y245029D01*
X25950Y245148D01*
X26131Y245248D01*
X26325Y245341D01*
X26531Y245416D01*
X26744Y245479D01*
X26956Y245535D01*
X27175Y245579D01*
X27381Y245616D01*
X27581Y245641D01*
X27768Y245660D01*
X27937Y245679D01*
X28012Y245685D01*
X28081D01*
X28149Y245691D01*
X28206D01*
X28256Y245698D01*
X28374D01*
X28656Y245691D01*
D02*
G37*
G36*
X38959Y236406D02*
X35904D01*
X32511Y245541D01*
X35379D01*
X37403Y238962D01*
X39459Y245541D01*
X42408D01*
X38959Y236406D01*
D02*
G37*
G36*
X32250Y231036D02*
X29369D01*
Y224156D01*
X26545D01*
Y231036D01*
X23665D01*
Y233291D01*
X32250D01*
Y231036D01*
D02*
G37*
G36*
X22352Y224156D02*
X18166D01*
X17879Y224169D01*
X17585Y224194D01*
X17304Y224231D01*
X17166Y224256D01*
X17041Y224281D01*
X16923Y224300D01*
X16816Y224325D01*
X16723Y224344D01*
X16641Y224362D01*
X16573Y224375D01*
X16529Y224387D01*
X16498Y224400D01*
X16485D01*
X16360Y224437D01*
X16235Y224481D01*
X15998Y224587D01*
X15892Y224650D01*
X15785Y224706D01*
X15685Y224769D01*
X15598Y224831D01*
X15510Y224887D01*
X15436Y224944D01*
X15373Y224993D01*
X15317Y225037D01*
X15273Y225075D01*
X15242Y225100D01*
X15223Y225119D01*
X15217Y225125D01*
X15111Y225231D01*
X15004Y225343D01*
X14911Y225456D01*
X14823Y225568D01*
X14742Y225681D01*
X14661Y225793D01*
X14592Y225906D01*
X14530Y226012D01*
X14473Y226106D01*
X14430Y226199D01*
X14386Y226274D01*
X14354Y226349D01*
X14323Y226406D01*
X14304Y226443D01*
X14298Y226474D01*
X14292Y226481D01*
X14230Y226637D01*
X14180Y226812D01*
X14136Y226987D01*
X14098Y227174D01*
X14036Y227555D01*
X14017Y227737D01*
X13998Y227918D01*
X13980Y228086D01*
X13973Y228243D01*
X13967Y228386D01*
X13961Y228505D01*
X13955Y228611D01*
Y228649D01*
Y228686D01*
Y228711D01*
Y228730D01*
Y228743D01*
Y228749D01*
X13967Y229093D01*
X13973Y229261D01*
X13992Y229424D01*
X14005Y229574D01*
X14023Y229717D01*
X14048Y229855D01*
X14067Y229986D01*
X14086Y230098D01*
X14111Y230205D01*
X14130Y230298D01*
X14142Y230373D01*
X14161Y230436D01*
X14167Y230480D01*
X14180Y230511D01*
Y230517D01*
X14223Y230673D01*
X14273Y230823D01*
X14330Y230961D01*
X14386Y231098D01*
X14448Y231229D01*
X14504Y231348D01*
X14567Y231461D01*
X14623Y231567D01*
X14679Y231660D01*
X14736Y231742D01*
X14779Y231817D01*
X14823Y231873D01*
X14854Y231923D01*
X14879Y231954D01*
X14898Y231979D01*
X14904Y231985D01*
X14998Y232098D01*
X15104Y232210D01*
X15204Y232310D01*
X15310Y232404D01*
X15417Y232492D01*
X15523Y232567D01*
X15623Y232642D01*
X15723Y232704D01*
X15817Y232766D01*
X15898Y232817D01*
X15973Y232854D01*
X16042Y232892D01*
X16092Y232917D01*
X16135Y232941D01*
X16160Y232948D01*
X16167Y232954D01*
X16316Y233016D01*
X16473Y233066D01*
X16635Y233110D01*
X16798Y233148D01*
X17135Y233210D01*
X17298Y233229D01*
X17454Y233248D01*
X17598Y233266D01*
X17735Y233273D01*
X17854Y233279D01*
X17960Y233285D01*
X18047Y233291D01*
X22352D01*
Y224156D01*
D02*
G37*
G36*
X8312Y233441D02*
X8512Y233435D01*
X8706Y233416D01*
X8893Y233391D01*
X9250Y233335D01*
X9587Y233254D01*
X9893Y233160D01*
X10043Y233104D01*
X10181Y233054D01*
X10312Y232998D01*
X10443Y232941D01*
X10562Y232879D01*
X10674Y232823D01*
X10780Y232766D01*
X10880Y232704D01*
X10974Y232648D01*
X11062Y232592D01*
X11143Y232542D01*
X11218Y232485D01*
X11287Y232442D01*
X11343Y232392D01*
X11399Y232354D01*
X11443Y232310D01*
X11487Y232279D01*
X11518Y232254D01*
X11543Y232229D01*
X11561Y232210D01*
X11568Y232204D01*
X11574Y232198D01*
X11687Y232079D01*
X11793Y231954D01*
X11893Y231823D01*
X11986Y231692D01*
X12068Y231554D01*
X12149Y231417D01*
X12293Y231129D01*
X12411Y230842D01*
X12511Y230548D01*
X12599Y230267D01*
X12661Y229992D01*
X12711Y229730D01*
X12749Y229492D01*
X12767Y229380D01*
X12780Y229274D01*
X12792Y229174D01*
X12799Y229086D01*
X12805Y229005D01*
X12811Y228930D01*
Y228867D01*
X12817Y228818D01*
Y228774D01*
Y228743D01*
Y228724D01*
Y228718D01*
X12811Y228424D01*
X12792Y228143D01*
X12761Y227874D01*
X12717Y227624D01*
X12674Y227387D01*
X12617Y227168D01*
X12561Y226962D01*
X12505Y226780D01*
X12449Y226612D01*
X12392Y226468D01*
X12336Y226343D01*
X12293Y226237D01*
X12249Y226156D01*
X12218Y226093D01*
X12199Y226056D01*
X12193Y226049D01*
Y226043D01*
X12068Y225849D01*
X11943Y225675D01*
X11805Y225506D01*
X11668Y225350D01*
X11530Y225212D01*
X11393Y225087D01*
X11262Y224968D01*
X11137Y224869D01*
X11012Y224775D01*
X10905Y224700D01*
X10805Y224637D01*
X10718Y224581D01*
X10649Y224537D01*
X10593Y224512D01*
X10562Y224494D01*
X10549Y224487D01*
X10356Y224400D01*
X10149Y224325D01*
X9937Y224262D01*
X9725Y224206D01*
X9506Y224156D01*
X9293Y224119D01*
X9087Y224088D01*
X8893Y224062D01*
X8706Y224044D01*
X8537Y224025D01*
X8381Y224013D01*
X8250Y224006D01*
X8144D01*
X8100Y224000D01*
X7994D01*
X7713Y224006D01*
X7450Y224025D01*
X7194Y224050D01*
X6956Y224088D01*
X6732Y224131D01*
X6525Y224181D01*
X6332Y224231D01*
X6157Y224287D01*
X6000Y224337D01*
X5857Y224387D01*
X5738Y224437D01*
X5638Y224481D01*
X5563Y224519D01*
X5501Y224544D01*
X5469Y224562D01*
X5457Y224569D01*
X5269Y224681D01*
X5094Y224800D01*
X4932Y224925D01*
X4782Y225056D01*
X4645Y225187D01*
X4520Y225325D01*
X4401Y225456D01*
X4295Y225581D01*
X4207Y225700D01*
X4126Y225806D01*
X4057Y225906D01*
X4001Y225993D01*
X3957Y226062D01*
X3926Y226118D01*
X3907Y226150D01*
X3901Y226162D01*
X3807Y226362D01*
X3720Y226568D01*
X3651Y226787D01*
X3589Y227006D01*
X3532Y227224D01*
X3489Y227443D01*
X3451Y227655D01*
X3426Y227861D01*
X3401Y228049D01*
X3389Y228224D01*
X3376Y228386D01*
X3364Y228518D01*
Y228580D01*
Y228630D01*
X3357Y228680D01*
Y228718D01*
Y228749D01*
Y228768D01*
Y228780D01*
Y228786D01*
X3364Y228993D01*
X3370Y229192D01*
X3389Y229380D01*
X3407Y229567D01*
X3470Y229923D01*
X3551Y230255D01*
X3645Y230561D01*
X3695Y230711D01*
X3751Y230848D01*
X3801Y230979D01*
X3864Y231104D01*
X3920Y231223D01*
X3976Y231336D01*
X4032Y231442D01*
X4088Y231542D01*
X4145Y231636D01*
X4201Y231717D01*
X4257Y231798D01*
X4307Y231873D01*
X4357Y231936D01*
X4401Y231998D01*
X4445Y232048D01*
X4482Y232098D01*
X4513Y232135D01*
X4538Y232167D01*
X4563Y232192D01*
X4582Y232210D01*
X4588Y232217D01*
X4595Y232223D01*
X4713Y232335D01*
X4838Y232442D01*
X4963Y232535D01*
X5101Y232629D01*
X5238Y232710D01*
X5376Y232792D01*
X5663Y232929D01*
X5957Y233048D01*
X6244Y233148D01*
X6532Y233229D01*
X6813Y233298D01*
X7075Y233348D01*
X7319Y233385D01*
X7431Y233398D01*
X7538Y233410D01*
X7638Y233423D01*
X7731Y233429D01*
X7812Y233435D01*
X7887Y233441D01*
X7950D01*
X8006Y233448D01*
X8106D01*
X8312Y233441D01*
D02*
G37*
G36*
X33734Y164599D02*
X30047D01*
Y166561D01*
X33734D01*
Y164599D01*
D02*
G37*
G36*
X43000Y162250D02*
X38070D01*
X37989Y162256D01*
X37901Y162262D01*
X37808Y162269D01*
X37601Y162288D01*
X37389Y162313D01*
X37283Y162319D01*
X37189Y162331D01*
X37102Y162344D01*
X37027Y162350D01*
X36958Y162356D01*
X36914Y162362D01*
X36883Y162369D01*
X36870D01*
X36739Y162388D01*
X36620Y162406D01*
X36508Y162431D01*
X36402Y162456D01*
X36308Y162481D01*
X36221Y162506D01*
X36139Y162531D01*
X36070Y162556D01*
X36008Y162575D01*
X35952Y162600D01*
X35908Y162619D01*
X35870Y162637D01*
X35839Y162650D01*
X35821Y162662D01*
X35808Y162669D01*
X35802D01*
X35596Y162800D01*
X35414Y162950D01*
X35339Y163025D01*
X35264Y163100D01*
X35196Y163169D01*
X35133Y163237D01*
X35077Y163306D01*
X35033Y163368D01*
X34990Y163425D01*
X34958Y163468D01*
X34927Y163506D01*
X34908Y163537D01*
X34902Y163556D01*
X34896Y163562D01*
X34840Y163668D01*
X34783Y163781D01*
X34740Y163893D01*
X34702Y164000D01*
X34646Y164218D01*
X34621Y164318D01*
X34608Y164418D01*
X34590Y164506D01*
X34583Y164587D01*
X34577Y164662D01*
X34571Y164724D01*
X34565Y164774D01*
Y164812D01*
Y164837D01*
Y164843D01*
X34571Y165006D01*
X34583Y165156D01*
X34608Y165299D01*
X34640Y165437D01*
X34671Y165568D01*
X34715Y165687D01*
X34752Y165799D01*
X34796Y165899D01*
X34840Y165987D01*
X34883Y166068D01*
X34927Y166130D01*
X34958Y166187D01*
X34990Y166236D01*
X35015Y166268D01*
X35027Y166287D01*
X35033Y166293D01*
X35127Y166399D01*
X35227Y166493D01*
X35339Y166580D01*
X35452Y166661D01*
X35577Y166736D01*
X35696Y166805D01*
X35814Y166861D01*
X35933Y166918D01*
X36045Y166961D01*
X36146Y166999D01*
X36239Y167030D01*
X36320Y167061D01*
X36389Y167080D01*
X36439Y167092D01*
X36470Y167105D01*
X36483D01*
X36364Y167149D01*
X36252Y167199D01*
X36152Y167243D01*
X36052Y167299D01*
X35964Y167349D01*
X35883Y167399D01*
X35814Y167449D01*
X35746Y167499D01*
X35689Y167542D01*
X35639Y167586D01*
X35596Y167624D01*
X35558Y167655D01*
X35533Y167680D01*
X35508Y167699D01*
X35502Y167711D01*
X35496Y167717D01*
X35408Y167830D01*
X35327Y167942D01*
X35258Y168061D01*
X35202Y168180D01*
X35152Y168298D01*
X35115Y168411D01*
X35077Y168523D01*
X35052Y168630D01*
X35033Y168730D01*
X35015Y168817D01*
X35002Y168898D01*
X34996Y168967D01*
Y169030D01*
X34990Y169067D01*
Y169098D01*
Y169104D01*
X34996Y169279D01*
X35021Y169454D01*
X35052Y169617D01*
X35102Y169767D01*
X35152Y169911D01*
X35215Y170042D01*
X35277Y170167D01*
X35346Y170279D01*
X35414Y170379D01*
X35477Y170473D01*
X35539Y170548D01*
X35589Y170610D01*
X35633Y170660D01*
X35671Y170698D01*
X35696Y170723D01*
X35702Y170729D01*
X35839Y170848D01*
X35989Y170948D01*
X36152Y171035D01*
X36314Y171110D01*
X36483Y171173D01*
X36652Y171223D01*
X36820Y171266D01*
X36976Y171304D01*
X37133Y171329D01*
X37270Y171348D01*
X37401Y171366D01*
X37508Y171373D01*
X37601Y171379D01*
X37639Y171385D01*
X43000D01*
Y162250D01*
D02*
G37*
G36*
X-40591Y243505D02*
X-37441Y238750D01*
X-40597D01*
X-42396Y241681D01*
X-44196Y238750D01*
X-47370D01*
X-44258Y243455D01*
X-47101Y247885D01*
X-44021D01*
X-42453Y245073D01*
X-40841Y247885D01*
X-37729D01*
X-40591Y243505D01*
D02*
G37*
G36*
X-28500Y245630D02*
X-31381D01*
Y238750D01*
X-34205D01*
Y245630D01*
X-37085D01*
Y247885D01*
X-28500D01*
Y245630D01*
D02*
G37*
G36*
X58584Y177561D02*
X60971D01*
Y175549D01*
X58584D01*
Y173162D01*
X56572D01*
Y175549D01*
X54173D01*
Y177561D01*
X56572D01*
Y179960D01*
X58584D01*
Y177561D01*
D02*
G37*
G36*
X70750Y172000D02*
X65820D01*
X65739Y172006D01*
X65651Y172013D01*
X65557Y172019D01*
X65351Y172038D01*
X65139Y172062D01*
X65033Y172069D01*
X64939Y172081D01*
X64851Y172094D01*
X64777Y172100D01*
X64708Y172106D01*
X64664Y172113D01*
X64633Y172119D01*
X64620D01*
X64489Y172138D01*
X64370Y172156D01*
X64258Y172181D01*
X64152Y172206D01*
X64058Y172231D01*
X63970Y172256D01*
X63889Y172281D01*
X63821Y172306D01*
X63758Y172325D01*
X63702Y172350D01*
X63658Y172369D01*
X63621Y172387D01*
X63589Y172400D01*
X63570Y172412D01*
X63558Y172419D01*
X63552D01*
X63346Y172550D01*
X63164Y172700D01*
X63089Y172775D01*
X63014Y172850D01*
X62946Y172918D01*
X62883Y172987D01*
X62827Y173056D01*
X62783Y173118D01*
X62740Y173175D01*
X62708Y173218D01*
X62677Y173256D01*
X62658Y173287D01*
X62652Y173306D01*
X62646Y173312D01*
X62590Y173418D01*
X62533Y173531D01*
X62490Y173643D01*
X62452Y173750D01*
X62396Y173968D01*
X62371Y174068D01*
X62358Y174168D01*
X62340Y174256D01*
X62333Y174337D01*
X62327Y174412D01*
X62321Y174474D01*
X62315Y174524D01*
Y174562D01*
Y174587D01*
Y174593D01*
X62321Y174756D01*
X62333Y174905D01*
X62358Y175049D01*
X62390Y175187D01*
X62421Y175318D01*
X62465Y175437D01*
X62502Y175549D01*
X62546Y175649D01*
X62590Y175737D01*
X62633Y175818D01*
X62677Y175880D01*
X62708Y175937D01*
X62740Y175986D01*
X62765Y176018D01*
X62777Y176036D01*
X62783Y176043D01*
X62877Y176149D01*
X62977Y176243D01*
X63089Y176330D01*
X63202Y176411D01*
X63327Y176486D01*
X63446Y176555D01*
X63564Y176611D01*
X63683Y176668D01*
X63795Y176711D01*
X63896Y176749D01*
X63989Y176780D01*
X64070Y176811D01*
X64139Y176830D01*
X64189Y176842D01*
X64220Y176855D01*
X64233D01*
X64114Y176899D01*
X64002Y176949D01*
X63902Y176992D01*
X63802Y177049D01*
X63714Y177099D01*
X63633Y177149D01*
X63564Y177199D01*
X63496Y177249D01*
X63439Y177292D01*
X63389Y177336D01*
X63346Y177374D01*
X63308Y177405D01*
X63283Y177430D01*
X63258Y177449D01*
X63252Y177461D01*
X63246Y177467D01*
X63158Y177580D01*
X63077Y177692D01*
X63008Y177811D01*
X62952Y177930D01*
X62902Y178048D01*
X62864Y178161D01*
X62827Y178273D01*
X62802Y178380D01*
X62783Y178480D01*
X62765Y178567D01*
X62752Y178648D01*
X62746Y178717D01*
Y178780D01*
X62740Y178817D01*
Y178848D01*
Y178855D01*
X62746Y179030D01*
X62771Y179204D01*
X62802Y179367D01*
X62852Y179517D01*
X62902Y179660D01*
X62964Y179792D01*
X63027Y179917D01*
X63096Y180029D01*
X63164Y180129D01*
X63227Y180223D01*
X63289Y180298D01*
X63339Y180360D01*
X63383Y180410D01*
X63421Y180448D01*
X63446Y180473D01*
X63452Y180479D01*
X63589Y180598D01*
X63739Y180698D01*
X63902Y180785D01*
X64064Y180860D01*
X64233Y180923D01*
X64402Y180973D01*
X64570Y181017D01*
X64727Y181054D01*
X64883Y181079D01*
X65020Y181098D01*
X65151Y181116D01*
X65258Y181123D01*
X65351Y181129D01*
X65389Y181135D01*
X70750D01*
Y172000D01*
D02*
G37*
G36*
X-1250Y168629D02*
X-4130D01*
Y161750D01*
X-6955D01*
Y168629D01*
X-9835D01*
Y170885D01*
X-1250D01*
Y168629D01*
D02*
G37*
G36*
X-11148Y161750D02*
X-15334D01*
X-15621Y161763D01*
X-15915Y161787D01*
X-16196Y161825D01*
X-16334Y161850D01*
X-16459Y161875D01*
X-16577Y161894D01*
X-16684Y161919D01*
X-16777Y161938D01*
X-16859Y161956D01*
X-16927Y161969D01*
X-16971Y161981D01*
X-17002Y161994D01*
X-17015D01*
X-17140Y162031D01*
X-17265Y162075D01*
X-17502Y162181D01*
X-17608Y162244D01*
X-17715Y162300D01*
X-17815Y162362D01*
X-17902Y162425D01*
X-17989Y162481D01*
X-18065Y162537D01*
X-18127Y162587D01*
X-18183Y162631D01*
X-18227Y162668D01*
X-18258Y162694D01*
X-18277Y162712D01*
X-18283Y162719D01*
X-18389Y162825D01*
X-18496Y162937D01*
X-18589Y163050D01*
X-18677Y163162D01*
X-18758Y163275D01*
X-18839Y163387D01*
X-18908Y163500D01*
X-18971Y163606D01*
X-19027Y163699D01*
X-19071Y163793D01*
X-19114Y163868D01*
X-19145Y163943D01*
X-19177Y163999D01*
X-19195Y164037D01*
X-19202Y164068D01*
X-19208Y164074D01*
X-19270Y164231D01*
X-19320Y164406D01*
X-19364Y164580D01*
X-19402Y164768D01*
X-19464Y165149D01*
X-19483Y165330D01*
X-19502Y165512D01*
X-19520Y165680D01*
X-19527Y165837D01*
X-19533Y165980D01*
X-19539Y166099D01*
X-19545Y166205D01*
Y166243D01*
Y166280D01*
Y166305D01*
Y166324D01*
Y166336D01*
Y166343D01*
X-19533Y166686D01*
X-19527Y166855D01*
X-19508Y167017D01*
X-19495Y167167D01*
X-19477Y167311D01*
X-19452Y167449D01*
X-19433Y167580D01*
X-19414Y167692D01*
X-19389Y167799D01*
X-19370Y167892D01*
X-19358Y167967D01*
X-19339Y168030D01*
X-19333Y168073D01*
X-19320Y168105D01*
Y168111D01*
X-19277Y168267D01*
X-19227Y168417D01*
X-19170Y168554D01*
X-19114Y168692D01*
X-19052Y168823D01*
X-18995Y168942D01*
X-18933Y169054D01*
X-18877Y169161D01*
X-18821Y169254D01*
X-18764Y169336D01*
X-18721Y169411D01*
X-18677Y169467D01*
X-18646Y169517D01*
X-18621Y169548D01*
X-18602Y169573D01*
X-18596Y169579D01*
X-18502Y169692D01*
X-18396Y169804D01*
X-18296Y169904D01*
X-18189Y169998D01*
X-18083Y170085D01*
X-17977Y170160D01*
X-17877Y170235D01*
X-17777Y170298D01*
X-17683Y170360D01*
X-17602Y170410D01*
X-17527Y170448D01*
X-17458Y170485D01*
X-17408Y170510D01*
X-17365Y170535D01*
X-17340Y170541D01*
X-17333Y170548D01*
X-17184Y170610D01*
X-17027Y170660D01*
X-16865Y170704D01*
X-16702Y170742D01*
X-16365Y170804D01*
X-16202Y170823D01*
X-16046Y170841D01*
X-15903Y170860D01*
X-15765Y170866D01*
X-15646Y170873D01*
X-15540Y170879D01*
X-15453Y170885D01*
X-11148D01*
Y161750D01*
D02*
G37*
G36*
X-21151D02*
X-23982D01*
Y170885D01*
X-21151D01*
Y161750D01*
D02*
G37*
G36*
X-247500Y-27000D02*
X-250337D01*
Y-23295D01*
X-250581D01*
X-250724Y-23301D01*
X-250855Y-23326D01*
X-250968Y-23363D01*
X-251074Y-23401D01*
X-251155Y-23438D01*
X-251218Y-23476D01*
X-251243Y-23488D01*
X-251262Y-23501D01*
X-251268Y-23507D01*
X-251274D01*
X-251318Y-23545D01*
X-251362Y-23582D01*
X-251443Y-23688D01*
X-251530Y-23801D01*
X-251611Y-23919D01*
X-251680Y-24032D01*
X-251705Y-24082D01*
X-251730Y-24126D01*
X-251755Y-24163D01*
X-251768Y-24188D01*
X-251780Y-24207D01*
Y-24213D01*
X-253286Y-27000D01*
X-256479D01*
X-259628D01*
X-261428Y-24069D01*
X-263227Y-27000D01*
X-266401D01*
X-263290Y-22295D01*
X-266133Y-17865D01*
X-263052D01*
X-261484Y-20677D01*
X-259872Y-17865D01*
X-256760D01*
X-259622Y-22245D01*
X-256476Y-26995D01*
X-255104Y-24357D01*
X-255061Y-24276D01*
X-254998Y-24182D01*
X-254936Y-24088D01*
X-254873Y-24001D01*
X-254811Y-23919D01*
X-254761Y-23857D01*
X-254736Y-23832D01*
X-254723Y-23813D01*
X-254717Y-23801D01*
X-254711Y-23795D01*
X-254604Y-23670D01*
X-254517Y-23563D01*
X-254442Y-23482D01*
X-254373Y-23413D01*
X-254323Y-23370D01*
X-254292Y-23338D01*
X-254267Y-23320D01*
X-254261Y-23313D01*
X-254217Y-23282D01*
X-254161Y-23251D01*
X-254048Y-23188D01*
X-253930Y-23132D01*
X-253811Y-23082D01*
X-253699Y-23038D01*
X-253655Y-23020D01*
X-253611Y-23007D01*
X-253580Y-22995D01*
X-253555Y-22982D01*
X-253536Y-22976D01*
X-253530D01*
X-253642Y-22951D01*
X-253755Y-22920D01*
X-253855Y-22889D01*
X-253948Y-22857D01*
X-254036Y-22826D01*
X-254117Y-22801D01*
X-254192Y-22770D01*
X-254261Y-22739D01*
X-254317Y-22714D01*
X-254367Y-22689D01*
X-254417Y-22670D01*
X-254448Y-22651D01*
X-254480Y-22632D01*
X-254498Y-22626D01*
X-254511Y-22614D01*
X-254517D01*
X-254717Y-22476D01*
X-254898Y-22326D01*
X-254979Y-22251D01*
X-255048Y-22183D01*
X-255117Y-22108D01*
X-255179Y-22039D01*
X-255229Y-21970D01*
X-255279Y-21914D01*
X-255317Y-21858D01*
X-255348Y-21814D01*
X-255379Y-21770D01*
X-255398Y-21745D01*
X-255404Y-21726D01*
X-255410Y-21720D01*
X-255467Y-21614D01*
X-255517Y-21501D01*
X-255560Y-21395D01*
X-255598Y-21283D01*
X-255654Y-21058D01*
X-255679Y-20958D01*
X-255698Y-20858D01*
X-255710Y-20764D01*
X-255717Y-20677D01*
X-255723Y-20602D01*
X-255729Y-20533D01*
X-255735Y-20483D01*
Y-20439D01*
Y-20414D01*
Y-20408D01*
X-255729Y-20245D01*
X-255717Y-20096D01*
X-255698Y-19945D01*
X-255667Y-19808D01*
X-255636Y-19677D01*
X-255604Y-19552D01*
X-255560Y-19439D01*
X-255523Y-19339D01*
X-255485Y-19246D01*
X-255448Y-19165D01*
X-255410Y-19096D01*
X-255379Y-19033D01*
X-255348Y-18989D01*
X-255329Y-18952D01*
X-255317Y-18933D01*
X-255310Y-18927D01*
X-255229Y-18815D01*
X-255142Y-18715D01*
X-255048Y-18621D01*
X-254954Y-18540D01*
X-254861Y-18458D01*
X-254773Y-18396D01*
X-254679Y-18333D01*
X-254592Y-18277D01*
X-254511Y-18233D01*
X-254436Y-18196D01*
X-254367Y-18159D01*
X-254305Y-18133D01*
X-254261Y-18115D01*
X-254223Y-18102D01*
X-254198Y-18090D01*
X-254192D01*
X-254055Y-18052D01*
X-253911Y-18015D01*
X-253755Y-17983D01*
X-253592Y-17959D01*
X-253261Y-17921D01*
X-253099Y-17902D01*
X-252936Y-17890D01*
X-252786Y-17884D01*
X-252649Y-17877D01*
X-252524Y-17871D01*
X-252411D01*
X-252324Y-17865D01*
X-247500D01*
Y-27000D01*
D02*
G37*
G36*
X-263591Y-47995D02*
X-260441Y-52750D01*
X-263597D01*
X-265396Y-49819D01*
X-267196Y-52750D01*
X-270370D01*
X-267258Y-48045D01*
X-270102Y-43615D01*
X-267021D01*
X-265453Y-46427D01*
X-263841Y-43615D01*
X-260729D01*
X-263591Y-47995D01*
D02*
G37*
G36*
X-251500Y-45870D02*
X-254381D01*
Y-52750D01*
X-257205D01*
Y-45870D01*
X-260085D01*
Y-43615D01*
X-251500D01*
Y-45870D01*
D02*
G37*
%LPC*%
G36*
X-53087Y232698D02*
X-54455D01*
X-54586Y232686D01*
X-54699Y232679D01*
X-54805Y232661D01*
X-54899Y232642D01*
X-54986Y232623D01*
X-55061Y232604D01*
X-55130Y232579D01*
X-55186Y232554D01*
X-55236Y232536D01*
X-55280Y232517D01*
X-55311Y232498D01*
X-55336Y232486D01*
X-55355Y232473D01*
X-55361Y232461D01*
X-55367D01*
X-55417Y232417D01*
X-55461Y232361D01*
X-55530Y232255D01*
X-55580Y232142D01*
X-55611Y232029D01*
X-55636Y231936D01*
X-55642Y231892D01*
Y231855D01*
X-55649Y231823D01*
Y231798D01*
Y231786D01*
Y231780D01*
X-55642Y231673D01*
X-55624Y231573D01*
X-55592Y231480D01*
X-55561Y231405D01*
X-55524Y231336D01*
X-55499Y231292D01*
X-55474Y231261D01*
X-55468Y231248D01*
X-55399Y231167D01*
X-55324Y231105D01*
X-55249Y231055D01*
X-55174Y231017D01*
X-55111Y230992D01*
X-55061Y230974D01*
X-55024Y230961D01*
X-55011D01*
X-54911Y230942D01*
X-54824Y230917D01*
X-54736Y230905D01*
X-54661Y230886D01*
X-54593Y230880D01*
X-54536Y230867D01*
X-54480Y230861D01*
X-54436Y230855D01*
X-54393Y230849D01*
X-54355Y230842D01*
X-54305Y230836D01*
X-53087D01*
Y232698D01*
D02*
G37*
G36*
X-31337Y177292D02*
X-32705D01*
X-32836Y177279D01*
X-32949Y177273D01*
X-33055Y177254D01*
X-33149Y177236D01*
X-33236Y177217D01*
X-33311Y177198D01*
X-33380Y177173D01*
X-33436Y177148D01*
X-33486Y177129D01*
X-33530Y177111D01*
X-33561Y177092D01*
X-33586Y177080D01*
X-33605Y177067D01*
X-33611Y177055D01*
X-33617D01*
X-33668Y177011D01*
X-33711Y176954D01*
X-33780Y176848D01*
X-33830Y176736D01*
X-33861Y176623D01*
X-33886Y176530D01*
X-33892Y176486D01*
Y176448D01*
X-33899Y176417D01*
Y176392D01*
Y176380D01*
Y176373D01*
X-33892Y176267D01*
X-33874Y176167D01*
X-33842Y176073D01*
X-33811Y175998D01*
X-33774Y175930D01*
X-33749Y175886D01*
X-33724Y175855D01*
X-33718Y175842D01*
X-33649Y175761D01*
X-33574Y175699D01*
X-33499Y175649D01*
X-33424Y175611D01*
X-33361Y175586D01*
X-33311Y175567D01*
X-33274Y175555D01*
X-33261D01*
X-33161Y175536D01*
X-33074Y175511D01*
X-32986Y175499D01*
X-32911Y175480D01*
X-32843Y175474D01*
X-32786Y175461D01*
X-32730Y175455D01*
X-32687Y175449D01*
X-32643Y175442D01*
X-32605Y175436D01*
X-32555Y175430D01*
X-31337D01*
Y177292D01*
D02*
G37*
G36*
X-63666Y170561D02*
X-63704D01*
X-63866Y170554D01*
X-64016Y170536D01*
X-64166Y170504D01*
X-64297Y170467D01*
X-64422Y170423D01*
X-64541Y170373D01*
X-64647Y170317D01*
X-64741Y170261D01*
X-64822Y170205D01*
X-64897Y170148D01*
X-64960Y170098D01*
X-65016Y170054D01*
X-65054Y170017D01*
X-65085Y169986D01*
X-65104Y169967D01*
X-65110Y169961D01*
X-65204Y169842D01*
X-65285Y169711D01*
X-65353Y169567D01*
X-65416Y169417D01*
X-65466Y169261D01*
X-65510Y169105D01*
X-65541Y168949D01*
X-65572Y168792D01*
X-65591Y168649D01*
X-65610Y168517D01*
X-65616Y168392D01*
X-65628Y168286D01*
Y168199D01*
X-65635Y168130D01*
Y168105D01*
Y168086D01*
Y168080D01*
Y168074D01*
X-65628Y167799D01*
X-65616Y167543D01*
X-65591Y167311D01*
X-65560Y167099D01*
X-65516Y166905D01*
X-65479Y166730D01*
X-65429Y166574D01*
X-65385Y166437D01*
X-65341Y166318D01*
X-65291Y166218D01*
X-65254Y166137D01*
X-65216Y166068D01*
X-65179Y166012D01*
X-65154Y165981D01*
X-65141Y165956D01*
X-65135Y165949D01*
X-65035Y165843D01*
X-64929Y165756D01*
X-64822Y165674D01*
X-64704Y165612D01*
X-64585Y165556D01*
X-64472Y165506D01*
X-64354Y165468D01*
X-64247Y165437D01*
X-64141Y165412D01*
X-64041Y165393D01*
X-63954Y165381D01*
X-63879Y165375D01*
X-63816Y165368D01*
X-63766Y165362D01*
X-63729D01*
X-63566Y165368D01*
X-63417Y165387D01*
X-63273Y165418D01*
X-63142Y165456D01*
X-63017Y165499D01*
X-62904Y165549D01*
X-62798Y165606D01*
X-62704Y165662D01*
X-62617Y165718D01*
X-62542Y165774D01*
X-62479Y165824D01*
X-62429Y165868D01*
X-62392Y165906D01*
X-62361Y165937D01*
X-62342Y165956D01*
X-62336Y165962D01*
X-62248Y166087D01*
X-62167Y166224D01*
X-62098Y166368D01*
X-62042Y166530D01*
X-61992Y166693D01*
X-61948Y166862D01*
X-61917Y167024D01*
X-61886Y167187D01*
X-61867Y167343D01*
X-61848Y167486D01*
X-61842Y167618D01*
X-61829Y167730D01*
Y167824D01*
X-61823Y167861D01*
Y167893D01*
Y167918D01*
Y167943D01*
Y167949D01*
Y167955D01*
X-61829Y168205D01*
X-61848Y168442D01*
X-61873Y168655D01*
X-61904Y168855D01*
X-61942Y169036D01*
X-61986Y169198D01*
X-62029Y169349D01*
X-62079Y169480D01*
X-62129Y169592D01*
X-62173Y169692D01*
X-62217Y169773D01*
X-62254Y169836D01*
X-62285Y169892D01*
X-62317Y169923D01*
X-62329Y169948D01*
X-62336Y169954D01*
X-62435Y170061D01*
X-62542Y170154D01*
X-62654Y170236D01*
X-62767Y170305D01*
X-62885Y170367D01*
X-62998Y170411D01*
X-63110Y170454D01*
X-63217Y170486D01*
X-63316Y170511D01*
X-63410Y170529D01*
X-63492Y170542D01*
X-63560Y170554D01*
X-63623D01*
X-63666Y170561D01*
D02*
G37*
G36*
X-73252Y171010D02*
X-73277D01*
X-73389Y171004D01*
X-73489Y170986D01*
X-73589Y170954D01*
X-73676Y170911D01*
X-73764Y170867D01*
X-73839Y170811D01*
X-73908Y170754D01*
X-73964Y170698D01*
X-74020Y170636D01*
X-74064Y170579D01*
X-74107Y170523D01*
X-74139Y170479D01*
X-74164Y170436D01*
X-74183Y170404D01*
X-74189Y170386D01*
X-74195Y170379D01*
X-74226Y170317D01*
X-74251Y170248D01*
X-74301Y170098D01*
X-74339Y169923D01*
X-74376Y169736D01*
X-74407Y169536D01*
X-74432Y169330D01*
X-74451Y169123D01*
X-74470Y168924D01*
X-74482Y168730D01*
X-74489Y168542D01*
X-74501Y168380D01*
Y168230D01*
X-74507Y168167D01*
Y168111D01*
Y168061D01*
Y168018D01*
Y167980D01*
Y167955D01*
Y167943D01*
Y167936D01*
Y167711D01*
X-74501Y167499D01*
X-74495Y167305D01*
X-74489Y167124D01*
X-74476Y166962D01*
X-74464Y166812D01*
X-74451Y166674D01*
X-74439Y166555D01*
X-74426Y166449D01*
X-74414Y166355D01*
X-74401Y166280D01*
X-74389Y166218D01*
X-74383Y166168D01*
X-74376Y166131D01*
X-74370Y166112D01*
Y166105D01*
X-74345Y165999D01*
X-74314Y165899D01*
X-74282Y165806D01*
X-74251Y165724D01*
X-74214Y165649D01*
X-74183Y165574D01*
X-74145Y165512D01*
X-74114Y165456D01*
X-74076Y165406D01*
X-74051Y165368D01*
X-74020Y165331D01*
X-74001Y165299D01*
X-73976Y165281D01*
X-73964Y165262D01*
X-73958Y165256D01*
X-73951Y165250D01*
X-73895Y165200D01*
X-73845Y165162D01*
X-73726Y165093D01*
X-73620Y165050D01*
X-73514Y165012D01*
X-73426Y164993D01*
X-73351Y164987D01*
X-73327Y164981D01*
X-73289D01*
X-73183Y164987D01*
X-73083Y165006D01*
X-72989Y165037D01*
X-72902Y165081D01*
X-72820Y165131D01*
X-72745Y165181D01*
X-72683Y165243D01*
X-72620Y165299D01*
X-72570Y165362D01*
X-72520Y165418D01*
X-72483Y165468D01*
X-72452Y165518D01*
X-72427Y165562D01*
X-72408Y165593D01*
X-72402Y165612D01*
X-72396Y165618D01*
X-72371Y165681D01*
X-72339Y165749D01*
X-72295Y165906D01*
X-72252Y166074D01*
X-72221Y166262D01*
X-72189Y166455D01*
X-72164Y166655D01*
X-72146Y166855D01*
X-72127Y167049D01*
X-72114Y167243D01*
X-72108Y167418D01*
X-72102Y167580D01*
X-72095Y167724D01*
Y167786D01*
X-72089Y167843D01*
Y167886D01*
Y167930D01*
Y167961D01*
Y167986D01*
Y167999D01*
Y168005D01*
Y168161D01*
X-72095Y168318D01*
X-72102Y168605D01*
X-72114Y168861D01*
X-72133Y169105D01*
X-72152Y169317D01*
X-72177Y169511D01*
X-72202Y169680D01*
X-72227Y169836D01*
X-72252Y169961D01*
X-72277Y170073D01*
X-72302Y170167D01*
X-72320Y170242D01*
X-72339Y170298D01*
X-72352Y170336D01*
X-72364Y170361D01*
Y170367D01*
X-72421Y170479D01*
X-72483Y170579D01*
X-72552Y170667D01*
X-72627Y170742D01*
X-72702Y170804D01*
X-72777Y170854D01*
X-72852Y170898D01*
X-72927Y170929D01*
X-72995Y170954D01*
X-73064Y170979D01*
X-73120Y170992D01*
X-73176Y170998D01*
X-73214Y171004D01*
X-73252Y171010D01*
D02*
G37*
G36*
X-259969Y29973D02*
X-260669D01*
X-260868Y29967D01*
X-261050Y29948D01*
X-261218Y29923D01*
X-261375Y29892D01*
X-261518Y29848D01*
X-261643Y29804D01*
X-261756Y29755D01*
X-261862Y29704D01*
X-261950Y29655D01*
X-262024Y29604D01*
X-262087Y29561D01*
X-262143Y29517D01*
X-262181Y29486D01*
X-262206Y29461D01*
X-262224Y29442D01*
X-262231Y29436D01*
X-262312Y29323D01*
X-262387Y29198D01*
X-262449Y29055D01*
X-262506Y28898D01*
X-262549Y28736D01*
X-262587Y28574D01*
X-262624Y28405D01*
X-262649Y28242D01*
X-262668Y28086D01*
X-262681Y27936D01*
X-262693Y27799D01*
X-262699Y27686D01*
X-262706Y27586D01*
Y27549D01*
Y27511D01*
Y27486D01*
Y27468D01*
Y27455D01*
Y27449D01*
Y27249D01*
X-262699Y27068D01*
X-262687Y26893D01*
X-262674Y26737D01*
X-262656Y26593D01*
X-262637Y26462D01*
X-262618Y26343D01*
X-262599Y26243D01*
X-262581Y26149D01*
X-262562Y26068D01*
X-262543Y26005D01*
X-262524Y25949D01*
X-262512Y25905D01*
X-262499Y25880D01*
X-262493Y25862D01*
Y25856D01*
X-262449Y25768D01*
X-262406Y25687D01*
X-262362Y25612D01*
X-262312Y25543D01*
X-262262Y25481D01*
X-262212Y25424D01*
X-262118Y25331D01*
X-262037Y25262D01*
X-261968Y25212D01*
X-261943Y25193D01*
X-261924Y25187D01*
X-261912Y25174D01*
X-261906D01*
X-261831Y25143D01*
X-261743Y25112D01*
X-261656Y25087D01*
X-261556Y25062D01*
X-261350Y25031D01*
X-261143Y25006D01*
X-261043Y24999D01*
X-260956Y24993D01*
X-260875Y24987D01*
X-260800D01*
X-260737Y24981D01*
X-259969D01*
Y29973D01*
D02*
G37*
G36*
X73314Y232667D02*
X72308Y229387D01*
X74314D01*
X73314Y232667D01*
D02*
G37*
G36*
X-9469Y257723D02*
X-10169D01*
X-10369Y257717D01*
X-10550Y257698D01*
X-10718Y257673D01*
X-10875Y257642D01*
X-11018Y257598D01*
X-11143Y257554D01*
X-11256Y257505D01*
X-11362Y257454D01*
X-11450Y257404D01*
X-11524Y257355D01*
X-11587Y257311D01*
X-11643Y257267D01*
X-11681Y257236D01*
X-11706Y257211D01*
X-11724Y257192D01*
X-11731Y257186D01*
X-11812Y257073D01*
X-11887Y256948D01*
X-11949Y256805D01*
X-12006Y256648D01*
X-12049Y256486D01*
X-12087Y256324D01*
X-12124Y256155D01*
X-12149Y255992D01*
X-12168Y255836D01*
X-12181Y255686D01*
X-12193Y255549D01*
X-12199Y255436D01*
X-12206Y255336D01*
Y255299D01*
Y255261D01*
Y255236D01*
Y255217D01*
Y255205D01*
Y255199D01*
Y254999D01*
X-12199Y254818D01*
X-12187Y254643D01*
X-12174Y254487D01*
X-12156Y254343D01*
X-12137Y254212D01*
X-12118Y254093D01*
X-12099Y253993D01*
X-12081Y253899D01*
X-12062Y253818D01*
X-12043Y253755D01*
X-12024Y253699D01*
X-12012Y253655D01*
X-11999Y253631D01*
X-11993Y253612D01*
Y253605D01*
X-11949Y253518D01*
X-11906Y253437D01*
X-11862Y253362D01*
X-11812Y253293D01*
X-11762Y253231D01*
X-11712Y253174D01*
X-11618Y253081D01*
X-11537Y253012D01*
X-11468Y252962D01*
X-11443Y252943D01*
X-11424Y252937D01*
X-11412Y252924D01*
X-11406D01*
X-11331Y252893D01*
X-11243Y252862D01*
X-11156Y252837D01*
X-11056Y252812D01*
X-10850Y252781D01*
X-10644Y252756D01*
X-10544Y252749D01*
X-10456Y252743D01*
X-10375Y252737D01*
X-10300D01*
X-10237Y252731D01*
X-9469D01*
Y257723D01*
D02*
G37*
G36*
X19528Y231223D02*
X18828D01*
X18628Y231217D01*
X18447Y231198D01*
X18278Y231173D01*
X18122Y231142D01*
X17979Y231098D01*
X17854Y231054D01*
X17741Y231005D01*
X17635Y230954D01*
X17548Y230905D01*
X17472Y230854D01*
X17410Y230811D01*
X17354Y230767D01*
X17316Y230736D01*
X17291Y230711D01*
X17272Y230692D01*
X17266Y230686D01*
X17185Y230573D01*
X17110Y230448D01*
X17048Y230305D01*
X16991Y230148D01*
X16948Y229986D01*
X16910Y229823D01*
X16873Y229655D01*
X16848Y229492D01*
X16829Y229336D01*
X16816Y229186D01*
X16804Y229049D01*
X16798Y228936D01*
X16791Y228836D01*
Y228799D01*
Y228761D01*
Y228736D01*
Y228718D01*
Y228705D01*
Y228699D01*
Y228499D01*
X16798Y228318D01*
X16810Y228143D01*
X16823Y227987D01*
X16841Y227843D01*
X16860Y227712D01*
X16879Y227593D01*
X16898Y227493D01*
X16916Y227399D01*
X16935Y227318D01*
X16954Y227255D01*
X16973Y227199D01*
X16985Y227155D01*
X16998Y227131D01*
X17004Y227112D01*
Y227106D01*
X17048Y227018D01*
X17091Y226937D01*
X17135Y226862D01*
X17185Y226793D01*
X17235Y226731D01*
X17285Y226674D01*
X17379Y226581D01*
X17460Y226512D01*
X17529Y226462D01*
X17554Y226443D01*
X17572Y226437D01*
X17585Y226424D01*
X17591D01*
X17666Y226393D01*
X17754Y226362D01*
X17841Y226337D01*
X17941Y226312D01*
X18147Y226281D01*
X18354Y226256D01*
X18454Y226249D01*
X18541Y226243D01*
X18622Y226237D01*
X18697D01*
X18760Y226231D01*
X19528D01*
Y231223D01*
D02*
G37*
G36*
X8150Y231311D02*
X8112D01*
X7950Y231304D01*
X7800Y231286D01*
X7650Y231254D01*
X7519Y231217D01*
X7394Y231173D01*
X7275Y231123D01*
X7169Y231067D01*
X7075Y231011D01*
X6994Y230954D01*
X6919Y230898D01*
X6856Y230848D01*
X6800Y230805D01*
X6763Y230767D01*
X6732Y230736D01*
X6713Y230717D01*
X6707Y230711D01*
X6613Y230592D01*
X6532Y230461D01*
X6463Y230317D01*
X6400Y230167D01*
X6350Y230011D01*
X6307Y229855D01*
X6275Y229699D01*
X6244Y229542D01*
X6225Y229399D01*
X6207Y229267D01*
X6200Y229142D01*
X6188Y229036D01*
Y228949D01*
X6182Y228880D01*
Y228855D01*
Y228836D01*
Y228830D01*
Y228824D01*
X6188Y228549D01*
X6200Y228293D01*
X6225Y228062D01*
X6257Y227849D01*
X6300Y227655D01*
X6338Y227480D01*
X6388Y227324D01*
X6432Y227187D01*
X6475Y227068D01*
X6525Y226968D01*
X6563Y226887D01*
X6600Y226818D01*
X6638Y226762D01*
X6663Y226731D01*
X6675Y226706D01*
X6682Y226699D01*
X6781Y226593D01*
X6888Y226506D01*
X6994Y226424D01*
X7113Y226362D01*
X7231Y226306D01*
X7344Y226256D01*
X7462Y226218D01*
X7569Y226187D01*
X7675Y226162D01*
X7775Y226143D01*
X7862Y226131D01*
X7937Y226124D01*
X8000Y226118D01*
X8050Y226112D01*
X8087D01*
X8250Y226118D01*
X8400Y226137D01*
X8543Y226168D01*
X8675Y226206D01*
X8800Y226249D01*
X8912Y226299D01*
X9018Y226356D01*
X9112Y226412D01*
X9200Y226468D01*
X9275Y226524D01*
X9337Y226574D01*
X9387Y226618D01*
X9424Y226656D01*
X9456Y226687D01*
X9474Y226706D01*
X9481Y226712D01*
X9568Y226837D01*
X9650Y226974D01*
X9718Y227118D01*
X9775Y227280D01*
X9824Y227443D01*
X9868Y227612D01*
X9899Y227774D01*
X9931Y227936D01*
X9949Y228093D01*
X9968Y228236D01*
X9974Y228368D01*
X9987Y228480D01*
Y228574D01*
X9993Y228611D01*
Y228643D01*
Y228668D01*
Y228693D01*
Y228699D01*
Y228705D01*
X9987Y228955D01*
X9968Y229192D01*
X9943Y229405D01*
X9912Y229605D01*
X9874Y229786D01*
X9831Y229949D01*
X9787Y230098D01*
X9737Y230230D01*
X9687Y230342D01*
X9643Y230442D01*
X9599Y230523D01*
X9562Y230586D01*
X9531Y230642D01*
X9499Y230673D01*
X9487Y230698D01*
X9481Y230704D01*
X9381Y230811D01*
X9275Y230905D01*
X9162Y230986D01*
X9050Y231054D01*
X8931Y231117D01*
X8818Y231161D01*
X8706Y231204D01*
X8600Y231236D01*
X8500Y231261D01*
X8406Y231279D01*
X8325Y231292D01*
X8256Y231304D01*
X8194D01*
X8150Y231311D01*
D02*
G37*
G36*
X40151Y169536D02*
X38801D01*
X38695Y169523D01*
X38595Y169517D01*
X38507Y169498D01*
X38426Y169486D01*
X38351Y169467D01*
X38282Y169442D01*
X38226Y169423D01*
X38176Y169404D01*
X38133Y169379D01*
X38101Y169361D01*
X38070Y169348D01*
X38045Y169329D01*
X38033Y169323D01*
X38020Y169311D01*
X37933Y169217D01*
X37870Y169117D01*
X37820Y169017D01*
X37789Y168917D01*
X37770Y168823D01*
X37764Y168755D01*
X37758Y168723D01*
Y168705D01*
Y168692D01*
Y168686D01*
X37770Y168536D01*
X37801Y168398D01*
X37839Y168286D01*
X37889Y168192D01*
X37939Y168117D01*
X37976Y168067D01*
X38008Y168036D01*
X38020Y168023D01*
X38070Y167986D01*
X38133Y167949D01*
X38201Y167917D01*
X38270Y167892D01*
X38420Y167855D01*
X38570Y167830D01*
X38714Y167811D01*
X38770Y167805D01*
X38826D01*
X38870Y167799D01*
X40151D01*
Y169536D01*
D02*
G37*
G36*
Y166061D02*
X38595D01*
X38470Y166049D01*
X38357Y166036D01*
X38251Y166024D01*
X38157Y166005D01*
X38076Y165980D01*
X38001Y165962D01*
X37933Y165937D01*
X37876Y165912D01*
X37826Y165893D01*
X37783Y165868D01*
X37751Y165849D01*
X37726Y165837D01*
X37708Y165824D01*
X37701Y165812D01*
X37695D01*
X37645Y165762D01*
X37595Y165712D01*
X37520Y165605D01*
X37470Y165499D01*
X37433Y165393D01*
X37408Y165306D01*
X37401Y165231D01*
X37395Y165199D01*
Y165180D01*
Y165168D01*
Y165162D01*
X37401Y165081D01*
X37408Y165006D01*
X37439Y164868D01*
X37489Y164749D01*
X37545Y164649D01*
X37601Y164574D01*
X37645Y164518D01*
X37683Y164481D01*
X37689Y164474D01*
X37695Y164468D01*
X37758Y164424D01*
X37826Y164381D01*
X37901Y164349D01*
X37982Y164318D01*
X38151Y164275D01*
X38320Y164243D01*
X38401Y164231D01*
X38476Y164224D01*
X38545Y164218D01*
X38601D01*
X38651Y164212D01*
X40151D01*
Y166061D01*
D02*
G37*
G36*
X67901Y179286D02*
X66551D01*
X66445Y179273D01*
X66345Y179267D01*
X66257Y179248D01*
X66176Y179236D01*
X66101Y179217D01*
X66032Y179192D01*
X65976Y179173D01*
X65926Y179154D01*
X65882Y179129D01*
X65851Y179111D01*
X65820Y179098D01*
X65795Y179079D01*
X65782Y179073D01*
X65770Y179061D01*
X65683Y178967D01*
X65620Y178867D01*
X65570Y178767D01*
X65539Y178667D01*
X65520Y178573D01*
X65514Y178505D01*
X65507Y178473D01*
Y178455D01*
Y178442D01*
Y178436D01*
X65520Y178286D01*
X65551Y178148D01*
X65589Y178036D01*
X65639Y177942D01*
X65689Y177867D01*
X65726Y177817D01*
X65757Y177786D01*
X65770Y177773D01*
X65820Y177736D01*
X65882Y177699D01*
X65951Y177667D01*
X66020Y177642D01*
X66170Y177605D01*
X66320Y177580D01*
X66463Y177561D01*
X66520Y177555D01*
X66576D01*
X66620Y177549D01*
X67901D01*
Y179286D01*
D02*
G37*
G36*
Y175812D02*
X66345D01*
X66220Y175799D01*
X66107Y175786D01*
X66001Y175774D01*
X65907Y175755D01*
X65826Y175730D01*
X65751Y175712D01*
X65683Y175687D01*
X65626Y175662D01*
X65576Y175643D01*
X65532Y175618D01*
X65501Y175599D01*
X65476Y175587D01*
X65458Y175574D01*
X65451Y175562D01*
X65445D01*
X65395Y175512D01*
X65345Y175462D01*
X65270Y175355D01*
X65220Y175249D01*
X65183Y175143D01*
X65158Y175056D01*
X65151Y174981D01*
X65145Y174949D01*
Y174930D01*
Y174918D01*
Y174912D01*
X65151Y174830D01*
X65158Y174756D01*
X65189Y174618D01*
X65239Y174499D01*
X65295Y174399D01*
X65351Y174324D01*
X65395Y174268D01*
X65433Y174231D01*
X65439Y174224D01*
X65445Y174218D01*
X65507Y174174D01*
X65576Y174131D01*
X65651Y174100D01*
X65732Y174068D01*
X65901Y174025D01*
X66070Y173993D01*
X66151Y173981D01*
X66226Y173974D01*
X66295Y173968D01*
X66351D01*
X66401Y173962D01*
X67901D01*
Y175812D01*
D02*
G37*
G36*
X-13972Y168817D02*
X-14672D01*
X-14871Y168811D01*
X-15053Y168792D01*
X-15222Y168767D01*
X-15378Y168736D01*
X-15521Y168692D01*
X-15646Y168648D01*
X-15759Y168598D01*
X-15865Y168548D01*
X-15953Y168498D01*
X-16027Y168448D01*
X-16090Y168405D01*
X-16146Y168361D01*
X-16184Y168330D01*
X-16209Y168305D01*
X-16228Y168286D01*
X-16234Y168280D01*
X-16315Y168167D01*
X-16390Y168042D01*
X-16452Y167898D01*
X-16509Y167742D01*
X-16552Y167580D01*
X-16590Y167417D01*
X-16627Y167249D01*
X-16652Y167086D01*
X-16671Y166930D01*
X-16684Y166780D01*
X-16696Y166642D01*
X-16702Y166530D01*
X-16709Y166430D01*
Y166393D01*
Y166355D01*
Y166330D01*
Y166311D01*
Y166299D01*
Y166293D01*
Y166093D01*
X-16702Y165912D01*
X-16690Y165737D01*
X-16677Y165580D01*
X-16659Y165437D01*
X-16640Y165305D01*
X-16621Y165187D01*
X-16602Y165087D01*
X-16584Y164993D01*
X-16565Y164912D01*
X-16546Y164849D01*
X-16527Y164793D01*
X-16515Y164749D01*
X-16502Y164724D01*
X-16496Y164706D01*
Y164699D01*
X-16452Y164612D01*
X-16409Y164531D01*
X-16365Y164456D01*
X-16315Y164387D01*
X-16265Y164324D01*
X-16215Y164268D01*
X-16121Y164174D01*
X-16040Y164106D01*
X-15971Y164056D01*
X-15946Y164037D01*
X-15927Y164031D01*
X-15915Y164018D01*
X-15909D01*
X-15834Y163987D01*
X-15746Y163956D01*
X-15659Y163931D01*
X-15559Y163906D01*
X-15353Y163874D01*
X-15146Y163850D01*
X-15046Y163843D01*
X-14959Y163837D01*
X-14878Y163831D01*
X-14803D01*
X-14740Y163825D01*
X-13972D01*
Y168817D01*
D02*
G37*
G36*
X-250337Y-19708D02*
X-251705D01*
X-251836Y-19721D01*
X-251949Y-19727D01*
X-252055Y-19746D01*
X-252149Y-19764D01*
X-252236Y-19783D01*
X-252311Y-19802D01*
X-252380Y-19827D01*
X-252436Y-19852D01*
X-252486Y-19871D01*
X-252530Y-19889D01*
X-252561Y-19908D01*
X-252586Y-19921D01*
X-252605Y-19933D01*
X-252611Y-19945D01*
X-252617D01*
X-252668Y-19989D01*
X-252711Y-20045D01*
X-252780Y-20152D01*
X-252830Y-20264D01*
X-252861Y-20377D01*
X-252886Y-20470D01*
X-252892Y-20514D01*
Y-20552D01*
X-252899Y-20583D01*
Y-20608D01*
Y-20620D01*
Y-20627D01*
X-252892Y-20733D01*
X-252874Y-20833D01*
X-252842Y-20926D01*
X-252811Y-21002D01*
X-252774Y-21070D01*
X-252749Y-21114D01*
X-252724Y-21145D01*
X-252717Y-21158D01*
X-252649Y-21239D01*
X-252574Y-21301D01*
X-252499Y-21351D01*
X-252424Y-21389D01*
X-252361Y-21414D01*
X-252311Y-21433D01*
X-252274Y-21445D01*
X-252261D01*
X-252161Y-21464D01*
X-252074Y-21489D01*
X-251986Y-21501D01*
X-251911Y-21520D01*
X-251843Y-21526D01*
X-251786Y-21539D01*
X-251730Y-21545D01*
X-251686Y-21551D01*
X-251643Y-21558D01*
X-251605Y-21564D01*
X-251555Y-21570D01*
X-250337D01*
Y-19708D01*
D02*
G37*
%LPD*%
D51*
X19700Y241300D02*
G03*
X19700Y241300I-7000J0D01*
G01*
X-5700D02*
G03*
X-5700Y241300I-7000J0D01*
G01*
X70500Y215900D02*
G03*
X70500Y215900I-7000J0D01*
G01*
X45100D02*
G03*
X45100Y215900I-7000J0D01*
G01*
X19700Y190500D02*
G03*
X19700Y190500I-7000J0D01*
G01*
X-5700D02*
G03*
X-5700Y190500I-7000J0D01*
G01*
X-31100Y215900D02*
G03*
X-31100Y215900I-7000J0D01*
G01*
X-56500D02*
G03*
X-56500Y215900I-7000J0D01*
G01*
X70500Y190500D02*
G03*
X70500Y190500I-7000J0D01*
G01*
X45100D02*
G03*
X45100Y190500I-7000J0D01*
G01*
X19700Y215900D02*
G03*
X19700Y215900I-7000J0D01*
G01*
X-5700D02*
G03*
X-5700Y215900I-7000J0D01*
G01*
X-31100Y190500D02*
G03*
X-31100Y190500I-7000J0D01*
G01*
X-56500D02*
G03*
X-56500Y190500I-7000J0D01*
G01*
X224612Y230000D02*
X230000Y235388D01*
X232694Y232694D02*
X237184Y237184D01*
X222816Y222816D02*
X227306Y227306D01*
X231796Y242572D02*
X242572Y231796D01*
X217428Y228204D02*
X228204Y217428D01*
X-235388Y-230000D02*
X-230000Y-224612D01*
X-227306Y-227306D02*
X-222816Y-222816D01*
X-237184Y-237184D02*
X-232694Y-232694D01*
X-228204Y-217428D02*
X-217428Y-228204D01*
X-242572Y-231796D02*
X-231796Y-242572D01*
X224612Y-230000D02*
X230000Y-224612D01*
X232694Y-227306D02*
X237184Y-222816D01*
X222816Y-237184D02*
X227306Y-232694D01*
X231796Y-217428D02*
X242572Y-228204D01*
X217428Y-231796D02*
X228204Y-242572D01*
X-235388Y230000D02*
X-230000Y235388D01*
X-227306Y232694D02*
X-222816Y237184D01*
X-237184Y222816D02*
X-232694Y227306D01*
X-228204Y242572D02*
X-217428Y231796D01*
X-242572Y228204D02*
X-231796Y217428D01*
X265671Y120956D02*
X275668D01*
Y115958D01*
X274002Y114292D01*
X267337D01*
X265671Y115958D01*
Y120956D01*
X275668Y105961D02*
Y109293D01*
X274002Y110960D01*
X270669D01*
X269003Y109293D01*
Y105961D01*
X270669Y104295D01*
X272336D01*
Y110960D01*
X275668Y100963D02*
Y95964D01*
X274002Y94298D01*
X272336Y95964D01*
Y99297D01*
X270669Y100963D01*
X269003Y99297D01*
Y94298D01*
X275668Y90966D02*
Y87634D01*
Y89300D01*
X269003D01*
Y90966D01*
X279000Y79303D02*
Y77637D01*
X277334Y75971D01*
X269003D01*
Y80969D01*
X270669Y82635D01*
X274002D01*
X275668Y80969D01*
Y75971D01*
Y72639D02*
X269003D01*
Y67640D01*
X270669Y65974D01*
X275668D01*
Y57643D02*
Y60976D01*
X274002Y62642D01*
X270669D01*
X269003Y60976D01*
Y57643D01*
X270669Y55977D01*
X272336D01*
Y62642D01*
X265671Y45981D02*
X275668D01*
Y50979D01*
X274002Y52645D01*
X270669D01*
X269003Y50979D01*
Y45981D01*
X265671Y32652D02*
X275668D01*
Y27653D01*
X274002Y25987D01*
X272336D01*
X270669D01*
X269003Y27653D01*
Y32652D01*
Y22655D02*
X274002D01*
X275668Y20989D01*
Y15990D01*
X277334D01*
X279000Y17656D01*
Y19323D01*
X275668Y15990D02*
X269003D01*
X275668Y2661D02*
X265671D01*
Y-2337D01*
X267337Y-4003D01*
X270669D01*
X272336Y-2337D01*
Y2661D01*
X265671Y-7336D02*
X275668D01*
Y-14000D01*
X269003Y-18999D02*
Y-22331D01*
X270669Y-23997D01*
X275668D01*
Y-18999D01*
X274002Y-17332D01*
X272336Y-18999D01*
Y-23997D01*
X265671Y-27329D02*
X275668D01*
Y-32328D01*
X274002Y-33994D01*
X272336D01*
X270669D01*
X269003Y-32328D01*
Y-27329D01*
X275668Y-47323D02*
Y-50655D01*
Y-48989D01*
X269003D01*
Y-47323D01*
X275668Y-55653D02*
X269003D01*
Y-60652D01*
X270669Y-62318D01*
X275668D01*
X267337Y-82311D02*
X265671Y-80645D01*
Y-77313D01*
X267337Y-75647D01*
X269003D01*
X270669Y-77313D01*
Y-80645D01*
X272336Y-82311D01*
X274002D01*
X275668Y-80645D01*
Y-77313D01*
X274002Y-75647D01*
X275668Y-85644D02*
Y-88976D01*
Y-87310D01*
X265671D01*
Y-85644D01*
X275668Y-95640D02*
Y-98973D01*
X274002Y-100639D01*
X270669D01*
X269003Y-98973D01*
Y-95640D01*
X270669Y-93974D01*
X274002D01*
X275668Y-95640D01*
X269003Y-103971D02*
X275668Y-107303D01*
X269003Y-110636D01*
X275668Y-118966D02*
Y-115634D01*
X274002Y-113968D01*
X270669D01*
X269003Y-115634D01*
Y-118966D01*
X270669Y-120632D01*
X272336D01*
Y-113968D01*
X275668Y-123965D02*
X269003D01*
Y-128963D01*
X270669Y-130629D01*
X275668D01*
Y-133961D02*
Y-137294D01*
Y-135628D01*
X269003D01*
Y-133961D01*
Y-143958D02*
Y-147290D01*
X270669Y-148957D01*
X275668D01*
Y-143958D01*
X274002Y-142292D01*
X272336Y-143958D01*
Y-148957D01*
D54*
X-160000Y-230750D02*
Y160000D01*
X160000D02*
X160250Y-229500D01*
X-160000Y160000D02*
X160000D01*
D59*
X-214995Y142126D02*
X-199000D01*
X-206998D01*
Y131462D01*
X-214995D01*
X-199000D01*
Y123465D02*
Y118133D01*
X-201666Y115468D01*
X-206998D01*
X-209663Y118133D01*
Y123465D01*
X-206998Y126131D01*
X-201666D01*
X-199000Y123465D01*
Y110136D02*
X-209663D01*
Y107470D01*
X-206998Y104804D01*
X-199000D01*
X-206998D01*
X-209663Y102139D01*
X-206998Y99473D01*
X-199000D01*
Y86144D02*
Y91475D01*
X-201666Y94141D01*
X-206998D01*
X-209663Y91475D01*
Y86144D01*
X-206998Y83478D01*
X-204332D01*
Y94141D01*
X-214995Y62152D02*
X-199000D01*
Y54154D01*
X-201666Y51488D01*
X-204332D01*
X-206998Y54154D01*
Y62152D01*
Y54154D01*
X-209663Y51488D01*
X-212329D01*
X-214995Y54154D01*
Y62152D01*
X-209663Y46157D02*
X-201666D01*
X-199000Y43491D01*
Y35494D01*
X-209663D01*
X-212329Y27496D02*
X-209663D01*
Y30162D01*
Y24830D01*
Y27496D01*
X-201666D01*
X-199000Y24830D01*
X-212329Y14167D02*
X-209663D01*
Y16833D01*
Y11501D01*
Y14167D01*
X-201666D01*
X-199000Y11501D01*
Y838D02*
Y-4493D01*
X-201666Y-7159D01*
X-206998D01*
X-209663Y-4493D01*
Y838D01*
X-206998Y3504D01*
X-201666D01*
X-199000Y838D01*
Y-12491D02*
X-209663D01*
Y-20488D01*
X-206998Y-23154D01*
X-199000D01*
Y-28486D02*
Y-36483D01*
X-201666Y-39149D01*
X-204332Y-36483D01*
Y-31151D01*
X-206998Y-28486D01*
X-209663Y-31151D01*
Y-39149D01*
X-199000Y-60475D02*
X-214995D01*
X-209663Y-65807D01*
X-214995Y-71139D01*
X-199000D01*
Y-76470D02*
Y-81802D01*
Y-79136D01*
X-209663D01*
Y-76470D01*
X-199000Y-89799D02*
X-209663D01*
Y-97796D01*
X-206998Y-100462D01*
X-199000D01*
Y-105794D02*
Y-111125D01*
Y-108460D01*
X-209663D01*
Y-105794D01*
D62*
X-183997Y35500D02*
X-174000D01*
X-178999D01*
Y28835D01*
X-183997D01*
X-174000D01*
X-183997Y25503D02*
X-174000D01*
X-177333Y22171D01*
X-174000Y18839D01*
X-183997D01*
X-180665Y5510D02*
X-174000D01*
X-177333D01*
X-178999Y3844D01*
X-180665Y2177D01*
Y511D01*
X-174000Y-9485D02*
Y-6153D01*
X-175667Y-4487D01*
X-178999D01*
X-180665Y-6153D01*
Y-9485D01*
X-178999Y-11152D01*
X-177333D01*
Y-4487D01*
X-180665Y-14484D02*
X-174000Y-17816D01*
X-180665Y-21148D01*
X-174000Y-34477D02*
Y-37810D01*
Y-36144D01*
X-183997D01*
X-182331Y-34477D01*
X-174000Y-42808D02*
X-175667D01*
Y-44474D01*
X-174000D01*
Y-42808D01*
Y-51139D02*
Y-54471D01*
Y-52805D01*
X-183997D01*
X-182331Y-51139D01*
D67*
X242374Y252981D02*
X252981Y242374D01*
X207019Y217626D02*
X217626Y207019D01*
X205251Y240607D02*
X219393Y254749D01*
X240607Y205251D02*
X254749Y219393D01*
X-217626Y-207019D02*
X-207019Y-217626D01*
X-252981Y-242374D02*
X-242374Y-252981D01*
X-254749Y-219393D02*
X-240607Y-205251D01*
X-219393Y-254749D02*
X-205251Y-240607D01*
X242374Y-207019D02*
X252981Y-217626D01*
X207019Y-242374D02*
X217626Y-252981D01*
X205251Y-219393D02*
X219393Y-205251D01*
X240607Y-254749D02*
X254749Y-240607D01*
X-217626Y252981D02*
X-207019Y242374D01*
X-252981Y217626D02*
X-242374Y207019D01*
X-254749Y240607D02*
X-240607Y254749D01*
X-219393Y205251D02*
X-205251Y219393D01*
D68*
X-249638Y-259121D02*
X-247518D01*
X-245397Y-261241D01*
Y-263362D01*
X-246457Y-264422D01*
X-248578D01*
X-250699Y-262302D01*
X-252819D01*
X-253879Y-263362D01*
Y-265483D01*
X-251759Y-267603D01*
X-249638D01*
X-250699Y-255940D02*
X-257060Y-262302D01*
Y-258060D01*
X-261302D01*
X-254940Y-251698D01*
X-266603Y-252759D02*
X-260241Y-246397D01*
Y-252759D01*
X-264483Y-248517D01*
X260121Y-249638D02*
Y-247517D01*
X262241Y-245397D01*
X264362D01*
X265422Y-246457D01*
Y-248578D01*
X263302Y-250698D01*
Y-252819D01*
X264362Y-253879D01*
X266482D01*
X268603Y-251759D01*
Y-249638D01*
X256940Y-250698D02*
X263302Y-257060D01*
X259060D01*
Y-261302D01*
X252698Y-254940D01*
X251638Y-258121D02*
X249517D01*
X247397Y-260241D01*
Y-262362D01*
X248457Y-263422D01*
X250578D01*
X251638Y-262362D01*
X250578Y-263422D01*
Y-265543D01*
X251638Y-266603D01*
X253759D01*
X255879Y-264482D01*
Y-262362D01*
X-258880Y261362D02*
Y263483D01*
X-256759Y265603D01*
X-254638D01*
X-253578Y264543D01*
Y262422D01*
X-255699Y260302D01*
Y258181D01*
X-254638Y257121D01*
X-252518D01*
X-250397Y259241D01*
Y261362D01*
X-262060Y260302D02*
X-255699Y253940D01*
X-259940D01*
Y249698D01*
X-266302Y256060D01*
Y243337D02*
X-262060Y247578D01*
X-270543D01*
X-271603Y248638D01*
Y250759D01*
X-269483Y252879D01*
X-267362D01*
X260301Y255940D02*
X262422D01*
X264543Y253819D01*
Y251698D01*
X263482Y250638D01*
X261362D01*
X259241Y252759D01*
X257121D01*
X256060Y251698D01*
Y249578D01*
X258181Y247457D01*
X260301D01*
X259241Y259121D02*
X252879Y252759D01*
Y257000D01*
X248638D01*
X255000Y263362D01*
X246517Y259121D02*
X244397Y261241D01*
X245457Y260181D01*
X251819Y266543D01*
Y264422D01*
D101*
X199875Y-15875D02*
D03*
M02*
