G04*
G04 #@! TF.GenerationSoftware,Altium Limited,Altium Designer,23.2.1 (34)*
G04*
G04 Layer_Color=65535*
%FSLAX44Y44*%
%MOMM*%
G71*
G04*
G04 #@! TF.SameCoordinates,4D038F4D-AB9E-478B-8716-A6F2BEF9763F*
G04*
G04*
G04 #@! TF.FilePolarity,Positive*
G04*
G01*
G75*
%ADD51C,0.2000*%
%ADD55C,1.0000*%
%ADD62C,0.2500*%
%ADD66C,0.2540*%
%ADD67C,0.1500*%
%ADD68C,0.1800*%
G36*
X-257973Y-202000D02*
X-285000D01*
Y-183862D01*
X-257973D01*
Y-202000D01*
D02*
G37*
G36*
X-238862Y264638D02*
X-265750Y237750D01*
X-278824Y250824D01*
X-251936Y277712D01*
X-238862Y264638D01*
D02*
G37*
G36*
X174375Y-267750D02*
X150000D01*
Y-247612D01*
X174375D01*
Y-267750D01*
D02*
G37*
G36*
X177896Y-199750D02*
X149500D01*
Y-179612D01*
X177896D01*
Y-199750D01*
D02*
G37*
%LPC*%
G36*
X-261973Y-187862D02*
Y-195504D01*
X-266854D01*
Y-187862D01*
X-269988D01*
Y-198000D01*
X-261973D01*
Y-187862D01*
D02*
G37*
G36*
X-275051D02*
X-281000D01*
Y-198000D01*
X-275529D01*
X-275439Y-197993D01*
X-275342Y-197986D01*
X-275238Y-197979D01*
X-275009Y-197958D01*
X-274773Y-197931D01*
X-274655Y-197924D01*
X-274551Y-197910D01*
X-274454Y-197896D01*
X-274371Y-197889D01*
X-274295Y-197882D01*
X-274246Y-197875D01*
X-274212Y-197868D01*
X-274198D01*
X-274052Y-197847D01*
X-273920Y-197827D01*
X-273795Y-197799D01*
X-273678Y-197771D01*
X-273573Y-197743D01*
X-273476Y-197716D01*
X-273386Y-197688D01*
X-273310Y-197660D01*
X-273241Y-197639D01*
X-273178Y-197612D01*
X-273130Y-197591D01*
X-273088Y-197570D01*
X-273053Y-197556D01*
X-273033Y-197542D01*
X-273019Y-197535D01*
X-273012D01*
X-272783Y-197390D01*
X-272582Y-197223D01*
X-272499Y-197140D01*
X-272416Y-197057D01*
X-272339Y-196981D01*
X-272270Y-196904D01*
X-272208Y-196828D01*
X-272159Y-196759D01*
X-272110Y-196696D01*
X-272076Y-196648D01*
X-272041Y-196606D01*
X-272020Y-196572D01*
X-272013Y-196551D01*
X-272006Y-196544D01*
X-271944Y-196426D01*
X-271882Y-196301D01*
X-271833Y-196176D01*
X-271791Y-196058D01*
X-271729Y-195816D01*
X-271701Y-195705D01*
X-271687Y-195594D01*
X-271667Y-195497D01*
X-271660Y-195407D01*
X-271653Y-195323D01*
X-271646Y-195254D01*
X-271639Y-195199D01*
Y-198000D01*
X-275140D01*
X-271639D01*
Y-195122D01*
X-271646Y-194942D01*
X-271660Y-194776D01*
X-271687Y-194616D01*
X-271722Y-194464D01*
X-271757Y-194318D01*
X-271805Y-194186D01*
X-271847Y-194061D01*
X-271895Y-193950D01*
X-271944Y-193853D01*
X-271992Y-193763D01*
X-272041Y-193694D01*
X-272076Y-193631D01*
X-272110Y-193576D01*
X-272138Y-193541D01*
X-272152Y-193521D01*
X-272159Y-193514D01*
X-272263Y-193396D01*
X-272374Y-193292D01*
X-272499Y-193195D01*
X-272624Y-193104D01*
X-272762Y-193021D01*
X-272894Y-192945D01*
X-273026Y-192882D01*
X-273158Y-192820D01*
X-273282Y-192772D01*
X-273393Y-192730D01*
X-273497Y-192695D01*
X-273587Y-192661D01*
X-273664Y-192640D01*
X-273719Y-192626D01*
X-273754Y-192612D01*
X-273768D01*
X-273636Y-192564D01*
X-273511Y-192508D01*
X-273400Y-192460D01*
X-273289Y-192397D01*
X-273192Y-192342D01*
X-273102Y-192286D01*
X-273026Y-192231D01*
X-272949Y-192175D01*
X-272887Y-192127D01*
X-272832Y-192078D01*
X-272783Y-192037D01*
X-272741Y-192002D01*
X-272714Y-191974D01*
X-272686Y-191953D01*
X-272679Y-191940D01*
X-272672Y-191933D01*
X-272575Y-191808D01*
X-272485Y-191683D01*
X-272409Y-191551D01*
X-272346Y-191419D01*
X-272291Y-191288D01*
X-272249Y-191163D01*
X-272208Y-191038D01*
X-272180Y-190920D01*
X-272159Y-190809D01*
X-272138Y-190712D01*
X-272124Y-190622D01*
X-272117Y-190546D01*
Y-190476D01*
X-272110Y-190435D01*
Y-190400D01*
Y-190393D01*
X-272117Y-190199D01*
X-272145Y-190005D01*
X-272180Y-189825D01*
X-272235Y-189658D01*
X-272291Y-189499D01*
X-272360Y-189353D01*
X-272429Y-189214D01*
X-272506Y-189090D01*
X-272582Y-188979D01*
X-272651Y-188875D01*
X-272721Y-188791D01*
X-272776Y-188722D01*
X-272825Y-188667D01*
X-272866Y-188625D01*
X-272894Y-188597D01*
X-272901Y-188590D01*
X-273053Y-188458D01*
X-273220Y-188348D01*
X-273400Y-188251D01*
X-273580Y-188167D01*
X-273768Y-188098D01*
X-273955Y-188043D01*
X-274142Y-187994D01*
X-274315Y-187952D01*
X-274489Y-187925D01*
X-274641Y-187904D01*
X-274787Y-187883D01*
X-274905Y-187876D01*
X-275009Y-187869D01*
X-275051Y-187862D01*
D02*
G37*
%LPD*%
G36*
X-276222Y-189929D02*
X-276111Y-189935D01*
X-276014Y-189956D01*
X-275924Y-189970D01*
X-275841Y-189991D01*
X-275765Y-190019D01*
X-275702Y-190040D01*
X-275647Y-190060D01*
X-275598Y-190088D01*
X-275564Y-190109D01*
X-275529Y-190123D01*
X-275501Y-190144D01*
X-275487Y-190151D01*
X-275473Y-190164D01*
X-275376Y-190268D01*
X-275307Y-190379D01*
X-275252Y-190490D01*
X-275217Y-190601D01*
X-275196Y-190705D01*
X-275189Y-190781D01*
X-275182Y-190816D01*
Y-190837D01*
Y-190851D01*
Y-190858D01*
X-275196Y-191024D01*
X-275231Y-191177D01*
X-275272Y-191301D01*
X-275328Y-191406D01*
X-275383Y-191489D01*
X-275425Y-191544D01*
X-275460Y-191579D01*
X-275473Y-191593D01*
X-275529Y-191634D01*
X-275598Y-191676D01*
X-275675Y-191711D01*
X-275751Y-191738D01*
X-275917Y-191780D01*
X-276084Y-191808D01*
X-276243Y-191828D01*
X-276306Y-191835D01*
X-276368D01*
X-276416Y-191842D01*
X-277838D01*
Y-189915D01*
X-276340D01*
X-276222Y-189929D01*
D02*
G37*
G36*
X-275973Y-193784D02*
X-275848Y-193798D01*
X-275730Y-193812D01*
X-275626Y-193832D01*
X-275536Y-193860D01*
X-275453Y-193881D01*
X-275376Y-193909D01*
X-275314Y-193937D01*
X-275259Y-193957D01*
X-275210Y-193985D01*
X-275175Y-194006D01*
X-275148Y-194020D01*
X-275127Y-194034D01*
X-275120Y-194048D01*
X-275113D01*
X-275057Y-194103D01*
X-275002Y-194158D01*
X-274919Y-194276D01*
X-274863Y-194394D01*
X-274822Y-194512D01*
X-274794Y-194609D01*
X-274787Y-194692D01*
X-274780Y-194727D01*
Y-194748D01*
Y-194762D01*
Y-194769D01*
X-274787Y-194859D01*
X-274794Y-194942D01*
X-274829Y-195095D01*
X-274884Y-195226D01*
X-274946Y-195337D01*
X-275009Y-195420D01*
X-275057Y-195483D01*
X-275099Y-195525D01*
X-275106Y-195531D01*
X-275113Y-195538D01*
X-275182Y-195587D01*
X-275259Y-195635D01*
X-275342Y-195670D01*
X-275432Y-195705D01*
X-275619Y-195753D01*
X-275806Y-195788D01*
X-275896Y-195802D01*
X-275980Y-195809D01*
X-276056Y-195816D01*
X-276118D01*
X-276174Y-195823D01*
X-277838D01*
Y-193770D01*
X-276111D01*
X-275973Y-193784D01*
D02*
G37*
%LPC*%
G36*
X-251815Y271924D02*
X-258552Y265187D01*
X-256782Y263417D01*
X-254522Y265677D01*
X-249123Y260279D01*
X-246907Y262495D01*
X-252305Y267894D01*
X-250045Y270154D01*
X-251815Y271924D01*
D02*
G37*
G36*
X-259543Y263108D02*
X-259655Y263103D01*
X-259744D01*
X-259812Y263093D01*
X-259851D01*
X-259866Y263088D01*
X-260102Y263039D01*
X-260337Y262961D01*
X-260567Y262868D01*
X-260798Y262755D01*
X-261018Y262632D01*
X-261234Y262495D01*
X-261440Y262358D01*
X-261636Y262220D01*
X-261813Y262083D01*
X-261975Y261951D01*
X-262122Y261833D01*
X-262190Y261774D01*
X-262244Y261720D01*
X-262298Y261676D01*
X-262342Y261632D01*
X-262386Y261598D01*
X-262480Y261505D01*
X-262681Y261294D01*
X-262867Y261098D01*
X-263034Y260902D01*
X-263181Y260715D01*
X-263318Y260539D01*
X-263441Y260367D01*
X-263544Y260205D01*
X-263637Y260063D01*
X-263720Y259931D01*
X-263779Y259813D01*
X-263838Y259705D01*
X-263882Y259622D01*
X-263911Y259553D01*
X-263941Y259504D01*
X-263951Y259475D01*
X-263955Y259460D01*
X-264019Y259288D01*
X-264068Y259122D01*
X-264107Y258955D01*
X-264137Y258798D01*
X-264156Y258651D01*
X-264176Y258504D01*
X-264181Y258372D01*
X-264186Y258249D01*
Y258131D01*
X-264176Y258033D01*
X-264171Y257940D01*
X-264166Y257866D01*
X-264156Y257808D01*
X-264147Y257759D01*
X-264142Y257734D01*
Y257724D01*
X-264103Y257577D01*
X-264058Y257435D01*
X-264009Y257298D01*
X-263960Y257170D01*
X-263902Y257052D01*
X-263838Y256940D01*
X-263774Y256837D01*
X-263720Y256744D01*
X-263661Y256655D01*
X-263607Y256582D01*
X-263553Y256518D01*
X-263509Y256464D01*
X-263475Y256420D01*
X-263445Y256391D01*
X-263426Y256371D01*
X-263421Y256366D01*
X-263264Y256219D01*
X-263092Y256087D01*
X-262921Y255984D01*
X-262749Y255891D01*
X-262583Y255812D01*
X-262416Y255753D01*
X-262249Y255704D01*
X-262097Y255670D01*
X-261960Y255640D01*
X-261823Y255621D01*
X-261705Y255611D01*
X-261607Y255601D01*
X-261523Y255596D01*
X-261460Y255601D01*
X-261411D01*
X-261185Y255631D01*
X-260950Y255680D01*
X-260709Y255743D01*
X-260459Y255827D01*
X-260209Y255920D01*
X-259969Y256023D01*
X-259729Y256126D01*
X-259498Y256239D01*
X-259283Y256346D01*
X-259091Y256449D01*
X-258915Y256548D01*
X-258832Y256592D01*
X-258758Y256636D01*
X-258694Y256670D01*
X-258636Y256709D01*
X-258586Y256739D01*
X-258542Y256763D01*
X-258508Y256788D01*
X-258484Y256803D01*
X-258469Y256807D01*
X-258464Y256812D01*
X-258268Y256930D01*
X-258086Y257043D01*
X-257915Y257136D01*
X-257768Y257214D01*
X-257625Y257288D01*
X-257498Y257347D01*
X-257385Y257391D01*
X-257287Y257430D01*
X-257194Y257464D01*
X-257115Y257484D01*
X-257057Y257504D01*
X-257008Y257513D01*
X-256964Y257518D01*
X-256934Y257528D01*
X-256748D01*
X-256674Y257513D01*
X-256601Y257499D01*
X-256473Y257460D01*
X-256365Y257411D01*
X-256282Y257356D01*
X-256223Y257317D01*
X-256199Y257303D01*
X-256184Y257288D01*
X-256174Y257278D01*
X-256169Y257273D01*
X-256120Y257214D01*
X-256071Y257155D01*
X-256002Y257028D01*
X-255958Y256896D01*
X-255929Y256778D01*
X-255914Y256665D01*
Y256577D01*
Y256518D01*
Y256508D01*
Y256499D01*
X-255924Y256410D01*
X-255944Y256322D01*
X-256007Y256150D01*
X-256091Y255989D01*
X-256184Y255846D01*
X-256228Y255783D01*
X-256272Y255719D01*
X-256311Y255670D01*
X-256351Y255631D01*
X-256380Y255591D01*
X-256424Y255547D01*
X-256542Y255439D01*
X-256669Y255341D01*
X-256787Y255263D01*
X-256910Y255199D01*
X-257027Y255140D01*
X-257150Y255096D01*
X-257258Y255067D01*
X-257365Y255037D01*
X-257464Y255018D01*
X-257552Y255008D01*
X-257635Y255003D01*
X-257699Y254998D01*
X-257797D01*
X-257822Y255003D01*
X-257831D01*
X-257924Y255018D01*
X-258018Y255042D01*
X-258199Y255106D01*
X-258381Y255189D01*
X-258542Y255282D01*
X-258616Y255327D01*
X-258685Y255366D01*
X-258743Y255405D01*
X-258792Y255444D01*
X-258832Y255474D01*
X-258861Y255493D01*
X-258885Y255508D01*
X-258890Y255513D01*
X-260866Y253272D01*
X-260641Y253096D01*
X-260420Y252944D01*
X-260190Y252811D01*
X-259964Y252694D01*
X-259744Y252600D01*
X-259533Y252517D01*
X-259327Y252448D01*
X-259131Y252399D01*
X-258954Y252360D01*
X-258787Y252331D01*
X-258645Y252306D01*
X-258523Y252292D01*
X-258420Y252287D01*
X-258346Y252282D01*
X-258302Y252277D01*
X-258282D01*
X-258150Y252282D01*
X-258013Y252301D01*
X-257875Y252321D01*
X-257738Y252360D01*
X-257464Y252448D01*
X-257184Y252561D01*
X-256905Y252703D01*
X-256640Y252860D01*
X-256380Y253022D01*
X-256140Y253194D01*
X-255909Y253365D01*
X-255703Y253532D01*
X-255605Y253610D01*
X-255517Y253679D01*
X-255434Y253753D01*
X-255355Y253821D01*
X-255292Y253885D01*
X-255228Y253939D01*
X-255179Y253988D01*
X-255130Y254027D01*
X-255051Y254106D01*
X-254865Y254302D01*
X-254693Y254493D01*
X-254531Y254684D01*
X-254389Y254866D01*
X-254257Y255037D01*
X-254139Y255204D01*
X-254036Y255366D01*
X-253948Y255513D01*
X-253865Y255645D01*
X-253801Y255768D01*
X-253747Y255871D01*
X-253703Y255964D01*
X-253664Y256033D01*
X-253639Y256087D01*
X-253629Y256116D01*
X-253624Y256131D01*
X-253556Y256317D01*
X-253502Y256499D01*
X-253463Y256675D01*
X-253433Y256852D01*
X-253409Y257023D01*
X-253394Y257185D01*
X-253389Y257337D01*
X-253384Y257479D01*
X-253389Y257612D01*
X-253394Y257724D01*
X-253404Y257832D01*
X-253409Y257915D01*
X-253423Y257989D01*
X-253433Y258038D01*
X-253438Y258072D01*
Y258082D01*
X-253482Y258264D01*
X-253531Y258430D01*
X-253595Y258592D01*
X-253664Y258749D01*
X-253732Y258896D01*
X-253806Y259028D01*
X-253884Y259156D01*
X-253958Y259269D01*
X-254031Y259372D01*
X-254095Y259465D01*
X-254159Y259548D01*
X-254213Y259612D01*
X-254257Y259666D01*
X-254326Y259735D01*
X-254438Y259838D01*
X-254556Y259936D01*
X-254669Y260029D01*
X-254781Y260102D01*
X-254899Y260171D01*
X-255012Y260235D01*
X-255120Y260294D01*
X-255218Y260343D01*
X-255316Y260382D01*
X-255399Y260416D01*
X-255478Y260446D01*
X-255546Y260465D01*
X-255600Y260480D01*
X-255640Y260499D01*
X-255664Y260504D01*
X-255674D01*
X-255821Y260534D01*
X-255968Y260553D01*
X-256115Y260563D01*
X-256257Y260568D01*
X-256409Y260563D01*
X-256547Y260553D01*
X-256684Y260534D01*
X-256812Y260514D01*
X-256929Y260495D01*
X-257037Y260475D01*
X-257140Y260450D01*
X-257218Y260431D01*
X-257287Y260411D01*
X-257336Y260401D01*
X-257370Y260387D01*
X-257380D01*
X-257567Y260318D01*
X-257773Y260240D01*
X-257988Y260142D01*
X-258204Y260034D01*
X-258430Y259916D01*
X-258655Y259798D01*
X-258881Y259671D01*
X-259096Y259553D01*
X-259297Y259431D01*
X-259489Y259318D01*
X-259655Y259220D01*
X-259734Y259171D01*
X-259807Y259127D01*
X-259866Y259087D01*
X-259930Y259053D01*
X-259979Y259024D01*
X-260018Y258994D01*
X-260053Y258970D01*
X-260077Y258955D01*
X-260092Y258950D01*
X-260097Y258945D01*
X-260224Y258867D01*
X-260347Y258793D01*
X-260455Y258724D01*
X-260553Y258675D01*
X-260646Y258631D01*
X-260729Y258587D01*
X-260803Y258553D01*
X-260866Y258528D01*
X-260925Y258509D01*
X-260979Y258494D01*
X-261018Y258484D01*
X-261048Y258475D01*
X-261072Y258470D01*
X-261092D01*
X-261107Y258465D01*
X-261215D01*
X-261303Y258484D01*
X-261381Y258504D01*
X-261450Y258533D01*
X-261499Y258563D01*
X-261538Y258592D01*
X-261563Y258607D01*
X-261572Y258617D01*
X-261646Y258710D01*
X-261705Y258808D01*
X-261744Y258906D01*
X-261764Y259004D01*
X-261773Y259083D01*
X-261778Y259146D01*
X-261783Y259190D01*
X-261778Y259205D01*
X-261749Y259342D01*
X-261700Y259480D01*
X-261636Y259602D01*
X-261558Y259720D01*
X-261484Y259813D01*
X-261455Y259852D01*
X-261425Y259891D01*
X-261278Y260039D01*
X-261185Y260112D01*
X-261102Y260176D01*
X-261018Y260230D01*
X-260935Y260284D01*
X-260857Y260323D01*
X-260783Y260357D01*
X-260714Y260387D01*
X-260646Y260406D01*
X-260587Y260426D01*
X-260533Y260441D01*
X-260494Y260450D01*
X-260459Y260455D01*
X-260430Y260465D01*
X-260410D01*
X-260317Y260470D01*
X-260224Y260465D01*
X-260043Y260431D01*
X-259861Y260377D01*
X-259695Y260308D01*
X-259557Y260240D01*
X-259498Y260200D01*
X-259445Y260176D01*
X-259405Y260146D01*
X-259376Y260127D01*
X-259356Y260117D01*
X-259351Y260112D01*
X-257385Y262323D01*
X-257621Y262490D01*
X-257851Y262632D01*
X-258081Y262755D01*
X-258302Y262858D01*
X-258513Y262931D01*
X-258724Y262995D01*
X-258915Y263039D01*
X-259096Y263074D01*
X-259263Y263093D01*
X-259410Y263103D01*
X-259543Y263108D01*
D02*
G37*
G36*
X-266378Y256028D02*
X-266525D01*
X-266662Y256018D01*
X-266799Y256008D01*
X-266917Y255989D01*
X-267040Y255964D01*
X-267152Y255940D01*
X-267250Y255910D01*
X-267339Y255881D01*
X-267422Y255856D01*
X-267491Y255827D01*
X-267540Y255807D01*
X-267579Y255788D01*
X-267608Y255778D01*
X-267613Y255773D01*
X-267750Y255694D01*
X-267893Y255611D01*
X-268040Y255513D01*
X-268187Y255405D01*
X-268476Y255175D01*
X-268618Y255062D01*
X-268756Y254944D01*
X-268878Y254831D01*
X-268991Y254728D01*
X-269094Y254635D01*
X-269182Y254547D01*
X-269256Y254483D01*
X-273041Y250698D01*
X-265873Y243529D01*
X-263647Y245756D01*
X-266554Y248663D01*
X-266363Y248854D01*
X-266245Y248962D01*
X-266123Y249046D01*
X-266005Y249104D01*
X-265892Y249158D01*
X-265799Y249193D01*
X-265721Y249212D01*
X-265691Y249222D01*
X-265667Y249227D01*
X-265657D01*
X-265652Y249232D01*
X-265588Y249237D01*
X-265525Y249242D01*
X-265377Y249222D01*
X-265221Y249202D01*
X-265064Y249173D01*
X-264921Y249139D01*
X-264863Y249119D01*
X-264809Y249104D01*
X-264760Y249095D01*
X-264730Y249085D01*
X-264706Y249080D01*
X-264701Y249075D01*
X-261332Y248070D01*
X-258827Y250575D01*
X-261980Y251571D01*
X-262078Y251600D01*
X-262200Y251625D01*
X-262323Y251649D01*
X-262440Y251669D01*
X-262553Y251684D01*
X-262641Y251693D01*
X-262681D01*
X-262705Y251698D01*
X-262720Y251703D01*
X-262730D01*
X-262911Y251718D01*
X-263063Y251733D01*
X-263186Y251737D01*
X-263293D01*
X-263367Y251733D01*
X-263416D01*
X-263450Y251728D01*
X-263460D01*
X-263519Y251718D01*
X-263588Y251698D01*
X-263725Y251659D01*
X-263862Y251610D01*
X-263995Y251556D01*
X-264117Y251502D01*
X-264166Y251483D01*
X-264210Y251458D01*
X-264245Y251443D01*
X-264274Y251433D01*
X-264294Y251424D01*
X-264299Y251419D01*
X-264230Y251527D01*
X-264166Y251639D01*
X-264112Y251742D01*
X-264063Y251840D01*
X-264019Y251934D01*
X-263975Y252017D01*
X-263941Y252100D01*
X-263911Y252179D01*
X-263887Y252243D01*
X-263867Y252301D01*
X-263843Y252355D01*
X-263833Y252395D01*
X-263823Y252434D01*
X-263813Y252453D01*
Y252473D01*
X-263808Y252478D01*
X-263759Y252743D01*
X-263735Y253002D01*
X-263730Y253125D01*
Y253233D01*
X-263735Y253346D01*
X-263740Y253449D01*
X-263754Y253542D01*
X-263759Y253625D01*
X-263774Y253699D01*
X-263784Y253758D01*
X-263794Y253816D01*
X-263799Y253851D01*
X-263808Y253870D01*
Y253880D01*
X-263848Y254008D01*
X-263897Y254135D01*
X-263946Y254253D01*
X-264004Y254370D01*
X-264137Y254591D01*
X-264196Y254689D01*
X-264259Y254782D01*
X-264323Y254866D01*
X-264387Y254939D01*
X-264441Y255003D01*
X-264490Y255062D01*
X-264524Y255106D01*
X-264559Y255140D01*
X-264578Y255160D01*
X-264583Y255165D01*
X-264715Y255287D01*
X-264843Y255395D01*
X-264975Y255498D01*
X-265108Y255582D01*
X-265235Y255660D01*
X-265358Y255734D01*
X-265480Y255788D01*
X-265588Y255837D01*
X-265691Y255881D01*
X-265784Y255915D01*
X-265868Y255940D01*
X-265941Y255964D01*
X-266000Y255974D01*
X-266044Y255989D01*
X-266069Y255993D01*
X-266079D01*
X-266231Y256018D01*
X-266378Y256028D01*
D02*
G37*
%LPD*%
G36*
X-267241Y253076D02*
X-267103Y253047D01*
X-266976Y252998D01*
X-266863Y252934D01*
X-266770Y252880D01*
X-266731Y252850D01*
X-266701Y252821D01*
X-266672Y252801D01*
X-266652Y252782D01*
X-266642Y252772D01*
X-266637Y252767D01*
X-266559Y252679D01*
X-266495Y252586D01*
X-266446Y252488D01*
X-266412Y252404D01*
X-266388Y252321D01*
X-266373Y252267D01*
X-266368Y252223D01*
X-266363Y252208D01*
X-266353Y252090D01*
X-266363Y251983D01*
X-266383Y251884D01*
X-266412Y251796D01*
X-266441Y251728D01*
X-266466Y251674D01*
X-266486Y251635D01*
X-266495Y251625D01*
X-266559Y251532D01*
X-266608Y251443D01*
X-266667Y251365D01*
X-266711Y251291D01*
X-266760Y251232D01*
X-266794Y251178D01*
X-266834Y251129D01*
X-266863Y251090D01*
X-266893Y251051D01*
X-266917Y251017D01*
X-266951Y250972D01*
X-267908Y250016D01*
X-269369Y251478D01*
X-268295Y252551D01*
X-268182Y252645D01*
X-268089Y252728D01*
X-267991Y252796D01*
X-267903Y252855D01*
X-267819Y252909D01*
X-267746Y252953D01*
X-267672Y252988D01*
X-267608Y253012D01*
X-267554Y253037D01*
X-267505Y253056D01*
X-267466Y253066D01*
X-267437Y253076D01*
X-267412Y253081D01*
X-267397Y253076D01*
X-267393Y253081D01*
X-267319Y253086D01*
X-267241Y253076D01*
D02*
G37*
%LPC*%
G36*
X169375Y-257965D02*
X165283D01*
Y-260143D01*
X169375D01*
Y-257965D01*
D02*
G37*
G36*
X160949Y-252612D02*
X155000D01*
Y-262750D01*
X160471D01*
X160561Y-262743D01*
X160658Y-262736D01*
X160762Y-262729D01*
X160991Y-262708D01*
X161227Y-262681D01*
X161345Y-262674D01*
X161449Y-262660D01*
X161546Y-262646D01*
X161629Y-262639D01*
X161705Y-262632D01*
X161754Y-262625D01*
X161789Y-262618D01*
X161802D01*
X161948Y-262597D01*
X162080Y-262577D01*
X162205Y-262549D01*
X162323Y-262521D01*
X162426Y-262493D01*
X162524Y-262466D01*
X162614Y-262438D01*
X162690Y-262410D01*
X162759Y-262389D01*
X162822Y-262362D01*
X162870Y-262341D01*
X162912Y-262320D01*
X162946Y-262306D01*
X162967Y-262292D01*
X162981Y-262285D01*
X162988D01*
X163217Y-262140D01*
X163418Y-261973D01*
X163501Y-261890D01*
X163584Y-261807D01*
X163661Y-261731D01*
X163730Y-261654D01*
X163792Y-261578D01*
X163841Y-261509D01*
X163890Y-261446D01*
X163924Y-261398D01*
X163959Y-261356D01*
X163980Y-261322D01*
X163987Y-261301D01*
X163994Y-261294D01*
X164056Y-261176D01*
X164118Y-261051D01*
X164167Y-260926D01*
X164209Y-260808D01*
X164271Y-260566D01*
X164299Y-260455D01*
X164313Y-260344D01*
X164333Y-260247D01*
X164340Y-260157D01*
X164347Y-260073D01*
X164354Y-260004D01*
X164361Y-259949D01*
Y-259872D01*
X164354Y-259692D01*
X164340Y-259526D01*
X164313Y-259366D01*
X164278Y-259214D01*
X164243Y-259068D01*
X164195Y-258936D01*
X164153Y-258811D01*
X164104Y-258700D01*
X164056Y-258603D01*
X164007Y-258513D01*
X163959Y-258444D01*
X163924Y-258381D01*
X163890Y-258326D01*
X163862Y-258291D01*
X163848Y-258270D01*
X163841Y-258264D01*
X163737Y-258146D01*
X163626Y-258042D01*
X163501Y-257945D01*
X163377Y-257854D01*
X163238Y-257771D01*
X163106Y-257695D01*
X162974Y-257633D01*
X162843Y-257570D01*
X162718Y-257522D01*
X162607Y-257480D01*
X162503Y-257445D01*
X162413Y-257411D01*
X162336Y-257390D01*
X162281Y-257376D01*
X162246Y-257362D01*
X162232D01*
X162364Y-257314D01*
X162489Y-257258D01*
X162600Y-257210D01*
X162711Y-257147D01*
X162808Y-257092D01*
X162898Y-257036D01*
X162974Y-256981D01*
X163051Y-256925D01*
X163113Y-256877D01*
X163168Y-256828D01*
X163217Y-256787D01*
X163259Y-256752D01*
X163286Y-256724D01*
X163314Y-256703D01*
X163321Y-256689D01*
X163328Y-256683D01*
X163425Y-256558D01*
X163515Y-256433D01*
X163591Y-256301D01*
X163654Y-256169D01*
X163709Y-256038D01*
X163751Y-255913D01*
X163792Y-255788D01*
X163820Y-255670D01*
X163841Y-255559D01*
X163862Y-255462D01*
X163876Y-255372D01*
X163883Y-255296D01*
Y-255226D01*
X163890Y-255185D01*
Y-255150D01*
Y-255143D01*
X163883Y-254949D01*
X163855Y-254755D01*
X163820Y-254575D01*
X163765Y-254408D01*
X163709Y-254249D01*
X163640Y-254103D01*
X163571Y-253964D01*
X163494Y-253839D01*
X163418Y-253729D01*
X163349Y-253625D01*
X163279Y-253541D01*
X163224Y-253472D01*
X163175Y-253417D01*
X163134Y-253375D01*
X163106Y-253347D01*
X163099Y-253340D01*
X162946Y-253209D01*
X162780Y-253098D01*
X162600Y-253001D01*
X162419Y-252917D01*
X162232Y-252848D01*
X162045Y-252792D01*
X161858Y-252744D01*
X161684Y-252702D01*
X161511Y-252675D01*
X161359Y-252654D01*
X161213Y-252633D01*
X161095Y-252626D01*
X160991Y-252619D01*
X160949Y-252612D01*
D02*
G37*
%LPD*%
G36*
X159778Y-254679D02*
X159889Y-254685D01*
X159986Y-254706D01*
X160076Y-254720D01*
X160159Y-254741D01*
X160235Y-254769D01*
X160298Y-254790D01*
X160353Y-254810D01*
X160402Y-254838D01*
X160436Y-254859D01*
X160471Y-254873D01*
X160499Y-254893D01*
X160513Y-254900D01*
X160527Y-254914D01*
X160624Y-255018D01*
X160693Y-255129D01*
X160748Y-255240D01*
X160783Y-255351D01*
X160804Y-255455D01*
X160811Y-255532D01*
X160818Y-255566D01*
Y-255587D01*
Y-255601D01*
Y-255608D01*
X160804Y-255774D01*
X160769Y-255927D01*
X160728Y-256052D01*
X160672Y-256156D01*
X160617Y-256239D01*
X160575Y-256294D01*
X160540Y-256329D01*
X160527Y-256343D01*
X160471Y-256384D01*
X160402Y-256426D01*
X160325Y-256461D01*
X160249Y-256488D01*
X160083Y-256530D01*
X159916Y-256558D01*
X159757Y-256579D01*
X159694Y-256586D01*
X159632D01*
X159584Y-256592D01*
X158162D01*
Y-254665D01*
X159660D01*
X159778Y-254679D01*
D02*
G37*
G36*
X160027Y-258534D02*
X160152Y-258548D01*
X160270Y-258562D01*
X160374Y-258582D01*
X160464Y-258610D01*
X160547Y-258631D01*
X160624Y-258659D01*
X160686Y-258687D01*
X160742Y-258707D01*
X160790Y-258735D01*
X160825Y-258756D01*
X160852Y-258770D01*
X160873Y-258784D01*
X160880Y-258797D01*
X160887D01*
X160943Y-258853D01*
X160998Y-258908D01*
X161081Y-259026D01*
X161137Y-259144D01*
X161178Y-259262D01*
X161206Y-259359D01*
X161213Y-259442D01*
X161220Y-259477D01*
Y-259498D01*
Y-259512D01*
Y-259519D01*
X161213Y-259609D01*
X161206Y-259692D01*
X161171Y-259845D01*
X161116Y-259976D01*
X161054Y-260087D01*
X160991Y-260170D01*
X160943Y-260233D01*
X160901Y-260275D01*
X160894Y-260281D01*
X160887Y-260288D01*
X160818Y-260337D01*
X160742Y-260385D01*
X160658Y-260420D01*
X160568Y-260455D01*
X160381Y-260503D01*
X160194Y-260538D01*
X160103Y-260552D01*
X160020Y-260559D01*
X159944Y-260566D01*
X159882D01*
X159826Y-260573D01*
X158162D01*
Y-258520D01*
X159889D01*
X160027Y-258534D01*
D02*
G37*
%LPC*%
G36*
X170234Y-185916D02*
X168001D01*
Y-188578D01*
X165352D01*
Y-190811D01*
X168001D01*
Y-193460D01*
X170234D01*
Y-190811D01*
X172896D01*
Y-188578D01*
X170234D01*
Y-185916D01*
D02*
G37*
G36*
X160450Y-184612D02*
X154500D01*
Y-194750D01*
X159971D01*
X160061Y-194743D01*
X160158Y-194736D01*
X160262Y-194729D01*
X160491Y-194708D01*
X160727Y-194681D01*
X160845Y-194674D01*
X160949Y-194660D01*
X161046Y-194646D01*
X161129Y-194639D01*
X161205Y-194632D01*
X161254Y-194625D01*
X161289Y-194618D01*
X161302D01*
X161448Y-194597D01*
X161580Y-194577D01*
X161705Y-194549D01*
X161822Y-194521D01*
X161926Y-194493D01*
X162024Y-194466D01*
X162114Y-194438D01*
X162190Y-194410D01*
X162259Y-194389D01*
X162322Y-194362D01*
X162370Y-194341D01*
X162412Y-194320D01*
X162446Y-194306D01*
X162467Y-194292D01*
X162481Y-194285D01*
X162488D01*
X162717Y-194140D01*
X162918Y-193973D01*
X163001Y-193890D01*
X163085Y-193807D01*
X163161Y-193731D01*
X163230Y-193654D01*
X163293Y-193578D01*
X163341Y-193509D01*
X163390Y-193446D01*
X163424Y-193398D01*
X163459Y-193356D01*
X163480Y-193321D01*
X163487Y-193301D01*
X163494Y-193294D01*
X163556Y-193176D01*
X163618Y-193051D01*
X163667Y-192926D01*
X163709Y-192808D01*
X163771Y-192566D01*
X163799Y-192455D01*
X163813Y-192344D01*
X163833Y-192247D01*
X163840Y-192157D01*
X163847Y-192073D01*
X163854Y-192004D01*
X163861Y-191949D01*
Y-191872D01*
X163854Y-191692D01*
X163840Y-191526D01*
X163813Y-191366D01*
X163778Y-191213D01*
X163743Y-191068D01*
X163695Y-190936D01*
X163653Y-190811D01*
X163605Y-190700D01*
X163556Y-190603D01*
X163507Y-190513D01*
X163459Y-190444D01*
X163424Y-190381D01*
X163390Y-190326D01*
X163362Y-190291D01*
X163348Y-190271D01*
X163341Y-190264D01*
X163237Y-190146D01*
X163126Y-190042D01*
X163001Y-189945D01*
X162876Y-189854D01*
X162738Y-189771D01*
X162606Y-189695D01*
X162474Y-189632D01*
X162342Y-189570D01*
X162218Y-189522D01*
X162107Y-189480D01*
X162003Y-189445D01*
X161913Y-189411D01*
X161836Y-189390D01*
X161781Y-189376D01*
X161746Y-189362D01*
X161732D01*
X161864Y-189314D01*
X161989Y-189258D01*
X162100Y-189210D01*
X162211Y-189147D01*
X162308Y-189092D01*
X162398Y-189036D01*
X162474Y-188981D01*
X162551Y-188925D01*
X162613Y-188877D01*
X162668Y-188828D01*
X162717Y-188787D01*
X162759Y-188752D01*
X162786Y-188724D01*
X162814Y-188703D01*
X162821Y-188689D01*
X162828Y-188683D01*
X162925Y-188558D01*
X163015Y-188433D01*
X163091Y-188301D01*
X163154Y-188169D01*
X163209Y-188038D01*
X163251Y-187913D01*
X163293Y-187788D01*
X163320Y-187670D01*
X163341Y-187559D01*
X163362Y-187462D01*
X163376Y-187372D01*
X163383Y-187296D01*
Y-187226D01*
X163390Y-187185D01*
Y-187150D01*
Y-187143D01*
X163383Y-186949D01*
X163355Y-186755D01*
X163320Y-186575D01*
X163265Y-186408D01*
X163209Y-186249D01*
X163140Y-186103D01*
X163071Y-185964D01*
X162994Y-185840D01*
X162918Y-185729D01*
X162849Y-185625D01*
X162779Y-185541D01*
X162724Y-185472D01*
X162675Y-185417D01*
X162634Y-185375D01*
X162606Y-185347D01*
X162599Y-185340D01*
X162446Y-185208D01*
X162280Y-185098D01*
X162100Y-185000D01*
X161919Y-184917D01*
X161732Y-184848D01*
X161545Y-184792D01*
X161358Y-184744D01*
X161185Y-184702D01*
X161011Y-184675D01*
X160859Y-184654D01*
X160713Y-184633D01*
X160595Y-184626D01*
X160491Y-184619D01*
X160450Y-184612D01*
D02*
G37*
%LPD*%
G36*
X159278Y-186679D02*
X159389Y-186686D01*
X159486Y-186706D01*
X159576Y-186720D01*
X159659Y-186741D01*
X159735Y-186769D01*
X159798Y-186789D01*
X159853Y-186810D01*
X159902Y-186838D01*
X159936Y-186859D01*
X159971Y-186873D01*
X159999Y-186894D01*
X160013Y-186901D01*
X160026Y-186914D01*
X160124Y-187018D01*
X160193Y-187129D01*
X160248Y-187240D01*
X160283Y-187351D01*
X160304Y-187455D01*
X160311Y-187532D01*
X160318Y-187566D01*
Y-187587D01*
Y-187601D01*
Y-187608D01*
X160304Y-187774D01*
X160269Y-187927D01*
X160228Y-188051D01*
X160172Y-188156D01*
X160117Y-188239D01*
X160075Y-188294D01*
X160040Y-188329D01*
X160026Y-188343D01*
X159971Y-188384D01*
X159902Y-188426D01*
X159825Y-188461D01*
X159749Y-188488D01*
X159583Y-188530D01*
X159416Y-188558D01*
X159257Y-188578D01*
X159194Y-188585D01*
X159132D01*
X159083Y-188592D01*
X157662D01*
Y-186665D01*
X159160D01*
X159278Y-186679D01*
D02*
G37*
G36*
X159527Y-190534D02*
X159652Y-190548D01*
X159770Y-190562D01*
X159874Y-190583D01*
X159964Y-190610D01*
X160047Y-190631D01*
X160124Y-190659D01*
X160186Y-190686D01*
X160242Y-190707D01*
X160290Y-190735D01*
X160325Y-190756D01*
X160352Y-190770D01*
X160373Y-190784D01*
X160380Y-190798D01*
X160387D01*
X160443Y-190853D01*
X160498Y-190908D01*
X160581Y-191026D01*
X160637Y-191144D01*
X160678Y-191262D01*
X160706Y-191359D01*
X160713Y-191442D01*
X160720Y-191477D01*
Y-191498D01*
Y-191512D01*
Y-191519D01*
X160713Y-191609D01*
X160706Y-191692D01*
X160671Y-191845D01*
X160616Y-191976D01*
X160553Y-192087D01*
X160491Y-192171D01*
X160443Y-192233D01*
X160401Y-192274D01*
X160394Y-192281D01*
X160387Y-192288D01*
X160318Y-192337D01*
X160242Y-192385D01*
X160158Y-192420D01*
X160068Y-192455D01*
X159881Y-192503D01*
X159694Y-192538D01*
X159604Y-192552D01*
X159520Y-192559D01*
X159444Y-192566D01*
X159382D01*
X159326Y-192573D01*
X157662D01*
Y-190520D01*
X159389D01*
X159527Y-190534D01*
D02*
G37*
D51*
X241000Y183000D02*
G03*
X241000Y183000I-7000J0D01*
G01*
X15000Y-93000D02*
G03*
X15000Y-93000I-7000J0D01*
G01*
X39000D02*
G03*
X39000Y-93000I-7000J0D01*
G01*
X27000Y-104000D02*
G03*
X27000Y-104000I-7000J0D01*
G01*
X2000Y-103000D02*
G03*
X2000Y-103000I-7000J0D01*
G01*
X-11000Y-93000D02*
G03*
X-11000Y-93000I-7000J0D01*
G01*
X-24000Y-103000D02*
G03*
X-24000Y-103000I-7000J0D01*
G01*
X-65000Y-106250D02*
G03*
X-65000Y-106250I-7000J0D01*
G01*
Y-124500D02*
G03*
X-65000Y-124500I-7000J0D01*
G01*
X-217000Y-37000D02*
G03*
X-217000Y-37000I-7000J0D01*
G01*
Y19000D02*
G03*
X-217000Y19000I-7000J0D01*
G01*
X-185858Y-221213D02*
X-178787Y-221213D01*
X-185858Y-221213D02*
X-178787Y-214142D01*
X-178787Y-221213D01*
X178787D02*
X178787Y-214142D01*
X185858Y-221213D01*
X178787Y-221213D02*
X185858Y-221213D01*
X-221213Y178787D02*
X-221213Y185858D01*
X-214142Y178787D01*
X-221213Y178787D02*
X-214142Y178787D01*
X214142D02*
X221213Y178787D01*
X214142Y178787D02*
X221213Y185858D01*
X221213Y178787D01*
X232875Y-65357D02*
X261600D01*
Y-85000D02*
Y-65357D01*
X232875D02*
Y-59572D01*
X169375D02*
X232875D01*
X169375Y-150343D02*
Y-59572D01*
Y-150343D02*
X232875D01*
Y-144557D01*
X261800D01*
Y-125000D01*
X-261600Y45357D02*
X-232875D01*
X-261600D02*
Y65000D01*
X-232875Y39572D02*
Y45357D01*
Y39572D02*
X-169375D01*
Y130343D01*
X-232875D02*
X-169375D01*
X-232875Y124557D02*
Y130343D01*
X-261800Y124557D02*
X-232875D01*
X-261800Y105000D02*
Y124557D01*
X232875Y124643D02*
X261600D01*
Y105000D02*
Y124643D01*
X232875D02*
Y130428D01*
X169375D02*
X232875D01*
X169375Y39657D02*
Y130428D01*
Y39657D02*
X232875D01*
Y45443D01*
X261800D01*
Y65000D01*
X-261600Y-144643D02*
X-232875D01*
X-261600D02*
Y-125000D01*
X-232875Y-150428D02*
Y-144643D01*
Y-150428D02*
X-169375D01*
Y-59657D01*
X-232875D02*
X-169375D01*
X-232875Y-65443D02*
Y-59657D01*
X-261800Y-65443D02*
X-232875D01*
X-261800Y-85000D02*
Y-65443D01*
X249419Y192984D02*
X273540Y192984D01*
X249419Y175863D02*
X273540D01*
X137000Y147000D02*
Y201000D01*
X85000Y147000D02*
Y201000D01*
X-98969Y-179987D02*
Y-174013D01*
X-126031Y-179987D02*
Y-174013D01*
X-294000Y64700D02*
X-264000Y64700D01*
X-294000Y64700D02*
X-294000Y-85300D01*
X-264000D01*
X-229561Y3061D02*
X-229561Y-21061D01*
X-212439D02*
X-212439Y3061D01*
X-173950Y-256500D02*
X-147050D01*
X-173950Y-240839D02*
Y-240500D01*
Y-256500D02*
Y-256161D01*
Y-240500D02*
X-147050D01*
Y-240839D02*
Y-240500D01*
Y-256500D02*
Y-256161D01*
X-183081Y-259689D02*
X-158959Y-259689D01*
X-183081Y-276811D02*
X-158959Y-276811D01*
X-163531Y-143219D02*
X-130469D01*
X-163531Y-166781D02*
X-130469D01*
X-189561Y162669D02*
Y186791D01*
X-172439Y162669D02*
Y186791D01*
X-168736Y159541D02*
X-160264D01*
X-168736Y141959D02*
X-160264D01*
X-75061Y125561D02*
X-50939D01*
X-75061Y108439D02*
X-50939D01*
X-206251Y-228121D02*
X-206251Y-215393D01*
X-233121Y-201251D02*
X-220393D01*
X-255749Y-236607D02*
X-255749Y-223879D01*
X-241607Y-250749D02*
X-228879D01*
X-220393D02*
X-206251Y-236607D01*
X-255749D02*
X-241607Y-250749D01*
X-220393Y-201251D02*
X-206251Y-215393D01*
X-255749D02*
X-241607Y-201251D01*
X204250Y171750D02*
X212250D01*
X204250Y164500D02*
Y171750D01*
Y142750D02*
X212250D01*
X204250D02*
Y150000D01*
X-154505Y-198250D02*
X-146505D01*
Y-191000D01*
X-154505Y-169250D02*
X-146505D01*
Y-176500D02*
Y-169250D01*
X-144469Y-236281D02*
Y-203219D01*
X-168031Y-236281D02*
Y-203219D01*
X-133950Y-215000D02*
X-107050D01*
X-133950Y-199339D02*
Y-199000D01*
Y-215000D02*
Y-214661D01*
Y-199000D02*
X-107050Y-199000D01*
Y-199339D02*
Y-199000D01*
Y-215000D02*
Y-214661D01*
X-119500Y-253450D02*
Y-226550D01*
X-135500Y-253450D02*
X-135161D01*
X-119839D02*
X-119500D01*
X-135500D02*
Y-226550D01*
X-135161D01*
X-119839D02*
X-119500D01*
X-117061Y-219939D02*
X-117061Y-244061D01*
X-99939D02*
X-99939Y-219939D01*
X66189Y-237061D02*
Y-212939D01*
X83311Y-237061D02*
Y-212939D01*
X48939Y-212939D02*
X48939Y-237061D01*
X66061D02*
X66061Y-212939D01*
X-311Y-237561D02*
X-311Y-213439D01*
X16811D02*
X16811Y-237561D01*
X-17561Y-237561D02*
Y-213439D01*
X-439Y-237561D02*
Y-213439D01*
X-34811Y-237561D02*
Y-213439D01*
X-17689Y-237561D02*
Y-213439D01*
X-52061Y-237561D02*
Y-213439D01*
X-34939Y-237561D02*
Y-213439D01*
X-69311Y-237561D02*
Y-213439D01*
X-52189Y-237561D02*
Y-213439D01*
X-86561Y-213439D02*
X-86561Y-237561D01*
X-69439D02*
X-69439Y-213439D01*
X-236121Y205251D02*
X-223393Y205251D01*
X-209251Y232121D02*
X-209251Y219393D01*
X-244607Y254749D02*
X-231879Y254749D01*
X-258749Y240607D02*
X-258749Y227879D01*
X-258749Y219393D02*
X-244607Y205251D01*
X-258749Y240607D02*
X-244607Y254749D01*
X-223393Y205251D02*
X-209251Y219393D01*
X-223393Y254749D02*
X-209251Y240607D01*
X-255750Y-19000D02*
Y1000D01*
X-232250Y1000D02*
X-232250Y-19000D01*
X119209Y224014D02*
Y232486D01*
X136791Y224014D02*
Y232486D01*
X177025Y199081D02*
X194081Y182025D01*
X164918Y186975D02*
X181975Y169918D01*
X154264Y171291D02*
X162736D01*
X154264Y153709D02*
X162736D01*
X-267665Y-74468D02*
X-268997Y-75801D01*
Y-78467D01*
X-267665Y-79800D01*
X-262333D01*
X-261000Y-78467D01*
Y-75801D01*
X-262333Y-74468D01*
X-261000Y-71803D02*
X-268997D01*
Y-67804D01*
X-267665Y-66471D01*
X-264999D01*
X-263666Y-67804D01*
Y-71803D01*
X-261000Y-58474D02*
Y-63805D01*
X-266332Y-58474D01*
X-267665D01*
X-268997Y-59806D01*
Y-62472D01*
X-267665Y-63805D01*
X-261000Y-55808D02*
Y-53142D01*
Y-54475D01*
X-268997D01*
X-267665Y-55808D01*
Y-49143D02*
X-268997Y-47810D01*
Y-45145D01*
X-267665Y-43812D01*
X-262333D01*
X-261000Y-45145D01*
Y-47810D01*
X-262333Y-49143D01*
X-267665D01*
X-261000Y-35814D02*
Y-41146D01*
X-266332Y-35814D01*
X-267665D01*
X-268997Y-37147D01*
Y-39813D01*
X-267665Y-41146D01*
X-268997Y-25151D02*
X-262333D01*
X-261000Y-23818D01*
Y-21152D01*
X-262333Y-19819D01*
X-268997D01*
X-267665Y-11822D02*
X-268997Y-13155D01*
Y-15821D01*
X-267665Y-17154D01*
X-266332D01*
X-264999Y-15821D01*
Y-13155D01*
X-263666Y-11822D01*
X-262333D01*
X-261000Y-13155D01*
Y-15821D01*
X-262333Y-17154D01*
X-268997Y-9156D02*
X-261000D01*
Y-5157D01*
X-262333Y-3825D01*
X-263666D01*
X-264999Y-5157D01*
Y-9156D01*
Y-5157D01*
X-266332Y-3825D01*
X-267665D01*
X-268997Y-5157D01*
Y-9156D01*
X-264999Y-1159D02*
Y4173D01*
X-267665Y8172D02*
X-266332D01*
Y6839D01*
Y9505D01*
Y8172D01*
X-262333D01*
X-261000Y9505D01*
Y14836D02*
Y17502D01*
X-262333Y18835D01*
X-264999D01*
X-266332Y17502D01*
Y14836D01*
X-264999Y13503D01*
X-262333D01*
X-261000Y14836D01*
X-264999Y21501D02*
Y26832D01*
X-268997Y29498D02*
X-262333D01*
X-261000Y30831D01*
Y33497D01*
X-262333Y34830D01*
X-268997D01*
X-261000Y37496D02*
X-266332D01*
X-268997Y40161D01*
X-266332Y42827D01*
X-261000D01*
X-264999D01*
Y37496D01*
X-261000Y45493D02*
X-268997D01*
Y49492D01*
X-267665Y50824D01*
X-264999D01*
X-263666Y49492D01*
Y45493D01*
Y48159D02*
X-261000Y50824D01*
X-268997Y53490D02*
Y58822D01*
Y56156D01*
X-261000D01*
D55*
X67250Y-105250D02*
X107237D01*
X68000Y83743D02*
X107987D01*
X87993Y103737D02*
Y63750D01*
D62*
X-130756Y-248500D02*
G03*
X-130756Y-248500I-1250J0D01*
G01*
X-186616Y-227414D02*
G03*
X-186616Y-227414I-1250J0D01*
G01*
X-90756Y-207000D02*
G03*
X-90756Y-207000I-1250J0D01*
G01*
X-126250Y-211506D02*
G03*
X-126250Y-211506I-1250J0D01*
G01*
X-234164Y186866D02*
G03*
X-234164Y186866I-1250J0D01*
G01*
X-237750Y9750D02*
G03*
X-237750Y9750I-1250J0D01*
G01*
D66*
X164700Y182220D02*
G03*
X164700Y182220I-1270J0D01*
G01*
D67*
X-289350Y132250D02*
X-263100D01*
X-289350D02*
Y148250D01*
X-263100D01*
Y132250D02*
Y148250D01*
X-158000Y163000D02*
Y189250D01*
X-142000D01*
Y163000D02*
Y189250D01*
X-158000Y163000D02*
X-142000D01*
X155000Y114750D02*
Y141000D01*
X139000Y114750D02*
X155000D01*
X139000D02*
Y141000D01*
X155000D01*
D68*
X-276099Y159249D02*
X-279099D01*
X-277599D01*
Y151751D01*
X-279099Y150252D01*
X-280598D01*
X-282098Y151751D01*
X-268602Y150252D02*
Y159249D01*
X-273100Y154750D01*
X-267103D01*
X16436Y-125202D02*
X20677Y-120961D01*
X18556Y-123082D01*
X24918Y-129444D01*
X29160Y-125202D02*
X22798Y-118841D01*
X25979Y-115660D01*
X28099D01*
X30220Y-117780D01*
Y-119901D01*
X27039Y-123082D01*
X35521Y-118841D02*
X37642Y-116720D01*
X36582Y-117780D01*
X30220Y-111418D01*
Y-113539D01*
X35521Y-108237D02*
Y-106117D01*
X37642Y-103996D01*
X39763D01*
X44004Y-108237D01*
Y-110358D01*
X41883Y-112479D01*
X39763D01*
X35521Y-108237D01*
X-22913Y-75052D02*
X-18672Y-70810D01*
X-20793Y-72931D01*
X-14431Y-79293D01*
X-10190Y-75052D02*
X-16552Y-68690D01*
X-13371Y-65509D01*
X-11250D01*
X-9129Y-67629D01*
Y-69750D01*
X-12310Y-72931D01*
X-4888Y-67629D02*
X-2767D01*
X-647Y-65509D01*
Y-63388D01*
X-4888Y-59147D01*
X-7009D01*
X-9129Y-61267D01*
Y-63388D01*
X-8069Y-64448D01*
X-5949D01*
X-2767Y-61267D01*
X1586Y-77801D02*
X5828Y-73560D01*
X3707Y-75681D01*
X10069Y-82043D01*
X14310Y-77801D02*
X7948Y-71440D01*
X11129Y-68259D01*
X13250D01*
X15371Y-70379D01*
Y-72500D01*
X12190Y-75681D01*
X15371Y-66138D02*
Y-64017D01*
X17491Y-61897D01*
X19612D01*
X20672Y-62957D01*
Y-65078D01*
X22793D01*
X23853Y-66138D01*
Y-68259D01*
X21732Y-70379D01*
X19612D01*
X18552Y-69319D01*
Y-67198D01*
X16431D01*
X15371Y-66138D01*
X18552Y-67198D02*
X20672Y-65078D01*
X-36414Y-125051D02*
X-32172Y-120810D01*
X-34293Y-122931D01*
X-27931Y-129293D01*
X-23690Y-125051D02*
X-30052Y-118690D01*
X-26871Y-115509D01*
X-24750D01*
X-22629Y-117629D01*
Y-119750D01*
X-25810Y-122931D01*
X-23690Y-112328D02*
X-19448Y-108087D01*
X-18388Y-109147D01*
Y-117629D01*
X-17328Y-118690D01*
X30587Y-79802D02*
X34828Y-75560D01*
X32707Y-77681D01*
X39069Y-84043D01*
X43310Y-79802D02*
X36948Y-73440D01*
X40129Y-70259D01*
X42250D01*
X44371Y-72379D01*
Y-74500D01*
X41190Y-77681D01*
X47551Y-62836D02*
X46491Y-66017D01*
Y-70259D01*
X48612Y-72379D01*
X50732D01*
X52853Y-70259D01*
Y-68138D01*
X51793Y-67078D01*
X49672D01*
X46491Y-70259D01*
X-13414Y-126052D02*
X-9172Y-121810D01*
X-11293Y-123931D01*
X-4931Y-130293D01*
X-690Y-126052D02*
X-7052Y-119690D01*
X-3871Y-116509D01*
X-1750D01*
X371Y-118629D01*
Y-120750D01*
X-2810Y-123931D01*
X3552Y-109087D02*
X-690Y-113328D01*
X2491Y-116509D01*
X3552Y-113328D01*
X4612Y-112267D01*
X6733D01*
X8853Y-114388D01*
Y-116509D01*
X6733Y-118629D01*
X4612D01*
X280751Y170504D02*
Y176502D01*
Y173503D01*
X289748D01*
Y179501D02*
X280751D01*
Y184000D01*
X282251Y185499D01*
X285250D01*
X286749Y184000D01*
Y179501D01*
X282251Y188498D02*
X280751Y189998D01*
Y192997D01*
X282251Y194496D01*
X283750D01*
X285250Y192997D01*
Y191497D01*
Y192997D01*
X286749Y194496D01*
X288249D01*
X289748Y192997D01*
Y189998D01*
X288249Y188498D01*
X-106996Y-93751D02*
X-100998D01*
X-103997D01*
Y-102748D01*
X-97999D02*
Y-93751D01*
X-93500D01*
X-92001Y-95251D01*
Y-98250D01*
X-93500Y-99749D01*
X-97999D01*
X-83004Y-102748D02*
X-89002D01*
X-83004Y-96750D01*
Y-95251D01*
X-84503Y-93751D01*
X-87502D01*
X-89002Y-95251D01*
X-104247Y-115751D02*
X-98249D01*
X-101248D01*
Y-124748D01*
X-95250D02*
Y-115751D01*
X-90751D01*
X-89251Y-117251D01*
Y-120250D01*
X-90751Y-121749D01*
X-95250D01*
X-86252Y-124748D02*
X-83253D01*
X-84753D01*
Y-115751D01*
X-86252Y-117251D01*
X-152749Y198750D02*
Y195751D01*
Y197251D01*
X-145251D01*
X-143752Y195751D01*
Y194252D01*
X-145251Y192752D01*
X-151249Y201749D02*
X-152749Y203249D01*
Y206248D01*
X-151249Y207748D01*
X-149750D01*
X-148250Y206248D01*
Y204749D01*
Y206248D01*
X-146751Y207748D01*
X-145251D01*
X-143752Y206248D01*
Y203249D01*
X-145251Y201749D01*
X124001Y126000D02*
Y123001D01*
Y124501D01*
X131499D01*
X132999Y123001D01*
Y121502D01*
X131499Y120002D01*
X132999Y134998D02*
Y129000D01*
X127000Y134998D01*
X125501D01*
X124001Y133498D01*
Y130499D01*
X125501Y129000D01*
M02*
