M48
;Layer_Color=9474304
;FILE_FORMAT=4:4
METRIC,LZ
;TYPE=PLATED
T1F00S00C0.3000
T2F00S00C1.0000
;TYPE=NON_PLATED
%
T01
X00238Y-00194776
X00256Y-0020225
X00246999Y-00161
X0025925Y-00154
X0028825Y-00143
X0028625Y-0008275
X00185Y-00163
X00176
X0013875Y-001505
X0008575Y-00198
X0005375Y-001665
X000525Y-0012675
X0007575Y-0009475
X00093Y-00083
X0004875Y-00231
X-000005Y-0023125
X-00018Y-00231
X-00035
X-00052
X-00069
X-0007975Y-0024575
X-00108Y-002485
X-0009025Y-002735
X-001275Y-00213
X-0014875Y-001935
X-00141Y-0017075
X-00168Y-0016
X-0010125Y-0013975
X-0010265Y-0010975
X-0009665Y-00101
X-000875Y-0009525
X-0007225Y-00143
X-000135Y-0018375
X000165Y-00202
X0010425Y-0028325
X0021125Y-002525
X002155Y-0021725
X0018Y-0022
X-0018275Y-0022575
X-00188Y-002685
X-00237Y-00265
X-0027575Y-0020775
X-0024925Y-0018075
X-0023425Y-0016675
X-00228833Y-00159667
X-002Y-00171
X-0017875Y-00156
X-002785Y-001455
X-0023875Y-00049
X-0023099Y-0001825
X-0017525Y-0002275
X-00178Y-0000775
X-0017825Y0001225
X-00197Y-0004875
X-00189Y0014775
X-002115Y0015225
X-0022125Y0018125
X-0023875Y001685
X-002775Y0017375
X-0025375Y002055
X-0027725Y00236
X-00240673Y00268827
X-0021575Y0027512
X-00174Y001935
X-0028275Y0010925
X-001195Y0009625
X-0011075Y001035
X-0011325Y000755
X-000815Y0007575
X-000885Y0008425
X-0006475Y000825
X-00067Y0006875
X-0004Y00069
Y0008225
X-000015Y0008775
X-0000175Y0007525
X0001575Y0008775
X00063Y000915
X00057Y001235
X0009075Y00121
X0008975Y001415
X000685Y0015125
X000795Y00173
X00085Y00196
X0008975Y00237
X00106Y0024375
X001Y002615
X0010025Y002735
X0007725Y0027375
X00077Y002615
Y002515
X001195Y0025525
X0014175Y00245
X0016675Y0023775
X001685Y00205
X00152Y0021575
Y0018425
X0015625Y0014775
X0013125Y0014125
X00131Y00122
X0011025Y00067
X0003875Y0005275
Y0004175
X0003625Y000215
X0000175Y000185
Y0000775
X000015Y000305
Y0004175
X-0001925Y0004525
X-00017Y-0000675
X-000765Y-0000915
X-0008425Y-00016
X-001235Y-000225
X-0012475Y000345
Y00044
X-00097Y000365
X-00169Y000265
Y0001675
X-00168Y-0000825
X-0005975Y-0005375
X0000525Y-00052
X00015625Y-00042
X0003175Y-000575
X00061Y-000135
X0012575Y-0003
X00093Y-00073
X0021325Y-0002525
X002115Y0016675
X0021925Y00174
X0019825Y0018
X001915Y001725
X00182986Y001625
X0021Y002555
X00222577Y00265
X0012525Y00286
X0003Y002475
X0002075Y0025475
X00022Y00228
X0000335Y00235393
X-00002175Y00245
X-00021Y00234
X-00041Y00229
Y00239
X-000505Y0025125
X-0006375Y0024225
X-0007175Y002335
X-00071Y0020325
X-000635Y00178
X-0007125Y0014925
X-000315Y001465
X-00003Y00145
X00013
X00023
X00034
X-000125Y002055
X-0016775Y0024575
X-0016375Y002665
X-0016925Y0028825
X002575Y00265
X002655Y0020575
X00268749Y00194403
X00247Y00207
X00245Y0015725
X00241Y00146
Y00139
Y00132
X0027925Y001315
X0027725Y001545
X0029075Y001535
X002865Y00106
X00273Y0011075
X002865Y0006425
X0025375Y000215
X00241Y000235
Y000305
Y000165
X0023425Y001665
T02
X-00279Y-000738
X-00283Y-000484
X-00279Y-00023
X-00283Y000024
X-00279Y000278
X-00283Y000532
M30
