M48
;Layer_Color=9474304
;FILE_FORMAT=4:4
METRIC,LZ
;TYPE=PLATED
T1F00S00C0.3000
T4F00S00C0.7112
T5F00S00C1.0000
;TYPE=NON_PLATED
T6F00S00C0.6000
T7F00S00C0.6500
T9F00S00C3.2000
%
T01
X-0065Y-00199
X-00631Y-00118
X-00612Y-00135
X-00606Y-00043
Y-00032
X-00605Y-000025
Y00005
X-00597Y00011
Y-00009
X-00578Y-00022
X-00545
X-00526Y-00043
X-00501Y-00067
X-00492Y-00022
X-00447Y-0002
X-00443Y00009
X-00449Y0002
X-00457Y00026
X-00473Y0001
X-00521Y00007
X-00546Y00025
X-00578
X-00597Y00034
X-00609
Y00043
X-00629Y00094
X-00652Y00115
X-00654Y00131
X-00592Y00115
X-00529
X-00534846Y00057864
X-00451Y00059
X-00416Y00009
X-00401Y-00001
X-00392
X-00383Y-00039
X-00413Y-00029
X-0041Y-00065
X-00384Y-00088
X-00358Y-00075
X-0041Y-0012
X-00444Y-00155
X-00513Y-00148
X-00488Y-00111
X-00456Y-00085
X-00458Y-00053
X-00447892Y00153008
X-00361Y00154
X-00368Y00127
Y00075
X-0053Y-00202
X-00305Y-00207
X-003Y-00139
X-00307Y-00086
X-00277Y-00085
X-0023Y-00115
Y-0016
X-00246Y-00145
X-00207Y-00093
X-00198
X-00186Y-00012
X-00286Y-00003
X-00311Y-00014
X-00277397Y00047763
X-00174336Y0008967
X-00036Y00123
X-00043363Y-00080824
X-0009Y-00093
X-00126Y-00064
X-00143Y-00133
Y-00174
X-00183Y-00203
X-00046Y-00188
X-00039Y00201
X-0012Y00179
X-00208Y00189
X-00321Y00209
X-00522Y00205
X-00647Y00194
T04
X-00179Y00254
X-00121
T05
X-005829Y-001825
X-005575
X-005535Y-001571
X-005789
X-005829Y-001317
X-005575
X-005535Y-001063
X-005789
X-005829Y-000809
X-005575
X-00207Y-0012
Y-001454
X-001816
X-001562
X-001308
X-001054
X-0008
Y-0012
X-001054
X-001308
Y-000946
X-001562
Y-0012
X-001816
T06
X-0019675Y00222
X-0018825
X-0017975
X-0017125
X-0016275
X-0015425
X-0014575
X-0013725
X-0012875
X-0012025
X-0011175
X-0010325
T07
X-006341Y-000289
Y000289
T09
X-00473Y-001934
X-0003Y0
X-00489Y001934
M30
