M48
;Layer_Color=9474304
;FILE_FORMAT=4:4
METRIC,LZ
;TYPE=PLATED
T3F00S00C0.6000
;TYPE=NON_PLATED
T8F00S00C2.0000
%
G90
G05
T03
G00X-00192Y-003975
M15
G01Y-003895
M16
G00X-00192Y-003532
M15
G01Y-003452
M16
G00X-00278Y-003532
M15
G01Y-003452
M16
G00X-00278Y-003975
M15
G01Y-003895
M16
T08
G00X-00345Y-001805
M15
G01X-00355
M16
G00X-00345Y000425
M15
G01X-00355
M16
G00X00355Y000425
M15
G01X00345
M16
G00X00355Y-001805
M15
G01X00345
M16
G00X00355Y002655
M15
G01X00345
M16
G00X-00345Y002655
M15
G01X-00355
M16
M17
M30
