M48
;Layer_Color=9474304
;FILE_FORMAT=4:4
METRIC,LZ
;TYPE=PLATED
T1F00S00C0.3000
T2F00S00C0.4000
T4F00S00C1.0000
;TYPE=NON_PLATED
T5F00S00C0.6500
T6F00S00C1.1520
T7F00S00C2.0000
T9F00S00C3.5000
%
T01
X0024Y-0032
X00267Y-003415
X002985Y-0034575
X0030975Y-00375
X0035175Y-0039075
X0036Y-004
X0032Y-0032
X0028Y-0024
X0024
X002
X0022Y-0028
X0018
X0014
X0012Y-0024
X0016
Y-0032
X0012
X001Y-0036
X0006
X0002
X-0002
X-0006
X-001
X-0012Y-004
X-0016
X-0016575Y-0036325
X-00163906Y-0034225
X-0016875Y-003375
X-00158Y-0034725
X-0016Y-0032
X-0016725Y-0031475
X-001875Y-0030175
X-00201Y-0032125
X-0014325Y-0033125
X-0014Y-0028
X-0016Y-0024
X-00106Y-0022675
X-00086
X-00075Y-002225
X-00056Y-0020725
X-0003573Y-0023573
X-0003525Y-00263
X-0000725Y-00246
X-0001075Y-002205
X-0001925
X00017Y-002255
X000435Y-0025575
X0006Y-0028
X000465Y-00302
X000365
X0004Y-0032
X-000135Y-0031475
X-0000675Y-0030125
X-0004Y-0032
X-0007625Y-0028125
X0009475Y-002605
X0008Y-0024
X0012Y-004
X0016
X0017775Y-004005
X0018425Y-0039
X0018Y-0036
X-0020575Y-002085
X-0022725Y-0022075
X-0024Y-0022575
X-0023925Y-0023275
X-0025825Y-0022075
X-00293Y-0022375
X-0032Y-0024
X-0034725Y-0024825
X-00302Y-00261
X-002765Y-002545
X-0026225Y-0028325
X-00256Y-003065
X-00259Y-003295
X-0028Y-0032
X-0029125Y-003095
X-0029575Y-0033925
X-0029925Y-0035725
X-0029875Y-0036375
Y-003705
X-002905Y-0037675
Y-0038575
X-0029627Y-0039652
X-0024Y-004
X-00211Y-0032959
X-00213Y-003065
X-003465Y-00315
X-0036Y-004
X-003115Y-002055
X-0029175Y-00171
X-002715Y-00163
X-0025425Y-001395
X-002485Y-00145
X-002425Y-00151
X-0025975Y-001335
X-002665Y-0012625
X-0025675Y-000975
X-0024Y-0008
X-0023375Y-000585
X-0022Y-0004
X-002135Y-0002
X-00213Y0003925
X-0020875Y00035
X-002245Y0004775
X-0022459Y0005491
X-002217Y00060733
X-0021717Y00065394
X-00212574Y0006999
X-0022125Y0008475
X-0021575Y0011325
X-0022Y0012
X-0024Y0016
X-0028
X-003Y0012
X-0032Y0008
X-0028
X-002795Y000625
X-0028025Y0002175
X-0032Y-0
X-00345Y-00007
X-0034Y-0004
X-0032625Y-0011475
X-0034775Y-001225
X-0029675Y-0014
X-0030075Y-0014425
X-0028Y-0008
X-002125Y-001405
X-0026Y-002
X-0019175Y-001635
X-00186214Y-001575
X-0017975Y-0015175
X-0018Y-0012
X-0016475Y-0009525
X-0015075Y-0009025
X-00122744Y-00059021
X-0011625Y-0005875
X-0010975
X-001Y-0004
X-0006
X-0002
X0002
X-0Y-0
X0004
X0008
X001Y0004
X00112Y0005375
X001345Y000635
X0014Y0004
X00145429Y00010071
X001455Y00003
X001455Y-000035
X0017825
Y0000325
X00178214Y00010286
X00177Y0004125
X0016325Y000755
X00170758Y00111005
X0018325Y00157
X0016Y0016
X001515Y00152
X0011375Y0015225
X0012Y0016
X0011375Y00106208
X00065Y0013875
X0004Y0016
X-0002Y0012
X-0003925Y0009675
X-00046
X-000525
X-0006025
X-00068Y0009625
X-00075249Y0009625
Y00058749
X-0006825Y000585
X-00061
X-000545
X-0004625Y0005875
X-0003925Y00059
X-0002Y0004
X0002
X-0004Y-0
Y-0008
X-0
X0004
X0008
X0012
X0014Y-0004
Y-0012
X0018
Y-002
X0014
X001
X0006
X00044Y-0020525
X0001675Y-0017575
X-0Y-0016
X-0004
X-00087Y-0016025
X-0012Y-0016
X-001165Y-001385
X-001Y-0012
X-00080969Y-0009325
X-0008Y-0008
X-0007125Y-0019225
X00028Y-0014625
X0002Y-0012
X001
X0008Y-0016
X0012
X-001875Y-00053
X-00188Y-0004475
X-00187896Y-0003675
X-00166Y-0000425
X-0016Y-0
X-0014Y0004
X-0012625Y000585
X-0015725Y000605
X-0016025Y0008375
X-0016625Y0009175
Y0009825
Y0010475
X-0018175Y0010475
X-0018175Y0009825
Y0009175
X-0019075Y000825
X-001985Y0011125
X-0019Y00129
X-0014Y0012
X-0012625Y00101
X-001Y0012
X-0012Y0016
X-0016
X-0019725Y0003975
X-0009325Y000575
X00197Y00046
X0020925Y0004275
X002095Y0005425
X00203Y0006925
X0022Y0004
X002Y-0
X0024
X0028
X0027975Y0002275
X003Y0004
X00293Y0007375
X0028Y0008
X0032
X003Y0012
X0026
X0024Y0016
X0028
X002
X0019225Y0011925
X0024Y0008
X0026Y-0004
X003
X0034
X0032Y-0
Y-0008
X0028
X0024
X002
X0022Y-0004
X002Y-0016
X0026Y-002
X00279Y-0020075
X0029325Y-001495
X00278Y-0013325
X0034Y-0012
X003Y002
X0026
X0022
X002Y0024
X0024
X0023475Y00263
Y0027775
X0022Y0028
X002Y0032
X0024
X0028
X00293Y0029625
X0032Y0032
X002795Y0024475
X0020125Y003905
X0016Y0032
X0012
X0008
X0003463Y0032725
X-0Y0032
X-0004
X-0007975Y003225
X-000885Y003315
X-0009725Y0034075
X-0014Y0028
X-0018
X-002Y0024
X-0018Y002
X-0014
X-001
X-0006
X-0008Y0024
X-0004
X-000255Y0023625
X0002Y002
X0006
X0014
X0012Y0024
X0016
X0018Y0028
X0014
X001
X0006
X0002
X-0012Y0024
X-00203Y0039075
X-0022Y0028
X-0024375Y00299
X-0026125Y003165
X-0032Y0032
X-0032775Y0025525
X-0035Y0024075
X-003115Y0022
X-003Y002
X-0026
X-0026575Y002225
Y0023375
X-0024Y0024
X-002355Y002225
X-0022525Y0022225
T02
X002615Y-00387
X002725
Y-00376
X002615Y-00376
Y-00365
X002725Y-00365
T04
X-00011789Y00267882
X-00026921Y00288671
X-0000896Y00306632
X00006172Y00285843
X0002696Y00270711
X00042093Y00249922
X00044921Y00216829
X00062882Y0023479
X00024132Y00231961
X00009Y0025275
T05
X-002061Y-003542
X-002639
T06
X0038Y-00383
X-0038
X0Y0036
T07
X00197297Y-0031955
T09
X-00251897Y00128745
X00251897Y-00148745
M30
