M48
;Layer_Color=9474304
;FILE_FORMAT=4:4
METRIC,LZ
;TYPE=PLATED
T1F00S00C0.3000
T2F00S00C1.0000
;TYPE=NON_PLATED
T3F00S00C1.5000
%
T01
X-00188Y-0026025
X-00127Y-00225
X-00108Y-00241
X-0027554Y-0019171
X-0019875Y-0016525
X-001825Y-0013825
X-00163758Y-00141508
X-00141Y-0017075
X-0014875Y-001935
X0005375Y-001665
X000525Y-0012675
X0003175Y-000575
X00015625Y-00042
X0000175Y000185
X000015Y000305
X-0000175Y0007525
X-000015Y0008775
X0001575
X0001325Y001395
X0002325
X000335
X0003875Y0005275
Y0004175
X0011475Y00111
X001285Y0012575
X00162Y00148
X0016527Y0015802
X00158Y0017725
X-000635Y00178
X-00076Y0008975
X-0006875Y000805
X-001735Y00126
X-00177527Y00134527
X-0020225Y0014825
X0018925Y00148
X0018973Y0016473
X0020925Y001455
X00221005Y00153495
X002325Y001455
X0026402Y0017973
X0021475Y00044
X001745Y00198
X00158Y0020875
X0013525Y00227
X001155Y0024325
X0010675Y0026575
X000815Y0023675
X0003Y002475
X00018Y002285
X000075
X-0000275
X-000125
X-00038Y002265
Y0023675
X-0006375Y0024225
X-0016025Y0028125
T02
X-00262Y-00063
X-00266Y-000376
X-00262Y-000122
X-00266Y000132
X-00262Y000386
X-00266Y00064
T03
X002485Y-00066
Y00044
M30
